<svg width="2354" height="1162" viewBox="0 0 2354 1162" fill="none" xmlns="http://www.w3.org/2000/svg">
<path d="M55.3667 607.576L73.8434 607.638L255.483 252.675L236.999 252.62L55.3667 607.576Z" fill="url(#paint0_linear_8_263)"/>
<path d="M1182.29 6.02182e-05L1179.36 33.6181H1547.03C1559.1 33.6181 1565.88 36.5974 1570.43 45.481L1611.14 9.93106C1611.14 9.93106 1600.9 6.02182e-05 1582.28 6.02182e-05H1182.29Z" fill="url(#paint1_linear_8_263)"/>
<path d="M774.999 0.000182771C765.196 0.000182771 753.876 4.76398 747.872 12.1424L774.256 40.2827C774.256 40.2827 779.525 33.6182 800.64 33.6182H1179.36L1182.29 0.000182771H774.999Z" fill="url(#paint2_linear_8_263)"/>
<path d="M738.298 32.0894V134.549C738.298 150.633 735.02 154.574 735.02 154.574L764.129 184.957C764.129 184.957 768.293 174.468 768.293 168.02V66.4987C768.293 60.0901 768.877 50.7488 768.877 50.7488L741.545 17.5032C741.545 17.5032 738.298 23.3144 738.298 32.0894Z" fill="url(#paint3_linear_8_263)"/>
<path d="M1587.05 47.6305C1587.05 47.6305 1586.26 59.5477 1586.26 65.9563C1586.26 72.3649 1587.05 158.912 1587.05 165.336C1587.05 171.745 1596.55 183.631 1596.55 183.631L1631.38 153.357C1631.38 153.357 1623.11 150.633 1623.11 134.55V32.0898C1623.11 23.3149 1615.81 17.5036 1615.81 17.5036L1587.05 47.6305Z" fill="url(#paint4_linear_8_263)"/>
<path d="M697.292 175.003C686.375 175.003 311.301 175.43 291.315 175.43C262.317 175.43 245.262 187.991 245.262 187.991L269.118 219.514C269.118 219.514 278.661 207.962 299.72 207.962H722.949C737.689 207.962 748.764 201.413 748.764 201.413L721.108 168.788C721.108 168.788 707.529 175.003 697.292 175.003Z" fill="url(#paint5_linear_8_263)"/>
<path d="M44.1581 634.157L0.908731 663.95C0.908731 663.95 -2.51973 676.263 3.94202 685.992C10.4196 695.69 20.3097 697.195 20.3097 697.195L76.6011 657.704C76.6011 657.704 44.7427 656.23 57.9979 633.055C71.2532 609.872 70.5344 601.144 70.5344 601.144C70.5344 601.144 55.0673 603.634 44.1581 634.157Z" fill="url(#paint6_linear_8_263)"/>
<path d="M162.918 342.457C128.429 412.176 12.5915 636.143 8.53911 644.142C4.47879 652.11 0.410645 666.045 0.410645 666.045L45.0504 634.157L254.22 224.875C254.22 224.875 197.415 272.7 162.918 342.457Z" fill="url(#paint7_linear_8_263)"/>
<path d="M77.4938 658.666L20.1201 699.204C20.1201 699.204 673.641 700.787 690.151 700.787C706.637 700.787 713.565 703.883 713.565 703.883L742.998 671.033C742.998 671.033 714.884 658.666 699.267 658.666H77.4938Z" fill="url(#paint8_linear_8_263)"/>
<path d="M730.328 721.851C730.328 721.851 736.347 733.73 736.347 743.203V828.074C736.347 840.216 741.166 850.745 741.166 850.745L769.88 817.523V715.854C769.88 699.631 760.772 685.983 760.772 685.983L730.328 721.851Z" fill="url(#paint9_linear_8_263)"/>
<path d="M1569.38 705.357V807.034L1614.44 845.749C1614.44 845.749 1615.55 835.43 1615.55 823.311V738.401C1615.55 728.936 1618.35 722.977 1618.35 722.977L1578.95 684.285C1578.95 684.285 1569.38 689.103 1569.38 705.357Z" fill="url(#paint10_linear_8_263)"/>
<path d="M1535.67 823.995H1181.39V871.213H1573.42C1586.75 871.213 1602.28 862.508 1605.24 860.297L1560.81 818.921C1560.81 818.921 1557.88 823.995 1535.67 823.995Z" fill="url(#paint11_linear_8_263)"/>
<path d="M754.673 865.323C754.673 865.323 763.797 871.678 789.296 871.678C814.772 871.678 1181.39 871.22 1181.39 871.22V824.001H802.994C796.145 824.001 791.563 822.752 791.563 822.752L754.673 865.323Z" fill="url(#paint12_linear_8_263)"/>
<path d="M856.441 77.1909C835.918 77.1909 815.427 88.3941 815.427 110.778V220.422C815.427 242.775 801.745 251.736 785.804 251.736H332.139C313.71 251.736 299.451 259.285 291.26 274.515C284.553 287.03 171.259 510.051 134.645 582.128C126.706 597.762 133.642 607.266 154.015 607.266H788.103C815.427 607.266 819.993 631.892 819.993 656.486V741.692C819.993 757.387 835.926 775.286 854.158 775.286H1173.15V77.1909H856.441Z" fill="url(#paint13_linear_8_263)"/>
<path d="M1599.24 668.023L1635.77 704.9C1635.77 704.9 1644.89 699.942 1687.51 699.942H2077.06C2085.16 699.942 2096.32 695.946 2096.32 695.946L1890.4 655.105C1890.4 655.105 1652 655.268 1640.84 655.105C1640.42 655.09 1640 655.082 1639.59 655.082C1615.41 655.082 1599.24 668.023 1599.24 668.023Z" fill="url(#paint14_linear_8_263)"/>
<path d="M1612.96 196.983C1612.96 196.983 1630.77 202.825 1645.3 202.825H2258.67C2277.34 202.825 2288.23 204.19 2288.23 204.19L2337.8 175.173C2337.8 175.173 2321.89 170.712 2305.98 170.712H1668.98C1653.06 170.712 1646.43 167.058 1646.43 167.058L1612.96 196.983Z" fill="url(#paint15_linear_8_263)"/>
<path d="M2306.31 219.878C2306.31 219.878 2309.11 235.162 2303.81 245.551C2298.52 255.932 2113.13 614.046 2104.76 630.494C2096.37 646.934 2077.45 652.994 2077.45 652.994L2098.58 694.487C2098.58 694.487 2106.06 688.901 2110.49 683.26C2114.89 677.643 2343 221.748 2350.05 205.757C2357.08 189.751 2350.9 183.963 2350.9 183.963L2306.31 219.878Z" fill="url(#paint16_linear_8_263)"/>
<path d="M2057.79 656.075C2033.44 656.075 1896.48 657.099 1896.48 657.099L2091.27 695.946C2091.27 695.946 2103.45 691.004 2109.54 680.995C2115.64 671.033 2109.52 668.054 2102.43 674.028C2095.34 680.041 2083.17 670.079 2089.24 663.097C2095.34 656.083 2101.41 634.165 2101.41 634.165C2101.41 634.165 2082.15 656.075 2057.79 656.075Z" fill="url(#paint17_linear_8_263)"/>
<path d="M245.791 625.25C118.231 633.613 77.4937 657.301 77.4937 657.301H686.636C755.906 657.301 747.998 666.603 747.611 667.022L797.204 615.513C797.204 615.513 676.722 615.513 600.176 614.132C590.444 613.961 579.527 613.876 567.607 613.876C485.792 613.876 357.142 617.972 245.791 625.25Z" fill="url(#paint18_linear_8_263)"/>
<path d="M1682.55 614.133C1628.36 615.514 1543.03 615.514 1543.03 615.514L1599.9 668.109C1599.9 668.109 1605.75 655.796 1655.93 655.796C1706.14 655.796 2067.95 654.578 2067.95 654.578C2067.95 654.578 2074.05 635.151 1967.52 627.687C1883.59 621.798 1756.95 613.993 1695.73 613.993C1691.33 613.988 1686.94 614.035 1682.55 614.133Z" fill="url(#paint19_linear_8_263)"/>
<path d="M1553.66 257.236C1553.66 257.236 1639.02 257.236 1693.22 258.625C1747.43 260.014 2075.99 245.381 2166.36 237.017C2256.72 228.669 2285.55 204.99 2285.55 204.99C2285.55 204.99 1711.07 208 1660.87 208C1610.71 208 1617.71 198.232 1617.71 198.232L1553.66 257.236Z" fill="url(#paint20_linear_8_263)"/>
<path d="M763.797 687.49C763.797 687.49 769.888 706.902 769.888 721.853V789.104C769.888 807.034 775.986 816.019 775.986 816.019L827.72 765.184C827.72 765.184 819.994 747.262 819.994 733.808V657.984C819.994 640.449 815.539 626.189 815.539 626.189L763.797 687.49Z" fill="url(#paint21_linear_8_263)"/>
<path d="M1522.94 657.557C1522.94 675.091 1521.74 722.015 1521.74 735.484C1521.74 748.899 1518.6 765.184 1518.6 765.184L1570.32 816.019C1570.32 816.019 1576.43 807.026 1576.43 789.104V721.853C1576.43 706.902 1582.51 687.49 1582.51 687.49L1527.11 624.777C1524.42 635.506 1523.02 646.508 1522.94 657.557Z" fill="url(#paint22_linear_8_263)"/>
<path d="M792.726 821.978L1170.11 824.957L1171.63 824.926V775.286L842.934 774.123L792.726 821.978Z" fill="url(#paint23_linear_8_263)"/>
<path d="M1173.15 775.285H1171.63V824.925L1559.67 820.502L1497.28 774.121L1173.15 775.285Z" fill="url(#paint24_linear_8_263)"/>
<path d="M797.82 33.3386C787.164 33.3386 777.305 38.979 777.305 38.979L827.324 87.3152C827.324 87.3152 832.254 76.8178 867.501 76.8178H1173.15V33.3386H797.82Z" fill="url(#paint25_linear_8_263)"/>
<path d="M1173.15 33.3387V76.8179H1478.79C1514.04 76.8179 1521.34 91.885 1521.34 91.885L1571.34 43.5723C1571.34 43.5723 1559.15 33.3387 1548.49 33.3387H1173.15Z" fill="url(#paint26_linear_8_263)"/>
<path d="M767.77 75.5689V163.342C767.77 173.754 763.117 186.09 763.117 186.09L812.102 240.695C812.102 240.695 815.411 236.156 815.411 213.416C815.411 190.66 817.386 101.614 817.386 101.614L768.418 47.6613C768.418 47.6613 767.77 61.9293 767.77 75.5689Z" fill="url(#paint27_linear_8_263)"/>
<path d="M1523.38 102.662V211.794C1523.38 234.543 1534.21 240.695 1534.21 240.695L1594.08 181.466C1594.08 181.466 1586.27 169.075 1586.27 158.694C1586.27 148.282 1585.77 84.8248 1585.77 71.1775C1585.77 57.5301 1586.37 44.907 1586.37 44.907L1523.38 102.662Z" fill="url(#paint28_linear_8_263)"/>
<path d="M727.279 209.179H307.297C295.124 209.179 275.328 213.664 269.245 219.654L307.297 258.516C307.297 258.516 317.937 251.053 343.816 251.053H780.537C792.726 251.053 804.883 246.545 804.883 246.545L756.206 197.239C756.206 197.239 744.018 209.179 727.279 209.179Z" fill="url(#paint29_linear_8_263)"/>
<path d="M2035.37 608.918C2035.37 608.918 2058.89 600.228 2066.24 627.663C2066.24 627.663 2072.12 636.345 2088.28 613.224C2104.44 590.134 2257.33 281.272 2255.81 276.897C2254.34 272.583 2223.47 266.795 2223.47 266.795L2035.37 608.918Z" fill="url(#paint30_linear_8_263)"/>
<path d="M2227.9 269.72C2235.27 274.034 2242.61 279.821 2232.33 301.46C2222.05 323.076 2104.47 548.284 2079.51 591.57C2054.52 634.863 2076.54 652.188 2076.54 652.188C2076.54 652.188 2095.67 643.506 2101.41 634.149C2107.21 624.761 2286.72 275.469 2299.09 252.015C2311.44 228.553 2302.87 219.165 2302.87 219.165L2227.9 269.72Z" fill="url(#paint31_linear_8_263)"/>
<path d="M1173.15 77.1909V775.286H1487.43C1505.64 775.286 1521.6 768.575 1521.6 748.395V644.282C1521.6 624.149 1535.25 608.523 1551.21 608.523H2025.33C2041.97 608.523 2056.91 598.956 2065.58 583.222C2104.32 512.867 2211.02 308.839 2219.09 292.391C2228.95 272.312 2222.85 260.682 2200 260.682H1571.71C1544.37 260.682 1523.84 240.564 1523.84 215.946V101.824C1523.84 86.1597 1514.73 77.1984 1494.24 77.1984L1173.15 77.1909Z" fill="url(#paint32_linear_8_263)"/>
<path d="M72.3589 637.874L133.185 601.649C133.185 601.649 126.217 598.669 137.166 577.139C148.13 555.609 250.831 349.944 250.831 349.944L227.915 345.072L72.3589 637.874Z" fill="url(#paint33_linear_8_263)"/>
<path d="M66.8532 611.245C51.631 638.152 54.696 648.595 54.696 648.595L91.2073 624.683C91.2073 624.683 254.023 315.309 270.762 279.426C287.508 243.565 262.554 228.956 262.554 228.956C262.554 228.956 82.0755 584.346 66.8532 611.245Z" fill="url(#paint34_linear_8_263)"/>
<path d="M91.4893 658.569C89.0763 660.159 66.8231 662.858 62.4737 658.569C58.1184 654.326 50.8437 651.002 56.6528 646.235C62.4797 641.463 134.047 599.679 134.047 599.679C134.047 599.679 125.355 604.422 198.895 604.422H787.148C802.633 604.422 817.135 614.86 819.083 621.516C821.019 628.183 817.141 631.019 812.309 630.089C807.489 629.124 794.894 625.323 791.992 620.556C789.09 615.82 795.865 612.019 753.283 612.019C710.713 612.019 385.625 616.785 312.109 623.422C238.569 630.089 141.787 625.323 91.4893 658.569ZM2264.28 206.224C2266.69 204.663 2288.97 201.969 2293.32 206.224C2297.67 210.501 2304.94 213.826 2299.13 218.586C2293.32 223.329 2221.73 265.142 2221.73 265.142C2221.73 265.142 2230.41 260.4 2156.89 260.4H1568.61C1553.14 260.4 1538.63 249.967 1536.7 243.3C1534.76 236.627 1538.62 233.767 1543.44 234.733C1548.32 235.698 1560.87 239.499 1563.79 244.23C1566.68 249.002 1559.9 252.774 1602.49 252.774C1645.07 252.774 1970.12 248.043 2043.69 241.394C2117.2 234.733 2213.99 239.499 2264.28 206.224M281.419 261.198C281.419 254.472 285.22 241.775 282.188 238.057C279.137 234.304 288.265 229.823 294.36 233.541C300.449 237.289 313.372 240.268 314.891 243.271C316.417 246.25 314.135 253.709 305.77 256.712C297.393 259.691 289.784 266.423 276.855 294.051C263.915 321.732 190.107 462.21 190.107 462.21C190.107 462.21 200.771 439.802 196.202 439.033C191.638 438.294 180.997 456.985 180.997 456.985L281.419 261.198ZM790.157 247.977C783.859 248.603 782.102 241.829 787.476 240.947C792.874 240.059 800.023 239.636 806.291 215.411C812.583 191.185 808.102 117.687 807.197 104.49C806.291 91.2813 800.029 75.4449 809.008 68.4085C817.957 61.3482 824.237 76.3327 847.545 76.3327C870.84 76.3327 923.736 74.5691 923.736 74.5691C923.736 74.5691 849.338 79.8181 836.772 81.5996C824.231 83.3691 813.471 93.039 815.252 110.651C817.063 128.263 812.583 218.956 809.008 228.632C805.409 238.307 799.124 247.096 790.157 247.977ZM1292.09 75.1113C1282.22 75.5581 1481.1 77.4051 1493.63 77.4051C1506.17 77.4051 1520.52 81.1467 1523.21 93.456C1525.9 105.801 1523.99 146.202 1523.99 146.202C1523.99 146.202 1530.17 94.3438 1539.15 84.6679C1548.11 74.9564 1545.42 60.8954 1533.77 63.505C1522.11 66.1742 1429.82 69.0102 1292.09 75.1113ZM1557.66 614.831C1551.41 613.919 1544.26 613.079 1542.45 618.346C1540.65 623.589 1550.49 627.11 1540.65 632.359C1530.84 637.638 1523.52 640.879 1523.52 636.476C1523.52 632.079 1528.59 609.522 1547.37 609.522C1566.16 609.522 2029.7 608.652 2036.9 608.652C2044.02 608.652 2052.98 609.522 2056.54 616.57C2060.12 623.601 2064.58 641.153 2067.28 646.438C2069.95 651.705 2065.5 651.705 2057.42 641.153C2049.38 630.608 2028.84 626.234 2012.76 627.11C1996.64 627.986 1557.66 614.831 1557.66 614.831ZM2069.05 629.75C2069.05 629.75 2064.6 620.104 2061.9 613.919C2059.22 607.794 2051.18 605.185 2051.18 605.185C2051.18 605.185 2060.11 594.609 2072.62 571.802C2085.15 548.995 2144.16 440.07 2150.41 425.139C2150.41 425.139 2137 465.57 2162.93 432.17C2162.93 432.17 2078.89 588.455 2073.51 599.006C2068.16 609.558 2069.05 629.75 2069.05 629.75M825.559 752.664C825.559 752.664 826.626 765.295 819.161 770.538C811.689 775.787 808.472 785.23 814.889 789.442C821.299 793.637 825.571 791.54 829.843 785.23C834.121 778.944 849.1 773.683 858.71 775.793C858.722 775.787 825.559 779.951 825.559 752.664ZM1286.34 775.161C1286.34 775.161 1466.76 784.497 1477.44 784.986L1495.61 785.802C1495.61 785.802 1476.47 782.823 1482.13 776.782L1286.33 775.161H1286.34ZM1500.17 773.689C1500.17 773.689 1494.84 782.084 1503.37 786.261C1511.95 790.455 1520.51 794.65 1525.85 788.358C1531.18 782.066 1521.58 765.271 1522.63 753.724C1522.63 753.718 1526.91 771.592 1500.17 773.689Z" fill="white"/>
<path d="M1720.23 788.889H1710.24V805.518H1720.23C1725.32 805.518 1726.82 803.534 1726.82 800.269V794.114C1726.82 789.914 1724.83 788.889 1720.23 788.889ZM1720.23 810.904H1710.24V824.583H1704.16V783.414H1720.23C1729.33 783.414 1732.9 787.393 1732.9 794.12V800.275C1732.9 804.737 1731.33 807.74 1726.82 809.724L1738.1 824.583H1730.9L1720.23 810.904ZM1718.36 837.119C1739.81 837.119 1751.08 822.671 1751.08 804.946C1751.08 787.215 1739.82 772.552 1718.36 772.552C1696.88 772.552 1685.35 787.215 1685.35 804.946C1685.35 822.671 1696.87 837.119 1718.36 837.119ZM1718.36 767.112C1742.13 767.112 1756.66 783.997 1756.66 804.874C1756.66 825.459 1742.14 842.595 1718.36 842.595C1694.44 842.595 1679.79 825.459 1679.79 804.874C1679.79 783.997 1694.44 767.112 1718.36 767.112ZM495.336 1038.49H428.951V955.511H364.885V1161.81H428.951V1072.86H495.336V1161.81H559.468V955.499H495.336V1038.49ZM1673.94 1127.47V955.493H1609.86V1161.8H1765.66V1127.47H1673.94ZM2038.27 955.493V989.913H2096.6V1161.81H2160.65V989.913H2219.01V955.499L2038.27 955.493ZM133.708 998.45C133.708 972.67 149.568 955.493 173.352 955.493H301.867V989.871H209.732C202.57 989.871 197.858 995.084 197.858 1002.79V1114.52C197.858 1122.28 202.564 1127.47 209.732 1127.47H301.867V1161.8H173.352C149.568 1161.8 133.708 1144.59 133.708 1118.84V998.45ZM1248.38 1078.11L1303.78 1161.8H1235.66L1186.61 1076.7V1049.81H1213.09C1220.22 1049.81 1224.97 1044.58 1224.97 1036.89V1002.78C1224.97 995.072 1220.22 989.895 1213.09 989.895H1168.25V1161.8H1104.14V955.499H1249.44C1273.29 955.499 1289.08 972.67 1289.08 998.456L1289.14 1040.14C1289.14 1062.87 1275.18 1078.11 1254.13 1078.11H1248.38ZM1470.55 1127.47C1477.64 1127.47 1482.41 1122.28 1482.41 1114.55V1002.78C1482.41 995.09 1477.64 989.871 1470.55 989.871H1425.85C1418.72 989.871 1413.93 995.09 1413.93 1002.78V1114.55C1413.93 1122.28 1418.72 1127.47 1425.85 1127.47H1470.55ZM1349.85 998.45C1349.85 972.664 1365.65 955.493 1389.44 955.493H1506.88C1530.64 955.493 1546.54 972.664 1546.54 998.45V1118.84C1546.54 1144.59 1530.64 1161.8 1506.88 1161.8H1389.44C1365.65 1161.8 1349.85 1144.59 1349.85 1118.84V998.45ZM844.649 955.493H913.386L954.407 1114.99C954.514 1115.66 954.862 1116.26 955.387 1116.69C955.911 1117.11 956.574 1117.33 957.249 1117.3C958.703 1117.3 959.841 1116.44 960.109 1114.99L999.992 955.493H1053.79L1004.1 1132.54C998.08 1152.69 987.212 1161.8 964.393 1161.8H932.399C917.724 1161.8 905.76 1154.37 898.569 1132.39L844.649 955.493ZM688.346 1120.95C688.346 1124.91 690.711 1127.43 694.316 1127.43H799.648V1161.81H663.858C640.086 1161.81 624.238 1144.59 624.238 1118.88V998.468C624.238 972.682 640.086 955.499 663.858 955.499H799.648V989.913H694.31C690.705 989.913 688.334 992.475 688.334 996.359V1038.45H787.547V1072.85H688.346V1120.95V1120.95ZM1874.42 1120.95C1874.42 1124.91 1876.76 1127.43 1880.3 1127.43H1985.69V1161.81H1849.88C1826.12 1161.81 1810.18 1144.59 1810.18 1118.88V998.468C1810.18 972.682 1826.11 955.499 1849.88 955.499H1985.68V989.913H1880.3C1876.76 989.901 1874.42 992.463 1874.42 996.359V1038.45H1973.56V1072.85H1874.42V1120.95V1120.95Z" fill="black"/>
<defs>
<linearGradient id="paint0_linear_8_263" x1="243.513" y1="258.272" x2="242.279" y2="723.439" gradientUnits="userSpaceOnUse">
<stop stop-color="#C7D6EE"/>
<stop offset="0.185" stop-color="#91AFC8"/>
<stop offset="1" stop-color="#002334"/>
</linearGradient>
<linearGradient id="paint1_linear_8_263" x1="-1.21778e+06" y1="433764" x2="-1.2175e+06" y2="433473" gradientUnits="userSpaceOnUse">
<stop stop-color="#E1E8F5"/>
<stop offset="0.899" stop-color="#92A5C1"/>
<stop offset="0.955" stop-color="#476886"/>
<stop offset="1" stop-color="#E1E8F5"/>
</linearGradient>
<linearGradient id="paint2_linear_8_263" x1="859.711" y1="123.92" x2="1152.04" y2="-173.718" gradientUnits="userSpaceOnUse">
<stop stop-color="#E1E8F5"/>
<stop offset="0.039" stop-color="#476886"/>
<stop offset="0.09" stop-color="#92A5C1"/>
<stop offset="1" stop-color="#E1E8F5"/>
</linearGradient>
<linearGradient id="paint3_linear_8_263" x1="715.581" y1="134.969" x2="810.883" y2="44.4851" gradientUnits="userSpaceOnUse">
<stop stop-color="#E1E8F5"/>
<stop offset="0.157" stop-color="#C7D6EE"/>
<stop offset="1" stop-color="#E1E8F5"/>
</linearGradient>
<linearGradient id="paint4_linear_8_263" x1="1646.41" y1="137.758" x2="1545.5" y2="41.9516" gradientUnits="userSpaceOnUse">
<stop stop-color="#E1E8F5"/>
<stop offset="0.157" stop-color="#C7D6EE"/>
<stop offset="1" stop-color="#E1E8F5"/>
</linearGradient>
<linearGradient id="paint5_linear_8_263" x1="371.031" y1="319.33" x2="698.9" y2="-14.4924" gradientUnits="userSpaceOnUse">
<stop stop-color="#476886"/>
<stop offset="0.129" stop-color="#92A5C1"/>
<stop offset="1" stop-color="#E1E8F5"/>
</linearGradient>
<linearGradient id="paint6_linear_8_263" x1="55.3464" y1="668.921" x2="17.1211" y2="613.338" gradientUnits="userSpaceOnUse">
<stop stop-color="#002334"/>
<stop offset="0.107" stop-color="white"/>
<stop offset="0.185" stop-color="#91AFC8"/>
<stop offset="0.242" stop-color="#002334"/>
<stop offset="0.534" stop-color="#5E738F"/>
<stop offset="0.758" stop-color="#002334"/>
<stop offset="1" stop-color="#002334"/>
</linearGradient>
<linearGradient id="paint7_linear_8_263" x1="266.126" y1="376.221" x2="-32.9179" y2="531.173" gradientUnits="userSpaceOnUse">
<stop stop-color="#91AFC8"/>
<stop offset="1" stop-color="#002334"/>
</linearGradient>
<linearGradient id="paint8_linear_8_263" x1="389.186" y1="728.346" x2="366.879" y2="599.544" gradientUnits="userSpaceOnUse">
<stop stop-color="#A5B9CC"/>
<stop offset="1" stop-color="#002334"/>
</linearGradient>
<linearGradient id="paint9_linear_8_263" x1="737.934" y1="768.34" x2="776.318" y2="768.34" gradientUnits="userSpaceOnUse">
<stop stop-color="#5E738F"/>
<stop offset="0.489" stop-color="#91AFC8"/>
<stop offset="1" stop-color="#91AFC8"/>
</linearGradient>
<linearGradient id="paint10_linear_8_263" x1="1609.78" y1="765.006" x2="1562.25" y2="765.006" gradientUnits="userSpaceOnUse">
<stop stop-color="#5E738F"/>
<stop offset="0.32" stop-color="#91AFC8"/>
<stop offset="1" stop-color="#91AFC8"/>
</linearGradient>
<linearGradient id="paint11_linear_8_263" x1="1340.39" y1="932.527" x2="1466.91" y2="709.414" gradientUnits="userSpaceOnUse">
<stop stop-color="#A5B9CC"/>
<stop offset="1" stop-color="#002334"/>
</linearGradient>
<linearGradient id="paint12_linear_8_263" x1="927.507" y1="775.003" x2="1055.01" y2="999.848" gradientUnits="userSpaceOnUse">
<stop stop-color="#002334"/>
<stop offset="0.775" stop-color="#A5B9CC"/>
<stop offset="1" stop-color="#A5B9CC"/>
</linearGradient>
<linearGradient id="paint13_linear_8_263" x1="533.828" y1="136.806" x2="1103.21" y2="1140.91" gradientUnits="userSpaceOnUse">
<stop stop-color="#FFEFCF"/>
<stop offset="0.461" stop-color="#FFE4A6"/>
<stop offset="1" stop-color="#BC956E"/>
</linearGradient>
<linearGradient id="paint14_linear_8_263" x1="1763.05" y1="774.662" x2="1923.89" y2="592.129" gradientUnits="userSpaceOnUse">
<stop stop-color="#5E738F"/>
<stop offset="0.607" stop-color="#91AFC8"/>
<stop offset="1" stop-color="#C7DFF4"/>
</linearGradient>
<linearGradient id="paint15_linear_8_263" x1="1886.99" y1="35.635" x2="2099.02" y2="409.556" gradientUnits="userSpaceOnUse">
<stop stop-color="#E1E8F5"/>
<stop offset="0.815" stop-color="#7F97B4"/>
<stop offset="0.904" stop-color="#476886"/>
<stop offset="1" stop-color="#002334"/>
</linearGradient>
<linearGradient id="paint16_linear_8_263" x1="2079.12" y1="674.541" x2="2424.32" y2="65.7809" gradientUnits="userSpaceOnUse">
<stop stop-color="#8CA0B5"/>
<stop offset="0.14" stop-color="#E1E8F5"/>
<stop offset="0.815" stop-color="#7F97B4"/>
<stop offset="0.904" stop-color="#476886"/>
<stop offset="1" stop-color="#002334"/>
</linearGradient>
<linearGradient id="paint17_linear_8_263" x1="1985.34" y1="681.668" x2="2109.95" y2="608.417" gradientUnits="userSpaceOnUse">
<stop stop-color="#002334"/>
<stop offset="0.815" stop-color="#A5B9CC"/>
<stop offset="0.888" stop-color="#002334"/>
<stop offset="1" stop-color="#002334"/>
</linearGradient>
<linearGradient id="paint18_linear_8_263" x1="274.976" y1="477.368" x2="678.883" y2="888.608" gradientUnits="userSpaceOnUse">
<stop stop-color="#D4BC7B"/>
<stop offset="0.332" stop-color="#7F5F39"/>
<stop offset="1" stop-color="#D4BC7B"/>
</linearGradient>
<linearGradient id="paint19_linear_8_263" x1="1921.37" y1="521.153" x2="1632.87" y2="814.894" gradientUnits="userSpaceOnUse">
<stop stop-color="#D4BC7B"/>
<stop offset="0.332" stop-color="#7F5F39"/>
<stop offset="1" stop-color="#D4BC7B"/>
</linearGradient>
<linearGradient id="paint20_linear_8_263" x1="2106.54" y1="47.1295" x2="1640.22" y2="521.914" gradientUnits="userSpaceOnUse">
<stop stop-color="#D4BC7B"/>
<stop offset="0.332" stop-color="#7F5F39"/>
<stop offset="1" stop-color="#D4BC7B"/>
</linearGradient>
<linearGradient id="paint21_linear_8_263" x1="775.54" y1="721.084" x2="837.566" y2="721.084" gradientUnits="userSpaceOnUse">
<stop stop-color="#D3BD8B"/>
<stop offset="1" stop-color="#7F5F39"/>
</linearGradient>
<linearGradient id="paint22_linear_8_263" x1="1571.63" y1="720.426" x2="1509.59" y2="720.426" gradientUnits="userSpaceOnUse">
<stop stop-color="#D3BD8B"/>
<stop offset="1" stop-color="#7F5F39"/>
</linearGradient>
<linearGradient id="paint23_linear_8_263" x1="947.986" y1="740.223" x2="1060.19" y2="938.094" gradientUnits="userSpaceOnUse">
<stop stop-color="#7F5F39"/>
<stop offset="0.646" stop-color="#D3BD8B"/>
<stop offset="0.888" stop-color="#FFE4A6"/>
<stop offset="1" stop-color="#FFE4A6"/>
</linearGradient>
<linearGradient id="paint24_linear_8_263" x1="1399.13" y1="740.404" x2="1276.56" y2="956.566" gradientUnits="userSpaceOnUse">
<stop stop-color="#7F5F39"/>
<stop offset="0.455" stop-color="#D3BD8B"/>
<stop offset="0.888" stop-color="#FFE4A6"/>
<stop offset="1" stop-color="#FFE4A6"/>
</linearGradient>
<linearGradient id="paint25_linear_8_263" x1="885.496" y1="145.262" x2="1146.93" y2="-120.923" gradientUnits="userSpaceOnUse">
<stop stop-color="#D4BC7B"/>
<stop offset="0.039" stop-color="#7F5F39"/>
<stop offset="0.107" stop-color="#D1AC75"/>
<stop offset="1" stop-color="#D4BC7B"/>
</linearGradient>
<linearGradient id="paint26_linear_8_263" x1="1463.5" y1="148.878" x2="1197.49" y2="-121.958" gradientUnits="userSpaceOnUse">
<stop stop-color="#D4BC7B"/>
<stop offset="0.039" stop-color="#7F5F39"/>
<stop offset="0.107" stop-color="#D1AC75"/>
<stop offset="1" stop-color="#D4BC7B"/>
</linearGradient>
<linearGradient id="paint27_linear_8_263" x1="752.827" y1="177.819" x2="850.164" y2="85.4024" gradientUnits="userSpaceOnUse">
<stop stop-color="#FFE292"/>
<stop offset="0.157" stop-color="#D1AC75"/>
<stop offset="1" stop-color="#FFE292"/>
</linearGradient>
<linearGradient id="paint28_linear_8_263" x1="1598.15" y1="177.044" x2="1496.68" y2="80.7022" gradientUnits="userSpaceOnUse">
<stop stop-color="#FFE292"/>
<stop offset="0.157" stop-color="#D1AC75"/>
<stop offset="1" stop-color="#FFE292"/>
</linearGradient>
<linearGradient id="paint29_linear_8_263" x1="415.209" y1="353.715" x2="718.601" y2="44.8149" gradientUnits="userSpaceOnUse">
<stop stop-color="#7F5F39"/>
<stop offset="1" stop-color="#BD9B6A"/>
</linearGradient>
<linearGradient id="paint30_linear_8_263" x1="2096.83" y1="395.907" x2="2225.91" y2="527.33" gradientUnits="userSpaceOnUse">
<stop stop-color="#7F5F39"/>
<stop offset="1" stop-color="#D4BC7B"/>
</linearGradient>
<linearGradient id="paint31_linear_8_263" x1="2064.64" y1="641.228" x2="2346.83" y2="87.8203" gradientUnits="userSpaceOnUse">
<stop stop-color="#A78A5E"/>
<stop offset="0.764" stop-color="#7F5F39"/>
<stop offset="0.916" stop-color="#674C2B"/>
<stop offset="1" stop-color="#674C2B"/>
</linearGradient>
<linearGradient id="paint32_linear_8_263" x1="1880.19" y1="736.555" x2="1072.33" y2="-243.703" gradientUnits="userSpaceOnUse">
<stop stop-color="#FFEFCF"/>
<stop offset="0.461" stop-color="#FFE4A6"/>
<stop offset="1" stop-color="#BC956E"/>
</linearGradient>
<linearGradient id="paint33_linear_8_263" x1="48.4041" y1="603.908" x2="328.542" y2="318.684" gradientUnits="userSpaceOnUse">
<stop stop-color="#7F5F39"/>
<stop offset="1" stop-color="#E9CF98"/>
</linearGradient>
<linearGradient id="paint34_linear_8_263" x1="10.3236" y1="590.51" x2="387.193" y2="206.798" gradientUnits="userSpaceOnUse">
<stop stop-color="#7F5F39"/>
<stop offset="1" stop-color="#E4CB90"/>
</linearGradient>
</defs>
</svg>
