<svg width="2427" height="547" viewBox="0 0 2427 547" fill="none" xmlns="http://www.w3.org/2000/svg">
<path fill-rule="evenodd" clip-rule="evenodd" d="M2074.68 335.58C2040.4 366.227 1959.23 380.675 1861.82 378.873C1818.5 413.152 1703.05 420.363 1574.97 420.363C1374.73 420.363 1401.77 539.425 1206.94 539.425C1012.11 539.425 1037.36 420.363 838.91 420.363C710.821 420.363 595.364 413.139 552.071 378.873C454.642 380.675 373.464 366.227 339.185 335.58C200.279 331.961 166 304.906 153.367 283.247C238.164 290.471 645.881 304.906 927.312 304.906C1026.53 304.906 1071.64 241.756 1206.94 241.756C1342.25 241.756 1385.55 304.906 1486.57 304.906C1768 304.906 2175.72 290.471 2260.53 283.247C2247.87 304.893 2213.6 331.948 2074.68 335.58Z" fill="white"/>
<path fill-rule="evenodd" clip-rule="evenodd" d="M1206.93 265.206C1100.48 265.206 1012.1 315.71 1012.1 380.662C1012.1 443.812 1100.5 501.541 1206.93 501.541C1315.16 501.541 1401.77 443.812 1401.77 380.662C1401.77 315.71 1315.16 265.206 1206.93 265.206Z" fill="#0C0E0F"/>
<path fill-rule="evenodd" clip-rule="evenodd" d="M1380.11 380.663C1380.11 440.194 1302.55 488.908 1206.93 488.908C1111.31 488.908 1035.54 440.194 1035.54 380.663C1035.54 322.934 1111.31 274.22 1206.93 274.22C1302.55 274.22 1380.11 322.934 1380.11 380.663ZM1206.93 285.062C1152.8 285.062 1109.51 328.356 1109.51 380.663C1109.51 434.798 1152.8 476.289 1206.93 476.289C1262.85 476.289 1306.15 434.798 1306.15 380.663C1306.15 328.356 1262.85 285.062 1206.93 285.062ZM1297.13 303.103C1316.99 322.934 1327.81 351.818 1327.81 380.663C1327.81 411.336 1316.99 440.194 1297.13 460.051C1336.83 443.812 1363.87 413.139 1363.87 380.663C1363.87 348.186 1336.82 319.342 1297.13 303.103ZM1087.85 380.663C1087.85 351.805 1098.68 322.934 1118.53 303.103C1078.82 319.342 1051.77 348.199 1051.77 380.663C1051.77 413.126 1078.82 443.812 1118.53 460.051C1098.68 440.194 1087.85 411.349 1087.85 380.663Z" fill="#9B895D"/>
<path fill-rule="evenodd" clip-rule="evenodd" d="M1343.08 429.053C1339.49 438.991 1334.77 448.485 1329.03 457.353C1297.69 476.859 1254.55 488.921 1206.93 488.921C1156.94 488.921 1112.37 475.627 1081.22 454.395C1074.94 444.23 1070.01 433.286 1066.57 421.841C1078.35 437.6 1096.5 451.049 1118.54 460.063C1098.69 440.207 1087.87 411.349 1087.87 380.675C1087.87 351.818 1098.69 322.947 1118.54 303.116C1097.15 311.858 1079.42 324.296 1067.62 338.965C1071.17 327.992 1076.02 317.616 1082.03 308.006C1113.13 287.358 1157.37 274.232 1206.93 274.232C1254.16 274.232 1297 286.139 1328.26 305.139C1333.78 313.596 1338.44 322.7 1342.09 332.272C1330.61 320.521 1315.19 310.483 1297.12 303.116C1316.98 322.947 1327.79 351.831 1327.79 380.675C1327.79 411.349 1316.98 440.207 1297.12 460.063C1315.72 452.45 1331.53 441.685 1343.08 429.053ZM1206.93 285.062C1152.8 285.062 1109.51 328.355 1109.51 380.662C1109.51 434.798 1152.8 476.288 1206.93 476.288C1262.85 476.288 1306.15 434.798 1306.15 380.662C1306.15 328.355 1262.85 285.062 1206.93 285.062Z" fill="#9B895D"/>
<path fill-rule="evenodd" clip-rule="evenodd" d="M1117.11 418.431C1112.11 407.1 1109.52 394.852 1109.51 382.465V381.609C1109.59 394.265 1112.17 406.78 1117.11 418.431Z" fill="#D0B26F"/>
<path fill-rule="evenodd" clip-rule="evenodd" d="M1235.8 445.615C1237.6 445.615 1234.01 445.615 1235.8 445.615C1246.61 440.194 1253.84 442.022 1261.05 432.969C1270.06 425.771 1270.06 416.731 1273.67 407.717C1273.67 405.914 1275.5 404.125 1275.5 402.322L1289.91 409.546L1280.89 463.656L1270.08 456.432L1264.66 479.894L1235.8 445.615Z" fill="#325E9E"/>
<path fill-rule="evenodd" clip-rule="evenodd" d="M1134.76 395.111C1132.96 391.492 1131.16 387.887 1131.16 382.465C1131.16 371.648 1138.37 366.227 1141.97 355.41C1145.58 344.593 1145.58 337.369 1154.61 328.355C1161.82 321.131 1169.04 322.934 1179.86 317.513C1190.68 313.92 1196.1 308.499 1206.91 308.499C1217.74 308.499 1223.14 313.92 1233.98 317.513C1244.8 321.131 1252.02 321.131 1259.23 326.553L1134.76 395.111ZM1208.73 454.629C1196.1 454.629 1192.49 449.208 1179.86 445.615C1170.83 442.022 1163.63 442.022 1156.41 434.798L1279.08 366.227C1280.88 369.846 1284.5 375.241 1284.5 380.662C1284.5 389.676 1279.08 395.098 1275.49 402.322C1275.49 404.125 1273.66 405.914 1273.66 407.717C1271.85 411.336 1271.85 413.139 1271.85 414.941C1270.05 416.744 1270.05 418.56 1270.05 418.56C1268.25 423.955 1266.46 429.377 1261.04 432.969C1255.62 440.194 1248.39 440.194 1239.38 443.812C1237.58 443.812 1235.79 443.812 1235.79 445.615H1233.98C1224.98 449.208 1219.56 454.629 1208.73 454.629Z" fill="#9B895D"/>
<path fill-rule="evenodd" clip-rule="evenodd" d="M1253.84 380.663C1253.84 405.915 1234.01 427.574 1206.93 427.574C1181.68 427.574 1160.03 405.915 1160.03 380.663C1160.03 357.2 1181.68 335.567 1206.93 335.567C1234.01 335.58 1253.84 357.213 1253.84 380.663ZM1206.93 326.553C1176.27 326.553 1151 349.989 1151 380.663C1151 411.336 1176.27 436.588 1206.93 436.588C1239.39 436.588 1264.66 411.336 1264.66 380.663C1264.66 349.989 1239.4 326.553 1206.93 326.553Z" fill="#EECE79"/>
<path fill-rule="evenodd" clip-rule="evenodd" d="M1201.52 326.553C1203.32 326.553 1206.93 326.553 1206.93 328.356L1212.34 333.751C1210.53 335.58 1208.73 335.58 1206.93 333.751L1201.52 326.553ZM1192.49 328.356H1197.9L1205.12 333.751C1203.31 335.58 1199.72 337.37 1199.72 335.58L1192.49 328.356ZM1183.48 333.751C1183.48 330.158 1187.1 330.158 1188.89 330.158L1196.11 335.58C1194.31 337.382 1192.51 339.172 1190.7 337.382L1183.48 333.751ZM1174.45 337.37C1174.45 335.567 1178.06 333.751 1179.86 335.567L1187.08 337.37C1187.08 340.962 1185.28 340.962 1183.47 340.962L1174.45 337.37ZM1167.24 344.594C1167.24 340.975 1170.85 340.975 1170.85 340.975L1179.87 342.778C1179.81 343.716 1179.42 344.602 1178.75 345.268C1178.09 345.934 1177.21 346.335 1176.27 346.396L1167.24 344.594ZM1161.83 351.818C1161.83 348.199 1163.65 346.396 1165.44 346.396H1174.45C1174.45 349.989 1172.65 351.818 1170.85 351.818H1161.83ZM1156.42 359.029C1156.42 357.2 1158.23 355.41 1160.03 355.41L1167.24 353.608C1169.04 355.41 1167.24 357.2 1165.44 359.029H1156.42ZM1152.8 368.056C1152.8 366.227 1154.61 364.437 1154.61 364.437L1163.63 360.845C1165.44 362.648 1163.63 364.437 1161.82 366.24L1152.8 368.056ZM1151 378.873C1151 375.254 1151 373.451 1152.8 373.451L1160.03 368.056C1161.83 369.859 1161.83 371.649 1160.03 373.451L1151 378.873ZM1152.8 387.887C1151 386.084 1151 382.465 1152.8 382.465L1158.21 377.07C1160.03 378.873 1160.03 380.663 1160.03 382.465L1152.8 387.887ZM1154.61 396.901C1152.8 395.098 1152.8 393.308 1152.8 391.479L1158.21 384.255C1160.03 386.084 1161.82 387.874 1160.03 389.677L1154.61 396.901ZM1158.21 405.928C1156.41 404.125 1154.61 402.335 1156.41 400.532L1160.02 393.308C1161.82 393.308 1163.62 396.901 1161.82 396.901L1158.21 405.928ZM1163.63 413.139C1160.03 413.139 1160.03 409.546 1160.03 409.546L1163.63 400.532C1165.44 400.532 1167.24 404.125 1165.44 405.928L1163.63 413.139ZM1169.04 420.363C1167.24 420.363 1165.44 418.56 1165.44 416.744L1167.24 407.73C1169.04 407.73 1170.85 409.559 1170.85 411.349L1169.04 420.363ZM1176.27 427.574C1174.45 427.574 1172.66 423.956 1172.66 422.153V414.929C1174.46 414.929 1176.27 414.929 1176.27 416.731V427.574ZM1185.28 431.18C1183.47 431.18 1179.87 429.377 1179.87 427.587L1178.07 420.363C1181.68 418.56 1183.48 420.363 1183.48 422.166L1185.28 431.18ZM1194.29 434.798C1192.49 434.798 1188.89 432.97 1188.89 432.97L1185.28 423.956C1188.89 422.153 1190.69 423.956 1190.69 425.784L1194.29 434.798ZM1205.12 434.798C1201.51 436.601 1199.72 436.601 1197.9 434.798L1194.29 427.574C1196.1 425.771 1197.9 425.771 1199.7 427.574L1205.12 434.798ZM1214.15 434.798C1212.35 436.601 1208.74 436.601 1208.74 434.798L1203.33 429.377C1203.33 427.574 1206.94 427.574 1208.74 427.574L1214.15 434.798ZM1223.17 432.983C1221.36 434.811 1219.56 434.811 1217.76 434.811L1210.53 429.39C1212.34 427.587 1214.14 425.797 1215.94 427.587L1223.17 432.983ZM1232.18 429.377C1232.18 431.18 1228.59 432.97 1226.78 431.18L1219.56 427.587C1219.56 425.784 1223.17 423.969 1224.98 425.784L1232.18 429.377ZM1241.19 425.784C1239.39 427.587 1237.6 427.587 1235.8 427.587L1226.78 423.969C1228.59 422.166 1230.38 420.376 1232.18 422.166L1241.19 425.784ZM1248.42 418.56C1248.42 420.363 1244.83 422.153 1243.02 422.153L1234.01 420.35C1235.81 418.547 1237.6 416.731 1239.4 416.731L1248.42 418.56ZM1253.84 411.349C1253.84 413.152 1252.04 414.942 1250.22 414.942H1241.21C1241.21 413.139 1243.04 411.349 1244.83 411.349H1253.84ZM1259.26 402.322C1259.26 405.915 1257.43 407.717 1255.64 407.717L1246.63 409.546C1246.63 407.717 1248.43 405.928 1250.22 404.125L1259.26 402.322ZM1262.85 393.308C1262.85 396.901 1261.05 398.703 1259.26 398.703L1252.04 402.322C1250.21 400.519 1252.04 398.703 1253.84 396.901L1262.85 393.308ZM1262.85 384.268C1264.66 386.097 1262.85 389.689 1262.85 389.689L1253.84 395.111C1253.84 393.308 1253.84 389.689 1255.64 389.689L1262.85 384.268ZM1262.85 375.241C1264.66 377.07 1264.66 380.663 1262.85 380.663L1255.63 386.084C1253.83 384.255 1253.83 382.465 1255.63 380.663L1262.85 375.241ZM1261.05 366.227C1262.85 368.056 1262.85 369.846 1262.85 371.649L1255.63 378.873C1253.83 377.07 1253.83 375.254 1255.63 373.451L1261.05 366.227ZM1257.43 357.213C1259.26 359.042 1261.05 360.832 1259.26 362.635L1255.64 369.859C1253.84 369.859 1252.05 366.24 1252.05 364.437L1257.43 357.213ZM1252.04 348.186C1255.63 349.989 1255.63 351.805 1255.63 353.608L1252.04 362.622C1250.21 360.819 1248.42 359.029 1248.42 357.2L1252.04 348.186ZM1246.61 342.765C1248.42 342.765 1250.21 344.594 1250.21 346.383L1248.4 355.397C1247.47 355.334 1246.6 354.935 1245.94 354.274C1245.27 353.614 1244.88 352.737 1244.81 351.805L1246.61 342.765ZM1239.4 335.58C1241.21 335.58 1243.02 339.172 1243.02 339.172V348.186C1241.19 348.186 1239.4 346.383 1239.4 344.594V335.58ZM1230.38 331.948C1232.18 331.948 1234 333.751 1234 333.751L1235.8 342.765C1234 342.765 1232.18 342.765 1232.18 340.962L1230.38 331.948ZM1221.36 328.356C1223.17 328.356 1224.98 328.356 1226.78 330.158L1228.59 339.172C1226.78 339.172 1224.99 339.172 1223.17 337.37L1221.36 328.356ZM1210.53 326.553C1212.34 326.553 1215.94 326.553 1215.94 328.356L1221.35 335.58C1219.55 337.382 1215.94 337.382 1215.94 335.58L1210.53 326.553Z" fill="#9B895D"/>
<path fill-rule="evenodd" clip-rule="evenodd" d="M1282.68 405.928C1288.11 396.914 1291.72 391.492 1291.72 380.675C1291.72 368.056 1286.3 362.634 1280.88 351.818C1275.49 339.172 1275.49 331.961 1266.47 322.934C1257.43 313.92 1248.4 313.92 1237.59 310.314C1224.97 304.893 1219.55 299.472 1206.91 299.472C1194.28 299.472 1188.87 304.893 1178.04 310.314C1165.41 315.71 1156.4 315.71 1147.37 322.934C1138.36 331.948 1138.36 340.975 1134.74 351.818C1129.33 364.437 1123.92 369.859 1123.92 382.465C1123.92 395.111 1129.33 400.532 1134.74 411.349C1140.15 422.166 1140.15 431.18 1147.37 440.207C1158.19 449.221 1167.21 447.431 1178.04 452.852C1190.68 456.445 1196.08 463.669 1208.72 463.669C1221.35 463.669 1226.77 456.445 1237.59 452.852H1239.39L1264.64 483.5L1270.06 460.063L1280.88 465.459L1293.53 409.546L1282.68 405.928ZM1134.76 395.111C1132.96 391.492 1131.16 387.887 1131.16 382.465C1131.16 371.648 1138.37 366.227 1141.97 355.41C1145.58 344.594 1145.58 337.369 1154.61 328.355C1161.82 321.131 1169.04 322.934 1179.86 317.513C1190.68 313.92 1196.1 308.499 1206.91 308.499C1217.74 308.499 1223.14 313.92 1233.98 317.513C1244.8 321.131 1252.02 321.131 1259.23 326.553L1134.76 395.111ZM1208.73 454.629C1196.1 454.629 1192.49 449.208 1179.86 445.615C1170.83 442.022 1163.63 442.022 1156.41 434.798L1279.08 366.227C1280.88 369.846 1284.5 375.241 1284.5 380.662C1284.5 389.676 1279.08 395.098 1275.49 402.322C1275.49 404.125 1273.66 405.915 1273.66 407.717C1271.85 411.336 1271.85 413.139 1271.85 414.941C1270.05 416.744 1270.05 418.56 1270.05 418.56C1268.25 423.955 1266.46 429.377 1261.04 432.969C1255.62 440.194 1248.39 440.194 1239.38 443.812C1237.57 443.812 1235.79 443.812 1235.79 445.615H1233.98C1224.98 449.208 1219.56 454.629 1208.73 454.629ZM1261.05 470.867L1244.81 449.208C1253.83 447.405 1261.05 445.615 1268.27 438.391C1270.08 436.588 1271.87 434.798 1271.87 432.969L1261.05 470.867ZM1277.29 456.432L1271.87 452.839L1280.88 420.363L1277.29 418.56C1279.09 416.731 1279.09 413.139 1280.88 411.336L1286.3 413.139L1277.29 456.432Z" fill="#EECE79"/>
<path fill-rule="evenodd" clip-rule="evenodd" d="M1206.93 342.765C1187.08 342.765 1170.85 359.029 1169.04 377.07L1223.15 346.396C1218.1 343.932 1212.55 342.688 1206.93 342.765ZM1190.69 414.941C1196.1 418.56 1201.51 420.363 1206.93 420.363C1216.87 420.458 1226.49 416.792 1233.85 410.098C1241.21 403.405 1245.77 394.179 1246.61 384.268L1190.69 414.941Z" fill="#C82E37"/>
<path fill-rule="evenodd" clip-rule="evenodd" d="M1151 431.18C1147.4 423.956 1145.59 416.745 1141.99 407.718C1140.19 405.915 1140.19 404.125 1138.38 402.322L1262.87 331.948C1268.29 339.172 1268.29 344.594 1273.68 355.411C1273.68 357.213 1275.51 359.029 1277.3 360.832L1151 431.18Z" fill="#325E9E"/>
<path fill-rule="evenodd" clip-rule="evenodd" d="M1179.87 368.056L1185.28 355.411L1187.08 360.832L1199.72 346.397L1201.52 349.989L1206.93 344.594L1201.52 355.411L1199.72 351.818L1187.08 364.425L1185.28 362.635L1179.87 368.056ZM1208.73 418.56L1214.15 405.928L1217.76 409.546L1230.38 396.901L1232.18 400.532L1237.6 395.111L1232.18 405.928L1230.38 402.322L1217.76 414.942L1214.15 411.349L1208.73 418.56ZM1169.04 387.887L1172.66 386.084V398.704L1178.07 395.111V382.466L1181.68 380.663V409.546L1178.07 411.349V398.704L1172.66 402.322V414.942L1169.04 416.745V387.887ZM1188.89 391.479V380.663L1190.69 378.86C1192.49 378.86 1192.49 378.86 1192.49 380.663V386.084C1192.49 387.887 1192.49 387.887 1190.69 389.677L1188.89 391.479ZM1194.29 389.69C1196.1 387.887 1196.1 387.887 1196.1 386.097V378.873C1196.1 375.254 1194.29 373.452 1190.69 375.254L1185.28 378.873V407.731L1188.89 405.928V393.308H1190.69L1194.29 404.125L1197.9 400.532L1194.29 389.69ZM1201.52 386.084L1196.11 373.452L1199.72 371.649L1203.32 380.663L1206.93 366.227L1210.53 364.425L1205.12 384.268V396.901L1201.52 398.704V386.084ZM1215.94 377.07C1214.14 378.873 1212.34 377.07 1212.34 375.241V368.043C1212.34 364.425 1212.34 364.425 1215.94 362.622L1219.55 360.819C1221.35 359.016 1223.15 359.016 1223.15 362.622V366.214L1219.55 368.043V362.622L1215.94 364.425V375.241L1219.55 373.439C1221.35 371.636 1223.15 371.636 1223.15 375.241V382.466C1223.15 386.084 1223.15 387.887 1219.55 389.69L1215.94 391.492C1214.14 391.492 1212.34 391.492 1212.34 389.69V384.268L1214.14 382.466V387.887L1221.35 386.084V375.241L1215.94 377.07ZM1226.78 355.411L1230.38 353.608V380.663L1235.8 377.07V380.663L1226.78 386.084V355.411ZM1237.6 349.989L1248.42 344.594V346.397L1241.19 349.989V360.832L1246.61 357.213V360.832L1241.19 362.635V373.452L1248.42 369.846V373.452L1237.6 378.873V349.989ZM1253.84 353.608V344.594L1255.64 342.765C1257.44 340.962 1259.26 342.765 1259.26 342.765V349.989C1259.26 351.818 1257.43 351.818 1257.43 351.818L1253.84 353.608ZM1259.26 353.608C1261.06 351.805 1262.85 351.805 1262.85 348.186V340.962C1262.85 339.16 1259.26 337.37 1257.43 339.16L1250.21 342.752V371.636L1253.83 369.833V357.187L1255.63 355.385L1259.25 366.201L1262.84 364.399L1259.26 353.608ZM1161.83 402.322V395.098L1156.42 398.691V420.35L1161.83 416.732V411.336L1165.44 409.533V414.929C1165.44 418.547 1165.44 420.35 1161.83 420.35L1158.23 422.153C1156.42 423.956 1152.82 423.956 1152.82 420.35V400.519C1152.82 396.901 1154.62 395.098 1158.23 393.295L1161.83 391.467C1163.65 391.467 1165.44 391.467 1165.44 395.085V400.506L1161.83 402.322Z" fill="#EECE79"/>
<path fill-rule="evenodd" clip-rule="evenodd" d="M2258.68 276.022C2175.7 281.444 1771.6 295.879 1486.56 295.879C1441.46 295.879 1407.19 283.234 1371.1 268.811C1329.61 252.586 1280.89 234.532 1206.93 234.532C1132.96 234.532 1084.26 252.573 1042.76 268.811C1006.67 283.234 972.408 295.879 927.299 295.879C642.25 295.879 238.151 281.444 155.157 276.022L140.722 274.22L146.13 286.865C158.763 310.327 191.239 339.172 335.553 342.778C382.465 382.478 488.908 387.9 548.439 386.097C588.127 414.955 674.726 427.587 838.897 427.587C936.326 427.587 977.816 456.445 1019.31 487.118C1062.6 515.976 1107.7 546.65 1206.93 546.65C1306.15 546.65 1351.25 515.976 1392.76 487.118C1436.05 456.445 1477.54 427.587 1574.97 427.587C1737.33 427.587 1825.73 414.942 1863.63 386.097C1924.96 387.9 2031.4 382.478 2078.31 342.778C2222.63 339.185 2255.1 310.327 2265.92 286.865L2273.15 274.22L2258.68 276.022ZM2074.68 335.58C2040.4 366.227 1959.23 380.676 1861.82 378.873C1818.5 413.152 1703.05 420.363 1574.97 420.363C1374.73 420.363 1401.77 539.425 1206.94 539.425C1012.11 539.425 1037.36 420.363 838.91 420.363C710.821 420.363 595.364 413.139 552.071 378.873C454.642 380.676 373.464 366.227 339.185 335.58C200.279 331.961 166 304.906 153.367 283.247C238.164 290.471 645.881 304.906 927.312 304.906C1026.53 304.906 1071.64 241.756 1206.94 241.756C1342.25 241.756 1385.55 304.906 1486.57 304.906C1768 304.906 2175.72 290.471 2260.53 283.247C2247.87 304.893 2213.6 331.948 2074.68 335.58Z" fill="#0C0E0F"/>
<path fill-rule="evenodd" clip-rule="evenodd" d="M2246.08 285.063L2251.5 283.234C2251.5 283.234 2249.67 286.852 2246.08 290.458H2237.06C2242.47 288.668 2246.08 285.063 2246.08 285.063Z" fill="#0C0E0F"/>
<path fill-rule="evenodd" clip-rule="evenodd" d="M2237.05 290.458C2191.93 308.498 2040.4 326.552 1504.58 326.552C1446.85 326.552 1432.45 319.328 1423.39 319.328C1414.38 319.328 1412.58 326.552 1416.19 333.738C1419.79 339.159 1423.39 348.173 1425.21 353.594C1423.38 340.949 1434.22 344.58 1479.32 344.58C1861.8 344.58 1944.76 337.356 2060.25 324.724C2011.53 357.2 1731.9 359.029 1509.99 359.029C1484.74 360.831 1457.68 360.831 1437.83 360.831C1430.6 360.831 1427.01 362.634 1428.81 369.845C1428.81 375.241 1430.62 386.084 1428.81 393.308C1436.04 384.268 1434.24 377.07 1479.33 377.07C1706.65 377.07 1807.67 369.845 1849.18 364.424C1813.11 384.255 1757.17 393.308 1502.79 393.308C1394.55 393.308 1381.92 512.37 1206.93 512.37C1031.94 512.37 1019.31 393.308 911.061 393.308C656.685 393.308 600.759 384.268 564.678 364.424C606.168 369.845 707.189 377.07 934.51 377.07C979.619 377.07 977.816 384.268 985.028 393.308C983.225 386.084 985.028 375.241 985.028 369.845C986.83 362.621 983.225 360.831 976.001 360.831C956.157 360.831 929.102 360.831 903.85 359.029C681.95 359.029 402.322 357.2 353.608 324.724C469.077 337.369 552.058 344.58 934.523 344.58C979.632 344.58 990.449 340.962 988.646 353.594C990.462 348.173 994.055 339.159 997.673 333.738C1001.28 326.539 999.476 319.328 990.462 319.328C981.435 319.328 967 326.552 909.271 326.552C371.662 326.552 221.926 308.485 176.817 290.458H167.803C189.449 304.893 227.334 315.71 344.594 324.737C373.464 351.818 447.431 359.042 553.861 364.437C588.14 396.913 680.147 402.335 878.598 402.335C1028.33 402.335 1024.73 523.187 1206.94 523.187C1389.14 523.187 1385.55 402.335 1535.28 402.335C1733.73 402.335 1823.94 396.913 1860.01 364.437C1964.65 359.042 2040.42 351.818 2069.3 324.737C2186.56 315.723 2224.43 304.906 2246.09 290.458H2237.05Z" fill="#0C0E0F"/>
<path fill-rule="evenodd" clip-rule="evenodd" d="M167.79 285.062L162.381 283.234C162.381 283.234 164.184 286.852 167.79 290.458H176.804C171.395 288.668 167.79 285.062 167.79 285.062ZM1580.37 133.511H1798.67V110.061H1647.13V5.42135H1580.37V133.511ZM319.329 5.42135V133.511H386.071V81.1907H503.344V133.511H570.086V5.42135H503.344V57.7413H386.071V5.42135H319.329ZM1156.42 5.42135L1093.27 59.5441L1030.12 5.42135H952.551L1046.36 81.1907V133.511H1113.12V81.1907C1114.92 79.388 1201.51 5.42135 1201.51 5.42135H1156.42ZM1872.64 133.511H2094.54V111.864H1939.38V79.388H2089.12V57.7413H1939.38V27.0679H2092.72V5.42135H1872.64V133.511ZM1257.43 39.7004C1257.43 68.5581 1291.74 75.7824 1340.41 81.1907C1389.13 88.4149 1412.58 90.2047 1412.58 101.034C1412.58 110.048 1398.14 115.47 1356.65 115.47C1307.96 115.47 1266.47 104.653 1261.05 102.837C1261.05 104.64 1255.63 129.892 1255.63 129.892C1261.05 131.695 1300.75 140.709 1358.48 140.709C1423.41 140.709 1484.75 129.892 1484.75 95.6002C1484.75 72.1508 1459.5 59.5182 1387.32 52.307C1358.47 48.7014 1327.79 46.8986 1327.79 36.0689C1327.79 27.0549 1335.02 23.4364 1378.31 23.4364C1419.8 23.4364 1455.87 32.4633 1461.29 32.4633L1466.72 9.02694C1459.5 7.22415 1418.01 0 1362.08 0C1316.99 0.0129698 1257.43 5.42132 1257.43 39.7004ZM0 70.374C0 111.864 45.1088 140.722 138.919 140.722C175.001 140.722 212.886 135.314 220.097 133.511L225.505 106.456C218.281 108.259 185.805 111.864 153.342 111.864C101.034 111.864 64.9526 99.2317 64.9526 70.374C64.9526 39.7005 99.2317 27.0679 153.342 27.0679C184.015 27.0679 218.294 30.6735 225.505 32.4763L220.097 5.42135C211.083 3.60558 176.804 0.0129626 140.709 0.0129626C45.1088 0.0129626 0 27.0679 0 70.374ZM672.923 133.511H739.666V28.8707C748.68 27.0679 759.509 27.0679 773.945 27.0679C790.17 27.0679 802.803 27.0679 811.829 28.8707C831.673 30.6735 838.884 37.8976 838.884 46.9116C838.884 54.1228 829.87 63.1497 810.014 64.9525C795.578 66.7683 786.564 68.5581 775.735 68.5581C768.51 68.5581 763.102 68.5581 754.088 66.7553L829.857 133.498H914.654L838.884 81.1778C853.32 79.375 858.728 79.375 874.966 73.9666C894.81 68.5582 903.837 57.7413 905.627 46.9116C905.627 30.6734 894.81 18.0409 856.925 9.02694C837.082 5.42135 810.014 3.60559 775.748 3.60559C727.033 3.60559 678.332 5.42135 672.91 5.42135L672.923 133.511ZM2182.93 133.511H2249.67V28.8707C2260.51 27.0679 2269.53 27.0679 2285.77 27.0679C2302 27.0679 2312.82 27.0679 2323.64 28.8707C2343.49 30.6735 2350.72 37.8976 2348.89 46.9116C2348.89 54.1228 2339.88 63.1497 2320.03 64.9525C2307.39 66.7683 2298.37 68.5581 2285.75 68.5581C2278.53 68.5581 2273.11 68.5581 2265.9 66.7553L2341.69 133.498H2426.47L2348.89 81.1778C2365.13 79.375 2370.55 79.375 2384.98 73.9666C2404.81 68.5582 2415.63 57.7413 2415.63 46.9116C2415.63 30.6734 2406.62 18.0409 2368.75 9.02694C2347.09 5.42135 2321.83 3.60559 2285.77 3.60559C2238.85 3.60559 2188.34 5.42135 2182.92 5.42135V133.511H2182.93Z" fill="#0C0E0F"/>
</svg>
