<?xml version="1.0" encoding="utf-8"?>
<!-- Generator: Adobe Illustrator 23.0.1, SVG Export Plug-In . SVG Version: 6.00 Build 0)  -->
<svg version="1.1"
	 id="Livello_1" xmlns:cc="http://creativecommons.org/ns#" xmlns:dc="http://purl.org/dc/elements/1.1/" xmlns:rdf="http://www.w3.org/1999/02/22-rdf-syntax-ns#" xmlns:svg="http://www.w3.org/2000/svg"
	 xmlns="http://www.w3.org/2000/svg" xmlns:xlink="http://www.w3.org/1999/xlink" x="0px" y="0px" viewBox="0 0 495.6 500"
	 enable-background="new 0 0 495.6 500" xml:space="preserve">
<path fill-rule="evenodd" clip-rule="evenodd" fill="#ACAFB2" d="M490.2,89.6C350.6-29.9,145-29.9,4.8,89.6
	C2,107.2,0.4,125.4,0,143.4C0,180.2,0,400.6,247.8,500c247.8-99.4,247.8-320.2,247.8-356.6C495.2,125.4,493.2,107.8,490.2,89.6z"/>
<linearGradient id="SVGID_1_" gradientUnits="userSpaceOnUse" x1="6.4865" y1="179.3344" x2="447.732" y2="297.5657">
	<stop  offset="0.2" style="stop-color:#0C103F"/>
	<stop  offset="0.8" style="stop-color:#1D3590"/>
</linearGradient>
<path fill-rule="evenodd" clip-rule="evenodd" fill="url(#SVGID_1_)" d="M468.4,104C341.4-4.7,154.3-4.7,26.7,104
	c-2.5,16-4,32.6-4.4,49c0,33.5,0,234.1,225.5,324.5C473.3,387,473.3,186.1,473.3,153C473,136.6,471.2,120.6,468.4,104z"/>
<path fill-rule="evenodd" clip-rule="evenodd" fill="#101A4B" d="M249.8,53.3c-98.4,0-177.9,79.3-177.9,177.3
	s79.3,177.3,177.3,177.3s177.3-79.3,177.3-177.3S347.8,53.3,249.8,53.3L249.8,53.3z M264.6,387.4L264.6,387.4
	c0,0-10.5-24.8-12.9-80.3c0-0.4-1-0.4-2-0.4c-1,0-2,0.4-2,0.4c-2.3,55.5-12.9,80.3-12.9,80.3l0,0c-86.5-8.2-150.2-85.1-142-171.6
	c7.2-75.6,67-134.7,142-142l0,0c0,0,10.5,24.8,12.9,80.3c0,0.4,1,0.4,2,0.4c1,0,2,0,2-0.4c2.3-55.5,12.9-80.3,12.9-80.3l0,0
	c86.5,8.2,150.2,85.1,142,171.6C398.9,321,339.6,380.2,264.6,387.4L264.6,387.4z"/>
<g>
	<path fill-rule="evenodd" clip-rule="evenodd" fill="#101A4B" d="M340.6,269.3h-9.2v-84.2h7.2v-5.3h-27.3v5.3h7.2v83.8h-7.2v5.3
		h41.2v-5.3h-5.3c0.4-1.4,4.3-21.1,4.3-22.1h14.8c0,1,3.9,20.5,4.3,22.1H364v5.3h27.3v-5.3h-7.2c0-1-19.5-91.4-19.5-91.4h-4.3
		C360.3,178.1,341.1,267.9,340.6,269.3z M365,240.6h-12.5c0-1.4,5.3-25.8,6.2-31C359.7,214.4,364.6,239.2,365,240.6z"/>
	<path fill-rule="evenodd" clip-rule="evenodd" fill="#101A4B" d="M239.2,185.1h7.2V231c-2.3-5.7-21.1-51.2-21.1-51.2h-22.5v5.3h7.2
		v83.8h-9.2c0-1-19.5-91.4-19.5-91.4h-4.3l-14.8,68c-3.3,14.8-10.9,23.4-21.1,23.4h-5.7v-83.8h7v-5.3h-27.3v5.3h7.2v83.8h-7.2v5.3
		h47.3l5.3-27.3h14.8c0,1,3.9,20.5,4.3,22.1h-7.2v5.3h43v-5.3h-7.2v-71.3c2.3,5.7,31.6,78.5,31.6,78.5h4.3v-91h7.2v-5.3h-20.1
		L239.2,185.1z M169.5,240.6c0-1.4,5.3-26.4,6.2-31c1,5.3,5.7,30.1,6.2,31H169.5z"/>
	<path fill-rule="evenodd" clip-rule="evenodd" fill="#101A4B" d="M303.8,245.9c-2.3,14.3-5.7,23.8-15.2,23.4
		c-6.2-0.4-10.5-6.2-11.5-14.3c-1-8.6-1-17.2-1-25.8v-3.9c0-5.3,0-10,0.4-14.3c0.4-5.7,1-11.5,2.3-16.8c1-4.7,5.3-8.6,10-8.6
		c7.6,0,12.5,7.6,13.9,21.5v1h4.7v-28.7h-3.9l-2.3,4.7c-2.9-3.9-7.6-6.2-12.9-6.2c-4.3,0-8.6,1.4-11.9,4.7
		c-9.6,9.2-15.2,26.4-15.2,44.9c0,23,10.9,48.2,26.8,48.2c6.2,0,11.5-2.9,15.2-7.6c3.9-6.6,6.2-14.3,6.6-22.5v-1h-6.2L303.8,245.9z"
		/>
</g>
<linearGradient id="SVGID_2_" gradientUnits="userSpaceOnUse" x1="247.239" y1="405.9875" x2="247.239" y2="51.3973">
	<stop  offset="0" style="stop-color:#5F5E65"/>
	<stop  offset="0.5" style="stop-color:#C1C3CA"/>
	<stop  offset="1" style="stop-color:#322C31"/>
</linearGradient>
<path fill-rule="evenodd" clip-rule="evenodd" fill="url(#SVGID_2_)" d="M247.8,51.4c-98.4,0-177.9,79.3-177.9,177.3
	S149.2,406,247.2,406s177.3-79.3,177.3-177.3S345.8,51.4,247.8,51.4L247.8,51.4z M262.7,385.5L262.7,385.5c0,0-10.5-24.8-12.9-80.3
	c0-0.4-1-0.4-2-0.4s-2,0.4-2,0.4c-2.3,55.5-12.9,80.3-12.9,80.3l0,0c-86.5-8.2-150.2-85.1-142-171.6c7.2-75.6,67-134.7,142-142l0,0
	c0,0,10.5,24.8,12.9,80.3c0,0.4,1,0.4,2,0.4s2,0,2-0.4c2.3-55.5,12.9-80.3,12.9-80.3l0,0c86.5,8.2,150.2,85.1,142,171.6
	C397,319.1,337.6,378.3,262.7,385.5L262.7,385.5z"/>
<path fill="#EFEEF7" d="M247.8,63.4c44.2,0,85.6,17.2,116.6,48.4c31,31.2,48.1,72.7,48.1,116.9c0,44.2-17.2,85.7-48.4,116.9
	C333,376.8,291.4,394,247.2,394s-85.7-17.2-116.9-48.4s-48.4-72.7-48.4-116.9c0-44.2,17.2-85.7,48.5-116.9
	C161.8,80.6,203.4,63.4,247.8,63.4 M247.8,51.4c-98.4,0-177.9,79.3-177.9,177.3c0,98,79.3,177.3,177.3,177.3s177.3-79.3,177.3-177.3
	C424.5,130.7,345.8,51.4,247.8,51.4L247.8,51.4z"/>
<g>
	<path fill-rule="evenodd" clip-rule="evenodd" fill="#FFFFFF" d="M338.6,267.4h-9.2v-84.2h7.2v-5.3h-27.3v5.3h7.2V267h-7.2v5.3
		h41.2V267h-5.3c0.4-1.4,4.3-21.1,4.3-22.1h14.8c0,1,3.9,20.5,4.3,22.1h-6.6v5.3h27.3V267h-7.2c0-1-19.5-91.4-19.5-91.4h-4.3
		C358.3,176.2,339.2,266,338.6,267.4z M363,238.7h-12.5c0-1.4,5.3-25.8,6.2-31C357.8,212.5,362.6,237.3,363,238.7z"/>
	<path fill-rule="evenodd" clip-rule="evenodd" fill="#FFFFFF" d="M237.3,183.2h7.2v45.9c-2.3-5.7-21.1-51.2-21.1-51.2H201v5.3h7.2
		V267H199c0-1-19.5-91.4-19.5-91.4h-4.3l-14.8,68c-3.3,14.8-10.9,23.4-21.1,23.4h-5.7v-83.8h7v-5.3h-27.3v5.3h7.2V267h-7.2v5.3h47.3
		l5.3-27.3h14.8c0,1,3.9,20.5,4.3,22.1h-7.2v5.3h43V267h-7.2v-71.3c2.3,5.7,31.6,78.5,31.6,78.5h4.3v-91h7.2v-5.3h-20.1L237.3,183.2
		z M167.6,238.7c0-1.4,5.3-26.4,6.2-31c1,5.3,5.7,30.1,6.2,31H167.6z"/>
	<path fill-rule="evenodd" clip-rule="evenodd" fill="#FFFFFF" d="M301.9,243.9c-2.3,14.3-5.7,23.8-15.2,23.4
		c-6.2-0.4-10.5-6.2-11.5-14.3c-1-8.6-1-17.2-1-25.8v-3.9c0-5.3,0-10,0.4-14.3c0.4-5.7,1-11.5,2.3-16.8c1-4.7,5.3-8.6,10-8.6
		c7.6,0,12.5,7.6,13.9,21.5v1h4.7v-28.7h-3.9l-2.3,4.7c-2.9-3.9-7.6-6.2-12.9-6.2c-4.3,0-8.6,1.4-11.9,4.7
		c-9.6,9.2-15.2,26.4-15.2,44.9c0,23,10.9,48.2,26.8,48.2c6.2,0,11.5-2.9,15.2-7.6c3.9-6.6,6.2-14.3,6.6-22.5v-1h-6.2L301.9,243.9z"
		/>
</g>
<path fill-rule="evenodd" clip-rule="evenodd" fill="#BBBEC5" d="M484.5,93.4c-136.3-116.6-337-116.6-473.9,0
	c-2.7,17.2-4.3,35-4.7,52.5c0,35.9,0,251.1,241.9,348.1c241.9-97,241.9-312.6,241.9-348.1C489.4,128.3,487.4,111.1,484.5,93.4z
	 M457.1,204.9c-3.9,29.1-11.9,58.4-23.4,85.5c-26.8,62.1-79.9,131-186.5,175C140.6,421.8,87.7,352.5,61,290.4
	c-17.8-43-26.8-88.8-26.4-135.3c0-14.8,1.4-29.7,3.9-43.9c3.9-3.3,10.5-8.6,19.1-15.2c99-70.7,228.5-80.8,337-26.4
	c14.8,7.6,29.1,16.2,43,26.4c8.6,6.2,15.2,11.9,19.1,15.2c2.3,14.3,3.9,29.1,3.9,43.9C461,171.9,459.7,188.5,457.1,204.9z"/>
<path fill="#F9F8FB" d="M249.8,152.2c2.3-55.5,12.9-80.3,12.9-80.3l-14.8-8.5v89.1C248.8,152.5,249.8,152.5,249.8,152.2z"/>
<path fill="#F9F8FB" d="M262.7,385.5c0,0-10.5-24.8-12.9-80.3c0-0.4-1-0.4-2-0.4V394L262.7,385.5z"/>
<path fill-rule="evenodd" clip-rule="evenodd" fill="#D0D4DE" d="M38.5,111.1c3.9-3.3,10.5-8.6,19.1-15.2
	c99-70.7,228.5-80.8,337-26.4c14.8,7.6,29.1,16.2,43,26.4c8.6,6.2,15.2,11.9,19.1,15.2l27.7-17.8c-136.3-116.6-337-116.6-473.9,0
	L38.5,111.1z"/>
<path fill-rule="evenodd" clip-rule="evenodd" fill="#F9F8FB" d="M484.5,93.4l-27.7,17.8c2.3,14.3,3.9,29.1,3.9,43.9
	c0.4,16.8-1,33.4-3.5,49.8c-3.9,29.1-11.9,58.4-23.4,85.5c-26.8,62.1-79.9,131-186.5,175v28.5c0.2,0.1,0.4,0.2,0.6,0.2
	c241.9-97,241.9-312.6,241.9-348.1C489.4,128.3,487.4,111.1,484.5,93.4z"/>
</svg>
