<svg width="40" height="21" viewBox="0 0 40 21" fill="none" xmlns="http://www.w3.org/2000/svg">
<g clip-path="url(#clip0_2221_607)">
<path d="M32.0203 11.8479H31.4652L31.1345 12.866H31.6652C31.786 12.856 31.9055 12.8338 32.0219 12.7999C32.1203 12.773 32.2089 12.7184 32.277 12.6424C32.3548 12.5586 32.4138 12.4593 32.4503 12.351C32.503 12.1888 32.503 12.0652 32.4503 11.977C32.3975 11.8888 32.2495 11.8479 32.0203 11.8479Z" fill="url(#paint0_linear_2221_607)"/>
<path d="M24.1534 8.55669C24.4141 8.55669 24.6093 8.52283 24.7416 8.44645C24.8991 8.35251 25.0319 8.22243 25.129 8.06692C25.2542 7.88661 25.3881 7.59449 25.533 7.18976C25.7188 6.65118 25.7802 6.28661 25.7117 6.0874C25.6432 5.88819 25.4495 5.7937 25.129 5.7937H24.8243L23.8582 8.55669H24.1534Z" fill="url(#paint1_linear_2221_607)"/>
<path d="M13.1345 11.8479H12.5833L12.2534 12.866H12.7818C12.9028 12.8557 13.0226 12.8336 13.1392 12.7999C13.2377 12.7719 13.3265 12.7174 13.3959 12.6424C13.4731 12.5582 13.5321 12.459 13.5692 12.351C13.6196 12.1888 13.6196 12.0652 13.5692 11.977C13.5188 11.8888 13.3629 11.8479 13.1345 11.8479Z" fill="url(#paint2_linear_2221_607)"/>
<path d="M15.5833 5.95728L14.5093 7.77539H15.3872L15.5833 5.95728Z" fill="url(#paint3_linear_2221_607)"/>
<path d="M20.0001 1.1123C9.59225 1.1123 1.09619 5.12805 1.09619 10.054C1.09619 14.98 9.59225 18.9966 20.0001 18.9966C30.408 18.9966 38.9064 14.9808 38.9064 10.054C38.9064 5.12727 30.4127 1.1123 20.0001 1.1123ZM28.5639 7.61152L28.9174 6.56506L32.356 6.50837L31.6686 7.569L28.2741 9.18003L30.0852 7.55246L28.5639 7.61152ZM25.8269 4.64774C26.1907 4.64774 26.4568 4.71152 26.6379 4.83593C26.8183 4.9614 26.9457 5.14941 26.9954 5.36349C27.0599 5.63034 27.0708 5.90733 27.0277 6.17845C26.9791 6.51275 26.8966 6.84123 26.7812 7.15876C26.5891 7.69892 26.3938 8.12019 26.1954 8.41861C26.0107 8.69814 25.7869 8.94979 25.5308 9.16586C25.3276 9.34593 25.0904 9.48349 24.8332 9.57058C24.5822 9.65286 24.3208 9.69924 24.0568 9.70837H22.2253L24.0009 4.65167L25.8269 4.64774ZM15.3915 4.64774H16.7301L16.4497 9.70444H15.1623L15.2608 8.86979H13.8584L13.3741 9.70444H12.1143L15.3915 4.64774ZM10.2238 4.64774H11.4505L10.1119 8.45719H12.0293L11.5938 9.70444H8.44422L10.2238 4.64774ZM9.43635 13.6556L5.99462 13.7107L6.68202 12.647L10.0789 11.0399L8.26785 12.6674L9.78753 12.6084L9.43635 13.6556ZM14.8694 12.2265C14.7886 12.4881 14.6601 12.7326 14.4907 12.9477C14.3363 13.1435 14.1474 13.3092 13.9332 13.4367C13.776 13.5285 13.6055 13.5952 13.4277 13.6344C13.5275 13.6785 13.6182 13.7407 13.6954 13.8178C13.745 13.9017 13.7841 13.9914 13.8119 14.0848C13.847 14.187 13.8715 14.2925 13.8852 14.3997L14.0198 15.8533H12.5986L12.4222 14.3194C12.4001 14.1218 12.3671 13.995 12.3182 13.9328C12.2856 13.8939 12.2443 13.8632 12.1977 13.8429C12.1511 13.8227 12.1004 13.8136 12.0497 13.8162H11.9363L11.2757 15.8533H10.0127L11.645 10.8407H13.745C14.1324 10.8407 14.4151 10.8785 14.5962 10.9659C14.7773 11.0533 14.8891 11.1958 14.945 11.4202C15.0009 11.6446 14.9757 11.9092 14.8702 12.2265H14.8694ZM19.5986 13.3029C19.4437 13.8198 19.2042 14.3075 18.8899 14.7462C18.6288 15.1036 18.2963 15.4028 17.9135 15.6249C17.5349 15.8328 17.1092 15.9399 16.6773 15.9359C16.2167 15.9359 15.8655 15.8446 15.6245 15.6674C15.3836 15.4903 15.2308 15.195 15.1726 14.8099C15.1143 14.4249 15.1726 13.9328 15.3655 13.347C15.6332 12.5296 16.0269 11.8929 16.5466 11.4367C17.0286 10.9942 17.6599 10.7498 18.3143 10.7525C18.9923 10.7525 19.4434 10.9753 19.6631 11.4218C19.8828 11.8682 19.8608 12.4974 19.5993 13.3029H19.5986ZM19.86 9.70444L19.3466 6.92805L18.3726 9.70444H17.2198L18.9938 4.64774H20.1411L20.6568 7.44459L21.6379 4.64774H22.7962L21.0238 9.70444H19.86ZM20.719 15.8501L20.8119 10.8375H22.1308L21.8694 14.443L23.9489 10.8375H25.2285L22.0844 15.8501H20.719ZM28.3009 13.7281H26.3426L26.0214 14.7115H28.1946L27.8269 15.8501H24.3899L26.0214 10.8375H29.3946L29.0458 11.9092H26.9363L26.6749 12.7044H28.6363L28.3009 13.7281ZM33.756 12.2265C33.6745 12.4881 33.546 12.7325 33.3765 12.9477C33.2222 13.144 33.0326 13.3099 32.8174 13.4367C32.6611 13.5292 32.491 13.596 32.3135 13.6344C32.4137 13.679 32.5052 13.7411 32.5836 13.8178C32.6319 13.9023 32.6707 13.9918 32.6993 14.0848C32.7348 14.1868 32.7588 14.2924 32.771 14.3997L32.9135 15.8501H31.4852L31.3088 14.3162C31.2899 14.1186 31.2584 13.9918 31.208 13.9296C31.1747 13.8905 31.1327 13.8596 31.0855 13.8394C31.0382 13.8192 30.9869 13.8102 30.9356 13.8131H30.8261L30.1639 15.8501H28.8978L30.5301 10.8375H32.6261C33.0198 10.8375 33.3025 10.8753 33.482 10.9627C33.5724 11.0047 33.6512 11.068 33.7119 11.1471C33.7725 11.2262 33.813 11.3188 33.8301 11.417C33.8875 11.6375 33.8584 11.9092 33.7568 12.2265H33.756Z" fill="url(#paint4_linear_2221_607)"/>
<path d="M17.9268 11.9236C17.6749 11.9236 17.4371 12.0338 17.2079 12.259C16.9788 12.4842 16.7875 12.8425 16.6189 13.3543C16.4504 13.8661 16.4158 14.2204 16.4945 14.4433C16.5733 14.6661 16.7489 14.7756 17.0095 14.7756C17.1479 14.7741 17.2846 14.7444 17.4112 14.6884C17.5378 14.6323 17.6515 14.5511 17.7457 14.4496C17.9623 14.2346 18.163 13.8448 18.3449 13.2842C18.5024 12.8118 18.5347 12.47 18.4497 12.2511C18.3646 12.0322 18.193 11.9236 17.9268 11.9236Z" fill="url(#paint5_linear_2221_607)"/>
<path d="M20 0C9.00556 0 0.0378418 4.5189 0.0378418 10.0543C0.0378418 15.5898 9.00635 20.1063 20 20.1063C30.9937 20.1063 39.9615 15.5913 39.9615 10.0543C39.9615 4.51732 30.9961 0 20 0ZM20 19.5213C9.24965 19.5213 0.481936 15.2693 0.481936 10.0543C0.481936 4.83937 9.25044 0.588977 20 0.588977C30.7497 0.588977 39.5197 4.84095 39.5197 10.0543C39.5197 15.2677 30.7528 19.5213 20 19.5213Z" fill="url(#paint6_linear_2221_607)"/>
</g>
<defs>
<linearGradient id="paint0_linear_2221_607" x1="21.1345" y1="12.3566" x2="22.4896" y2="12.3566" gradientUnits="userSpaceOnUse">
<stop offset="0.52" stop-color="#027F48"/>
<stop offset="1" stop-color="#0C6535"/>
</linearGradient>
<linearGradient id="paint1_linear_2221_607" x1="23.2243" y1="7.17638" x2="25.1093" y2="7.17638" gradientUnits="userSpaceOnUse">
<stop offset="0.52" stop-color="#027F48"/>
<stop offset="1" stop-color="#0C6535"/>
</linearGradient>
<linearGradient id="paint2_linear_2221_607" x1="7.13294" y1="12.3566" x2="15.4329" y2="12.3566" gradientUnits="userSpaceOnUse">
<stop offset="0.52" stop-color="#027F48"/>
<stop offset="1" stop-color="#0C6535"/>
</linearGradient>
<linearGradient id="paint3_linear_2221_607" x1="14.5093" y1="6.86594" x2="15.5833" y2="6.86594" gradientUnits="userSpaceOnUse">
<stop offset="0.52" stop-color="#027F48"/>
<stop offset="1" stop-color="#0C6535"/>
</linearGradient>
<linearGradient id="paint4_linear_2221_607" x1="6.37808" y1="2.86978" x2="33.3741" y2="17.106" gradientUnits="userSpaceOnUse">
<stop offset="0.25" stop-color="#0C6535"/>
<stop offset="0.52" stop-color="#027F48"/>
<stop offset="0.75" stop-color="#0C6535"/>
</linearGradient>
<linearGradient id="paint5_linear_2221_607" x1="12.5182" y1="13.3496" x2="23.2717" y2="13.3496" gradientUnits="userSpaceOnUse">
<stop offset="0.52" stop-color="#027F48"/>
<stop offset="1" stop-color="#0C6535"/>
</linearGradient>
<linearGradient id="paint6_linear_2221_607" x1="0.0386292" y1="10.0528" x2="39.9623" y2="10.0528" gradientUnits="userSpaceOnUse">
<stop offset="0.25" stop-color="#0C6535"/>
<stop offset="0.52" stop-color="#027F48"/>
<stop offset="0.75" stop-color="#0C6535"/>
</linearGradient>
<clipPath id="clip0_2221_607">
<rect width="40" height="20.1575" fill="white"/>
</clipPath>
</defs>
</svg>
