<svg width="50" height="22" viewBox="0 0 50 22" fill="none" xmlns="http://www.w3.org/2000/svg">
<g clip-path="url(#clip0_2221_638)">
<path d="M25.2979 20.3182C30.6926 20.3182 35.0658 15.945 35.0658 10.5504C35.0658 5.1557 30.6926 0.782471 25.2979 0.782471C19.9032 0.782471 15.53 5.1557 15.53 10.5504C15.53 15.945 19.9032 20.3182 25.2979 20.3182Z" fill="#2B2B2B"/>
<path d="M1.44871 7.09862C1.84329 7.57734 2.31912 8.13827 2.87424 8.75336C3.38778 9.32686 3.96999 9.95162 4.61505 10.6083C5.1402 11.1373 5.705 11.6953 6.30848 12.2592C6.96128 12.8665 7.65471 13.4864 8.39455 14.1112C9.05219 14.6676 9.74339 15.2192 10.4681 15.7659C11.2804 16.3784 12.1325 16.9736 13.0241 17.5512H17.2205C18.2031 18.6496 19.4063 19.5283 20.7517 20.1299C22.0971 20.7315 23.5542 21.0424 25.028 21.0424C26.5018 21.0424 27.959 20.7315 29.3043 20.1299C30.6497 19.5283 31.853 18.6496 32.8356 17.5512H36.9729C44.8733 12.4313 49.8916 5.37425 49.8916 5.37425H34.145C33.2284 3.76376 31.9017 2.42469 30.2997 1.49321C28.6977 0.56173 26.8777 0.0710449 25.0246 0.0710449C23.1715 0.0710449 21.3515 0.56173 19.7496 1.49321C18.1475 2.42469 16.8209 3.76376 15.9042 5.37425H0.0966797C0.0966797 5.37425 0.566699 6.03382 1.44484 7.09862H1.44871ZM6.70113 12.2592C6.12086 11.7214 5.55091 11.1712 4.99126 10.6083H14.5377C14.5399 11.1613 14.5855 11.7133 14.674 12.2592H6.70113ZM43.2891 12.2592H35.3733C35.4624 11.7133 35.5088 11.1614 35.5116 10.6083H45C44.4378 11.1712 43.8665 11.7214 43.2862 12.2592H43.2891ZM48.1924 7.09862C47.7882 7.58218 47.3075 8.14408 46.7553 8.75336H35.3559C35.2587 8.19115 35.1161 7.63775 34.9294 7.09862H48.1924ZM34.8936 14.1112H41.1798C40.4835 14.6866 39.7814 15.2408 39.0744 15.7659H34.1276C34.429 15.2368 34.6853 14.6833 34.8936 14.1112ZM25.0241 1.47773C26.8187 1.47792 28.5729 2.0102 30.065 3.00726C31.557 4.00432 32.72 5.4214 33.4068 7.07933C34.0936 8.73727 34.2734 10.5616 33.9235 12.3217C33.5735 14.0818 32.7095 15.6986 31.4408 16.9678C30.1721 18.2369 28.5555 19.1014 26.7955 19.4519C25.0356 19.8024 23.2112 19.6232 21.553 18.9369C19.8948 18.2507 18.4773 17.0882 17.4799 15.5964C16.4823 14.1046 15.9495 12.3507 15.9487 10.5561C15.9484 9.36406 16.183 8.18367 16.6389 7.08232C17.0949 5.98095 17.7633 4.98019 18.6061 4.13718C19.4488 3.29416 20.4494 2.62541 21.5506 2.16909C22.6518 1.71279 23.8322 1.47786 25.0241 1.47773ZM15.9216 15.764H10.9168C10.2098 15.2389 9.5077 14.6847 8.81138 14.1093H15.1557C15.3628 14.6819 15.6191 15.2356 15.9216 15.764ZM15.1199 7.09669C14.9316 7.63549 14.7884 8.18896 14.6915 8.75143H3.23498C2.68275 8.14214 2.2021 7.58315 1.79881 7.09669H15.1199Z" fill="url(#paint0_linear_2221_638)"/>
<path d="M1.44871 7.09862C1.84329 7.57734 2.31912 8.13827 2.87424 8.75336C3.38778 9.32686 3.96999 9.95162 4.61505 10.6083C5.1402 11.1373 5.705 11.6953 6.30848 12.2592C6.96128 12.8665 7.65471 13.4864 8.39455 14.1112C9.05219 14.6676 9.74339 15.2192 10.4681 15.7659C11.2804 16.3784 12.1325 16.9736 13.0241 17.5512H17.2205C18.2031 18.6496 19.4063 19.5283 20.7517 20.1299C22.0971 20.7315 23.5542 21.0424 25.028 21.0424C26.5018 21.0424 27.959 20.7315 29.3043 20.1299C30.6497 19.5283 31.853 18.6496 32.8356 17.5512H36.9729C44.8733 12.4313 49.8916 5.37425 49.8916 5.37425H34.145C33.2284 3.76376 31.9017 2.42469 30.2997 1.49321C28.6977 0.56173 26.8777 0.0710449 25.0246 0.0710449C23.1715 0.0710449 21.3515 0.56173 19.7496 1.49321C18.1475 2.42469 16.8209 3.76376 15.9042 5.37425H0.0966797C0.0966797 5.37425 0.566699 6.03382 1.44484 7.09862H1.44871ZM6.70113 12.2592C6.12086 11.7214 5.55091 11.1712 4.99126 10.6083H14.5377C14.5399 11.1613 14.5855 11.7133 14.674 12.2592H6.70113ZM43.2891 12.2592H35.3733C35.4624 11.7133 35.5088 11.1614 35.5116 10.6083H45C44.4378 11.1712 43.8665 11.7214 43.2862 12.2592H43.2891ZM48.1924 7.09862C47.7882 7.58218 47.3075 8.14408 46.7553 8.75336H35.3559C35.2587 8.19115 35.1161 7.63775 34.9294 7.09862H48.1924ZM34.8936 14.1112H41.1798C40.4835 14.6866 39.7814 15.2408 39.0744 15.7659H34.1276C34.429 15.2368 34.6853 14.6833 34.8936 14.1112ZM25.0241 1.47773C26.8187 1.47792 28.5729 2.0102 30.065 3.00726C31.557 4.00432 32.72 5.4214 33.4068 7.07933C34.0936 8.73727 34.2734 10.5616 33.9235 12.3217C33.5735 14.0818 32.7095 15.6986 31.4408 16.9678C30.1721 18.2369 28.5555 19.1014 26.7955 19.4519C25.0356 19.8024 23.2112 19.6232 21.553 18.9369C19.8948 18.2507 18.4773 17.0882 17.4799 15.5964C16.4823 14.1046 15.9495 12.3507 15.9487 10.5561C15.9484 9.36406 16.183 8.18367 16.6389 7.08232C17.0949 5.98095 17.7633 4.98019 18.6061 4.13718C19.4488 3.29416 20.4494 2.62541 21.5506 2.16909C22.6518 1.71279 23.8322 1.47786 25.0241 1.47773ZM15.9216 15.764H10.9168C10.2098 15.2389 9.5077 14.6847 8.81138 14.1093H15.1557C15.3628 14.6819 15.6191 15.2356 15.9216 15.764ZM15.1199 7.09669C14.9316 7.63549 14.7884 8.18896 14.6915 8.75143H3.23498C2.68275 8.14214 2.2021 7.58315 1.79881 7.09669H15.1199Z" stroke="#2B2B2B" stroke-width="0.0967118" stroke-miterlimit="10"/>
<path d="M25.0242 19.2254C26.7395 19.2254 28.4163 18.7167 29.8425 17.7637C31.2687 16.8106 32.3802 15.4561 33.0365 13.8712C33.6928 12.2864 33.8643 10.5426 33.5295 8.86033C33.1946 7.17802 32.3684 5.6328 31.1553 4.42009C29.9422 3.20738 28.3967 2.38168 26.7142 2.04738C25.0318 1.7131 23.2881 1.88525 21.7035 2.54207C20.1189 3.19888 18.7647 4.31087 17.8122 5.73738C16.8596 7.16388 16.3515 8.84085 16.3521 10.5562C16.3521 11.6948 16.5766 12.8223 17.0125 13.8742C17.4484 14.9262 18.0873 15.882 18.8925 16.687C19.6978 17.492 20.6538 18.1305 21.7059 18.5661C22.758 19.0016 23.8855 19.2257 25.0242 19.2254ZM25.0242 2.52714C26.6118 2.52714 28.1638 2.99793 29.4838 3.87995C30.8039 4.76198 31.8327 6.01563 32.4403 7.48239C33.0478 8.94915 33.2068 10.5631 32.897 12.1203C32.5874 13.6773 31.8228 15.1076 30.7002 16.2302C29.5776 17.3529 28.1473 18.1174 26.5902 18.427C25.0331 18.7368 23.4192 18.5778 21.9523 17.9703C20.4856 17.3627 19.2319 16.3339 18.3499 15.0138C17.4679 13.6938 16.9971 12.1418 16.9971 10.5542C16.9971 8.42531 17.8429 6.38359 19.3482 4.87822C20.8536 3.37285 22.8953 2.52714 25.0242 2.52714Z" fill="url(#paint1_linear_2221_638)"/>
<path d="M25.024 8.33374H23.9272V12.825H25.024V8.33374Z" fill="white"/>
<path d="M20.7108 12.825L21.8384 10.1838V12.825H22.9448V8.33374H21.7282L20.4545 11.2951L19.2872 8.33374H18.0444V12.825H18.9864V10.1171L20.0609 12.825H20.7108Z" fill="white"/>
<path d="M26.9344 10.1161L29.0215 12.825H29.8687V8.33374H28.9151V11.0639V11.0659L26.8145 8.33374H25.9934V12.825H26.9344V10.1161Z" fill="white"/>
<path d="M31.9497 8.33374H30.853V12.825H31.9497V8.33374Z" fill="white"/>
</g>
<defs>
<linearGradient id="paint0_linear_2221_638" x1="25.0696" y1="19.4419" x2="24.9013" y2="-11.7022" gradientUnits="userSpaceOnUse">
<stop stop-color="white"/>
<stop offset="0.72" stop-color="#212121"/>
<stop offset="0.98" stop-color="#D9DEE2"/>
</linearGradient>
<linearGradient id="paint1_linear_2221_638" x1="24.97" y1="-9.29684" x2="25.0464" y2="18.8589" gradientUnits="userSpaceOnUse">
<stop stop-color="white"/>
<stop offset="0.04" stop-color="#212121"/>
<stop offset="0.98" stop-color="#D9DEE2"/>
</linearGradient>
<clipPath id="clip0_2221_638">
<rect width="50" height="21.1799" fill="white"/>
</clipPath>
</defs>
</svg>
