<svg width="24" height="27" viewBox="0 0 24 27" fill="none" xmlns="http://www.w3.org/2000/svg">
<g clip-path="url(#clip0_2223_1296)">
<path d="M21.1003 19.1332C21.0677 19.0143 21.0019 18.917 20.9036 18.8422C20.8052 18.7674 20.6947 18.7295 20.5717 18.7295H18.21C18.128 18.7295 18.0492 18.7469 17.9754 18.7828C17.9016 18.8176 17.8381 18.8668 17.7858 18.9293C17.7336 18.9928 17.6977 19.0645 17.6782 19.1434C17.6588 19.2234 17.6567 19.3033 17.6731 19.3832L17.8073 20.0522C17.8196 20.1138 17.8422 20.1722 17.875 20.2255C17.9078 20.2798 17.9477 20.3268 17.9969 20.3667C18.0461 20.4067 18.1004 20.4376 18.1598 20.459C18.2192 20.4804 18.2807 20.4907 18.3442 20.4907H20.7531C20.795 20.4907 20.8361 20.4856 20.877 20.4765C20.9179 20.4673 20.9579 20.4529 20.9949 20.4344C21.0328 20.4159 21.0677 20.3935 21.1003 20.3667C21.1332 20.3402 21.1619 20.3105 21.1875 20.2766C21.213 20.2428 21.2347 20.208 21.252 20.169C21.2695 20.1311 21.2817 20.0911 21.2899 20.0502C21.2982 20.0093 21.3012 19.9672 21.3002 19.9251C21.2982 19.8832 21.2919 19.8423 21.2817 19.8022L21.1003 19.1332ZM18.4334 19.835L18.3432 19.3852H20.4877L20.6097 19.835H18.4334Z" fill="black"/>
<path d="M20.3227 18.5513C20.3648 18.5513 20.4057 18.5462 20.4467 18.537C20.4878 18.5267 20.5277 18.5134 20.5657 18.4949C20.6025 18.4755 20.6383 18.4529 20.6701 18.4263C20.7028 18.3997 20.7315 18.3699 20.7571 18.3372C20.7829 18.3034 20.8043 18.2675 20.8218 18.2296C20.8391 18.1917 20.8515 18.1517 20.8596 18.1107C20.8678 18.0687 20.871 18.0277 20.8698 17.9857C20.8688 17.9437 20.8627 17.9027 20.8515 17.8618L20.6701 17.1937C20.6373 17.0749 20.5718 16.9775 20.4744 16.9027C20.376 16.8279 20.2653 16.79 20.1414 16.79H17.8914C17.8094 16.79 17.7316 16.8074 17.6568 16.8423C17.583 16.8771 17.5195 16.9263 17.4682 16.9898C17.416 17.0534 17.3801 17.1251 17.3597 17.204C17.3402 17.2839 17.3381 17.3628 17.3545 17.4437L17.4887 18.1118C17.501 18.1742 17.5236 18.2316 17.5564 18.2859C17.5892 18.3402 17.6301 18.3874 17.6783 18.4273C17.7275 18.4673 17.7818 18.498 17.8412 18.5185C17.9006 18.54 17.9621 18.5513 18.0256 18.5513H20.3227ZM20.0574 17.4458L20.1803 17.8956H18.1158L18.0246 17.4458H20.0574Z" fill="black"/>
<path d="M19.8924 16.6657C19.9343 16.6657 19.9764 16.6606 20.0173 16.6513C20.0584 16.6411 20.0974 16.6278 20.1352 16.6083C20.1731 16.5899 20.208 16.5673 20.2408 16.5407C20.2725 16.5141 20.3022 16.4843 20.3278 16.4516C20.3535 16.4177 20.374 16.3819 20.3913 16.344C20.4088 16.305 20.4222 16.2661 20.4303 16.2251C20.4375 16.1831 20.4417 16.1421 20.4395 16.1001C20.4385 16.0581 20.4324 16.0171 20.421 15.9762L20.2396 15.3081C20.207 15.1893 20.1424 15.0919 20.0441 15.0171C19.9457 14.9423 19.835 14.9044 19.711 14.9044H17.5727C17.4907 14.9044 17.4129 14.9218 17.3381 14.9567C17.2643 14.9915 17.2018 15.0407 17.1496 15.1042C17.0973 15.1678 17.0614 15.2385 17.042 15.3184C17.0215 15.3972 17.0194 15.4772 17.0358 15.5581L17.1701 16.2261C17.1823 16.2886 17.2049 16.346 17.2377 16.4003C17.2705 16.4546 17.3115 16.5007 17.3606 16.5407C17.4088 16.5817 17.4631 16.6114 17.5225 16.6329C17.5819 16.6544 17.6434 16.6647 17.7069 16.6657H19.8924ZM19.627 15.5602L19.749 16.01H17.7971L17.7069 15.5602H19.627Z" fill="black"/>
<path d="M19.4644 14.7252C19.5064 14.7252 19.5484 14.721 19.5884 14.7108C19.6293 14.7016 19.6693 14.6883 19.7062 14.6698C19.7442 14.6514 19.779 14.6288 19.8116 14.6022C19.8435 14.5756 19.8732 14.5458 19.8988 14.513C19.9244 14.4793 19.946 14.4444 19.9633 14.4055C19.9808 14.3676 19.993 14.3286 20.0013 14.2876C20.0095 14.2467 20.0135 14.2046 20.0125 14.1637C20.0105 14.1217 20.0054 14.0807 19.994 14.0397L19.8179 13.3717C19.7861 13.2518 19.7215 13.1534 19.6222 13.0776C19.5238 13.0018 19.4132 12.9639 19.2881 12.9639H17.2584C17.1765 12.9639 17.0986 12.9813 17.0248 13.0161C16.95 13.051 16.8875 13.1002 16.8353 13.1637C16.783 13.2262 16.7472 13.2979 16.7277 13.3768C16.7072 13.4557 16.7052 13.5356 16.7205 13.6155L16.8527 14.2846C16.865 14.3461 16.8875 14.4045 16.9193 14.4588C16.9521 14.513 16.9931 14.5602 17.0423 14.6012C17.0914 14.6411 17.1457 14.6719 17.2052 14.6934C17.2646 14.7149 17.3261 14.7252 17.3896 14.7252H19.4644ZM19.2041 13.6196L19.323 14.0694H17.4797L17.3916 13.6196H19.2041Z" fill="black"/>
<mask id="mask0_2223_1296" style="mask-type:luminance" maskUnits="userSpaceOnUse" x="0" y="0" width="24" height="27">
<path d="M0 0H23.9508V26.6998H0V0Z" fill="white"/>
</mask>
<g mask="url(#mask0_2223_1296)">
<path d="M20.4415 10.9568C20.4089 10.8328 20.3668 10.7129 20.3146 10.5961C20.2613 10.4793 20.1998 10.3676 20.1291 10.2611C20.0585 10.1545 19.9796 10.0541 19.8915 9.96086C19.8044 9.86763 19.7101 9.78157 19.6076 9.70368C19.5062 9.62582 19.3986 9.55614 19.2859 9.49569C19.1732 9.43626 19.0554 9.38504 18.9345 9.34406C18.8125 9.30308 18.6885 9.27233 18.5625 9.25184C18.4355 9.23136 18.3084 9.22111 18.1804 9.22213H14.1722L14.0154 5.64938H14.5164C14.6076 5.64938 14.6978 5.64119 14.7869 5.62376C14.8761 5.60635 14.9621 5.57972 15.0461 5.5459C15.1302 5.51106 15.2101 5.46906 15.2859 5.41886C15.3617 5.36865 15.4324 5.31229 15.497 5.24775C15.5615 5.18423 15.6189 5.11455 15.6691 5.03976C15.7203 4.96496 15.7633 4.88504 15.7982 4.80206C15.833 4.71804 15.8597 4.63197 15.8781 4.54282C15.8965 4.45471 15.9058 4.36455 15.9058 4.27439V4.17294H16.5256C16.5892 4.17294 16.6517 4.16065 16.7111 4.13708C16.7695 4.11249 16.8228 4.07767 16.8679 4.03258C16.9129 3.98749 16.9488 3.93525 16.9734 3.87582C16.998 3.81639 17.0103 3.75491 17.0103 3.69139V1.97521C17.0103 1.91065 16.998 1.84918 16.9734 1.79078C16.9488 1.73135 16.9129 1.6791 16.8679 1.63401C16.8228 1.58893 16.7695 1.5541 16.7111 1.52951C16.6517 1.50492 16.5892 1.49262 16.5256 1.49262H15.9058V1.39221C15.9058 1.30205 15.8965 1.21188 15.8781 1.12274C15.8597 1.03463 15.833 0.948565 15.7982 0.864547C15.7633 0.781557 15.7203 0.701639 15.6691 0.626843C15.6189 0.551023 15.5605 0.482377 15.497 0.417827C15.4324 0.354301 15.3617 0.296926 15.2859 0.247745C15.2101 0.19754 15.1302 0.155532 15.0461 0.120695C14.9621 0.0858597 14.8761 0.0602446 14.7869 0.0428267C14.6978 0.0254084 14.6076 0.0172119 14.5164 0.0172119H9.03179C8.94162 0.0172119 8.85146 0.0254084 8.76233 0.0428267C8.67319 0.0602446 8.58608 0.0858597 8.50208 0.120695C8.41806 0.155532 8.33814 0.19754 8.26232 0.247745C8.1865 0.297949 8.11682 0.354301 8.05228 0.417827C7.98774 0.482377 7.93035 0.551023 7.87913 0.626843C7.82892 0.701639 7.78588 0.781557 7.75004 0.864547C7.7152 0.948565 7.68856 1.03463 7.67011 1.12377C7.6527 1.21188 7.64347 1.30205 7.64245 1.39221V4.27439C7.64347 4.36455 7.6527 4.45471 7.67011 4.54282C7.68856 4.63197 7.7152 4.71804 7.75004 4.80206C7.78588 4.88504 7.82892 4.96496 7.87913 5.03976C7.93035 5.11455 7.98774 5.18423 8.05228 5.24775C8.11682 5.31229 8.1865 5.36865 8.26232 5.41886C8.33814 5.46906 8.41806 5.51106 8.50208 5.5459C8.58608 5.57972 8.67319 5.60635 8.76233 5.62376C8.85146 5.64119 8.94162 5.64938 9.03179 5.64938H9.92522L9.80945 9.22213H5.77053C5.64244 9.22111 5.5154 9.23136 5.38834 9.25184C5.26232 9.27233 5.13835 9.30308 5.01642 9.34406C4.89551 9.38504 4.7777 9.43524 4.66499 9.49569C4.55227 9.55614 4.44471 9.62582 4.34326 9.70368C4.2408 9.78157 4.14654 9.86659 4.05945 9.96086C3.97134 10.0541 3.89245 10.1545 3.82175 10.2611C3.75105 10.3676 3.68957 10.4793 3.6363 10.5961C3.58405 10.7129 3.54203 10.8328 3.50926 10.9568L0.179331 23.7938C0.0891667 24.1371 0.0799456 24.4833 0.151667 24.8307C0.223387 25.1791 0.36888 25.4927 0.588142 25.7723C0.809454 26.0593 1.08302 26.2816 1.40781 26.4403C1.73363 26.5993 2.07789 26.677 2.44061 26.676H21.5103C21.8731 26.677 22.2173 26.5993 22.5431 26.4403C22.8679 26.2816 23.1413 26.0583 23.3626 25.7723C23.582 25.4927 23.7276 25.1791 23.7992 24.8307C23.871 24.4833 23.8617 24.1371 23.7716 23.7938L20.4415 10.9568ZM15.9058 2.14837H16.3535V3.51824H15.9058V2.14837ZM10.1035 0.672951H13.4447V2.342H10.1035V0.672951ZM9.03179 4.99365C8.93548 4.99365 8.84326 4.97624 8.7531 4.94037C8.66397 4.90349 8.58506 4.85226 8.51642 4.78463C8.44777 4.71702 8.3945 4.63913 8.35761 4.55102C8.3197 4.46189 8.30023 4.36966 8.2992 4.27439V1.39221C8.30023 1.2959 8.3197 1.20369 8.35761 1.11557C8.3945 1.02746 8.44777 0.948565 8.51642 0.881967C8.58506 0.814344 8.66397 0.762089 8.7531 0.726229C8.84326 0.690368 8.93548 0.671926 9.03179 0.672951H9.44676V2.342C9.44676 2.42911 9.46417 2.51311 9.49696 2.59304C9.53076 2.67294 9.57789 2.74467 9.63937 2.80614C9.70084 2.86762 9.77257 2.91475 9.8525 2.94755C9.93343 2.98134 10.0164 2.99775 10.1035 2.99775H13.4447C13.5318 2.99775 13.6158 2.98134 13.6957 2.94755C13.7767 2.91475 13.8474 2.86762 13.9088 2.80614C13.9703 2.74467 14.0185 2.67294 14.0513 2.59304C14.0851 2.51311 14.1015 2.42911 14.1015 2.342V0.672951H14.5164C14.6127 0.671926 14.706 0.690368 14.7951 0.726229C14.8843 0.762089 14.9631 0.814344 15.0318 0.881967C15.1004 0.948565 15.1537 1.02746 15.1916 1.11557C15.2285 1.20369 15.248 1.2959 15.249 1.39221V4.27439C15.248 4.36966 15.2285 4.46189 15.1916 4.55102C15.1537 4.63913 15.1004 4.71702 15.0318 4.78463C14.9631 4.85226 14.8843 4.90349 14.7951 4.94037C14.706 4.97624 14.6127 4.99365 14.5164 4.99365H9.03179ZM13.6927 13.3021H12.5041C12.4345 13.3021 12.3658 13.3092 12.2982 13.3215C12.2306 13.3348 12.164 13.3553 12.1004 13.3809C12.0359 13.4076 11.9754 13.4393 11.9181 13.4783C11.8597 13.5162 11.8064 13.5592 11.7572 13.6084C11.708 13.6566 11.665 13.7098 11.6261 13.7672C11.5871 13.8246 11.5543 13.885 11.5277 13.9486C11.5011 14.0121 11.4806 14.0777 11.4672 14.1453C11.4529 14.2129 11.4457 14.2816 11.4457 14.3512V16.1852H10.2408L10.583 5.64938H13.3576L13.6927 13.3021ZM10.1281 16.84H11.4457V19.1842C11.4457 19.2529 11.4529 19.3215 11.4672 19.3891C11.4806 19.4568 11.5011 19.5223 11.5277 19.5859C11.5543 19.6494 11.5871 19.7099 11.6261 19.7671C11.665 19.8246 11.708 19.8779 11.7572 19.9261C11.8064 19.9753 11.8597 20.0182 11.9181 20.0571C11.9754 20.0951 12.0359 20.1269 12.1004 20.1535C12.164 20.1791 12.2306 20.1995 12.2982 20.2129C12.3658 20.2263 12.4345 20.2324 12.5041 20.2324H16.0882C16.1363 20.2324 16.1824 20.2406 16.2275 20.257C16.2736 20.2733 16.3136 20.2969 16.3504 20.3288C16.3873 20.3595 16.417 20.3963 16.4406 20.4384C16.4631 20.4803 16.4785 20.5255 16.4857 20.5725L16.9898 24.2201C17.0072 24.337 16.9754 24.4393 16.8976 24.5274C16.8166 24.6197 16.7152 24.6657 16.5922 24.6657H12.4806C12.4283 24.6657 12.3771 24.6555 12.3279 24.636C12.2797 24.6165 12.2367 24.588 12.1988 24.551C12.1609 24.5142 12.1322 24.4721 12.1117 24.4239C12.0902 24.3747 12.08 24.3246 12.08 24.2723V23.1545C12.0789 23.0848 12.0717 23.0172 12.0584 22.9495C12.0441 22.882 12.0246 22.8153 11.997 22.7518C11.9703 22.6883 11.9375 22.6279 11.8996 22.5704C11.8607 22.5132 11.8166 22.4608 11.7674 22.4117C11.7183 22.3635 11.665 22.3194 11.6076 22.2816C11.5492 22.2437 11.4888 22.2108 11.4252 22.1852C11.3607 22.1587 11.2951 22.1392 11.2265 22.1258C11.1588 22.1125 11.0902 22.1054 11.0205 22.1064H8.67319C8.41602 16.8564 9.21211 14.7406 9.65473 13.9875L9.58096 16.2764C9.57789 16.3502 9.59019 16.4219 9.61682 16.4906C9.64346 16.5592 9.68241 16.6207 9.73466 16.674C9.78589 16.7272 9.84634 16.7682 9.91397 16.7969C9.98261 16.8256 10.0533 16.84 10.1281 16.84ZM8.01539 22.1064H7.71211C7.58916 22.1064 7.48773 22.0603 7.4068 21.9681C7.32892 21.8799 7.29717 21.7774 7.31458 21.6606L8.73569 11.3758C8.74285 11.3287 8.75821 11.2836 8.78178 11.2416C8.80535 11.1996 8.83507 11.1637 8.87094 11.132C8.90782 11.1012 8.9488 11.0766 8.99389 11.0603C9.03896 11.0438 9.08609 11.0357 9.13425 11.0357H9.75002L9.68343 13.1156C9.47646 13.1852 9.31151 13.3113 9.19061 13.4926C8.63117 14.3277 7.74695 16.551 8.01539 22.1064ZM22.8433 25.3717C22.6845 25.5767 22.4878 25.7374 22.2531 25.8511C22.0185 25.965 21.7716 26.0213 21.5103 26.0203H2.44061C2.17932 26.0213 1.9324 25.965 1.69777 25.8511C1.46417 25.7365 1.26642 25.5767 1.10761 25.3707C0.950847 25.1709 0.847364 24.9476 0.796134 24.6986C0.74388 24.4507 0.751053 24.2036 0.814576 23.9577L4.14551 11.1207C4.19265 10.9414 4.26744 10.7754 4.37094 10.6217C4.47339 10.467 4.59838 10.3338 4.7449 10.2221C4.89244 10.1094 5.0533 10.0234 5.22955 9.96393C5.40475 9.90554 5.58506 9.87582 5.77053 9.87684H9.78793L9.77155 10.3799H9.13425C9.00618 10.3799 8.88323 10.4025 8.76437 10.4465C8.64449 10.4916 8.53692 10.5551 8.44061 10.6381C8.34429 10.7211 8.26539 10.8184 8.20391 10.9301C8.14348 11.0418 8.10351 11.1607 8.08507 11.2867L6.66396 21.5705C6.64348 21.72 6.65473 21.8675 6.69778 22.0121C6.7408 22.1565 6.81252 22.2856 6.91191 22.3995C7.01233 22.5142 7.13322 22.6033 7.27257 22.6668C7.41191 22.7304 7.55945 22.762 7.71211 22.761H11.0205C11.0738 22.761 11.124 22.7703 11.1732 22.7907C11.2224 22.8102 11.2654 22.838 11.3033 22.8747C11.3402 22.9117 11.3699 22.9548 11.3904 23.0028C11.4109 23.051 11.4211 23.1024 11.4222 23.1545V24.2723C11.4222 24.3409 11.4293 24.4096 11.4437 24.4772C11.457 24.5449 11.4775 24.6104 11.5041 24.674C11.5308 24.7385 11.5636 24.7991 11.6025 24.8563C11.6414 24.9138 11.6845 24.9659 11.7336 25.0151C11.7828 25.0633 11.8361 25.1073 11.8945 25.1453C11.9519 25.1833 12.0123 25.2159 12.0769 25.2417C12.1414 25.2683 12.207 25.2877 12.2746 25.3011C12.3433 25.3143 12.4119 25.3216 12.4806 25.3206H16.5922C16.7459 25.3216 16.8924 25.2897 17.0318 25.2262C17.1722 25.1626 17.292 25.0735 17.3925 24.9588C17.4929 24.8451 17.5636 24.7161 17.6076 24.5715C17.6506 24.4271 17.6619 24.2795 17.6414 24.1298L17.1373 20.4834C17.1189 20.3573 17.0789 20.2385 17.0185 20.1269C16.957 20.0152 16.8781 19.9178 16.7818 19.8348C16.6855 19.7518 16.5779 19.6883 16.458 19.6432C16.3392 19.5992 16.2152 19.5766 16.0882 19.5766H12.5041C12.4519 19.5777 12.4006 19.5674 12.3515 19.548C12.3033 19.5285 12.2603 19.4998 12.2224 19.4629C12.1845 19.426 12.1558 19.384 12.1353 19.3359C12.1137 19.2867 12.1035 19.2365 12.1025 19.1842V14.3502C12.1035 14.298 12.1137 14.2477 12.1342 14.1996C12.1558 14.1504 12.1845 14.1084 12.2224 14.0715C12.2603 14.0346 12.3033 14.0059 12.3515 13.9865C12.4006 13.967 12.4519 13.9578 12.5041 13.9578H15.0215C15.1752 13.9578 15.3217 13.926 15.4611 13.8635C15.6004 13.8 15.7213 13.7109 15.8217 13.5951C15.9211 13.4813 15.9929 13.3523 16.0359 13.2078C16.0799 13.0633 16.0912 12.9168 16.0707 12.7672L15.8658 11.2867C15.8474 11.1607 15.8074 11.0418 15.747 10.9301C15.6855 10.8195 15.6066 10.7221 15.5103 10.6381C15.414 10.5551 15.3064 10.4916 15.1875 10.4465C15.0677 10.4025 14.9447 10.3799 14.8166 10.3799H14.2224L14.2008 9.87684H18.1804C18.3658 9.87684 18.5461 9.90554 18.7213 9.96495C18.8976 10.0234 19.0584 10.1094 19.206 10.2221C19.3535 10.3338 19.4775 10.468 19.581 10.6217C19.6834 10.7754 19.7583 10.9414 19.8053 11.1207L23.1362 23.9577C23.1998 24.2036 23.207 24.4507 23.1557 24.6986C23.1036 24.9476 23.0001 25.1709 22.8433 25.3707V25.3717ZM14.251 11.0357H14.8166C14.8648 11.0357 14.9119 11.0438 14.957 11.0603C15.0021 11.0766 15.0431 11.1002 15.0789 11.132C15.1158 11.1627 15.1455 11.1996 15.1691 11.2416C15.1927 11.2836 15.208 11.3287 15.2152 11.3758L15.4191 12.8564C15.4365 12.9732 15.4047 13.0756 15.3269 13.1648C15.2459 13.2559 15.1445 13.3021 15.0215 13.3021H14.3504L14.251 11.0357Z" fill="black"/>
</g>
</g>
<defs>
<clipPath id="clip0_2223_1296">
<rect width="24" height="26.7541" fill="white"/>
</clipPath>
</defs>
</svg>
