<svg width="30" height="30" viewBox="0 0 30 30" fill="none" xmlns="http://www.w3.org/2000/svg">
<g clip-path="url(#clip0_2221_1218)">
<path d="M15.0073 0.00012207C6.7635 0.00012207 0.0576172 6.70666 0.0576172 14.9491C0.0576172 23.1916 6.7635 29.8982 15.0073 29.8982C23.2511 29.8982 29.9563 23.191 29.9563 14.9491C29.9563 6.70731 23.2498 0.00012207 15.0073 0.00012207ZM15.0073 29.4857C6.99356 29.4857 0.470689 22.9629 0.470689 14.9491C0.470689 6.93542 6.99356 0.413848 15.0073 0.413848C23.021 0.413848 29.5426 6.9328 29.5426 14.9491C29.5426 22.9655 23.023 29.4857 15.0073 29.4857Z" fill="black"/>
<path d="M6.4856 9.08054C6.50064 9.09231 6.51632 9.10538 6.5307 9.11518C6.5307 9.11518 6.54181 9.10538 6.54247 9.10342C6.83397 8.73937 7.12613 8.37401 7.41698 8.01192C7.52351 7.8812 7.6307 7.7459 7.73658 7.61257C7.78802 7.54793 7.82122 7.47061 7.83273 7.38878C7.84423 7.30695 7.83358 7.22355 7.80194 7.14721C7.76469 7.06728 7.70488 6.99989 7.62985 6.95349C7.55482 6.90701 7.46789 6.88348 7.37972 6.88577C7.30796 6.89002 7.23809 6.91041 7.17528 6.94538C7.11253 6.98035 7.05841 7.02898 7.01698 7.08773L6.63005 7.57139C6.36861 7.89819 6.10064 8.23152 5.83789 8.56159C5.97449 8.67205 6.1124 8.7812 6.249 8.89231C6.32809 8.95179 6.40521 9.01584 6.4856 9.08054Z" fill="black"/>
<path d="M15.0069 0.675415C7.12393 0.675415 0.730469 7.06495 0.730469 14.9493C0.730469 22.8336 7.12393 29.2257 15.0069 29.2257C22.8899 29.2257 29.2841 22.8323 29.2841 14.9493C29.2841 7.06626 22.8913 0.675415 15.0069 0.675415ZM12.7011 1.5643L14.0396 1.41659L15.0069 4.24077L15.9743 1.41659L17.3122 1.5643L17.4592 5.57738L16.4187 5.42966L16.3187 2.74992L15.3782 5.42966H14.6337L13.6926 2.74992L13.5932 5.42966L12.5533 5.57738L12.7011 1.5643ZM3.68864 8.17541C3.58145 8.08783 3.47491 8.0009 3.36642 7.91397C3.35255 7.9043 3.33944 7.89358 3.3272 7.88194L3.38341 7.81332C3.66053 7.4656 3.93701 7.11985 4.21609 6.7741C4.53897 6.36888 4.86206 5.96474 5.18537 5.56169C5.25073 5.48587 5.30955 5.40809 5.37165 5.32966C5.48168 5.19367 5.62579 5.08926 5.78929 5.02705C5.9175 4.97979 6.05426 4.96019 6.19058 4.96954C6.32691 4.97889 6.45971 5.01698 6.58027 5.0813C6.7008 5.14562 6.80642 5.23472 6.89008 5.34275C6.97374 5.45077 7.03361 5.57528 7.06576 5.7081C7.1057 5.88583 7.09785 6.071 7.04289 6.2447C7.06707 6.22509 7.08995 6.20352 7.11413 6.18457C7.26629 6.07228 7.44524 6.0019 7.63308 5.98045C7.82099 5.959 8.01119 5.98723 8.18472 6.06232C8.35825 6.13741 8.50903 6.25674 8.62204 6.40837C8.73498 6.55998 8.80622 6.73861 8.82851 6.92639C8.84452 7.06959 8.83256 7.21456 8.79321 7.35319C8.71151 7.62051 8.52197 7.82377 8.35073 8.03489C8.01916 8.45057 7.68714 8.86449 7.35465 9.27672C7.07949 9.62377 6.80106 9.96822 6.52524 10.3146C6.50367 10.3408 6.48406 10.3663 6.45988 10.3911C6.45596 10.3976 6.43243 10.3728 6.42785 10.3682C6.32459 10.2852 6.22197 10.2048 6.11936 10.1218L4.9089 9.15253C4.50433 8.82835 4.09714 8.49894 3.68864 8.17541ZM15.0069 23.8734C13.242 23.8737 11.5166 23.3506 10.049 22.3702C8.58138 21.3899 7.4374 19.9964 6.76178 18.3659C6.08618 16.7353 5.90924 14.9412 6.25336 13.2101C6.59746 11.479 7.4472 9.88887 8.69504 8.6407C9.94289 7.3926 11.5329 6.54253 13.2639 6.19803C14.9948 5.85354 16.7891 6.03008 18.4198 6.70534C20.0504 7.38064 21.4442 8.52423 22.4249 9.99168C23.4056 11.4591 23.929 13.1844 23.9292 14.9493C23.9294 17.3158 22.9894 19.5855 21.3162 21.2591C19.643 22.9327 17.3735 23.8731 15.0069 23.8734ZM23.5037 10.3368L22.9913 9.45972L24.756 7.14208L22.1109 8.3558L21.3677 7.66887L23.7808 4.49764L24.5252 5.18522L23.1324 7.01528L25.3592 5.99306L26.0128 6.80482L24.5272 8.75645L26.6187 7.79632L27.1305 8.6741L23.5037 10.3368Z" fill="black"/>
<path d="M6.45434 6.53225C6.47466 6.45193 6.47225 6.36754 6.44739 6.2885C6.42252 6.20947 6.37619 6.13889 6.31356 6.08466C6.25092 6.03043 6.17444 5.99467 6.09266 5.98138C6.01088 5.96808 5.92701 5.97778 5.85042 6.00938C5.72558 6.06167 5.65042 6.17147 5.56807 6.27539C5.25434 6.66756 4.94127 7.05644 4.63016 7.44795C4.60511 7.47657 4.58154 7.50644 4.55957 7.53749L4.75107 7.69108C4.91839 7.82703 5.08767 7.95971 5.25434 8.09435C5.42035 7.88847 5.58114 7.68193 5.74846 7.4754C5.91578 7.26886 6.07852 7.06494 6.24388 6.85971C6.32558 6.75383 6.41774 6.66233 6.45434 6.53225Z" fill="black"/>
<path d="M15.0065 6.16565V14.9493H6.22412C6.28554 12.6394 7.23046 10.4409 8.86432 8.80675C10.4982 7.1727 12.6965 6.22741 15.0065 6.16565Z" fill="url(#paint0_linear_2221_1218)"/>
<path d="M23.7909 14.9492C23.729 17.2594 22.7836 19.458 21.1495 21.0921C19.5153 22.7263 17.3168 23.6716 15.0066 23.7335V14.9492H23.7909Z" fill="url(#paint1_linear_2221_1218)"/>
</g>
<defs>
<linearGradient id="paint0_linear_2221_1218" x1="8.87118" y1="8.76891" x2="15.0222" y2="15.0781" gradientUnits="userSpaceOnUse">
<stop stop-color="#46BEE1"/>
<stop offset="0.62" stop-color="#3394BC"/>
<stop offset="1" stop-color="#2678A3"/>
</linearGradient>
<linearGradient id="paint1_linear_2221_1218" x1="14.8648" y1="15.2218" x2="21.3661" y2="21.129" gradientUnits="userSpaceOnUse">
<stop stop-color="#3091BA"/>
<stop offset="1" stop-color="#00448B"/>
</linearGradient>
<clipPath id="clip0_2221_1218">
<rect width="30" height="29.9346" fill="white"/>
</clipPath>
</defs>
</svg>
