<svg width="35" height="25" viewBox="0 0 35 25" fill="none" xmlns="http://www.w3.org/2000/svg">
<g clip-path="url(#clip0_2221_1181)">
<path d="M27.1839 18.2551C27.2168 18.2908 27.258 18.3179 27.3038 18.3341C27.3495 18.3503 27.3986 18.3551 27.4466 18.348C27.645 18.3242 27.6499 18.0225 27.6499 18.0225C27.6499 18.0225 27.6967 17.3371 27.6967 16.6434C27.6967 15.775 27.017 15.0101 27.017 15.0101C27.017 15.0101 19.9534 7.22974 17.4804 7.22974C15.0073 7.22974 7.94582 15.0101 7.94582 15.0101C7.94582 15.0101 7.26538 15.775 7.26538 16.6434C7.26538 17.335 7.31219 18.0225 7.31219 18.0225C7.31219 18.0225 7.31917 18.3242 7.51618 18.348C7.56452 18.3548 7.61377 18.3498 7.65981 18.3337C7.70592 18.3175 7.74742 18.2906 7.78095 18.2551C8.57037 17.5684 14.8718 12.1598 17.4817 12.1598C20.0917 12.1598 26.3938 17.5684 27.1839 18.2551Z" fill="white" stroke="black" stroke-width="0.0674247" stroke-miterlimit="10"/>
<path d="M7.51478 11.1881C7.56285 11.1947 7.61175 11.19 7.65765 11.1745C7.70361 11.159 7.74532 11.133 7.77955 11.0987C8.56897 10.414 14.8704 5.00056 17.4804 5.00056C20.0903 5.00056 26.3938 10.414 27.1839 11.0987C27.2176 11.1332 27.2589 11.1593 27.3046 11.1749C27.3502 11.1904 27.3989 11.1949 27.4466 11.1881C27.645 11.1692 27.6499 10.8667 27.6499 10.8667C27.6499 10.8667 27.6967 10.1779 27.6967 9.48559C27.6967 8.61304 27.017 7.85086 27.017 7.85086C27.017 7.85086 19.9534 0.0698242 17.4804 0.0698242C15.0073 0.0698242 7.94582 7.85086 7.94582 7.85086C7.94582 7.85086 7.26538 8.61304 7.26538 9.48559C7.26538 10.1779 7.31219 10.8667 7.31219 10.8667C7.31219 10.8667 7.31778 11.1692 7.51478 11.1881Z" fill="white" stroke="black" stroke-width="0.0674247" stroke-miterlimit="10"/>
<path d="M22.7198 21.4849C21.8606 21.4639 20.9887 21.4849 20.9803 21.4849C19.9324 21.4849 19.0759 22.21 19.0759 23.1064C19.0759 24.0145 19.931 24.7502 20.9803 24.7502C20.9887 24.7502 21.8606 24.7683 22.7205 24.7502C23.7726 24.7502 24.6284 24.0131 24.6284 23.1064C24.627 22.2191 23.7901 21.5045 22.7198 21.4849ZM22.1295 24.301C22.1295 24.301 21.8165 24.3114 21.5797 24.301C20.9761 24.301 20.3222 23.8483 20.3222 23.1133C20.3222 22.3784 20.9601 21.9474 21.5755 21.9474C21.7593 21.9364 21.9436 21.9364 22.1274 21.9474C22.7443 21.9474 23.3849 22.384 23.3849 23.1133C23.3849 23.8427 22.7352 24.301 22.1295 24.301Z" fill="#D4012D"/>
<path d="M33.1053 21.5295H30.3975C30.3521 21.5295 30.2508 21.5393 30.2508 21.6483V24.5873C30.2496 24.6029 30.2517 24.6186 30.257 24.6334C30.2623 24.6481 30.2706 24.6616 30.2814 24.6729C30.2922 24.6842 30.3052 24.6932 30.3197 24.6991C30.3342 24.705 30.3497 24.7079 30.3654 24.7075H31.4943V22.2491C31.4938 22.2275 31.4976 22.2061 31.5056 22.1861C31.5136 22.166 31.5257 22.1479 31.541 22.1327C31.5563 22.1175 31.5746 22.1056 31.5946 22.0978C31.6148 22.0899 31.6363 22.0863 31.6578 22.087H32.9041C33.2478 22.087 33.7585 22.3979 33.7585 23.0742V24.5838C33.7588 24.6005 33.7623 24.617 33.769 24.6323C33.7758 24.6476 33.7855 24.6614 33.7975 24.6729C33.8096 24.6844 33.8239 24.6934 33.8395 24.6993C33.8551 24.7053 33.8717 24.708 33.8884 24.7075H34.958V23.1524C34.9594 22.2435 34.1448 21.5295 33.1053 21.5295Z" fill="#D4012D"/>
<path d="M12.8542 21.5296H8.1994C8.18312 21.5293 8.16691 21.5323 8.15182 21.5384C8.13673 21.5445 8.12304 21.5537 8.11158 21.5652C8.10006 21.5767 8.09105 21.5905 8.08504 21.6056C8.07896 21.6207 8.0761 21.6369 8.07644 21.6532V22.1583H9.19072C9.37452 22.1601 9.55029 22.2335 9.68079 22.3629C9.81121 22.4924 9.88604 22.6676 9.88932 22.8513V24.5873C9.89037 24.6196 9.9035 24.6504 9.92614 24.6734C9.94877 24.6965 9.9793 24.7102 10.0116 24.7117H11.1412V22.3225C11.1412 22.279 11.1585 22.2372 11.1893 22.2064C11.2201 22.1756 11.2619 22.1583 11.3054 22.1583H12.9757V21.6532C12.9761 21.6371 12.9732 21.621 12.9673 21.6059C12.9614 21.5909 12.9525 21.5772 12.9411 21.5657C12.9298 21.5541 12.9162 21.545 12.9013 21.5388C12.8864 21.5326 12.8704 21.5295 12.8542 21.5296Z" fill="#D4012D"/>
<path d="M7.28578 21.5295H6.27979C6.24815 21.5297 6.21783 21.5422 6.19526 21.5644C6.1727 21.5865 6.15966 21.6167 6.15894 21.6483V24.5873C6.15927 24.6196 6.17201 24.6505 6.1945 24.6737C6.217 24.6968 6.24754 24.7104 6.27979 24.7117H7.40524V21.6483C7.40419 21.617 7.39127 21.5873 7.36906 21.5652C7.34684 21.5432 7.31708 21.5304 7.28578 21.5295Z" fill="#D4012D"/>
<path d="M17.6369 23.5478C18.1958 23.4186 18.5563 23.0211 18.5563 22.5572C18.5563 22.0633 18.0742 21.5317 17.2946 21.5317H14.2906C14.2051 21.5306 14.1203 21.5467 14.0411 21.579C13.962 21.6112 13.89 21.659 13.8297 21.7195C13.7692 21.7799 13.7215 21.8519 13.6893 21.9311C13.6572 22.0103 13.6412 22.0952 13.6423 22.1807V24.5895C13.6413 24.6055 13.6437 24.6217 13.6493 24.6368C13.6548 24.652 13.6635 24.6658 13.6746 24.6775C13.6858 24.6891 13.6992 24.6984 13.7141 24.7046C13.7289 24.7109 13.7449 24.714 13.7611 24.7138H14.8879V23.5849H15.9526C16.8978 23.5849 17.2869 24.2695 17.317 24.7152H18.5577C18.5262 23.8853 17.6369 23.5478 17.6369 23.5478ZM16.8461 23.019H14.89V22.384C14.8884 22.3443 14.8951 22.3047 14.9096 22.2678C14.9242 22.2309 14.9462 22.1974 14.9744 22.1694C15.0026 22.1415 15.0363 22.1197 15.0734 22.1056C15.1105 22.0914 15.1501 22.0851 15.1897 22.0871H16.8503C16.9115 22.0873 16.9721 22.0996 17.0284 22.1233C17.0849 22.147 17.1361 22.1816 17.1792 22.225C17.2222 22.2685 17.2563 22.32 17.2795 22.3766C17.3026 22.4333 17.3144 22.4939 17.3142 22.5551C17.3139 22.6163 17.3016 22.6768 17.2779 22.7333C17.2542 22.7897 17.2196 22.8409 17.1762 22.884C17.1327 22.9271 17.0812 22.9611 17.0246 22.9843C16.9679 23.0075 16.9073 23.0193 16.8461 23.019Z" fill="#D4012D"/>
<path d="M2.5093 21.9285C2.57916 21.9285 2.82857 21.9152 3.05701 21.9285C3.27715 21.9278 3.49382 21.9833 3.68649 22.0898C3.87916 22.1963 4.04146 22.3502 4.15801 22.5369C4.16816 22.5555 4.18328 22.5708 4.20168 22.5812C4.22008 22.5915 4.24101 22.5965 4.2621 22.5956H5.47627C5.21359 21.932 4.45072 21.459 3.64523 21.459C3.20511 21.459 2.42058 21.4331 1.90571 21.459C1.30771 21.489 0.933255 21.6246 0.5623 21.948C0.390162 22.0907 0.251042 22.269 0.15455 22.4706C0.058057 22.6723 0.00649258 22.8925 0.00341797 23.1161C0.00341797 24.0243 0.812404 24.7375 1.88546 24.7774C2.61899 24.7997 2.70072 24.8046 3.66409 24.7774C4.5583 24.7473 5.20103 24.3456 5.47348 23.6379H4.2614C4.24027 23.6377 4.21946 23.6432 4.20133 23.6541C4.18319 23.665 4.16843 23.6806 4.1587 23.6994C4.04578 23.8868 3.88636 24.0417 3.69591 24.1493C3.50545 24.2569 3.29042 24.3135 3.07169 24.3135C2.9138 24.3135 2.70282 24.3135 2.50721 24.3135C1.87846 24.3058 1.24972 23.8643 1.24972 23.114C1.24972 22.3819 1.89104 21.9285 2.5093 21.9285Z" fill="#D4012D"/>
<path d="M26.4708 23.9754V23.3753H29.02V22.8164H26.468V22.2673C26.4686 22.2437 26.4741 22.2206 26.4843 22.1994C26.4945 22.1781 26.5089 22.1592 26.5269 22.144C26.5448 22.1287 26.5658 22.1175 26.5884 22.1109C26.611 22.1044 26.6347 22.1026 26.6581 22.1059H29.581V21.6581C29.581 21.5254 29.4413 21.5344 29.4371 21.5344H25.344C25.3276 21.5337 25.3111 21.5363 25.2957 21.5422C25.2804 21.5481 25.2665 21.5572 25.2548 21.5689C25.2431 21.5805 25.234 21.5944 25.2281 21.6098C25.2222 21.6252 25.2196 21.6417 25.2203 21.6581V24.0676C25.2199 24.1531 25.2365 24.238 25.2693 24.317C25.3022 24.396 25.3504 24.4677 25.4113 24.5278C25.4723 24.5879 25.5446 24.6352 25.6241 24.6669C25.7036 24.6986 25.7887 24.7141 25.8742 24.7124H29.4602C29.4914 24.7112 29.521 24.6985 29.5434 24.6767C29.5657 24.6548 29.5791 24.6255 29.581 24.5943V24.1437H26.6385C26.6161 24.1452 26.5936 24.1418 26.5725 24.1339C26.5515 24.1259 26.5324 24.1135 26.5165 24.0975C26.5006 24.0816 26.4883 24.0625 26.4805 24.0414C26.4726 24.0203 26.4693 23.9978 26.4708 23.9754Z" fill="#D4012D"/>
<path d="M27.1205 20.3775C26.9885 20.3019 26.8387 20.2631 26.6866 20.265C26.5348 20.2616 26.3851 20.3006 26.2542 20.3775C26.1341 20.4473 26.074 20.5367 26.074 20.6401C26.074 20.7435 26.1341 20.8316 26.2542 20.9049C26.3854 20.981 26.5351 21.0194 26.6866 21.016C26.8346 21.0198 26.9809 20.9843 27.1107 20.9133C27.219 20.8497 27.3357 20.7386 27.46 20.7386C27.5844 20.7386 27.694 20.8357 27.8002 20.9049C27.9319 20.9805 28.0816 21.0188 28.2334 21.016C28.3864 21.0207 28.5378 20.9822 28.67 20.9049C28.7887 20.8316 28.846 20.7435 28.846 20.6401C28.846 20.5367 28.788 20.448 28.6665 20.3775C28.5358 20.3005 28.3863 20.2615 28.2348 20.265C28.0824 20.2623 27.9322 20.3012 27.8002 20.3775C27.6863 20.4473 27.5962 20.5451 27.46 20.5451C27.3238 20.5451 27.2455 20.448 27.1205 20.3775Z" fill="#D4012D"/>
<path d="M20.3692 5.56085C23.4396 7.55256 27.4587 10.7445 27.4587 10.516C27.4587 10.0969 18.6619 1.62073 17.4805 1.62073C16.2992 1.62073 7.40527 10.0061 7.40527 10.4231C7.40527 10.6432 11.3258 7.92632 14.2663 5.78161C16.4969 4.15596 18.1316 4.11055 20.3692 5.56085Z" fill="url(#paint0_linear_2221_1181)"/>
<path d="M20.4167 12.6385C23.4864 14.6302 27.5062 17.8221 27.5062 17.5937C27.5062 17.1745 18.7087 8.69836 17.528 8.69836C16.3474 8.69836 7.45557 17.0816 7.45557 17.5008C7.45557 17.7208 11.3761 15.004 14.3158 12.8592C16.5444 11.2315 18.1784 11.1868 20.4167 12.6385Z" fill="url(#paint1_linear_2221_1181)"/>
</g>
<defs>
<linearGradient id="paint0_linear_2221_1181" x1="17.433" y1="10.609" x2="17.433" y2="3.49648" gradientUnits="userSpaceOnUse">
<stop stop-color="white"/>
<stop offset="0.12" stop-color="#E0E0E0"/>
<stop offset="0.43" stop-color="#939393"/>
<stop offset="0.69" stop-color="#5B5B5B"/>
<stop offset="0.88" stop-color="#383838"/>
<stop offset="0.98" stop-color="#2B2B2B"/>
</linearGradient>
<linearGradient id="paint1_linear_2221_1181" x1="17.4805" y1="17.6845" x2="17.4805" y2="10.572" gradientUnits="userSpaceOnUse">
<stop stop-color="white"/>
<stop offset="0.12" stop-color="#E0E0E0"/>
<stop offset="0.43" stop-color="#939393"/>
<stop offset="0.69" stop-color="#5B5B5B"/>
<stop offset="0.88" stop-color="#383838"/>
<stop offset="0.98" stop-color="#2B2B2B"/>
</linearGradient>
<clipPath id="clip0_2221_1181">
<rect width="35" height="24.8004" fill="white"/>
</clipPath>
</defs>
</svg>
