<svg width="38" height="29" viewBox="0 0 38 29" fill="none" xmlns="http://www.w3.org/2000/svg">
<g clip-path="url(#clip0_2223_1287)">
<path d="M18.902 18.6441C18.14 18.6441 17.5161 18.0234 17.5161 17.263C17.5161 16.5645 16.9558 16.0009 16.2573 16.0009C15.5604 16.0009 14.9984 16.5645 14.9984 17.263C14.9984 18.9695 16.1081 20.4109 17.6416 20.938V21.6508C17.6416 22.3461 18.2051 22.9128 18.902 22.9128C19.5973 22.9128 20.1609 22.3461 20.1609 21.6508V20.938C21.6944 20.4109 22.804 18.9695 22.804 17.263C22.804 15.1072 21.053 13.3562 18.902 13.3562C18.14 13.3562 17.5161 12.7355 17.5161 11.9735C17.5161 11.21 18.14 10.5893 18.902 10.5893C19.6624 10.5893 20.2863 11.21 20.2863 11.9735C20.2863 12.6688 20.8498 13.234 21.5467 13.234C22.242 13.234 22.804 12.6688 22.804 11.9735C22.804 10.2638 21.6944 8.82559 20.1609 8.29695V7.58099C20.1609 6.88568 19.5973 6.32054 18.902 6.32054C18.2051 6.32054 17.6416 6.88568 17.6416 7.58099V8.29695C16.1081 8.82559 14.9984 10.2638 14.9984 11.9735C14.9984 14.1262 16.7478 15.8755 18.902 15.8755C19.6624 15.8755 20.2863 16.4962 20.2863 17.263C20.2863 18.0234 19.6624 18.6441 18.902 18.6441ZM7.91036 25.9464H5.65458C3.92422 25.9084 2.52408 24.4923 2.52408 22.7509V20.5665C5.24182 21.0824 7.39126 23.2319 7.91036 25.9464ZM35.2784 20.5665V22.7509C35.2784 24.4923 33.8798 25.9084 32.1509 25.9464L29.8874 25.9449C30.4065 23.2303 32.5607 21.0793 35.2784 20.5665ZM29.8874 3.27737H32.0764C33.8386 3.27737 35.2737 4.71243 35.2767 6.47454L35.2752 8.6573C32.5589 8.1398 30.4065 5.99194 29.8874 3.27737ZM32.675 0.759644H5.60058C4.90527 0.759644 4.34013 1.32478 4.34013 2.01851C4.34013 2.71223 4.90527 3.27737 5.60058 3.27737H27.3442C27.9109 7.38097 31.17 10.64 35.2784 11.2004V18.025C31.1668 18.5869 27.9061 21.8476 27.3442 25.9544H10.4535C9.89152 21.8476 6.63403 18.5901 2.52408 18.025V6.35866C2.52408 5.66175 1.95894 5.09821 1.26363 5.09821C0.566727 5.09821 0.003175 5.66175 0.003175 6.35866V19.4331C0.003175 19.4537 0 19.4728 0 19.4966V23.3446C0 26.1687 2.29707 28.4674 5.12434 28.4674H5.65458C5.67838 28.4674 5.70218 28.4737 5.72601 28.4737H32.0764C32.1003 28.4737 32.1256 28.4674 32.1509 28.4674H32.675C35.5023 28.4674 37.7976 26.1687 37.7976 23.3446V5.87924C37.7976 3.0583 35.5023 0.759644 32.675 0.759644Z" fill="black"/>
</g>
<defs>
<clipPath id="clip0_2223_1287">
<rect width="38" height="27.9845" fill="white" transform="translate(0 0.736328)"/>
</clipPath>
</defs>
</svg>
