<svg width="60" height="15" viewBox="0 0 60 15" fill="none" xmlns="http://www.w3.org/2000/svg">
<g clip-path="url(#clip0_2223_1320)">
<path d="M52.5547 0H7.44526C3.33335 0 0 3.33335 0 7.44526C0 11.5572 3.33335 14.8905 7.44526 14.8905H52.5547C56.6666 14.8905 60 11.5572 60 7.44526C60 3.33335 56.6666 0 52.5547 0Z" fill="#4CAF50"/>
<path d="M20.7049 9.85406H19.6907L19.6973 9.29058H20.7049C21.0364 9.29058 21.3126 9.22097 21.5336 9.08174C21.7546 8.94033 21.9202 8.74145 22.0308 8.48512C22.1436 8.2288 22.1998 7.92716 22.1998 7.58023V7.2985C22.1998 7.0267 22.1679 6.78582 22.1037 6.57591C22.0396 6.36377 21.9456 6.1848 21.822 6.03893C21.6982 5.89309 21.5469 5.78262 21.3679 5.70749C21.1911 5.63236 20.9878 5.59478 20.758 5.59478H19.6708V5.02798H20.758C21.074 5.02798 21.3634 5.08101 21.6264 5.18709C21.8894 5.29316 22.1158 5.44563 22.3058 5.64451C22.4959 5.84339 22.6417 6.08315 22.7434 6.36377C22.8474 6.6422 22.8993 6.95599 22.8993 7.30513V7.58023C22.8993 7.92937 22.8474 8.24426 22.7434 8.5249C22.6417 8.80334 22.4948 9.04198 22.3025 9.24085C22.1103 9.43752 21.8794 9.5889 21.6098 9.69495C21.3424 9.80102 21.0408 9.85406 20.7049 9.85406ZM20.0718 5.02798V9.85406H19.3691V5.02798H20.0718ZM24.4571 6.26766V9.85406H23.7809V6.26766H24.4571ZM23.7312 5.31968C23.7312 5.21361 23.7642 5.12411 23.8306 5.05119C23.8991 4.97827 23.9963 4.94181 24.1223 4.94181C24.2482 4.94181 24.3454 4.97827 24.4139 5.05119C24.4825 5.12411 24.5166 5.21361 24.5166 5.31968C24.5166 5.42133 24.4825 5.50861 24.4139 5.58153C24.3454 5.65224 24.2482 5.68758 24.1223 5.68758C23.9963 5.68758 23.8991 5.65224 23.8306 5.58153C23.7642 5.50861 23.7312 5.42133 23.7312 5.31968ZM27.47 8.89614C27.47 8.80995 27.4501 8.73151 27.4104 8.6608C27.3728 8.58788 27.2955 8.52158 27.1783 8.46193C27.0636 8.40004 26.891 8.34701 26.6613 8.30282C26.4647 8.26084 26.2866 8.21111 26.1277 8.15367C25.9685 8.094 25.8327 8.02329 25.7199 7.94153C25.6071 7.85976 25.5211 7.76365 25.4613 7.65315C25.4017 7.54047 25.372 7.40897 25.372 7.25871C25.372 7.11508 25.4028 6.9803 25.4648 6.85434C25.5288 6.72617 25.6194 6.61347 25.7366 6.51624C25.8537 6.41901 25.995 6.34279 26.1607 6.28754C26.3265 6.23008 26.5122 6.20135 26.7176 6.20135C27.0093 6.20135 27.258 6.25217 27.4634 6.35382C27.6712 6.45547 27.8302 6.59137 27.9408 6.76152C28.0512 6.92947 28.1066 7.11841 28.1066 7.32832H27.4336C27.4336 7.22888 27.4061 7.13387 27.3507 7.04328C27.2955 6.95266 27.2149 6.87865 27.1087 6.82119C27.0027 6.76152 26.8724 6.73169 26.7176 6.73169C26.5586 6.73169 26.4281 6.75712 26.3265 6.80794C26.2271 6.85655 26.1542 6.91953 26.1077 6.99685C26.0613 7.07199 26.0381 7.15266 26.0381 7.23882C26.0381 7.30292 26.0493 7.36036 26.0714 7.41118C26.0957 7.4598 26.1364 7.5051 26.194 7.54708C26.2536 7.58908 26.3352 7.62885 26.4393 7.66642C26.5452 7.70177 26.6779 7.73713 26.8369 7.77247C27.1242 7.83657 27.364 7.91501 27.5563 8.00781C27.7507 8.09842 27.8966 8.21223 27.9938 8.34922C28.091 8.48402 28.1396 8.65086 28.1396 8.84974C28.1396 9.00882 28.1066 9.15357 28.0402 9.28395C27.9739 9.41433 27.8777 9.52701 27.7518 9.62203C27.6281 9.71704 27.4801 9.79108 27.3077 9.84412C27.1376 9.89494 26.9453 9.92034 26.7309 9.92034C26.4128 9.92034 26.1432 9.864 25.922 9.75131C25.7011 9.63639 25.5331 9.48946 25.4184 9.31047C25.3056 9.12926 25.2493 8.93923 25.2493 8.74036H25.9155C25.9244 8.90166 25.9707 9.02982 26.0547 9.12484C26.1386 9.21985 26.2415 9.28837 26.3631 9.33035C26.4868 9.37012 26.6105 9.39002 26.7342 9.39002C26.8956 9.39002 27.0303 9.36902 27.1387 9.32704C27.2469 9.28283 27.3285 9.22428 27.3839 9.15136C27.4413 9.07623 27.47 8.99115 27.47 8.89614ZM29.5814 6.95709V11.2329H28.9052V6.26766H29.5251L29.5814 6.95709ZM31.9713 8.03102V8.10063C31.9713 8.36137 31.9404 8.60334 31.8785 8.82652C31.8167 9.0475 31.7271 9.23976 31.61 9.40327C31.4928 9.5668 31.347 9.69385 31.1725 9.78444C31.0001 9.87506 30.8024 9.92034 30.5793 9.92034C30.3537 9.92034 30.1549 9.88167 29.9825 9.80433C29.8102 9.72701 29.6644 9.61542 29.545 9.46955C29.4257 9.3215 29.3306 9.14693 29.2599 8.94585C29.1892 8.74257 29.1395 8.51496 29.1108 8.26305V7.92495C29.1395 7.662 29.1892 7.42445 29.2599 7.21231C29.3328 7.00018 29.4279 6.81898 29.545 6.66872C29.6644 6.51845 29.8091 6.40355 29.9793 6.324C30.1494 6.24223 30.3461 6.20135 30.5692 6.20135C30.7969 6.20135 30.9969 6.24556 31.1692 6.33394C31.3437 6.42013 31.4907 6.54388 31.61 6.70517C31.7293 6.8665 31.8189 7.05983 31.8785 7.28523C31.9404 7.50841 31.9713 7.75701 31.9713 8.03102ZM31.2951 8.10063V8.03102C31.2951 7.85645 31.2774 7.69294 31.2421 7.54047C31.2066 7.38578 31.1515 7.25098 31.0763 7.13608C31.0034 7.01897 30.9084 6.92726 30.7912 6.86096C30.6765 6.79246 30.5394 6.75821 30.3802 6.75821C30.23 6.75821 30.0997 6.78363 29.9891 6.83444C29.8788 6.88526 29.7859 6.95488 29.7108 7.04328C29.6357 7.13166 29.5748 7.23221 29.5284 7.3449C29.482 7.45761 29.4478 7.57693 29.4257 7.70288V8.49175C29.4655 8.64865 29.5218 8.79449 29.5947 8.92929C29.6698 9.06407 29.7715 9.17236 29.8998 9.25412C30.0279 9.33366 30.1901 9.37344 30.387 9.37344C30.546 9.37344 30.682 9.34029 30.7945 9.27401C30.9095 9.20549 31.0045 9.11269 31.0796 8.99558C31.1547 8.87847 31.209 8.74366 31.2421 8.59119C31.2774 8.4365 31.2951 8.27299 31.2951 8.10063ZM32.558 8.10063V8.02439C32.558 7.76586 32.5956 7.5261 32.6707 7.30513C32.7458 7.08195 32.854 6.88859 32.9955 6.72506C33.1391 6.55934 33.3115 6.43117 33.5127 6.34058C33.7159 6.24775 33.9445 6.20135 34.1988 6.20135C34.455 6.20135 34.6849 6.24775 34.8881 6.34058C35.0915 6.43117 35.2639 6.55934 35.4053 6.72506C35.549 6.88859 35.6582 7.08195 35.7334 7.30513C35.8085 7.5261 35.8461 7.76586 35.8461 8.02439V8.10063C35.8461 8.35916 35.8085 8.59892 35.7334 8.81989C35.6582 9.04088 35.549 9.23422 35.4053 9.39996C35.2639 9.56347 35.0915 9.69164 34.8881 9.78444C34.6871 9.87506 34.4596 9.92034 34.2053 9.92034C33.9491 9.92034 33.7192 9.87506 33.516 9.78444C33.3147 9.69164 33.1424 9.56347 32.9988 9.39996C32.8551 9.23422 32.7458 9.04088 32.6707 8.81989C32.5956 8.59892 32.558 8.35916 32.558 8.10063ZM33.2309 8.02439V8.10063C33.2309 8.2752 33.2508 8.43871 33.2904 8.59119C33.3303 8.74366 33.3898 8.87956 33.4696 8.99888C33.5512 9.11601 33.6528 9.2077 33.7744 9.27401C33.8981 9.34029 34.0417 9.37344 34.2053 9.37344C34.3667 9.37344 34.5082 9.34029 34.6297 9.27401C34.7512 9.2077 34.8517 9.11601 34.9312 8.99888C35.0107 8.87956 35.0705 8.74366 35.1101 8.59119C35.1522 8.43871 35.1732 8.2752 35.1732 8.10063V8.02439C35.1732 7.85424 35.1522 7.69294 35.1101 7.54047C35.0705 7.38578 35.0096 7.24988 34.9279 7.13277C34.8485 7.01343 34.7477 6.91953 34.6262 6.85101C34.5047 6.78252 34.3623 6.74827 34.1988 6.74827C34.0374 6.74827 33.8959 6.78252 33.7744 6.85101C33.6528 6.91953 33.5512 7.01343 33.4696 7.13277C33.3898 7.24988 33.3303 7.38578 33.2904 7.54047C33.2508 7.69294 33.2309 7.85424 33.2309 8.02439ZM37.2548 7.03334V9.85406H36.5819V6.26766H37.215L37.2548 7.03334ZM37.109 7.92495L36.8536 7.91834C36.8558 7.67082 36.8913 7.44212 36.9598 7.23221C37.0306 7.02228 37.13 6.83998 37.2581 6.68529C37.3862 6.53061 37.5388 6.41128 37.7155 6.32731C37.8923 6.24335 38.0878 6.20135 38.3022 6.20135C38.4789 6.20135 38.637 6.22566 38.7763 6.27427C38.9175 6.32069 39.0379 6.39692 39.1376 6.50299C39.2392 6.60685 39.3165 6.74163 39.3695 6.90738C39.4225 7.0731 39.449 7.27528 39.449 7.51395V9.85406H38.7728V7.50731C38.7728 7.32611 38.7463 7.18139 38.6933 7.0731C38.6403 6.96261 38.5619 6.88307 38.4581 6.83444C38.3563 6.78363 38.2315 6.75821 38.0834 6.75821C37.9354 6.75821 37.8016 6.78915 37.6825 6.85101C37.5631 6.9129 37.4602 6.99797 37.3742 7.10625C37.2901 7.21452 37.225 7.33938 37.1786 7.4808C37.1322 7.62002 37.109 7.76807 37.109 7.92495ZM41.0698 6.26766V9.85406H40.3936V6.26766H41.0698ZM40.3439 5.31968C40.3439 5.21361 40.3772 5.12411 40.4433 5.05119C40.5119 4.97827 40.6091 4.94181 40.735 4.94181C40.8612 4.94181 40.9584 4.97827 41.0267 5.05119C41.0952 5.12411 41.1296 5.21361 41.1296 5.31968C41.1296 5.42133 41.0952 5.50861 41.0267 5.58153C40.9584 5.65224 40.8612 5.68758 40.735 5.68758C40.6091 5.68758 40.5119 5.65224 40.4433 5.58153C40.3772 5.50861 40.3439 5.42133 40.3439 5.31968ZM42.0178 4.76282H42.694V9.13478L42.6344 9.85406H42.0178V4.76282ZM45.0905 8.03102V8.10063C45.0905 8.36137 45.0596 8.60334 44.9977 8.82652C44.9381 9.0475 44.8485 9.23976 44.7292 9.40327C44.6098 9.5668 44.464 9.69385 44.2917 9.78444C44.1193 9.87506 43.9205 9.92034 43.6952 9.92034C43.4696 9.92034 43.2719 9.88058 43.1017 9.80102C42.9316 9.71926 42.789 9.60326 42.6741 9.453C42.5593 9.30274 42.4665 9.12263 42.3958 8.91271C42.3272 8.70057 42.2797 8.46414 42.2532 8.20338V7.92495C42.2797 7.662 42.3272 7.42555 42.3958 7.21563C42.4665 7.00349 42.5593 6.82228 42.6741 6.67204C42.789 6.51957 42.9305 6.40355 43.0985 6.324C43.2686 6.24223 43.4652 6.20135 43.6884 6.20135C43.9161 6.20135 44.1171 6.24556 44.2917 6.33394C44.4662 6.42013 44.612 6.54497 44.7292 6.7085C44.8485 6.8698 44.9381 7.06204 44.9977 7.28523C45.0596 7.50841 45.0905 7.75701 45.0905 8.03102ZM44.4143 8.10063V8.03102C44.4143 7.85645 44.399 7.69294 44.3679 7.54047C44.337 7.38799 44.2873 7.25319 44.2188 7.13608C44.1502 7.01897 44.0587 6.92726 43.9437 6.86096C43.8309 6.79246 43.6906 6.75821 43.5226 6.75821C43.3702 6.75821 43.2388 6.78473 43.1282 6.83777C43.0201 6.88859 42.9272 6.9582 42.8499 7.04658C42.7748 7.13277 42.7139 7.23221 42.6675 7.3449C42.6233 7.45761 42.5902 7.57581 42.5681 7.69955V8.43541C42.599 8.5945 42.6522 8.74476 42.7273 8.8862C42.8024 9.0254 42.9051 9.1392 43.0354 9.22761C43.1681 9.31598 43.3328 9.36017 43.5294 9.36017C43.6884 9.36017 43.8244 9.32814 43.9371 9.26406C44.0497 9.19776 44.1415 9.10717 44.2122 8.99227C44.2829 8.87735 44.3337 8.74366 44.3646 8.59119C44.3979 8.43871 44.4143 8.2752 44.4143 8.10063ZM46.559 6.26766V9.85406H45.8828V6.26766H46.559ZM45.8331 5.31968C45.8331 5.21361 45.8661 5.12411 45.9325 5.05119C46.001 4.97827 46.0982 4.94181 46.2242 4.94181C46.3501 4.94181 46.4473 4.97827 46.5158 5.05119C46.5844 5.12411 46.6185 5.21361 46.6185 5.31968C46.6185 5.42133 46.5844 5.50861 46.5158 5.58153C46.4473 5.65224 46.3501 5.68758 46.2242 5.68758C46.0982 5.68758 46.001 5.65224 45.9325 5.58153C45.8661 5.50861 45.8331 5.42133 45.8331 5.31968ZM48.2361 4.76282V9.85406H47.5599V4.76282H48.2361ZM50.7023 9.92034C50.448 9.92034 50.2183 9.87727 50.0127 9.79108C49.8073 9.70489 49.6315 9.58447 49.4856 9.42979C49.3398 9.2751 49.2272 9.09171 49.1475 8.87956C49.0702 8.66744 49.0317 8.4365 49.0317 8.1868V8.0476C49.0317 7.76032 49.0735 7.50289 49.1576 7.27528C49.2436 7.04549 49.3597 6.85101 49.5055 6.69193C49.6536 6.53061 49.8226 6.40907 50.0127 6.32731C50.205 6.24335 50.4071 6.20135 50.6193 6.20135C50.8757 6.20135 51.0977 6.24556 51.2856 6.33394C51.4733 6.42013 51.6281 6.54276 51.7496 6.70187C51.8733 6.85877 51.964 7.04437 52.0214 7.25871C52.0809 7.47085 52.1109 7.70398 52.1109 7.9581V8.25311H49.4028V7.7294H51.4413V7.67967C51.4347 7.52499 51.4036 7.37693 51.3485 7.23552C51.2933 7.09189 51.207 6.97476 51.0901 6.88417C50.9751 6.79358 50.8181 6.74827 50.6193 6.74827C50.4822 6.74827 50.3574 6.777 50.2448 6.83444C50.132 6.8919 50.0359 6.97697 49.9564 7.08968C49.8769 7.20236 49.815 7.33938 49.7707 7.50068C49.7287 7.65979 49.7079 7.84209 49.7079 8.0476V8.1868C49.7079 8.35255 49.7309 8.50721 49.7773 8.65086C49.8237 8.79449 49.8912 8.92154 49.9796 9.03204C50.0701 9.14032 50.1785 9.22539 50.3044 9.28725C50.4325 9.34693 50.5783 9.37675 50.7419 9.37675C50.9497 9.37675 51.1286 9.33477 51.2788 9.25079C51.4293 9.16463 51.5606 9.04861 51.6734 8.90277L52.0612 9.23422C51.9837 9.35135 51.8843 9.46294 51.7628 9.56899C51.6412 9.67285 51.4932 9.75793 51.3187 9.82423C51.1442 9.88831 50.9385 9.92034 50.7023 9.92034Z" fill="white"/>
<path d="M11.8826 7.24641L11.8185 7.18231C11.748 7.11176 11.6326 7.11176 11.5622 7.18231L10.4728 8.27164L10.0864 7.88523C10.0159 7.81474 9.90046 7.81474 9.83004 7.88532L9.76597 7.9493C9.69552 8.01981 9.69552 8.13519 9.76597 8.2057L10.3443 8.78449C10.4148 8.85506 10.5302 8.85506 10.6007 8.78449L11.8826 7.50278C11.9529 7.43227 11.9529 7.31689 11.8826 7.24641Z" fill="white"/>
<path d="M7.8833 5.93985V9.49824C7.8833 9.89131 8.20194 10.2099 8.59498 10.2099H12.8651C13.2581 10.2099 13.5767 9.89131 13.5767 9.49824V5.93985M7.8833 5.93985V5.22817C7.8833 4.83512 8.20194 4.51649 8.59498 4.51649H9.30666M7.8833 5.93985H13.5767M13.5767 5.93985V5.22817C13.5767 4.83512 13.2581 4.51649 12.8651 4.51649H12.1534M9.30666 4.51649H12.1534M9.30666 4.51649V3.80481M12.1534 4.51649V3.80481" stroke="white" stroke-width="0.711679" stroke-linecap="round" stroke-linejoin="round"/>
</g>
<defs>
<clipPath id="clip0_2223_1320">
<rect width="60" height="14.8905" fill="white"/>
</clipPath>
</defs>
</svg>
