<svg width="25" height="25" viewBox="0 0 25 25" fill="none" xmlns="http://www.w3.org/2000/svg">
<path d="M12.5702 1.20996C6.33813 1.20996 1.28613 6.26255 1.28613 12.4945C1.28613 18.7265 6.33813 23.7791 12.5702 23.7791C18.8025 23.7791 23.8545 18.7265 23.8545 12.4945C23.8545 6.26255 18.8025 1.20996 12.5702 1.20996ZM12.5702 22.183C7.21947 22.183 2.88172 17.8451 2.88172 12.4945C2.88172 7.14379 7.21947 2.80554 12.5702 2.80554C17.9212 2.80554 22.2588 7.14379 22.2588 12.4945C22.2587 17.8452 17.9212 22.183 12.5702 22.183Z" fill="#E65135"/>
<path d="M21.2989 12.4945C21.2989 17.3155 17.3911 21.2232 12.5701 21.2232C7.7493 21.2232 3.84155 17.3154 3.84155 12.4945C3.84155 7.67354 7.7493 3.76562 12.5701 3.76562C17.3911 3.76562 21.2989 7.67346 21.2989 12.4945Z" fill="#E65135"/>
<path d="M13.7435 17.0122C13.4162 17.3321 13.021 17.4923 12.5584 17.4923C12.0771 17.4923 11.6813 17.3375 11.3701 17.0263C11.0597 16.7152 10.9043 16.3194 10.9043 15.8379C10.9043 15.3706 11.0652 14.9744 11.3877 14.6498C11.7099 14.3251 12.1004 14.1627 12.558 14.1627C13.0159 14.1627 13.4095 14.3286 13.7393 14.6602C14.0685 14.9921 14.2335 15.3871 14.2335 15.845C14.2339 16.3033 14.0703 16.6921 13.7435 17.0122Z" fill="white"/>
<path d="M14.4162 12.768C14.1364 12.9085 13.965 13.0299 13.9046 13.1327C13.8437 13.235 13.8141 13.4552 13.8141 13.7918H11.2137V13.3499C11.2137 12.7656 11.2787 12.3345 11.4099 12.056C11.5405 11.778 11.779 11.5621 12.1252 11.4076L12.6019 11.1978C12.9619 11.0385 13.1417 10.8146 13.1417 10.5246C13.1417 10.356 13.0824 10.2142 12.9664 10.0965C12.8498 9.98055 12.7066 9.92122 12.5386 9.92122C12.0807 9.92122 11.8514 10.2397 11.8514 10.875H9.43311C9.43311 10.0241 9.62986 9.33055 10.0223 8.79322C10.3122 8.39597 10.688 8.08055 11.1507 7.84688C11.6134 7.61355 12.0924 7.49622 12.5879 7.49622C13.4668 7.49622 14.2056 7.78755 14.8064 8.36913C15.4071 8.95072 15.7072 9.6718 15.7072 10.5317C15.7059 11.5923 15.276 12.3382 14.4162 12.768Z" fill="white"/>
</svg>
