<svg width="8" height="6" viewBox="0 0 8 6" fill="none" xmlns="http://www.w3.org/2000/svg">
<path d="M6.81826 1.09092H2.18191C2.10957 1.09092 2.04021 1.06219 1.98906 1.01104C1.93791 0.959898 1.90918 0.890529 1.90918 0.818198C1.90918 0.745866 1.93791 0.676497 1.98906 0.625351C2.04021 0.574205 2.10957 0.545471 2.18191 0.545471H6.81826C6.89059 0.545471 6.95996 0.574205 7.0111 0.625351C7.06225 0.676497 7.09098 0.745866 7.09098 0.818198C7.09098 0.890529 7.06225 0.959898 7.0111 1.01104C6.95996 1.06219 6.89059 1.09092 6.81826 1.09092Z" fill="#D1252B"/>
<path d="M1.09091 1.09092H0.272726C0.200395 1.09092 0.131026 1.06219 0.0798797 1.01104C0.0287336 0.959898 0 0.890529 0 0.818198C0 0.745866 0.0287336 0.676497 0.0798797 0.625351C0.131026 0.574205 0.200395 0.545471 0.272726 0.545471H1.09091C1.16324 0.545471 1.23261 0.574205 1.28375 0.625351C1.3349 0.676497 1.36363 0.745866 1.36363 0.818198C1.36363 0.890529 1.3349 0.959898 1.28375 1.01104C1.23261 1.06219 1.16324 1.09092 1.09091 1.09092Z" fill="#D1252B"/>
<path d="M4.90908 3.27272H0.272727C0.200395 3.27272 0.131026 3.24398 0.0798797 3.19284C0.0287336 3.14169 0 3.07232 0 2.99999C0 2.92766 0.0287336 2.85829 0.0798797 2.80714C0.131026 2.756 0.200395 2.72726 0.272727 2.72726H4.90908C4.98141 2.72726 5.05078 2.756 5.10192 2.80714C5.15307 2.85829 5.1818 2.92766 5.1818 2.99999C5.1818 3.07232 5.15307 3.14169 5.10192 3.19284C5.05078 3.24398 4.98141 3.27272 4.90908 3.27272Z" fill="#D1252B"/>
<path d="M2.18181 5.45457H0.272726C0.200395 5.45457 0.131026 5.42584 0.0798797 5.37469C0.0287336 5.32355 0 5.25418 0 5.18185C0 5.10951 0.0287336 5.04014 0.0798797 4.989C0.131026 4.93785 0.200395 4.90912 0.272726 4.90912H2.18181C2.25414 4.90912 2.32351 4.93785 2.37466 4.989C2.4258 5.04014 2.45454 5.10951 2.45454 5.18185C2.45454 5.25418 2.4258 5.32355 2.37466 5.37469C2.32351 5.42584 2.25414 5.45457 2.18181 5.45457Z" fill="#D1252B"/>
<path d="M1.63556 1.63636C1.47374 1.63636 1.31556 1.58837 1.18101 1.49847C1.04646 1.40857 0.941589 1.28079 0.879663 1.13128C0.817737 0.981781 0.801535 0.817272 0.833104 0.658561C0.864674 0.49985 0.942598 0.354064 1.05702 0.23964C1.17145 0.125215 1.31723 0.0472911 1.47594 0.0157215C1.63466 -0.0158482 1.79916 0.000354506 1.94867 0.0622806C2.09817 0.124207 2.22595 0.229075 2.31585 0.363624C2.40576 0.498173 2.45374 0.656359 2.45374 0.81818C2.45374 1.03517 2.36754 1.24328 2.2141 1.39672C2.06066 1.55016 1.85256 1.63636 1.63556 1.63636ZM1.63556 0.545453C1.58162 0.545453 1.52889 0.561449 1.48404 0.591416C1.43919 0.621384 1.40424 0.663978 1.3836 0.713812C1.36295 0.763646 1.35755 0.818482 1.36808 0.871386C1.3786 0.92429 1.40457 0.972885 1.44272 1.01103C1.48086 1.04917 1.52945 1.07514 1.58236 1.08567C1.63526 1.09619 1.6901 1.09079 1.73993 1.07015C1.78976 1.0495 1.83236 1.01455 1.86233 0.969699C1.89229 0.924849 1.90829 0.87212 1.90829 0.81818C1.90829 0.745848 1.87956 0.676479 1.82841 0.625333C1.77726 0.574187 1.70789 0.545453 1.63556 0.545453Z" fill="#D1252B"/>
<path d="M5.45588 3.81815C5.29405 3.81815 5.13587 3.77017 5.00132 3.68026C4.86677 3.59036 4.7619 3.46258 4.69998 3.31308C4.63805 3.16357 4.62185 2.99907 4.65342 2.84035C4.68499 2.68164 4.76291 2.53586 4.87733 2.42143C4.99176 2.30701 5.13754 2.22908 5.29626 2.19751C5.45497 2.16595 5.61948 2.18215 5.76898 2.24407C5.91848 2.306 6.04626 2.41087 6.13617 2.54542C6.22607 2.67997 6.27405 2.83815 6.27405 2.99997C6.27405 3.21697 6.18785 3.42507 6.03442 3.57851C5.88098 3.73195 5.67287 3.81815 5.45588 3.81815ZM5.45588 2.72725C5.40193 2.72725 5.34921 2.74324 5.30436 2.77321C5.25951 2.80318 5.22455 2.84577 5.20391 2.89561C5.18327 2.94544 5.17787 3.00028 5.18839 3.05318C5.19891 3.10608 5.22489 3.15468 5.26303 3.19282C5.30117 3.23096 5.34976 3.25694 5.40267 3.26746C5.45557 3.27798 5.51041 3.27258 5.56024 3.25194C5.61008 3.2313 5.65267 3.19634 5.68264 3.15149C5.71261 3.10664 5.7286 3.05391 5.7286 2.99997C5.7286 2.92764 5.69987 2.85827 5.64872 2.80713C5.59758 2.75598 5.52821 2.72725 5.45588 2.72725Z" fill="#D1252B"/>
<path d="M2.72736 6.00001C2.56554 6.00001 2.40735 5.95202 2.2728 5.86212C2.13825 5.77222 2.03339 5.64443 1.97146 5.49493C1.90953 5.34543 1.89333 5.18092 1.9249 5.02221C1.95647 4.8635 2.03439 4.71771 2.14882 4.60329C2.26324 4.48886 2.40903 4.41094 2.56774 4.37937C2.72645 4.3478 2.89096 4.364 3.04046 4.42593C3.18997 4.48785 3.31775 4.59272 3.40765 4.72727C3.49755 4.86182 3.54554 5.02001 3.54554 5.18183C3.54554 5.39882 3.45934 5.60693 3.3059 5.76037C3.15246 5.91381 2.94435 6.00001 2.72736 6.00001ZM2.72736 4.9091C2.67342 4.9091 2.62069 4.9251 2.57584 4.95506C2.53099 4.98503 2.49604 5.02763 2.47539 5.07746C2.45475 5.12729 2.44935 5.18213 2.45987 5.23503C2.4704 5.28794 2.49637 5.33653 2.53451 5.37467C2.57265 5.41282 2.62125 5.43879 2.67415 5.44931C2.72706 5.45984 2.78189 5.45444 2.83173 5.43379C2.88156 5.41315 2.92416 5.3782 2.95412 5.33335C2.98409 5.2885 3.00009 5.23577 3.00009 5.18183C3.00009 5.1095 2.97135 5.04013 2.92021 4.98898C2.86906 4.93783 2.79969 4.9091 2.72736 4.9091Z" fill="#D1252B"/>
<path d="M6.81747 3.27272H5.99929C5.92696 3.27272 5.85759 3.24398 5.80644 3.19284C5.7553 3.14169 5.72656 3.07232 5.72656 2.99999C5.72656 2.92766 5.7553 2.85829 5.80644 2.80714C5.85759 2.756 5.92696 2.72726 5.99929 2.72726H6.81747C6.8898 2.72726 6.95917 2.756 7.01032 2.80714C7.06146 2.85829 7.09019 2.92766 7.09019 2.99999C7.09019 3.07232 7.06146 3.14169 7.01032 3.19284C6.95917 3.24398 6.8898 3.27272 6.81747 3.27272Z" fill="#D1252B"/>
<path d="M6.81915 5.45457H3.2737C3.20137 5.45457 3.132 5.42584 3.08086 5.37469C3.02971 5.32355 3.00098 5.25418 3.00098 5.18185C3.00098 5.10951 3.02971 5.04014 3.08086 4.989C3.132 4.93785 3.20137 4.90912 3.2737 4.90912H6.81915C6.89148 4.90912 6.96085 4.93785 7.01199 4.989C7.06314 5.04014 7.09187 5.10951 7.09187 5.18185C7.09187 5.25418 7.06314 5.32355 7.01199 5.37469C6.96085 5.42584 6.89148 5.45457 6.81915 5.45457Z" fill="#D1252B"/>
</svg>
