<svg width="30" height="26" viewBox="0 0 30 26" fill="none" xmlns="http://www.w3.org/2000/svg">
<g clip-path="url(#clip0_2223_1311)">
<path d="M8.76522 0.237525C8.42189 0.235066 8.11713 0.456821 8.01386 0.784237L0.194966 24.2409C-0.134893 25.2305 1.34947 25.7253 1.67934 24.7357L9.49823 1.27903C9.67657 0.772228 9.30246 0.240696 8.76522 0.237525ZM11.1139 0.237525C10.7425 0.233555 10.4196 0.49141 10.3412 0.854484L4.86798 24.3112C4.56216 25.3672 6.19669 25.7479 6.38898 24.6655L11.8622 1.20878C11.9843 0.719475 11.6182 0.244234 11.1139 0.237525ZM14.999 0.237525C14.5671 0.244263 14.2225 0.599802 14.2293 1.03163V2.59541C14.2143 3.65277 15.808 3.65277 15.7931 2.59541V1.03163C15.8 0.590229 15.4403 0.230618 14.999 0.237525ZM18.884 0.237525C18.3797 0.244234 18.0135 0.719475 18.1357 1.20878L23.6089 24.6655C23.8012 25.7479 25.4357 25.3672 25.1299 24.3112L19.6567 0.854484C19.5783 0.49141 19.2554 0.233553 18.884 0.237525ZM21.2327 0.237525C20.6954 0.240696 20.3213 0.772228 20.4996 1.27903L28.3186 24.7357C28.6484 25.7253 30.1329 25.2305 29.8029 24.2409L21.984 0.784237C21.8807 0.456821 21.576 0.23507 21.2327 0.237525ZM14.999 8.05641C14.5671 8.06315 14.2225 8.4187 14.2293 8.85052V13.5419C14.2143 14.5992 15.808 14.5992 15.7931 13.5419V8.85052C15.8 8.40913 15.4403 8.04952 14.999 8.05641ZM14.999 19.0029C14.5671 19.0096 14.2225 19.3652 14.2293 19.797V24.4883C14.2143 25.5457 15.808 25.5457 15.7931 24.4883V19.797C15.7999 19.3556 15.4403 18.996 14.999 19.0029Z" fill="#222222"/>
</g>
<defs>
<clipPath id="clip0_2223_1311">
<rect width="30" height="25.5446" fill="white"/>
</clipPath>
</defs>
</svg>
