<svg width="20" height="29" viewBox="0 0 20 29" fill="none" xmlns="http://www.w3.org/2000/svg">
<path d="M18.1945 24.7418H18.0936C18.4452 23.7437 17.8473 22.6672 16.8306 22.4307C17.2765 21.2728 16.4182 20.0294 15.1889 20.0294H14.9816C14.9425 18.863 14.4011 17.7746 13.5005 17.0444V14.7278C13.5005 14.4022 13.2368 14.1386 12.9135 14.1386H12.0389V11.1926H12.3264C12.6509 11.1926 12.9135 10.9289 12.9135 10.6034V6.80241C13.609 6.05698 14.0029 5.06414 14.0029 4.03983C14.0029 1.81219 12.1984 0.00012207 9.97945 0.00012207C7.76047 0.00012207 5.95601 1.81219 5.95601 4.03983C5.95601 5.06414 6.34988 6.05698 7.0454 6.80241V10.6034C7.0454 10.9289 7.30799 11.1926 7.63243 11.1926H7.91997V14.1386H7.0454C6.72205 14.1386 6.45838 14.4022 6.45838 14.7278V17.0444C5.55778 17.7746 5.01632 18.863 4.97726 20.0294H4.77003C3.53847 20.0294 2.68343 21.2751 3.1283 22.4307C2.11595 22.6662 1.51264 23.7414 1.86529 24.7418H1.76438C0.794325 24.7418 0.00439453 25.5341 0.00439453 26.5085C0.00439453 27.4828 0.794325 28.276 1.76438 28.276H18.1945C19.1645 28.276 19.9545 27.4828 19.9545 26.5085C19.9545 25.5341 19.1645 24.7418 18.1945 24.7418ZM7.12897 4.03983C7.12897 2.46214 8.40826 1.17851 9.97945 1.17851C11.5506 1.17851 12.8299 2.46214 12.8299 4.03983C12.8299 4.83954 12.5087 5.58173 11.9261 6.1286C11.8067 6.24035 11.7394 6.39552 11.7394 6.55937V10.0142C10.4482 10.0142 9.50093 10.0142 8.21945 10.0142V6.55937C8.21945 6.39552 8.15218 6.24035 8.03282 6.1286C7.45013 5.58173 7.12897 4.83954 7.12897 4.03983ZM10.8659 11.1926V13.9574H9.09295V11.1926H10.8659ZM7.37636 17.8267C7.53695 17.7171 7.63243 17.5349 7.63243 17.3406V15.3159H12.3264V17.3406C12.3264 17.5349 12.4219 17.7171 12.5825 17.8267C13.316 18.3302 13.7674 19.1451 13.8087 20.0294H6.15024C6.19147 19.1451 6.64393 18.3302 7.37636 17.8267ZM4.77003 21.2068C7.91563 21.2068 11.9109 21.2068 15.1889 21.2068C15.5122 21.2068 15.7748 21.4716 15.7748 21.796C15.7748 22.1214 15.5122 22.3851 15.1889 22.3851H4.77003C4.44668 22.3851 4.18409 22.1214 4.18409 21.796C4.18409 21.4716 4.44668 21.2068 4.77003 21.2068ZM2.93843 24.1526C2.93843 23.8272 3.20101 23.5635 3.52545 23.5635C4.08318 23.5635 15.3223 23.5635 16.4334 23.5635C16.7579 23.5635 17.0204 23.8272 17.0204 24.1526C17.0204 24.4772 16.7579 24.7418 16.4334 24.7418H3.52545C3.20101 24.7418 2.93843 24.4772 2.93843 24.1526ZM18.1945 27.0976H1.76438C1.44103 27.0976 1.17735 26.8339 1.17735 26.5085C1.17735 26.1839 1.44103 25.9203 1.76438 25.9203C4.57361 25.9203 16.5398 25.9203 18.1945 25.9203C18.5178 25.9203 18.7815 26.1839 18.7815 26.5085C18.7815 26.8339 18.5178 27.0976 18.1945 27.0976Z" fill="black"/>
</svg>
