<svg width="6" height="6" viewBox="0 0 6 6" fill="none" xmlns="http://www.w3.org/2000/svg">
<path d="M4.38571 3.69171C4.32548 3.69207 4.26749 3.66888 4.22413 3.62708L3.24542 2.68069C3.09515 2.53695 2.97555 2.36426 2.89385 2.17304C2.81214 1.98183 2.77002 1.77604 2.77002 1.56809C2.77002 1.36015 2.81214 1.15436 2.89385 0.963143C2.97555 0.771924 3.09515 0.599238 3.24542 0.455502C3.55304 0.163068 3.96126 0 4.38571 0C4.81015 0 5.21837 0.163068 5.526 0.455502C5.67627 0.599238 5.79586 0.771924 5.87756 0.963143C5.95927 1.15436 6.00139 1.36015 6.00139 1.56809C6.00139 1.77604 5.95927 1.98183 5.87756 2.17304C5.79586 2.36426 5.67627 2.53695 5.526 2.68069L4.54729 3.62708C4.50392 3.66888 4.44594 3.69207 4.38571 3.69171ZM4.38571 0.460118C4.08025 0.458248 3.78617 0.575881 3.56627 0.787894C3.46038 0.888391 3.37606 1.00939 3.31844 1.14352C3.26082 1.27765 3.2311 1.42211 3.2311 1.56809C3.2311 1.71408 3.26082 1.85853 3.31844 1.99267C3.37606 2.1268 3.46038 2.2478 3.56627 2.34829L4.38571 3.14003L5.20515 2.34829C5.31103 2.2478 5.39535 2.1268 5.45297 1.99267C5.5106 1.85853 5.54031 1.71408 5.54031 1.56809C5.54031 1.42211 5.5106 1.27765 5.45297 1.14352C5.39535 1.00939 5.31103 0.888391 5.20515 0.787894C4.98497 0.576299 4.69107 0.458737 4.38571 0.460118Z" fill="#D1252B"/>
<path d="M1.84663 5.99999C1.80619 6.00027 1.76639 5.98992 1.73121 5.96998L0.115416 5.04667C0.0801905 5.02633 0.0509644 4.99705 0.0306969 4.96179C0.0104295 4.92652 -0.00015966 4.88652 1.81959e-06 4.84585V0.690944C-0.00015966 0.650269 0.0104295 0.610275 0.0306969 0.575009C0.0509644 0.539744 0.0801905 0.51046 0.115416 0.490123C0.150506 0.469864 0.190311 0.459198 0.23083 0.459198C0.271349 0.459198 0.311154 0.469864 0.346244 0.490123L1.96204 1.41344C1.99727 1.43377 2.02649 1.46306 2.04676 1.49832C2.06703 1.53359 2.07762 1.57358 2.07746 1.61426V5.76916C2.07762 5.80984 2.06703 5.84983 2.04676 5.8851C2.02649 5.92036 1.99727 5.94965 1.96204 5.96998C1.92686 5.98992 1.88706 6.00027 1.84663 5.99999ZM0.461658 4.71197L1.6158 5.37214V1.74814L0.461658 1.08797V4.71197Z" fill="#D1252B"/>
<path d="M1.84667 6.00001C1.80624 6.00029 1.76644 5.98994 1.73126 5.97C1.69604 5.94967 1.66681 5.92038 1.64654 5.88512C1.62627 5.84985 1.61569 5.80986 1.61585 5.76918V1.61428C1.61569 1.5736 1.62627 1.53361 1.64654 1.49834C1.66681 1.46308 1.69604 1.43379 1.73126 1.41346L3.11623 0.621715C3.14271 0.606546 3.17194 0.59678 3.20222 0.592982C3.23251 0.589183 3.26324 0.591427 3.29265 0.599584C3.32206 0.607742 3.34956 0.62165 3.37356 0.640505C3.39756 0.65936 3.41758 0.682787 3.43246 0.70943C3.46256 0.762432 3.47047 0.825185 3.45447 0.883997C3.43847 0.942809 3.39986 0.992905 3.34706 1.02336L2.0775 1.74816V5.37216L3.34706 4.64505C3.37343 4.62989 3.40253 4.62008 3.43269 4.61617C3.46286 4.61226 3.4935 4.61433 3.52286 4.62226C3.55223 4.63019 3.57974 4.64383 3.60384 4.66239C3.62793 4.68096 3.64814 4.70408 3.66329 4.73046C3.67845 4.75683 3.68826 4.78593 3.69217 4.81609C3.69608 4.84626 3.69401 4.8769 3.68608 4.90626C3.67815 4.93563 3.66452 4.96314 3.64595 4.98724C3.62739 5.01133 3.60426 5.03153 3.57789 5.04669L1.96209 5.97C1.92691 5.98994 1.88711 6.00029 1.84667 6.00001Z" fill="#D1252B"/>
<path d="M5.07819 5.99999C5.03776 6.00027 4.99796 5.98992 4.96278 5.96998L3.34698 5.04667C3.31176 5.02633 3.28253 4.99705 3.26226 4.96178C3.242 4.92652 3.23141 4.88652 3.23157 4.84585V2.7684C3.23157 2.70718 3.25589 2.64846 3.29918 2.60518C3.34247 2.56189 3.40118 2.53757 3.4624 2.53757C3.52362 2.53757 3.58233 2.56189 3.62562 2.60518C3.66891 2.64846 3.69323 2.70718 3.69323 2.7684V4.71197L4.84737 5.37214V2.99922C4.84737 2.938 4.87169 2.87929 4.91497 2.836C4.95826 2.79271 5.01698 2.7684 5.07819 2.7684C5.13941 2.7684 5.19813 2.79271 5.24141 2.836C5.2847 2.87929 5.30902 2.938 5.30902 2.99922V5.76916C5.30918 5.80984 5.29859 5.84983 5.27833 5.8851C5.25806 5.92036 5.22883 5.94965 5.19361 5.96998C5.15843 5.98992 5.11863 6.00027 5.07819 5.99999Z" fill="#D1252B"/>
<path d="M4.38572 2.30675C4.24876 2.30675 4.11488 2.26614 4.001 2.19005C3.88712 2.11396 3.79836 2.00581 3.74595 1.87927C3.69354 1.75274 3.67982 1.6135 3.70654 1.47917C3.73326 1.34484 3.79922 1.22145 3.89606 1.12461C3.99291 1.02776 4.1163 0.961809 4.25062 0.93509C4.38495 0.90837 4.52419 0.922083 4.65072 0.974496C4.77726 1.02691 4.88541 1.11567 4.9615 1.22954C5.03759 1.34342 5.07821 1.47731 5.07821 1.61427C5.07821 1.79793 5.00525 1.97406 4.87538 2.10393C4.74552 2.23379 4.56938 2.30675 4.38572 2.30675ZM4.38572 1.38344C4.34007 1.38344 4.29544 1.39698 4.25748 1.42234C4.21952 1.44771 4.18994 1.48376 4.17246 1.52593C4.15499 1.56811 4.15042 1.61452 4.15933 1.6593C4.16824 1.70408 4.19022 1.74521 4.2225 1.77749C4.25478 1.80977 4.29591 1.83175 4.34069 1.84066C4.38547 1.84957 4.43188 1.845 4.47406 1.82753C4.51623 1.81005 4.55229 1.78047 4.57765 1.74251C4.60301 1.70455 4.61655 1.65992 4.61655 1.61427C4.61655 1.55305 4.59223 1.49434 4.54894 1.45105C4.50565 1.40776 4.44694 1.38344 4.38572 1.38344Z" fill="#D1252B"/>
</svg>
