<svg width="44" height="30" viewBox="0 0 44 30" fill="none" xmlns="http://www.w3.org/2000/svg">
<path d="M20.8434 18.1898C20.1256 18.1898 19.5383 17.6056 19.5383 16.8894C19.5383 16.2322 19.0101 15.7024 18.3529 15.7024C17.6973 15.7024 17.1675 16.2322 17.1675 16.8894C17.1675 18.4958 18.2131 19.8537 19.6564 20.3493V21.0204C19.6564 21.6745 20.1862 22.2089 20.8434 22.2089C21.4975 22.2089 22.0273 21.6745 22.0273 21.0204V20.3493C23.4706 19.8537 24.5161 18.4958 24.5161 16.8894C24.5161 14.8603 22.8678 13.212 20.8434 13.212C20.1256 13.212 19.5383 12.6278 19.5383 11.9116C19.5383 11.1922 20.1256 10.6081 20.8434 10.6081C21.5581 10.6081 22.1453 11.1922 22.1453 11.9116C22.1453 12.5656 22.6767 13.097 23.3323 13.097C23.9864 13.097 24.5161 12.5656 24.5161 11.9116C24.5161 10.302 23.4706 8.94727 22.0273 8.4501V7.77584C22.0273 7.12177 21.4975 6.58886 20.8434 6.58886C20.1862 6.58886 19.6564 7.12177 19.6564 7.77584V8.4501C18.2131 8.94727 17.1675 10.302 17.1675 11.9116C17.1675 13.9375 18.8144 15.5843 20.8434 15.5843C21.5581 15.5843 22.1453 16.1685 22.1453 16.8894C22.1453 17.6056 21.5581 18.1898 20.8434 18.1898ZM10.4963 25.0645H8.37249C6.74275 25.0288 5.42527 23.6958 5.42527 22.0567V19.9997C7.98411 20.486 10.0069 22.5088 10.4963 25.0645ZM36.2584 19.9997V22.0567C36.2584 23.6958 34.9426 25.0288 33.3142 25.0645L31.1844 25.0629C31.6721 22.5072 33.6996 20.4829 36.2584 19.9997ZM31.1844 3.72401H33.2444C34.9035 3.72401 36.2539 5.07565 36.2569 6.73491L36.2554 8.78879C33.6981 8.30251 31.6721 6.27971 31.1844 3.72401ZM33.8085 1.35474H8.32124C7.66717 1.35474 7.13426 1.88607 7.13426 2.54015C7.13426 3.19266 7.66717 3.72401 8.32124 3.72401H28.7902C29.323 7.58785 32.3916 10.6563 36.2584 11.1829V17.6071C32.3883 18.1369 29.3184 21.2053 28.7902 25.0723H12.8889C12.3606 21.2053 9.2938 18.14 5.42527 17.6071V6.6246C5.42527 5.96898 4.89395 5.43921 4.23833 5.43921C3.58271 5.43921 3.05136 5.96898 3.05136 6.6246V18.9324C3.05136 18.9526 3.0498 18.9696 3.0498 18.993V22.6144C3.0498 25.2743 5.21089 27.4369 7.87224 27.4369H8.37249C8.39426 27.4369 8.41756 27.4431 8.4393 27.4431H33.2444C33.2662 27.4431 33.2909 27.4369 33.3142 27.4369H33.8085C36.4695 27.4369 38.6307 25.2743 38.6307 22.6144V6.17406C38.6307 3.51894 36.4695 1.35474 33.8085 1.35474Z" fill="black"/>
<path d="M0.59668 0.596558L43.0369 28.2572" stroke="black" stroke-width="1.19075"/>
</svg>
