<svg width="31" height="31" viewBox="0 0 31 31" fill="none" xmlns="http://www.w3.org/2000/svg">
<path d="M9.64666 15.5941C10.8718 18.1241 12.9176 20.1647 15.4507 21.3833C15.6376 21.4718 15.8443 21.5101 16.0504 21.4944C16.2566 21.4788 16.4551 21.4097 16.6264 21.294L20.347 18.8087C20.5114 18.6972 20.7013 18.6292 20.8991 18.6109C21.0969 18.5927 21.296 18.6249 21.478 18.7045L28.4429 21.6958C28.6809 21.7949 28.8798 21.9695 29.0089 22.1927C29.138 22.4159 29.1901 22.6753 29.1573 22.9311C28.9365 24.654 28.0955 26.2375 26.7916 27.3853C25.4878 28.533 23.8104 29.1663 22.0733 29.1667C16.7054 29.1667 11.5573 27.0343 7.7616 23.2386C3.9659 19.4429 1.8335 14.2948 1.8335 8.92691C1.83389 7.18984 2.4672 5.51244 3.61494 4.20857C4.76266 2.9047 6.34616 2.06371 8.06913 1.84296C8.32486 1.81011 8.58433 1.86223 8.80753 1.99131C9.03073 2.12039 9.2053 2.31926 9.30436 2.5573L12.2957 9.53707C12.3735 9.71617 12.406 9.91164 12.3905 10.1063C12.3749 10.3009 12.3117 10.4888 12.2064 10.6532L9.72106 14.4333C9.61043 14.6043 9.5455 14.8008 9.53246 15.004C9.51943 15.2072 9.55876 15.4104 9.64666 15.5941Z" stroke="#28A745" stroke-width="2.38115" stroke-linecap="round" stroke-linejoin="round"/>
</svg>
