<svg width="35" height="33" viewBox="0 0 35 33" fill="none" xmlns="http://www.w3.org/2000/svg">
<g clip-path="url(#clip0_2225_1385)">
<path d="M21.7676 1.42385L2.41093 12.8558C1.07941 13.6422 0.637493 15.3591 1.42388 16.6906L9.28743 30.0052C10.0738 31.3367 11.7907 31.7786 13.1222 30.9922L32.4789 19.5603C33.8104 18.7739 34.2523 17.057 33.4659 15.7255L25.6024 2.41089C24.816 1.07937 23.0991 0.63746 21.7676 1.42385Z" fill="#E10714"/>
<path d="M8.85021 29.2034C13.006 29.1666 16.3437 25.6111 16.3052 21.262C16.2667 16.913 12.8665 13.4172 8.71074 13.454C4.55496 13.4908 1.21726 17.0462 1.25577 21.3953C1.29429 25.7444 4.69444 29.2402 8.85021 29.2034Z" fill="#E10714"/>
<path d="M26.2677 18.9592C30.4235 18.9224 33.7612 15.367 33.7227 11.0179C33.6841 6.66883 30.284 3.17305 26.1282 3.20985C21.9724 3.24665 18.6347 6.80211 18.6733 11.1512C18.7118 15.5003 22.1119 18.996 26.2677 18.9592Z" fill="#E10714"/>
<path d="M13.8249 15.5749C15.3713 15.5749 16.6249 14.3213 16.6249 12.7749C16.6249 11.2285 15.3713 9.97485 13.8249 9.97485C12.2785 9.97485 11.0249 11.2285 11.0249 12.7749C11.0249 14.3213 12.2785 15.5749 13.8249 15.5749Z" fill="white" stroke="white" stroke-width="0.35"/>
<path d="M22.5749 21.8749C24.1213 21.8749 25.3749 20.6213 25.3749 19.0749C25.3749 17.5285 24.1213 16.2749 22.5749 16.2749C21.0285 16.2749 19.7749 17.5285 19.7749 19.0749C19.7749 20.6213 21.0285 21.8749 22.5749 21.8749Z" fill="white" stroke="white" stroke-width="0.35"/>
<path d="M21.35 10.4999L15.05 21.6999" stroke="white" stroke-width="1.925" stroke-linecap="round"/>
<path d="M22.5749 20.1249C23.1548 20.1249 23.6249 19.6548 23.6249 19.0749C23.6249 18.495 23.1548 18.0249 22.5749 18.0249C21.995 18.0249 21.5249 18.495 21.5249 19.0749C21.5249 19.6548 21.995 20.1249 22.5749 20.1249Z" fill="#E10714"/>
<path d="M13.8249 13.8249C14.4048 13.8249 14.8749 13.3548 14.8749 12.7749C14.8749 12.195 14.4048 11.7249 13.8249 11.7249C13.245 11.7249 12.7749 12.195 12.7749 12.7749C12.7749 13.3548 13.245 13.8249 13.8249 13.8249Z" fill="#E10714"/>
</g>
<defs>
<clipPath id="clip0_2225_1385">
<rect width="35" height="32.55" fill="white"/>
</clipPath>
</defs>
</svg>
