<svg width="35" height="27" viewBox="0 0 35 27" fill="none" xmlns="http://www.w3.org/2000/svg">
<g clip-path="url(#clip0_2223_1306)">
<path d="M28.1465 7.25012C27.9328 10.2156 25.7329 12.5001 23.334 12.5001C20.935 12.5001 18.7315 10.2164 18.5215 7.25012C18.3027 4.16502 20.4443 2.00012 23.334 2.00012C26.2237 2.00012 28.3652 4.22116 28.1465 7.25012Z" stroke="black" stroke-width="2.33333" stroke-linecap="round" stroke-linejoin="round"/>
<path d="M23.3339 17.1667C18.582 17.1667 14.0123 19.5271 12.8675 24.1237C12.7158 24.7319 13.0972 25.3334 13.7221 25.3334H32.9465C33.5714 25.3334 33.9506 24.7319 33.8011 24.1237C32.6563 19.4534 28.0866 17.1667 23.3339 17.1667Z" stroke="black" stroke-width="2.33333" stroke-miterlimit="10"/>
<path d="M13.4175 8.55817C13.2469 10.9265 11.4692 12.7917 9.55296 12.7917C7.63671 12.7917 5.85607 10.9272 5.68836 8.55817C5.51409 6.09431 7.2444 4.33337 9.55296 4.33337C11.8615 4.33337 13.5918 6.13952 13.4175 8.55817Z" stroke="black" stroke-width="2.33333" stroke-linecap="round" stroke-linejoin="round"/>
<path d="M13.8547 17.3124C12.5386 16.7094 11.089 16.4775 9.55265 16.4775C5.76097 16.4775 2.10784 18.3624 1.19274 22.0338C1.07243 22.5194 1.37722 22.9999 1.87597 22.9999H10.0631" stroke="black" stroke-width="2.33333" stroke-miterlimit="10" stroke-linecap="round"/>
</g>
<defs>
<clipPath id="clip0_2223_1306">
<rect width="35" height="25.6667" fill="white" transform="translate(0 0.833252)"/>
</clipPath>
</defs>
</svg>
