<svg width="33" height="28" viewBox="0 0 33 28" fill="none" xmlns="http://www.w3.org/2000/svg">
<g clip-path="url(#clip0_2221_1202)">
<path d="M22.319 24.5863C22.287 22.9655 20.9788 21.658 19.3894 21.6566C19.0042 21.6554 18.6225 21.7304 18.2664 21.8772C17.9102 22.0239 17.5865 22.2396 17.314 22.5118C17.0414 22.7841 16.8254 23.1075 16.6781 23.4635C16.5309 23.8195 16.4555 24.201 16.4563 24.5863C16.4528 26.1875 17.7575 27.4964 19.3894 27.5173C20.9788 27.4964 22.287 26.1868 22.319 24.5863ZM17.7693 24.5863C17.7401 23.5566 18.4711 22.7295 19.3894 22.735C20.268 22.7295 20.9962 23.5566 21.006 24.5863C20.9962 25.595 20.268 26.4249 19.3894 26.4388C18.4711 26.4249 17.7401 25.595 17.7693 24.5863Z" fill="#CB0D15"/>
<path d="M25.6327 22.8895H27.3293V21.8898H22.6265V22.8895H24.4011V27.3619H25.6327V22.8895Z" fill="#CB0D15"/>
<path d="M28.7943 26.127H31.0333L31.497 27.3621H32.959L30.7221 21.8934H29.1828L26.8679 27.3656H28.3355L28.7943 26.127ZM29.9542 23.1981L30.72 25.2032H29.1821L29.9542 23.1981Z" fill="#CB0D15"/>
<path d="M1.7266 27.3619H2.96027V22.8895H4.65831V21.8898H0.0285645V22.8895H1.7266V27.3619Z" fill="#CB0D15"/>
<path d="M10.8269 24.5862C10.8046 22.9655 9.49503 21.658 7.89515 21.6566C7.11798 21.6566 6.37265 21.9654 5.82311 22.5149C5.27357 23.0645 4.96484 23.8098 4.96484 24.5869C4.96484 25.3641 5.27357 26.1095 5.82311 26.659C6.37265 27.2086 7.11798 27.5172 7.89515 27.5172C8.66836 27.5037 9.40605 27.1905 9.95292 26.6438C10.4998 26.0971 10.8131 25.3594 10.8269 24.5862ZM6.27858 24.5862C6.25769 23.5566 6.98591 22.7295 7.89585 22.735C8.78769 22.7295 9.51452 23.5566 9.51522 24.5862C9.51522 25.595 8.78769 26.4249 7.89585 26.4388C6.98591 26.4249 6.25769 25.595 6.27858 24.5862Z" fill="#CB0D15"/>
<path d="M13.6031 27.3619H14.22V25.2796L16.3796 21.8898H14.9913L13.6031 24.2011L12.2915 21.8898H10.8267L12.987 25.2796V27.3619H13.6031Z" fill="#CB0D15"/>
<path d="M30.5485 8.03891C30.2297 7.07672 29.6706 6.20855 28.9911 5.46292C28.2162 4.61147 27.2861 3.90761 26.2954 3.32697C25.158 2.66965 23.9477 2.14744 22.6891 1.77096C21.2917 1.34839 19.8551 1.06848 18.4012 0.935519C17.6585 0.865899 16.9139 0.831089 16.1671 0.831089C14.6456 0.828475 13.1274 0.975619 11.6348 1.27039C10.2748 1.53619 8.94723 1.94697 7.67478 2.49571C6.54381 2.97872 5.48114 3.60813 4.51402 4.36779C3.67858 5.03545 2.93017 5.82634 2.38017 6.74672C1.87176 7.57945 1.56958 8.52158 1.49877 9.49467C1.44487 10.4624 1.63295 11.4284 2.04599 12.3052C2.48112 13.2444 3.13485 14.0694 3.88814 14.7733C4.75631 15.585 5.76022 16.2443 6.81775 16.7818C8.02365 17.3864 9.29331 17.8546 10.603 18.1777C12.0488 18.5387 13.5269 18.7546 15.0155 18.8224C16.5585 18.8965 18.1049 18.819 19.6328 18.5912C21.0399 18.3875 22.422 18.0376 23.7564 17.5469C24.9496 17.1123 26.0845 16.5317 27.135 15.8183C28.0401 15.1917 28.8755 14.4468 29.5314 13.5605C30.1183 12.7682 30.5583 11.8611 30.7428 10.8892C30.921 9.93794 30.8541 8.95706 30.5485 8.03891ZM17.5991 2.08564C18.7182 2.14377 19.8297 2.30315 20.92 2.56185C21.7123 2.75748 22.5171 3.01647 23.2119 3.45438C23.725 3.77742 24.266 4.2752 24.2228 4.93868C24.1706 5.73514 23.354 6.24336 22.7107 6.55109C21.7952 6.98969 20.7933 7.21944 19.7991 7.39349L19.6272 7.42343C19.4691 6.45501 19.2512 5.49773 18.8711 4.58919C18.5488 3.81779 18.1102 3.04223 17.4516 2.50893C17.258 2.35229 17.0631 2.19704 16.8688 2.04109L17.5991 2.08564ZM16.5131 4.24805C16.9579 4.38729 17.2831 4.76811 17.5156 5.15311C17.9097 5.81172 18.115 6.58033 18.2494 7.32944C18.2633 7.41438 18.2779 7.49862 18.2926 7.58286C17.0974 7.67625 15.8973 7.69137 14.7002 7.62811C14.4816 7.61558 14.2643 7.59887 14.0464 7.58286C14.1529 6.97507 14.2803 6.37147 14.5101 5.7964C14.7043 5.30906 14.9724 4.8071 15.3936 4.47919C15.709 4.22995 16.1169 4.12273 16.5096 4.24526L16.5131 4.24805ZM8.18231 4.47988C8.29997 4.1471 8.55408 3.87836 8.82769 3.66393C9.20858 3.38034 9.6277 3.15204 10.0725 2.98583C11.3312 2.48457 12.7014 2.26178 14.0409 2.13925C14.515 2.09539 14.9912 2.06963 15.4667 2.04248L14.9097 2.48666C14.6413 2.70473 14.4034 2.95786 14.2024 3.23925C13.6315 4.02596 13.2743 4.96166 13.0244 5.89457C12.8893 6.39792 12.7974 6.90824 12.7076 7.42064C11.8722 7.27235 11.0402 7.10317 10.241 6.80729C9.6144 6.57545 8.95301 6.26982 8.50048 5.76298C8.17953 5.41488 8.00617 4.94007 8.17883 4.4771L8.18231 4.47988ZM14.6152 17.6764C13.7952 17.6161 12.9797 17.5042 12.1736 17.3416C11.4214 17.1897 10.68 16.9885 9.95415 16.7393C9.27646 16.5067 8.61681 16.2247 7.98041 15.8956C7.39727 15.5951 6.84063 15.2457 6.31649 14.8512C5.83493 14.4889 5.39169 14.0784 4.99371 13.6259C4.6274 13.2099 4.31468 12.7496 4.06289 12.2558C3.82833 11.7908 3.6641 11.2937 3.57555 10.7806C3.47449 10.1751 3.48794 9.55621 3.61523 8.9558C3.77517 8.23468 4.07613 7.55228 4.5008 6.94792C4.93532 6.33473 5.45237 5.78441 6.03732 5.31254L6.23852 5.14615C6.27194 5.30279 6.30118 5.46153 6.34226 5.61609C6.39748 5.81624 6.47994 6.00787 6.58731 6.18558C6.83934 6.60887 7.20275 6.95906 7.59332 7.25495C8.67383 8.07302 10.0071 8.54783 11.311 8.86808C11.6738 8.9572 12.04 9.02334 12.4048 9.09922C12.4375 9.10618 12.5176 9.10688 12.544 9.12846C12.5579 9.1396 12.5496 9.13194 12.5538 9.15492C12.5595 9.23909 12.5578 9.32368 12.5489 9.40764C12.5385 9.98061 12.5412 10.5522 12.5781 11.1245C12.67 12.5538 12.9179 14.0081 13.4797 15.333C13.6916 15.8537 13.9751 16.3423 14.3221 16.7846C14.5797 17.1035 14.8937 17.3583 15.2035 17.6235L15.3281 17.73L14.6152 17.6764ZM15.647 15.0114C15.3718 14.8606 15.137 14.6457 14.9626 14.3848C14.7302 14.0473 14.5448 13.6798 14.4112 13.2924C14.0388 12.2676 13.8953 11.1593 13.8612 10.0739C13.8557 9.91796 13.8536 9.76131 13.8536 9.60536C13.8536 9.60536 13.8466 9.36726 13.8473 9.30391C15.134 9.41718 16.4273 9.43632 17.7168 9.36099C17.9612 9.34498 18.2041 9.3241 18.4485 9.30391C18.4583 10.3176 18.3956 11.3326 18.17 12.324C18.0716 12.7885 17.9275 13.242 17.7398 13.6781C17.5936 14.0251 17.3932 14.3466 17.1459 14.6306C16.9572 14.8521 16.7088 15.0147 16.4302 15.0991C16.1657 15.1658 15.8859 15.1336 15.6435 15.0086L15.647 15.0114ZM28.8108 10.406C28.7627 10.9216 28.6359 11.4269 28.4348 11.9042C28.2217 12.4052 27.9433 12.876 27.6071 13.3043C27.2428 13.7684 26.8297 14.1921 26.3748 14.5679C25.8798 14.977 25.3498 15.3418 24.7909 15.6581C24.1796 16.0048 23.5428 16.3045 22.8861 16.5549C22.1813 16.8242 21.4591 17.0457 20.7244 17.2176C19.9354 17.4028 19.1355 17.5378 18.3295 17.6221C18.1269 17.643 17.9229 17.6618 17.7196 17.6764L17.0129 17.7293C17.2747 17.5059 17.5518 17.2907 17.7913 17.0422C18.1566 16.649 18.4585 16.2013 18.6859 15.7152C19.2979 14.4621 19.5833 13.0592 19.7163 11.6814C19.781 11.0298 19.8076 10.3749 19.7957 9.72023L19.7894 9.39929C19.7799 9.31651 19.7781 9.2331 19.7838 9.15004C19.788 9.12777 19.7797 9.13542 19.7936 9.12428C19.8214 9.10201 19.9091 9.1027 19.9447 9.09574C20.1138 9.06441 20.2837 9.03308 20.4522 8.99758C21.8272 8.71144 23.2231 8.26865 24.4059 7.49235C24.8488 7.21466 25.2415 6.86391 25.5672 6.45501C25.6998 6.28372 25.8106 6.09663 25.8972 5.89805C25.9647 5.72873 26.0162 5.55345 26.051 5.3745C26.0678 5.29862 26.0845 5.22273 26.1019 5.14685C26.5955 5.56457 27.0766 5.98229 27.4873 6.48634C27.974 7.06653 28.3474 7.73298 28.588 8.45106C28.7922 9.08126 28.8679 9.74599 28.8108 10.406Z" fill="url(#paint0_linear_2221_1202)"/>
<path d="M16.1719 18.8635C15.7867 18.8635 15.401 18.8541 15.0148 18.8356C13.5248 18.7679 12.0452 18.5517 10.5981 18.1903C9.28743 17.8667 8.01693 17.398 6.81007 16.793C5.74269 16.2632 4.7549 15.5865 3.87557 14.7823C3.05754 14.0165 2.43652 13.1852 2.02994 12.3087C1.61626 11.4288 1.42774 10.4599 1.48133 9.48911C1.55379 8.51331 1.85734 7.5688 2.3669 6.73351C2.87861 5.87857 3.59779 5.07654 4.50564 4.34971C5.47391 3.58933 6.53773 2.95923 7.66988 2.47553C8.94351 1.92653 10.2722 1.51552 11.6334 1.24952C13.1272 0.954685 14.6465 0.807541 16.1691 0.810216C16.9175 0.810216 17.6701 0.845027 18.4046 0.913951C19.8599 1.04675 21.2979 1.32667 22.6967 1.74939C23.9553 2.1262 25.1658 2.64815 26.3037 3.30471C27.3752 3.93129 28.2837 4.65256 29.0036 5.44414C29.7395 6.25313 30.2644 7.12268 30.5652 8.02778C30.8723 8.94851 30.9399 9.93224 30.7615 10.8864C30.5861 11.8144 30.1774 12.716 29.5473 13.5654C28.9368 14.3876 28.1292 15.1485 27.1468 15.8273C26.095 16.5412 24.959 17.1226 23.7647 17.5581C22.429 18.0493 21.0459 18.4004 19.6376 18.6059C18.4903 18.777 17.3319 18.8631 16.1719 18.8635ZM16.167 0.845027C14.6465 0.842466 13.1294 0.989375 11.6375 1.28363C10.279 1.54925 8.95284 1.95956 7.68171 2.50756C6.55236 2.99005 5.49113 3.61851 4.52513 4.37686C3.62007 5.10091 2.90367 5.90015 2.39475 6.75161C1.8889 7.58225 1.58775 8.52125 1.51614 9.4912C1.46288 10.4562 1.6502 11.4193 2.06127 12.2941C2.46576 13.1665 3.08469 13.9949 3.89994 14.7566C4.71519 15.5182 5.69127 16.1845 6.8226 16.7623C8.02773 17.3651 9.29607 17.8321 10.6044 18.1547C12.0491 18.515 13.526 18.7308 15.0134 18.7987C16.5568 18.8749 18.1039 18.7998 19.6327 18.5746C21.0385 18.3699 22.4193 18.0199 23.7529 17.5303C24.9444 17.0957 26.0778 16.5157 27.1273 15.8037C28.1062 15.127 28.911 14.3688 29.5188 13.5494C30.1454 12.7042 30.5527 11.8089 30.7274 10.885C30.9049 9.9367 30.8378 8.95888 30.5325 8.04379C30.2331 7.14287 29.7103 6.27819 28.9779 5.47268C28.2601 4.68389 27.355 3.9661 26.2863 3.33952C25.15 2.68354 23.9411 2.16205 22.6842 1.7856C21.2877 1.36319 19.852 1.08328 18.3991 0.950154C17.6653 0.879837 16.9175 0.845027 16.167 0.845027ZM16.9607 17.7482L17.0011 17.7134C17.0707 17.657 17.1347 17.6006 17.2023 17.5449C17.4036 17.3829 17.596 17.2101 17.7787 17.0276C18.1437 16.6363 18.4447 16.1899 18.6706 15.7048C19.2066 14.6097 19.5429 13.2925 19.6989 11.6773C19.7633 11.026 19.7898 10.3717 19.7782 9.71747L19.772 9.39652C19.772 9.37145 19.772 9.345 19.7671 9.31784C19.7598 9.26027 19.7598 9.202 19.7671 9.14449C19.7673 9.14073 19.7673 9.13704 19.7671 9.13335C19.7667 9.12841 19.7678 9.12354 19.7702 9.11922C19.7725 9.1149 19.776 9.11135 19.7803 9.10898C19.8173 9.0897 19.8584 9.07988 19.9001 9.08044L19.9404 9.07626L20.0017 9.06443C20.1479 9.03728 20.2997 9.00873 20.448 8.9781C22.0813 8.63835 23.372 8.14265 24.3954 7.47496C24.8932 7.14844 25.272 6.81079 25.5525 6.4418C25.6843 6.27034 25.7945 6.08327 25.8804 5.88484C25.9478 5.71678 25.9989 5.54262 26.0329 5.36477L26.09 5.10927L26.1123 5.12737C26.5592 5.50332 27.0716 5.94819 27.4998 6.46895C27.9887 7.05056 28.3633 7.71926 28.604 8.43993C28.8089 9.07383 28.885 9.74225 28.8282 10.406C28.7802 10.9234 28.6529 11.4303 28.4508 11.9091C28.2369 12.4115 27.9578 12.8836 27.621 13.3134C27.2556 13.7779 26.8416 14.2019 26.3859 14.5784C25.8901 14.9883 25.3592 15.3539 24.7992 15.6707C24.1872 16.0175 23.5498 16.3176 22.8923 16.5681C22.1869 16.8379 21.4639 17.0598 20.7285 17.2323C19.9388 17.4171 19.1382 17.552 18.3315 17.6361C18.1275 17.6577 17.9222 17.6765 17.7203 17.6911L16.9607 17.7482ZM19.8026 9.13614C19.8028 9.14073 19.8028 9.1454 19.8026 9.15006C19.796 9.20485 19.796 9.2602 19.8026 9.31506C19.8026 9.34291 19.8068 9.37006 19.8075 9.39582L19.8137 9.71677C19.8253 10.3724 19.7988 11.0281 19.7344 11.6808C19.5777 13.2994 19.2401 14.6208 18.7026 15.7187C18.4746 16.2068 18.1715 16.6562 17.8045 17.0506C17.6208 17.2339 17.4274 17.4072 17.2253 17.5699C17.1716 17.6145 17.118 17.659 17.0651 17.7043L17.7189 17.6556C17.9201 17.6402 18.1247 17.6215 18.3287 17.6006C19.1338 17.5162 19.9328 17.3813 20.7209 17.1968C21.4542 17.0243 22.1753 16.8031 22.8791 16.5347C23.5358 16.285 24.1729 15.9862 24.7846 15.6408C25.3429 15.3248 25.8722 14.9602 26.3664 14.5512C26.8205 14.1764 27.2327 13.7537 27.5959 13.2904C27.9314 12.8634 28.209 12.3941 28.4216 11.8945C28.622 11.419 28.7482 10.9156 28.7961 10.4018C28.8526 9.74371 28.7771 9.081 28.5741 8.45247C28.335 7.73575 27.9625 7.07077 27.4761 6.49262C27.0584 5.983 26.5558 5.54578 26.1151 5.17471L26.0705 5.37452C26.036 5.55452 25.9843 5.73079 25.916 5.90085C25.8289 6.10112 25.7173 6.28983 25.5839 6.46268C25.3005 6.83446 24.9197 7.17559 24.4184 7.50699C23.3922 8.17816 22.0931 8.67107 20.4556 9.0136C20.3067 9.04424 20.1556 9.07278 20.0087 9.09993L19.9481 9.11177C19.937 9.11177 19.921 9.11525 19.9035 9.11664C19.8696 9.11657 19.836 9.12319 19.8047 9.13614H19.8026ZM15.3713 17.7482L14.6103 17.6911C13.7895 17.6306 12.9733 17.5186 12.1666 17.3555C11.4136 17.2037 10.6715 17.0023 9.94507 16.7526C9.26648 16.5195 8.60606 16.2366 7.96924 15.906C7.38527 15.6053 6.82776 15.256 6.30254 14.8617C5.81946 14.4986 5.37482 14.0872 4.97557 13.6336C4.60824 13.2166 4.29481 12.7551 4.04266 12.26C3.80747 11.7936 3.64322 11.2947 3.55532 10.7799C3.45294 10.1724 3.4664 9.55121 3.595 8.94886C3.75427 8.22516 4.05602 7.54051 4.48266 6.93471C4.91792 6.31998 5.43617 5.76847 6.02266 5.29585L6.24545 5.11135L6.25171 5.1392L6.28095 5.27844C6.30323 5.38775 6.3269 5.50053 6.35614 5.60914C6.41044 5.80763 6.49197 5.99765 6.59842 6.17376C6.8226 6.54971 7.14981 6.89781 7.60026 7.23825C8.51924 7.93449 9.73272 8.46012 11.3117 8.8486C11.5672 8.91126 11.8297 8.96348 12.0838 9.0143L12.4047 9.07974C12.4172 9.08197 12.4297 9.08364 12.4423 9.08462C12.48 9.08462 12.517 9.09395 12.5503 9.11177C12.56 9.11943 12.5656 9.1243 12.5649 9.13753C12.5645 9.14143 12.5645 9.1454 12.5649 9.14936C12.5715 9.20736 12.5715 9.26605 12.5649 9.32411C12.5649 9.35196 12.5607 9.37911 12.56 9.40487C12.5475 10.0774 12.56 10.6225 12.5892 11.121C12.6958 12.771 12.9903 14.1453 13.4894 15.3233C13.7 15.8427 13.9827 16.33 14.3291 16.7707C14.5651 17.0441 14.8256 17.2953 15.1074 17.5212L15.3713 17.7482ZM14.6124 17.657L15.2675 17.7057L15.083 17.5477C14.7992 17.3206 14.537 17.0676 14.2998 16.7923C13.9516 16.3489 13.6672 15.8589 13.4553 15.3365C12.9548 14.153 12.6589 12.7766 12.5503 11.1224C12.5175 10.6232 12.5085 10.0781 12.521 9.40348C12.521 9.37702 12.521 9.34917 12.5259 9.32063C12.5326 9.26535 12.5326 9.20945 12.5259 9.15424C12.5259 9.14797 12.5259 9.1431 12.5259 9.13962C12.4973 9.12611 12.4662 9.11894 12.4347 9.11873L12.3936 9.11316L12.0727 9.04772C11.8185 8.9969 11.5561 8.94468 11.2992 8.88133C9.71602 8.49215 8.49766 7.96373 7.57519 7.26541C7.12127 6.92218 6.79057 6.5692 6.56431 6.19116C6.45633 6.0121 6.3734 5.81909 6.31785 5.61749C6.28861 5.50749 6.26494 5.39471 6.24266 5.28471L6.21969 5.17471L6.04146 5.3237C5.45817 5.79425 4.94275 6.34318 4.50981 6.9549C4.08613 7.55709 3.7863 8.23748 3.62773 8.95652C3.49983 9.55448 3.48637 10.1713 3.58804 10.7743C3.67654 11.2861 3.84078 11.7819 4.07538 12.2454C4.32609 12.7367 4.6374 13.1946 5.00203 13.6085C5.40002 14.0604 5.84326 14.4702 6.32481 14.8318C6.8483 15.2261 7.40421 15.5755 7.98665 15.8761C8.62145 16.205 9.2795 16.487 9.95551 16.7199C10.6806 16.9688 11.4214 17.1698 12.1729 17.3214C12.9784 17.4838 13.793 17.5958 14.6124 17.657ZM16.1587 15.1506C15.977 15.15 15.7979 15.1068 15.6358 15.0246C15.3859 14.8986 15.1603 14.6911 14.9452 14.3897C14.7133 14.0526 14.5282 13.6856 14.3952 13.2987C14.0645 12.3881 13.8842 11.3334 13.8445 10.0746C13.8396 9.91936 13.8368 9.76202 13.8368 9.60538C13.8368 9.59633 13.8299 9.36728 13.8306 9.30322V9.28443H13.8494C15.1353 9.3984 16.428 9.41754 17.7168 9.34152C17.9256 9.32829 18.1415 9.31019 18.3482 9.29278L18.4666 9.28234V9.30114C18.4777 10.4777 18.39 11.4392 18.1881 12.3261C18.0882 12.7923 17.9425 13.2476 17.753 13.6851C17.6066 14.0341 17.4049 14.357 17.1556 14.6417C16.9653 14.8671 16.7131 15.0319 16.4302 15.1158C16.3416 15.1391 16.2503 15.1508 16.1587 15.1506ZM15.6511 14.9933C15.8887 15.1156 16.1626 15.1472 16.4218 15.0824C16.699 15.0002 16.9462 14.839 17.1334 14.6187C17.3795 14.3365 17.5789 14.0166 17.7237 13.6712C17.9124 13.2364 18.0574 12.784 18.1568 12.3206C18.3545 11.4406 18.4415 10.4875 18.4318 9.32272L18.3517 9.32968C18.1429 9.34709 17.9298 9.36449 17.7189 9.37841C16.4347 9.45423 15.1468 9.43557 13.8654 9.32272C13.8654 9.40348 13.8716 9.6012 13.8716 9.60468C13.8716 9.76133 13.8716 9.91867 13.8793 10.0739C13.919 11.3271 14.0986 12.3797 14.4279 13.2869C14.56 13.6708 14.7436 14.035 14.9737 14.3695C15.1826 14.6661 15.4068 14.8701 15.6511 14.9961V14.9933ZM16.064 7.68313C15.5892 7.68313 15.1346 7.6706 14.6953 7.64414C14.5275 7.63439 14.3576 7.62186 14.1933 7.61003L14.022 7.59749L14.0255 7.5787C14.1279 6.99806 14.2546 6.37914 14.4906 5.78806C14.7405 5.16148 15.0232 4.74376 15.3796 4.46528C15.7235 4.19724 16.1371 4.11161 16.5144 4.22927C16.8918 4.34692 17.2336 4.65534 17.5267 5.14408C17.8623 5.70452 18.0962 6.39724 18.2626 7.32667L18.3092 7.59889H18.2897C17.4954 7.65597 16.7581 7.68382 16.064 7.68382V7.68313ZM14.0631 7.56616L14.1954 7.57591C14.3597 7.58775 14.5303 7.60028 14.6973 7.61003C15.8873 7.6731 17.0801 7.65845 18.2682 7.56616L18.2285 7.33224C18.0628 6.40768 17.8303 5.71775 17.4968 5.16148C17.2085 4.67971 16.8744 4.37756 16.504 4.26199C16.1336 4.14642 15.7382 4.23135 15.4012 4.49173C15.0496 4.76604 14.7704 5.18237 14.5226 5.80199C14.2908 6.38332 14.1641 6.99458 14.0631 7.56616ZM19.6091 7.44154V7.42414C19.4218 6.2761 19.1823 5.37661 18.8544 4.59268C18.4603 3.64933 17.9973 2.97123 17.4404 2.51939C17.3102 2.41427 17.18 2.31053 17.0491 2.2061L16.8138 2.01813L17.5991 2.06616C18.7183 2.12273 19.8301 2.28096 20.9207 2.53889C21.5918 2.70458 22.4593 2.95661 23.2182 3.4342C23.9192 3.87629 24.2715 4.39496 24.2367 4.93452C24.1956 5.5611 23.6979 6.09022 22.7148 6.56154C21.7499 7.02382 20.6993 7.2473 19.7991 7.40534L19.6091 7.44154ZM16.9175 2.0592L17.0672 2.17895C17.1974 2.28338 17.3283 2.38781 17.4578 2.49224C18.0196 2.94756 18.4861 3.63053 18.8822 4.58085C19.2094 5.36268 19.4489 6.26009 19.6362 7.40186L19.7915 7.37471C20.6896 7.21737 21.7373 6.99458 22.6981 6.53439C23.6589 6.0742 24.1601 5.54648 24.2005 4.93313C24.2353 4.39914 23.8977 3.90553 23.198 3.46414C22.4433 2.98863 21.5793 2.7387 20.911 2.5737C19.8217 2.31489 18.711 2.15596 17.5929 2.09889L16.9175 2.0592ZM12.7187 7.44154H12.7013C11.7656 7.27306 10.9894 7.10319 10.234 6.82332C9.67007 6.61446 8.96203 6.30673 8.48304 5.77901C8.12589 5.38427 8.00614 4.89623 8.16209 4.47363C8.26583 4.18053 8.47886 3.9111 8.81374 3.65003C9.19512 3.36398 9.61576 3.13442 10.0627 2.96844C11.1404 2.53958 12.4034 2.27224 14.0387 2.12116C14.4397 2.08427 14.8491 2.0606 15.2446 2.03762L15.5196 2.02161L14.9215 2.4992C14.6536 2.71738 14.4161 2.9705 14.2156 3.2518C13.7185 3.93616 13.3335 4.80224 13.0397 5.89737C12.9074 6.39167 12.8183 6.8804 12.7229 7.42275L12.7187 7.44154ZM15.411 2.0606L15.2453 2.07034C14.8498 2.09332 14.4411 2.11699 14.0401 2.15319C12.4089 2.30287 11.1488 2.57091 10.0718 2.99908C9.62823 3.16391 9.21064 3.39157 8.83184 3.67509C8.50254 3.93199 8.29298 4.19654 8.19133 4.48338C8.03747 4.9011 8.15235 5.36268 8.50532 5.75395C8.97943 6.27819 9.6826 6.58313 10.2423 6.7906C10.9915 7.06908 11.7622 7.23547 12.6881 7.40047C12.7821 6.86509 12.8712 6.38053 13.0028 5.88971C13.298 4.78692 13.6844 3.91667 14.1863 3.22952C14.3889 2.94552 14.6284 2.68985 14.8985 2.46927L15.411 2.0606Z" fill="url(#paint1_radial_2221_1202)"/>
</g>
<defs>
<linearGradient id="paint0_linear_2221_1202" x1="11.8694" y1="-0.0175851" x2="20.6235" y2="20.0637" gradientUnits="userSpaceOnUse">
<stop stop-color="white"/>
<stop offset="0.13" stop-color="#DDDDDD"/>
<stop offset="0.33" stop-color="#B3B3B3"/>
<stop offset="0.51" stop-color="#939393"/>
<stop offset="0.69" stop-color="#7B7B7B"/>
<stop offset="0.86" stop-color="#6D6D6D"/>
<stop offset="1" stop-color="#686868"/>
</linearGradient>
<radialGradient id="paint1_radial_2221_1202" cx="0" cy="0" r="1" gradientUnits="userSpaceOnUse" gradientTransform="translate(16.1649 9.83652) scale(12.194)">
<stop stop-color="white"/>
<stop offset="0.13" stop-color="#F9F9F9"/>
<stop offset="0.3" stop-color="#E9E9E9"/>
<stop offset="0.5" stop-color="#CECECE"/>
<stop offset="0.71" stop-color="#A8A8A8"/>
<stop offset="0.93" stop-color="#787878"/>
<stop offset="0.98" stop-color="#6B6B6B"/>
</radialGradient>
<clipPath id="clip0_2221_1202">
<rect width="33" height="26.7342" fill="white" transform="translate(0 0.810059)"/>
</clipPath>
</defs>
</svg>
