<svg width="30" height="32" viewBox="0 0 30 32" fill="none" xmlns="http://www.w3.org/2000/svg">
<path fill-rule="evenodd" clip-rule="evenodd" d="M2.39684 23.76C0.881053 21.4169 0 18.6237 0 15.6268C0 7.34841 6.72158 0.626831 15 0.626831C23.2784 0.626831 30 7.34841 30 15.6268C30 23.9053 23.2784 30.6269 15 30.6269C12.1942 30.6269 9.56842 29.8548 7.32158 28.5127L0 30.9521L2.39684 23.76Z" fill="#F3F3F3"/>
<path fill-rule="evenodd" clip-rule="evenodd" d="M5.20254 22.5851C3.80359 20.6209 2.98096 18.2194 2.98096 15.6267C2.98096 8.99358 8.36675 3.60779 14.9999 3.60779C21.633 3.60779 27.0188 8.99358 27.0188 15.6267C27.0188 22.2599 21.633 27.6441 14.9999 27.6441C12.4894 27.6441 10.1589 26.8736 8.22938 25.5551L3.71043 27.0615L5.20254 22.5851Z" fill="#00A82D"/>
<path fill-rule="evenodd" clip-rule="evenodd" d="M11.3905 18.7469C9.61575 16.5774 8.43154 13.9216 8.06048 11.0416C7.96101 10.2395 8.22785 9.43422 8.78838 8.85159C9.3489 8.26896 10.1431 7.97054 10.9484 8.03844L11.0257 8.04633C11.0257 8.04633 11.9115 8.28317 12.3963 8.41422C12.5889 8.46633 12.7421 8.61001 12.8068 8.79791C13.0247 9.44528 13.5394 10.9658 13.7826 11.6811C13.8615 11.9132 13.7889 12.1705 13.6026 12.3284C13.2347 12.6379 12.6268 13.1495 12.2479 13.47C12.0442 13.6421 11.9794 13.9279 12.09 14.1695C12.5305 15.1295 13.0926 16.0264 13.7589 16.8379C14.4442 17.6306 15.2321 18.3364 16.1037 18.9332C16.3247 19.0832 16.6168 19.0674 16.8205 18.8953C17.201 18.5764 17.8089 18.0648 18.1752 17.7553C18.3631 17.5974 18.6284 17.5706 18.8447 17.6874C19.5079 18.0474 20.9194 18.8116 21.5194 19.1369C21.6947 19.2316 21.8116 19.4085 21.8289 19.6058C21.8747 20.1064 21.96 21.019 21.96 21.019L21.9537 21.0964C21.8842 21.9016 21.4563 22.6343 20.7868 23.0874C20.1173 23.5421 19.2789 23.6685 18.5052 23.4348C15.7073 22.5743 13.2742 20.9385 11.4331 18.7974L11.3905 18.7469Z" fill="#F3F3F3"/>
</svg>
