<svg width="31" height="29" viewBox="0 0 31 29" fill="none" xmlns="http://www.w3.org/2000/svg">
<path d="M19.8908 11.6065C18.5612 11.9236 15.4345 11.8877 13.7077 11.1793C13.6448 11.1523 13.5818 11.1253 13.5237 11.0983C13.342 11.0128 13.2185 10.8509 13.1822 10.6665C13.1749 10.6305 13.1676 10.5968 13.1628 10.5608C12.7438 8.29619 13.824 6.2632 13.824 6.2632L12.0027 6.28793C11.7533 6.27219 11.6564 5.97759 11.8526 5.83591L17.0426 2.04204C17.343 1.82165 17.7692 1.8239 18.0671 2.04879L22.751 5.56379C22.9472 5.70997 22.843 6.00233 22.5936 6.01582L20.1693 6.13051C20.1693 6.13051 19.2514 8.73472 19.5953 10.9364C19.6292 11.168 19.7576 11.5548 19.8908 11.6065Z" fill="#F2948B"/>
<path opacity="0.25" d="M16.97 2.47608L11.8525 5.83591L17.0426 2.04204C17.3429 1.82165 17.7692 1.8239 18.0671 2.04879L22.751 5.56379L17.992 2.48057C17.6941 2.25793 17.2703 2.25569 16.97 2.47608Z" fill="white"/>
<path d="M25.6909 9.41846C25.6909 9.41846 27.1682 10.0009 27.6429 10.381C28.7158 11.2423 28.8708 21.1441 25.9549 25.3068C25.3203 26.2109 24.8432 26.4538 22.1501 26.429C14.7634 26.3593 3.89643 23.5167 2.84291 21.0722C1.7894 18.6276 25.6909 9.41846 25.6909 9.41846Z" fill="#969696"/>
<path d="M25.7445 9.05371C25.7445 9.05371 27.2824 9.90604 27.6432 10.3828C28.331 11.2891 28.5514 20.8356 25.6379 24.9983C25.0034 25.9024 24.5263 26.1452 21.8331 26.1205C14.4464 26.0508 3.52618 23.4196 2.51626 20.9436C1.51118 18.4788 25.7445 9.05371 25.7445 9.05371Z" fill="#D3D3D3"/>
<path d="M23.2622 23.998C23.4003 23.9373 23.5068 23.8316 23.5698 23.7011C25.9868 18.7536 25.9481 12.3285 25.919 10.0234C25.965 11.9192 26.539 18.7941 23.9791 24.034C23.9161 24.1622 23.8071 24.2701 23.6715 24.3308C19.6609 26.1075 10.62 24.8796 5.70361 22.6172C10.8186 24.6389 19.3242 25.7431 23.2622 23.998Z" fill="#BABABA"/>
<path d="M26.1032 9.58039C26.1492 11.474 26.1322 18.4612 23.5723 23.6989C23.5093 23.8271 23.4003 23.935 23.2647 23.9957C18.4089 26.1479 6.43027 24.1262 2.68605 21.1599C2.56012 21.0587 2.48504 20.9148 2.46808 20.7618C2.12418 17.8181 4.78097 11.0062 5.40582 9.45895C5.48574 9.2588 5.67222 9.11488 5.89746 9.07664C7.74777 8.7528 16.4205 7.41922 25.5728 8.99793C25.8731 9.04966 26.0959 9.29479 26.1032 9.58039Z" fill="#E2E2E2"/>
<path d="M25.8511 9.54189C25.7808 9.26303 25.5459 9.08986 25.2432 9.03589C23.5212 8.73904 21.8114 8.5209 20.1572 8.36572C21.9082 8.48042 23.7271 8.67832 25.5677 8.99541C25.8704 9.04713 26.0957 9.29226 26.1029 9.57787C26.1247 10.4437 26.0908 11.7548 26.0908 11.7548C26.0908 11.7548 26.0496 10.3447 25.8511 9.54189Z" fill="#F2F2F2"/>
<path opacity="0.05" d="M19.5931 10.9364C19.3799 9.57133 19.6512 8.05559 19.8885 7.09756C17.8396 7.08632 15.2603 7.3157 13.2768 7.79247C13.0903 8.55709 12.9717 9.5331 13.1606 10.5608C13.1678 10.5968 13.1751 10.6306 13.1799 10.6665C13.2163 10.8509 13.3398 11.0129 13.5214 11.0983C13.582 11.1253 13.6425 11.1523 13.7055 11.1793C15.4323 11.8877 18.5589 11.9237 19.8885 11.6066C19.7578 11.5549 19.6294 11.168 19.5931 10.9364Z" fill="black"/>
<path opacity="0.8" d="M22.9669 23.7616C23.1049 23.7008 23.2115 23.5951 23.2745 23.4647C24.8898 20.1566 25.6358 15.7938 26.0402 12.7915C25.8683 15.8163 25.2991 20.1566 23.5699 23.6986C23.507 23.8268 23.398 23.9347 23.2623 23.9954C20.1575 25.3718 14.1464 25.0389 9.23242 23.847C14.1028 24.7443 19.9831 25.0862 22.9669 23.7616Z" fill="white"/>
<path opacity="0.1" d="M16.0834 14.568C14.6061 15.4023 12.2545 16.1647 10.8037 14.5995C9.72602 13.4345 7.63836 10.909 6.26758 9.66541C6.30875 9.63618 6.63813 9.54622 6.68898 9.53723C8.05734 9.2876 14.9185 7.8888 24.5043 9.58895C22.1914 10.7426 17.2072 13.9338 16.0834 14.568Z" fill="black"/>
<path d="M15.9892 14.0014C14.5119 14.8358 12.2595 15.5352 10.8113 13.9677C9.73352 12.805 6.94109 10.4122 5.57031 9.17082C5.61148 9.14159 5.6575 9.1191 5.71078 9.1101C7.07914 8.86048 16.1587 7.35373 25.747 9.05388C23.4316 10.2053 17.113 13.3672 15.9892 14.0014Z" fill="#F2F2F2"/>
<path d="M5.69383 9.11443C7.09852 10.2973 9.99992 12.8341 10.7846 13.6819C12.2353 15.2471 14.4852 14.55 15.9626 13.7156C17.0863 13.0815 23.4292 10.2074 25.7421 9.05371C23.4292 10.2074 17.1105 13.3671 15.9892 14.0013C14.5119 14.8356 12.2595 15.535 10.8112 13.9675C9.73352 12.8048 6.94109 10.412 5.57031 9.17065C5.60422 9.14367 5.64781 9.12568 5.69383 9.11443Z" fill="white"/>
</svg>
