<svg width="25" height="25" viewBox="0 0 25 25" fill="none" xmlns="http://www.w3.org/2000/svg">
<g clip-path="url(#clip0_2240_2473)">
<mask id="mask0_2240_2473" style="mask-type:luminance" maskUnits="userSpaceOnUse" x="0" y="0" width="25" height="25">
<path d="M25 0H0V25H25V0Z" fill="white"/>
</mask>
<g mask="url(#mask0_2240_2473)">
<path d="M12.5 25C19.4035 25 25 19.4035 25 12.5C25 5.59645 19.4035 0 12.5 0C5.59645 0 0 5.59645 0 12.5C0 19.4035 5.59645 25 12.5 25Z" fill="#007BB5"/>
<path d="M8.59375 8.59375H5.46875V19.5312H8.59375V8.59375Z" fill="white"/>
<path d="M16.0149 8.59375C13.8344 8.59375 13.4594 9.38907 13.2812 10.1562V8.59375H10.1562V19.5312H13.2812V13.2812C13.2812 12.268 13.8305 11.7188 14.8438 11.7188C15.8328 11.7188 16.4062 12.2562 16.4062 13.2812V19.5312H19.5312V14.0625C19.5312 10.9375 19.1242 8.59375 16.0149 8.59375Z" fill="white"/>
<path d="M7.03125 7.8125C7.8942 7.8125 8.59375 7.11295 8.59375 6.25C8.59375 5.38705 7.8942 4.6875 7.03125 4.6875C6.1683 4.6875 5.46875 5.38705 5.46875 6.25C5.46875 7.11295 6.1683 7.8125 7.03125 7.8125Z" fill="white"/>
</g>
</g>
<defs>
<clipPath id="clip0_2240_2473">
<rect width="25" height="25" fill="white"/>
</clipPath>
</defs>
</svg>
