<svg width="30" height="30" viewBox="0 0 30 30" fill="none" xmlns="http://www.w3.org/2000/svg">
<g clip-path="url(#clip0_2240_2486)">
<path d="M19.5333 0C22.5333 0 24.0333 0 25.6667 0.5C27.4333 1.13333 28.8333 2.53333 29.4667 4.3C30 5.93333 30 7.46667 30 10.4667V19.5333C30 22.5333 30 24.0333 29.5 25.6667C28.8667 27.4333 27.4667 28.8333 25.7 29.4667C24.0667 30 22.5333 30 19.5333 30H10.4667C7.46667 30 5.96667 30 4.33333 29.5C2.56667 28.8333 1.16667 27.4667 0.533333 25.6667C-3.97364e-08 24.0667 0 22.5667 0 19.5333V10.4667C0 7.46667 0 5.96667 0.5 4.33333C1.16667 2.56667 2.56667 1.16667 4.33333 0.533333C5.93333 -3.97364e-08 7.46667 0 10.4667 0H19.5333Z" fill="url(#paint0_linear_2240_2486)"/>
<path d="M24.6333 21.5C24.6 21.5 24.5333 21.5334 24.5 21.5334H5.5C5.46667 21.5334 5.4 21.5334 5.36667 21.5L11.3 15.5667L12.5667 16.8667C13.9333 18.2667 16.1 18.2667 17.4667 16.8667L18.7333 15.5667L24.6333 21.5ZM25 20.8667V9.10004C25 9.03337 25 8.9667 24.9667 8.93337C24.9333 9.00004 19.0667 15.0667 19.0667 15.0667L25 21C25 20.9334 25 20.9 25 20.8667ZM5 20.9V9.1667C5 9.10004 5 9.03337 5.03333 9.00004C5.06667 9.0667 10.9333 15.1334 10.9333 15.1334L5.03333 21.0334C5 21 5 20.9334 5 20.9ZM24.6667 8.53337L17.1 16.2667C15.9333 17.4334 14.0667 17.4334 12.9333 16.2667L5.36667 8.53337C5.33333 8.50004 24.6667 8.53337 24.6667 8.53337Z" fill="white"/>
</g>
<defs>
<linearGradient id="paint0_linear_2240_2486" x1="14.9993" y1="0.00933333" x2="14.9993" y2="29.9993" gradientUnits="userSpaceOnUse">
<stop stop-color="#1E51EE"/>
<stop offset="1" stop-color="#19E6FF"/>
</linearGradient>
<clipPath id="clip0_2240_2486">
<rect width="30" height="30" fill="white"/>
</clipPath>
</defs>
</svg>
