<svg width="27" height="27" viewBox="0 0 27 27" fill="none" xmlns="http://www.w3.org/2000/svg">
<g clip-path="url(#clip0_2240_2490)">
<path d="M19.1953 0H7.80469C7.1893 0 6.59912 0.244461 6.16398 0.679604C5.72884 1.11475 5.48438 1.70493 5.48438 2.32031V24.6797C5.48438 25.2951 5.72884 25.8853 6.16398 26.3204C6.59912 26.7555 7.1893 27 7.80469 27H19.1953C19.8107 27 20.4009 26.7555 20.836 26.3204C21.2712 25.8853 21.5156 25.2951 21.5156 24.6797V2.32031C21.5156 1.70493 21.2712 1.11475 20.836 0.679604C20.4009 0.244461 19.8107 0 19.1953 0ZM6.75 4.78617H20.25V21.0052H6.75V4.78617ZM7.80469 1.26562H19.1953C19.3338 1.26562 19.471 1.29291 19.5989 1.34591C19.7269 1.39891 19.8432 1.4766 19.9411 1.57454C20.039 1.67247 20.1167 1.78874 20.1697 1.9167C20.2227 2.04466 20.25 2.18181 20.25 2.32031V3.52055H6.75V2.32031C6.75 2.04059 6.86112 1.77233 7.05891 1.57454C7.2567 1.37674 7.52497 1.26562 7.80469 1.26562ZM19.1953 25.7344H7.80469C7.52497 25.7344 7.2567 25.6233 7.05891 25.4255C6.86112 25.2277 6.75 24.9594 6.75 24.6797V22.2708H20.25V24.6797C20.25 24.8182 20.2227 24.9553 20.1697 25.0833C20.1167 25.2113 20.039 25.3275 19.9411 25.4255C19.8432 25.5234 19.7269 25.6011 19.5989 25.6541C19.471 25.7071 19.3338 25.7344 19.1953 25.7344Z" fill="black"/>
<path d="M13.5 25.2935C14.199 25.2935 14.7656 24.7268 14.7656 24.0278C14.7656 23.3288 14.199 22.7622 13.5 22.7622C12.801 22.7622 12.2344 23.3288 12.2344 24.0278C12.2344 24.7268 12.801 25.2935 13.5 25.2935Z" fill="black"/>
<path d="M11.8398 2.99951H15.1621C15.3299 2.99951 15.4909 2.93284 15.6096 2.81417C15.7283 2.69549 15.7949 2.53453 15.7949 2.3667C15.7949 2.19887 15.7283 2.03791 15.6096 1.91923C15.4909 1.80056 15.3299 1.73389 15.1621 1.73389H11.8398C11.672 1.73389 11.5111 1.80056 11.3924 1.91923C11.2737 2.03791 11.207 2.19887 11.207 2.3667C11.207 2.53453 11.2737 2.69549 11.3924 2.81417C11.5111 2.93284 11.672 2.99951 11.8398 2.99951Z" fill="black"/>
</g>
<defs>
<clipPath id="clip0_2240_2490">
<rect width="27" height="27" fill="white"/>
</clipPath>
</defs>
</svg>
