<svg width="50" height="49" viewBox="0 0 50 49" fill="none" xmlns="http://www.w3.org/2000/svg">
<path d="M41 13.0012V18.9112L28.8799 26.8212L24 30.0012L19.12 26.8212L5.99995 18.2612V3.00125C5.99436 2.73707 6.04227 2.47449 6.1408 2.22932C6.23933 1.98414 6.38645 1.76143 6.57329 1.57459C6.76013 1.38774 6.98284 1.24063 7.22802 1.1421C7.4732 1.04357 7.73577 0.995658 7.99995 1.00125H39C39.2641 0.995658 39.5267 1.04357 39.7719 1.1421C40.0171 1.24063 40.2398 1.38774 40.4266 1.57459C40.6135 1.76143 40.7606 1.98414 40.8591 2.22932C40.9576 2.47449 41.0055 2.73707 41 3.00125V13.0012Z" fill="#F1F2F2"/>
<path d="M6 13.0013V18.2613L1 15.0013C1 15.0013 2 13.0013 6 13.0013Z" fill="#FED049"/>
<path d="M46.6 15.2613L41 18.9113V13.0013H43C43.7518 13.0016 44.4883 13.2138 45.125 13.6135C45.7618 14.0132 46.273 14.5843 46.6 15.2613Z" fill="#FED049"/>
<path d="M40.9999 18.9112L46.5999 15.2612C46.8648 15.8029 47.0016 16.3983 46.9999 17.0012V43.0012C46.9994 43.5675 46.8766 44.1269 46.6399 44.6412L40.9999 39.0012L28.9999 27.0012L28.8799 26.8212L40.9999 18.9112Z" fill="#F6B445"/>
<path d="M41.0001 39.0012L46.6401 44.6412C46.3259 45.344 45.815 45.9407 45.1691 46.3595C44.5232 46.7782 43.7699 47.0011 43.0001 47.0012H5.00011C4.23033 47.0011 3.47704 46.7782 2.83114 46.3595C2.18525 45.9407 1.67435 45.344 1.36011 44.6412L7.00011 39.0012L19.0001 27.0012L19.1201 26.8212L24.0001 30.0012L28.8801 26.8212L29.0001 27.0012L41.0001 39.0012Z" fill="#FED049"/>
<path d="M6 18.2613L19.12 26.8213L19 27.0013L7 39.0013L1.36 44.6413C1.12329 44.1269 1.00049 43.5675 1 43.0013V15.0013L6 18.2613Z" fill="#F6B445"/>
<path d="M17 12.0013C18.6569 12.0013 20 10.6581 20 9.00125C20 7.3444 18.6569 6.00125 17 6.00125C15.3431 6.00125 14 7.3444 14 9.00125C14 10.6581 15.3431 12.0013 17 12.0013Z" fill="#A4B0C0"/>
<path d="M43 12.0012H42V3.00125C42.0116 2.60413 41.942 2.20883 41.7953 1.8396C41.6486 1.47037 41.4281 1.135 41.1472 0.854077C40.8662 0.573152 40.5309 0.352596 40.1616 0.205942C39.7924 0.0592889 39.3971 -0.0103679 39 0.0012464H8C7.60288 -0.0103679 7.20758 0.0592889 6.83835 0.205942C6.46912 0.352596 6.13376 0.573152 5.85283 0.854077C5.57191 1.135 5.35135 1.47037 5.2047 1.8396C5.05804 2.20883 4.98839 2.60413 5 3.00125V13.0012C5 13.2665 5.10536 13.5208 5.29289 13.7084C5.48043 13.8959 5.73478 14.0012 6 14.0012C6.26522 14.0012 6.51957 13.8959 6.70711 13.7084C6.89464 13.5208 7 13.2665 7 13.0012V3.00125C6.98679 2.86665 7.00358 2.7308 7.04916 2.60347C7.09475 2.47614 7.16799 2.3605 7.26362 2.26487C7.35925 2.16924 7.47489 2.09599 7.60222 2.05041C7.72955 2.00483 7.8654 1.98804 8 2.00125H39C39.1346 1.98804 39.2704 2.00483 39.3978 2.05041C39.5251 2.09599 39.6407 2.16924 39.7364 2.26487C39.832 2.3605 39.9053 2.47614 39.9508 2.60347C39.9964 2.7308 40.0132 2.86665 40 3.00125V13.0012C40 13.2665 40.1054 13.5208 40.2929 13.7084C40.4804 13.8959 40.7348 14.0012 41 14.0012H43C43.4159 14.0008 43.8273 14.0872 44.2078 14.2549C44.5884 14.4227 44.9297 14.668 45.21 14.9752L24 28.8072L1.546 14.1642C1.39516 14.0659 1.22057 14.0102 1.04067 14.0029C0.860773 13.9955 0.682233 14.0369 0.5239 14.1226C0.365567 14.2084 0.233314 14.3352 0.141102 14.4899C0.0488908 14.6445 0.000141334 14.8212 0 15.0012L0 43.0012C0.00158786 44.3268 0.528882 45.5977 1.46622 46.535C2.40356 47.4724 3.6744 47.9997 5 48.0012H43C44.3256 47.9997 45.5964 47.4724 46.5338 46.535C47.4711 45.5977 47.9984 44.3268 48 43.0012V17.0012C47.9984 15.6757 47.4711 14.4048 46.5338 13.4675C45.5964 12.5301 44.3256 12.0028 43 12.0012ZM46 43.0012C46 43.7969 45.6839 44.56 45.1213 45.1226C44.5587 45.6852 43.7956 46.0012 43 46.0012H5C4.20435 46.0012 3.44129 45.6852 2.87868 45.1226C2.31607 44.56 2 43.7969 2 43.0012V16.8472L17.579 27.0072L6.293 38.2942C6.19749 38.3865 6.12131 38.4968 6.0689 38.6188C6.01649 38.7408 5.9889 38.8721 5.98775 39.0048C5.9866 39.1376 6.0119 39.2693 6.06218 39.3922C6.11246 39.5151 6.18671 39.6267 6.2806 39.7206C6.3745 39.8145 6.48615 39.8888 6.60905 39.9391C6.73194 39.9893 6.86362 40.0147 6.9964 40.0135C7.12918 40.0123 7.2604 39.9848 7.3824 39.9324C7.50441 39.8799 7.61475 39.8038 7.707 39.7082L19.291 28.1242L23.454 30.8382C23.6164 30.9441 23.8061 31.0005 24 31.0005C24.1939 31.0005 24.3836 30.9441 24.546 30.8382L28.709 28.1242L40.293 39.7082C40.4816 39.8904 40.7342 39.9912 40.9964 39.9889C41.2586 39.9866 41.5094 39.8815 41.6948 39.6961C41.8802 39.5107 41.9854 39.2598 41.9877 38.9977C41.99 38.7355 41.8892 38.4828 41.707 38.2942L30.421 27.0072L46 16.8502C46 16.9002 46 16.9502 46 17.0012V43.0012Z" fill="#474C54"/>
<path d="M21 9.00125C21 8.21013 20.7654 7.43677 20.3259 6.77897C19.8864 6.12118 19.2616 5.60849 18.5307 5.30573C17.7998 5.00298 16.9956 4.92377 16.2196 5.07811C15.4437 5.23245 14.731 5.61342 14.1716 6.17283C13.6122 6.73224 13.2312 7.44497 13.0769 8.22089C12.9225 8.99682 13.0017 9.80108 13.3045 10.532C13.6072 11.2629 14.1199 11.8876 14.7777 12.3271C15.4355 12.7667 16.2089 13.0013 17 13.0013C18.0609 13.0013 19.0783 12.5798 19.8284 11.8297C20.5786 11.0795 21 10.0621 21 9.00125ZM15 9.00125C15 8.60569 15.1173 8.21901 15.3371 7.89011C15.5568 7.56121 15.8692 7.30487 16.2346 7.15349C16.6001 7.00212 17.0022 6.96251 17.3902 7.03968C17.7781 7.11685 18.1345 7.30733 18.4142 7.58704C18.6939 7.86674 18.8844 8.22311 18.9616 8.61107C19.0387 8.99903 18.9991 9.40117 18.8478 9.76662C18.6964 10.1321 18.44 10.4444 18.1111 10.6642C17.7822 10.884 17.3956 11.0013 17 11.0013C16.4696 11.0013 15.9609 10.7905 15.5858 10.4155C15.2107 10.0404 15 9.53169 15 9.00125Z" fill="#474C54"/>
<path d="M25 7.00125H34C34.2652 7.00125 34.5196 6.89589 34.7071 6.70836C34.8946 6.52082 35 6.26647 35 6.00125C35 5.73603 34.8946 5.48168 34.7071 5.29414C34.5196 5.10661 34.2652 5.00125 34 5.00125H25C24.7348 5.00125 24.4804 5.10661 24.2929 5.29414C24.1054 5.48168 24 5.73603 24 6.00125C24 6.26647 24.1054 6.52082 24.2929 6.70836C24.4804 6.89589 24.7348 7.00125 25 7.00125Z" fill="#474C54"/>
<path d="M25 13.0013H34C34.2652 13.0013 34.5196 12.8959 34.7071 12.7084C34.8946 12.5208 35 12.2665 35 12.0013C35 11.736 34.8946 11.4817 34.7071 11.2941C34.5196 11.1066 34.2652 11.0013 34 11.0013H25C24.7348 11.0013 24.4804 11.1066 24.2929 11.2941C24.1054 11.4817 24 11.736 24 12.0013C24 12.2665 24.1054 12.5208 24.2929 12.7084C24.4804 12.8959 24.7348 13.0013 25 13.0013Z" fill="#474C54"/>
<path d="M25 19.0013H30C30.2652 19.0013 30.5196 18.8959 30.7071 18.7084C30.8946 18.5208 31 18.2665 31 18.0013C31 17.736 30.8946 17.4817 30.7071 17.2941C30.5196 17.1066 30.2652 17.0013 30 17.0013H25C24.7348 17.0013 24.4804 17.1066 24.2929 17.2941C24.1054 17.4817 24 17.736 24 18.0013C24 18.2665 24.1054 18.5208 24.2929 18.7084C24.4804 18.8959 24.7348 19.0013 25 19.0013Z" fill="#474C54"/>
<circle cx="40.5" cy="39.5" r="9.5" fill="white"/>
<path d="M48 39.5C48 35.3574 44.6426 32 40.5 32C36.3574 32 33 35.3574 33 39.5C33 43.6426 36.3574 47 40.5 47C44.6426 47 48 43.6426 48 39.5ZM46.2334 36.5791L39.1729 43.6396L38.6689 44.1436L34.7666 40.2412L36.4893 38.5186L38.6719 40.7012L44.5137 34.8594L46.2334 36.5791Z" fill="#41AD49"/>
</svg>
