<svg width="30" height="32" viewBox="0 0 30 32" fill="none" xmlns="http://www.w3.org/2000/svg">
<path fill-rule="evenodd" clip-rule="evenodd" d="M2.39684 23.7602C0.881053 21.417 0 18.6238 0 15.6269C0 7.34853 6.72158 0.626953 15 0.626953C23.2784 0.626953 30 7.34853 30 15.6269C30 23.9054 23.2784 30.627 15 30.627C12.1942 30.627 9.56842 29.8549 7.32158 28.5128L0 30.9523L2.39684 23.7602Z" fill="#F3F3F3"/>
<path fill-rule="evenodd" clip-rule="evenodd" d="M5.20254 22.5853C3.80359 20.6211 2.98096 18.2195 2.98096 15.6269C2.98096 8.9937 8.36675 3.60791 14.9999 3.60791C21.633 3.60791 27.0188 8.9937 27.0188 15.6269C27.0188 22.26 21.633 27.6442 14.9999 27.6442C12.4894 27.6442 10.1589 26.8737 8.22938 25.5553L3.71043 27.0616L5.20254 22.5853Z" fill="#00A82D"/>
<path fill-rule="evenodd" clip-rule="evenodd" d="M11.3905 18.7468C9.61575 16.5773 8.43154 13.9215 8.06048 11.0415C7.96101 10.2394 8.22785 9.4341 8.78838 8.85147C9.3489 8.26884 10.1431 7.97042 10.9484 8.03831L11.0257 8.04621C11.0257 8.04621 11.9115 8.28305 12.3963 8.4141C12.5889 8.46621 12.7421 8.60989 12.8068 8.79779C13.0247 9.44515 13.5394 10.9657 13.7826 11.6809C13.8615 11.913 13.7889 12.1704 13.6026 12.3283C13.2347 12.6378 12.6268 13.1494 12.2479 13.4699C12.0442 13.642 11.9794 13.9278 12.09 14.1694C12.5305 15.1294 13.0926 16.0262 13.7589 16.8378C14.4442 17.6304 15.2321 18.3362 16.1037 18.9331C16.3247 19.0831 16.6168 19.0673 16.8205 18.8952C17.201 18.5762 17.8089 18.0647 18.1752 17.7552C18.3631 17.5973 18.6284 17.5704 18.8447 17.6873C19.5079 18.0473 20.9194 18.8115 21.5194 19.1368C21.6947 19.2315 21.8116 19.4083 21.8289 19.6057C21.8747 20.1062 21.96 21.0189 21.96 21.0189L21.9537 21.0962C21.8842 21.9015 21.4563 22.6341 20.7868 23.0873C20.1173 23.542 19.2789 23.6683 18.5052 23.4347C15.7073 22.5741 13.2742 20.9383 11.4331 18.7973L11.3905 18.7468Z" fill="#F3F3F3"/>
</svg>
