<svg width="25" height="26" viewBox="0 0 25 26" fill="none" xmlns="http://www.w3.org/2000/svg">
<g clip-path="url(#clip0_2221_817)">
<path d="M24.974 4.84762L24.9132 4.33066H21.8724C22.0244 3.29678 22.1157 2.23249 22.1765 1.13779C22.2069 0.560023 21.7508 0.0734863 21.2338 0.0734863H3.80973C3.26238 0.0734863 2.83664 0.560023 2.86706 1.13779C2.89748 2.23249 3.01909 3.29678 3.17115 4.33066H0.130293L0.0390679 4.84762C0.00865952 4.96926 -0.325836 8.07093 1.68113 10.8685C2.9887 12.693 5.02605 13.9397 7.67162 14.5783C8.52304 15.4298 9.46571 16.0683 10.4692 16.4637C10.3475 17.7104 10.1955 18.9268 10.0435 20.0519H15C14.8176 18.8963 14.6656 17.7104 14.5439 16.4637C15.5474 16.0988 16.4901 15.4602 17.3415 14.5783C19.9871 13.9397 22.0244 12.693 23.332 10.8685C25.339 8.07093 24.974 4.96926 24.974 4.84762ZM2.56297 10.1083C1.28582 8.3446 1.13377 6.42887 1.13377 5.51661H3.3536C3.93135 8.40541 4.96525 10.9597 6.27282 12.8755C4.69157 12.2673 3.44483 11.3246 2.56297 10.1083ZM22.4501 10.1083C21.5683 11.3246 20.3215 12.2673 18.7403 12.8755C20.0783 10.9293 21.0818 8.40541 21.6595 5.51661H23.8793C23.8793 6.42887 23.6969 8.3446 22.4501 10.1083Z" fill="#FFC54D"/>
<path d="M17.676 24.3393H7.33715C7.03308 24.3393 6.78979 24.096 6.78979 23.792V19.8996C6.78979 19.5956 7.03308 19.3523 7.33715 19.3523H17.676C17.9801 19.3523 18.2234 19.5956 18.2234 19.8996V23.792C18.2234 24.096 17.9801 24.3393 17.676 24.3393Z" fill="#C9D5E3"/>
<path d="M5.78637 25.4949H19.2269C19.531 25.4949 19.7743 25.2515 19.7743 24.9476V23.792C19.7743 23.4879 19.531 23.2446 19.2269 23.2446H5.78637C5.4823 23.2446 5.23901 23.4879 5.23901 23.792V24.9476C5.23901 25.2211 5.4823 25.4949 5.78637 25.4949Z" fill="#82A7C4"/>
<path d="M14.9393 22.1804H10.0739C9.86104 22.1804 9.70898 22.0284 9.70898 21.8155V21.0553C9.70898 20.8425 9.86104 20.6904 10.0739 20.6904H14.9393C15.1521 20.6904 15.3042 20.8425 15.3042 21.0553V21.8155C15.3042 22.0284 15.1217 22.1804 14.9393 22.1804Z" fill="#DEE3EC"/>
<path d="M12.6735 3.54145L13.6049 5.40419C13.6294 5.45321 13.6784 5.50223 13.752 5.50223L15.8108 5.79635C15.9578 5.82086 16.0069 5.99243 15.9088 6.11498L14.4137 7.56105C14.3647 7.61007 14.3402 7.65909 14.3647 7.73262L14.7078 9.79145C14.7324 9.93851 14.5853 10.0611 14.4382 9.98752L12.6 9.00713C12.551 8.98262 12.4775 8.98262 12.4284 9.00713L10.5902 9.98752C10.4676 10.0611 10.2961 9.93851 10.3206 9.79145L10.6637 7.73262C10.6637 7.6836 10.6637 7.61007 10.6147 7.56105L9.11961 6.11498C9.02157 6.01694 9.07059 5.82086 9.21765 5.79635L11.2765 5.50223C11.3255 5.50223 11.3745 5.45321 11.4235 5.40419L12.3549 3.54145C12.4284 3.39439 12.6 3.39439 12.6735 3.54145Z" fill="#F19920"/>
<mask id="mask0_2221_817" style="mask-type:luminance" maskUnits="userSpaceOnUse" x="10" y="21" width="5" height="1">
<path d="M14.3996 21.2007H10.7231V21.7078H14.3996V21.2007Z" fill="white"/>
</mask>
<g mask="url(#mask0_2221_817)">
<path d="M10.9965 21.4378C11.1064 21.4378 11.1505 21.2068 10.9449 21.2068H10.7231V21.6961H10.9521C11.1679 21.6961 11.1369 21.4378 10.9965 21.4378ZM10.8251 21.2868H10.9355C11.005 21.2868 11.005 21.4104 10.9355 21.4104H10.8251V21.2868ZM10.9355 21.6111H10.8251V21.4875H10.9355C11.0296 21.4875 11.0296 21.6111 10.9355 21.6111Z" fill="#231F20"/>
<path d="M11.3325 21.2068H11.2305V21.6963H11.3325V21.2068Z" fill="#231F20"/>
<path d="M11.8044 21.2068H11.4319V21.2868H11.8044V21.2068Z" fill="#231F20"/>
<path d="M11.6686 21.3225H11.5667V21.6961H11.6686V21.3225Z" fill="#231F20"/>
<path d="M12.2384 21.2068H11.866V21.2868H12.2384V21.2068Z" fill="#231F20"/>
<path d="M12.1032 21.3225H12.0012V21.6961H12.1032V21.3225Z" fill="#231F20"/>
<path d="M12.4471 21.616H12.683V21.6961H12.3452V21.2068H12.683V21.2868H12.4471V21.616Z" fill="#231F20"/>
<path d="M12.6599 21.4114H12.5142V21.4917H12.6599V21.4114Z" fill="#231F20"/>
<path d="M13.8132 21.428V21.5609C13.7914 21.6091 13.7556 21.6491 13.7112 21.6748C13.6756 21.6958 13.6344 21.7078 13.5906 21.7078C13.455 21.7078 13.3455 21.5942 13.3455 21.4543C13.3455 21.3144 13.455 21.2007 13.5906 21.2007C13.6649 21.2007 13.7318 21.2352 13.7767 21.2892L13.6976 21.3418C13.6705 21.3147 13.6332 21.2977 13.5922 21.2977C13.5086 21.2977 13.4409 21.3678 13.4409 21.4543C13.4409 21.5408 13.5086 21.6109 13.5922 21.6109C13.6406 21.6109 13.6838 21.5872 13.7111 21.5507V21.5083H13.6199V21.428L13.8132 21.428Z" fill="#231F20"/>
<path d="M13.2256 21.6958L13.1237 21.6961L12.9097 21.3648V21.6961H12.8074V21.2068H12.9097L13.0731 21.4601L13.1237 21.538L13.2256 21.6958Z" fill="#231F20"/>
<path d="M13.2259 21.2068V21.6169L13.124 21.4592V21.2068H13.2259Z" fill="#231F20"/>
<path d="M14.062 21.3269C14.0363 21.366 14.0213 21.413 14.0213 21.4639C14.0213 21.4998 14.0287 21.5337 14.0422 21.5644C14.0722 21.633 14.1459 21.6844 14.2185 21.7016C14.2176 21.702 14.2171 21.702 14.2162 21.7022C14.1995 21.7057 14.1823 21.7078 14.1648 21.7078C14.0296 21.7078 13.9197 21.5941 13.9197 21.4542C13.9197 21.3143 14.0296 21.2007 14.1649 21.2007C14.1824 21.2007 14.1996 21.2027 14.2162 21.2062C14.231 21.2094 14.2448 21.2141 14.2583 21.22C14.2459 21.2209 14.2337 21.2226 14.2222 21.2249C14.1615 21.2381 14.0956 21.2754 14.062 21.3269Z" fill="#231F20"/>
<path d="M14.3996 21.4543C14.3996 21.5434 14.3298 21.6159 14.2434 21.6159C14.2264 21.6159 14.21 21.6129 14.1948 21.6077C14.2637 21.5928 14.3148 21.53 14.3148 21.4543C14.3148 21.3786 14.2637 21.3159 14.1948 21.3009C14.2101 21.2957 14.2264 21.2927 14.2434 21.2927C14.3298 21.2927 14.3996 21.3652 14.3996 21.4543Z" fill="#D1252B"/>
</g>
</g>
<defs>
<clipPath id="clip0_2221_817">
<rect width="25" height="25.7353" fill="white"/>
</clipPath>
</defs>
</svg>
