<svg width="24" height="22" viewBox="0 0 24 22" fill="none" xmlns="http://www.w3.org/2000/svg">
<g clip-path="url(#clip0_2221_327)">
<path d="M22.5264 7.3872L20.8848 2.4612C20.6467 1.74418 20.1886 1.12044 19.5757 0.67861C18.9629 0.236779 18.2263 -0.000669847 17.4708 1.41933e-06H6.5292C5.77367 -0.000669847 5.03713 0.236779 4.42426 0.67861C3.81138 1.12044 3.35334 1.74418 3.1152 2.4612L1.4736 7.3872C1.03754 7.57018 0.665132 7.87771 0.403014 8.27132C0.140894 8.66492 0.000706907 9.1271 0 9.6V15.6C0 16.5036 0.5076 17.2824 1.2468 17.6916C1.2312 17.7708 1.2 17.8428 1.2 17.9256V20.4C1.2 20.7182 1.32643 21.0235 1.55147 21.2485C1.77652 21.4735 2.08174 21.6 2.4 21.6H3.6C3.91826 21.6 4.22348 21.4735 4.44853 21.2485C4.67357 21.0235 4.8 20.7182 4.8 20.4V18H19.2V20.4C19.2 20.7182 19.3265 21.0235 19.5515 21.2485C19.7765 21.4735 20.0818 21.6 20.4 21.6H21.6C21.9182 21.6 22.2235 21.4735 22.4485 21.2485C22.6735 21.0235 22.8 20.7182 22.8 20.4V17.9256C22.8 17.8428 22.7688 17.7696 22.7532 17.6916C23.1293 17.4865 23.4434 17.1842 23.6627 16.8163C23.882 16.4484 23.9986 16.0284 24 15.6V9.6C24 8.6052 23.3904 7.7508 22.5264 7.3872ZM2.4 15.6V9.6H21.6L21.6024 15.6H2.4ZM6.5292 2.4H17.4696C17.9868 2.4 18.4452 2.7288 18.6084 3.2208L19.9356 7.2H4.0644L5.3904 3.2208C5.47002 2.98176 5.62286 2.77384 5.82726 2.62651C6.03166 2.47919 6.27725 2.39994 6.5292 2.4Z" fill="white"/>
<path d="M5.4001 14.4C6.39421 14.4 7.2001 13.5941 7.2001 12.6C7.2001 11.6059 6.39421 10.8 5.4001 10.8C4.40598 10.8 3.6001 11.6059 3.6001 12.6C3.6001 13.5941 4.40598 14.4 5.4001 14.4Z" fill="white"/>
<path d="M18.6 14.4C19.5941 14.4 20.4 13.5941 20.4 12.6C20.4 11.6059 19.5941 10.8 18.6 10.8C17.606 10.8 16.8 11.6059 16.8 12.6C16.8 13.5941 17.606 14.4 18.6 14.4Z" fill="white"/>
</g>
<defs>
<clipPath id="clip0_2221_327">
<rect width="24" height="21.6" fill="white"/>
</clipPath>
</defs>
</svg>
