<svg width="20" height="28" viewBox="0 0 20 28" fill="none" xmlns="http://www.w3.org/2000/svg">
<g clip-path="url(#clip0_2221_334)">
<path d="M10 0C7.34784 0 4.8043 1.05357 2.92893 2.92893C1.05357 4.8043 0 7.34784 0 10C0 15.15 8.26 26.34 9.2 27.6C9.29315 27.7242 9.41393 27.825 9.55279 27.8944C9.69164 27.9639 9.84475 28 10 28C10.1552 28 10.3084 27.9639 10.4472 27.8944C10.5861 27.825 10.7069 27.7242 10.8 27.6C11.74 26.34 20 15.15 20 10C20 8.68678 19.7413 7.38642 19.2388 6.17317C18.7362 4.95991 17.9997 3.85752 17.0711 2.92893C16.1425 2.00035 15.0401 1.26375 13.8268 0.761205C12.6136 0.258658 11.3132 0 10 0ZM10 25.3C7.2 21.39 2 13.43 2 10C2 7.87827 2.84285 5.84344 4.34315 4.34315C5.84344 2.84285 7.87827 2 10 2C12.1217 2 14.1566 2.84285 15.6569 4.34315C17.1571 5.84344 18 7.87827 18 10C18 13.43 12.8 21.39 10 25.3Z" fill="white"/>
<path d="M10 5C9.0111 5 8.0444 5.29324 7.22215 5.84265C6.39991 6.39206 5.75904 7.17295 5.3806 8.08658C5.00217 9.00021 4.90315 10.0055 5.09608 10.9755C5.289 11.9454 5.76521 12.8363 6.46447 13.5355C7.16373 14.2348 8.05465 14.711 9.02455 14.9039C9.99446 15.0969 10.9998 14.9978 11.9134 14.6194C12.8271 14.241 13.6079 13.6001 14.1574 12.7779C14.7068 11.9556 15 10.9889 15 10C15 8.67392 14.4732 7.40215 13.5355 6.46447C12.5979 5.52678 11.3261 5 10 5ZM10 13C9.40666 13 8.82664 12.8241 8.33329 12.4944C7.83994 12.1648 7.45543 11.6962 7.22836 11.1481C7.0013 10.5999 6.94189 9.99667 7.05765 9.41473C7.1734 8.83279 7.45912 8.29824 7.87868 7.87868C8.29824 7.45912 8.83279 7.1734 9.41473 7.05764C9.99668 6.94189 10.5999 7.0013 11.1481 7.22836C11.6962 7.45542 12.1648 7.83994 12.4944 8.33329C12.8241 8.82664 13 9.40666 13 10C13 10.7956 12.6839 11.5587 12.1213 12.1213C11.5587 12.6839 10.7957 13 10 13Z" fill="white"/>
</g>
<defs>
<clipPath id="clip0_2221_334">
<rect width="20" height="28" fill="white"/>
</clipPath>
</defs>
</svg>
