<svg width="30" height="30" viewBox="0 0 30 30" fill="none" xmlns="http://www.w3.org/2000/svg">
<g clip-path="url(#clip0_2221_751)">
<path d="M24.042 0.230713L12.4075 11.8652C11.4272 11.5107 10.3749 11.3076 9.27274 11.3076C4.17461 11.3076 0.0419922 15.4403 0.0419922 20.5384C0.0419922 25.6366 4.17461 29.7692 9.27274 29.7692C14.3709 29.7692 18.5035 25.6366 18.5035 20.5384C18.5035 19.4363 18.3004 18.3839 17.946 17.4036L18.5035 16.8461V13.1538H22.1958V9.46148H25.8881V5.76917H29.5804V0.230713H24.042ZM11.3935 24.7864C11.3012 25.2272 10.9924 25.5913 10.5734 25.7556C8.89751 26.4119 6.9189 26.063 5.56428 24.7084C4.20968 23.3543 3.86076 21.3747 4.51753 19.6984C4.68182 19.2789 5.04643 18.9706 5.48767 18.8787C5.9289 18.7869 6.38582 18.9239 6.70428 19.2424L11.0312 23.5693C11.3497 23.8878 11.4858 24.3456 11.3935 24.7864Z" fill="#FACB1B"/>
<path d="M29.5804 0.230713H24.042L12.4075 11.8652C11.4272 11.5107 10.3749 11.3076 9.27274 11.3076C4.17461 11.3076 0.0419922 15.4403 0.0419922 20.5384C0.0419922 23.1696 1.1483 25.5378 2.91461 27.2192L5.50013 24.6336C4.20368 23.2818 3.87276 21.3456 4.51799 19.6984C4.68228 19.2789 5.0469 18.9706 5.48813 18.8787C5.92936 18.7869 6.38628 18.9239 6.70474 19.2424L8.79828 21.3359L29.5804 0.552867V0.230713Z" fill="#FBE158"/>
<path d="M14.8109 12.2307C14.5562 11.976 14.5562 11.5624 14.8109 11.3077L24.9648 1.15381H26.8109L15.734 12.2307C15.4793 12.4855 15.0657 12.4855 14.8109 12.2307Z" fill="#F3B607"/>
</g>
<defs>
<clipPath id="clip0_2221_751">
<rect width="30" height="30" fill="white"/>
</clipPath>
</defs>
</svg>
