<svg width="68" height="68" viewBox="0 0 68 68" fill="none" xmlns="http://www.w3.org/2000/svg">
<mask id="mask0_2221_940" style="mask-type:luminance" maskUnits="userSpaceOnUse" x="0" y="0" width="68" height="68">
<path d="M0 0H67.8594V67.8646H0V0Z" fill="white"/>
</mask>
<g mask="url(#mask0_2221_940)">
<path d="M67.8594 33.9323C67.8594 35.0417 67.8073 36.151 67.6979 37.2604C67.5885 38.3646 67.4271 39.4635 67.2083 40.5521C66.9896 41.6406 66.724 42.7188 66.401 43.7813C66.0781 44.8438 65.7031 45.8906 65.276 46.9167C64.8542 47.9427 64.3802 48.9479 63.8542 49.9271C63.3281 50.9063 62.7604 51.8594 62.1406 52.7813C61.526 53.7083 60.8646 54.599 60.1615 55.4583C59.4531 56.3177 58.7083 57.1406 57.9219 57.9271C57.1354 58.7083 56.3125 59.4583 55.4531 60.1615C54.599 60.8646 53.7031 61.526 52.7813 62.1458C51.8594 62.7604 50.9063 63.3333 49.9271 63.8542C48.9427 64.3802 47.9427 64.8542 46.9167 65.2813C45.8906 65.7031 44.8438 66.0781 43.7813 66.401C42.7188 66.724 41.6406 66.9948 40.5521 67.2135C39.4583 67.4271 38.3594 67.5885 37.2552 67.6979C36.151 67.8073 35.0417 67.8646 33.9323 67.8646C32.8177 67.8646 31.7083 67.8073 30.6042 67.6979C29.5 67.5885 28.401 67.4271 27.3125 67.2135C26.2188 66.9948 25.1458 66.724 24.0781 66.401C23.0156 66.0781 21.974 65.7031 20.9427 65.2813C19.9167 64.8542 18.9167 64.3802 17.9375 63.8542C16.9531 63.3333 16.0052 62.7604 15.0781 62.1458C14.1563 61.526 13.2656 60.8646 12.4063 60.1615C11.5469 59.4583 10.724 58.7083 9.9375 57.9271C9.15104 57.1406 8.40625 56.3177 7.70313 55.4583C6.99479 54.599 6.33333 53.7083 5.71875 52.7813C5.09896 51.8594 4.53125 50.9063 4.00521 49.9271C3.47917 48.9479 3.00521 47.9427 2.58333 46.9167C2.15625 45.8906 1.78125 44.8438 1.45833 43.7813C1.13542 42.7188 0.869791 41.6406 0.651042 40.5521C0.432292 39.4635 0.270834 38.3646 0.161458 37.2604C0.0520837 36.151 0 35.0417 0 33.9323C0 32.8229 0.0520837 31.7135 0.161458 30.6042C0.270834 29.5 0.432292 28.401 0.651042 27.3125C0.869791 26.224 1.13542 25.1458 1.45833 24.0833C1.78125 23.0208 2.15625 21.974 2.58333 20.9479C3.00521 19.9219 3.47917 18.9167 4.00521 17.9375C4.53125 16.9583 5.09896 16.0052 5.71875 15.0833C6.33333 14.1563 6.99479 13.2656 7.70313 12.4063C8.40625 11.5469 9.15104 10.724 9.9375 9.9375C10.724 9.15625 11.5469 8.40625 12.4063 7.70313C13.2656 7 14.1563 6.33854 15.0781 5.71875C16.0052 5.10417 16.9531 4.53125 17.9375 4.01042C18.9167 3.48438 19.9167 3.01042 20.9427 2.58333C21.974 2.16146 23.0156 1.78646 24.0781 1.46354C25.1458 1.14063 26.2188 0.869791 27.3125 0.651042C28.401 0.437499 29.5 0.276043 30.6042 0.166667C31.7083 0.057292 32.8177 0 33.9323 0C35.0417 0 36.151 0.057292 37.2552 0.166667C38.3594 0.276043 39.4583 0.437499 40.5521 0.651042C41.6406 0.869791 42.7188 1.14063 43.7813 1.46354C44.8438 1.78646 45.8906 2.16146 46.9167 2.58333C47.9427 3.01042 48.9427 3.48438 49.9271 4.01042C50.9063 4.53125 51.8594 5.10417 52.7813 5.71875C53.7031 6.33854 54.599 7 55.4531 7.70313C56.3125 8.40625 57.1354 9.15625 57.9219 9.9375C58.7083 10.724 59.4531 11.5469 60.1615 12.4063C60.8646 13.2656 61.526 14.1563 62.1406 15.0833C62.7604 16.0052 63.3281 16.9583 63.8542 17.9375C64.3802 18.9167 64.8542 19.9219 65.276 20.9479C65.7031 21.974 66.0781 23.0208 66.401 24.0833C66.724 25.1458 66.9896 26.224 67.2083 27.3125C67.4271 28.401 67.5885 29.5 67.6979 30.6042C67.8073 31.7135 67.8594 32.8229 67.8594 33.9323Z" fill="#00309A"/>
</g>
<path d="M33.9323 13.1824L34.526 14.9949L36.4375 15.0053L34.8958 16.1355L35.4792 17.9532L33.9323 16.8386L32.3802 17.9532L32.9635 16.1355L31.4219 15.0053L33.3333 14.9949L33.9323 13.1824Z" fill="#FDCB00"/>
<path d="M24.948 15.6772L25.5469 17.4897L27.4532 17.5002L25.9167 18.6252L26.4948 20.4429L24.948 19.3283L23.3959 20.4429L23.9792 18.6252L22.4427 17.5002L24.349 17.4897L24.948 15.6772Z" fill="#FDCB00"/>
<path d="M18.2552 22.0522L18.8542 23.8647L20.7604 23.8752L19.224 25.0002L19.8021 26.8179L18.2552 25.7033L16.7083 26.8179L17.2865 25.0002L15.75 23.8752L17.6563 23.8647L18.2552 22.0522Z" fill="#FDCB00"/>
<path d="M15.5677 31.5469L16.1615 33.3594L18.0729 33.3698L16.5313 34.5L17.1146 36.3177L15.5677 35.2031L14.0156 36.3177L14.599 34.5L13.0573 33.3698L14.9688 33.3594L15.5677 31.5469Z" fill="#FDCB00"/>
<path d="M18.573 40.3335L19.1719 42.146L21.0782 42.1564L19.5417 43.2866L20.1198 45.1043L18.573 43.9897L17.0209 45.1043L17.6042 43.2866L16.0677 42.1564L17.974 42.146L18.573 40.3335Z" fill="#FDCB00"/>
<path d="M24.6302 46.7085L25.2292 48.521L27.1354 48.5314L25.599 49.6616L26.1771 51.4793L24.6302 50.3647L23.0833 51.4793L23.6615 49.6616L22.125 48.5314L24.0313 48.521L24.6302 46.7085Z" fill="#FDCB00"/>
<path d="M33.9323 49.9116L34.526 51.7241L36.4375 51.7345L34.8958 52.8647L35.4792 54.6825L33.9323 53.5679L32.3802 54.6825L32.9635 52.8647L31.4219 51.7345L33.3333 51.7241L33.9323 49.9116Z" fill="#FDCB00"/>
<path d="M43.2292 46.7085L43.8282 48.521L45.7396 48.5314L44.198 49.6616L44.7813 51.4793L43.2292 50.3647L41.6823 51.4793L42.2605 49.6616L40.724 48.5314L42.6302 48.521L43.2292 46.7085Z" fill="#FDCB00"/>
<path d="M49.2865 40.3335L49.8854 42.146L51.7969 42.1564L50.2552 43.2866L50.8385 45.1043L49.2865 43.9897L47.7396 45.1043L48.3229 43.2866L46.7812 42.1564L48.6927 42.146L49.2865 40.3335Z" fill="#FDCB00"/>
<path d="M52.2969 31.5469L52.8906 33.3594L54.8021 33.3698L53.2604 34.5L53.8437 36.3177L52.2969 35.2031L50.7448 36.3177L51.3281 34.5L49.7864 33.3698L51.6979 33.3594L52.2969 31.5469Z" fill="#FDCB00"/>
<path d="M49.6041 22.0522L50.2031 23.8647L52.1094 23.8752L50.5729 25.0002L51.1562 26.8179L49.6041 25.7033L48.0573 26.8179L48.6354 25.0002L47.0989 23.8752L49.0052 23.8647L49.6041 22.0522Z" fill="#FDCB00"/>
<path d="M42.9115 15.6772L43.5104 17.4897L45.4219 17.5002L43.8802 18.6252L44.4635 20.4429L42.9115 19.3283L41.3646 20.4429L41.9427 18.6252L40.4062 17.5002L42.3177 17.4897L42.9115 15.6772Z" fill="#FDCB00"/>
</svg>
