<svg width="25" height="25" viewBox="0 0 25 25" fill="none" xmlns="http://www.w3.org/2000/svg">
<path d="M12.5702 1.20996C6.33813 1.20996 1.28613 6.26255 1.28613 12.4945C1.28613 18.7265 6.33813 23.7791 12.5702 23.7791C18.8025 23.7791 23.8545 18.7265 23.8545 12.4945C23.8545 6.26255 18.8025 1.20996 12.5702 1.20996ZM12.5702 22.183C7.21947 22.183 2.88172 17.8451 2.88172 12.4945C2.88172 7.14379 7.21947 2.80554 12.5702 2.80554C17.9212 2.80554 22.2588 7.14379 22.2588 12.4945C22.2587 17.8452 17.9212 22.183 12.5702 22.183Z" fill="#E65135"/>
<path d="M21.2989 12.4945C21.2989 17.3155 17.3911 21.2232 12.5701 21.2232C7.7493 21.2232 3.84155 17.3154 3.84155 12.4945C3.84155 7.67354 7.7493 3.76562 12.5701 3.76562C17.3911 3.76562 21.2989 7.67346 21.2989 12.4945Z" fill="#E65135"/>
<path d="M13.7435 17.0123C13.4162 17.3322 13.021 17.4924 12.5584 17.4924C12.0771 17.4924 11.6813 17.3376 11.3701 17.0264C11.0597 16.7153 10.9043 16.3195 10.9043 15.838C10.9043 15.3708 11.0652 14.9745 11.3877 14.6499C11.7099 14.3252 12.1004 14.1628 12.558 14.1628C13.0159 14.1628 13.4095 14.3288 13.7393 14.6603C14.0685 14.9922 14.2335 15.3872 14.2335 15.8451C14.2339 16.3034 14.0703 16.6923 13.7435 17.0123Z" fill="white"/>
<path d="M14.4162 12.7681C14.1364 12.9086 13.965 13.03 13.9046 13.1328C13.8437 13.2352 13.8141 13.4553 13.8141 13.7919H11.2137V13.35C11.2137 12.7658 11.2787 12.3346 11.4099 12.0561C11.5405 11.7782 11.779 11.5623 12.1252 11.4078L12.6019 11.1979C12.9619 11.0387 13.1417 10.8148 13.1417 10.5248C13.1417 10.3562 13.0824 10.2143 12.9664 10.0967C12.8498 9.98067 12.7066 9.92134 12.5386 9.92134C12.0807 9.92134 11.8514 10.2398 11.8514 10.8751H9.43311C9.43311 10.0243 9.62986 9.33067 10.0223 8.79334C10.3122 8.39609 10.688 8.08067 11.1507 7.847C11.6134 7.61367 12.0924 7.49634 12.5879 7.49634C13.4668 7.49634 14.2056 7.78767 14.8064 8.36925C15.4071 8.95084 15.7072 9.67192 15.7072 10.5318C15.7059 11.5924 15.276 12.3383 14.4162 12.7681Z" fill="white"/>
</svg>
