<svg width="24" height="24" viewBox="0 0 24 24" fill="none" xmlns="http://www.w3.org/2000/svg">
<g clip-path="url(#clip0_2221_310)">
<path d="M12 0C11.9942 0 11.9942 0 11.9885 0C11.9885 0 11.9885 0 11.9827 0C11.9769 0 11.9712 0 11.9712 0C5.35385 0.0173077 0 5.38269 0 12C0 18.6173 5.35385 23.9827 11.9712 24C11.9769 24 11.9827 24 11.9827 24H11.9885C11.9942 24 11.9942 24 12 24C18.6288 24 24 18.6288 24 12C24 5.37115 18.6288 0 12 0ZM12.4788 7.18269C13.7538 7.14808 14.9885 6.98077 16.1827 6.69231C16.5404 8.10577 16.7654 9.73846 16.8 11.5269H12.4788V7.18269ZM12.4788 6.21923V1.03846C13.7712 1.39615 15.0865 3.12115 15.9173 5.76923C14.8096 6.03462 13.6615 6.18462 12.4788 6.21923ZM11.5212 1.02692V6.225C10.3269 6.19038 9.16731 6.03462 8.05385 5.76346C8.89615 3.09808 10.2173 1.36154 11.5212 1.02692ZM11.5212 7.18269V11.5212H7.17115C7.20577 9.73269 7.43077 8.1 7.78846 6.68654C8.98846 6.975 10.2404 7.14808 11.5212 7.18269ZM6.20192 11.5212H0.975C1.07885 9.05192 2.00192 6.79038 3.47308 5.00192C4.54038 5.59038 5.67692 6.075 6.86538 6.43269C6.47308 7.96154 6.24231 9.68654 6.20192 11.5212ZM6.20192 12.4788C6.23654 14.3077 6.46731 16.0385 6.85962 17.5673C5.67115 17.9308 4.54038 18.4096 3.46731 18.9981C1.99615 17.2096 1.07885 14.9481 0.969231 12.4788H6.20192ZM7.17115 12.4788H11.5212V16.8115C10.2404 16.8462 8.98846 17.0192 7.78846 17.3135C7.43077 15.9 7.20577 14.2673 7.17115 12.4788ZM11.5212 17.775V22.9788C10.2173 22.6385 8.89615 20.9077 8.05385 18.2423C9.16731 17.9654 10.3269 17.8096 11.5212 17.775ZM12.4788 22.9615V17.7692C13.6615 17.8038 14.8096 17.9596 15.9231 18.225C15.0865 20.8788 13.7769 22.6038 12.4788 22.9615ZM12.4788 16.8115V12.4788H16.8C16.7654 14.2615 16.5404 15.8942 16.1827 17.3077C14.9885 17.0192 13.7538 16.8462 12.4788 16.8115ZM17.7635 12.4788H23.025C22.9212 14.9481 21.9981 17.2038 20.5269 18.9981C19.4481 18.4038 18.3058 17.9192 17.1058 17.5558C17.4981 16.0269 17.7288 14.3077 17.7635 12.4788ZM17.7635 11.5212C17.7288 9.69231 17.4981 7.96731 17.1115 6.43846C18.3115 6.075 19.4538 5.59038 20.5269 5.00192C21.9981 6.79038 22.9212 9.05192 23.025 11.5269H17.7635V11.5212ZM19.8692 4.26346C18.9115 4.77115 17.9077 5.19231 16.8519 5.50962C16.2923 3.70385 15.5019 2.23269 14.5731 1.26346C16.6154 1.75385 18.4385 2.81538 19.8692 4.26346ZM9.39231 1.275C8.46346 2.23846 7.67885 3.70962 7.125 5.50385C6.08077 5.18654 5.08269 4.77115 4.13654 4.26346C5.55 2.82115 7.36154 1.76538 9.39231 1.275ZM4.13077 19.7308C5.07692 19.2231 6.08077 18.8077 7.11923 18.4904C7.67885 20.2904 8.46346 21.7558 9.39231 22.725C7.36154 22.2346 5.55 21.1788 4.13077 19.7308ZM14.5731 22.7365C15.5077 21.7673 16.2923 20.2962 16.8577 18.4846C17.9135 18.8019 18.9173 19.2231 19.875 19.7308C18.4442 21.1846 16.6154 22.2462 14.5731 22.7365Z" fill="black"/>
</g>
<defs>
<clipPath id="clip0_2221_310">
<rect width="24" height="24" fill="white"/>
</clipPath>
</defs>
</svg>
