<svg width="25" height="25" viewBox="0 0 25 25" fill="none" xmlns="http://www.w3.org/2000/svg">
<g clip-path="url(#clip0_2221_1071)">
<path fill-rule="evenodd" clip-rule="evenodd" d="M5.38774 12.4999C5.38774 11.688 5.52251 10.9095 5.76333 10.1794L1.55044 6.9624C0.729346 8.62939 0.266846 10.5079 0.266846 12.4999C0.266846 14.4903 0.728955 16.3675 1.54868 18.0335L5.75923 14.8103C5.52075 14.0835 5.38774 13.3079 5.38774 12.4999Z" fill="#FBBC05"/>
<path fill-rule="evenodd" clip-rule="evenodd" d="M12.7845 5.11367C14.5483 5.11367 16.1415 5.73867 17.3933 6.76133L21.0347 3.125C18.8157 1.19316 15.9708 0 12.7845 0C7.8376 0 3.58604 2.82891 1.55029 6.9625L5.76299 10.1795C6.73369 7.23301 9.50068 5.11367 12.7845 5.11367Z" fill="#EA4335"/>
<path fill-rule="evenodd" clip-rule="evenodd" d="M12.7845 19.8864C9.50088 19.8864 6.73389 17.767 5.76318 14.8206L1.55029 18.037C3.58604 22.1711 7.8376 25 12.7845 25C15.8376 25 18.7526 23.9159 20.9403 21.8846L16.9415 18.7932C15.8132 19.504 14.3923 19.8864 12.7845 19.8864Z" fill="#34A853"/>
<path fill-rule="evenodd" clip-rule="evenodd" d="M24.7333 12.5C24.7333 11.7613 24.6194 10.9658 24.4487 10.2273H12.7847V15.0568H19.4987C19.163 16.7035 18.2493 17.9693 16.9417 18.7931L20.9405 21.8845C23.2386 19.7517 24.7333 16.5744 24.7333 12.5Z" fill="#4285F4"/>
</g>
<defs>
<clipPath id="clip0_2221_1071">
<rect width="25" height="25" fill="white"/>
</clipPath>
</defs>
</svg>
