<svg width="32" height="24" viewBox="0 0 32 24" fill="none" xmlns="http://www.w3.org/2000/svg">
<g clip-path="url(#clip0_2221_337)">
<path d="M9.55677 5.66546L7.39412 3.64039L1.87488 9.91668L3.81831 11.7596L9.55677 5.66546ZM16.3312 20.793L19.5098 18.6308L16.3282 16.2754C15.4993 15.6608 16.4336 14.4007 17.2625 15.0153L20.884 17.6961L22.6354 16.5048L19.7872 14.55C18.9353 13.9687 19.8205 12.6716 20.6724 13.2529L24.0293 15.5565L24.7788 15.0466L24.941 14.68L20.6958 10.7297L17.5172 11.0592C17.2678 11.0955 17.0047 11.0112 16.8222 10.8106L15.1244 8.95101L12.2826 11.4678C11.9526 11.783 11.4488 11.7864 11.1389 11.4417L9.71286 9.85583C9.62555 9.75907 9.5613 9.63926 9.53069 9.5032L9.25327 8.27787L5.03834 12.754C8.80237 15.4337 12.5668 18.1134 16.3312 20.793ZM7.07286 16.1287L6.86461 17.2308L11.1188 21.4851L14.1648 21.1774L7.07286 16.1287ZM16.7938 22.3736C16.6819 22.4583 16.5462 22.5142 16.3966 22.529L10.9635 23.0774C10.719 23.1212 10.457 23.0487 10.2681 22.8593L5.46089 18.0499C5.28439 17.8726 5.19481 17.6145 5.24433 17.3503L5.66461 15.1264L3.41201 13.5227C3.3761 13.4986 3.34133 13.471 3.30883 13.44L0.27727 10.5653C-0.0553285 10.2795 -0.0961473 9.77646 0.195254 9.44575L6.74971 1.99743C7.04678 1.66824 7.54606 1.638 7.87223 1.94301L10.8044 4.68921L12.1949 4.00361C12.3068 3.94842 12.4254 3.92235 12.5422 3.92272L20.5397 3.92083L23.6971 1.10849C24.0403 0.803098 24.5687 0.857145 24.8461 1.22112L31.3098 9.42647C31.5982 9.79309 31.5045 10.3275 31.1125 10.5762L27.2563 13.3307L26.1277 15.8827C26.0571 16.0426 25.9399 16.1677 25.7985 16.2482C22.7968 18.2899 19.7951 20.3319 16.7938 22.3736ZM10.55 6.90099L11.0157 8.95554L11.7867 9.81274L14.6644 7.2642C14.9861 6.97998 15.4759 7.0072 15.7635 7.32392L17.7168 9.46049L20.8901 9.13129C21.124 9.10748 21.3447 9.18912 21.5046 9.33765L25.613 13.1607L25.7241 12.9089L20.4354 5.49425H12.721L11.1408 6.27359L10.55 6.90099ZM24.1189 2.83762L21.8863 4.82641L26.8065 11.7237L29.566 9.75227L24.1189 2.83762Z" fill="white"/>
</g>
<defs>
<clipPath id="clip0_2221_337">
<rect width="32" height="24" fill="white"/>
</clipPath>
</defs>
</svg>
