<svg width="35" height="33" viewBox="0 0 35 33" fill="none" xmlns="http://www.w3.org/2000/svg">
<path d="M21.7676 1.42397L2.41093 12.8559C1.07941 13.6423 0.637493 15.3592 1.42388 16.6907L9.28743 30.0053C10.0738 31.3368 11.7907 31.7788 13.1222 30.9924L32.4789 19.5604C33.8104 18.774 34.2523 17.0571 33.4659 15.7256L25.6024 2.41101C24.816 1.0795 23.0991 0.637582 21.7676 1.42397Z" fill="#E10714"/>
<path d="M8.85021 29.2037C13.006 29.1669 16.3437 25.6115 16.3052 21.2624C16.2667 16.9133 12.8665 13.4176 8.71074 13.4544C4.55496 13.4912 1.21726 17.0466 1.25577 21.3957C1.29429 25.7448 4.69444 29.2405 8.85021 29.2037Z" fill="#E10714"/>
<path d="M26.2677 18.9596C30.4235 18.9228 33.7612 15.3673 33.7227 11.0183C33.6841 6.6692 30.284 3.17341 26.1282 3.21022C21.9724 3.24702 18.6347 6.80247 18.6733 11.1515C18.7118 15.5006 22.1119 18.9964 26.2677 18.9596Z" fill="#E10714"/>
<path d="M13.8251 15.5751C15.3715 15.5751 16.6251 14.3215 16.6251 12.7751C16.6251 11.2287 15.3715 9.9751 13.8251 9.9751C12.2787 9.9751 11.0251 11.2287 11.0251 12.7751C11.0251 14.3215 12.2787 15.5751 13.8251 15.5751Z" fill="white" stroke="white" stroke-width="0.35"/>
<path d="M22.5751 21.8751C24.1215 21.8751 25.3751 20.6215 25.3751 19.0751C25.3751 17.5287 24.1215 16.2751 22.5751 16.2751C21.0287 16.2751 19.7751 17.5287 19.7751 19.0751C19.7751 20.6215 21.0287 21.8751 22.5751 21.8751Z" fill="white" stroke="white" stroke-width="0.35"/>
<path d="M21.35 10.5L15.05 21.7" stroke="white" stroke-width="1.925" stroke-linecap="round"/>
<path d="M22.5751 20.1251C23.155 20.1251 23.6251 19.655 23.6251 19.0751C23.6251 18.4952 23.155 18.0251 22.5751 18.0251C21.9952 18.0251 21.5251 18.4952 21.5251 19.0751C21.5251 19.655 21.9952 20.1251 22.5751 20.1251Z" fill="#E10714"/>
<path d="M13.8251 13.8251C14.405 13.8251 14.8751 13.355 14.8751 12.7751C14.8751 12.1952 14.405 11.7251 13.8251 11.7251C13.2452 11.7251 12.7751 12.1952 12.7751 12.7751C12.7751 13.355 13.2452 13.8251 13.8251 13.8251Z" fill="#E10714"/>
</svg>
