<svg width="40" height="22" viewBox="0 0 40 22" fill="none" xmlns="http://www.w3.org/2000/svg">
<g clip-path="url(#clip0_2221_1159)">
<path d="M29.9999 0.0998535H9.99985C4.53224 0.0998535 0.0998535 4.53223 0.0998535 9.99985V11.9999C0.0998535 17.4675 4.53224 21.8999 9.99985 21.8999H29.9999C35.4675 21.8999 39.8999 17.4675 39.8999 11.9999V9.99985C39.8999 4.53223 35.4675 0.0998535 29.9999 0.0998535Z" stroke="black" stroke-width="0.2"/>
<path d="M24 6.5H34" stroke="black"/>
<path d="M24 10.5H34" stroke="black"/>
<path d="M24 14.5H34" stroke="black"/>
<mask id="mask0_2221_1159" style="mask-type:luminance" maskUnits="userSpaceOnUse" x="4" y="3" width="16" height="16">
<path d="M20 3H4V19H20V3Z" fill="white"/>
</mask>
<g mask="url(#mask0_2221_1159)">
<path d="M12 3C7.6 3 4 6.6 4 11C4 15.4 7.6 19 12 19C16.4 19 20 15.4 20 11C20 6.6 16.4 3 12 3ZM12 5.66667C13.4667 5.66667 14.6667 7.13333 14.6667 9C14.6667 10.8667 13.4667 12.3333 12 12.3333C10.5333 12.3333 9.33333 10.8667 9.33333 9C9.33333 7.13333 10.5333 5.66667 12 5.66667ZM16.4 16C15.2667 17 13.6667 17.6667 12 17.6667C10.3333 17.6667 8.73333 17 7.6 16C7.33333 15.7333 7.26667 15.3333 7.53333 15.0667C8.26667 14.2 9.26667 13.6 10.3333 13.2667C10.8667 13.5333 11.4 13.6667 12 13.6667C12.6 13.6667 13.1333 13.5333 13.6667 13.2667C14.8 13.6 15.7333 14.2 16.4667 15.0667C16.7333 15.3333 16.7333 15.7333 16.4 16Z" fill="black"/>
</g>
</g>
<defs>
<clipPath id="clip0_2221_1159">
<rect width="40" height="22" fill="white"/>
</clipPath>
</defs>
</svg>
