<svg width="40" height="28" viewBox="0 0 40 28" fill="none" xmlns="http://www.w3.org/2000/svg">
<g clip-path="url(#clip0_2221_764)">
<mask id="mask0_2221_764" style="mask-type:luminance" maskUnits="userSpaceOnUse" x="0" y="13" width="18" height="9">
<path d="M0 13.2266H17.6058V21.8505H0V13.2266Z" fill="white"/>
</mask>
<g mask="url(#mask0_2221_764)">
<path d="M8.97977 21.9304C6.78106 21.936 4.6475 21.5684 2.577 20.8291C1.8879 20.5844 1.21269 20.3066 0.552429 19.9936C0.473368 19.9594 0.401787 19.9134 0.337684 19.8547C0.274651 19.797 0.221231 19.7297 0.180634 19.6538C0.138967 19.578 0.112258 19.4978 0.0973002 19.4124C0.0834114 19.328 0.0844797 19.2425 0.0983685 19.1581C0.185975 18.422 0.258624 17.6837 0.364394 16.9487C0.386829 16.7564 0.431703 16.5694 0.501147 16.3889C0.570591 16.2072 0.662472 16.0384 0.774651 15.8814C0.887898 15.7233 1.01931 15.5822 1.16781 15.4583C1.31632 15.3344 1.47871 15.2318 1.65392 15.1496C2.68383 14.6357 3.72871 14.157 4.7832 13.6656C5.06525 13.5342 5.35263 13.4124 5.6379 13.2874C5.77251 13.2265 5.9082 13.2265 6.04387 13.2874C6.15926 13.3365 6.23725 13.4198 6.27893 13.5374C6.64217 14.4572 7.01077 15.375 7.37721 16.2948C7.74367 17.2147 8.08769 18.0684 8.44131 18.9572C8.45306 18.9818 8.46375 19.0075 8.4723 19.032C8.49688 19.0983 8.53854 19.1506 8.59516 19.1912C8.65179 19.2318 8.71589 19.2532 8.78533 19.2542C8.86119 19.2596 8.93064 19.2414 8.99368 19.1998C9.05669 19.1581 9.10158 19.1015 9.12615 19.0299C9.2426 18.735 9.35479 18.438 9.46804 18.141C10.0524 16.6164 10.6443 15.0929 11.2202 13.563C11.2415 13.4989 11.2757 13.4423 11.3217 13.3931C11.3676 13.344 11.4221 13.3066 11.4841 13.281C11.546 13.2542 11.6112 13.2425 11.6785 13.2446C11.7458 13.2457 11.8099 13.2617 11.8708 13.2906C12.3719 13.516 12.8751 13.7286 13.3729 13.9604C14.2212 14.3547 15.0684 14.7489 15.9071 15.1613C16.2437 15.3226 16.5247 15.5513 16.7522 15.8483C16.9787 16.1442 17.1262 16.4754 17.1935 16.8419C17.2533 17.1079 17.2682 17.3835 17.3035 17.656C17.3623 18.1656 17.4189 18.6731 17.4787 19.1795C17.4937 19.2649 17.4947 19.3515 17.4809 19.4369C17.4659 19.5224 17.4381 19.6036 17.3964 19.6805C17.3548 19.7564 17.3014 19.8237 17.2362 19.8814C17.171 19.9402 17.0984 19.985 17.0182 20.0181C16.3131 20.3504 15.592 20.6443 14.8559 20.9007C13.7223 21.3003 12.562 21.5877 11.3729 21.7639C10.5791 21.8728 9.78106 21.9284 8.97977 21.9304Z" fill="#A61111"/>
</g>
<mask id="mask1_2221_764" style="mask-type:luminance" maskUnits="userSpaceOnUse" x="4" y="2" width="9" height="11">
<path d="M4.88989 2.19775H12.8215V12.6796H4.88989V2.19775Z" fill="white"/>
</mask>
<g mask="url(#mask1_2221_764)">
<path d="M11.4048 3.85257L11.5362 3.86859C11.704 3.87821 11.8568 3.93056 11.9935 4.02671C12.1313 4.12394 12.2339 4.24894 12.2991 4.40385C12.4145 4.65813 12.4668 4.92521 12.4593 5.20513C12.4593 5.55877 12.4305 5.91239 12.4155 6.26816C12.4155 6.54701 12.3803 6.82586 12.3653 7.1015L12.5341 7.24145C12.6324 7.32264 12.6826 7.42736 12.6837 7.55448C12.6933 7.88568 12.6484 8.20941 12.5501 8.52457C12.4828 8.78954 12.3301 8.98824 12.0897 9.11967C12.0234 9.52671 11.9016 9.91667 11.7232 10.2895C11.5384 10.6934 11.298 11.0598 11.001 11.39C10.704 11.7211 10.3653 11.9989 9.9839 12.2265C9.63988 12.4327 9.26701 12.5459 8.86638 12.5673C8.51702 12.5791 8.18262 12.5107 7.86531 12.3643C7.32365 12.1143 6.86745 11.7564 6.49458 11.2906C5.97534 10.6859 5.64416 9.99146 5.49992 9.20726C5.49992 9.17842 5.49992 9.15384 5.4839 9.12287C5.22855 8.97329 5.06831 8.75427 5.00527 8.46582C4.92513 8.17842 4.88667 7.88675 4.88989 7.58867C4.88347 7.43803 4.94117 7.31731 5.06189 7.2265L5.20827 7.10685C5.19329 6.83226 5.17407 6.55341 5.16125 6.27458C5.1495 5.9968 5.12066 5.63034 5.1121 5.30769C5.10141 4.98611 5.1527 4.67522 5.26808 4.37499C5.3824 4.07479 5.55013 3.80769 5.77237 3.57479C6.30974 2.9968 6.96146 2.61005 7.72749 2.41667C8.54267 2.19124 9.35356 2.20299 10.1623 2.45085C10.4016 2.52351 10.6217 2.63356 10.8226 2.78312C10.9796 2.89103 11.1068 3.02777 11.205 3.19124C11.3033 3.35471 11.3642 3.53206 11.3856 3.72115C11.392 3.77458 11.3984 3.8248 11.4048 3.85257Z" fill="black"/>
</g>
<mask id="mask2_2221_764" style="mask-type:luminance" maskUnits="userSpaceOnUse" x="22" y="13" width="18" height="9">
<path d="M22.2468 13.2266H39.8515V21.8505H22.2468V13.2266Z" fill="white"/>
</mask>
<g mask="url(#mask2_2221_764)">
<path d="M31.2255 21.9304C29.0278 21.936 26.8932 21.5684 24.8239 20.8291C24.1346 20.5844 23.4596 20.3066 22.7993 19.9936C22.7191 19.9594 22.6475 19.9134 22.5845 19.8547C22.5203 19.797 22.468 19.7297 22.4263 19.6538C22.3857 19.578 22.358 19.4978 22.3441 19.4124C22.3301 19.328 22.3301 19.2425 22.3451 19.1581C22.4327 18.422 22.5043 17.6837 22.6112 16.9487C22.6325 16.7564 22.6784 16.5694 22.748 16.3889C22.8173 16.2072 22.9082 16.0384 23.0214 15.8814C23.1346 15.7233 23.2651 15.5822 23.4136 15.4583C23.5632 15.3344 23.7254 15.2318 23.9008 15.1496C24.9295 14.6357 25.9744 14.157 27.03 13.6656C27.311 13.5342 27.5995 13.4124 27.8836 13.2874C28.0194 13.2265 28.1549 13.2265 28.2907 13.2874C28.406 13.3365 28.484 13.4198 28.5258 13.5374C28.8879 14.4572 29.2575 15.375 29.6241 16.2948C29.9894 17.2147 30.3334 18.0684 30.6871 18.9572C30.6987 18.9818 30.7094 19.0075 30.7191 19.032C30.7437 19.0983 30.7843 19.1506 30.8409 19.1912C30.8985 19.2318 30.9617 19.2532 31.0321 19.2542C31.1069 19.2596 31.1763 19.2414 31.2405 19.1998C31.3035 19.1581 31.3474 19.1015 31.373 19.0299C31.4883 18.735 31.6015 18.438 31.7137 18.141C32.2992 16.6164 32.8901 15.0929 33.4659 13.563C33.4883 13.4989 33.5225 13.4423 33.5685 13.3931C33.6144 13.344 33.6688 13.3066 33.7309 13.281C33.7929 13.2542 33.8579 13.2425 33.9252 13.2446C33.9927 13.2457 34.0567 13.2617 34.1166 13.2906C34.6175 13.516 35.1219 13.7286 35.6187 13.9604C36.4669 14.3547 37.3152 14.7489 38.1539 15.1613C38.4905 15.3226 38.7714 15.5513 38.998 15.8483C39.2245 16.1442 39.372 16.4754 39.4403 16.8419C39.4989 17.1079 39.5149 17.3835 39.5492 17.656C39.6091 18.1656 39.6647 18.6731 39.7244 19.1795C39.7404 19.2649 39.7404 19.3515 39.7266 19.4369C39.7127 19.5224 39.685 19.6036 39.6432 19.6805C39.6005 19.7564 39.5482 19.8237 39.4829 19.8814C39.4177 19.9402 39.3451 19.985 39.2651 20.0181C38.5599 20.3504 37.8388 20.6443 37.1026 20.9007C35.9691 21.3003 34.8079 21.5877 33.6198 21.7639C32.8249 21.8728 32.0278 21.9284 31.2255 21.9304Z" fill="#A61111"/>
</g>
<mask id="mask3_2221_764" style="mask-type:luminance" maskUnits="userSpaceOnUse" x="27" y="2" width="8" height="11">
<path d="M27.0439 2.19775H34.9754V12.6796H27.0439V2.19775Z" fill="white"/>
</mask>
<g mask="url(#mask3_2221_764)">
<path d="M33.6507 3.85257L33.7822 3.86859C33.9497 3.87821 34.1026 3.93056 34.2404 4.02671C34.3783 4.12394 34.4798 4.24894 34.5458 4.40385C34.6603 4.65813 34.7136 4.92521 34.7052 5.20513C34.7052 5.55877 34.6773 5.91239 34.6613 6.26816C34.6613 6.54701 34.6271 6.82586 34.6111 7.1015L34.7799 7.24145C34.8792 7.32264 34.9294 7.42736 34.9305 7.55448C34.9391 7.88568 34.8942 8.20941 34.7959 8.52457C34.7296 8.78954 34.5758 8.98824 34.3366 9.11967C34.2704 9.52671 34.1475 9.91667 33.9701 10.2895C33.7852 10.6934 33.5438 11.0598 33.2468 11.39C32.9508 11.7211 32.6111 11.9989 32.2297 12.2265C31.8857 12.4327 31.5138 12.5459 31.1132 12.5673C30.7629 12.5791 30.4295 12.5107 30.1112 12.3643C29.5705 12.1143 29.1132 11.7564 28.7415 11.2906C28.2222 10.6859 27.8901 9.99146 27.7456 9.20726C27.7456 9.17842 27.7456 9.15384 27.7309 9.12287C27.4745 8.97329 27.3151 8.75427 27.2511 8.46582C27.1721 8.17842 27.1335 7.88675 27.1356 7.58867C27.1303 7.43803 27.1881 7.31731 27.3077 7.2265L27.4552 7.10685C27.4392 6.83226 27.4209 6.55341 27.4082 6.27458C27.3953 5.9968 27.3676 5.63034 27.358 5.30769C27.3473 4.98611 27.3996 4.67522 27.5139 4.37499C27.6283 4.07479 27.7969 3.80769 28.0183 3.57479C28.5567 2.9968 29.2084 2.61005 29.9744 2.41667C30.7885 2.19124 31.6004 2.20299 32.4082 2.45085C32.6474 2.52351 32.8675 2.63356 33.0683 2.78312C33.2254 2.89103 33.3536 3.02777 33.4519 3.19124C33.5502 3.35471 33.6101 3.53206 33.6324 3.72115C33.6377 3.77458 33.6443 3.8248 33.6507 3.85257Z" fill="black"/>
</g>
<mask id="mask4_2221_764" style="mask-type:luminance" maskUnits="userSpaceOnUse" x="7" y="15" width="26" height="13">
<path d="M7.625 15.4146H32.2404V27.8408H7.625V15.4146Z" fill="white"/>
</mask>
<g mask="url(#mask4_2221_764)">
<path d="M20.2082 27.8225C17.1057 27.8311 14.0929 27.313 11.1719 26.2693C10.1986 25.9251 9.24564 25.5331 8.31403 25.0918C8.20184 25.0438 8.10035 24.9786 8.0106 24.8963C7.92086 24.8151 7.84607 24.7199 7.78839 24.6133C7.73069 24.5064 7.69116 24.3932 7.67192 24.2734C7.65163 24.1527 7.6527 24.033 7.673 23.9134C7.79692 22.8771 7.89842 21.8354 8.04907 20.7981C8.07897 20.5267 8.14308 20.2638 8.24137 20.0085C8.33967 19.7542 8.46894 19.5149 8.62812 19.2927C8.7873 19.0715 8.97214 18.8728 9.18154 18.6976C9.39202 18.5234 9.62063 18.3781 9.86851 18.2617C11.3215 17.5373 12.7969 16.8632 14.2852 16.1698C14.6826 15.985 15.0897 15.813 15.4914 15.6367C15.6826 15.5501 15.8738 15.5501 16.0651 15.6367C16.2286 15.7051 16.3386 15.8226 16.3963 15.9892C16.9091 17.2862 17.4305 18.579 17.9476 19.876C18.4636 21.1731 18.9497 22.3782 19.4486 23.6313C19.4657 23.6656 19.4807 23.7008 19.4935 23.7372C19.5277 23.8291 19.5854 23.9037 19.6666 23.9603C19.7467 24.0182 19.8364 24.0479 19.9347 24.0502C20.0416 24.0576 20.1399 24.0309 20.2296 23.9722C20.3183 23.9134 20.3813 23.8334 20.4166 23.7328C20.58 23.3173 20.7392 22.8984 20.8974 22.4797C21.7232 20.3311 22.5587 18.1815 23.3718 16.0245C23.4028 15.9348 23.4508 15.8546 23.5148 15.7862C23.58 15.7168 23.6569 15.6634 23.7445 15.6271C23.8321 15.5897 23.924 15.5726 24.0192 15.5758C24.1142 15.5779 24.204 15.5993 24.2906 15.641C24.9966 15.9583 25.7082 16.2585 26.4102 16.5843C27.6067 17.141 28.8044 17.6965 29.9882 18.2788C30.2221 18.391 30.4401 18.5288 30.6409 18.6922C30.8428 18.8557 31.0223 19.0405 31.1794 19.2467C31.3376 19.4518 31.4688 19.6741 31.5747 19.9102C31.6805 20.1474 31.7564 20.3931 31.8034 20.6483C31.8877 21.0235 31.909 21.4112 31.9583 21.7958C32.0416 22.5148 32.1218 23.2297 32.205 23.9443C32.2274 24.0652 32.2286 24.1858 32.2083 24.3076C32.189 24.4284 32.1495 24.5427 32.0898 24.6506C32.0309 24.7575 31.956 24.8524 31.8643 24.9347C31.7724 25.0159 31.6699 25.0801 31.5566 25.1271C30.5607 25.595 29.5437 26.0106 28.5041 26.3706C26.9037 26.9337 25.266 27.3396 23.5876 27.5886C22.4668 27.7425 21.3406 27.8204 20.2082 27.8225Z" fill="black"/>
</g>
<mask id="mask5_2221_764" style="mask-type:luminance" maskUnits="userSpaceOnUse" x="14" y="0" width="12" height="15">
<path d="M14.1892 0H25.6764V14.8675H14.1892V0Z" fill="white"/>
</mask>
<g mask="url(#mask5_2221_764)">
<path d="M23.6326 2.33331L23.8174 2.35575C23.934 2.36215 24.0472 2.38459 24.1573 2.42199C24.2663 2.46045 24.3688 2.5128 24.465 2.57903C24.56 2.64527 24.6445 2.72432 24.7171 2.81407C24.7908 2.90488 24.8496 3.00318 24.8956 3.11001C25.0578 3.46898 25.1327 3.84613 25.121 4.2393C25.121 4.73823 25.0814 5.23714 25.0589 5.7393C25.0589 6.13245 25.0098 6.52562 24.9885 6.91343L25.2267 7.11216C25.3666 7.22648 25.4371 7.37284 25.4382 7.55339C25.4511 8.0192 25.3881 8.4754 25.2492 8.92092C25.2043 9.09934 25.1251 9.26172 25.0119 9.4081C24.8987 9.55339 24.7621 9.67091 24.5996 9.75959C24.5067 10.3344 24.3335 10.8835 24.0825 11.4092C23.8217 11.9786 23.481 12.4957 23.0622 12.9615C22.6433 13.4273 22.1647 13.8205 21.6273 14.141C21.1413 14.4305 20.6156 14.5908 20.0504 14.6218C19.5558 14.6367 19.0846 14.5416 18.637 14.3344C17.8731 13.9818 17.2278 13.4775 16.7021 12.8216C15.9692 11.9679 15.5002 10.9882 15.2972 9.88246C15.2972 9.84293 15.2972 9.80767 15.2748 9.76385C15.1028 9.66344 14.9575 9.53202 14.84 9.3707C14.7224 9.21044 14.6423 9.03202 14.5996 8.83757C14.4874 8.43267 14.4329 8.02135 14.4361 7.60147C14.4318 7.50211 14.4521 7.40703 14.4949 7.31622C14.5376 7.22541 14.5985 7.15062 14.6786 7.08972L14.887 6.92199C14.8645 6.53417 14.8378 6.141 14.8207 5.7489C14.8026 5.35575 14.763 4.83971 14.7491 4.38566C14.7352 3.93161 14.8079 3.49355 14.9703 3.06941C15.1316 2.64527 15.3688 2.26921 15.6818 1.94121C16.0536 1.54164 16.4746 1.20296 16.9436 0.926256C17.4137 0.648478 17.9126 0.442281 18.4425 0.308734C19.0056 0.152751 19.5793 0.079033 20.1637 0.0875801C20.7481 0.0961271 21.3196 0.185871 21.8784 0.35681C22.217 0.458307 22.527 0.614289 22.8111 0.824759C23.0322 0.977538 23.2127 1.16985 23.3518 1.40061C23.4907 1.63138 23.575 1.88032 23.606 2.14849C23.6146 2.22326 23.623 2.29378 23.6326 2.33331Z" fill="black"/>
</g>
<path d="M19.0342 18.1251H18.8301C18.7863 18.1262 18.7436 18.1187 18.7019 18.1016C18.6613 18.0856 18.625 18.0621 18.594 18.0311C18.562 17.999 18.5385 17.9627 18.5224 17.9221C18.5054 17.8805 18.4979 17.8377 18.4989 17.7939C18.4925 17.6646 18.4925 17.5354 18.4989 17.4061C18.4989 17.0482 18.4989 16.6956 18.4989 16.3377C18.4989 15.9809 18.6143 15.8965 18.9413 15.8965H20.9467C21.2821 15.8965 21.3879 16.0119 21.3879 16.3377V17.6614C21.3879 18.0097 21.3044 18.1027 20.9467 18.1251L20.8451 18.1518C20.8451 18.2886 20.8804 18.4253 20.9028 18.5568C20.9508 18.8837 21.0043 19.2149 21.0609 19.5461C21.0962 19.7191 21.0802 19.889 21.0129 20.0525C20.6816 20.8996 20.359 21.747 20.0321 22.5942C20.0096 22.6561 19.984 22.7181 19.9434 22.8153C19.9124 22.7544 19.8846 22.6934 19.86 22.6294C19.5096 21.747 19.1592 20.8752 18.8088 20.0129C18.7522 19.8698 18.7404 19.7224 18.7735 19.5717C18.8568 19.1305 18.937 18.7245 19.0203 18.3014C19.0246 18.2437 19.0246 18.1999 19.0342 18.1251Z" fill="#A61111"/>
</g>
<defs>
<clipPath id="clip0_2221_764">
<rect width="40" height="27.8974" fill="white"/>
</clipPath>
</defs>
</svg>
