<svg width="24" height="25" viewBox="0 0 24 25" fill="none" xmlns="http://www.w3.org/2000/svg">
<path d="M17.4537 14.7195C18.387 13.251 18.9346 11.5087 18.9346 9.6358C18.9346 4.40283 14.6972 0.15918 9.4704 0.15918C4.23742 0.15918 0 4.40283 0 9.6358C0 14.8688 4.23742 19.1124 9.46418 19.1124C11.362 19.1124 13.1291 18.5524 14.6101 17.5942L15.0394 17.2955L21.7969 24.053L23.8938 21.9187L17.1426 15.1613L17.4537 14.7195ZM14.7719 4.3406C16.1843 5.75307 16.9621 7.63221 16.9621 9.62958C16.9621 11.627 16.1843 13.5061 14.7719 14.9186C13.3594 16.3311 11.4802 17.1089 9.48285 17.1089C7.48547 17.1089 5.60634 16.3311 4.19386 14.9186C2.78139 13.5061 2.00359 11.627 2.00359 9.62958C2.00359 7.63221 2.78139 5.75307 4.19386 4.3406C5.60634 2.92812 7.48547 2.15033 9.48285 2.15033C11.4802 2.15033 13.3594 2.92812 14.7719 4.3406Z" fill="black"/>
</svg>
