<svg width="20" height="26" viewBox="0 0 20 26" fill="none" xmlns="http://www.w3.org/2000/svg">
<path d="M19.2283 12.1199L17.0483 3.57994C16.9646 3.20652 16.7943 2.85802 16.551 2.5626C16.3078 2.26716 15.9984 2.0331 15.648 1.8793C15.2976 1.72551 14.9159 1.65629 14.5338 1.67725C14.1517 1.6982 13.7798 1.80875 13.4483 1.99994L5.84834 6.39994C5.38422 6.66258 5.01892 7.07002 4.80834 7.55994L0.188334 18.3399C0.0640128 18.6377 0 18.9572 0 19.2799C0 19.6027 0.0640128 19.9221 0.188334 20.2199C0.30778 20.5201 0.486112 20.7933 0.712818 21.0233C0.939522 21.2535 1.21001 21.4359 1.50833 21.5599L11.2883 25.7599C11.6001 25.8857 11.9322 25.9535 12.2683 25.9599C12.7472 25.9551 13.2142 25.8105 13.6121 25.5441C14.01 25.2777 14.3215 24.9009 14.5083 24.4599L19.1283 13.6799C19.3411 13.1872 19.3765 12.6359 19.2283 12.1199ZM17.6483 13.0199L12.9483 23.7999C12.9122 23.8957 12.8561 23.9829 12.7837 24.0553C12.7112 24.1277 12.6242 24.1839 12.5283 24.2199C12.4333 24.2595 12.3313 24.2799 12.2283 24.2799C12.1254 24.2799 12.0234 24.2595 11.9283 24.2199L2.14834 19.9999C2.04902 19.9683 1.95705 19.9172 1.87785 19.8494C1.79865 19.7817 1.73383 19.6987 1.68722 19.6055C1.64061 19.5123 1.61315 19.4107 1.60648 19.3067C1.5998 19.2027 1.61403 19.0984 1.64833 18.9999L6.34834 8.21994C6.40906 8.06588 6.52244 7.93832 6.66834 7.85994L14.2883 3.51994C14.3996 3.44174 14.5323 3.39984 14.6683 3.39994C14.7675 3.38194 14.8691 3.38194 14.9683 3.39994C15.0808 3.44386 15.1812 3.51392 15.2612 3.60436C15.3412 3.69478 15.3985 3.80296 15.4283 3.91994L17.6483 12.5399C17.6988 12.696 17.6988 12.8639 17.6483 13.0199Z" fill="white"/>
<path d="M12.4885 11.38C13.4936 11.38 14.3085 10.5651 14.3085 9.55999C14.3085 8.55483 13.4936 7.73999 12.4885 7.73999C11.4833 7.73999 10.6685 8.55483 10.6685 9.55999C10.6685 10.5651 11.4833 11.38 12.4885 11.38Z" fill="white"/>
</svg>
