<svg width="32" height="28" viewBox="0 0 32 28" fill="none" xmlns="http://www.w3.org/2000/svg">
<path d="M21.9765 18.3473V19.828H15.1834V18.5598L18.4189 15.0776C18.7479 14.7028 19.0084 14.3761 19.2004 14.0973C19.3923 13.8186 19.5294 13.5672 19.6116 13.3433C19.6985 13.1148 19.7419 12.8977 19.7419 12.6921C19.7419 12.3859 19.6893 12.1209 19.5842 11.8969C19.4791 11.673 19.326 11.4993 19.1249 11.376C18.9239 11.2526 18.6771 11.1909 18.3846 11.1909C18.0647 11.1909 17.7905 11.2663 17.562 11.4171C17.3381 11.5679 17.1668 11.7758 17.0479 12.0409C16.9337 12.3059 16.8766 12.6075 16.8766 12.9457H14.9846C14.9846 12.3516 15.1217 11.8101 15.3959 11.3211C15.6747 10.8321 16.0723 10.4414 16.5887 10.1489C17.1051 9.85189 17.7151 9.70337 18.4189 9.70337C19.1135 9.70337 19.6985 9.81763 20.1737 10.0461C20.6536 10.2701 21.0169 10.5922 21.2637 11.0127C21.5104 11.4331 21.6338 11.9312 21.6338 12.507C21.6338 12.8315 21.5813 13.1513 21.4762 13.4667C21.3711 13.7774 21.2225 14.0859 21.0306 14.3921C20.8387 14.6983 20.6102 15.009 20.3451 15.3243C20.08 15.6351 19.783 15.955 19.454 16.284L17.61 18.3473H21.9765ZM30.1749 16.1469V17.6275H22.9842L22.902 16.4828L27.0971 9.84731H28.5983L26.9669 12.5893L24.7939 16.1469H30.1749ZM29.0165 9.84731V19.828H27.1245V9.84731H29.0165Z" fill="#ED1C24"/>
<mask id="mask0_2237_1943" style="mask-type:luminance" maskUnits="userSpaceOnUse" x="0" y="5" width="21" height="21">
<path d="M10.1193 5.12695L20.2385 15.2462L10.1193 25.3655L0 15.2462L10.1193 5.12695Z" fill="white"/>
</mask>
<g mask="url(#mask0_2237_1943)">
<path d="M12.6852 22.5494C12.5613 22.8208 12.3924 23.0759 12.1773 23.3043C12.1579 23.3268 12.1365 23.3481 12.1147 23.3699C11.0131 24.4716 9.22605 24.4716 8.12439 23.3699C3.63731 18.8829 3.63731 11.6088 8.124 7.12217C9.22566 6.02047 11.0127 6.02047 12.1144 7.12217C12.1365 7.1443 12.1575 7.16525 12.1773 7.18817C12.3924 7.4165 12.5621 7.67241 12.6856 7.94344L10.1918 11.9354C10.1899 11.9373 10.1883 11.9373 10.186 11.9366L8.19466 11.1801L8.18921 11.1778C6.90001 13.7275 6.90001 16.7642 8.18921 19.3147L8.19505 19.312L10.1875 18.5559L12.6852 22.5494Z" fill="#ED1C24"/>
</g>
<path d="M13.6 6.44293C12.7226 5.39004 11.4796 5.12681 10.9678 5.12681C13.0736 3.1965 16.671 2.71392 18.2065 2.71393V0.301025L24.3484 4.03005L18.2065 7.53972V5.12681C15.5742 4.95134 14.0387 5.9311 13.6 6.44293Z" fill="black" stroke="black" stroke-width="0.0438709"/>
<path d="M11.4839 25.7878C12.9831 25.2325 13.7285 24.396 13.9138 24.0471C17.347 25.8018 21.2817 24.0502 22.8199 22.955C24.417 22.7738 24.6752 23.9491 24.4534 24.6618C19.746 28.423 13.8456 26.9797 11.4839 25.7878Z" fill="black" stroke="black" stroke-width="0.0438709"/>
</svg>
