<svg width="68" height="69" viewBox="0 0 68 69" fill="none" xmlns="http://www.w3.org/2000/svg">
<mask id="mask0_2221_938" style="mask-type:luminance" maskUnits="userSpaceOnUse" x="0" y="0" width="68" height="69">
<path d="M0 0.53125H67.8646V68.3906H0V0.53125Z" fill="white"/>
</mask>
<g mask="url(#mask0_2221_938)">
<path d="M67.8646 34.4635C67.8646 35.5729 67.8125 36.6823 67.7032 37.7865C67.5938 38.8958 67.4323 39.9896 67.2136 41.0833C66.9948 42.1719 66.7292 43.25 66.4063 44.3125C66.0834 45.375 65.7084 46.4219 65.2813 47.4479C64.8594 48.474 64.3803 49.4792 63.8594 50.4583C63.3334 51.4375 62.7657 52.3906 62.1459 53.3125C61.5313 54.2396 60.8698 55.1302 60.1615 55.9896C59.4584 56.849 58.7136 57.6719 57.9271 58.4531C57.1407 59.2396 56.3178 59.9844 55.4584 60.6927C54.599 61.3958 53.7084 62.0573 52.7865 62.6771C51.8594 63.2917 50.9115 63.8646 49.9271 64.3854C48.948 64.9115 47.948 65.3854 46.9167 65.8125C45.8907 66.2344 44.849 66.6094 43.7865 66.9323C42.7188 67.2552 41.6459 67.526 40.5521 67.7396C39.4636 67.9583 38.3646 68.1198 37.2605 68.2292C36.1563 68.3385 35.0469 68.3958 33.9323 68.3958C32.823 68.3958 31.7136 68.3385 30.6094 68.2292C29.5052 68.1198 28.4063 67.9583 27.3125 67.7396C26.224 67.526 25.1459 67.2552 24.0834 66.9323C23.0209 66.6094 21.974 66.2344 20.948 65.8125C19.9219 65.3854 18.9219 64.9115 17.9375 64.3854C16.9584 63.8646 16.0052 63.2917 15.0834 62.6771C14.1615 62.0573 13.2657 61.3958 12.4063 60.6927C11.5521 59.9844 10.7292 59.2396 9.94275 58.4531C9.15629 57.6719 8.4115 56.849 7.70317 55.9896C7.00004 55.1302 6.33858 54.2396 5.724 53.3125C5.10421 52.3906 4.53129 51.4375 4.01046 50.4583C3.48442 49.4792 3.01046 48.474 2.58858 47.4479C2.1615 46.4219 1.7865 45.375 1.46358 44.3125C1.14067 43.25 0.869832 42.1719 0.656291 41.0833C0.43754 39.9896 0.276082 38.8958 0.166707 37.7865C0.0573327 36.6823 0.00524902 35.5729 0.00524902 34.4635C0.00524902 33.349 0.0573327 32.2448 0.166707 31.1354C0.276082 30.0313 0.43754 28.9323 0.656291 27.8438C0.869832 26.7552 1.14067 25.6771 1.46358 24.6146C1.7865 23.5469 2.1615 22.5052 2.58858 21.4792C3.01046 20.4531 3.48442 19.4479 4.01046 18.4688C4.53129 17.4896 5.10421 16.5365 5.724 15.6094C6.33858 14.6875 7.00004 13.7969 7.70317 12.9375C8.4115 12.0781 9.15629 11.2552 9.94275 10.4688C10.7292 9.68229 11.5521 8.9375 12.4063 8.23438C13.2657 7.52604 14.1615 6.86979 15.0834 6.25C16.0052 5.63021 16.9584 5.0625 17.9375 4.53646C18.9219 4.01563 19.9219 3.54167 20.948 3.11458C21.974 2.6875 23.0209 2.31771 24.0834 1.99479C25.1459 1.67187 26.224 1.40104 27.3125 1.18229C28.4063 0.968749 29.5052 0.802083 30.6094 0.692708C31.7136 0.588542 32.823 0.53125 33.9323 0.53125C35.0469 0.53125 36.1563 0.588542 37.2605 0.692708C38.3646 0.802083 39.4636 0.968749 40.5521 1.18229C41.6459 1.40104 42.7188 1.67187 43.7865 1.99479C44.849 2.31771 45.8907 2.6875 46.9167 3.11458C47.948 3.54167 48.948 4.01563 49.9271 4.53646C50.9115 5.0625 51.8594 5.63021 52.7865 6.25C53.7084 6.86979 54.599 7.52604 55.4584 8.23438C56.3178 8.9375 57.1407 9.68229 57.9271 10.4688C58.7136 11.2552 59.4584 12.0781 60.1615 12.9375C60.8698 13.7969 61.5313 14.6875 62.1459 15.6094C62.7657 16.5365 63.3334 17.4896 63.8594 18.4688C64.3803 19.4479 64.8594 20.4531 65.2813 21.4792C65.7084 22.5052 66.0834 23.5469 66.4063 24.6146C66.7292 25.6771 66.9948 26.7552 67.2136 27.8438C67.4323 28.9323 67.5938 30.0313 67.7032 31.1354C67.8125 32.2448 67.8646 33.349 67.8646 34.4635Z" fill="#FF0000"/>
</g>
<path fill-rule="evenodd" clip-rule="evenodd" d="M11.8906 41.0104V27.9115H27.3854V12.4219H40.4844V27.9115H55.9792V41.0104H40.4844V56.5052H27.3854V41.0104H11.8906Z" fill="white"/>
</svg>
