<svg width="68" height="69" viewBox="0 0 68 69" fill="none" xmlns="http://www.w3.org/2000/svg">
<mask id="mask0_2221_939" style="mask-type:luminance" maskUnits="userSpaceOnUse" x="0" y="0" width="45" height="40">
<path d="M0 0.770752H44.526V39.3333H0V0.770752Z" fill="white"/>
</mask>
<g mask="url(#mask0_2221_939)">
<path d="M44.1094 2.46867V2.32804C40.8958 1.31763 37.4792 0.770752 33.9323 0.770752C15.1875 0.770752 0 15.9635 0 34.703C0 35.8489 0.0625003 36.9791 0.171875 38.0937H44.1094V2.46867Z" fill="#3F51B5"/>
</g>
<path d="M44.1094 12.6459H59.6823C58.0625 10.7553 56.224 9.05737 54.224 7.55737H44.1094V12.6459Z" fill="#ECEFF1"/>
<mask id="mask1_2221_939" style="mask-type:luminance" maskUnits="userSpaceOnUse" x="0" y="38" width="68" height="6">
<path d="M0 38H67.8594V43.3333H0V38Z" fill="white"/>
</mask>
<g mask="url(#mask1_2221_939)">
<path d="M67.6875 38.0938H0.171875C0.34375 39.8385 0.682293 41.5313 1.11458 43.1875H66.75C67.1771 41.5313 67.5156 39.8385 67.6875 38.0938Z" fill="#ECEFF1"/>
</g>
<path d="M58.1406 58.4531H9.71875C11.6302 60.401 13.7865 62.099 16.1198 63.5417H51.7396C54.0729 62.099 56.2292 60.401 58.1406 58.4531Z" fill="#ECEFF1"/>
<path d="M65.0209 48.2761H2.83862C3.61987 50.0574 4.54696 51.7605 5.60425 53.3647H62.2553C63.3126 51.7605 64.2397 50.0574 65.0209 48.2761Z" fill="#ECEFF1"/>
<path d="M44.1094 22.828H65.6823C65.0208 21.0572 64.224 19.3541 63.2865 17.7395H44.1094V22.828Z" fill="#ECEFF1"/>
<mask id="mask2_2221_939" style="mask-type:luminance" maskUnits="userSpaceOnUse" x="43" y="27" width="25" height="7">
<path d="M43.1927 27.3333H67.8594V33.9999H43.1927V27.3333Z" fill="white"/>
</mask>
<g mask="url(#mask2_2221_939)">
<path d="M44.1094 33.005H67.776C67.6875 31.2759 67.5156 29.5675 67.1823 27.9165H44.1094V33.005Z" fill="#ECEFF1"/>
</g>
<path d="M44.1094 7.55729H54.2292C51.3021 5.36979 48.0313 3.63021 44.4896 2.46875H44.1094V7.55729Z" fill="#F44336"/>
<path d="M44.1094 17.7395H63.2865C62.2396 15.927 61.0365 14.2239 59.6875 12.6458H44.1094V17.7395Z" fill="#F44336"/>
<path d="M44.1094 27.9167H67.1771C66.8229 26.1615 66.2969 24.474 65.6823 22.8281H44.1094V27.9167Z" fill="#F44336"/>
<mask id="mask3_2221_939" style="mask-type:luminance" maskUnits="userSpaceOnUse" x="43" y="32" width="25" height="8">
<path d="M43.1927 32.6667H67.8594V39.3334H43.1927V32.6667Z" fill="white"/>
</mask>
<g mask="url(#mask3_2221_939)">
<path d="M44.1094 38.0939H67.6875C67.8021 36.9793 67.8594 35.8491 67.8594 34.7033C67.8594 34.1304 67.8021 33.5731 67.776 33.0054H44.1094V38.0939Z" fill="#F44336"/>
</g>
<path d="M66.75 43.1875H1.11462C1.56254 44.9375 2.13025 46.6458 2.84379 48.276H65.0209C65.7292 46.6458 66.2969 44.9375 66.75 43.1875Z" fill="#F44336"/>
<path d="M62.2553 53.3645H5.60425C6.81258 55.1926 8.18758 56.8958 9.71883 58.453H58.1407C59.672 56.8958 61.047 55.1926 62.2553 53.3645Z" fill="#F44336"/>
<mask id="mask4_2221_939" style="mask-type:luminance" maskUnits="userSpaceOnUse" x="15" y="63" width="38" height="6">
<path d="M15.1927 63.3333H52.5261V68.6353H15.1927V63.3333Z" fill="white"/>
</mask>
<g mask="url(#mask4_2221_939)">
<path d="M16.1198 63.5415C21.3021 66.7498 27.3906 68.6353 33.9323 68.6353C40.474 68.6353 46.5573 66.7498 51.7396 63.5415H16.1198Z" fill="#F44336"/>
</g>
<path d="M10.6042 16.0417L11.3907 17.7188L13.1459 17.9792L11.8751 19.2865L12.1824 21.1303L10.6042 20.2605L9.02612 21.1303L9.32821 19.2865L8.05737 17.9792L9.81258 17.7188L10.6042 16.0417Z" fill="white"/>
<path d="M17.3906 16.0417L18.1771 17.7188L19.9323 17.9792L18.6615 19.2865L18.9688 21.1303L17.3906 20.2605L15.8125 21.1303L16.1146 19.2865L14.8438 17.9792L16.599 17.7188L17.3906 16.0417Z" fill="white"/>
<path d="M3.81779 20.2605L5.39591 21.1303L5.08862 19.2865L6.35946 17.9792L4.60425 17.7188L4.59904 17.698C4.03654 18.6615 3.52612 19.6563 3.05737 20.6772L3.81779 20.2605Z" fill="white"/>
<path d="M24.1771 16.0417L24.9636 17.7188L26.7188 17.9792L25.448 19.2865L25.7552 21.1303L24.1771 20.2605L22.599 21.1303L22.9011 19.2865L21.6302 17.9792L23.3855 17.7188L24.1771 16.0417Z" fill="white"/>
<path d="M30.9636 16.0417L31.7501 17.7188L33.5053 17.9792L32.2345 19.2865L32.5365 21.1303L30.9636 20.2605L29.3855 21.1303L29.6876 19.2865L28.4167 17.9792L30.172 17.7188L30.9636 16.0417Z" fill="white"/>
<path d="M37.323 16.0417L38.1147 17.7188L39.8699 17.9792L38.5938 19.2865L38.9011 21.1303L37.323 20.2605L35.7449 21.1303L36.0522 19.2865L34.7761 17.9792L36.5365 17.7188L37.323 16.0417Z" fill="white"/>
<path d="M10.6042 29.6145L11.3907 31.2916L13.1459 31.552L11.8751 32.8593L12.1824 34.703L10.6042 33.8333L9.02612 34.703L9.32821 32.8593L8.05737 31.552L9.81258 31.2916L10.6042 29.6145Z" fill="white"/>
<path d="M17.3906 29.6145L18.1771 31.2916L19.9323 31.552L18.6615 32.8593L18.9688 34.703L17.3906 33.8333L15.8125 34.703L16.1146 32.8593L14.8438 31.552L16.599 31.2916L17.3906 29.6145Z" fill="white"/>
<path d="M24.1771 29.6145L24.9636 31.2916L26.7188 31.552L25.448 32.8593L25.7552 34.703L24.1771 33.8333L22.599 34.703L22.9011 32.8593L21.6302 31.552L23.3855 31.2916L24.1771 29.6145Z" fill="white"/>
<path d="M3.81775 29.6145L4.60421 31.2916L6.35942 31.552L5.08858 32.8593L5.39587 34.703L3.81775 33.8333L2.23962 34.703L2.54171 32.8593L1.27087 31.552L3.02608 31.2916L3.81775 29.6145Z" fill="white"/>
<path d="M30.9636 29.6145L31.7501 31.2916L33.5053 31.552L32.2345 32.8593L32.5365 34.703L30.9636 33.8333L29.3855 34.703L29.6876 32.8593L28.4167 31.552L30.172 31.2916L30.9636 29.6145Z" fill="white"/>
<path d="M37.323 29.6145L38.1147 31.2916L39.8699 31.552L38.5938 32.8593L38.9011 34.703L37.323 33.8333L35.7449 34.703L36.0522 32.8593L34.7761 31.552L36.5365 31.2916L37.323 29.6145Z" fill="white"/>
<path d="M12.2969 22.8281L13.0886 24.5052L14.8438 24.7656L13.573 26.0729L13.875 27.9167L12.2969 27.0469L10.7188 27.9167L11.0261 26.0729L9.75525 24.7656L11.5105 24.5052L12.2969 22.8281Z" fill="white"/>
<path d="M19.0834 22.8281L19.8751 24.5052L21.6303 24.7656L20.3595 26.0729L20.6615 27.9167L19.0834 27.0469L17.5053 27.9167L17.8126 26.0729L16.5417 24.7656L18.297 24.5052L19.0834 22.8281Z" fill="white"/>
<path d="M5.51042 22.8281L6.30208 24.5052L8.05729 24.7656L6.78646 26.0729L7.08854 27.9167L5.51042 27.0469L3.9375 27.9167L4.23958 26.0729L2.96875 24.7656L4.72396 24.5052L5.51042 22.8281Z" fill="white"/>
<path d="M25.8698 22.8281L26.6615 24.5052L28.4167 24.7656L27.1458 26.0729L27.4479 27.9167L25.8698 27.0469L24.2917 27.9167L24.599 26.0729L23.3281 24.7656L25.0833 24.5052L25.8698 22.8281Z" fill="white"/>
<path d="M32.6563 22.8281L33.448 24.5052L35.2032 24.7656L33.9323 26.0729L34.2344 27.9167L32.6563 27.0469L31.0782 27.9167L31.3855 26.0729L30.1146 24.7656L31.8698 24.5052L32.6563 22.8281Z" fill="white"/>
<path d="M39.0209 22.8281L39.8073 24.5052L41.5625 24.7656L40.2917 26.0729L40.599 27.9167L39.0209 27.0469L37.4427 27.9167L37.7448 26.0729L36.474 24.7656L38.2292 24.5052L39.0209 22.8281Z" fill="white"/>
<path d="M12.2969 9.25513L13.0886 10.9322L14.8438 11.1978L13.573 12.4999L13.875 14.3437L12.2969 13.4739L10.7188 14.3437L11.0261 12.4999L9.75525 11.1978L11.5105 10.9322L12.2969 9.25513Z" fill="white"/>
<path d="M19.0834 9.25513L19.8751 10.9322L21.6303 11.1978L20.3595 12.4999L20.6615 14.3437L19.0834 13.4739L17.5053 14.3437L17.8126 12.4999L16.5417 11.1978L18.297 10.9322L19.0834 9.25513Z" fill="white"/>
<path d="M25.8698 9.25513L26.6615 10.9322L28.4167 11.1978L27.1458 12.4999L27.4479 14.3437L25.8698 13.4739L24.2917 14.3437L24.599 12.4999L23.3281 11.1978L25.0833 10.9322L25.8698 9.25513Z" fill="white"/>
<path d="M32.6563 9.25513L33.448 10.9322L35.2032 11.1978L33.9323 12.4999L34.2344 14.3437L32.6563 13.4739L31.0782 14.3437L31.3855 12.4999L30.1146 11.1978L31.8698 10.9322L32.6563 9.25513Z" fill="white"/>
<path d="M39.0209 9.25513L39.8073 10.9322L41.5625 11.1978L40.2917 12.4999L40.599 14.3437L39.0209 13.4739L37.4427 14.3437L37.7448 12.4999L36.474 11.1978L38.2292 10.9322L39.0209 9.25513Z" fill="white"/>
<path d="M18.9688 7.55721L18.6615 5.71346L19.9323 4.41138L19 4.27075C18 4.76033 17.0312 5.29679 16.0885 5.88013L15.8125 7.55721L17.3906 6.68742L18.9688 7.55721Z" fill="white"/>
<path d="M24.1771 2.46875L24.9636 4.14583L26.7188 4.41146L25.448 5.71354L25.7552 7.55729L24.1771 6.6875L22.599 7.55729L22.9011 5.71354L21.6302 4.41146L23.3855 4.14583L24.1771 2.46875Z" fill="white"/>
<path d="M30.9636 2.46875L31.7501 4.14583L33.5053 4.41146L32.2345 5.71354L32.5365 7.55729L30.9636 6.6875L29.3855 7.55729L29.6876 5.71354L28.4167 4.41146L30.172 4.14583L30.9636 2.46875Z" fill="white"/>
<path d="M37.323 2.46875L38.1147 4.14583L39.8699 4.41146L38.5938 5.71875L38.9011 7.55729L37.323 6.6875L35.7449 7.55729L36.0522 5.71354L34.7761 4.41146L36.5365 4.14583L37.323 2.46875Z" fill="white"/>
</svg>
