<svg width="75" height="75" viewBox="0 0 75 75" fill="none" xmlns="http://www.w3.org/2000/svg">
<g clip-path="url(#clip0_161_2)">
<path d="M74.0132 37.0066C74.0132 16.5662 57.4469 0 37.0066 0C16.5662 0 0 16.5662 0 37.0066C0 57.4469 16.5662 74.0132 37.0066 74.0132C57.4469 74.0132 74.0132 57.4469 74.0132 37.0066ZM59.445 23.4571C60.7695 24.7432 60.7892 26.8631 59.4889 28.1736L31.4314 56.4516C30.8085 57.0794 29.9608 57.4324 29.0765 57.4324L28.6112 57.4324C27.8313 57.4324 27.0764 57.1577 26.4789 56.6564L13.6562 45.8976C12.2564 44.7232 12.07 42.6379 13.2392 41.2337L16.5968 37.2013C17.781 35.7792 19.8998 35.6009 21.3049 36.8053L26.5377 41.2906C27.8439 42.4101 29.7891 42.3454 31.018 41.1415L34.9066 37.3321L41.2514 30.9257L47.5962 24.5192L51.6296 20.4466C52.9098 19.154 54.9922 19.1336 56.2975 20.401L59.445 23.4571Z" fill="#699F4C"/>
</g>
<defs>
<clipPath id="clip0_161_2">
<rect width="75" height="75" fill="white"/>
</clipPath>
</defs>
</svg>
