<svg width="21" height="20" viewBox="0 0 21 20" fill="none" xmlns="http://www.w3.org/2000/svg">
<g clip-path="url(#clip0_2240_2073)">
<path d="M10.0161 12C12.7775 12 15.0161 9.31371 15.0161 6C15.0161 2.68629 12.7775 0 10.0161 0C7.25469 0 5.01611 2.68629 5.01611 6C5.01611 9.31371 7.25469 12 10.0161 12Z" fill="black"/>
<path d="M19.8158 17.0999C18.9158 15.2999 17.2158 13.7999 15.0158 12.8999C14.4158 12.6999 13.7158 12.6999 13.2158 12.9999C12.2158 13.5999 11.2158 13.8999 10.0158 13.8999C8.81584 13.8999 7.81584 13.5999 6.81584 12.9999C6.31584 12.7999 5.61584 12.6999 5.01584 12.9999C2.81584 13.8999 1.11584 15.3999 0.215842 17.1999C-0.484158 18.4999 0.615842 19.9999 2.11584 19.9999H17.9158C19.4158 19.9999 20.5158 18.4999 19.8158 17.0999Z" fill="black"/>
</g>
<defs>
<clipPath id="clip0_2240_2073">
<rect width="21" height="20" fill="white"/>
</clipPath>
</defs>
</svg>
