<svg width="46" height="29" viewBox="0 0 46 29" fill="none" xmlns="http://www.w3.org/2000/svg">
<g clip-path="url(#clip0_2240_2243)">
<path d="M33.5706 20.0862L32.6463 17.8678C32.6463 17.8678 26.2444 11.2343 26.1328 11.1647L18.7513 8.6798C18.5281 8.60415 18.3024 8.53933 18.0743 8.48411L16.8643 8.19483C16.0948 8.00996 15.3661 7.68461 14.7131 7.23687L13.94 6.70508L7.48535 14.2306L8.3304 15.1597C8.72655 15.5942 9.07467 16.0708 9.36999 16.5798L10.5104 18.5437C13.9989 22.8544 15.9183 24.1581 20.5231 27.4064C20.9673 27.7197 21.654 27.8746 22.1774 27.9971C22.3094 28.0259 22.4439 28.0439 22.5783 28.0439C23.0813 28.0439 23.5831 27.847 23.9588 27.4545C24.3597 27.0331 24.5218 26.4773 24.4665 25.9407C24.8567 26.3128 25.3309 26.4881 25.8039 26.4881C26.3068 26.4881 26.8086 26.29 27.1831 25.8975C27.584 25.4773 27.7474 24.9215 27.6921 24.3838C28.0822 24.7571 28.5552 24.9324 29.0294 24.9324C29.5312 24.9324 30.0341 24.7343 30.4086 24.3417C30.8096 23.9204 30.9729 23.3646 30.9177 22.828C31.3066 23.2002 31.7808 23.3754 32.2537 23.3754C32.7567 23.3754 33.2585 23.1773 33.633 22.7848C34.3605 22.0225 34.3329 20.8149 33.5706 20.0862Z" fill="#FABB85"/>
<path d="M18.7509 8.6798C18.5276 8.60415 18.302 8.53933 18.0739 8.48411L16.8639 8.19483C16.0944 8.00996 15.3657 7.68461 14.7127 7.23687L13.9396 6.70508L13.457 7.26689L15.1917 8.51051L17.7041 9.04592C17.9299 9.09993 18.1555 9.16476 18.3812 9.23678L19.7305 9.69172C19.9237 9.51645 20.129 9.3532 20.3535 9.21877L18.7509 8.6798Z" fill="#FAD5B4"/>
<path d="M32.6462 17.8678C32.6462 17.8678 26.2443 11.2343 26.1327 11.1647L20.355 9.21997C19.7596 9.57172 19.2638 10.0795 18.9289 10.6965L17.3071 13.6868C16.8461 14.5378 17.0454 15.6255 17.8281 16.1933C18.1738 16.4441 18.5664 16.5606 18.9529 16.5606C19.6287 16.5606 20.2842 16.1992 20.6299 15.5618L22.2877 12.5055L25.2383 11.4948C25.8277 11.5488 26.5432 12.0133 26.9741 12.4263L33.2068 19.2135L32.6462 17.8678ZM20.6107 22.0621C20.0405 21.3947 19.0369 21.3179 18.3707 21.8893L15.887 24.0212C16.6733 24.6503 17.522 25.2757 18.4955 25.9719L20.4391 24.3045C21.1053 23.7331 21.1821 22.7296 20.6107 22.0621ZM18.2183 19.6276C17.6468 18.9602 16.6433 18.8834 15.9783 19.4548L13.4417 21.6312C13.4021 21.6648 13.3733 21.7032 13.3385 21.7404C14.1212 22.5291 14.8847 23.2122 15.7058 23.8772L18.0454 21.8701C18.7116 21.2987 18.7896 20.2951 18.2183 19.6276ZM19.6695 25.2433L18.7548 26.0272C18.7272 26.0511 18.7068 26.0788 18.6816 26.104C19.2494 26.5085 19.8556 26.9347 20.523 27.4064C20.7979 27.6009 21.1653 27.7342 21.5302 27.8362L21.7367 27.6585C22.4029 27.0859 22.481 26.0824 21.9095 25.4149C21.3381 24.7487 20.3346 24.6718 19.6695 25.2433ZM14.7526 18.1392C14.1824 17.4729 13.1788 17.3961 12.5126 17.9675L11.2329 19.0659C11.1742 19.1163 11.1249 19.1739 11.0757 19.2303C11.826 20.1318 12.5102 20.8917 13.1741 21.5711C13.2161 21.5412 13.2605 21.5148 13.3013 21.4811L14.5809 20.3827C15.2472 19.8113 15.324 18.8066 14.7526 18.1392Z" fill="#CF8B50"/>
<mask id="mask0_2240_2243" style="mask-type:luminance" maskUnits="userSpaceOnUse" x="10" y="17" width="12" height="12">
<path d="M10.3071 17.6973H21.6596V28.6007H10.3071V17.6973Z" fill="white"/>
</mask>
<g mask="url(#mask0_2240_2243)">
<path d="M21.2623 25.1951C20.6921 24.5277 19.6885 24.452 19.0223 25.0223L18.1076 25.8073C17.4413 26.3787 17.3646 27.3835 17.9359 28.0497C18.2492 28.4171 18.6946 28.6055 19.1424 28.6055C19.5085 28.6055 19.877 28.4795 20.1759 28.2226L21.0907 27.4375C21.7569 26.8661 21.8338 25.8625 21.2623 25.1951ZM20.1736 21.9492C19.5889 21.2649 18.559 21.1869 17.8759 21.7715L15.2746 24.0019C14.5903 24.5877 14.5111 25.6165 15.0969 26.3007C15.4199 26.6765 15.876 26.8697 16.3358 26.8697C16.7103 26.8697 17.0884 26.7413 17.3957 26.4771L19.9971 24.2468C20.6801 23.6609 20.7594 22.6322 20.1736 21.9492ZM14.3251 20.5782C15.0081 19.9924 15.0885 18.9637 14.5015 18.2807C13.9169 17.5964 12.887 17.5172 12.2039 18.103L10.8907 19.229C10.2076 19.8148 10.1284 20.8436 10.7142 21.5266C11.0371 21.9035 11.4933 22.0956 11.953 22.0956C12.3276 22.0956 12.7057 21.9672 13.013 21.7043L14.3251 20.5782ZM17.7031 21.9576C18.3861 21.3718 18.4653 20.343 17.8795 19.66C17.2937 18.9757 16.265 18.8965 15.5819 19.4823L12.9806 21.7127C12.2963 22.2985 12.2171 23.3273 12.8029 24.0115C13.1258 24.3872 13.582 24.5805 14.0405 24.5805C14.4163 24.5805 14.7944 24.4508 15.1017 24.188L17.7031 21.9576Z" fill="#EBA971"/>
</g>
<path d="M31.6979 6.34131L30.9344 7.03399C30.6583 7.28369 30.2993 7.42174 29.9272 7.42174H25.1339C24.464 7.42174 23.799 7.53339 23.164 7.74944L20.445 8.68215C19.5303 8.99427 18.768 9.64012 18.307 10.4888L16.6997 13.4539C16.2447 14.293 16.4692 15.4886 17.2603 16.0228C17.5928 16.2473 17.965 16.3529 18.3299 16.3529C19.0069 16.3529 19.6624 15.9915 20.0081 15.3554L21.6646 12.2978L24.6165 11.2871C25.2059 11.3411 25.9202 11.8057 26.3523 12.2186L33.5141 20.0178C33.6653 20.1619 33.723 20.2351 33.8334 20.4067L37.4839 16.0552C37.5727 15.9496 37.6652 15.8475 37.76 15.7479L38.8188 14.6519L31.6979 6.34131Z" fill="#EBA971"/>
<path d="M26.9753 12.4286C26.5684 12.0373 25.9081 11.6063 25.3403 11.5127C25.7208 11.6976 26.0894 11.9677 26.3523 12.2185L33.514 20.0177C33.6653 20.1618 33.7229 20.235 33.8333 20.4067L34.0578 20.1402L26.9753 12.4286Z" fill="#CF8B50"/>
<path d="M33.8347 20.3994C33.8107 20.3705 33.7927 20.3405 33.7687 20.3165C33.7507 20.2805 33.7327 20.2577 33.7099 20.2337C33.6678 20.1797 33.6198 20.1329 33.573 20.0848C33.513 20.02 26.3548 12.2185 26.3548 12.2185C26.0883 11.9688 25.7198 11.6951 25.3405 11.5114C25.3045 11.4994 25.2757 11.4994 25.2396 11.4934L24.4966 11.7479C24.9287 11.9808 25.4569 12.3133 25.9839 12.7767L33.142 20.5782C33.2501 20.6911 33.2969 20.7391 33.3377 20.7919C33.3617 20.8159 33.3798 20.8399 33.3978 20.8759C33.4218 20.8999 33.4398 20.9287 33.4625 20.9588C33.7482 21.3825 33.8935 21.9671 33.8479 22.5133C34.2728 21.8723 34.2632 21.0368 33.8347 20.3994Z" fill="#FAD5B4"/>
<path d="M12.3449 18.8365L13.4409 20.2458C13.5333 20.3659 13.6905 20.3994 13.7914 20.3214L14.1576 20.0357C14.5741 19.7116 14.6353 19.0514 14.2704 18.5412C13.8803 17.995 13.1864 17.8342 12.747 18.1763L12.3581 18.4788C12.2585 18.5568 12.2524 18.7177 12.3449 18.8365Z" fill="#FAD5B4"/>
<path d="M15.5842 20.3177L16.7042 21.7583C16.799 21.8807 16.9635 21.912 17.0715 21.8267L17.4664 21.5206C17.9142 21.1713 17.9971 20.4811 17.6249 19.9589C17.2264 19.3995 16.4989 19.2494 16.0259 19.6167L15.607 19.9432C15.499 20.0273 15.4894 20.1953 15.5842 20.3177Z" fill="#FAD5B4"/>
<path d="M17.9529 22.6263L19.0717 24.0668C19.1677 24.1893 19.3322 24.2205 19.4402 24.1365L19.8352 23.8291C20.2829 23.4798 20.3657 22.7896 19.9924 22.2674C19.5951 21.708 18.8664 21.5579 18.3934 21.9265L17.9756 22.2518C17.8676 22.3358 17.8568 22.5039 17.9529 22.6263Z" fill="#FAD5B4"/>
<path d="M19.2544 25.7027L20.3095 27.0604C20.3984 27.1756 20.5496 27.2081 20.6468 27.1324L20.9986 26.8587C21.3983 26.5466 21.4572 25.9128 21.1042 25.4206C20.7285 24.8948 20.061 24.7388 19.6397 25.0665L19.2664 25.357C19.1703 25.4326 19.1643 25.5874 19.2544 25.7027Z" fill="#FAD5B4"/>
<path d="M12.981 21.7128L14.0133 21.0526L14.5103 20.3923L12.981 21.7128Z" fill="#CF8B50"/>
<path d="M15.0684 24.2206L16.6085 23.1018L17.9362 21.7129L15.0684 24.2206Z" fill="#CF8B50"/>
<path d="M17.853 26.0869L18.4088 25.7315L19.3308 24.8108L17.853 26.0869Z" fill="#CF8B50"/>
<path d="M33.9641 3.30298L42.6611 12.7203L39.2904 15.8391C36.0432 13.3338 32.8777 10.0062 30.5933 6.42166L33.9641 3.30298Z" fill="#F2F2F2"/>
<path d="M37.5859 10.7648C37.2378 11.2413 36.5908 11.9688 35.939 12.5618C37.0049 13.6158 38.1213 14.6002 39.2761 15.5029L42.2988 12.7058L38.9928 9.12622C38.4922 9.72284 38.0829 10.0865 37.5859 10.7648Z" fill="#E6E6E6"/>
<path d="M33.173 6.5345C33.173 6.62216 33.1022 6.69418 33.0145 6.69418C32.9281 6.69538 32.8561 6.62452 32.8561 6.53691C32.8549 6.44931 32.9257 6.37723 33.0133 6.37723C33.1009 6.37608 33.173 6.44689 33.173 6.5345ZM32.2871 6.53933C32.2859 6.45166 32.3567 6.37965 32.4443 6.37965C32.532 6.37965 32.604 6.45046 32.604 6.53812C32.604 6.62572 32.5331 6.69659 32.4468 6.6978C32.3591 6.6978 32.2871 6.62693 32.2871 6.53933ZM33.1754 7.05909C33.1754 7.14676 33.1058 7.21877 33.0182 7.21877C32.9305 7.21877 32.8585 7.14791 32.8585 7.0603C32.8573 6.9727 32.9281 6.90183 33.0158 6.90062C33.1034 6.90062 33.1754 6.97149 33.1754 7.05909ZM32.2895 7.06393C32.2895 6.97505 32.3591 6.90425 32.4468 6.90304C32.5344 6.90304 32.6064 6.97384 32.6064 7.06151C32.6064 7.14911 32.5368 7.22113 32.4492 7.22113C32.3615 7.22113 32.2895 7.15153 32.2895 7.06393ZM31.7505 6.80462C31.7529 7.34601 32.1934 7.78415 32.736 7.78174C33.2774 7.77938 33.7144 7.33641 33.712 6.79501C33.7096 6.25241 33.2678 5.81426 32.7264 5.81666C32.1838 5.81906 31.7469 6.26081 31.7505 6.80462Z" fill="#E6E6E6"/>
<path d="M33.1396 6.56577C33.1396 6.65458 33.0687 6.72539 32.9811 6.72539C32.8935 6.7266 32.8227 6.65579 32.8227 6.56819C32.8215 6.48052 32.8923 6.4085 32.9799 6.4085C33.0675 6.4085 33.1383 6.4781 33.1396 6.56577ZM32.2537 6.57054C32.2525 6.48294 32.3233 6.41213 32.4109 6.41092C32.4985 6.41092 32.5693 6.48173 32.5705 6.56939C32.5705 6.657 32.4997 6.72781 32.4121 6.72901C32.3245 6.72901 32.2537 6.65821 32.2537 6.57054ZM33.142 7.09037C33.142 7.17797 33.0712 7.24999 32.9835 7.24999C32.8959 7.24999 32.825 7.17918 32.825 7.09158C32.8239 7.00391 32.8947 6.9331 32.9823 6.93189C33.07 6.93189 33.142 7.0027 33.142 7.09037ZM32.256 7.09514C32.2549 7.00633 32.3257 6.93552 32.4133 6.93552C32.5009 6.93431 32.573 7.00512 32.573 7.09272C32.573 7.18039 32.5022 7.2524 32.4145 7.2524C32.3269 7.25361 32.256 7.1828 32.256 7.09514ZM31.7158 6.83468C31.7182 7.37723 32.16 7.81543 32.7026 7.81301C33.244 7.81059 33.6809 7.36762 33.6785 6.82623C33.6762 6.28368 33.2344 5.84551 32.693 5.84791C32.1504 5.85031 31.7135 6.29208 31.7158 6.83468Z" fill="white"/>
<path d="M32.7324 7.54022C32.3266 7.54143 31.9953 7.21373 31.9941 6.80797C31.9929 6.56787 32.107 6.3566 32.2834 6.22217C32.089 6.35539 31.9605 6.5799 31.9629 6.83316C31.9641 7.24013 32.2954 7.56783 32.7012 7.56541C32.8668 7.56541 33.0192 7.50663 33.1417 7.41298C33.0253 7.49219 32.8836 7.53901 32.7324 7.54022Z" fill="#E6E6E6"/>
<mask id="mask1_2240_2243" style="mask-type:luminance" maskUnits="userSpaceOnUse" x="31" y="0" width="15" height="15">
<path d="M31.7275 0.458984H45.7954V14.9025H31.7275V0.458984Z" fill="white"/>
</mask>
<g mask="url(#mask1_2240_2243)">
<path d="M36.1487 0.499982L31.772 4.64866C34.9627 8.6797 37.2231 11.1382 41.1953 14.8523L45.5708 10.7036C45.7749 10.5152 43.8302 8.07946 41.2277 5.26207C38.6264 2.44347 36.3516 0.312715 36.1487 0.499982Z" fill="#424242"/>
</g>
<path d="M41.0061 5.35693C40.5284 6.26448 37.6125 9.38675 36.8179 10.1574C38.0843 11.5079 39.4155 12.832 41.1958 14.5018L45.2977 10.61C44.4814 9.24991 42.2258 6.58257 41.0061 5.35693Z" fill="#262626"/>
<path d="M3.51025 12.3265L12.858 3.55615L15.9971 6.91017C13.517 10.1765 10.2147 13.3696 6.64935 15.6793L3.51025 12.3265Z" fill="#F2F2F2"/>
<path d="M10.9414 8.65104C11.4192 8.99675 12.1503 9.63898 12.748 10.2872C13.7925 9.21286 14.7696 8.08802 15.6615 6.92724L12.8477 3.92017L9.29443 7.25373C9.89346 7.75072 10.2596 8.15768 10.9414 8.65104Z" fill="#E6E6E6"/>
<path d="M6.74555 13.0971C6.83322 13.0959 6.90523 13.1668 6.90644 13.2544C6.90765 13.3421 6.83678 13.4141 6.74918 13.4141C6.66151 13.4153 6.58949 13.3456 6.58829 13.258C6.58829 13.1704 6.65795 13.0984 6.74555 13.0971ZM6.75637 13.9843C6.66876 13.9855 6.59668 13.9146 6.59554 13.827C6.59433 13.7394 6.66514 13.6674 6.75274 13.6661C6.8392 13.6661 6.91121 13.7358 6.91242 13.8234C6.91363 13.9111 6.84403 13.9831 6.75637 13.9843ZM7.26894 13.0912C7.35661 13.09 7.42862 13.1608 7.42983 13.2484C7.42983 13.336 7.36017 13.408 7.27257 13.4093C7.1849 13.4093 7.11288 13.3397 7.11168 13.252C7.11168 13.1644 7.18134 13.0924 7.26894 13.0912ZM7.27976 13.9783C7.19215 13.9795 7.12007 13.9087 7.11893 13.821C7.11772 13.7334 7.18853 13.6614 7.27613 13.6602C7.36259 13.6602 7.4346 13.7298 7.43581 13.8174C7.43702 13.905 7.36621 13.9771 7.27976 13.9783ZM7.02407 14.5197C7.56547 14.5137 7.99998 14.0683 7.994 13.5257C7.98681 12.9843 7.54263 12.5486 7.00123 12.5558C6.45869 12.5618 6.02531 13.0071 6.03131 13.5485C6.03732 14.0911 6.48147 14.5257 7.02407 14.5197Z" fill="#E6E6E6"/>
<path d="M6.7773 13.1311C6.8649 13.1299 6.93692 13.2007 6.93813 13.2883C6.93933 13.376 6.86853 13.448 6.78086 13.4492C6.69326 13.4492 6.62124 13.3796 6.62124 13.2919C6.62003 13.2043 6.68963 13.1323 6.7773 13.1311ZM6.78811 14.0182C6.70045 14.0194 6.62843 13.9486 6.62722 13.8609C6.62601 13.7733 6.69688 13.7013 6.78449 13.7001C6.87209 13.7001 6.94296 13.7697 6.94417 13.8574C6.94538 13.945 6.87572 14.017 6.78811 14.0182ZM7.30069 13.1251C7.38829 13.1239 7.46031 13.1935 7.46152 13.2823C7.46272 13.37 7.39192 13.442 7.30425 13.442C7.21665 13.4432 7.14463 13.3735 7.14463 13.2859C7.14342 13.1983 7.21302 13.1262 7.30069 13.1251ZM7.3115 14.0122C7.22384 14.0134 7.15182 13.9425 7.15061 13.8549C7.1494 13.7673 7.22027 13.6953 7.30788 13.6941C7.39548 13.6941 7.46635 13.7637 7.46756 13.8513C7.4687 13.939 7.39911 14.011 7.3115 14.0122ZM7.05576 14.5536C7.59715 14.5476 8.03173 14.1022 8.02575 13.5608C8.01856 13.0182 7.57437 12.5825 7.03298 12.5897C6.49038 12.5957 6.05701 13.0411 6.06305 13.5837C6.06903 14.1251 6.51322 14.5596 7.05576 14.5536Z" fill="white"/>
<path d="M7.75296 13.5319C7.7578 13.9376 7.43245 14.2713 7.02669 14.2762C6.7866 14.2786 6.57532 14.1645 6.43848 13.9892C6.57296 14.1837 6.79862 14.3097 7.0531 14.3074C7.45885 14.3026 7.7842 13.9688 7.77936 13.5631C7.77695 13.3962 7.71816 13.245 7.6221 13.1226C7.70257 13.239 7.75055 13.3795 7.75296 13.5319Z" fill="#E6E6E6"/>
<mask id="mask2_2240_2243" style="mask-type:luminance" maskUnits="userSpaceOnUse" x="0" y="0" width="16" height="15">
<path d="M0.48291 0.458984H15.1329V14.5952H0.48291V0.458984Z" fill="white"/>
</mask>
<g mask="url(#mask2_2240_2243)">
<path d="M0.696887 10.1597L4.87077 14.5124C8.8766 11.2905 11.3171 9.01204 14.9987 5.00982L10.8249 0.657071C10.6364 0.455402 8.21515 2.4181 5.41816 5.04223C2.62117 7.66638 0.507217 9.95677 0.696887 10.1597Z" fill="#424242"/>
</g>
<path d="M5.51514 5.26447C6.42507 5.73624 9.5642 8.63409 10.3384 9.42392C11.6793 8.14792 12.9926 6.80582 14.648 5.01118L10.7322 0.932129C9.38053 1.75923 6.73114 4.03523 5.51514 5.26447Z" fill="#262626"/>
</g>
<defs>
<clipPath id="clip0_2240_2243">
<rect width="45.9167" height="29" fill="white"/>
</clipPath>
</defs>
</svg>
