<svg width="56" height="22" viewBox="0 0 56 22" fill="none" xmlns="http://www.w3.org/2000/svg">
<g clip-path="url(#clip0_2240_2076)">
<path d="M38.3162 8.94029C38.3162 9.15315 38.2055 9.36612 37.9842 9.57899L33.3404 14.0492L34.4399 20.5417C34.4484 20.5417 34.4527 20.6482 34.4527 20.7546C34.4527 20.9675 34.4059 21.0738 34.3122 21.1802C34.227 21.2867 34.0993 21.3932 33.9279 21.3932C33.7661 21.3932 33.5959 21.3932 33.417 21.2868L27.6728 18.2001L21.9289 21.2868C21.7413 21.3932 21.5707 21.3932 21.4172 21.3932C21.2381 21.3932 21.1016 21.2867 21.0079 21.1802C20.9225 21.0738 20.8799 20.9675 20.8799 20.7546C20.8799 20.7546 20.8884 20.6481 20.9054 20.5417L22.0056 14.0492L17.3492 9.57899C17.136 9.36612 17.0293 9.15315 17.0293 8.94029C17.0293 8.62097 17.2681 8.4081 17.7457 8.4081L24.1675 7.4503L27.0459 1.59638C27.2077 1.27708 27.4173 1.06421 27.6728 1.06421C27.9282 1.06421 28.1379 1.27708 28.2997 1.59638L31.1777 7.4503L37.5999 8.4081C38.0778 8.4081 38.3162 8.62097 38.3162 8.94029Z" fill="#E67E22"/>
<path d="M38.3162 7.87605C38.3162 8.08892 38.2055 8.30189 37.9842 8.51475L33.3404 12.985L34.4399 19.4775C34.4484 19.4775 34.4527 19.584 34.4527 19.6904C34.4527 19.9033 34.4059 20.0096 34.3122 20.116C34.227 20.2225 34.0993 20.329 33.9279 20.329C33.7661 20.329 33.5959 20.329 33.417 20.2226L27.6728 17.136L21.9289 20.2226C21.7413 20.329 21.5707 20.329 21.4172 20.329C21.2381 20.329 21.1016 20.2225 21.0079 20.116C20.9225 20.0096 20.8799 19.9033 20.8799 19.6904C20.8799 19.6904 20.8884 19.5839 20.9054 19.4775L22.0056 12.985L17.3492 8.51475C17.136 8.30189 17.0293 8.08892 17.0293 7.87605C17.0293 7.55673 17.2681 7.34387 17.7457 7.34387L24.1675 6.38606L27.0459 0.532173C27.2077 0.212869 27.4173 0 27.6728 0C27.9282 0 28.1379 0.212869 28.2997 0.532173L31.1777 6.38606L37.5999 7.34387C38.0778 7.34387 38.3162 7.55673 38.3162 7.87605Z" fill="#F1C40F"/>
<path d="M55.3462 13.283C55.3462 13.432 55.2684 13.5811 55.1139 13.7301L51.8631 16.8593L52.6327 21.404C52.6387 21.404 52.6417 21.4786 52.6417 21.5531C52.6417 21.7021 52.6089 21.7765 52.5433 21.851C52.4837 21.9255 52.3943 22.0001 52.2744 22.0001C52.1611 22.0001 52.0419 22.0001 51.9168 21.9256L47.8957 19.7649L43.8751 21.9256C43.7437 22.0001 43.6243 22.0001 43.5168 22.0001C43.3914 22.0001 43.2959 21.9255 43.2303 21.851C43.1705 21.7765 43.1407 21.7021 43.1407 21.5531C43.1407 21.5531 43.1467 21.4785 43.1586 21.404L43.9288 16.8593L40.6692 13.7301C40.52 13.5811 40.4453 13.432 40.4453 13.283C40.4453 13.0595 40.6125 12.9105 40.9468 12.9105L45.4421 12.24L47.4569 8.14233C47.5701 7.91878 47.717 7.76978 47.8957 7.76978C48.0745 7.76978 48.2213 7.91878 48.3346 8.14233L50.3492 12.24L54.8445 12.9105C55.1794 12.9105 55.3462 13.0595 55.3462 13.283Z" fill="#E67E22"/>
<path d="M55.3462 12.5379C55.3462 12.6869 55.2684 12.836 55.1139 12.985L51.8631 16.1141L52.6327 20.6589C52.6387 20.6589 52.6417 20.7334 52.6417 20.808C52.6417 20.9569 52.6089 21.0314 52.5433 21.1059C52.4837 21.1804 52.3943 21.255 52.2744 21.255C52.1611 21.255 52.0419 21.255 51.9168 21.1805L47.8957 19.0198L43.8751 21.1805C43.7437 21.255 43.6243 21.255 43.5168 21.255C43.3914 21.255 43.2959 21.1804 43.2303 21.1059C43.1705 21.0314 43.1407 20.9569 43.1407 20.808C43.1407 20.808 43.1467 20.7334 43.1586 20.6589L43.9288 16.1141L40.6692 12.985C40.52 12.836 40.4453 12.6869 40.4453 12.5379C40.4453 12.3144 40.6125 12.1654 40.9468 12.1654L45.4421 11.4949L47.4569 7.39721C47.5701 7.17367 47.717 7.02466 47.8957 7.02466C48.0745 7.02466 48.2213 7.17367 48.3346 7.39721L50.3492 11.4949L54.8445 12.1654C55.1794 12.1654 55.3462 12.3144 55.3462 12.5379Z" fill="#F1C40F"/>
<path d="M14.9009 13.283C14.9009 13.432 14.8234 13.5811 14.6684 13.7301L11.4178 16.8593L12.1874 21.404C12.1934 21.404 12.1964 21.4786 12.1964 21.5531C12.1964 21.7021 12.1636 21.7765 12.098 21.851C12.0384 21.9255 11.949 22.0001 11.829 22.0001C11.7158 22.0001 11.5966 22.0001 11.4714 21.9256L7.45043 19.7649L3.42973 21.9256C3.29838 22.0001 3.17895 22.0001 3.07151 22.0001C2.94612 22.0001 2.85061 21.9255 2.78497 21.851C2.72522 21.7765 2.69541 21.7021 2.69541 21.5531C2.69541 21.5531 2.70137 21.4785 2.7133 21.404L3.48345 16.8593L0.223885 13.7301C0.074653 13.5811 0 13.432 0 13.283C0 13.0595 0.167188 12.9105 0.501488 12.9105L4.99678 12.24L7.01161 8.14233C7.12483 7.91878 7.27159 7.76978 7.45043 7.76978C7.62922 7.76978 7.77603 7.91878 7.88925 8.14233L9.90386 12.24L14.3994 12.9105C14.7339 12.9105 14.9009 13.0595 14.9009 13.283Z" fill="#E67E22"/>
<path d="M14.9009 12.5379C14.9009 12.6869 14.8234 12.836 14.6684 12.985L11.4178 16.1141L12.1874 20.6589C12.1934 20.6589 12.1964 20.7334 12.1964 20.808C12.1964 20.9569 12.1636 21.0314 12.098 21.1059C12.0384 21.1804 11.949 21.255 11.829 21.255C11.7158 21.255 11.5966 21.255 11.4714 21.1805L7.45043 19.0198L3.42973 21.1805C3.29838 21.255 3.17895 21.255 3.07151 21.255C2.94612 21.255 2.85061 21.1804 2.78497 21.1059C2.72522 21.0314 2.69541 20.9569 2.69541 20.808C2.69541 20.808 2.70137 20.7334 2.7133 20.6589L3.48345 16.1141L0.223885 12.985C0.074653 12.836 0 12.6869 0 12.5379C0 12.3144 0.167188 12.1654 0.501488 12.1654L4.99678 11.4949L7.01161 7.39721C7.12483 7.17367 7.27159 7.02466 7.45043 7.02466C7.62922 7.02466 7.77603 7.17367 7.88925 7.39721L9.90386 11.4949L14.3994 12.1654C14.7339 12.1654 14.9009 12.3144 14.9009 12.5379Z" fill="#F1C40F"/>
</g>
<defs>
<clipPath id="clip0_2240_2076">
<rect width="55.8049" height="22" fill="white"/>
</clipPath>
</defs>
</svg>
