<svg width="25" height="31" viewBox="0 0 25 31" fill="none" xmlns="http://www.w3.org/2000/svg">
<g clip-path="url(#clip0_2240_2137)">
<path d="M2.6782 10.9136C1.19903 10.9136 0 12.1188 0 13.5918V14.9309V22.9655V24.3046C0 25.7776 1.19903 26.9828 2.6782 26.9828H5.35641H18.7474H21.4256C22.9054 26.9828 24.1039 25.7776 24.1039 24.3046V14.9309V13.5918C24.1039 12.1188 22.9054 10.9136 21.4256 10.9136H18.7474H2.6782Z" fill="#F1C40F"/>
<path d="M2.6782 14.9307C1.19903 14.9307 0 16.1359 0 17.6089V18.948V26.9826V28.3217C0 29.7947 1.19903 30.9999 2.6782 30.9999H5.35641H18.7474H21.4256C22.9054 30.9999 24.1039 29.7947 24.1039 28.3217V18.948V17.6089C24.1039 16.1359 22.9054 14.9307 21.4256 14.9307H18.7474H2.6782Z" fill="#F39C12"/>
<path d="M12.0519 0.200684C6.87498 0.200684 2.67822 4.3519 2.67822 9.5744H6.69554C6.69554 6.62838 9.09374 4.218 12.0519 4.218C15.01 4.218 17.4084 6.62838 17.4084 9.5744H21.4257C21.4257 4.3519 17.2289 0.200684 12.0519 0.200684Z" fill="#BDC3C7"/>
<path d="M2.67822 17.6089V18.948H21.4257V17.6089H2.67822ZM2.67822 20.2871V21.6262H21.4257V20.2871H2.67822ZM2.67822 22.9653V24.3044H21.4257V22.9653H2.67822ZM2.67822 25.6435V26.9826H21.4257V25.6435H2.67822Z" fill="#E67E22"/>
<path d="M2.67822 10.9136V12.2527C2.67822 12.9222 3.57757 13.5918 4.68689 13.5918C5.79618 13.5918 6.69554 12.9222 6.69554 12.2527V10.9136C6.69554 11.5831 5.79618 12.2527 4.68689 12.2527C3.57757 12.2527 2.67822 11.5831 2.67822 10.9136Z" fill="#7F8C8D"/>
<path d="M17.4082 10.9136V12.2527C17.4082 12.9222 18.3081 13.5918 19.4169 13.5918C20.5256 13.5918 21.4255 12.9222 21.4255 12.2527V10.9136C21.4255 11.5831 20.5256 12.2527 19.4169 12.2527C18.3081 12.2527 17.4082 11.5831 17.4082 10.9136Z" fill="#7F8C8D"/>
<path d="M12.0519 2.12573C11.5819 2.12573 11.1159 2.171 10.6713 2.25121C10.3406 2.31093 10.0192 2.40239 9.7085 2.50242C9.41791 2.59589 9.14219 2.71145 8.87156 2.8372C8.72962 2.90308 8.58916 2.97218 8.45309 3.04637C8.27648 3.14265 8.11657 3.27159 7.95095 3.38114C7.79586 3.48359 7.63544 3.56085 7.49067 3.67414C7.30227 3.82104 7.11588 3.9702 6.94661 4.13438C6.89719 4.18287 6.86881 4.25197 6.82114 4.30178C6.59562 4.53531 6.3775 4.75119 6.19337 5.01325C6.00562 5.28012 5.83127 5.55758 5.6912 5.85019C5.68584 5.86141 5.69656 5.88058 5.6912 5.89196C5.54243 6.20786 5.40209 6.55602 5.31466 6.89627C4.97585 7.67886 4.05268 8.23538 2.97122 8.23538C2.89087 8.23538 2.8598 8.23779 2.80383 8.23538C2.78977 8.23484 2.78133 8.23728 2.76192 8.23538L2.67822 9.57449V10.9136V12.2527H6.69554V10.9136V9.57449C6.69554 9.20478 6.74977 8.83519 6.82114 8.48648C7.32048 6.0457 9.46345 4.21808 12.0519 4.21808C15.01 4.21808 17.4084 6.61628 17.4084 9.57449V10.9136V12.2527H21.4257V10.9136V9.57449L21.3426 8.23538C21.3225 8.23728 21.3145 8.23484 21.2998 8.23538H21.1324C20.0517 8.23538 19.1277 7.67886 18.789 6.89627C18.7019 6.55602 18.5613 6.20786 18.4127 5.89196C18.4073 5.88058 18.418 5.86141 18.4127 5.85019C18.2721 5.55758 18.098 5.28012 17.9105 5.01325C17.7257 4.75119 17.5088 4.53531 17.2825 4.30178C17.2343 4.25089 17.2088 4.1838 17.1566 4.13438C16.9879 3.9702 16.8017 3.82104 16.6129 3.67414C16.4737 3.56473 16.3023 3.48022 16.1523 3.38114C15.9889 3.27279 15.8255 3.14172 15.6514 3.04637C15.5162 2.97272 15.3729 2.90255 15.2323 2.8372C14.9618 2.71145 14.686 2.59589 14.3954 2.50242C14.0847 2.40239 13.7633 2.31093 13.4326 2.25121C12.988 2.171 12.522 2.12573 12.0519 2.12573Z" fill="#95A5A6"/>
</g>
<defs>
<clipPath id="clip0_2240_2137">
<rect width="24.3786" height="31" fill="white"/>
</clipPath>
</defs>
</svg>
