<svg width="104" height="110" viewBox="0 0 104 110" fill="none" xmlns="http://www.w3.org/2000/svg">
<rect x="12.5516" y="51.2238" width="21.5902" height="37.9401" rx="4.61151" stroke="#505050" stroke-width="4.19228"/>
<line x1="14.6477" y1="70.2987" x2="32.2553" y2="70.2987" stroke="#505050" stroke-width="4.19228"/>
<path d="M49.8628 8.72775C46.5856 9.5763 43.4666 11.8391 42.3167 12.8645L38.4388 9.40584C41.4573 6.18132 45.8652 4.41551 47.6619 3.95587L49.8628 8.72775Z" fill="white"/>
<line x1="65.3207" y1="45.6046" x2="59.3834" y2="39.5923" stroke="white" stroke-width="0.209614"/>
<line x1="73.0772" y1="39.4642" x2="67.0814" y2="33.5102" stroke="white" stroke-width="0.209614"/>
<path d="M64.6407 44.8306L60.7628 40.9527C65.8774 38.2697 67.9246 35.7823 68.3089 34.8739L72.1868 38.647C69.9229 42.0008 66.2128 44.1668 64.6407 44.8306Z" fill="white" stroke="white" stroke-width="0.104807"/>
<path d="M43.5744 41.5816V25.4413L23.5563 25.4413C21.9492 25.4064 18.5046 25.5671 17.5823 26.4894" stroke="#505050" stroke-width="4.19228"/>
<path d="M11.2939 29.3192C8.39423 31.2057 2.67875 37.1587 3.01414 45.8787C3.30075 53.3305 3.19955 80.7031 3.07685 99.0596C3.04571 103.717 6.81053 107.505 11.4683 107.505H35.1899C39.8205 107.505 43.5744 103.751 43.5744 99.1206V41.5816" stroke="#505050" stroke-width="4.19228"/>
<path d="M61.0772 41.4768L57.6185 44.5162L68.8329 55.9401H74.8069V61.9141L78.8944 65.268H84.2395V71.1371L93.5673 80.1506L103 73.0237V61.9141L73.2348 31.9393L69.3569 35.6076L97.9692 64.0103V71.1371L93.5673 74.0717L88.851 68.7266V64.0103L85.078 60.6564H79.4184V54.8921L75.4357 50.9094H70.405L61.0772 41.4768Z" fill="#505050" stroke="#505050" stroke-width="0.0209614"/>
<path d="M76.7347 25.1269C76.7347 37.264 66.7161 47.1071 54.3524 47.1071C41.9887 47.1071 31.9701 37.264 31.9701 25.1269C31.9701 12.9898 41.9887 3.14663 54.3524 3.14663C66.7161 3.14663 76.7347 12.9898 76.7347 25.1269Z" fill="#505050" stroke="#505050" stroke-width="0.268052"/>
<path d="M71.7676 25.1269C71.7676 34.618 63.9331 42.3152 54.2648 42.3152C44.5965 42.3152 36.762 34.618 36.762 25.1269C36.762 15.6358 44.5965 7.93852 54.2648 7.93852C63.9331 7.93852 71.7676 15.6358 71.7676 25.1269Z" fill="white" stroke="#505050" stroke-width="0.209614"/>
<mask id="path-12-inside-1_47_1258" fill="white">
<path d="M49.8328 21.1314C49.3467 17.0427 47.6584 13.1897 44.9815 10.0597C42.3045 6.92958 38.7592 4.663 34.7936 3.54654C30.8281 2.43008 26.6206 2.51389 22.7032 3.78737C18.7857 5.06084 15.3343 7.46679 12.7853 10.701C10.2363 13.9351 8.70427 17.8523 8.38293 21.957C8.06159 26.0618 8.96537 30.1698 10.98 33.7616C12.9946 37.3533 16.0295 40.2676 19.701 42.1357C23.3726 44.0039 27.5157 44.7421 31.6066 44.257L31.1146 40.1182C27.8427 40.5062 24.529 39.9158 21.5925 38.4217C18.6561 36.9275 16.2287 34.5967 14.6174 31.724C13.0062 28.8513 12.2833 25.5658 12.5403 22.2828C12.7974 18.9998 14.0227 15.8669 16.0613 13.2802C18.1 10.6936 20.8604 8.7693 23.9936 7.75078C27.1268 6.73225 30.4919 6.66522 33.6635 7.55816C36.8351 8.4511 39.6707 10.2639 41.8118 12.7673C43.9528 15.2708 45.303 18.3524 45.6918 21.6225L49.8328 21.1314Z"/>
</mask>
<path d="M49.8328 21.1314C49.3467 17.0427 47.6584 13.1897 44.9815 10.0597C42.3045 6.92958 38.7592 4.663 34.7936 3.54654C30.8281 2.43008 26.6206 2.51389 22.7032 3.78737C18.7857 5.06084 15.3343 7.46679 12.7853 10.701C10.2363 13.9351 8.70427 17.8523 8.38293 21.957C8.06159 26.0618 8.96537 30.1698 10.98 33.7616C12.9946 37.3533 16.0295 40.2676 19.701 42.1357C23.3726 44.0039 27.5157 44.7421 31.6066 44.257L31.1146 40.1182C27.8427 40.5062 24.529 39.9158 21.5925 38.4217C18.6561 36.9275 16.2287 34.5967 14.6174 31.724C13.0062 28.8513 12.2833 25.5658 12.5403 22.2828C12.7974 18.9998 14.0227 15.8669 16.0613 13.2802C18.1 10.6936 20.8604 8.7693 23.9936 7.75078C27.1268 6.73225 30.4919 6.66522 33.6635 7.55816C36.8351 8.4511 39.6707 10.2639 41.8118 12.7673C43.9528 15.2708 45.303 18.3524 45.6918 21.6225L49.8328 21.1314Z" fill="#505050" stroke="#505050" stroke-width="0.838456" mask="url(#path-12-inside-1_47_1258)"/>
<line x1="45.0755" y1="25.2655" x2="54.9273" y2="15.4136" stroke="#505050" stroke-width="5.24035"/>
</svg>
