<svg width="38" height="29" viewBox="0 0 38 29" fill="none" xmlns="http://www.w3.org/2000/svg">
<g clip-path="url(#clip0_2240_2087)">
<path d="M1.703 21.2087H1.49017C1.37263 21.2087 1.27734 21.304 1.27734 21.4216V22.4857C1.27734 22.6033 1.37263 22.6986 1.49017 22.6986H1.703C1.82055 22.6986 1.91583 22.6033 1.91583 22.4857V21.4216C1.91583 21.304 1.82055 21.2087 1.703 21.2087Z" fill="#F19920"/>
<path d="M1.703 26.7424H1.49017C1.37263 26.7424 1.27734 26.8377 1.27734 26.9553V28.0194C1.27734 28.137 1.37263 28.2322 1.49017 28.2322H1.703C1.82055 28.2322 1.91583 28.137 1.91583 28.0194V26.9553C1.91583 26.8377 1.82055 26.7424 1.703 26.7424Z" fill="#F19920"/>
<path d="M9.79056 15.0366H1.91583C1.56321 15.0366 1.27734 15.3225 1.27734 15.6751V17.1649C1.27734 17.5175 1.56321 17.8034 1.91583 17.8034H9.79056C10.1432 17.8034 10.429 17.5175 10.429 17.1649V15.6751C10.429 15.3225 10.1432 15.0366 9.79056 15.0366Z" fill="#FFCB5B"/>
<path d="M1.27734 16.9521H10.429V17.8035H1.70301C1.46792 17.8035 1.27734 17.6129 1.27734 17.3778V16.9521Z" fill="#F19920"/>
<path d="M11.2798 17.8035H3.40509C3.05246 17.8035 2.7666 18.0893 2.7666 18.442V19.9318C2.7666 20.2844 3.05246 20.5703 3.40509 20.5703H11.2798C11.6324 20.5703 11.9183 20.2844 11.9183 19.9318V18.442C11.9183 18.0893 11.6324 17.8035 11.2798 17.8035Z" fill="#FFCB5B"/>
<path d="M2.7666 19.719H11.9183V20.5703H3.19225C2.95716 20.5703 2.7666 20.3797 2.7666 20.1447V19.719Z" fill="#F19920"/>
<path d="M8.51321 20.5701H0.638491C0.285862 20.5701 0 20.8559 0 21.2086V22.6984C0 23.051 0.285862 23.3369 0.638491 23.3369H8.51321C8.86584 23.3369 9.1517 23.051 9.1517 22.6984V21.2086C9.1517 20.8559 8.86584 20.5701 8.51321 20.5701Z" fill="#FFCB5B"/>
<path d="M0 22.4856H9.1517V23.3369H0.425662C0.190576 23.3369 0 23.1464 0 22.9113V22.4856Z" fill="#F19920"/>
<path d="M9.79056 23.3372H1.91583C1.56321 23.3372 1.27734 23.623 1.27734 23.9757V25.4655C1.27734 25.8181 1.56321 26.104 1.91583 26.104H9.79056C10.1432 26.104 10.429 25.8181 10.429 25.4655V23.9757C10.429 23.623 10.1432 23.3372 9.79056 23.3372Z" fill="#FFCB5B"/>
<path d="M1.27734 25.2527H10.429V26.104H1.70301C1.46792 26.104 1.27734 25.9135 1.27734 25.6783V25.2527Z" fill="#F19920"/>
<path d="M8.51321 26.1038H0.638491C0.285862 26.1038 0 26.3896 0 26.7423V28.2321C0 28.5847 0.285862 28.8706 0.638491 28.8706H8.51321C8.86584 28.8706 9.1517 28.5847 9.1517 28.2321V26.7423C9.1517 26.3896 8.86584 26.1038 8.51321 26.1038Z" fill="#FFCB5B"/>
<path d="M0 28.0193H9.1517V28.8706H0.425662C0.190576 28.8706 0 28.6801 0 28.4449V28.0193Z" fill="#F19920"/>
<path d="M7.23621 15.675H7.02338C6.90583 15.675 6.81055 15.7703 6.81055 15.8879V16.952C6.81055 17.0696 6.90583 17.1649 7.02338 17.1649H7.23621C7.35375 17.1649 7.44904 17.0696 7.44904 16.952V15.8879C7.44904 15.7703 7.35375 15.675 7.23621 15.675Z" fill="#F19920"/>
<path d="M5.10779 15.675H4.89496C4.77742 15.675 4.68213 15.7703 4.68213 15.8879V16.952C4.68213 17.0696 4.77742 17.1649 4.89496 17.1649H5.10779C5.22533 17.1649 5.32062 17.0696 5.32062 16.952V15.8879C5.32062 15.7703 5.22533 15.675 5.10779 15.675Z" fill="#F19920"/>
<path d="M3.19226 15.675H2.97943C2.86189 15.675 2.7666 15.7703 2.7666 15.8879V16.952C2.7666 17.0696 2.86189 17.1649 2.97943 17.1649H3.19226C3.30981 17.1649 3.40509 17.0696 3.40509 16.952V15.8879C3.40509 15.7703 3.30981 15.675 3.19226 15.675Z" fill="#F19920"/>
<path d="M6.59754 18.4419H6.38471C6.26716 18.4419 6.17188 18.5372 6.17188 18.6547V19.7189C6.17188 19.8364 6.26716 19.9317 6.38471 19.9317H6.59754C6.71508 19.9317 6.81037 19.8364 6.81037 19.7189V18.6547C6.81037 18.5372 6.71508 18.4419 6.59754 18.4419Z" fill="#F19920"/>
<path d="M4.46961 18.4419H4.25678C4.13923 18.4419 4.04395 18.5372 4.04395 18.6547V19.7189C4.04395 19.8364 4.13923 19.9317 4.25678 19.9317H4.46961C4.58715 19.9317 4.68244 19.8364 4.68244 19.7189V18.6547C4.68244 18.5372 4.58715 18.4419 4.46961 18.4419Z" fill="#F19920"/>
<path d="M5.95935 21.2087H5.74652C5.62898 21.2087 5.53369 21.304 5.53369 21.4216V22.4857C5.53369 22.6033 5.62898 22.6986 5.74652 22.6986H5.95935C6.0769 22.6986 6.17218 22.6033 6.17218 22.4857V21.4216C6.17218 21.304 6.0769 21.2087 5.95935 21.2087Z" fill="#F19920"/>
<path d="M3.83093 21.2087H3.6181C3.50056 21.2087 3.40527 21.304 3.40527 21.4216V22.4857C3.40527 22.6033 3.50056 22.6986 3.6181 22.6986H3.83093C3.94848 22.6986 4.04377 22.6033 4.04377 22.4857V21.4216C4.04377 21.304 3.94848 21.2087 3.83093 21.2087Z" fill="#F19920"/>
<path d="M1.83093 21.2087H1.6181C1.50056 21.2087 1.40527 21.304 1.40527 21.4216V22.4857C1.40527 22.6033 1.50056 22.6986 1.6181 22.6986H1.83093C1.94848 22.6986 2.04377 22.6033 2.04377 22.4857V21.4216C2.04377 21.304 1.94848 21.2087 1.83093 21.2087Z" fill="#F19920"/>
<path d="M3.19226 23.9756H2.97943C2.86189 23.9756 2.7666 24.0709 2.7666 24.1884V25.2526C2.7666 25.3701 2.86189 25.4654 2.97943 25.4654H3.19226C3.30981 25.4654 3.40509 25.3701 3.40509 25.2526V24.1884C3.40509 24.0709 3.30981 23.9756 3.19226 23.9756Z" fill="#F19920"/>
<path d="M5.10779 23.9756H4.89496C4.77742 23.9756 4.68213 24.0709 4.68213 24.1884V25.2526C4.68213 25.3701 4.77742 25.4654 4.89496 25.4654H5.10779C5.22533 25.4654 5.32062 25.3701 5.32062 25.2526V24.1884C5.32062 24.0709 5.22533 23.9756 5.10779 23.9756Z" fill="#F19920"/>
<path d="M3.61804 26.7424H3.40521C3.28767 26.7424 3.19238 26.8377 3.19238 26.9553V28.0194C3.19238 28.137 3.28767 28.2322 3.40521 28.2322H3.61804C3.73559 28.2322 3.83087 28.137 3.83087 28.0194V26.9553C3.83087 26.8377 3.73559 26.7424 3.61804 26.7424Z" fill="#F19920"/>
<path d="M11.8444 1.78931C11.5857 0.698948 12.3865 0.303213 12.9127 0.244748H16.5308C16.5451 0.237603 16.563 0.237905 16.5839 0.244748C16.8128 0.319439 17.4089 1.17323 17.7014 1.62815L18.5527 0.244748H21.0941C21.5275 0.244748 22.0108 0.215613 22.33 0.508751C22.3676 0.543288 22.4018 0.580319 22.4328 0.619469C23.135 1.50574 22.2288 2.71828 21.5151 3.59521L18.8719 6.84249C27.7043 12.0568 27.5979 21.7406 27.5979 22.6984C27.5979 23.4645 28.4492 24.2946 28.8749 24.6139C30.9938 25.6998 30.205 28.9047 27.8242 28.8824C17.8318 28.7892 6.49875 28.7012 5.99568 28.764C5.72373 28.798 5.46537 28.7086 5.23955 28.5665C4.64088 28.1898 4.35829 27.4614 4.36689 26.7541C4.37564 26.0337 4.6004 25.2068 5.3572 24.7203C6.54906 23.9541 6.98892 23.0531 7.05986 22.6984C6.37879 14.3554 12.5934 8.65156 15.7859 6.84249L12.7256 3.24213C12.3547 2.80574 11.9766 2.34656 11.8444 1.78931Z" fill="#B06328"/>
<path d="M16.6372 0.244749H16.5308M16.5308 0.244749H12.9127C12.3865 0.303214 11.5857 0.698949 11.8444 1.78931C11.9766 2.34656 12.3547 2.80574 12.7256 3.24213L15.7859 6.84249C12.5934 8.65156 6.37879 14.3554 7.05986 22.6984C6.98892 23.0531 6.54906 23.9541 5.3572 24.7203C4.6004 25.2068 4.37564 26.0337 4.36689 26.7541C4.35829 27.4614 4.64088 28.1897 5.23955 28.5665C5.46537 28.7086 5.72373 28.798 5.99568 28.764C6.49875 28.7012 17.8318 28.7892 27.8242 28.8824C30.205 28.9047 30.9938 25.6998 28.8749 24.6139C28.4492 24.2946 27.5979 23.4645 27.5979 22.6984C27.5979 21.7406 27.7043 12.0568 18.8719 6.84249L21.5151 3.59521C22.2288 2.71828 23.135 1.50574 22.4328 0.61947C22.4018 0.58032 22.3676 0.543288 22.33 0.508752C22.0108 0.215613 21.5275 0.244749 21.0941 0.244749H18.5527L17.7014 1.62815C17.3821 1.13154 16.701 0.159617 16.5308 0.244749Z" stroke="#B06328" stroke-width="0.21283"/>
<path d="M11.8443 1.78931C11.5856 0.698948 12.3864 0.303213 12.9126 0.244748H16.5307C16.545 0.237603 16.5629 0.237905 16.5839 0.244748C16.8127 0.319439 17.4088 1.17323 17.7013 1.62815L18.5526 0.244748H19.0393C19.4727 0.244751 19.9537 0.21453 20.2804 0.499217C20.2951 0.511965 20.3092 0.525063 20.3228 0.538492C21.1274 1.33293 20.174 2.61187 19.4602 3.4888L16.8171 6.73608C25.6497 11.9504 25.5432 21.6342 25.5432 22.592C25.5432 23.3581 26.3946 24.1882 26.8202 24.5075C28.4924 25.0345 28.0991 27.5213 26.3459 27.5103C17.2445 27.452 7.75702 27.4264 7.27258 27.487C6.08288 27.6359 4.08181 26.8143 4.57738 25.7223C4.76396 25.3113 5.02764 24.9322 5.35712 24.7203C6.54897 23.9541 6.98881 23.0531 7.05975 22.6984C6.37871 14.3554 12.5934 8.65156 15.7858 6.84249L12.7255 3.24213C12.3546 2.80574 11.9765 2.34656 11.8443 1.78931Z" fill="#C97629"/>
<path d="M16.6371 0.244749H16.5307M16.5307 0.244749H12.9126C12.3864 0.303214 11.5856 0.698949 11.8443 1.78931C11.9765 2.34656 12.3546 2.80574 12.7255 3.24213L15.7858 6.84249C12.5934 8.65156 6.37871 14.3554 7.05975 22.6984C6.98881 23.0531 6.54897 23.9541 5.35712 24.7203C5.02764 24.9322 4.76396 25.3113 4.57738 25.7223C4.08181 26.8143 6.08288 27.6359 7.27258 27.487C7.75702 27.4264 17.2445 27.452 26.3459 27.5103C28.0991 27.5213 28.4924 25.0345 26.8202 24.5075C26.3946 24.1882 25.5432 23.3581 25.5432 22.592C25.5432 21.6342 25.6497 11.9504 16.8171 6.73608L19.4602 3.4888C20.174 2.61187 21.1274 1.33293 20.3228 0.538492C20.3092 0.525064 20.2951 0.511966 20.2804 0.499218C19.9537 0.21453 19.4727 0.244751 19.0393 0.244749H18.5526L17.7013 1.62815C17.382 1.13154 16.701 0.159617 16.5307 0.244749Z" stroke="#C97629" stroke-width="0.21283"/>
<path d="M20.3294 5.67212H13.9445C13.3568 5.67212 12.8804 6.14856 12.8804 6.73627V6.73627C12.8804 7.32399 13.3568 7.80042 13.9445 7.80042H20.3294C20.9172 7.80042 21.3936 7.32399 21.3936 6.73627C21.3936 6.14856 20.9172 5.67212 20.3294 5.67212Z" fill="#FFCB5B"/>
<path d="M18.0948 7.80054H16.605V12.27H18.0948V7.80054Z" fill="#FFCB5B"/>
<path d="M17.3496 22.9115C20.2881 22.9115 22.6703 20.4816 22.6703 17.4843C22.6703 14.487 20.2881 12.0571 17.3496 12.0571C14.411 12.0571 12.0288 14.487 12.0288 17.4843C12.0288 20.4816 14.411 22.9115 17.3496 22.9115Z" fill="#FFCB5B"/>
<mask id="mask0_2240_2087" style="mask-type:luminance" maskUnits="userSpaceOnUse" x="12" y="12" width="6" height="6">
<path d="M17.3496 12.0571C16.6508 12.0571 15.9589 12.1975 15.3134 12.4702C14.6679 12.743 14.0813 13.1428 13.5872 13.6467C13.0931 14.1507 12.7012 14.749 12.4338 15.4074C12.1664 16.0659 12.0288 16.7716 12.0288 17.4843H12.4747C12.4747 16.8313 12.6008 16.1847 12.8458 15.5815C13.0907 14.9782 13.4498 14.43 13.9025 13.9683C14.3552 13.5066 14.8926 13.1403 15.484 12.8904C16.0755 12.6406 16.7094 12.5119 17.3496 12.5119V12.0571Z" fill="white"/>
</mask>
<g mask="url(#mask0_2240_2087)">
<path d="M17.3496 12.0571C16.6508 12.0571 15.9589 12.1975 15.3134 12.4702C14.6679 12.743 14.0813 13.1428 13.5872 13.6467C13.0931 14.1507 12.7012 14.749 12.4338 15.4074C12.1664 16.0659 12.0288 16.7716 12.0288 17.4843H12.4747C12.4747 16.8313 12.6008 16.1847 12.8458 15.5815C13.0907 14.9782 13.4498 14.43 13.9025 13.9683C14.3552 13.5066 14.8926 13.1403 15.484 12.8904C16.0755 12.6406 16.7094 12.5119 17.3496 12.5119V12.0571Z" stroke="#FEE179" stroke-width="0.723624"/>
</g>
<mask id="mask1_2240_2087" style="mask-type:luminance" maskUnits="userSpaceOnUse" x="17" y="17" width="6" height="6">
<path d="M22.6704 17.4841C22.6704 18.1968 22.5327 18.9025 22.2654 19.561C21.998 20.2195 21.606 20.8177 21.1119 21.3217C20.6179 21.8257 20.0313 22.2254 19.3858 22.4982C18.7402 22.7709 18.0483 22.9113 17.3496 22.9113V22.4565C17.9898 22.4565 18.6237 22.3279 19.2151 22.078C19.8066 21.8281 20.344 21.4619 20.7967 21.0001C21.2493 20.5384 21.6084 19.9902 21.8534 19.387C22.0984 18.7837 22.2245 18.1371 22.2245 17.4841H22.6704Z" fill="white"/>
</mask>
<g mask="url(#mask1_2240_2087)">
<path d="M22.6704 17.4841C22.6704 18.1968 22.5327 18.9025 22.2654 19.561C21.998 20.2195 21.606 20.8177 21.1119 21.3217C20.6179 21.8257 20.0313 22.2254 19.3858 22.4982C18.7402 22.7709 18.0483 22.9113 17.3496 22.9113V22.4565C17.9898 22.4565 18.6237 22.3279 19.2151 22.078C19.8066 21.8281 20.344 21.4619 20.7967 21.0001C21.2493 20.5384 21.6084 19.9902 21.8534 19.387C22.0984 18.7837 22.2245 18.1371 22.2245 17.4841H22.6704Z" stroke="#F09820" stroke-width="0.723624"/>
</g>
<mask id="mask2_2240_2087" style="mask-type:luminance" maskUnits="userSpaceOnUse" x="12" y="17" width="6" height="6">
<path d="M17.3496 22.9113C16.6508 22.9113 15.9589 22.771 15.3134 22.4982C14.6679 22.2255 14.0813 21.8257 13.5872 21.3217C13.0931 20.8178 12.7012 20.2195 12.4338 19.561C12.1664 18.9026 12.0288 18.1969 12.0288 17.4841H12.4747C12.4747 18.1371 12.6008 18.7837 12.8458 19.387C13.0907 19.9903 13.4498 20.5384 13.9025 21.0002C14.3552 21.4619 14.8926 21.8281 15.484 22.078C16.0755 22.3279 16.7094 22.4565 17.3496 22.4565V22.9113Z" fill="white"/>
</mask>
<g mask="url(#mask2_2240_2087)">
<path d="M17.3496 22.9113C16.6508 22.9113 15.9589 22.771 15.3134 22.4982C14.6679 22.2255 14.0813 21.8257 13.5872 21.3217C13.0931 20.8178 12.7012 20.2195 12.4338 19.561C12.1664 18.9026 12.0288 18.1969 12.0288 17.4841H12.4747C12.4747 18.1371 12.6008 18.7837 12.8458 19.387C13.0907 19.9903 13.4498 20.5384 13.9025 21.0002C14.3552 21.4619 14.8926 21.8281 15.484 22.078C16.0755 22.3279 16.7094 22.4565 17.3496 22.4565V22.9113Z" stroke="#F5B445" stroke-width="0.723624"/>
</g>
<path d="M19.6468 18.651C19.508 19.2708 18.8564 19.6649 17.9303 19.7522V20.1712C17.9303 20.3915 17.7076 20.5702 17.432 20.5702C17.1564 20.5702 16.9325 20.3919 16.9325 20.1712V19.7352C16.9256 19.7344 16.9194 19.7348 16.9125 19.734C16.5042 19.687 16.0754 19.5694 15.6974 19.4655L15.5254 19.4185C15.2647 19.3481 15.1244 19.1212 15.2127 18.9129C15.3009 18.7046 15.585 18.592 15.845 18.6625L16.0214 18.7106C16.3579 18.803 16.739 18.9077 17.0567 18.9442C17.7909 19.0309 18.57 18.9337 18.6641 18.5191C18.745 18.163 18.4901 18.0216 17.2995 17.7621L17.065 17.7107C16.3804 17.5573 14.9564 17.2393 15.217 16.0933C15.355 15.4835 16.0039 15.0892 16.9325 15.0022V14.5844C16.9325 14.364 17.1559 14.1853 17.4317 14.1853C17.7075 14.1853 17.9303 14.364 17.9303 14.5844V15.0202C17.9372 15.021 17.9434 15.0208 17.9502 15.0216C18.2139 15.0531 18.5149 15.1147 18.8969 15.2155C19.159 15.2845 19.3013 15.5099 19.2151 15.7194C19.1289 15.9286 18.8458 16.0419 18.5851 15.9736C18.262 15.8886 18.0064 15.8354 17.8031 15.8112C17.0728 15.7242 16.2928 15.8214 16.1983 16.2367C16.1295 16.5397 16.2724 16.7043 17.3347 16.9413L17.5622 16.9914C18.4962 17.1957 19.9087 17.5037 19.6468 18.651Z" fill="#E78825"/>
<path d="M18.0906 7.80054H17.4521V12.27H18.0906V7.80054Z" fill="#F09820"/>
<path d="M17.6647 7.80054H16.6006V8.2262H17.6647V7.80054Z" fill="#F09820"/>
<mask id="mask3_2240_2087" style="mask-type:luminance" maskUnits="userSpaceOnUse" x="17" y="12" width="6" height="6">
<path d="M22.6704 17.4843C22.6704 16.7716 22.5327 16.0659 22.2654 15.4074C21.998 14.749 21.606 14.1507 21.1119 13.6467C20.6179 13.1428 20.0313 12.743 19.3858 12.4702C18.7402 12.1975 18.0483 12.0571 17.3496 12.0571V12.5119C17.9898 12.5119 18.6237 12.6405 19.2152 12.8904C19.8066 13.1402 20.344 13.5065 20.7967 13.9683C21.2494 14.43 21.6085 14.9781 21.8535 15.5814C22.0985 16.1847 22.2246 16.8313 22.2246 17.4843H22.6704Z" fill="white"/>
</mask>
<g mask="url(#mask3_2240_2087)">
<path d="M22.6704 17.4843C22.6704 16.7716 22.5327 16.0659 22.2654 15.4074C21.998 14.749 21.606 14.1507 21.1119 13.6467C20.6179 13.1428 20.0313 12.743 19.3858 12.4702C18.7402 12.1975 18.0483 12.0571 17.3496 12.0571V12.5119C17.9898 12.5119 18.6237 12.6405 19.2152 12.8904C19.8066 13.1402 20.344 13.5065 20.7967 13.9683C21.2494 14.43 21.6085 14.9781 21.8535 15.5814C22.0985 16.1847 22.2246 16.8313 22.2246 17.4843H22.6704Z" stroke="#F6B545" stroke-width="0.723624"/>
</g>
<path d="M17.3456 5.67212H13.9403C13.764 5.67212 13.6211 5.81505 13.6211 5.99136C13.6211 6.16768 13.764 6.31061 13.9403 6.31061H17.3456C17.5219 6.31061 17.6649 6.16768 17.6649 5.99136C17.6649 5.81505 17.5219 5.67212 17.3456 5.67212Z" fill="#FEE179"/>
</g>
<defs>
<clipPath id="clip0_2240_2087">
<rect width="37.3884" height="29" fill="white"/>
</clipPath>
</defs>
</svg>
