<svg width="24" height="25" viewBox="0 0 24 25" fill="none" xmlns="http://www.w3.org/2000/svg">
<path d="M13.1156 12.4759L23.3388 2.25277C23.6775 1.91414 23.6775 1.36543 23.3388 1.0268C23.0002 0.68817 22.4515 0.68817 22.1129 1.0268L11.8896 11.25L1.66647 1.02693C1.32784 0.688305 0.779125 0.688305 0.440495 1.02693C0.101866 1.36556 0.101866 1.91427 0.440495 2.25291L10.6637 12.4759L0.440495 22.6992C0.101866 23.0378 0.101866 23.5865 0.440495 23.9251C0.609809 24.0944 0.831677 24.1791 1.05341 24.1791C1.27515 24.1791 1.49702 24.0944 1.66633 23.9251L11.8896 13.7019L22.1129 23.9251C22.2822 24.0944 22.504 24.1791 22.7258 24.1791C22.9475 24.1791 23.1694 24.0944 23.3387 23.9251C23.6773 23.5865 23.6773 23.0378 23.3387 22.6992L13.1156 12.4759Z" fill="black"/>
</svg>
