<svg width="26" height="26" viewBox="0 0 26 26" fill="none" xmlns="http://www.w3.org/2000/svg">
<g clip-path="url(#clip0_104_380)">
<path d="M13 26C10.4289 26 7.91543 25.2376 5.77758 23.8091C3.63974 22.3806 1.97351 20.3503 0.989573 17.9749C0.00563272 15.5995 -0.251811 12.9856 0.249797 10.4638C0.751406 7.94207 1.98954 5.62569 3.80762 3.80762C5.62569 1.98954 7.94207 0.751406 10.4638 0.249797C12.9856 -0.251811 15.5995 0.00563272 17.9749 0.989573C20.3503 1.97351 22.3806 3.63974 23.8091 5.77758C25.2376 7.91543 26 10.4289 26 13C26 16.4478 24.6303 19.7544 22.1924 22.1924C19.7544 24.6303 16.4478 26 13 26ZM13 2.00001C10.8244 2.00001 8.69767 2.64514 6.88872 3.85384C5.07979 5.06252 3.66988 6.78051 2.83733 8.79047C2.00477 10.8005 1.78693 13.0122 2.21137 15.146C2.6358 17.2798 3.68346 19.2398 5.22183 20.7782C6.76019 22.3165 8.72021 23.3642 10.854 23.7887C12.9878 24.2131 15.1995 23.9952 17.2095 23.1627C19.2195 22.3301 20.9375 20.9202 22.1462 19.1113C23.3549 17.3023 24 15.1756 24 13C24 10.0826 22.8411 7.28472 20.7782 5.22183C18.7153 3.15893 15.9174 2.00001 13 2.00001Z" fill="black"/>
<path d="M13.001 20.0016C12.7357 20.0016 12.4814 19.8962 12.2939 19.7087C12.1063 19.5212 12.001 19.2668 12.001 19.0016V7.00159C12.001 6.73639 12.1063 6.48204 12.2939 6.29449C12.4814 6.10697 12.7357 6.00159 13.001 6.00159C13.2662 6.00159 13.5206 6.10697 13.7081 6.29449C13.8956 6.48204 14.001 6.73639 14.001 7.00159V19.0016C14.001 19.2668 13.8956 19.5212 13.7081 19.7087C13.5206 19.8962 13.2662 20.0016 13.001 20.0016Z" fill="black"/>
<path d="M19 14.0003H7.00001C6.73477 14.0003 6.48042 13.895 6.2929 13.7075C6.10535 13.5199 6 13.2656 6 13.0004C6 12.7351 6.10535 12.4808 6.2929 12.2933C6.48042 12.1057 6.73477 12.0004 7.00001 12.0004H19C19.2652 12.0004 19.5196 12.1057 19.7071 12.2933C19.8946 12.4808 20 12.7351 20 13.0004C20 13.2656 19.8946 13.5199 19.7071 13.7075C19.5196 13.895 19.2652 14.0003 19 14.0003Z" fill="black"/>
</g>
<defs>
<clipPath id="clip0_104_380">
<rect width="26" height="26" fill="white"/>
</clipPath>
</defs>
</svg>
