<svg width="31" height="23" viewBox="0 0 31 23" fill="none" xmlns="http://www.w3.org/2000/svg">
<path d="M9.4117 5.10888L7.28187 3.11456L1.84642 9.29556L3.76033 11.1105L9.4117 5.10888ZM16.0833 20.0068L19.2136 17.8774L16.0803 15.5577C15.264 14.9525 16.1841 13.7115 17.0004 14.3168L20.5669 16.9569L22.2918 15.7837L19.4868 13.8585C18.6479 13.2861 19.5196 12.0087 20.3586 12.5811L23.6645 14.8497L24.4026 14.3476L24.5624 13.9866L20.3816 10.0962L17.2513 10.4207C17.0056 10.4565 16.7466 10.3735 16.5668 10.1759L14.8948 8.34455L12.0961 10.8231C11.7712 11.1335 11.275 11.1369 10.9698 10.7974L9.56541 9.23564C9.47944 9.14036 9.41615 9.02237 9.38601 8.88837L9.11281 7.68165L4.96185 12.0898C8.66875 14.7288 12.376 17.3678 16.0833 20.0068ZM6.9655 15.4133L6.76041 16.4986L10.95 20.6884L13.9498 20.3853L6.9655 15.4133ZM16.5389 21.5633C16.4286 21.6468 16.295 21.7018 16.1477 21.7164L10.7971 22.2565C10.5563 22.2996 10.2983 22.2282 10.1122 22.0417L5.37797 17.3053C5.20417 17.1307 5.11596 16.8765 5.16473 16.6163L5.57861 14.4262L3.3602 12.8468C3.32485 12.8231 3.2906 12.7959 3.2586 12.7654L0.273061 9.93433C-0.0544884 9.65285 -0.0946878 9.15748 0.19229 8.83178L6.64726 1.49654C6.93981 1.17235 7.43149 1.14257 7.75274 1.44295L10.6404 4.14745L12.0098 3.47227C12.12 3.41791 12.2368 3.39224 12.3518 3.3926L20.2279 3.39074L23.3374 0.621096C23.6754 0.320345 24.1957 0.373571 24.4689 0.732017L30.8345 8.81282C31.1185 9.17387 31.0262 9.70014 30.6402 9.94504L26.8425 12.6577L25.7311 15.171C25.6615 15.3285 25.5461 15.4517 25.4068 15.5309C22.4507 17.5417 19.4946 19.5527 16.5389 21.5633ZM10.3898 6.32566L10.8485 8.34901L11.6078 9.1932L14.4418 6.68335C14.7586 6.40346 15.241 6.43027 15.5242 6.74218L17.4479 8.84629L20.573 8.52211C20.8033 8.49866 21.0207 8.57907 21.1781 8.72533L25.2242 12.4903L25.3336 12.2423L20.1252 4.94029H12.5279L10.9717 5.70777L10.3898 6.32566ZM23.7528 2.32398L21.554 4.28256L26.3995 11.0751L29.1171 9.13367L23.7528 2.32398Z" fill="black"/>
</svg>
