<svg width="24" height="25" viewBox="0 0 24 25" fill="none" xmlns="http://www.w3.org/2000/svg">
<g clip-path="url(#clip0_104_373)">
<path d="M11.8903 12.3438C13.2405 12.3438 14.5605 12.0006 15.6831 11.3576C16.8058 10.7146 17.6808 9.80075 18.1975 8.7315C18.7142 7.66225 18.8494 6.48573 18.586 5.35061C18.3226 4.21552 17.6724 3.17287 16.7176 2.35451C15.7629 1.53616 14.5464 0.978848 13.2222 0.753064C11.8979 0.52728 10.5252 0.64316 9.27781 1.08605C8.03038 1.52894 6.96418 2.27895 6.21405 3.24124C5.46386 4.20353 5.06348 5.33487 5.06348 6.49219C5.06348 8.04413 5.78277 9.53252 7.06302 10.6299C8.34332 11.7273 10.0798 12.3438 11.8903 12.3438ZM11.8903 2.31251C12.8548 2.31251 13.7975 2.55764 14.5994 3.01691C15.4014 3.47618 16.0264 4.12896 16.3954 4.8927C16.7645 5.65644 16.8611 6.49683 16.6729 7.30761C16.4848 8.1184 16.0204 8.86316 15.3384 9.44769C14.6564 10.0322 13.7876 10.4303 12.8416 10.5916C11.8957 10.7529 10.9153 10.6701 10.0242 10.3538C9.13323 10.0374 8.37164 9.50168 7.83581 8.81431C7.30002 8.12698 7.01402 7.31887 7.01402 6.49219C7.01402 5.38368 7.52775 4.32055 8.44226 3.53671C9.35676 2.75286 10.597 2.31251 11.8903 2.31251Z" fill="black"/>
<path d="M12.8649 14.0162H10.9144C8.06919 14.0162 5.34052 14.985 3.32865 16.7095C1.31678 18.4339 0.186523 20.7728 0.186523 23.2116C0.186523 23.4333 0.289274 23.6459 0.472171 23.8027C0.655068 23.9594 0.903129 24.0475 1.16178 24.0475H22.6175C22.8762 24.0475 23.1242 23.9594 23.3072 23.8027C23.49 23.6459 23.5928 23.4333 23.5928 23.2116C23.5928 20.7728 22.4625 18.4339 20.4507 16.7095C18.4388 14.985 15.7101 14.0162 12.8649 14.0162ZM2.19556 22.3756C2.43537 20.5371 3.45708 18.8387 5.06543 17.6051C6.67382 16.3715 8.75606 15.689 10.9144 15.6881H12.8649C15.0232 15.689 17.1055 16.3715 18.7139 17.6051C20.3223 18.8387 21.3439 20.5371 21.5838 22.3756H2.19556Z" fill="black"/>
</g>
<defs>
<clipPath id="clip0_104_373">
<rect width="23.6854" height="23.6854" fill="white" transform="translate(0 0.493652)"/>
</clipPath>
</defs>
</svg>
