<svg width="25" height="25" viewBox="0 0 25 25" fill="none" xmlns="http://www.w3.org/2000/svg">
<g clip-path="url(#clip0_104_389)">
<path d="M12.4999 0C5.59583 0 0 5.59587 0 12.4999C0 19.4039 5.59583 25 12.4999 25C19.404 25 24.9998 19.4039 24.9998 12.4999C24.9998 5.59587 19.4039 0 12.4999 0ZM12.4999 1.04168C18.818 1.04168 23.9582 6.18181 23.9582 12.5C23.9582 15.2796 22.9623 17.8308 21.3093 19.817C20.1669 19.3399 17.4702 18.404 15.8008 17.9111C15.6585 17.8664 15.636 17.8593 15.636 17.2667C15.636 16.7774 15.8375 16.2846 16.0338 15.8675C16.2464 15.4143 16.4986 14.6524 16.5892 13.9688C16.8425 13.6748 17.1874 13.095 17.4091 11.9898C17.6034 11.0157 17.5128 10.6612 17.3837 10.3286C17.3705 10.2935 17.3562 10.2589 17.3461 10.2243C17.2972 9.9959 17.3643 8.80931 17.5312 7.88868C17.6461 7.25698 17.5017 5.91368 16.632 4.80243C16.0827 4.1 15.0318 3.2379 13.1123 3.11788L12.0595 3.11887C10.1725 3.23795 9.12062 4.1 8.57132 4.80243C7.7016 5.91375 7.55719 7.25701 7.67212 7.88826C7.83993 8.80931 7.90608 9.9959 7.85826 10.2197C7.84809 10.2589 7.83385 10.2935 7.81962 10.3286C7.69142 10.6612 7.5999 11.0157 7.79521 11.9898C8.01594 13.095 8.3608 13.6749 8.6151 13.9688C8.70462 14.6524 8.95691 15.4143 9.17052 15.8675C9.32615 16.1992 9.39941 16.6503 9.39941 17.2881C9.39941 17.8806 9.37698 17.8878 9.24372 17.93C7.51747 18.4397 4.76993 19.4325 3.74552 19.8811C2.05996 17.8858 1.04168 15.3101 1.04168 12.5C1.04163 6.18177 6.18177 1.04168 12.4999 1.04168ZM4.50024 20.693C5.67316 20.2142 8.01181 19.38 9.54781 18.9264C10.441 18.6446 10.441 17.8923 10.441 17.2881C10.441 16.7871 10.4064 16.0485 10.1134 15.424C9.91201 14.9962 9.68208 14.2628 9.63128 13.6886C9.62007 13.5543 9.55701 13.4302 9.45528 13.3417C9.30778 13.2125 9.00767 12.7395 8.81642 11.7853C8.6649 11.03 8.72899 10.8648 8.79104 10.705C8.81746 10.6368 8.84292 10.5697 8.8633 10.4939C8.9884 10.0367 8.84899 8.53472 8.69746 7.7016C8.63139 7.33944 8.71476 6.31052 9.39222 5.44378C9.99951 4.66712 10.9191 4.23427 12.092 4.15951L13.0797 4.15847C14.2842 4.23427 15.2037 4.66712 15.812 5.44378C16.4895 6.31052 16.5719 7.33944 16.5058 7.70205C16.3552 8.53472 16.2148 10.0367 16.3399 10.4934C16.3614 10.5697 16.3857 10.6368 16.4122 10.705C16.4743 10.8647 16.5383 11.03 16.3878 11.7853C16.1966 12.7395 15.8955 13.2125 15.748 13.3417C15.6473 13.4302 15.5842 13.5543 15.5719 13.6885C15.5221 14.2627 15.2922 14.9962 15.0908 15.424C14.8599 15.9148 14.5944 16.5684 14.5944 17.2667C14.5944 17.871 14.5944 18.6232 15.4967 18.9075C16.9666 19.3419 19.3165 20.1491 20.5575 20.6371C18.4854 22.6889 15.6382 23.9584 12.4999 23.9584C9.39017 23.9584 6.56733 22.7113 4.50024 20.693Z" fill="#37404D"/>
</g>
<defs>
<clipPath id="clip0_104_389">
<rect width="25" height="25" fill="white"/>
</clipPath>
</defs>
</svg>
