<svg width="27" height="24" viewBox="0 0 27 24" fill="none" xmlns="http://www.w3.org/2000/svg">
<g clip-path="url(#clip0_104_376)">
<path d="M24.4101 8.14339L22.6312 2.80544C22.3732 2.02846 21.8769 1.35256 21.2127 0.873786C20.5486 0.395007 19.7505 0.137702 18.9318 0.138429H7.07519C6.25646 0.137702 5.45836 0.395007 4.79424 0.873786C4.13011 1.35256 3.63376 2.02846 3.3757 2.80544L1.59683 8.14339C1.1243 8.34165 0.720753 8.67493 0.436715 9.10141C0.152677 9.52795 0.000766022 10.0288 0 10.5412V17.0429C0 18.0221 0.550045 18.866 1.35106 19.3094C1.33416 19.3953 1.30035 19.4733 1.30035 19.563V22.2444C1.30035 22.5892 1.43735 22.92 1.68121 23.1639C1.92507 23.4077 2.25582 23.5447 2.6007 23.5447H3.90105C4.24592 23.5447 4.57667 23.4077 4.82053 23.1639C5.06439 22.92 5.20137 22.5892 5.20137 22.2444V19.6437H20.8056V22.2444C20.8056 22.5892 20.9426 22.92 21.1864 23.1639C21.4303 23.4077 21.7611 23.5447 22.1059 23.5447H23.4063C23.7511 23.5447 24.0819 23.4077 24.3257 23.1639C24.5696 22.92 24.7066 22.5892 24.7066 22.2444V19.563C24.7066 19.4733 24.6728 19.394 24.6559 19.3094C25.0634 19.0873 25.4038 18.7597 25.6415 18.361C25.8792 17.9623 26.0054 17.5071 26.007 17.0429V10.5412C26.007 9.46321 25.3464 8.53736 24.4101 8.14339ZM2.6007 17.0429V10.5412H23.4063L23.4089 17.0429H2.6007ZM7.07519 2.73913H18.9305C19.4909 2.73913 19.9877 3.09542 20.1645 3.62857L21.6027 7.94053H4.40428L5.84118 3.62857C5.92743 3.36953 6.09308 3.14422 6.31454 2.98458C6.53605 2.82493 6.80216 2.73906 7.07519 2.73913Z" fill="black"/>
<path d="M5.85189 15.7426C6.92913 15.7426 7.80243 14.8693 7.80243 13.7921C7.80243 12.7149 6.92913 11.8416 5.85189 11.8416C4.77464 11.8416 3.90137 12.7149 3.90137 13.7921C3.90137 14.8693 4.77464 15.7426 5.85189 15.7426Z" fill="black"/>
<path d="M20.1526 15.7426C21.2299 15.7426 22.1032 14.8693 22.1032 13.7921C22.1032 12.7149 21.2299 11.8416 20.1526 11.8416C19.0754 11.8416 18.2021 12.7149 18.2021 13.7921C18.2021 14.8693 19.0754 15.7426 20.1526 15.7426Z" fill="black"/>
</g>
<defs>
<clipPath id="clip0_104_376">
<rect width="26.1527" height="23.6854" fill="white"/>
</clipPath>
</defs>
</svg>
