<svg width="58" height="8" viewBox="0 0 58 8" fill="none" xmlns="http://www.w3.org/2000/svg">
<g clip-path="url(#clip0_2221_287)">
<path d="M4.31239 3.74193C6.04573 3.74193 6.7414 0.0966797 3.49785 0.0966797H0V7.8155H3.61282C7.01713 7.8155 6.52705 3.74193 4.31239 3.74193ZM1.60862 1.35947H3.35073C4.44685 1.35947 4.44685 3.30857 3.35073 3.30857H1.60862V1.35947ZM3.35073 6.47511H1.60862V4.52601H3.35073C4.83463 4.52601 4.83463 6.47511 3.35073 6.47511Z" fill="#231F20"/>
<path d="M9.61375 0.0947266H8.00415V7.81758H9.61375V0.0947266Z" fill="#231F20"/>
<path d="M17.0595 0.0966797H11.1833V1.35947H17.0595V0.0966797Z" fill="#231F20"/>
<path d="M14.917 1.92188H13.3083V7.81555H14.917V1.92188Z" fill="#231F20"/>
<path d="M23.9072 0.0966797H18.031V1.35947H23.9072V0.0966797Z" fill="#231F20"/>
<path d="M21.7734 1.92188H20.1648V7.81555H21.7734V1.92188Z" fill="#231F20"/>
<path d="M27.1994 6.55271H30.9204V7.8155H25.5918V0.0966797H30.9204V1.35947H27.1994V6.55271Z" fill="#231F20"/>
<path d="M30.555 3.32275H28.2556V4.58957H30.555V3.32275Z" fill="#231F20"/>
<path d="M48.7507 3.58579V5.68304C48.4077 6.44394 47.8416 7.07483 47.1421 7.47997C46.5808 7.81154 45.93 8.00101 45.2392 8.00101C43.1005 8.00101 41.3721 6.20811 41.3721 4.00101C41.3721 1.7939 43.1005 0 45.2392 0C46.4113 0 47.4665 0.544218 48.1749 1.39683L46.9277 2.22625C46.5 1.79793 45.9115 1.53086 45.2655 1.53086C43.9463 1.53086 42.8774 2.63643 42.8774 4.00101C42.8774 5.36558 43.9463 6.47115 45.2655 6.47115C46.0274 6.47115 46.7095 6.09826 47.1411 5.52179V4.85362H45.702V3.5868H48.7497L48.7507 3.58579Z" fill="#231F20"/>
<path d="M39.4829 7.81147V7.8155H37.8753L34.4983 2.59V7.8155H32.8848V0.0966797H34.4983L37.0773 4.09265L37.8753 5.32218L39.4829 7.81147Z" fill="#231F20"/>
<path d="M39.4829 0.0966797V6.56682L37.8752 4.07854V0.0966797H39.4829Z" fill="#231F20"/>
<path d="M52.6743 1.99043C52.269 2.60821 52.0332 3.34996 52.0332 4.15218C52.0332 4.71857 52.1491 5.25372 52.3625 5.73747C52.8351 6.82086 53.9984 7.63114 55.1433 7.90325C55.1296 7.90829 55.1208 7.90829 55.1072 7.91232C54.8441 7.96775 54.5723 8 54.2966 8C52.1628 8 50.4294 6.2071 50.4294 4C50.4294 1.79289 52.1628 0 54.2975 0C54.5743 0 54.8451 0.0322499 55.1082 0.0876795C55.3401 0.13807 55.5583 0.21164 55.7717 0.304359C55.5759 0.318468 55.3839 0.345679 55.2017 0.382968C54.2439 0.590577 53.2053 1.18015 52.6743 1.99143V1.99043Z" fill="#231F20"/>
<path d="M57.9999 3.99992C57.9999 5.40582 56.8999 6.54868 55.5358 6.54868C55.2689 6.54868 55.0097 6.50232 54.77 6.41968C55.8574 6.18486 56.6631 5.19418 56.6631 3.99992C56.6631 2.80567 55.8564 1.816 54.77 1.58017C55.0107 1.49753 55.2689 1.45117 55.5358 1.45117C56.8989 1.45117 57.9999 2.59403 57.9999 3.99992Z" fill="#D1252B"/>
</g>
<defs>
<clipPath id="clip0_2221_287">
<rect width="58" height="8" fill="white"/>
</clipPath>
</defs>
</svg>
