<svg width="9" height="10" viewBox="0 0 9 10" fill="none" xmlns="http://www.w3.org/2000/svg">
<path d="M2.66901 2.3665C2.1871 3.10102 1.90676 3.98291 1.90676 4.9367C1.90676 5.61011 2.04461 6.24636 2.29831 6.82151C2.86014 8.10961 4.24331 9.07298 5.60445 9.39651C5.58824 9.4025 5.57781 9.4025 5.56159 9.40729C5.24882 9.47319 4.92562 9.51154 4.59778 9.51154C2.06084 9.51154 0 7.37989 0 4.75577C0 2.13165 2.06084 0 4.59894 0C4.92794 0 5.24997 0.0383433 5.56275 0.104246C5.83845 0.164157 6.09794 0.251628 6.35163 0.361865C6.11879 0.37864 5.89058 0.410992 5.67396 0.455327C4.53523 0.702162 3.30035 1.40313 2.66901 2.3677V2.3665Z" fill="#231F20"/>
<path d="M8.99985 4.75568C8.99985 6.42721 7.69198 7.786 6.07019 7.786C5.75278 7.786 5.44464 7.73088 5.15967 7.63262C6.45247 7.35344 7.41048 6.17558 7.41048 4.75568C7.41048 3.33578 6.45131 2.15912 5.15967 1.87873C5.4458 1.78048 5.75278 1.72536 6.07019 1.72536C7.69082 1.72536 8.99985 3.08415 8.99985 4.75568Z" fill="#D1252B"/>
</svg>
