<svg width="96" height="14" viewBox="0 0 96 14" fill="none" xmlns="http://www.w3.org/2000/svg">
<g clip-path="url(#clip0_2427_761)">
<path d="M7.13783 6.19373C10.0068 6.19373 11.1583 0.160156 5.78962 0.160156H0V12.9363H5.9799C11.6147 12.9363 10.8035 6.19373 7.13783 6.19373ZM2.66258 2.25031H5.54611C7.36039 2.25031 7.36039 5.47647 5.54611 5.47647H2.66258V2.25031ZM5.54611 10.7177H2.66258V7.49153H5.54611C8.00222 7.49153 8.00222 10.7177 5.54611 10.7177Z" fill="white"/>
<path d="M15.9122 0.156494H13.248V12.9393H15.9122V0.156494Z" fill="white"/>
<path d="M28.2369 0.160156H18.5107V2.25031H28.2369V0.160156Z" fill="white"/>
<path d="M24.6914 3.18091H22.0288V12.9361H24.6914V3.18091Z" fill="white"/>
<path d="M39.571 0.160156H29.8447V2.25031H39.571V0.160156Z" fill="white"/>
<path d="M36.0393 3.18091H33.3767V12.9361H36.0393V3.18091Z" fill="white"/>
<path d="M45.0209 10.8461H51.1798V12.9363H42.3599V0.160156H51.1798V2.25031H45.0209V10.8461Z" fill="white"/>
<path d="M50.5751 5.49951H46.769V7.59633H50.5751V5.49951Z" fill="white"/>
<path d="M80.6917 5.93518V9.40652C80.1243 10.666 79.1873 11.7102 78.0294 12.3808C77.1003 12.9296 76.0232 13.2432 74.8798 13.2432C71.3399 13.2432 68.479 10.2756 68.479 6.62244C68.479 2.96925 71.3399 0 74.8798 0C76.8197 0 78.5664 0.900784 79.7387 2.31202L77.6743 3.68488C76.9664 2.97593 75.9924 2.53387 74.9231 2.53387C72.7397 2.53387 70.9703 4.36378 70.9703 6.62244C70.9703 8.88105 72.7397 10.711 74.9231 10.711C76.1844 10.711 77.3133 10.0938 78.0275 9.13963V8.03368H75.6458V5.93686H80.6901L80.6917 5.93518Z" fill="white"/>
<path d="M65.3514 12.9296V12.9363H62.6903L57.1009 4.28708V12.9363H54.4304V0.160156H57.1009L61.3697 6.77426L62.6903 8.80934L65.3514 12.9296Z" fill="white"/>
<path d="M65.3514 0.160156V10.8695L62.6907 6.75089V0.160156H65.3514Z" fill="white"/>
<path d="M87.1865 3.29454C86.5156 4.31711 86.1254 5.54482 86.1254 6.87266C86.1254 7.81015 86.317 8.69592 86.6706 9.49662C87.4526 11.2898 89.3781 12.631 91.2731 13.0814C91.2505 13.0897 91.236 13.0898 91.2134 13.0964C90.7779 13.1882 90.3279 13.2415 89.8717 13.2415C86.3396 13.2415 83.4709 10.274 83.4709 6.62076C83.4709 2.96759 86.3396 0 89.8733 0C90.331 0 90.7794 0.0533799 91.2149 0.145126C91.5989 0.228532 91.9599 0.350305 92.3131 0.503774C91.9892 0.527126 91.6715 0.572164 91.3699 0.633885C89.7843 0.977518 88.0653 1.95337 87.1865 3.29621V3.29454Z" fill="white"/>
<path d="M95.9998 6.62076C95.9998 8.94778 94.1793 10.8394 91.9213 10.8394C91.4796 10.8394 91.0503 10.7627 90.6538 10.6259C92.4536 10.2373 93.7871 8.5975 93.7871 6.62076C93.7871 4.64405 92.4521 3.00596 90.6538 2.61562C91.0522 2.47883 91.4796 2.4021 91.9213 2.4021C94.1773 2.4021 95.9998 4.29373 95.9998 6.62076Z" fill="#D1252B"/>
</g>
<defs>
<clipPath id="clip0_2427_761">
<rect width="96" height="13.2683" fill="white"/>
</clipPath>
</defs>
</svg>
