<svg width="8" height="8" viewBox="0 0 8 8" fill="none" xmlns="http://www.w3.org/2000/svg">
<path d="M6.46035 5.7332C6.45057 5.69759 6.43088 5.66843 6.40141 5.64602C6.37194 5.62361 6.33881 5.61224 6.30197 5.61224H5.59434C5.56978 5.61224 5.54615 5.61747 5.52404 5.62821C5.50194 5.63865 5.4829 5.65339 5.46725 5.67211C5.45159 5.69115 5.44084 5.71264 5.43501 5.73627C5.42918 5.76022 5.42857 5.78416 5.43348 5.80811L5.47369 6.00856C5.47738 6.02701 5.48413 6.04452 5.49395 6.06049C5.50378 6.07676 5.51575 6.09084 5.53049 6.10281C5.54522 6.11478 5.5615 6.12403 5.5793 6.13045C5.5971 6.13688 5.61552 6.13994 5.63456 6.13994H6.35632C6.36888 6.13994 6.38119 6.13841 6.39345 6.1357C6.40571 6.13293 6.41768 6.12863 6.42876 6.12309C6.44014 6.11755 6.45057 6.11083 6.46035 6.10281C6.4702 6.09485 6.4788 6.08595 6.48647 6.07581C6.49413 6.06568 6.50061 6.05524 6.5058 6.04357C6.51105 6.0322 6.5147 6.02023 6.51718 6.00797C6.51965 5.99571 6.52054 5.9831 6.52024 5.97048C6.51965 5.95793 6.51777 5.94567 6.5147 5.93364L6.46035 5.7332ZM5.66127 5.94349L5.63425 5.80872H6.27681L6.31335 5.94349H5.66127Z" fill="black"/>
<path d="M6.22762 5.55873C6.24023 5.55873 6.25249 5.5572 6.26475 5.55443C6.27707 5.55136 6.28904 5.54737 6.30041 5.54184C6.31144 5.53601 6.32216 5.52926 6.33171 5.52128C6.3415 5.5133 6.3501 5.50439 6.35777 5.49457C6.36549 5.48444 6.37191 5.47369 6.37716 5.46233C6.38235 5.45098 6.38606 5.439 6.38848 5.42672C6.39095 5.41414 6.39189 5.40185 6.39154 5.38927C6.39125 5.37668 6.38942 5.3644 6.38606 5.35212L6.33171 5.15196C6.32187 5.11635 6.30224 5.08718 6.27306 5.06477C6.24359 5.04236 6.21041 5.03101 6.17327 5.03101H5.49913C5.47457 5.03101 5.45124 5.03622 5.42883 5.04666C5.40672 5.0571 5.38769 5.07184 5.37234 5.09087C5.35668 5.1099 5.34594 5.13139 5.3398 5.15503C5.33396 5.17898 5.33335 5.20261 5.33826 5.22687L5.37848 5.42703C5.38216 5.44575 5.38892 5.46295 5.39874 5.47922C5.40856 5.49549 5.42085 5.50961 5.43528 5.52158C5.45001 5.53356 5.46628 5.54277 5.48409 5.5489C5.50189 5.55535 5.52031 5.55873 5.53935 5.55873H6.22762ZM6.14811 5.22748L6.18494 5.36225H5.56636L5.53904 5.22748H6.14811Z" fill="black"/>
<path d="M6.09844 4.99337C6.111 4.99337 6.12361 4.99183 6.13587 4.98906C6.14819 4.986 6.15986 4.98201 6.17118 4.97617C6.18256 4.97064 6.19299 4.9639 6.20283 4.95591C6.21232 4.94793 6.22122 4.93903 6.22889 4.9292C6.23661 4.91907 6.24274 4.90833 6.24792 4.89697C6.25317 4.8853 6.25718 4.87364 6.25959 4.86136C6.26178 4.84877 6.26301 4.83649 6.26237 4.82391C6.26207 4.81132 6.26024 4.79904 6.25682 4.78676L6.20248 4.58659C6.19269 4.55099 6.17336 4.52182 6.14389 4.49941C6.11442 4.477 6.08123 4.46564 6.0441 4.46564H5.4034C5.37884 4.46564 5.35551 4.47086 5.3331 4.4813C5.31099 4.49173 5.29227 4.50647 5.27661 4.52551C5.26095 4.54454 5.25021 4.56572 5.24438 4.58967C5.23823 4.6133 5.23762 4.63725 5.24253 4.66151L5.28275 4.86166C5.28643 4.88039 5.29319 4.89758 5.30301 4.91385C5.31283 4.93012 5.32512 4.94394 5.33985 4.95591C5.35428 4.96819 5.37055 4.97709 5.38836 4.98354C5.40616 4.98999 5.42458 4.99306 5.44362 4.99337H6.09844ZM6.01892 4.66212L6.05547 4.79689H5.47063L5.44362 4.66212H6.01892Z" fill="black"/>
<path d="M5.96871 4.41207C5.9813 4.41207 5.99389 4.41084 6.00586 4.40777C6.01813 4.40501 6.03011 4.40102 6.04116 4.39549C6.05254 4.38996 6.06297 4.38321 6.07276 4.37523C6.08231 4.36725 6.09121 4.35834 6.09887 4.34852C6.10653 4.33839 6.11302 4.32795 6.1182 4.31629C6.12345 4.30493 6.1271 4.29326 6.12958 4.28098C6.13205 4.2687 6.13323 4.25611 6.13294 4.24383C6.13235 4.23125 6.13082 4.21896 6.1274 4.20669L6.07464 4.00653C6.06509 3.97061 6.04576 3.94114 6.01599 3.91842C5.98652 3.8957 5.95336 3.88434 5.9159 3.88434H5.30775C5.28319 3.88434 5.25986 3.88956 5.23775 3.9C5.21534 3.91044 5.19661 3.92517 5.18096 3.94421C5.1653 3.96293 5.15456 3.98442 5.14872 4.00806C5.14259 4.0317 5.14197 4.05564 5.14658 4.07959L5.18618 4.28006C5.18986 4.29848 5.19661 4.31598 5.20613 4.33225C5.21595 4.34852 5.22824 4.36264 5.24297 4.37492C5.25771 4.38689 5.27398 4.3961 5.29178 4.40255C5.30959 4.409 5.32801 4.41207 5.34704 4.41207H5.96871ZM5.89074 4.08082L5.92634 4.21559H5.37406L5.34766 4.08082H5.89074Z" fill="black"/>
<mask id="mask0_1_108043" style="mask-type:luminance" maskUnits="userSpaceOnUse" x="0" y="0" width="8" height="8">
<path d="M0.140625 0H7.31695V8H0.140625V0Z" fill="white"/>
</mask>
<g mask="url(#mask0_1_108043)">
<path d="M6.26556 3.28243C6.25578 3.24528 6.24316 3.20936 6.22754 3.17437C6.21157 3.13937 6.19312 3.10591 6.17196 3.07398C6.1508 3.04205 6.12716 3.01197 6.10076 2.98403C6.07464 2.9561 6.04641 2.93031 6.0157 2.90697C5.9853 2.88364 5.95307 2.86277 5.9193 2.84465C5.88553 2.82685 5.85022 2.8115 5.814 2.79922C5.77746 2.78694 5.74032 2.77773 5.70256 2.77159C5.66449 2.76545 5.62642 2.76238 5.58805 2.76269H4.38708L4.34011 1.69219H4.49023C4.51755 1.69219 4.54457 1.68974 4.57128 1.68452C4.59799 1.6793 4.62378 1.67132 4.64895 1.66119C4.67413 1.65075 4.69807 1.63816 4.72079 1.62312C4.74351 1.60808 4.76469 1.59119 4.78403 1.57185C4.80337 1.55282 4.82056 1.53194 4.83561 1.50953C4.85096 1.48712 4.86385 1.46317 4.87428 1.43831C4.88472 1.41314 4.8927 1.38735 4.89823 1.36064C4.90376 1.33424 4.90652 1.30722 4.90652 1.28021V1.24981H5.09225C5.11128 1.24981 5.13002 1.24613 5.14782 1.23907C5.16532 1.2317 5.18128 1.22126 5.19479 1.20775C5.2083 1.19425 5.21904 1.17859 5.22641 1.16078C5.23378 1.14298 5.23746 1.12456 5.23746 1.10552V0.59131C5.23746 0.571966 5.23378 0.553547 5.22641 0.536048C5.21904 0.518242 5.2083 0.502586 5.19479 0.489078C5.18128 0.47557 5.16532 0.465132 5.14782 0.457764C5.13002 0.450396 5.11128 0.446712 5.09225 0.446712H4.90652V0.416627C4.90652 0.389611 4.90376 0.362596 4.89823 0.335887C4.8927 0.309485 4.88472 0.283698 4.87428 0.258524C4.86385 0.233657 4.85096 0.209712 4.83561 0.187301C4.82056 0.164583 4.80306 0.144015 4.78403 0.124674C4.76469 0.10564 4.74351 0.0884487 4.72079 0.0737129C4.69807 0.05867 4.67413 0.0460831 4.64895 0.0356452C4.62378 0.0252074 4.59799 0.0175325 4.57128 0.0123136C4.54457 0.00709457 4.51755 0.00463867 4.49023 0.00463867H2.84689C2.81987 0.00463867 2.79285 0.00709457 2.76615 0.0123136C2.73944 0.0175325 2.71334 0.0252074 2.68817 0.0356452C2.663 0.0460831 2.63905 0.05867 2.61633 0.0737129C2.59362 0.0887552 2.57274 0.10564 2.5534 0.124674C2.53406 0.144015 2.51687 0.164583 2.50152 0.187301C2.48647 0.209712 2.47358 0.233657 2.46284 0.258524C2.4524 0.283698 2.44442 0.309485 2.43889 0.336194C2.43367 0.362596 2.43091 0.389611 2.4306 0.416627V1.28021C2.43091 1.30722 2.43367 1.33424 2.43889 1.36064C2.44442 1.38735 2.4524 1.41314 2.46284 1.43831C2.47358 1.46317 2.48647 1.48712 2.50152 1.50953C2.51687 1.53194 2.53406 1.55282 2.5534 1.57185C2.57274 1.59119 2.59362 1.60808 2.61633 1.62312C2.63905 1.63816 2.663 1.65075 2.68817 1.66119C2.71334 1.67132 2.73944 1.6793 2.76615 1.68452C2.79285 1.68974 2.81987 1.69219 2.84689 1.69219H3.11458L3.0799 2.76269H1.86972C1.83134 2.76238 1.79328 2.76545 1.75521 2.77159C1.71745 2.77773 1.6803 2.78694 1.64377 2.79922C1.60754 2.8115 1.57224 2.82654 1.53847 2.84465C1.5047 2.86277 1.47247 2.88364 1.44207 2.90697C1.41137 2.93031 1.38313 2.95578 1.35704 2.98403C1.33063 3.01197 1.307 3.04205 1.28581 3.07398C1.26463 3.10591 1.24621 3.13937 1.23025 3.17437C1.21459 3.20936 1.202 3.24528 1.19218 3.28243L0.194445 7.12877C0.167429 7.23163 0.164666 7.33537 0.186156 7.43946C0.207646 7.54385 0.251239 7.6378 0.316936 7.72156C0.383247 7.80756 0.465215 7.87417 0.562533 7.92173C0.660157 7.96936 0.763307 7.99264 0.871986 7.99235H6.5858C6.69449 7.99264 6.79764 7.96936 6.89525 7.92173C6.99257 7.87417 7.0745 7.80726 7.14081 7.72156C7.20653 7.6378 7.25015 7.54385 7.2716 7.43946C7.29312 7.33537 7.29035 7.23163 7.26335 7.12877L6.26556 3.28243ZM4.90652 0.643191H5.04068V1.05364H4.90652V0.643191ZM3.168 0.201116H4.16912V0.701209H3.168V0.201116ZM2.84689 1.49572C2.81803 1.49572 2.7904 1.4905 2.76338 1.47975C2.73668 1.4687 2.71303 1.45335 2.69247 1.43309C2.6719 1.41283 2.65594 1.38949 2.64488 1.36309C2.63353 1.33639 2.62769 1.30875 2.62738 1.28021V0.416627C2.62769 0.387769 2.63353 0.360139 2.64488 0.333738C2.65594 0.307336 2.6719 0.283698 2.69247 0.263743C2.71303 0.243482 2.73668 0.227824 2.76338 0.21708C2.7904 0.206335 2.81803 0.200809 2.84689 0.201116H2.97122V0.701209C2.97122 0.727309 2.97644 0.752478 2.98626 0.776427C2.99639 0.800369 3.01051 0.82186 3.02893 0.84028C3.04735 0.858699 3.06884 0.872822 3.09279 0.882648C3.11704 0.892774 3.14191 0.89769 3.168 0.89769H4.16912C4.19521 0.89769 4.22039 0.892774 4.24433 0.882648C4.26858 0.872822 4.28976 0.858699 4.30818 0.84028C4.3266 0.82186 4.34103 0.800369 4.35086 0.776427C4.36099 0.752478 4.3659 0.727309 4.3659 0.701209V0.201116H4.49023C4.51909 0.200809 4.54703 0.206335 4.57374 0.21708C4.60045 0.227824 4.62408 0.243482 4.64465 0.263743C4.66522 0.283698 4.68119 0.307336 4.69254 0.333738C4.7036 0.360139 4.70943 0.387769 4.70973 0.416627V1.28021C4.70943 1.30875 4.7036 1.33639 4.69254 1.36309C4.68119 1.38949 4.66522 1.41283 4.64465 1.43309C4.62408 1.45335 4.60045 1.4687 4.57374 1.47975C4.54703 1.4905 4.51909 1.49572 4.49023 1.49572H2.84689ZM4.24341 3.98514H3.88729C3.86642 3.98514 3.84585 3.98729 3.82559 3.99097C3.80533 3.99497 3.78537 4.00111 3.76634 4.00878C3.747 4.01676 3.72888 4.02628 3.7117 4.03795C3.6942 4.0493 3.67823 4.0622 3.66349 4.07694C3.64876 4.09137 3.63587 4.10733 3.6242 4.12452C3.61254 4.14171 3.60271 4.15982 3.59473 4.17885C3.58675 4.19789 3.58061 4.21754 3.57662 4.2378C3.57232 4.25806 3.57017 4.27863 3.57017 4.29951V4.84903H3.20914L3.31168 1.69219H4.14302L4.24341 3.98514ZM3.17537 5.0452H3.57017V5.7476C3.57017 5.76817 3.57232 5.78875 3.57662 5.809C3.58061 5.82927 3.58675 5.84891 3.59473 5.86795C3.60271 5.88698 3.61254 5.90511 3.6242 5.92226C3.63587 5.93947 3.64876 5.95545 3.66349 5.96989C3.67823 5.98463 3.6942 5.99747 3.7117 6.00915C3.72888 6.02052 3.747 6.03007 3.76634 6.03803C3.78537 6.04569 3.80533 6.05182 3.82559 6.05583C3.84585 6.05984 3.86642 6.06166 3.88729 6.06166H4.96117C4.9756 6.06166 4.98941 6.06414 5.00292 6.06903C5.01673 6.07392 5.0287 6.081 5.03976 6.09055C5.05081 6.09974 5.05971 6.11076 5.06677 6.12338C5.07352 6.13593 5.07813 6.14949 5.08028 6.16358L5.23132 7.2565C5.23654 7.29151 5.22702 7.32216 5.20369 7.34857C5.17944 7.37621 5.14905 7.39001 5.11221 7.39001H3.88023C3.86458 7.39001 3.84923 7.38694 3.83449 7.38111C3.82006 7.37527 3.80717 7.36672 3.79581 7.35564C3.78445 7.34462 3.77586 7.33201 3.76971 7.31757C3.76327 7.30283 3.7602 7.2878 3.7602 7.27212V6.93721C3.75989 6.91634 3.75774 6.89606 3.75375 6.87579C3.74945 6.85557 3.74362 6.83559 3.73533 6.81655C3.72735 6.79751 3.71753 6.77941 3.70617 6.7622C3.6945 6.74505 3.6813 6.72937 3.66656 6.71464C3.65183 6.70019 3.63587 6.68699 3.61867 6.67567C3.60118 6.6643 3.58306 6.65446 3.56403 6.64679C3.54469 6.63884 3.52504 6.633 3.50447 6.62899C3.48421 6.62498 3.46364 6.62286 3.44277 6.62316H2.73944C2.66238 5.05011 2.90092 4.41617 3.03354 4.19053L3.01143 4.87635C3.01051 4.89846 3.0142 4.91995 3.02218 4.94051C3.03016 4.96108 3.04183 4.9795 3.05749 4.99546C3.07283 5.01143 3.09095 5.02371 3.11121 5.0323C3.13178 5.0409 3.15296 5.0452 3.17537 5.0452ZM2.54235 6.62316H2.45147C2.41463 6.62316 2.38424 6.60936 2.35999 6.58172C2.33666 6.55531 2.32715 6.5246 2.33236 6.48959L2.75817 3.40799C2.76031 3.39387 2.76492 3.38036 2.77198 3.36777C2.77904 3.35519 2.78794 3.34444 2.79869 3.33492C2.80974 3.32572 2.82202 3.31835 2.83553 3.31344C2.84903 3.30852 2.86316 3.30607 2.87759 3.30607H3.06209L3.04214 3.92927C2.98012 3.95014 2.9307 3.98791 2.89447 4.04224C2.72685 4.29244 2.46191 4.95863 2.54235 6.62316ZM6.9852 7.60155C6.93763 7.66297 6.87869 7.71113 6.80837 7.7452C6.73805 7.77933 6.66408 7.79618 6.5858 7.79589H0.871986C0.793698 7.79618 0.719714 7.77933 0.649413 7.7452C0.579418 7.71083 0.520167 7.66297 0.472583 7.60126C0.425613 7.54137 0.394606 7.47447 0.379256 7.39985C0.3636 7.32558 0.365749 7.25155 0.384782 7.17787L1.38282 3.33155C1.39695 3.27783 1.41936 3.22809 1.45037 3.18204C1.48106 3.13568 1.51852 3.09577 1.56242 3.06231C1.60662 3.02854 1.65482 3.00276 1.70763 2.98495C1.76012 2.96746 1.81415 2.95855 1.86972 2.95886H3.07345L3.06854 3.10959H2.87759C2.83921 3.10959 2.80237 3.11635 2.76676 3.12955C2.73084 3.14305 2.69861 3.16209 2.66975 3.18695C2.64089 3.21182 2.61725 3.24099 2.59883 3.27445C2.58072 3.30791 2.56875 3.34352 2.56322 3.38128L2.13742 6.46259C2.13128 6.50739 2.13465 6.5516 2.14755 6.59492C2.16044 6.63819 2.18193 6.67685 2.21171 6.71098C2.2418 6.74535 2.27802 6.77205 2.31978 6.79109C2.36153 6.81012 2.40573 6.81961 2.45147 6.81932H3.44277C3.45873 6.81932 3.47377 6.82209 3.48851 6.82822C3.50324 6.83405 3.51613 6.84237 3.5275 6.85339C3.53854 6.86447 3.54745 6.87738 3.55359 6.89176C3.55973 6.9062 3.5628 6.92159 3.56311 6.93721V7.27212C3.56311 7.29269 3.56526 7.31326 3.56955 7.33354C3.57354 7.35382 3.57969 7.37344 3.58767 7.39248C3.59565 7.41182 3.60547 7.42997 3.61714 7.44712C3.6288 7.46433 3.6417 7.47995 3.65644 7.49469C3.67117 7.50913 3.68713 7.52233 3.70463 7.53371C3.72182 7.54509 3.73994 7.55487 3.75927 7.56259C3.77862 7.57055 3.79827 7.57639 3.81853 7.58039C3.8391 7.58434 3.85967 7.58652 3.88023 7.58623H5.11221C5.15826 7.58652 5.20216 7.57697 5.24391 7.55794C5.28597 7.5389 5.32189 7.5122 5.35197 7.47783C5.38206 7.44376 5.40324 7.4051 5.41644 7.36177C5.42933 7.31851 5.43271 7.2743 5.42657 7.22945L5.27553 6.13688C5.27001 6.09909 5.25803 6.06349 5.23991 6.03007C5.2215 5.99659 5.19786 5.96741 5.169 5.94254C5.14014 5.91767 5.10791 5.89863 5.07199 5.88514C5.03638 5.87194 4.99923 5.86518 4.96117 5.86518H3.88729C3.87164 5.86549 3.85629 5.86242 3.84155 5.85659C3.82712 5.85075 3.81423 5.84216 3.80287 5.83111C3.79151 5.82006 3.78292 5.80747 3.77678 5.79304C3.77033 5.77831 3.76726 5.76326 3.76696 5.7476V4.2992C3.76726 4.28354 3.77033 4.2685 3.77647 4.25407C3.78292 4.23934 3.79151 4.22675 3.80287 4.21569C3.81423 4.20464 3.82712 4.19605 3.84155 4.19022C3.85629 4.18438 3.87164 4.18162 3.88729 4.18162H4.64158C4.68763 4.18162 4.73153 4.17211 4.77329 4.15338C4.81504 4.13434 4.85126 4.10763 4.88135 4.07295C4.91112 4.03886 4.93261 4.00019 4.94551 3.9569C4.95871 3.91361 4.96209 3.86972 4.95594 3.82489L4.89455 3.38128C4.88902 3.34352 4.87705 3.30791 4.85894 3.27445C4.84052 3.24129 4.81688 3.21213 4.78802 3.18695C4.75916 3.16209 4.72693 3.14305 4.69131 3.12955C4.6554 3.11635 4.61856 3.10959 4.58018 3.10959H4.40213L4.39568 2.95886H5.58805C5.64362 2.95886 5.69765 2.96746 5.75014 2.98526C5.80295 3.00276 5.85114 3.02854 5.89535 3.06231C5.93956 3.09577 5.9767 3.13599 6.00771 3.18204C6.03839 3.22809 6.06085 3.27783 6.07494 3.33155L7.07296 7.17787C7.092 7.25155 7.09418 7.32558 7.0788 7.39985C7.06318 7.47447 7.03218 7.54137 6.9852 7.60126V7.60155ZM4.41072 3.30607H4.58018C4.59461 3.30607 4.60873 3.30852 4.62224 3.31344C4.63575 3.31835 4.64803 3.32541 4.65878 3.33492C4.66983 3.34414 4.67873 3.35519 4.68579 3.36777C4.69285 3.38036 4.69746 3.39387 4.69961 3.40799L4.7607 3.8516C4.76592 3.8866 4.7564 3.91729 4.73307 3.94401C4.70881 3.97133 4.67842 3.98514 4.64158 3.98514H4.4405L4.41072 3.30607Z" fill="black"/>
</g>
</svg>
