<svg width="68" height="77" viewBox="0 0 68 77" fill="none" xmlns="http://www.w3.org/2000/svg">
<g clip-path="url(#clip0_212_9)">
<path d="M59.3767 54.6977C59.2848 54.3633 59.0999 54.0894 58.8231 53.8789C58.5464 53.6684 58.2352 53.5617 57.8893 53.5617H51.2435C51.0128 53.5617 50.7908 53.6108 50.5832 53.7117C50.3756 53.8097 50.1968 53.9481 50.0498 54.124C49.9028 54.3027 49.8019 54.5046 49.7471 54.7265C49.6923 54.9514 49.6866 55.1763 49.7327 55.4012L50.1104 57.2838C50.145 57.457 50.2084 57.6214 50.3006 57.7715C50.3929 57.9242 50.5053 58.0565 50.6437 58.1689C50.7821 58.2813 50.935 58.3682 51.1022 58.4285C51.2694 58.4889 51.4424 58.5177 51.6212 58.5177H58.3997C58.5176 58.5177 58.6333 58.5033 58.7484 58.4778C58.8635 58.4518 58.9759 58.4114 59.08 58.3593C59.1868 58.3073 59.2848 58.2442 59.3767 58.1689C59.4692 58.0942 59.55 58.0106 59.6219 57.9154C59.6939 57.8202 59.7548 57.7222 59.8035 57.6126C59.8528 57.5057 59.8871 57.3934 59.9104 57.2782C59.9336 57.1631 59.9419 57.0446 59.9391 56.9262C59.9336 56.8082 59.9159 56.6931 59.8871 56.5802L59.3767 54.6977ZM51.872 56.6726L51.6182 55.407H57.6529L57.9961 56.6726H51.872Z" fill="black"/>
<path d="M57.1872 53.0601C57.3057 53.0601 57.4208 53.0457 57.536 53.0197C57.6517 52.9909 57.764 52.9534 57.8709 52.9015C57.9744 52.8467 58.0751 52.7833 58.1648 52.7083C58.2567 52.6334 58.3375 52.5497 58.4095 52.4575C58.482 52.3623 58.5424 52.2614 58.5916 52.1548C58.6403 52.0481 58.6752 51.9356 58.6979 51.8203C58.7212 51.7021 58.73 51.5867 58.7267 51.4685C58.7239 51.3504 58.7068 51.235 58.6752 51.1197L58.1648 49.2399C58.0724 48.9054 57.888 48.6315 57.614 48.421C57.3372 48.2106 57.0256 48.1039 56.6768 48.1039H50.3455C50.1148 48.1039 49.8957 48.1529 49.6853 48.2509C49.4777 48.3489 49.2989 48.4873 49.1547 48.6661C49.0077 48.8448 48.9068 49.0467 48.8492 49.2687C48.7944 49.4936 48.7886 49.7155 48.8347 49.9433L49.2124 51.8232C49.247 51.999 49.3104 52.1605 49.4027 52.3133C49.495 52.4661 49.6103 52.5988 49.7458 52.7112C49.8842 52.8236 50.037 52.9102 50.2042 52.9678C50.3715 53.0283 50.5445 53.0601 50.7232 53.0601H57.1872ZM56.4404 49.9491L56.7864 51.2148H50.9769L50.7203 49.9491H56.4404Z" fill="black"/>
<path d="M55.9764 47.7551C56.0943 47.7551 56.2128 47.7406 56.3279 47.7147C56.4436 47.6859 56.5532 47.6484 56.6595 47.5936C56.7663 47.5417 56.8643 47.4783 56.9568 47.4033C57.0459 47.3283 57.1295 47.2447 57.2014 47.1524C57.2739 47.0573 57.3315 46.9564 57.3802 46.8497C57.4295 46.7401 57.4671 46.6306 57.4898 46.5153C57.5103 46.397 57.5219 46.2817 57.5159 46.1635C57.5131 46.0453 57.4959 45.93 57.4638 45.8147L56.9534 43.9348C56.8615 43.6004 56.68 43.3265 56.4032 43.116C56.1264 42.9055 55.8147 42.7988 55.466 42.7988H49.4488C49.2181 42.7988 48.999 42.8479 48.7885 42.9459C48.5809 43.0439 48.4051 43.1823 48.258 43.3611C48.111 43.5398 48.01 43.7388 47.9553 43.9637C47.8976 44.1856 47.8919 44.4106 47.938 44.6383L48.3157 46.5182C48.3503 46.694 48.4137 46.8555 48.506 47.0083C48.5982 47.1611 48.7136 47.2908 48.852 47.4033C48.9874 47.5186 49.1403 47.6022 49.3075 47.6628C49.4747 47.7233 49.6477 47.7522 49.8265 47.7551H55.9764ZM55.2296 44.6441L55.5728 45.9098H50.0802L49.8265 44.6441H55.2296Z" fill="black"/>
<path d="M54.7725 42.2942C54.8907 42.2942 55.0089 42.2827 55.1214 42.2539C55.2367 42.2279 55.3491 42.1905 55.4529 42.1385C55.5598 42.0867 55.6578 42.0232 55.7497 41.9483C55.8393 41.8733 55.9229 41.7897 55.9949 41.6974C56.0669 41.6023 56.1278 41.5042 56.1765 41.3947C56.2257 41.288 56.2601 41.1784 56.2833 41.0631C56.3066 40.9478 56.3176 40.8296 56.3149 40.7142C56.3093 40.5961 56.2949 40.4807 56.2628 40.3654L55.7674 38.4856C55.6777 38.1482 55.4961 37.8714 55.2165 37.6581C54.9397 37.4447 54.6284 37.338 54.2766 37.338H48.565C48.3344 37.338 48.1152 37.3871 47.9076 37.4851C47.6971 37.5831 47.5213 37.7215 47.3742 37.9003C47.2272 38.0761 47.1263 38.278 47.0715 38.5C47.0139 38.7219 47.0081 38.9469 47.0513 39.1717L47.4232 41.0545C47.4578 41.2275 47.5213 41.3918 47.6107 41.5446C47.7029 41.6974 47.8183 41.83 47.9567 41.9454C48.095 42.0578 48.2478 42.1443 48.4151 42.2048C48.5823 42.2654 48.7553 42.2942 48.934 42.2942H54.7725ZM54.0402 39.1833L54.3746 40.449H49.1877L48.9398 39.1833H54.0402Z" fill="black"/>
<mask id="mask0_212_9" style="mask-type:luminance" maskUnits="userSpaceOnUse" x="0" y="0" width="68" height="76">
<path d="M0 0.857178H67.3973V75.9901H0V0.857178Z" fill="white"/>
</mask>
<g mask="url(#mask0_212_9)">
<path d="M57.5225 31.6899C57.4306 31.3411 57.3122 31.0037 57.1655 30.6751C57.0155 30.3464 56.8422 30.0321 56.6435 29.7323C56.4447 29.4324 56.2227 29.1499 55.9747 28.8875C55.7295 28.6252 55.4643 28.383 55.1759 28.1638C54.8905 27.9447 54.5877 27.7486 54.2706 27.5785C53.9534 27.4113 53.6218 27.2671 53.2816 27.1518C52.9385 27.0365 52.5896 26.95 52.235 26.8923C51.8775 26.8347 51.52 26.8058 51.1596 26.8087H39.8806L39.4394 16.755H40.8493C41.1059 16.755 41.3597 16.732 41.6105 16.683C41.8613 16.634 42.1035 16.559 42.3399 16.4639C42.5764 16.3658 42.8012 16.2476 43.0146 16.1064C43.228 15.9651 43.4269 15.8065 43.6086 15.6249C43.7902 15.4461 43.9516 15.25 44.0929 15.0396C44.2371 14.8291 44.3582 14.6042 44.4562 14.3707C44.5542 14.1343 44.6292 13.8921 44.6811 13.6412C44.733 13.3932 44.7589 13.1395 44.7589 12.8858V12.6004H46.5032C46.682 12.6004 46.8579 12.5658 47.0251 12.4995C47.1894 12.4303 47.3394 12.3323 47.4662 12.2054C47.5931 12.0785 47.694 11.9315 47.7632 11.7643C47.8324 11.597 47.867 11.424 47.867 11.2453V6.41598C47.867 6.23431 47.8324 6.06132 47.7632 5.89698C47.694 5.72975 47.5931 5.58271 47.4662 5.45585C47.3394 5.329 47.1894 5.23096 47.0251 5.16177C46.8579 5.09257 46.682 5.05797 46.5032 5.05797H44.7589V4.77543C44.7589 4.5217 44.733 4.26798 44.6811 4.01714C44.6292 3.76919 44.5542 3.52701 44.4562 3.29058C44.3582 3.05705 44.2371 2.83216 44.0929 2.62168C43.9516 2.40833 43.7873 2.21516 43.6086 2.03351C43.4269 1.85475 43.228 1.6933 43.0146 1.55491C42.8012 1.41363 42.5764 1.29542 42.3399 1.19739C42.1035 1.09936 41.8613 1.02728 41.6105 0.978269C41.3597 0.929254 41.1059 0.906189 40.8493 0.906189H25.4157C25.1619 0.906189 24.9082 0.929254 24.6574 0.978269C24.4066 1.02728 24.1614 1.09936 23.9251 1.19739C23.6886 1.29542 23.4637 1.41363 23.2504 1.55491C23.037 1.69618 22.8409 1.85475 22.6593 2.03351C22.4777 2.21516 22.3162 2.40833 22.1721 2.62168C22.0308 2.83216 21.9097 3.05705 21.8088 3.29058C21.7108 3.52701 21.6358 3.76919 21.5839 4.02003C21.5349 4.26798 21.5089 4.5217 21.5061 4.77543V12.8858C21.5089 13.1395 21.5349 13.3932 21.5839 13.6412C21.6358 13.8921 21.7108 14.1343 21.8088 14.3707C21.9097 14.6042 22.0308 14.8291 22.1721 15.0396C22.3162 15.25 22.4777 15.4461 22.6593 15.6249C22.8409 15.8065 23.037 15.9651 23.2504 16.1064C23.4637 16.2476 23.6886 16.3658 23.9251 16.4639C24.1614 16.559 24.4066 16.634 24.6574 16.683C24.9082 16.732 25.1619 16.755 25.4157 16.755H27.9298L27.604 26.8087H16.2385C15.8781 26.8058 15.5206 26.8347 15.163 26.8923C14.8084 26.95 14.4595 27.0365 14.1164 27.1518C13.7762 27.2671 13.4447 27.4084 13.1275 27.5785C12.8103 27.7486 12.5077 27.9447 12.2222 28.1638C11.9339 28.383 11.6686 28.6222 11.4235 28.8875C11.1756 29.1499 10.9536 29.4324 10.7547 29.7323C10.5557 30.0321 10.3827 30.3464 10.2328 30.6751C10.0858 31.0037 9.96753 31.3411 9.87531 31.6899L0.504938 67.8133C0.251217 68.7793 0.225269 69.7536 0.427092 70.7312C0.628912 71.7116 1.03833 72.5939 1.65533 73.3806C2.2781 74.1882 3.04791 74.8138 3.96188 75.2605C4.87873 75.7078 5.84747 75.9264 6.86814 75.9237H60.5301C61.5509 75.9264 62.5196 75.7078 63.4363 75.2605C64.3503 74.8138 65.1197 74.1855 65.7425 73.3806C66.3597 72.5939 66.7694 71.7116 66.9709 70.7312C67.1729 69.7536 67.1469 68.7793 66.8934 67.8133L57.5225 31.6899ZM44.7589 6.90323H46.0189V10.758H44.7589V6.90323ZM28.4315 2.75143H37.8335V7.44811H28.4315V2.75143ZM25.4157 14.9098C25.1446 14.9098 24.8851 14.8608 24.6314 14.7599C24.3806 14.6561 24.1586 14.512 23.9654 14.3216C23.7722 14.1314 23.6223 13.9122 23.5185 13.6643C23.4118 13.4135 23.357 13.1539 23.3542 12.8858V4.77543C23.357 4.5044 23.4118 4.24492 23.5185 3.99697C23.6223 3.74901 23.7722 3.52701 23.9654 3.3396C24.1586 3.14931 24.3806 3.00226 24.6314 2.90135C24.8851 2.80044 25.1446 2.74855 25.4157 2.75143H26.5834V7.44811C26.5834 7.69323 26.6324 7.92961 26.7246 8.15452C26.8197 8.37939 26.9524 8.58122 27.1254 8.75421C27.2984 8.9272 27.5002 9.05984 27.7251 9.15212C27.9528 9.24722 28.1864 9.29339 28.4315 9.29339H37.8335C38.0786 9.29339 38.315 9.24722 38.5399 9.15212C38.7677 9.05984 38.9666 8.9272 39.1396 8.75421C39.3126 8.58122 39.4481 8.37939 39.5404 8.15452C39.6355 7.92961 39.6816 7.69323 39.6816 7.44811V2.75143H40.8493C41.1204 2.74855 41.3827 2.80044 41.6336 2.90135C41.8844 3.00226 42.1064 3.14931 42.2996 3.3396C42.4927 3.52701 42.6427 3.74901 42.7494 3.99697C42.8532 4.24492 42.9079 4.5044 42.9108 4.77543V12.8858C42.9079 13.1539 42.8532 13.4135 42.7494 13.6643C42.6427 13.9122 42.4927 14.1314 42.2996 14.3216C42.1064 14.512 41.8844 14.6561 41.6336 14.7599C41.3827 14.8608 41.1204 14.9098 40.8493 14.9098H25.4157ZM38.5313 38.2896H35.1867C34.9907 38.2896 34.7975 38.3097 34.6072 38.3443C34.417 38.3818 34.2296 38.4395 34.0508 38.5115C33.8691 38.5865 33.699 38.6759 33.5376 38.7855C33.3732 38.8921 33.2233 39.0133 33.0849 39.1516C32.9465 39.2872 32.8254 39.4371 32.7159 39.5985C32.6063 39.76 32.5141 39.9301 32.4391 40.1088C32.3641 40.2876 32.3065 40.4721 32.269 40.6624C32.2286 40.8527 32.2084 41.0459 32.2084 41.2419V46.4028H28.8178L29.7808 16.755H37.5885L38.5313 38.2896ZM28.5007 48.2452H32.2084V54.8419C32.2084 55.0351 32.2286 55.2283 32.269 55.4186C32.3065 55.6089 32.3641 55.7934 32.4391 55.9721C32.5141 56.1509 32.6063 56.3212 32.7159 56.4822C32.8254 56.6439 32.9465 56.7939 33.0849 56.9295C33.2233 57.0679 33.3732 57.1886 33.5376 57.2982C33.699 57.4051 33.8691 57.4947 34.0508 57.5695C34.2296 57.6414 34.417 57.699 34.6072 57.7366C34.7975 57.7743 34.9907 57.7914 35.1867 57.7914H45.2722C45.4077 57.7914 45.5374 57.8147 45.6642 57.8606C45.794 57.9066 45.9064 57.973 46.0102 58.0627C46.114 58.1491 46.1976 58.2526 46.2639 58.371C46.3274 58.4889 46.3706 58.6163 46.3908 58.7486L47.8093 69.0129C47.8583 69.3417 47.769 69.6296 47.5499 69.8776C47.3221 70.1372 47.0367 70.2667 46.6907 70.2667H35.1204C34.9734 70.2667 34.8293 70.2379 34.6909 70.1831C34.5553 70.1283 34.4342 70.0481 34.3276 69.944C34.2209 69.8405 34.1402 69.722 34.0825 69.5864C34.022 69.448 33.9931 69.3068 33.9931 69.1596V66.0142C33.9903 65.8182 33.9701 65.6278 33.9326 65.4374C33.8922 65.2475 33.8374 65.0598 33.7596 64.881C33.6846 64.7022 33.5924 64.5323 33.4857 64.3706C33.3761 64.2096 33.2521 64.0623 33.1137 63.9239C32.9753 63.7883 32.8254 63.6643 32.664 63.558C32.4997 63.4512 32.3295 63.3587 32.1507 63.2867C31.9691 63.212 31.7846 63.1572 31.5914 63.1196C31.4012 63.0819 31.208 63.062 31.0119 63.0648H24.4066C23.6829 48.2913 25.9231 42.3376 27.1686 40.2184L26.961 46.6595C26.9524 46.867 26.987 47.0689 27.0619 47.262C27.1369 47.4552 27.2465 47.6282 27.3935 47.7781C27.5377 47.928 27.7078 48.0434 27.8981 48.1241C28.0912 48.2048 28.2902 48.2452 28.5007 48.2452ZM22.5555 63.0648H21.7021C21.3561 63.0648 21.0707 62.9352 20.8429 62.6756C20.6238 62.4276 20.5344 62.1392 20.5834 61.8104L24.5824 32.8692C24.6026 32.7365 24.6458 32.6097 24.7121 32.4915C24.7784 32.3733 24.8621 32.2724 24.963 32.183C25.0668 32.0965 25.1821 32.0273 25.309 31.9812C25.4358 31.935 25.5684 31.912 25.704 31.912H27.4368L27.2494 37.7648C26.667 37.9609 26.2028 38.3155 25.8626 38.8258C24.2883 41.1756 21.8001 47.4321 22.5555 63.0648ZM64.2811 72.2535C63.8343 72.8303 63.2808 73.2826 62.6204 73.6025C61.96 73.9231 61.2652 74.0814 60.5301 74.0786H6.86814C6.13289 74.0814 5.43806 73.9231 4.77782 73.6025C4.12045 73.2798 3.564 72.8303 3.1171 72.2507C2.67597 71.6883 2.38477 71.06 2.24061 70.3592C2.09357 69.6617 2.11376 68.9664 2.29251 68.2744L11.6657 32.1512C11.7984 31.6467 12.0088 31.1796 12.3001 30.7472C12.5884 30.3118 12.9401 29.937 13.3524 29.6227C13.7676 29.3055 14.2202 29.0634 14.7162 28.8961C15.2092 28.7318 15.7166 28.6482 16.2385 28.6511H27.5434L27.4973 30.0667H25.704C25.3436 30.0667 24.9976 30.1301 24.6631 30.2541C24.3258 30.381 24.0231 30.5597 23.7521 30.7933C23.481 31.0268 23.259 31.3007 23.086 31.615C22.916 31.9293 22.8035 32.2637 22.7516 32.6183L18.7526 61.5568C18.695 61.9776 18.7266 62.3927 18.8478 62.7996C18.9688 63.2059 19.1707 63.5691 19.4503 63.8896C19.7329 64.2123 20.0731 64.4631 20.4652 64.6419C20.8573 64.8207 21.2725 64.9098 21.7021 64.9071H31.0119C31.1618 64.9071 31.3031 64.9331 31.4415 64.9906C31.5799 65.0454 31.701 65.1235 31.8077 65.227C31.9114 65.3311 31.9951 65.4523 32.0528 65.5874C32.1104 65.723 32.1392 65.8675 32.1421 66.0142V69.1596C32.1421 69.3528 32.1623 69.546 32.2027 69.7364C32.2401 69.9268 32.2978 70.1112 32.3728 70.29C32.4477 70.4716 32.54 70.6421 32.6496 70.8031C32.7591 70.9648 32.8802 71.1115 33.0186 71.2499C33.157 71.3855 33.3069 71.5095 33.4713 71.6163C33.6327 71.7232 33.8028 71.8151 33.9844 71.8876C34.1661 71.9623 34.3506 72.0171 34.541 72.0548C34.7341 72.0919 34.9273 72.1123 35.1204 72.1096H46.6907C47.1231 72.1123 47.5354 72.0227 47.9275 71.8439C48.3226 71.665 48.6599 71.4143 48.9424 71.0916C49.225 70.7716 49.4239 70.4084 49.5479 70.0016C49.669 69.5952 49.7007 69.1801 49.643 68.7588L48.2245 58.4978C48.1726 58.143 48.0602 57.8086 47.89 57.4947C47.7171 57.1803 47.4951 56.9063 47.224 56.6727C46.953 56.4391 46.6503 56.2603 46.313 56.1336C45.9785 56.0096 45.6297 55.9462 45.2722 55.9462H35.1867C35.0397 55.9491 34.8956 55.9203 34.7572 55.8655C34.6217 55.8107 34.5005 55.7299 34.3939 55.6262C34.2872 55.5224 34.2065 55.4042 34.1488 55.2687C34.0882 55.1303 34.0595 54.989 34.0566 54.8419V41.2391C34.0595 41.092 34.0882 40.9508 34.1459 40.8152C34.2065 40.6768 34.2872 40.5586 34.3939 40.4548C34.5005 40.351 34.6217 40.2703 34.7572 40.2156C34.8956 40.1607 35.0397 40.1348 35.1867 40.1348H42.2707C42.7032 40.1348 43.1155 40.0454 43.5076 39.8696C43.8997 39.6908 44.24 39.4399 44.5225 39.1142C44.8022 38.7941 45.004 38.4308 45.1251 38.0243C45.2491 37.6178 45.2808 37.2055 45.2231 36.7845L44.6465 32.6183C44.5946 32.2637 44.4822 31.9293 44.312 31.615C44.139 31.3036 43.9171 31.0297 43.646 30.7933C43.375 30.5597 43.0723 30.381 42.7378 30.2541C42.4005 30.1301 42.0545 30.0667 41.6941 30.0667H40.0219L39.9613 28.6511H51.1596C51.6815 28.6511 52.1889 28.7318 52.6819 28.899C53.1778 29.0634 53.6305 29.3055 54.0457 29.6227C54.4608 29.937 54.8097 30.3147 55.1009 30.7472C55.3891 31.1796 55.6 31.6467 55.7323 32.1512L65.1053 68.2744C65.2841 68.9664 65.3046 69.6617 65.1601 70.3592C65.0135 71.06 64.7223 71.6883 64.2811 72.2507V72.2535ZM40.1026 31.912H41.6941C41.8296 31.912 41.9622 31.935 42.0891 31.9812C42.2159 32.0273 42.3313 32.0936 42.4322 32.183C42.536 32.2695 42.6196 32.3733 42.6859 32.4915C42.7522 32.6097 42.7955 32.7365 42.8157 32.8692L43.3894 37.0354C43.4385 37.3641 43.349 37.6524 43.1299 37.9032C42.9021 38.1598 42.6167 38.2896 42.2707 38.2896H40.3822L40.1026 31.912Z" fill="black"/>
</g>
</g>
<defs>
<clipPath id="clip0_212_9">
<rect width="67.5357" height="75.2857" fill="white" transform="translate(0 0.857178)"/>
</clipPath>
</defs>
</svg>
