<svg width="49" height="17" viewBox="0 0 49 17" fill="none" xmlns="http://www.w3.org/2000/svg">
<g clip-path="url(#clip0_1_107761)">
<mask id="mask0_1_107761" style="mask-type:luminance" maskUnits="userSpaceOnUse" x="0" y="0" width="49" height="17">
<path d="M48.2151 0.718262H0V16.0594H48.2151V0.718262Z" fill="white"/>
</mask>
<g mask="url(#mask0_1_107761)">
<path d="M42.5524 12.3808C42.5524 14.4109 40.9039 16.0595 38.8801 16.0595C36.8563 16.0595 35.2079 14.4109 35.2079 12.3808C35.2079 10.3507 36.8563 8.70215 38.8801 8.70215C40.9039 8.70215 42.5524 10.3535 42.5524 12.3808Z" fill="#231F20"/>
<path d="M11.6507 12.3808C11.6507 14.4109 10.0022 16.0595 7.97841 16.0595C5.95465 16.0595 4.30615 14.4109 4.30615 12.3808C4.30615 10.3507 5.95465 8.70215 7.97841 8.70215C10.0022 8.70215 11.6507 10.3535 11.6507 12.3808Z" fill="#231F20"/>
<path d="M48.2151 10.334V12.0772C48.2151 13.2858 47.6897 13.8734 46.6028 13.8734H43.5754L43.5865 12.4616C43.5865 9.91347 41.5155 7.79987 38.9718 7.74975C37.7264 7.72469 36.5394 8.20644 35.6304 9.09754C34.7047 10.0081 34.1737 11.2697 34.1737 12.559V13.7537C34.1737 14.0516 34.1209 14.3942 33.69 14.422H13.0573C12.8516 14.422 12.6848 14.2521 12.6848 14.0461V12.559C12.6848 11.2697 12.1539 10.0081 11.2281 9.09754C10.3191 8.20644 9.13209 7.72747 7.88668 7.74975C5.34303 7.79987 3.27198 9.91347 3.27198 12.4616V13.8734H0.900695C0.130656 13.8734 0 13.4056 0 12.3585V10.334C0 9.91069 0.239074 9.61834 0.606025 9.58488L2.08217 7.75532C2.73267 6.95053 3.65005 6.40193 4.67029 6.21257L13.6717 4.55564C16.713 2.85138 19.0426 1.65951 21.0024 0.807373L21.2109 0.718262L21.1608 1.54255L21.083 1.57596C19.2816 2.34734 17.3718 3.32479 15.4036 4.48324H18.8368C18.9813 4.48324 19.112 4.55008 19.1954 4.66425C19.2816 4.78121 19.3067 4.92323 19.2622 5.06247L19.1176 5.53587C19.0898 5.61942 19.1065 5.70853 19.1593 5.78093C19.2121 5.85334 19.2927 5.89232 19.3817 5.89232H26.2954C26.7568 5.89232 27.1321 5.51638 27.1321 5.05412V4.57235C27.1321 4.30501 27.3489 4.0878 27.6158 4.0878H27.9467C28.2302 4.0878 28.4582 4.31894 28.4582 4.6002V5.45234C28.4582 5.7141 28.6722 5.92853 28.9335 5.92853H33.6483C33.9207 5.92853 34.157 5.74473 34.2238 5.48297C34.4989 4.40248 34.9298 3.85667 35.4719 3.91515L35.6443 3.93186C39.1442 4.27996 45.1433 4.91766 46.0246 5.28803C46.9836 5.68904 47.27 6.68598 47.5007 7.48799C47.5396 7.61609 47.5758 7.74139 47.6119 7.86114C47.8315 8.56009 47.8843 9.30362 47.8982 9.59328C48.2151 9.6545 48.2151 9.94693 48.2151 10.334Z" fill="#231F20"/>
</g>
</g>
<defs>
<clipPath id="clip0_1_107761">
<rect width="48.2151" height="15.3412" fill="white" transform="translate(0 0.718262)"/>
</clipPath>
</defs>
</svg>
