<svg width="47" height="17" viewBox="0 0 47 17" fill="none" xmlns="http://www.w3.org/2000/svg">
<g clip-path="url(#clip0_1_107769)">
<mask id="mask0_1_107769" style="mask-type:luminance" maskUnits="userSpaceOnUse" x="0" y="0" width="47" height="17">
<path d="M46.0235 0.718262H0V16.0594H46.0235V0.718262Z" fill="white"/>
</mask>
<g mask="url(#mask0_1_107769)">
<path d="M40.6798 13.2842C40.6798 14.8136 39.1461 16.0594 37.2631 16.0594C35.3802 16.0594 33.8464 14.8136 33.8464 13.2842C33.8464 11.7546 35.3776 10.5088 37.2631 10.5088C39.1486 10.5088 40.6798 11.7525 40.6798 13.2842Z" fill="#231F20"/>
<path d="M10.6303 13.2842C10.6303 14.8136 9.09651 16.0594 7.2136 16.0594C5.33065 16.0594 3.79688 14.8136 3.79688 13.2842C3.79688 11.7546 5.33065 10.5088 7.2136 10.5088C9.09651 10.5088 10.6303 11.7525 10.6303 13.2842Z" fill="#231F20"/>
<path d="M45.7158 11.347C45.6019 11.3113 45.4726 11.3008 45.3484 11.2987V1.75823C45.3484 1.18467 44.7743 0.718262 44.0656 0.718262H14.1997C11.3158 0.718262 8.90519 3.31294 7.70763 5.55466C7.19295 5.71433 3.0003 7.00432 1.89329 7.24803C0.858704 7.47493 0.775942 7.52536 0.638856 8.00858C0.610406 8.1157 0.571609 8.24808 0.509533 8.41617L0.496601 11.1831C0.196571 11.2294 0 11.4415 0 11.7399V13.2652C0 13.9921 0.488841 14.4102 1.33462 14.4102H2.83476V13.345C2.83476 11.4206 4.76168 9.82588 7.12829 9.79016C8.29475 9.77547 9.39143 10.1326 10.2372 10.8049C11.0985 11.4919 11.59 12.4437 11.59 13.4164V14.5404C11.59 14.6959 11.7477 14.822 11.9391 14.822H32.4317C32.8352 14.801 32.8843 14.5426 32.8843 14.3178V13.4164C32.8843 12.4437 33.3783 11.4919 34.2396 10.8049C35.0853 10.1326 36.1847 9.77335 37.346 9.79016C39.7152 9.82588 41.6395 11.4206 41.6395 13.345L41.6317 14.4102H44.4484C45.4959 14.4102 46.0235 13.9543 46.0235 13.053V11.7399C46.0235 11.5487 45.9175 11.4122 45.7158 11.347ZM10.0949 5.33406H9.2104C10.7648 2.51878 11.9779 1.74143 16.9828 1.79185V6.36353H11.1063C10.9873 6.36353 10.8916 6.28579 10.8916 6.18915V5.98326C10.8916 5.62609 10.5346 5.33406 10.0949 5.33406Z" fill="#231F20"/>
</g>
</g>
<defs>
<clipPath id="clip0_1_107769">
<rect width="46.0235" height="15.3412" fill="white" transform="translate(0 0.718262)"/>
</clipPath>
</defs>
</svg>
