<svg width="7" height="6" viewBox="0 0 7 6" fill="none" xmlns="http://www.w3.org/2000/svg">
<path d="M3.5508 3.7266C3.41333 3.7266 3.30078 3.61461 3.30078 3.47743C3.30078 3.35141 3.19968 3.24974 3.07366 3.24974C2.94793 3.24974 2.84654 3.35141 2.84654 3.47743C2.84654 3.78531 3.04674 4.04536 3.3234 4.14045V4.26904C3.3234 4.39448 3.42507 4.49673 3.5508 4.49673C3.67625 4.49673 3.77792 4.39448 3.77792 4.26904V4.14045C4.05458 4.04536 4.25478 3.78531 4.25478 3.47743C4.25478 3.08849 3.93888 2.77259 3.5508 2.77259C3.41333 2.77259 3.30078 2.66061 3.30078 2.52314C3.30078 2.38538 3.41333 2.2734 3.5508 2.2734C3.68799 2.2734 3.80055 2.38538 3.80055 2.52314C3.80055 2.64858 3.90222 2.75054 4.02795 2.75054C4.15339 2.75054 4.25478 2.64858 4.25478 2.52314C4.25478 2.21468 4.05458 1.9552 3.77792 1.85983V1.73067C3.77792 1.60522 3.67625 1.50326 3.5508 1.50326C3.42507 1.50326 3.3234 1.60522 3.3234 1.73067V1.85983C3.04674 1.9552 2.84654 2.21468 2.84654 2.52314C2.84654 2.9115 3.16216 3.22711 3.5508 3.22711C3.68799 3.22711 3.80055 3.3391 3.80055 3.47743C3.80055 3.61461 3.68799 3.7266 3.5508 3.7266ZM1.56776 5.04404H1.16079C0.848609 5.03717 0.596003 4.7817 0.596003 4.46752V4.07343C1.08632 4.16651 1.47411 4.5543 1.56776 5.04404ZM6.50532 4.07343V4.46752C6.50532 4.7817 6.253 5.03717 5.94111 5.04404L5.5327 5.04376C5.62635 4.55401 6.015 4.16594 6.50532 4.07343ZM5.5327 0.954232H5.92765C6.24555 0.954232 6.50446 1.21314 6.50503 1.53104L6.50475 1.92485C6.01471 1.83148 5.62635 1.44398 5.5327 0.954232ZM6.03562 0.5H1.15105C1.0256 0.5 0.923646 0.601959 0.923646 0.727116C0.923646 0.852273 1.0256 0.954232 1.15105 0.954232H5.07389C5.17613 1.69458 5.76411 2.28256 6.50532 2.38366V3.6149C5.76354 3.71629 5.17527 4.30455 5.07389 5.04547H2.02658C1.92519 4.30455 1.3375 3.71686 0.596003 3.6149V1.51014C0.596003 1.38441 0.494044 1.28273 0.3686 1.28273C0.24287 1.28273 0.141198 1.38441 0.141198 1.51014V3.86894C0.141198 3.87266 0.140625 3.8761 0.140625 3.88039V4.57463C0.140625 5.08414 0.555048 5.49885 1.06513 5.49885H1.16079C1.16508 5.49885 1.16938 5.49999 1.17367 5.49999H5.92765C5.93194 5.49999 5.93653 5.49885 5.94111 5.49885H6.03562C6.5457 5.49885 6.95984 5.08414 6.95984 4.57463V1.42364C6.95984 0.914709 6.5457 0.5 6.03562 0.5Z" fill="black"/>
</svg>
