<svg width="49" height="17" viewBox="0 0 49 17" fill="none" xmlns="http://www.w3.org/2000/svg">
<mask id="mask0_1_107778" style="mask-type:luminance" maskUnits="userSpaceOnUse" x="0" y="0" width="49" height="17">
<path d="M48.2151 0.718262H0V16.0594H48.2151V0.718262Z" fill="white"/>
</mask>
<g mask="url(#mask0_1_107778)">
<path d="M42.3817 12.5302C42.3817 14.4773 40.7222 16.0593 38.6822 16.0593C36.6422 16.0593 34.98 14.4773 34.98 12.5302C34.98 10.5829 36.6395 9.00098 38.6822 9.00098C40.725 9.00098 42.3817 10.5856 42.3817 12.5302Z" fill="#231F20"/>
<path d="M11.7462 12.5302C11.7462 14.4773 10.0866 16.0593 8.04667 16.0593C6.00667 16.0593 4.34436 14.4773 4.34436 12.5302C4.34436 10.5829 6.00391 9.00098 8.04667 9.00098C10.0894 9.00098 11.7462 10.5856 11.7462 12.5302Z" fill="#231F20"/>
<path d="M47.7409 10.315V7.89482C47.7409 7.82124 47.7437 7.74503 47.7437 7.66357C47.7575 7.13276 47.7713 6.47318 47.2944 6.01068C46.9222 5.64541 46.3157 5.46935 45.4447 5.46935H41.2379C40.499 5.46935 39.1979 4.49969 37.8195 3.47221C36.0855 2.18196 34.12 0.718262 32.6451 0.718262H24.579C23.1537 0.718262 17.4115 2.42371 14.0152 5.00423C13.4942 5.09094 7.3577 6.11842 4.70573 6.61245C2.05651 7.10647 0.63129 8.59647 0.545832 9.8578C0.209511 9.91296 0 10.181 0 10.5673V12.5093C0 13.5131 0.129566 13.9624 0.904209 13.9624H3.29705V12.6091C3.29705 10.16 5.38665 8.12871 7.95593 8.08137C9.21296 8.05514 10.4094 8.52027 11.3274 9.37689C12.2591 10.252 12.794 11.4634 12.794 12.7011V14.1306C12.794 14.3277 12.9621 14.488 13.1716 14.488H33.4446C33.8774 14.4617 33.9326 14.1306 33.9326 13.8468V12.7011C33.9326 11.4634 34.4673 10.252 35.4019 9.37689C36.3171 8.52027 37.5163 8.05777 38.7734 8.08137C41.3399 8.12871 43.4295 10.16 43.4295 12.6091L43.4212 13.9624H46.5914C47.6831 13.9624 48.2151 13.4001 48.2151 12.2386V11.1586C48.2151 10.6882 48.0415 10.3833 47.7409 10.315ZM19.0711 6.3339C18.9194 6.3339 18.7981 6.21828 18.7981 6.07374V5.68483C18.7981 5.35635 18.5196 5.09094 18.1751 5.09094H17.4308C20.4963 2.64182 23.7905 2.11889 28.0497 2.10575L27.4652 6.3339H19.0711ZM35.661 6.22616C35.6059 6.29448 35.5259 6.3339 35.435 6.3339H29.1551L29.5907 2.10575H31.7575C32.6865 2.10575 35.2034 4.42348 35.7051 5.98178C35.7299 6.06586 35.7162 6.15521 35.661 6.22616Z" fill="#231F20"/>
</g>
</svg>
