<svg width="45" height="15" viewBox="0 0 45 15" fill="none" xmlns="http://www.w3.org/2000/svg">
<g clip-path="url(#clip0_1_107672)">
<mask id="mask0_1_107672" style="mask-type:luminance" maskUnits="userSpaceOnUse" x="0" y="0" width="45" height="15">
<path d="M44.1048 0H0V14.0333H44.1048V0Z" fill="white"/>
</mask>
<g mask="url(#mask0_1_107672)">
<path d="M39.3414 11.0151C39.3414 12.6784 37.7455 14.0333 35.7864 14.0333C33.8273 14.0333 32.2314 12.6784 32.2314 11.0151C32.2314 9.35171 33.8273 7.99683 35.7864 7.99683C37.7455 7.99683 39.3414 9.34944 39.3414 11.0151Z" fill="#231F20"/>
<path d="M10.6703 11.0151C10.6703 12.6784 9.07709 14.0333 7.11529 14.0333C5.15345 14.0333 3.5603 12.6784 3.5603 11.0151C3.5603 9.35171 5.15614 7.99683 7.11529 7.99683C9.07441 7.99683 10.6703 9.34944 10.6703 11.0151Z" fill="#231F20"/>
<path d="M43.206 7.73602V5.21355L43.1925 5.16785C43.0122 4.82285 41.9519 4.07114 40.3587 2.96301C39.4249 2.31412 38.4588 1.64467 38.2435 1.39334L38.265 0.570805L38.1547 0.550242C33.2676 -0.329412 21.4025 0.0270191 19.9547 0.372026C17.573 0.883825 15.1591 2.18846 13.3964 3.14122C12.3227 3.71928 11.3969 4.21737 11.0201 4.23108C9.14713 4.23108 2.83913 5.27067 2.57271 5.31408C1.59584 5.46488 0.605502 6.0475 0.605502 6.86548V7.75426C0.255657 7.80678 0 8.05584 0 8.36204V10.2036C0 11.0627 0.126482 11.4465 0.871925 11.4465H2.54041V11.3323C2.54041 9.17771 4.6368 7.25387 7.02649 7.21504H7.11804C9.62881 7.21504 11.6714 8.97663 11.6714 11.1404C11.6714 11.3094 11.8328 11.4465 12.0347 11.4465H30.7622C31.1793 11.4237 31.2331 11.1426 31.2331 10.8982C31.2331 9.90657 31.6799 8.98806 32.4926 8.31178C33.3672 7.58292 34.562 7.18537 35.8754 7.21504C38.2973 7.25387 40.3426 9.13888 40.3426 11.3323V11.4305L40.4583 11.4465C40.8081 11.4899 42.1106 11.6408 43.0525 11.6408C43.5127 11.6408 43.8868 11.6042 44.0214 11.5014C44.0778 11.4579 44.1074 11.3985 44.1048 11.3437V8.50825C44.1048 8.02156 43.6607 7.77484 43.206 7.73602ZM16.5289 4.83427C16.5289 4.45499 16.5181 4.03687 16.2839 3.83809C16.1951 3.7604 16.0795 3.72157 15.9449 3.72157H14.8012C16.8114 2.16332 20.361 1.2334 24.4139 1.21055L23.9187 4.83427H16.5289ZM25.2023 4.83427L25.7433 1.21055H27.9849C29.2606 1.21055 30.4204 1.38877 31.4269 1.73606C33.2838 2.37581 34.4571 3.55478 34.5244 4.83427H25.2023ZM36.3489 1.66066H37.3259L40.4879 4.07571C39.3199 3.96147 37.9314 3.15265 36.3489 1.66066Z" fill="#231F20"/>
</g>
</g>
<defs>
<clipPath id="clip0_1_107672">
<rect width="44.1048" height="14.0333" fill="white"/>
</clipPath>
</defs>
</svg>
