<svg width="45" height="15" viewBox="0 0 45 15" fill="none" xmlns="http://www.w3.org/2000/svg">
<mask id="mask0_1_107681" style="mask-type:luminance" maskUnits="userSpaceOnUse" x="0" y="0" width="45" height="15">
<path d="M44.1048 0H0V14.0333H44.1048V0Z" fill="white"/>
</mask>
<g mask="url(#mask0_1_107681)">
<path d="M40.6812 10.805C40.6812 12.5842 39.0879 14.0334 37.126 14.0334C35.164 14.0334 33.5708 12.5842 33.5708 10.805C33.5708 9.02573 35.1667 7.57642 37.126 7.57642C39.0852 7.57642 40.6812 9.02573 40.6812 10.805Z" fill="#231F20"/>
<path d="M11.2788 10.805C11.2788 12.5842 9.68556 14.0334 7.72364 14.0334C5.7617 14.0334 4.16846 12.5842 4.16846 10.805C4.16846 9.02573 5.76439 7.57642 7.72364 7.57642C9.68289 7.57642 11.2788 9.02573 11.2788 10.805Z" fill="#231F20"/>
<path d="M43.7818 8.89854C43.6741 8.26797 43.0902 4.87819 42.8479 4.17432C42.533 3.27005 36.5423 0 34.2493 0H23.5918C22.2246 0 16.7129 1.5617 13.4538 3.92259C12.9504 4.0008 7.06465 4.93929 4.51867 5.39142C1.97541 5.84355 0.60823 7.20485 0.522109 8.36086C0.201846 8.41218 0 8.65416 0 9.01094V10.7853C0 11.7042 0.12649 12.1173 0.871978 12.1173H3.17033V10.8757C3.17033 8.63705 5.17265 6.78204 7.63788 6.74048C8.85163 6.71849 9.99274 7.13889 10.8728 7.92336C11.7663 8.72259 12.2803 9.82728 12.2803 10.9612V12.2688C12.2803 12.4472 12.4418 12.5963 12.6436 12.5963H32.1017C32.5188 12.5719 32.5726 12.2688 32.5726 12.0097V10.9612C32.5726 9.82728 33.0867 8.72259 33.9802 7.92336C34.8602 7.13889 36.0094 6.72337 37.2151 6.74048C39.6776 6.78204 41.6826 8.63705 41.6826 10.8757L41.6719 12.1173H42.5438C43.5934 12.1173 44.1048 11.5992 44.1048 10.5384V9.55109C44.1048 9.20406 44.1048 8.94498 43.7818 8.89854ZM18.551 4.80242C18.4084 4.80242 18.2927 4.69489 18.2927 4.5678V4.21098C18.2927 3.91037 18.0235 3.66597 17.6925 3.66597H16.7398C19.676 1.42973 22.8356 0.950712 26.9209 0.940935L26.3612 4.80242H18.551ZM36.8679 4.70466C36.8168 4.76576 36.7387 4.80242 36.6553 4.80242H27.9867L28.4038 0.940935H33.1244C34.0151 0.940935 36.4292 3.05742 36.9109 4.48226C36.9352 4.55802 36.9217 4.64112 36.8679 4.70466Z" fill="#231F20"/>
</g>
</svg>
