<svg width="45" height="15" viewBox="0 0 45 15" fill="none" xmlns="http://www.w3.org/2000/svg">
<g clip-path="url(#clip0_1_107688)">
<mask id="mask0_1_107688" style="mask-type:luminance" maskUnits="userSpaceOnUse" x="0" y="0" width="45" height="15">
<path d="M44.1048 0H0V14.0333H44.1048V0Z" fill="white"/>
</mask>
<g mask="url(#mask0_1_107688)">
<path d="M39.0165 10.0274C39.0165 12.2365 37.5302 14.0335 35.7007 14.0335C33.8712 14.0335 32.3875 12.2365 32.3875 10.0274C32.3875 7.81836 33.8737 6.01831 35.7007 6.01831C37.5277 6.01831 39.0165 7.81542 39.0165 10.0274Z" fill="#231F20"/>
<path d="M11.579 10.0274C11.579 12.2365 10.0927 14.0335 8.26323 14.0335C6.43378 14.0335 4.94995 12.2365 4.94995 10.0274C4.94995 7.81836 6.43624 6.01831 8.26323 6.01831C10.0902 6.01831 11.579 7.81542 11.579 10.0274Z" fill="#231F20"/>
<path d="M43.6036 8.28347C43.2801 7.976 43.095 7.55213 43.0728 7.05655C43.0382 6.32819 43.3444 5.51025 43.8875 4.86545L44.006 4.72217L43.8603 4.62664C43.8208 4.60276 39.9693 2.09222 34.5081 0.781725C29.4715 -0.424286 21.9981 -0.833258 14.9666 4.06841C5.58469 2.51612 1.72825 5.69235 0.767831 6.70431C0.286394 7.21179 0 7.71926 0 8.06261C0 10.6716 1.35791 11.9941 4.03174 11.9941H4.16753L4.15519 11.8299C4.13544 11.6 4.11322 11.3941 4.091 11.1971C4.04903 10.8268 4.01199 10.5074 4.01199 10.1164C4.01199 7.3312 5.88344 5.02367 8.18197 4.97292C9.21402 4.94606 10.2287 5.46548 11.041 6.42969C11.9644 7.52821 12.5174 9.08651 12.5174 10.603V12.2269C12.5174 12.4508 12.668 12.6329 12.8532 12.6329H31.0121C31.3997 12.6031 31.4491 12.2299 31.4491 11.9045V10.603C31.4491 9.08651 31.9997 7.52821 32.9255 6.42969C33.7377 5.46548 34.7475 4.94307 35.7845 4.97292C38.0831 5.02367 39.9545 7.3312 39.9545 10.1134L39.9422 12.2777L42.8185 11.6478C43.4258 11.4358 43.9418 10.7254 44.0727 9.9134C44.1788 9.25965 44.0085 8.66557 43.6036 8.28347ZM31.8195 2.24148C31.375 3.20271 29.8344 4.03259 28.2345 4.80276L29.2246 1.08025C30.1183 1.31607 31.1775 1.66236 31.8195 2.24148ZM18.8823 5.25054C18.7465 5.25054 18.6379 5.11621 18.6379 4.95501V4.51022C18.6379 4.14006 18.3885 3.83557 18.0799 3.83557H17.5343C20.0007 2.16387 23.4646 1.23249 27.8445 1.06233L26.2891 5.25054H18.8823Z" fill="#231F20"/>
</g>
</g>
<defs>
<clipPath id="clip0_1_107688">
<rect width="44.1048" height="14.0333" fill="white"/>
</clipPath>
</defs>
</svg>
