<svg width="57" height="81" viewBox="0 0 57 81" fill="none" xmlns="http://www.w3.org/2000/svg">
<g clip-path="url(#clip0_212_2)">
<path d="M25.3351 13.0932C26.2528 13.0932 26.9955 12.3473 26.9955 11.4266C26.9955 10.7974 27.6647 9.99944 28.4197 9.99944C29.3343 9.99944 30.0801 9.25051 30.0801 8.33282C30.0801 7.41206 29.3343 6.66626 28.4197 6.66626C25.8937 6.66626 23.6777 8.8914 23.6777 11.4266C23.6777 12.3473 24.4205 13.0932 25.3351 13.0932Z" fill="black"/>
<mask id="mask0_212_2" style="mask-type:luminance" maskUnits="userSpaceOnUse" x="0" y="0" width="57" height="80">
<path d="M0.428711 0H56.8835V79.9802H0.428711V0Z" fill="white"/>
</mask>
<g mask="url(#mask0_212_2)">
<path d="M51.8925 69.9836H51.607C52.6014 67.1603 50.9103 64.1155 48.0345 63.4466C49.2959 60.1714 46.8682 56.6543 43.3908 56.6543H42.8046C42.6941 53.3549 41.1625 50.2765 38.6151 48.2109V41.6582C38.6151 40.7374 37.8693 39.9916 36.9547 39.9916H34.4809V31.6588H35.2942C36.2119 31.6588 36.9547 30.9129 36.9547 29.9922V19.2408C38.922 17.1322 40.0362 14.3239 40.0362 11.4266C40.0362 5.12556 34.9321 0 28.6556 0C22.379 0 17.275 5.12556 17.275 11.4266C17.275 14.3239 18.3891 17.1322 20.3564 19.2408V29.9922C20.3564 30.9129 21.0992 31.6588 22.0169 31.6588H22.8302V39.9916H20.3564C19.4418 39.9916 18.696 40.7374 18.696 41.6582V48.2109C16.1486 50.2765 14.617 53.3549 14.5065 56.6543H13.9204C10.4368 56.6543 8.01826 60.1779 9.27662 63.4466C6.4131 64.1125 4.70662 67.1538 5.7041 69.9836H5.41867C2.67481 69.9836 0.44043 72.2246 0.44043 74.9807C0.44043 77.7368 2.67481 79.9802 5.41867 79.9802H51.8925C54.6363 79.9802 56.8707 77.7368 56.8707 74.9807C56.8707 72.2246 54.6363 69.9836 51.8925 69.9836ZM20.5928 11.4266C20.5928 6.964 24.2114 3.33315 28.6556 3.33315C33.0997 3.33315 36.7184 6.964 36.7184 11.4266C36.7184 13.6886 35.8099 15.788 34.1617 17.3348C33.8241 17.6509 33.6338 18.0898 33.6338 18.5533V28.3256C29.9815 28.3256 27.302 28.3256 23.6773 28.3256V18.5533C23.6773 18.0898 23.487 17.6509 23.1494 17.3348C21.5012 15.788 20.5928 13.6886 20.5928 11.4266ZM31.1631 31.6588V39.4791H26.148V31.6588H31.1631ZM21.2926 50.4238C21.7468 50.1139 22.0169 49.5982 22.0169 49.0488V43.3217H35.2942V49.0488C35.2942 49.5982 35.5643 50.1139 36.0186 50.4238C38.0933 51.848 39.3701 54.1529 39.4868 56.6543H17.8244C17.941 54.1529 19.2208 51.848 21.2926 50.4238ZM13.9204 59.9846C22.8179 59.9846 34.1187 59.9846 43.3908 59.9846C44.3054 59.9846 45.0481 60.7336 45.0481 61.6511C45.0481 62.5715 44.3054 63.3176 43.3908 63.3176H13.9204C13.0057 63.3176 12.263 62.5715 12.263 61.6511C12.263 60.7336 13.0057 59.9846 13.9204 59.9846ZM8.73955 68.3171C8.73955 67.3966 9.48228 66.6506 10.4 66.6506C11.9776 66.6506 43.7683 66.6506 46.9111 66.6506C47.8288 66.6506 48.5715 67.3966 48.5715 68.3171C48.5715 69.2352 47.8288 69.9836 46.9111 69.9836H10.4C9.48228 69.9836 8.73955 69.2352 8.73955 68.3171ZM51.8925 76.6472H5.41867C4.50404 76.6472 3.75823 75.9012 3.75823 74.9807C3.75823 74.0626 4.50404 73.3172 5.41867 73.3172C13.3648 73.3172 47.2119 73.3172 51.8925 73.3172C52.807 73.3172 53.5529 74.0626 53.5529 74.9807C53.5529 75.9012 52.807 76.6472 51.8925 76.6472Z" fill="black"/>
</g>
</g>
<defs>
<clipPath id="clip0_212_2">
<rect width="56.5714" height="80.1429" fill="white" transform="translate(0.428711)"/>
</clipPath>
</defs>
</svg>
