<svg width="43" height="15" viewBox="0 0 43 15" fill="none" xmlns="http://www.w3.org/2000/svg">
<g clip-path="url(#clip0_1_107703)">
<mask id="mask0_1_107703" style="mask-type:luminance" maskUnits="userSpaceOnUse" x="0" y="0" width="43" height="15">
<path d="M42.1 0H0V14.0333H42.1V0Z" fill="white"/>
</mask>
<g mask="url(#mask0_1_107703)">
<path d="M36.8314 11.3231C36.8314 12.8166 35.4246 14.0333 33.6922 14.0333C31.9598 14.0333 30.553 12.8166 30.553 11.3231C30.553 9.82948 31.9622 8.61279 33.6922 8.61279C35.4222 8.61279 36.8314 9.82948 36.8314 11.3231Z" fill="#231F20"/>
<path d="M10.4154 11.3231C10.4154 12.8166 9.00864 14.0333 7.27626 14.0333C5.54385 14.0333 4.1394 12.8166 4.1394 11.3231C4.1394 9.82948 5.54623 8.61279 7.27626 8.61279C9.00623 8.61279 10.4154 9.82948 10.4154 11.3231Z" fill="#231F20"/>
<path d="M41.6152 9.26735C41.5867 8.95962 41.4964 7.92556 41.4964 7.45163C41.4964 5.51485 38.2336 1.3069 37.9152 0.898628L37.9057 0L18.5833 0.1231C16.0144 0.1231 11.005 2.62407 9.11345 3.99458C8.80685 4.09921 4.6886 5.51691 3.64775 5.76105C2.23855 6.08932 1.38781 6.63711 1.1169 7.39209L0.484782 9.26735C0.187734 9.30223 0 9.50946 0 9.81512V11.3047C0 12.0165 0.44676 12.4228 1.22621 12.4228H3.25565V11.3826C3.25565 9.50531 5.02605 7.94815 7.20044 7.91119C8.26269 7.89475 9.27978 8.24559 10.0545 8.90215C10.8458 9.57301 11.2997 10.5024 11.2997 11.4523V12.55C11.2997 12.7018 11.4423 12.8249 11.6205 12.8249H29.2556C29.624 12.8064 29.6716 12.552 29.6716 12.3325V11.4523C29.6716 10.5024 30.1254 9.57301 30.9168 8.90215C31.6914 8.24559 32.7038 7.89475 33.7708 7.91119C35.9452 7.94815 37.7156 9.50531 37.7156 11.3826L37.7084 12.4228H40.2963C41.1281 12.4228 42.1 12.0761 42.1 11.0974V9.81512C42.1 9.49917 41.9241 9.30424 41.6152 9.26735ZM20.3276 5.00399H13.0107C12.9014 5.00399 12.8134 4.92808 12.8134 4.8337V4.63059C12.8134 4.28181 12.4855 3.99868 12.0815 3.99868H11.4185C14.2369 2.05166 17.224 1.13662 20.7743 1.13662C20.8219 1.13662 20.867 1.13662 20.9145 1.13867L20.3276 5.00399ZM21.7843 5.00399L22.3095 1.13867H28.5238L28.7352 5.00399H21.7843ZM37.5991 4.90962C37.554 4.96911 37.4827 5.00399 37.3995 5.00399H29.9495V1.13457C33.6781 0.976587 36.1115 2.11321 37.6087 4.71265C37.6443 4.77421 37.6419 4.84806 37.5991 4.90962Z" fill="#231F20"/>
</g>
</g>
<defs>
<clipPath id="clip0_1_107703">
<rect width="42.1" height="14.0333" fill="white"/>
</clipPath>
</defs>
</svg>
