<svg width="44" height="15" viewBox="0 0 44 15" fill="none" xmlns="http://www.w3.org/2000/svg">
<mask id="mask0_1_107712" style="mask-type:luminance" maskUnits="userSpaceOnUse" x="0" y="0" width="44" height="15">
<path d="M43.1024 0H0V14.0333H43.1024V0Z" fill="white"/>
</mask>
<g mask="url(#mask0_1_107712)">
<path d="M37.5336 11.4946C37.5336 12.8936 36.1895 14.0333 34.5395 14.0333C32.8895 14.0333 31.5454 12.8936 31.5454 11.4946C31.5454 10.0955 32.8895 8.95581 34.5395 8.95581C36.1895 8.95581 37.5336 10.0935 37.5336 11.4946Z" fill="#231F20"/>
<path d="M9.84136 11.4946C9.84136 12.8936 8.49957 14.0333 6.84725 14.0333C5.19498 14.0333 3.85547 12.8936 3.85547 11.4946C3.85547 10.0955 5.19724 8.95581 6.84725 8.95581C8.4973 8.95581 9.84136 10.0935 9.84136 11.4946Z" fill="#231F20"/>
<path d="M42.8327 9.72263C42.7284 9.68801 42.6128 9.68033 42.5018 9.67846L41.6246 0.953238C41.6246 0.42665 41.1215 0 40.5027 0H12.9713C11.6884 0 7.65178 4.06087 7.2982 4.41833C6.93554 4.53556 3.16859 5.74632 2.18719 5.97118C1.27832 6.17874 1.20806 6.22487 1.08793 6.66882C1.06073 6.76681 1.029 6.88983 0.967806 7.05315L0.451037 9.56886C0.176789 9.60542 0 9.80142 0 10.082V11.4773C0 12.1422 0.426106 12.5247 1.16952 12.5247H3.0122V11.5503C3.0122 9.78798 4.69849 8.33119 6.77463 8.29851C7.78549 8.28508 8.7578 8.61179 9.49896 9.22872C10.2515 9.85521 10.6844 10.7258 10.6844 11.6137V12.6438C10.6844 12.7842 10.8204 12.9014 10.9904 12.9014H30.3079C30.6592 12.8821 30.7045 12.6438 30.7045 12.4382V11.6137C30.7045 10.7258 31.1352 9.85521 31.8899 9.22872C32.6288 8.61179 33.5921 8.28508 34.6143 8.29851C36.6882 8.33119 38.3767 9.78799 38.3767 11.5484L38.3676 12.5247H41.7221C42.6378 12.5247 43.1024 12.1057 43.1024 11.2832V10.082C43.1024 9.9052 43.0094 9.78224 42.8327 9.72263ZM9.67806 3.98399H8.97766C10.3988 2.62524 12.5633 0.747596 13.1299 0.747596H18.7282V4.92762H10.5642C10.46 4.92762 10.3761 4.85459 10.3761 4.76811V4.57592C10.3761 4.25113 10.0611 3.98399 9.67806 3.98399ZM20.1018 4.92762V0.747596H38.6555L38.9297 4.92762H20.1018Z" fill="#231F20"/>
</g>
</svg>
