<svg width="110" height="73" viewBox="0 0 110 73" fill="none" xmlns="http://www.w3.org/2000/svg">
<g clip-path="url(#clip0_223_2)">
<path d="M52.5863 45.8913C50.7755 45.8913 49.2938 44.4175 49.2938 42.6106C49.2938 40.9526 47.9611 39.6159 46.3031 39.6159C44.649 39.6159 43.3124 40.9526 43.3124 42.6106C43.3124 46.6635 45.9503 50.0893 49.5917 51.3396V53.0329C49.5917 54.6832 50.9283 56.0315 52.5863 56.0315C54.2366 56.0315 55.5732 54.6832 55.5732 53.0329V51.3396C59.2145 50.0893 61.8524 46.6635 61.8524 42.6106C61.8524 37.4914 57.6937 33.3327 52.5863 33.3327C50.7755 33.3327 49.2938 31.8589 49.2938 30.0519C49.2938 28.2371 50.7755 26.7633 52.5863 26.7633C54.3894 26.7633 55.871 28.2371 55.871 30.0519C55.871 31.7021 57.2116 33.0426 58.8657 33.0426C60.5159 33.0426 61.8524 31.7021 61.8524 30.0519C61.8524 25.9912 59.2145 22.5732 55.5732 21.3189V19.6177C55.5732 17.9676 54.2366 16.6231 52.5863 16.6231C50.9283 16.6231 49.5917 17.9676 49.5917 19.6177V21.3189C45.9503 22.5732 43.3124 25.9912 43.3124 30.0519C43.3124 35.1632 47.4673 39.318 52.5863 39.318C54.3894 39.318 55.871 40.7918 55.871 42.6106C55.871 44.4175 54.3894 45.8913 52.5863 45.8913ZM26.4813 63.2358H21.1231C17.0114 63.1458 13.6875 59.7826 13.6875 55.6474V50.4578C20.1432 51.6846 25.2466 56.788 26.4813 63.2358ZM91.4773 50.4578V55.6474C91.4773 59.7826 88.1576 63.1458 84.0493 63.2358L78.6759 63.2319C79.9064 56.7841 85.0217 51.6768 91.4773 50.4578ZM78.6759 9.39525H83.8732C88.0591 9.39525 91.466 12.8053 91.4735 16.9915L91.4697 22.1733C85.0179 20.9465 79.9064 15.8431 78.6759 9.39525ZM85.2963 3.41772H20.9938C19.3436 3.41772 17.9992 4.75825 17.9992 6.40844C17.9992 8.05469 19.3436 9.39525 20.9938 9.39525H72.6355C73.9799 19.1435 81.7216 26.8848 91.4773 28.2136V44.4214C81.7133 45.7581 73.9682 53.4994 72.6355 63.2555H32.5176C31.1849 53.4994 23.4475 45.7659 13.6875 44.4214V16.7132C13.6875 15.0591 12.347 13.7226 10.6929 13.7226C9.03882 13.7226 7.69825 15.0591 7.69825 16.7132V47.7649C7.69825 47.8159 7.69434 47.859 7.69434 47.9178V57.0545C7.69434 63.7651 13.1466 69.2212 19.861 69.2212H21.1231C21.178 69.2212 21.2368 69.2369 21.2917 69.2369H83.8732C83.9282 69.2369 83.9906 69.2212 84.0493 69.2212H85.2963C92.0101 69.2212 97.4625 63.7651 97.4625 57.0545V15.5765C97.4625 8.87785 92.0101 3.41772 85.2963 3.41772Z" fill="black"/>
<path d="M1.50537 1.50513L108.579 71.291" stroke="black" stroke-width="3.00419"/>
</g>
<defs>
<clipPath id="clip0_223_2">
<rect width="109.876" height="73" fill="white"/>
</clipPath>
</defs>
</svg>
