<svg width="45" height="15" viewBox="0 0 45 15" fill="none" xmlns="http://www.w3.org/2000/svg">
<g clip-path="url(#clip0_1_107722)">
<mask id="mask0_1_107722" style="mask-type:luminance" maskUnits="userSpaceOnUse" x="0" y="0" width="45" height="15">
<path d="M44.1048 0H0V14.0333H44.1048V0Z" fill="white"/>
</mask>
<g mask="url(#mask0_1_107722)">
<path d="M39.6369 10.4664C39.6369 12.4317 38.0885 14.0331 36.1825 14.0331C34.2766 14.0331 32.7307 12.4317 32.7307 10.4664C32.7307 8.50113 34.2791 6.89966 36.1825 6.89966C38.086 6.89966 39.6369 8.49846 39.6369 10.4664Z" fill="#231F20"/>
<path d="M11.3767 10.4664C11.3767 12.4317 9.82568 14.0331 7.92229 14.0331C6.01891 14.0331 4.4679 12.4317 4.4679 10.4664C4.4679 8.50113 6.01891 6.89966 7.92229 6.89966C9.82568 6.89966 11.3767 8.49846 11.3767 10.4664Z" fill="#231F20"/>
<path d="M27.5453 1.0437V1.05702C27.5866 1.06234 27.6252 1.07033 27.6691 1.07566L27.5453 1.0437Z" fill="#231F20"/>
<path d="M27.5453 1.0437V1.05702C27.5866 1.06234 27.6252 1.07033 27.6691 1.07566L27.5453 1.0437ZM27.5453 1.0437V1.05702C27.5866 1.06234 27.6252 1.07033 27.6691 1.07566L27.5453 1.0437ZM27.5453 1.0437V1.05702C27.5866 1.06234 27.6252 1.07033 27.6691 1.07566L27.5453 1.0437Z" fill="#231F20"/>
<path d="M43.9151 10.0887C43.964 9.9453 44.0154 9.78065 44.0438 9.58679C44.0489 9.54963 44.1054 9.11139 44.1054 8.48731C44.1054 7.86316 44.0489 7.06907 43.8276 6.29889C43.6785 5.77304 43.3929 5.30827 43.1152 4.8621C42.5725 3.98036 42.1429 3.28454 42.9145 2.46124L43.1281 2.23284H42.822C40.3887 2.25143 38.5625 2.38156 37.5825 2.96053C35.2881 1.94335 29.4725 0.47734 25.2978 0.0895913C21.8897 -0.229107 20.74 0.134741 14.145 3.62183C7.07414 3.62979 0.918957 5.73586 0.126733 8.42088C-0.233369 9.54963 0.27849 10.3171 0.443108 10.527C0.63602 10.7687 0.527989 11.0608 0.340222 11.4804C0.304212 11.5654 0.265629 11.6504 0.234763 11.73L0.18332 11.8629L0.317072 11.908C1.50541 12.2904 2.51884 12.2904 3.41395 11.9027L3.49369 11.8681V10.5455C3.49369 8.07032 5.44081 6.01737 7.83809 5.96957C9.01094 5.94301 10.1299 6.41309 10.9838 7.2789C11.8532 8.1606 12.3547 9.38497 12.3547 10.6358V12.0832C12.3547 12.2798 12.5117 12.4418 12.7046 12.4418H31.2987C31.7025 12.4152 31.754 12.0832 31.754 11.7964V10.6358C31.754 9.38497 32.2529 8.1606 33.125 7.2789C33.9789 6.41309 35.0952 5.94036 36.2707 5.96957C38.6654 6.01737 40.615 8.07032 40.615 10.5455L40.6073 11.9159H40.7385C41.5307 11.9 42.7294 11.5893 43.9074 11.2573L44.0746 11.2095L43.982 11.0581C43.7351 10.6464 43.8122 10.4127 43.9151 10.0887ZM27.5459 1.04303L27.6694 1.0749C27.6256 1.06959 27.5871 1.06162 27.5434 1.05631V1.04303H27.5459ZM17.8849 4.2008C17.746 4.2008 17.6328 4.08394 17.6328 3.94053V3.54481C17.6328 3.27923 17.4656 3.05349 17.2316 2.97646C18.2759 2.42936 21.0384 1.04834 22.525 0.918207C23.8369 0.801349 25.5113 0.891651 27.5125 1.18378L26.9466 3.57137L17.8849 4.2008ZM27.2141 3.55278L27.7671 1.22363C28.4204 1.32189 29.1072 1.44406 29.8275 1.58482C30.545 1.79728 31.0518 2.19565 31.6382 2.65511C31.8646 2.83305 32.0935 3.01364 32.3507 3.19424L27.2141 3.55278Z" fill="#231F20"/>
<path d="M27.669 1.07566C27.6252 1.07033 27.5865 1.06234 27.5426 1.05702V1.0437L27.669 1.07566Z" fill="#231F20"/>
</g>
</g>
<defs>
<clipPath id="clip0_1_107722">
<rect width="44.1048" height="14.0333" fill="white"/>
</clipPath>
</defs>
</svg>
