<svg width="45" height="15" viewBox="0 0 45 15" fill="none" xmlns="http://www.w3.org/2000/svg">
<mask id="mask0_1_107734" style="mask-type:luminance" maskUnits="userSpaceOnUse" x="0" y="0" width="45" height="15">
<path d="M44.1048 0H0V14.0333H44.1048V0Z" fill="white"/>
</mask>
<g mask="url(#mask0_1_107734)">
<path d="M38.7443 10.8043C38.7443 12.5838 37.2696 14.0333 35.4537 14.0333C33.6378 14.0333 32.1656 12.5838 32.1656 10.8043C32.1656 9.02477 33.6403 7.5752 35.4537 7.5752C37.2671 7.5752 38.7443 9.02477 38.7443 10.8043Z" fill="#231F20"/>
<path d="M10.4396 10.8043C10.4396 12.5838 8.96249 14.0333 7.14905 14.0333C5.33565 14.0333 3.85852 12.5838 3.85852 10.8043C3.85852 9.02477 5.33565 7.5752 7.14905 7.5752C8.96249 7.5752 10.4396 9.02477 10.4396 10.8043Z" fill="#231F20"/>
<path d="M31.8816 1.26367V1.30049C31.9641 1.3275 32.0467 1.35695 32.1317 1.38887V1.26367H31.8816ZM31.8816 1.26367V1.30049C31.9641 1.3275 32.0467 1.35695 32.1317 1.38887V1.26367H31.8816ZM31.8816 1.26367V1.30049C31.9641 1.3275 32.0467 1.35695 32.1317 1.38887V1.26367H31.8816Z" fill="#231F20"/>
<path d="M43.4073 8.91718V5.92035L43.4023 5.88368C43.3948 5.85924 43.3899 5.82013 43.3824 5.76635C43.3101 5.28969 43.0959 3.84016 40.5327 3.84016C39.2349 3.84016 37.6258 2.96751 35.922 2.04352C34.0712 1.03887 32.1557 0 30.4594 0H22.9267C19.8653 0 15.9471 1.52286 12.933 3.88171C12.4448 3.96239 6.54124 4.9377 4.18231 5.39236C1.82836 5.84213 0.560464 7.20365 0.483245 8.35986C0.186821 8.41118 0 8.65322 0 9.01007V10.7848C0 11.7063 0.117075 12.1169 0.80707 12.1169H2.93434V10.8776C2.93434 8.63852 4.78761 6.78077 7.06933 6.73921C8.18524 6.71475 9.2489 7.13769 10.061 7.92235C10.8904 8.72165 11.3662 9.82895 11.3662 10.9607V12.2685C11.3662 12.4494 11.5157 12.5961 11.7025 12.5961H30.8031C31.1892 12.5716 31.239 12.2685 31.239 12.0094V10.9607C31.239 9.82895 31.7148 8.72165 32.5418 7.92235C33.3563 7.13769 34.4175 6.71475 35.5359 6.73921C37.8151 6.78077 39.6709 8.63852 39.6709 10.8752L39.6634 12.1169H42.66C43.6315 12.1169 44.1048 11.5987 44.1048 10.5378V9.55029C44.1048 9.16163 43.6216 8.97833 43.4073 8.91718ZM24.3789 4.80081H17.1701C17.0381 4.80081 16.931 4.69571 16.931 4.56615V4.20927C16.931 3.9086 16.6819 3.66416 16.3755 3.66416H15.4937C18.2113 1.42998 21.1283 0.950872 24.8971 0.93865L24.3789 4.80081ZM33.7897 4.80081H32.1308V1.38842C32.0461 1.35664 31.9639 1.32731 31.8817 1.30042V4.80081H25.5223L25.9083 0.93865H30.2775C30.5939 0.93865 31.2041 1.0682 31.8817 1.30042V1.26376H32.1308V1.38842C33.2966 1.82109 34.5694 2.52752 34.8309 3.36106C34.8484 3.58595 34.0164 4.73481 33.7897 4.80081Z" fill="#231F20"/>
<path d="M32.1317 1.26367V1.38887C32.0467 1.35695 31.9641 1.3275 31.8816 1.30049V1.26367H32.1317Z" fill="#231F20"/>
</g>
</svg>
