<svg width="43" height="15" viewBox="0 0 43 15" fill="none" xmlns="http://www.w3.org/2000/svg">
<g clip-path="url(#clip0_1_107743)">
<mask id="mask0_1_107743" style="mask-type:luminance" maskUnits="userSpaceOnUse" x="0" y="0" width="43" height="15">
<path d="M42.1 0H0V14.0333H42.1V0Z" fill="white"/>
</mask>
<g mask="url(#mask0_1_107743)">
<path d="M39.1986 11.0884C39.1986 12.7126 37.68 14.0333 35.8157 14.0333C33.9515 14.0333 32.4329 12.7126 32.4329 11.0884C32.4329 9.46412 33.9515 8.14111 35.8157 8.14111C37.68 8.14111 39.1986 9.46192 39.1986 11.0884Z" fill="#231F20"/>
<path d="M10.7324 11.0884C10.7324 12.7126 9.2138 14.0333 7.3495 14.0333C5.48525 14.0333 3.96667 12.7126 3.96667 11.0884C3.96667 9.46412 5.48525 8.14111 7.3495 8.14111C9.2138 8.14111 10.7324 9.46192 10.7324 11.0884Z" fill="#231F20"/>
<path d="M42.0949 8.37914C41.8747 7.73662 41.4572 7.6607 41.1346 7.65182C41.0936 4.78491 39.5315 -0.000707067 37.9336 -0.000707067C37.7645 -0.000707067 21.1806 0.00821715 19.3624 -0.000707067C17.7568 -0.00740022 15.7568 0.104152 14.5378 1.06127C14.1435 1.36693 13.7209 1.80644 13.2753 2.27274C12.5173 3.06253 11.662 3.95719 11.0654 3.97726C9.28298 3.97726 3.28042 4.99239 3.0269 5.03479C2.41998 5.13072 0.576186 5.42522 0.576186 6.30426L0.496801 7.90395C0.194623 7.953 0 8.17833 0 8.49736V10.2956C0 11.1345 0.120359 11.5093 0.829711 11.5093H2.99617V11.3978C2.99617 9.29385 4.99106 7.41532 7.26506 7.37736H7.35213C9.74141 7.37736 11.6851 9.09752 11.6851 11.2103C11.6851 11.3755 11.8387 11.5093 12.0308 11.5093H31.0347C31.4316 11.487 31.4828 11.2125 31.4828 10.9738C31.4828 10.0055 31.9079 9.10868 32.6813 8.44831C33.5135 7.73662 34.6557 7.35063 35.9002 7.37736C38.205 7.41532 40.1512 9.25596 40.1512 11.3978V11.5182L40.2895 11.5093C40.7223 11.4758 42.1256 11.3353 42.1 10.8578V8.41035L42.0949 8.37914ZM37.6288 0.925184C37.8004 0.925184 38.4329 1.18399 39.4342 4.46364H33.8362L31.7236 0.925184H37.6288ZM22.1179 4.46364H15.3598C15.3598 4.09104 15.3496 3.68499 15.1268 3.49089C15.0423 3.41504 14.9322 3.37711 14.8042 3.37711H13.639C14.0359 2.88404 15.2421 1.47848 16.397 1.13936C17.6825 0.76231 21.785 0.891718 22.5891 0.92072L22.1179 4.46364ZM23.4264 4.46364L23.9412 0.925184H29.5929C29.931 0.925184 30.5174 1.85553 31.0629 4.46364H23.4264Z" fill="#231F20"/>
</g>
</g>
<defs>
<clipPath id="clip0_1_107743">
<rect width="42.1" height="14.0333" fill="white"/>
</clipPath>
</defs>
</svg>
