<svg width="40" height="26" viewBox="0 0 40 26" fill="none" xmlns="http://www.w3.org/2000/svg">
<g clip-path="url(#clip0_2234_1814)">
<path d="M31 8.00002L32.2 7.60002C32.4 7.50002 32.6 7.60002 32.7 7.70002C32.9 7.90002 32.9 8.10002 32.7 8.30002L32.3 9.00002L31 8.00002Z" fill="#CC291F"/>
<path opacity="0.39" d="M31 8.00002L32.2 7.60002C32.4 7.50002 32.6 7.60002 32.7 7.70002C32.9 7.90002 32.9 8.10002 32.7 8.30002L32.3 9.00002" fill="black"/>
<path opacity="0.3" d="M26 26L40 19L14 6L0 13L26 26Z" fill="#262626"/>
<path d="M26.5 21.7997L38 16.2998L13 3.69971L1.5 9.19971L26.5 21.7997Z" fill="#2D3134"/>
<path d="M22.1001 16.0999C21.3001 15.6999 20.6001 15.6999 20.1001 15.8999L19.0001 16.4999C18.4001 16.7999 18.1001 17.2999 18.1001 18.1999C18.1001 19.7999 19.4001 21.7999 21.0001 22.5999C21.8001 22.9999 22.5001 22.9999 23.1001 22.7999C23.1001 22.7999 24.2001 22.1999 24.3001 22.0999C24.8001 21.7999 25.1001 21.2999 25.1001 20.4999C25.0001 18.8999 23.7001 16.9999 22.1001 16.0999Z" fill="#2D3134"/>
<path opacity="0.39" d="M23 22.8001C23.2 22.7001 24.1 22.2001 24.2 22.2001C24.7 21.9001 25 21.4001 25 20.6001C25 19.9001 24.8 19.2001 24.4 18.6001L23.3 19.2001C23.7 19.9001 23.9 20.6001 23.9 21.2001C23.9 22.0001 23.6 22.5001 23 22.8001Z" fill="black"/>
<path d="M20.9002 17.4998C19.7002 16.8998 18.7002 17.3998 18.7002 18.5998C18.7002 19.7998 19.7002 21.2998 20.9002 21.8998C22.1002 22.4998 23.1002 21.9998 23.1002 20.7998C23.2002 19.5998 22.2002 18.0998 20.9002 17.4998ZM22.4002 18.9998C22.6002 19.2998 22.7002 19.5998 22.5002 19.6998C22.4002 19.7998 21.7002 19.6998 21.4002 19.5998C21.4002 19.4998 21.3002 19.4998 21.3002 19.3998C21.4002 19.0998 21.6002 18.5998 21.8002 18.4998C21.9002 18.3998 22.2002 18.5998 22.4002 18.9998ZM20.9002 17.6998C21.2002 17.8998 21.5002 18.0998 21.5002 18.2998C21.5002 18.4998 21.2002 18.9998 21.0002 19.1998C21.0002 19.1998 20.9002 19.1998 20.9002 19.0998H20.8002C20.6002 18.6998 20.3002 17.9998 20.3002 17.7998C20.4002 17.4998 20.6002 17.4998 20.9002 17.6998ZM19.5002 17.4998C19.7002 17.3998 20.0002 17.3998 20.2002 17.6998C20.3002 17.8998 20.6002 18.6998 20.7002 18.9998C20.6002 18.9998 20.6002 18.9998 20.6002 19.0998C20.3002 18.7998 19.6002 18.2998 19.5002 18.0998C19.2002 17.7998 19.3002 17.5998 19.5002 17.4998ZM18.9002 18.6998C18.9002 18.3998 19.0002 18.1998 19.3002 18.2998C19.5002 18.3998 20.1002 18.9998 20.4002 19.2998V19.3998V19.4998C20.1002 19.4998 19.5002 19.4998 19.3002 19.3998C19.0002 19.2998 18.9002 18.9998 18.9002 18.6998ZM19.5002 20.3998C19.3002 20.0998 19.2002 19.7998 19.4002 19.6998C19.5002 19.5998 20.2002 19.6998 20.5002 19.7998C20.5002 19.8998 20.6002 19.8998 20.6002 19.9998C20.5002 20.2998 20.3002 20.7998 20.1002 20.8998C20.0002 20.9998 19.7002 20.6998 19.5002 20.3998ZM20.9002 21.6998C20.6002 21.4998 20.3002 21.2998 20.3002 21.0998C20.3002 20.8998 20.6002 20.3998 20.8002 20.1998C20.8002 20.1998 20.9002 20.1998 20.9002 20.2998H21.0002C21.2002 20.6998 21.5002 21.3998 21.5002 21.5998C21.5002 21.8998 21.3002 21.8998 20.9002 21.6998ZM22.4002 21.7998C22.2002 21.8998 21.9002 21.8998 21.7002 21.5998C21.6002 21.3998 21.3002 20.5998 21.2002 20.2998C21.3002 20.2998 21.3002 20.2998 21.3002 20.1998C21.6002 20.4998 22.3002 20.9998 22.4002 21.1998C22.7002 21.4998 22.6002 21.6998 22.4002 21.7998ZM22.6002 21.0998C22.4002 20.9998 21.8002 20.3998 21.5002 20.0998V19.9998V19.8998C21.8002 19.8998 22.4002 19.8998 22.6002 19.9998C22.9002 20.0998 23.0002 20.3998 23.0002 20.6998C23.0002 20.9998 22.9002 21.1998 22.6002 21.0998Z" fill="#C4C6CC"/>
<path opacity="0.06" d="M21.1002 21.7998C19.9002 21.1998 18.9002 19.6998 18.9002 18.4998C18.9002 17.8998 19.1002 17.4998 19.5002 17.2998C19.0002 17.4998 18.7002 17.8998 18.7002 18.5998C18.7002 19.7998 19.7002 21.2998 20.9002 21.8998C21.5002 22.1998 22.1002 22.1998 22.5002 21.9998C22.1002 22.0998 21.7002 22.0998 21.1002 21.7998Z" fill="black"/>
<path opacity="0.06" d="M23.9001 21.1997C23.9001 22.7997 22.6001 23.4997 21.0001 22.6997C19.4001 21.8997 18.1001 19.8997 18.1001 18.2997C18.1001 16.6997 19.4001 15.9997 21.0001 16.7997C22.6001 17.4997 23.9001 19.4997 23.9001 21.1997Z" fill="black"/>
<path d="M7.1 8.70002C6.3 8.30002 5.6 8.30002 5.1 8.50002L3.9 9.10002C3.4 9.30002 3 9.90002 3 10.7C3 12.3 4.3 14.3 5.9 15.1C6.7 15.5 7.4 15.5 8 15.3C8 15.3 9.1 14.7 9.2 14.6C9.7 14.3 10 13.8 10 13C10 11.5 8.7 9.50002 7.1 8.70002Z" fill="#2D3134"/>
<path opacity="0.39" d="M8 15.3001C8.2 15.2001 9.1 14.7001 9.2 14.7001C9.7 14.4001 10 13.9001 10 13.1001C10 12.4001 9.8 11.7001 9.4 11.1001L8.3 11.7001C8.7 12.4001 8.9 13.1001 8.9 13.7001C8.9 14.5001 8.6 15.1001 8 15.3001Z" fill="black"/>
<path d="M5.89995 10.0003C4.69995 9.40033 3.69995 9.90033 3.69995 11.1003C3.69995 12.3003 4.69995 13.8003 5.89995 14.4003C7.09995 15.0003 8.09995 14.5003 8.09995 13.3003C8.19995 12.1003 7.19995 10.6003 5.89995 10.0003ZM7.39995 11.5003C7.59995 11.8003 7.69995 12.1003 7.49995 12.2003C7.39995 12.3003 6.69995 12.2003 6.39995 12.1003C6.39995 12.0003 6.29995 12.0003 6.29995 11.9003C6.39995 11.6003 6.59995 11.1003 6.79995 11.0003C6.89995 10.9003 7.19995 11.2003 7.39995 11.5003ZM5.89995 10.2003C6.19995 10.4003 6.49995 10.6003 6.49995 10.8003C6.49995 11.0003 6.19995 11.5003 5.99995 11.7003C5.99995 11.7003 5.89995 11.7003 5.89995 11.6003H5.79995C5.59995 11.2003 5.29995 10.5003 5.29995 10.3003C5.39995 10.0003 5.59995 10.0003 5.89995 10.2003ZM4.49995 10.1003C4.69995 10.0003 4.99995 10.0003 5.19995 10.3003C5.29995 10.5003 5.59995 11.3003 5.69995 11.6003C5.59995 11.6003 5.59995 11.6003 5.59995 11.7003C5.29995 11.4003 4.59995 10.9003 4.49995 10.7003C4.19995 10.4003 4.29995 10.2003 4.49995 10.1003ZM3.89995 11.2003C3.89995 10.9003 3.99995 10.7003 4.29995 10.8003C4.49995 10.9003 5.09995 11.5003 5.39995 11.8003V11.9003V12.0003C5.09995 12.0003 4.49995 12.0003 4.29995 11.9003C3.99995 11.8003 3.89995 11.5003 3.89995 11.2003ZM4.49995 12.9003C4.29995 12.6003 4.19995 12.3003 4.39995 12.2003C4.49995 12.1003 5.19995 12.2003 5.49995 12.3003C5.49995 12.4003 5.59995 12.4003 5.59995 12.5003C5.49995 12.8003 5.29995 13.3003 5.09995 13.4003C4.99995 13.5003 4.69995 13.2003 4.49995 12.9003ZM5.89995 14.2003C5.59995 14.0003 5.29995 13.8003 5.29995 13.6003C5.29995 13.4003 5.59995 12.9003 5.79995 12.7003C5.79995 12.7003 5.89995 12.7003 5.89995 12.8003H5.99995C6.19995 13.2003 6.49995 13.9003 6.49995 14.1003C6.49995 14.4003 6.29995 14.4003 5.89995 14.2003ZM7.39995 14.4003C7.19995 14.5003 6.89995 14.5003 6.69995 14.2003C6.59995 14.0003 6.29995 13.2003 6.19995 12.9003C6.29995 12.9003 6.29995 12.9003 6.29995 12.8003C6.59995 13.1003 7.29995 13.6003 7.39995 13.8003C7.69995 14.1003 7.59995 14.3003 7.39995 14.4003ZM7.59995 13.6003C7.39995 13.5003 6.79995 12.9003 6.49995 12.6003V12.5003V12.4003C6.79995 12.4003 7.39995 12.4003 7.59995 12.5003C7.89995 12.6003 7.99995 12.9003 7.99995 13.2003C7.99995 13.5003 7.89995 13.7003 7.59995 13.6003Z" fill="#C4C6CC"/>
<path opacity="0.06" d="M6.09995 14.3002C4.89995 13.7002 3.89995 12.2002 3.89995 11.0002C3.89995 10.4002 4.09995 10.0002 4.49995 9.80029C3.99995 10.0002 3.69995 10.4002 3.69995 11.1002C3.69995 12.3002 4.69995 13.8002 5.89995 14.4002C6.49995 14.7002 7.09995 14.7002 7.49995 14.5002C7.09995 14.7002 6.69995 14.6002 6.09995 14.3002Z" fill="black"/>
<path opacity="0.06" d="M8.9 13.7003C8.9 15.3003 7.6 16.0003 6 15.2003C4.4 14.4003 3 12.4003 3 10.7003C3 9.00029 4.3 8.40029 5.9 9.20029C7.6 10.1003 8.9 12.1003 8.9 13.7003Z" fill="black"/>
<path d="M33.2999 10L27.9999 4L19.9999 0L14.1999 0.5L10.3999 0.2L1.3999 4.7V8.7L2.4999 9.4C2.9999 8.3 4.3999 7.9 5.8999 8.7C7.6999 9.6 9.0999 11.6 9.3999 13.4L17.3999 17.5C17.5999 15.8 19.0999 15.2 20.8999 16.1C22.6999 17 24.1999 19.1 24.3999 21L28.3999 22.7L38.9999 17.5V13.5L33.2999 10Z" fill="#CC291F"/>
<path d="M18.8 9.2L28 4.5L32.6 9.8L23.4 14.4L18.8 9.2Z" fill="#3399CC"/>
<path d="M32.3001 9.5L23.1001 14.1L23.4001 14.4L32.6001 9.8L32.3001 9.5Z" fill="#2D3134"/>
<path opacity="0.15" d="M20.8 8.2L28 4.5L32.6 9.8L20.8 8.2Z" fill="black"/>
<path d="M15 0.8L18 0.5L9.90005 4.5L6.80005 4.8L15 0.8Z" fill="#3399CC"/>
<path opacity="0.39" d="M14.9 2L9.90005 4.5L6.80005 4.8L14.9 2Z" fill="white"/>
<path d="M39 14V15.8L37.5 16.5V15.7C37.5 15.4 37.6 15.1 37.8 14.8C38 14.6 38.2 14.4 38.4 14.3L39 14Z" fill="white"/>
<path d="M28.5 19.3001L29.6 18.8001C29.8 18.7001 30.1 18.7001 30.3 18.9001C30.4 19.0001 30.5 19.2001 30.5 19.3001V20.0001L28.5 21.0001V19.3001Z" fill="white"/>
<path d="M28.5 19.3L28 19V20.8L28.5 21V19.3Z" fill="#FFCC00"/>
<path opacity="0.39" d="M29.3681 19.4889C29.1589 19.7459 29.1282 20.0673 29.2995 20.2068C29.4709 20.3463 29.7794 20.251 29.9886 19.994C30.1977 19.737 30.2284 19.4156 30.0571 19.2761C29.8857 19.1366 29.5773 19.2319 29.3681 19.4889Z" fill="#2D3134"/>
<path opacity="0.39" d="M29.0002 19.4738C28.791 19.7308 28.7603 20.0522 28.9316 20.1917C29.103 20.3311 29.4114 20.2358 29.6206 19.9788C29.8298 19.7218 29.8605 19.4004 29.6892 19.261C29.5178 19.1215 29.2093 19.2168 29.0002 19.4738Z" fill="#2D3134"/>
<path opacity="0.39" d="M38.1496 14.9509C37.9404 15.208 37.9097 15.5294 38.081 15.6688C38.2524 15.8083 38.5608 15.713 38.77 15.456C38.9792 15.199 39.0099 14.8776 38.8386 14.7381C38.6672 14.5986 38.3588 14.6939 38.1496 14.9509Z" fill="#2D3134"/>
<path opacity="0.39" d="M37.6798 15.2317C37.4706 15.4887 37.44 15.8101 37.6113 15.9495C37.7826 16.089 38.0911 15.9937 38.3003 15.7367C38.5095 15.4797 38.5402 15.1583 38.3689 15.0188C38.1975 14.8794 37.889 14.9746 37.6798 15.2317Z" fill="#2D3134"/>
<path d="M31.5 18.2998L36.5 15.7998V16.9998L31.5 19.4998V18.2998Z" fill="#2D3134"/>
<path d="M2 5.50029L1.5 5.30029V6.50029L2 6.80029V5.50029Z" fill="#FF9900"/>
<path d="M13.3 10.2998L22.3 14.7998L17.7001 9.39971L13.3 7.19971V10.2998Z" fill="#3399CC"/>
<path d="M12.5 6.90029L10.3 5.80029L5.80005 6.50029L12.5 9.90029V6.90029Z" fill="#3399CC"/>
<path opacity="0.15" d="M13.8 10.2998V7.49971L13.3 7.19971V10.2998L22.3 14.7998L21.9 14.2998L13.8 10.2998Z" fill="black"/>
<path opacity="0.15" d="M6.30005 6.50029L10.4 5.80029H10.3L5.80005 6.50029L12.5 9.90029V9.60029L6.30005 6.50029Z" fill="black"/>
<path opacity="0.06" d="M23.3 15.0002L18 9.00029L9.7 5.00029L4.3 5.50029L1.5 4.80029V8.80029L2.6 9.50029C3 8.30029 4.4 7.90029 5.9 8.70029C7.7 9.60029 9.1 11.6002 9.4 13.4002L9.6 13.5002L17.4 17.6002C17.6 15.9002 19.1 15.3002 20.9 16.2002C22.7 17.1002 24.2 19.2002 24.4 21.1002L28.4 22.8002V18.8002L23.3 15.0002Z" fill="black"/>
<path d="M1.30005 7.80029L2.30005 8.30029V9.80029L1.30005 9.30029V7.80029Z" fill="#CC291F"/>
<path opacity="0.39" d="M1.30005 7.80029L2.30005 8.30029V9.80029L1.30005 9.30029V7.80029Z" fill="black"/>
<path d="M2.30005 8.3V9.8L2.50005 9.5V8L1.50005 7.5L1.30005 7.8L2.30005 8.3Z" fill="#CC291F"/>
<path d="M28.3 22.9998L39.8 17.2998V16.2998L28.3 21.9998L27.3 21.4998V22.4998L28.3 22.9998Z" fill="#CC291F"/>
<path opacity="0.39" d="M28.3 22.9998L39.8 17.2998V16.2998L28.3 21.9998L27.3 21.4998V22.4998L28.3 22.9998Z" fill="black"/>
<path d="M28.3 21.5L39.3 16L39.8 16.3L28.3 22L27.3 21.5L27.8 21.3L28.3 21.5Z" fill="#CC291F"/>
<path opacity="0.39" d="M28.5 19.2998L30.5 19.9998L28.5 20.9998V19.2998Z" fill="white"/>
<path opacity="0.39" d="M39 14V15.8L37.5 16.5L39 14Z" fill="white"/>
<path d="M21.8 14.4998L20.8 13.0998C20.6 12.8998 20.4 12.7998 20.1 12.7998L18.9 12.8998C18.7 12.8998 18.5 13.0998 18.5 13.2998C18.5 13.4998 18.7 13.6998 18.9 13.6998L20.3 13.8998L21.8 14.4998Z" fill="#CC291F"/>
<path opacity="0.39" d="M21.8 14.4998L20.8 13.0998C20.6 12.8998 20.4 12.7998 20.1 12.7998L18.9 12.8998C18.7 12.8998 18.5 13.0998 18.5 13.2998C18.5 13.4998 18.7 13.6998 18.9 13.6998L20.3 13.8998L21.8 14.4998Z" fill="black"/>
<path d="M25.7 11.9C25.7 12 25.8 12 25.9 12L30.4 10.8C30.4999 10.8 30.5 10.7 30.5 10.6C30.5 10.5 30.3999 10.5 30.2999 10.5L25.7999 11.7C25.6999 11.7 25.7 11.8 25.7 11.9Z" fill="black"/>
<path d="M23.2 13.1998C23.2 13.2998 23.3 13.2998 23.4 13.2998L27.9 12.0998C27.9999 12.0998 28 11.9998 28 11.8998C28 11.7998 27.8999 11.7998 27.7999 11.7998L23.2999 12.9998C23.1999 12.9998 23.2 13.0998 23.2 13.1998Z" fill="black"/>
<path opacity="0.5" d="M31.3001 10.4001C31.4001 9.80012 31.3001 9.20012 30.9001 8.90012C30.2001 8.40012 29.1001 8.70012 28.3001 9.70012C27.6001 10.5001 27.4001 11.5001 27.8001 12.1001L28.5001 11.8001C28.2001 11.4001 28.3001 10.6001 28.8001 10.0001C29.4001 9.30012 30.2001 9.00012 30.7001 9.40012C31.0001 9.60012 31.0001 10.1001 30.8001 10.6001L31.3001 10.4001Z" fill="black"/>
<path opacity="0.39" d="M33.3 10L23.3 15L18 9L28 4L33.3 10Z" fill="black"/>
<path opacity="0.39" d="M39 13.5L28.5 18.8V21.3L39 16.1V13.5Z" fill="black"/>
</g>
<defs>
<clipPath id="clip0_2234_1814">
<rect width="40" height="26" fill="white"/>
</clipPath>
</defs>
</svg>
