<svg width="21" height="20" viewBox="0 0 21 20" fill="none" xmlns="http://www.w3.org/2000/svg">
<g clip-path="url(#clip0_2234_1864)">
<path d="M10.0159 12C12.7773 12 15.0159 9.31371 15.0159 6C15.0159 2.68629 12.7773 0 10.0159 0C7.25445 0 5.01587 2.68629 5.01587 6C5.01587 9.31371 7.25445 12 10.0159 12Z" fill="black"/>
<path d="M19.8158 17.1001C18.9158 15.3001 17.2158 13.8001 15.0158 12.9001C14.4158 12.7001 13.7158 12.7001 13.2158 13.0001C12.2158 13.6001 11.2158 13.9001 10.0158 13.9001C8.81584 13.9001 7.81584 13.6001 6.81584 13.0001C6.31584 12.8001 5.61584 12.7001 5.01584 13.0001C2.81584 13.9001 1.11584 15.4001 0.215842 17.2001C-0.484158 18.5001 0.615842 20.0001 2.11584 20.0001H17.9158C19.4158 20.0001 20.5158 18.5001 19.8158 17.1001Z" fill="black"/>
</g>
<defs>
<clipPath id="clip0_2234_1864">
<rect width="21" height="20" fill="white"/>
</clipPath>
</defs>
</svg>
