<svg width="30" height="30" viewBox="0 0 30 30" fill="none" xmlns="http://www.w3.org/2000/svg">
<g clip-path="url(#clip0_2234_1636)">
<path d="M24.042 0.230957L12.4075 11.8654C11.4272 11.511 10.3749 11.3079 9.27274 11.3079C4.17461 11.3079 0.0419922 15.4405 0.0419922 20.5386C0.0419922 25.6368 4.17461 29.7694 9.27274 29.7694C14.3709 29.7694 18.5035 25.6368 18.5035 20.5386C18.5035 19.4365 18.3004 18.3842 17.946 17.4039L18.5035 16.8463V13.154H22.1958V9.46173H25.8881V5.76942H29.5804V0.230957H24.042ZM11.3935 24.7866C11.3012 25.2274 10.9924 25.5916 10.5734 25.7559C8.89751 26.4122 6.9189 26.0633 5.56428 24.7086C4.20968 23.3545 3.86076 21.375 4.51753 19.6987C4.68182 19.2791 5.04643 18.9708 5.48767 18.879C5.9289 18.7871 6.38582 18.9242 6.70428 19.2427L11.0312 23.5696C11.3497 23.888 11.4858 24.3459 11.3935 24.7866Z" fill="#FACB1B"/>
<path d="M29.5804 0.230957H24.042L12.4075 11.8654C11.4272 11.511 10.3749 11.3079 9.27274 11.3079C4.17461 11.3079 0.0419922 15.4405 0.0419922 20.5386C0.0419922 23.1699 1.1483 25.538 2.91461 27.2194L5.50013 24.6339C4.20368 23.282 3.87276 21.3459 4.51799 19.6987C4.68228 19.2791 5.0469 18.9708 5.48813 18.879C5.92936 18.7871 6.38628 18.9242 6.70474 19.2427L8.79828 21.3362L29.5804 0.553111V0.230957Z" fill="#FBE158"/>
<path d="M14.8109 12.2307C14.5562 11.976 14.5562 11.5624 14.8109 11.3077L24.9648 1.15381H26.8109L15.734 12.2307C15.4793 12.4855 15.0657 12.4855 14.8109 12.2307Z" fill="#F3B607"/>
</g>
<defs>
<clipPath id="clip0_2234_1636">
<rect width="30" height="30" fill="white"/>
</clipPath>
</defs>
</svg>
