<svg width="60" height="29" viewBox="0 0 60 29" fill="none" xmlns="http://www.w3.org/2000/svg">
<g clip-path="url(#clip0_2234_1678)">
<path d="M25.6446 16.5753C25.6446 19.4133 23.4244 21.5046 20.6997 21.5046C17.9751 21.5046 15.7549 19.4133 15.7549 16.5753C15.7549 13.7173 17.9751 11.646 20.6997 11.646C23.4244 11.646 25.6446 13.7173 25.6446 16.5753ZM23.4799 16.5753C23.4799 14.8018 22.1932 13.5884 20.6997 13.5884C19.2063 13.5884 17.9195 14.8018 17.9195 16.5753C17.9195 18.331 19.2063 19.5622 20.6997 19.5622C22.1932 19.5622 23.4799 18.3287 23.4799 16.5753Z" fill="#EB4D39"/>
<path d="M36.3121 16.5753C36.3121 19.4133 34.0918 21.5046 31.3671 21.5046C28.6425 21.5046 26.4224 19.4133 26.4224 16.5753C26.4224 13.7195 28.6425 11.646 31.3671 11.646C34.0918 11.646 36.3121 13.7173 36.3121 16.5753ZM34.1473 16.5753C34.1473 14.8018 32.8606 13.5884 31.3671 13.5884C29.8737 13.5884 28.587 14.8018 28.587 16.5753C28.587 18.331 29.8737 19.5622 31.3671 19.5622C32.8606 19.5622 34.1473 18.3287 34.1473 16.5753Z" fill="#FAC10F"/>
<path d="M46.5344 11.9438V20.7934C46.5344 24.4337 44.3877 25.9205 41.8496 25.9205C39.4606 25.9205 38.0227 24.3226 37.4803 23.0158L39.365 22.2313C39.7006 23.0336 40.5228 23.9803 41.8475 23.9803C43.472 23.9803 44.4786 22.978 44.4786 21.0912V20.3823H44.4032C43.9187 20.9801 42.9852 21.5023 41.8074 21.5023C39.3427 21.5023 37.085 19.3555 37.085 16.5931C37.085 13.8106 39.3427 11.646 41.8074 11.646C42.9831 11.646 43.9163 12.1683 44.4032 12.7483H44.4786V11.946H46.5344V11.9438ZM44.6322 16.5931C44.6322 14.8574 43.4741 13.5884 42.0008 13.5884C40.5073 13.5884 39.2562 14.8574 39.2562 16.5931C39.2562 18.311 40.5073 19.5622 42.0008 19.5622C43.4741 19.5622 44.6322 18.311 44.6322 16.5931Z" fill="#6479F6"/>
<path d="M49.9238 6.75684V21.2024H47.8125V6.75684H49.9238Z" fill="#68AA50"/>
<path d="M58.1515 18.1984L59.8315 19.3185C59.2894 20.1207 57.9825 21.5031 55.7248 21.5031C52.9244 21.5031 50.833 19.3385 50.833 16.5738C50.833 13.6424 52.9422 11.6445 55.4824 11.6445C58.0404 11.6445 59.2915 13.6802 59.7005 14.7803L59.9251 15.3404L53.3355 18.0695C53.8401 19.0584 54.6246 19.5629 55.7248 19.5629C56.8271 19.5629 57.5913 19.0207 58.1515 18.1984ZM52.9799 16.4249L57.3849 14.5958C57.1425 13.9803 56.4136 13.5513 55.5558 13.5513C54.4556 13.5513 52.9244 14.5225 52.9799 16.4249Z" fill="#EB4C39"/>
<path d="M7.76284 15.2938V13.2025H14.8101C14.879 13.567 14.9145 13.9982 14.9145 14.4649C14.9145 16.0339 14.4856 17.974 13.1033 19.3564C11.7587 20.7565 10.0408 21.5032 7.76507 21.5032C3.54695 21.5032 0 18.0674 0 13.8493C0 9.63114 3.54695 6.19531 7.76507 6.19531C10.0986 6.19531 11.7609 7.11094 13.0099 8.30437L11.5343 9.78005C10.6386 8.93999 9.4252 8.28658 7.76284 8.28658C4.68258 8.28658 2.27351 10.769 2.27351 13.8493C2.27351 16.9295 4.68258 19.4119 7.76284 19.4119C9.76078 19.4119 10.8986 18.6096 11.6276 17.8807C12.2187 17.2895 12.6077 16.445 12.761 15.2916L7.76284 15.2938Z" fill="#6479F6"/>
<path d="M20.036 6.99837H17.8241L17.1469 4.83154L16.4698 6.99837H14.2578L16.05 8.34211L15.3412 10.6098L17.1469 9.16521L18.9526 10.6098L18.2439 8.34211L20.036 6.99837Z" fill="#F1C40F"/>
<path d="M25.8139 6.99837H23.6019L22.9248 4.83154L22.2476 6.99837H20.0356L21.8278 8.34211L21.1191 10.6098L22.9248 9.16521L24.7305 10.6098L24.0217 8.34211L25.8139 6.99837Z" fill="#F1C40F"/>
<path d="M31.5921 6.99837H29.3802L28.7031 4.83154L28.0259 6.99837H25.814L27.6061 8.34211L26.8974 10.6098L28.7031 9.16521L30.5088 10.6098L29.8001 8.34211L31.5921 6.99837Z" fill="#F1C40F"/>
<path d="M37.3702 6.99837H35.1582L34.481 4.83154L33.8038 6.99837H31.5918L33.3841 8.34211L32.6754 10.6098L34.481 9.16521L36.2866 10.6098L35.5779 8.34211L37.3702 6.99837Z" fill="#F1C40F"/>
<path d="M42.9562 6.99837H40.7442L40.0669 4.83154L39.3897 6.99837H37.1777L38.97 8.34211L38.2613 10.6098L40.0669 9.16521L41.8726 10.6098L41.1639 8.34211L42.9562 6.99837Z" fill="#F1C40F"/>
<path d="M11.2334 21.9549H12.878C13.2427 21.9549 13.5529 22.0105 13.8086 22.1217C14.0644 22.2329 14.259 22.3974 14.3924 22.6154C14.5281 22.8311 14.5959 23.0969 14.5959 23.4127C14.5959 23.6417 14.5503 23.8485 14.4591 24.0331C14.3702 24.2177 14.2423 24.3733 14.0755 24.5001C13.9087 24.6269 13.7108 24.7225 13.4817 24.787L13.2782 24.8737H11.7571L11.7505 24.3066H12.8946C13.117 24.3066 13.3016 24.2677 13.4484 24.1899C13.5951 24.1098 13.7052 24.0042 13.7786 23.873C13.8542 23.7395 13.892 23.5905 13.892 23.426C13.892 23.2458 13.8564 23.088 13.7853 22.9523C13.7141 22.8166 13.6029 22.7121 13.4517 22.6387C13.3027 22.5631 13.1115 22.5253 12.878 22.5253H11.9406V26.8118H11.2334V21.9549ZM14.0522 26.8118L12.8846 24.6169L13.6218 24.6135L14.806 26.7718V26.8118H14.0522ZM16.9826 26.8785C16.7268 26.8785 16.4955 26.8352 16.2887 26.7484C16.0819 26.6617 15.9051 26.5405 15.7583 26.3848C15.6116 26.2292 15.4982 26.0446 15.4181 25.8311C15.3402 25.6176 15.3013 25.3852 15.3013 25.1339V24.9938C15.3013 24.7047 15.3436 24.4456 15.4281 24.2166C15.5148 23.9853 15.6316 23.7896 15.7783 23.6295C15.9274 23.4671 16.0975 23.3448 16.2887 23.2625C16.4822 23.178 16.6857 23.1358 16.8992 23.1358C17.1572 23.1358 17.3806 23.1803 17.5697 23.2692C17.7587 23.3559 17.9144 23.4794 18.0367 23.6395C18.1612 23.7974 18.2524 23.9842 18.3102 24.1999C18.3702 24.4134 18.4003 24.648 18.4003 24.9037V25.2006H15.6749V24.6736H17.7264V24.6235C17.7198 24.4679 17.6886 24.3189 17.6331 24.1765C17.5774 24.032 17.4907 23.9141 17.3729 23.8229C17.2572 23.7318 17.0993 23.6862 16.8992 23.6862C16.7613 23.6862 16.6357 23.7151 16.5222 23.7729C16.4088 23.8307 16.3121 23.9164 16.232 24.0298C16.1519 24.1432 16.0897 24.2811 16.0452 24.4434C16.003 24.6035 15.9818 24.787 15.9818 24.9938V25.1339C15.9818 25.3007 16.0052 25.4564 16.0519 25.6009C16.0986 25.7455 16.1664 25.8733 16.2554 25.9845C16.3465 26.0935 16.4555 26.1791 16.5823 26.2414C16.7112 26.3014 16.858 26.3315 17.0226 26.3315C17.2316 26.3315 17.4118 26.2892 17.563 26.2047C17.7142 26.118 17.8465 26.0012 17.96 25.8545L18.3502 26.188C18.2724 26.3059 18.1723 26.4182 18.05 26.5249C17.9277 26.6295 17.7787 26.7151 17.603 26.7818C17.4273 26.8463 17.2205 26.8785 16.9826 26.8785ZM20.2365 26.2281L21.1906 23.2025H21.8878L20.6035 26.8118H20.1565L20.2365 26.2281ZM19.4593 23.2025L20.44 26.2447L20.5001 26.8118H20.0531L18.7588 23.2025H19.4593ZM23.2504 23.2025V26.8118H22.5699V23.2025H23.2504ZM22.5198 22.2485C22.5198 22.1417 22.5532 22.0516 22.6199 21.9783C22.6889 21.9049 22.7867 21.8682 22.9134 21.8682C23.0402 21.8682 23.1381 21.9049 23.207 21.9783C23.2759 22.0516 23.3104 22.1417 23.3104 22.2485C23.3104 22.3507 23.2759 22.4386 23.207 22.512C23.1381 22.5831 23.0402 22.6187 22.9134 22.6187C22.7867 22.6187 22.6889 22.5831 22.6199 22.512C22.5532 22.4386 22.5198 22.3507 22.5198 22.2485ZM25.8005 26.8785C25.5448 26.8785 25.3135 26.8352 25.1067 26.7484C24.8999 26.6617 24.7231 26.5405 24.5763 26.3848C24.4295 26.2292 24.3161 26.0446 24.236 25.8311C24.1582 25.6176 24.1193 25.3852 24.1193 25.1339V24.9938C24.1193 24.7047 24.1615 24.4456 24.246 24.2166C24.3328 23.9853 24.4495 23.7896 24.5963 23.6295C24.7453 23.4671 24.9154 23.3448 25.1067 23.2625C25.3001 23.178 25.5036 23.1358 25.7171 23.1358C25.9751 23.1358 26.1986 23.1803 26.3876 23.2692C26.5766 23.3559 26.7323 23.4794 26.8546 23.6395C26.9791 23.7974 27.0703 23.9842 27.1281 24.1999C27.1882 24.4134 27.2182 24.648 27.2182 24.9037V25.2006H24.4929V24.6736H26.5444V24.6235C26.5377 24.4679 26.5066 24.3189 26.451 24.1765C26.3954 24.032 26.3087 23.9141 26.1908 23.8229C26.0751 23.7318 25.9173 23.6862 25.7171 23.6862C25.5792 23.6862 25.4536 23.7151 25.3402 23.7729C25.2268 23.8307 25.13 23.9164 25.0499 24.0298C24.9699 24.1432 24.9076 24.2811 24.8631 24.4434C24.8209 24.6035 24.7998 24.787 24.7998 24.9938V25.1339C24.7998 25.3007 24.8231 25.4564 24.8698 25.6009C24.9165 25.7455 24.9844 25.8733 25.0733 25.9845C25.1645 26.0935 25.2735 26.1791 25.4002 26.2414C25.5292 26.3014 25.676 26.3315 25.8405 26.3315C26.0496 26.3315 26.2297 26.2892 26.3809 26.2047C26.5322 26.118 26.6645 26.0012 26.7779 25.8545L27.1682 26.188C27.0903 26.3059 26.9903 26.4182 26.8679 26.5249C26.7457 26.6295 26.5966 26.7151 26.421 26.7818C26.2453 26.8463 26.0385 26.8785 25.8005 26.8785ZM28.9144 26.1213L29.8116 23.2025H30.2521L30.152 23.873L29.2413 26.8118H28.8243L28.9144 26.1213ZM28.334 23.2025L29.0778 26.148L29.1345 26.8118H28.6875L27.6635 23.2025H28.334ZM31.1061 26.1213L31.8198 23.2025H32.487L31.4664 26.8118H31.0194L31.1061 26.1213ZM30.3421 23.2025L31.2228 26.0746L31.3262 26.8118H30.9124L29.9786 23.8663L29.8785 23.2025H30.3421ZM35.2407 25.8478C35.2407 25.761 35.2205 25.6821 35.1807 25.6109C35.1427 25.5376 35.0649 25.4708 34.947 25.4108C34.8314 25.3485 34.658 25.2951 34.4266 25.2507C34.2288 25.2084 34.0496 25.1584 33.8895 25.1006C33.7294 25.0405 33.5928 24.9693 33.4793 24.8871C33.3659 24.8048 33.2791 24.708 33.2191 24.5969C33.1591 24.4834 33.1292 24.3511 33.1292 24.1999C33.1292 24.0553 33.1603 23.9197 33.2224 23.7929C33.2869 23.6639 33.3781 23.5505 33.496 23.4527C33.6139 23.3548 33.7562 23.2781 33.9231 23.2225C34.0897 23.1647 34.2766 23.1358 34.4833 23.1358C34.7771 23.1358 35.0272 23.1869 35.2339 23.2892C35.443 23.3915 35.6031 23.5283 35.7142 23.6995C35.8256 23.8685 35.8811 24.0587 35.8811 24.2699H35.2039C35.2039 24.1699 35.1763 24.0742 35.1204 23.9831C35.0649 23.8919 34.9838 23.8174 34.8772 23.7596C34.7702 23.6995 34.639 23.6695 34.4833 23.6695C34.3232 23.6695 34.1922 23.6951 34.0897 23.7462C33.9896 23.7951 33.9163 23.8585 33.8696 23.9364C33.823 24.012 33.7995 24.0932 33.7995 24.1799C33.7995 24.2444 33.8108 24.3022 33.8328 24.3533C33.8575 24.4023 33.8985 24.4478 33.9564 24.4901C34.0164 24.5323 34.0987 24.5724 34.2032 24.6102C34.3098 24.6458 34.4435 24.6814 34.6036 24.7169C34.8926 24.7814 35.1338 24.8604 35.3275 24.9538C35.5232 25.045 35.6699 25.1595 35.7677 25.2974C35.8657 25.433 35.9144 25.6009 35.9144 25.8011C35.9144 25.9612 35.8811 26.1068 35.8143 26.2381C35.7478 26.3693 35.6509 26.4827 35.5241 26.5783C35.3996 26.6739 35.2505 26.7484 35.0771 26.8018C34.906 26.8529 34.7126 26.8785 34.4967 26.8785C34.1765 26.8785 33.9053 26.8218 33.6828 26.7084C33.4603 26.5927 33.2913 26.4449 33.1758 26.2647C33.0623 26.0824 33.0056 25.8911 33.0056 25.691H33.6763C33.6852 25.8533 33.7318 25.9823 33.8162 26.0779C33.9008 26.1735 34.0042 26.2425 34.1266 26.2848C34.251 26.3248 34.3755 26.3448 34.5002 26.3448C34.6624 26.3448 34.7982 26.3237 34.9072 26.2814C35.0159 26.2369 35.0985 26.178 35.154 26.1046C35.2116 26.029 35.2407 25.9434 35.2407 25.8478Z" fill="black"/>
<path d="M20.3036 2.98983L19.8643 2.88424L20.0226 1.49279H21.5706V1.93775H20.477L20.4073 2.54109C20.4437 2.51972 20.4984 2.4971 20.5713 2.47322C20.6454 2.44808 20.7284 2.43551 20.8202 2.43551C20.9534 2.43551 21.0716 2.45625 21.1746 2.49773C21.279 2.53921 21.367 2.59954 21.4386 2.67873C21.5115 2.75792 21.5668 2.85471 21.6045 2.96909C21.6422 3.08222 21.6611 3.21105 21.6611 3.3556C21.6611 3.47879 21.6422 3.59569 21.6045 3.70631C21.5668 3.81564 21.5096 3.91369 21.4329 4.00043C21.3563 4.08591 21.2595 4.15316 21.1426 4.20217C21.027 4.25118 20.8899 4.27571 20.7316 4.27571C20.6121 4.27571 20.4971 4.2581 20.3865 4.2229C20.2759 4.18646 20.1766 4.1343 20.0886 4.06643C20.0006 3.99728 19.9302 3.91307 19.8774 3.81377C19.8259 3.71448 19.7989 3.60134 19.7964 3.47439H20.3469C20.3532 3.55106 20.3727 3.61705 20.4054 3.67236C20.4393 3.72766 20.4833 3.77041 20.5374 3.80056C20.5927 3.82949 20.6561 3.84392 20.7278 3.84392C20.7969 3.84392 20.8554 3.83136 20.9031 3.80623C20.9509 3.77982 20.9899 3.74338 21.02 3.69686C21.0502 3.6491 21.0722 3.5938 21.086 3.53095C21.0998 3.4681 21.1068 3.40022 21.1068 3.32732C21.1068 3.25316 21.098 3.18654 21.0804 3.12747C21.0628 3.06713 21.0357 3.01559 20.9993 2.97286C20.9641 2.92887 20.9188 2.89556 20.8635 2.87293C20.8095 2.84905 20.7447 2.83711 20.6693 2.83711C20.5713 2.83711 20.4946 2.85282 20.4393 2.88424C20.384 2.91567 20.3388 2.95086 20.3036 2.98983ZM24.5325 3.51964C24.5325 3.47061 24.525 3.42662 24.5099 3.38766C24.4961 3.34869 24.4703 3.31287 24.4326 3.28019C24.3949 3.24625 24.3409 3.21294 24.2705 3.18026C24.2013 3.14758 24.1115 3.11364 24.0008 3.07844C23.8751 3.03822 23.7564 2.99297 23.6445 2.94269C23.5339 2.89241 23.4358 2.83396 23.3503 2.76735C23.2661 2.69947 23.1995 2.62091 23.1505 2.53167C23.1027 2.44116 23.0789 2.33684 23.0789 2.21868C23.0789 2.1043 23.1034 2.0006 23.1524 1.90759C23.2027 1.81331 23.2737 1.73287 23.3654 1.66625C23.4572 1.59837 23.5647 1.54621 23.6879 1.50976C23.8123 1.4733 23.9493 1.45508 24.0989 1.45508C24.3013 1.45508 24.4778 1.49153 24.6287 1.56443C24.7795 1.63608 24.897 1.73538 24.9813 1.86233C25.0655 1.98929 25.1076 2.13572 25.1076 2.30164H24.5344C24.5344 2.22245 24.5181 2.15269 24.4854 2.09236C24.4527 2.03077 24.4031 1.983 24.3365 1.94907C24.2711 1.91387 24.1881 1.89627 24.0876 1.89627C23.9908 1.89627 23.9097 1.91073 23.8443 1.93964C23.7802 1.96855 23.7319 2.00814 23.6992 2.05842C23.6678 2.10744 23.652 2.16212 23.652 2.22245C23.652 2.26896 23.664 2.31107 23.6879 2.34878C23.7117 2.38523 23.7463 2.41979 23.7916 2.45248C23.8381 2.4839 23.8946 2.51407 23.9612 2.54298C24.0291 2.57189 24.1071 2.59954 24.195 2.62594C24.3446 2.67245 24.476 2.72398 24.5891 2.78054C24.7022 2.83585 24.7971 2.89933 24.8738 2.97098C24.9517 3.04136 25.0102 3.12181 25.0491 3.21231C25.0894 3.30155 25.1095 3.40274 25.1095 3.51587C25.1095 3.63528 25.0856 3.74213 25.0378 3.83638C24.9913 3.93065 24.9241 4.01047 24.8361 4.07584C24.7481 4.14122 24.6425 4.19085 24.5193 4.2248C24.3974 4.25872 24.2617 4.27571 24.1121 4.27571C23.9751 4.27571 23.8399 4.2581 23.7067 4.2229C23.5747 4.18646 23.4547 4.13177 23.3466 4.05888C23.2397 3.98471 23.1543 3.89106 23.0902 3.77795C23.0261 3.66481 22.994 3.53095 22.994 3.37634H23.571C23.571 3.46056 23.5835 3.53221 23.6087 3.59128C23.6338 3.6491 23.6702 3.69624 23.718 3.73268C23.7671 3.76913 23.8242 3.79554 23.8896 3.81187C23.9562 3.82821 24.0304 3.83638 24.1121 3.83638C24.2076 3.83638 24.2862 3.82257 24.3477 3.79491C24.4106 3.76726 24.4571 3.72954 24.4873 3.68177C24.5174 3.63402 24.5325 3.57997 24.5325 3.51964ZM26.5 2.19794V2.58823H25.3084V2.19794H26.5ZM25.6006 1.69453H26.1512V3.61957C26.1512 3.67738 26.1587 3.72202 26.1738 3.75345C26.1889 3.78484 26.2121 3.80623 26.2435 3.81755C26.2762 3.82886 26.3164 3.83451 26.3642 3.83451C26.3981 3.83451 26.4283 3.83326 26.4547 3.83073C26.4811 3.82821 26.5044 3.82509 26.5245 3.82132V4.22667C26.478 4.24176 26.427 4.2537 26.3717 4.2625C26.3177 4.27129 26.258 4.27571 26.1926 4.27571C26.0707 4.27571 25.9651 4.25558 25.8759 4.21536C25.7879 4.17514 25.72 4.11104 25.6723 4.02306C25.6245 3.93505 25.6006 3.81879 25.6006 3.67426V1.69453ZM27.9376 3.77228V2.87105C27.9376 2.80694 27.9269 2.75163 27.9055 2.70513C27.8854 2.65736 27.8533 2.62091 27.8094 2.59577C27.7666 2.56937 27.7107 2.55618 27.6416 2.55618C27.5812 2.55618 27.5297 2.56623 27.4869 2.58634C27.4442 2.60645 27.4109 2.63536 27.387 2.67308C27.3644 2.71078 27.3531 2.75541 27.3531 2.80694H26.8006C26.8006 2.71895 26.8208 2.63599 26.861 2.55806C26.9025 2.48013 26.9609 2.41163 27.0363 2.35255C27.113 2.29221 27.2048 2.24508 27.3116 2.21114C27.4197 2.1772 27.5397 2.16023 27.6717 2.16023C27.8288 2.16023 27.969 2.18663 28.0922 2.23942C28.2166 2.29221 28.3147 2.3714 28.3863 2.47699C28.458 2.58257 28.4938 2.71518 28.4938 2.87481V3.744C28.4938 3.85839 28.5007 3.95076 28.5145 4.02116C28.5283 4.09156 28.5485 4.15316 28.5748 4.20594V4.23799H28.0167C27.9904 4.18144 27.9703 4.11104 27.9564 4.02683C27.9439 3.94259 27.9376 3.85776 27.9376 3.77228ZM28.0111 2.9936L28.0149 3.30658H27.7132C27.6416 3.30658 27.58 3.31475 27.5284 3.33109C27.4769 3.34743 27.4348 3.37006 27.4021 3.39897C27.3694 3.42788 27.3449 3.46182 27.3286 3.50078C27.3135 3.53975 27.306 3.58186 27.306 3.62711C27.306 3.67236 27.3166 3.7132 27.338 3.74967C27.3594 3.78612 27.3895 3.81502 27.4285 3.83638C27.4687 3.85652 27.5152 3.86656 27.568 3.86656C27.6485 3.86656 27.7182 3.85022 27.7773 3.81755C27.8364 3.78484 27.8822 3.74525 27.915 3.69876C27.9476 3.65225 27.9646 3.60825 27.9658 3.56677L28.1072 3.79868C28.0871 3.85022 28.0601 3.90362 28.0262 3.95893C27.9922 4.01424 27.9489 4.06577 27.8961 4.11357C27.8446 4.16133 27.7817 4.20027 27.7075 4.23045C27.6334 4.26062 27.546 4.27571 27.4455 4.27571C27.316 4.27571 27.1991 4.24993 27.0948 4.1984C26.9904 4.14561 26.9075 4.07332 26.8459 3.98156C26.7843 3.88857 26.7535 3.78297 26.7535 3.66481C26.7535 3.55797 26.773 3.46307 26.812 3.38012C26.8522 3.29716 26.9113 3.22739 26.9892 3.17083C27.0684 3.11301 27.1671 3.06902 27.2852 3.03885C27.4046 3.00868 27.5422 2.9936 27.6981 2.9936H28.0111ZM29.4977 2.65045V4.23799H28.9453V2.19794H29.4657L29.4977 2.65045ZM30.1124 2.18474L30.1029 2.69758C30.0764 2.69381 30.0447 2.69067 30.0069 2.68816C29.9692 2.68439 29.935 2.6825 29.905 2.6825C29.8296 2.6825 29.7637 2.69193 29.7069 2.71078C29.6517 2.72964 29.6052 2.75792 29.5675 2.79563C29.531 2.83208 29.5034 2.87733 29.4845 2.93138C29.4669 2.98417 29.4575 3.04513 29.4562 3.11427L29.3469 3.07844C29.3469 2.9452 29.3595 2.82328 29.3846 2.71267C29.411 2.6008 29.4493 2.50338 29.4996 2.42042C29.5511 2.33746 29.614 2.27336 29.6882 2.22811C29.7622 2.18286 29.8471 2.16023 29.9428 2.16023C29.9716 2.16023 30.0019 2.16275 30.0331 2.16777C30.0646 2.17155 30.091 2.1772 30.1124 2.18474ZM31.5028 3.67426C31.5028 3.63402 31.4909 3.59882 31.4671 3.56866C31.4446 3.53724 31.403 3.50895 31.3427 3.48381C31.2824 3.45742 31.1956 3.43228 31.0825 3.4084C30.9794 3.38577 30.8832 3.35749 30.7941 3.32355C30.7058 3.28961 30.6292 3.24813 30.5639 3.19911C30.4997 3.14883 30.4495 3.09038 30.413 3.02377C30.3767 2.95589 30.3583 2.87796 30.3583 2.78997C30.3583 2.70575 30.3767 2.62594 30.413 2.55052C30.4507 2.4751 30.5048 2.40848 30.5751 2.35066C30.6455 2.29159 30.7311 2.24508 30.8318 2.21114C30.9334 2.1772 31.0477 2.16023 31.1749 2.16023C31.3534 2.16023 31.506 2.18852 31.6329 2.24508C31.7612 2.30164 31.8598 2.37957 31.929 2.47887C31.9994 2.57691 32.0345 2.68941 32.0345 2.81637H31.482C31.482 2.76357 31.4707 2.71644 31.4481 2.67496C31.4267 2.63348 31.3935 2.6008 31.3483 2.57691C31.3029 2.55303 31.2452 2.54109 31.1749 2.54109C31.1146 2.54109 31.0629 2.55115 31.0201 2.57126C30.9773 2.59137 30.9447 2.61839 30.9221 2.65233C30.8995 2.68502 30.8882 2.72272 30.8882 2.76546C30.8882 2.79563 30.8945 2.82328 30.9069 2.84842C30.9209 2.8723 30.9423 2.8943 30.9711 2.91441C31.0014 2.93452 31.0403 2.95275 31.0881 2.96909C31.1359 2.98543 31.1951 3.00051 31.2651 3.01434C31.411 3.04325 31.5417 3.08222 31.6575 3.13124C31.7743 3.179 31.8666 3.24436 31.9347 3.32732C32.0039 3.41028 32.0383 3.51901 32.0383 3.6535C32.0383 3.74275 32.0181 3.82571 31.978 3.90238C31.9376 3.97779 31.88 4.04379 31.8046 4.10035C31.7291 4.15565 31.6385 4.19902 31.5331 4.23045C31.4273 4.26062 31.3085 4.27571 31.1766 4.27571C30.9856 4.27571 30.8241 4.24176 30.6922 4.17389C30.5615 4.10602 30.462 4.01991 30.3943 3.9156C30.3277 3.81 30.2942 3.70188 30.2942 3.59128H30.8166C30.8202 3.66294 30.8392 3.72137 30.8731 3.76663C30.9084 3.81187 30.953 3.84458 31.007 3.86468C31.0623 3.88479 31.1226 3.89483 31.1879 3.89483C31.2571 3.89483 31.3145 3.88542 31.3596 3.86656C31.4059 3.84769 31.4413 3.82194 31.465 3.78927C31.4903 3.75532 31.5028 3.71697 31.5028 3.67426Z" fill="#0371F6"/>
</g>
<defs>
<clipPath id="clip0_2234_1678">
<rect width="60" height="27.9208" fill="white" transform="translate(0 0.67334)"/>
</clipPath>
</defs>
</svg>
