<svg width="30" height="31" viewBox="0 0 30 31" fill="none" xmlns="http://www.w3.org/2000/svg">
<g clip-path="url(#clip0_2234_1887)">
<path d="M14.758 30.3908C22.6367 30.3908 29.0237 24.0038 29.0237 16.1251C29.0237 8.24637 22.6367 1.85938 14.758 1.85938C6.87917 1.85938 0.492188 8.24637 0.492188 16.1251C0.492188 24.0038 6.87917 30.3908 14.758 30.3908Z" fill="#263238"/>
<path d="M14.7573 26.9473C20.7343 26.9473 25.5797 22.102 25.5797 16.125C25.5797 10.148 20.7343 5.30273 14.7573 5.30273C8.78036 5.30273 3.93506 10.148 3.93506 16.125C3.93506 22.102 8.78036 26.9473 14.7573 26.9473Z" fill="#039BE5"/>
<path d="M14.758 23.0122C18.5615 23.0122 21.6449 19.9288 21.6449 16.1252C21.6449 12.3217 18.5615 9.23828 14.758 9.23828C10.9545 9.23828 7.87109 12.3217 7.87109 16.1252C7.87109 19.9288 10.9545 23.0122 14.758 23.0122Z" fill="#E53935"/>
<path d="M14.7573 19.5685C16.6592 19.5685 18.2008 18.0268 18.2008 16.1251C18.2008 14.2233 16.6592 12.6816 14.7573 12.6816C12.8556 12.6816 11.314 14.2233 11.314 16.1251C11.314 18.0268 12.8556 19.5685 14.7573 19.5685Z" fill="#FFEB3B"/>
<path d="M14.7576 30.8825C6.64095 30.8825 0 24.2908 0 16.1249C0 7.95894 6.64095 1.36719 14.7576 1.36719C22.8744 1.36719 29.5153 8.00813 29.5153 16.1249C29.5153 24.2416 22.8744 30.8825 14.7576 30.8825ZM14.7576 2.35103C7.18206 2.35103 0.983841 8.54925 0.983841 16.1249C0.983841 23.7004 7.18206 29.8987 14.7576 29.8987C22.3332 29.8987 28.5315 23.7004 28.5315 16.1249C28.5315 8.54925 22.3332 2.35103 14.7576 2.35103Z" fill="#B3E5FC"/>
<path d="M20.562 10.3202L21.841 8.35252C22.7265 7.02433 23.366 5.54857 23.8579 4.02361C24.153 3.03977 25.0877 2.35107 26.1699 2.35107C26.8094 2.35107 27.3997 2.59704 27.8425 3.03977L20.562 10.3202Z" fill="#B71C1C"/>
<path d="M27.8429 2.99072C28.2856 3.48264 28.5316 4.07295 28.5316 4.71245C28.5316 5.79468 27.8429 6.72933 26.8098 7.07368C25.2849 7.5656 23.8583 8.20509 22.4809 9.09055L20.5132 10.3695L27.8429 2.99072Z" fill="#E53935"/>
<path d="M28.671 1.51514L14.4097 15.7765L15.1053 16.4722L29.3667 2.21081L28.671 1.51514Z" fill="#BDBDBD"/>
<path d="M27.6461 13.7638C27.4002 13.7638 27.1542 13.7146 26.8591 13.6654C25.3341 13.1735 23.76 12.8783 22.1858 12.8292C21.8906 12.8292 21.6938 12.5832 21.6938 12.3372C26.4163 11.501 29.4662 11.501 29.4662 11.501L29.9581 11.5501C29.909 11.9437 29.8598 12.3372 29.6138 12.7308C29.1711 13.3702 28.4332 13.7638 27.6461 13.7638Z" fill="#18FFFF"/>
<path d="M18.5455 9.28717C18.2996 9.28717 18.0536 9.09041 18.0536 8.84449C17.9552 7.4671 17.5617 5.94214 16.9222 4.22041C16.5286 3.13819 16.873 2.00676 17.7092 1.36726C18.2011 0.973721 18.8407 0.826149 19.431 0.875341C19.677 2.44949 18.7423 8.35256 18.5455 9.28717Z" fill="#18FFFF"/>
<path d="M16.1841 14.6983C18.5945 10.7137 19.8244 6.04045 19.6276 1.36719H19.1357C19.3324 5.94206 18.1519 10.5169 15.7906 14.4031C15.4954 14.6983 14.4132 15.7805 14.4132 15.7805C13.9705 16.2233 14.6591 16.9611 15.1019 16.4692C15.1019 16.4692 16.2334 15.3377 16.5285 15.0426C20.4146 12.6814 24.8912 11.5008 29.5152 11.6976V11.2056C24.8419 11.0581 20.1687 12.2386 16.1841 14.6983Z" fill="#546E7A"/>
</g>
<defs>
<clipPath id="clip0_2234_1887">
<rect width="30" height="30.8824" fill="white"/>
</clipPath>
</defs>
</svg>
