<svg width="30" height="30" viewBox="0 0 30 30" fill="none" xmlns="http://www.w3.org/2000/svg">
<g clip-path="url(#clip0_2234_1664)">
<path fill-rule="evenodd" clip-rule="evenodd" d="M28.11 15.1798L26.91 13.5298C28.44 10.6198 29.46 6.41981 24.66 6.86981C24.48 5.33981 23.28 2.54981 21.78 1.88981C19.98 1.10981 18.33 2.54981 17.04 3.59981C16.44 2.87981 15.15 1.46981 14.13 1.37981C12.03 -0.54019 9.98997 2.42981 9.17997 4.10981C4.49997 2.99981 2.36997 5.81981 4.19997 10.2298C2.81997 10.7398 0.179969 11.9398 0.899969 13.8298C0.959969 14.1298 1.04997 14.4298 1.19997 14.6998C1.52997 15.4198 2.06997 16.0198 2.75997 16.4398C3.26997 16.9498 3.83997 17.4598 4.34997 17.8798C4.22997 18.3298 3.92997 18.8398 3.89997 19.3498C3.50997 20.3998 3.14997 21.4498 2.75997 22.4998L7.52997 22.7698C7.67997 22.9198 7.79997 23.0698 7.97997 23.2198C7.85997 24.7198 6.35997 27.9898 8.84997 28.3498C9.59997 28.4698 9.95997 28.0798 10.5 27.6598C10.98 27.2698 11.49 26.9098 12.03 26.6098C12.54 26.3098 13.08 26.0998 13.62 25.9498L17.31 28.8598C17.76 28.3198 18.21 27.8098 18.66 27.2698C19.29 26.7898 19.71 26.0998 19.86 25.3198C19.86 25.3198 19.89 25.3198 19.89 25.2898C21.18 25.3798 22.68 26.5498 23.91 26.1298C24.21 26.0398 24.45 25.8598 24.66 25.6498C25.68 24.6598 25.71 22.6798 24.9 20.6398C26.22 20.3398 27.42 19.7398 28.44 18.8698C28.98 18.3898 29.13 18.1198 29.19 17.8198C29.25 17.6098 29.43 16.9798 28.11 15.1798Z" fill="#FDB913"/>
<path d="M27.24 15.18C26.85 14.67 26.52 14.16 26.19 13.68C27.24 12.3 27.96 10.68 28.29 8.96998C28.32 8.72998 28.2 8.51998 27.96 8.45998C27.03 8.24998 26.1 8.03998 25.14 7.85998C24.42 7.70998 23.73 7.55998 23.04 7.43998C23.07 7.07998 23.1 6.65998 23.1 6.23998C23.1 5.81998 23.07 5.39998 23.04 4.94998C22.95 3.95998 22.74 2.96998 22.44 1.97998C22.38 1.73998 22.14 1.61998 21.9 1.70998C21.9 1.70998 21.9 1.70998 21.87 1.70998C20.88 2.06998 19.89 2.54998 18.99 3.08998C18.27 3.50998 17.58 3.98998 16.95 4.49998C16.47 4.01998 15.96 3.56998 15.39 3.05998C14.58 2.36998 13.77 1.73998 13.02 1.16998C12.84 1.01998 12.57 1.07998 12.42 1.25998C12.42 1.25998 12.42 1.25998 12.42 1.28998C11.85 2.09998 11.34 2.96998 10.8 3.83998C10.47 4.40998 10.14 4.94998 9.81001 5.51998C9.09001 5.42998 8.34001 5.33998 7.53001 5.27998C6.57001 5.21998 5.70001 5.18998 4.86001 5.18998H4.77001C4.53001 5.18998 4.35001 5.36998 4.35001 5.60998C4.35001 5.63998 4.35001 5.63998 4.35001 5.66998C4.47001 6.59998 4.65001 7.58998 4.89001 8.66998C5.07001 9.41998 5.25001 10.14 5.46001 10.83C4.86001 11.19 4.29001 11.55 3.69001 11.94C2.85001 12.45 2.07001 12.99 1.26001 13.5C1.05001 13.62 1.02001 13.89 1.14001 14.1C1.14001 14.1 1.14001 14.13 1.17001 14.13C1.74001 14.88 2.34001 15.6 3.00001 16.26C3.57001 16.86 4.14001 17.4 4.68001 17.88C4.44001 18.54 4.14001 19.23 3.81001 19.92C3.39001 20.85 2.94001 21.69 2.52001 22.47C2.40001 22.68 2.49001 22.95 2.67001 23.07C2.73001 23.1 2.82001 23.13 2.91001 23.13C3.21001 23.13 3.54001 23.1 3.87001 23.1C4.41001 23.1 4.98001 23.13 5.58001 23.16C6.30001 23.22 6.96001 23.31 7.56001 23.4C7.68001 24.12 7.80001 24.87 7.89001 25.65C8.01001 26.67 8.10001 27.63 8.13001 28.53C8.13001 28.77 8.34001 28.95 8.58001 28.92C8.64001 28.92 8.70001 28.89 8.76001 28.86C9.60001 28.41 10.47 27.93 11.37 27.39C12.15 26.94 12.87 26.49 13.59 26.04C14.01 26.37 14.46 26.7 14.91 27.09C15.75 27.78 16.5 28.5 17.19 29.16C17.37 29.34 17.64 29.34 17.79 29.16L17.82 29.13C18.81 27.99 19.77 26.82 20.76 25.68L25.38 26.49C25.62 26.52 25.83 26.37 25.89 26.13C25.89 26.07 25.89 26.01 25.89 25.95C25.68 24.96 25.53 23.97 25.44 22.98C25.41 22.41 25.38 21.87 25.38 21.36C25.38 21.24 25.38 21.15 25.38 21.03C25.92 20.64 26.49 20.25 27.06 19.77C27.81 19.2 28.47 18.6 29.07 18.06C29.25 17.91 29.25 17.64 29.1 17.46C28.5 16.77 27.87 16.02 27.24 15.18ZM26.52 19.11C25.89 19.59 25.29 20.04 24.69 20.46C24.57 20.55 24.51 20.67 24.51 20.79C24.51 20.97 24.51 21.15 24.51 21.36C24.51 21.9 24.54 22.44 24.57 23.04C24.63 23.88 24.75 24.69 24.9 25.53L20.64 24.78C20.49 24.75 20.34 24.81 20.25 24.93C19.32 26.01 18.39 27.12 17.43 28.2C16.83 27.6 16.17 27 15.45 26.4C14.91 25.95 14.37 25.53 13.86 25.14C13.71 25.02 13.53 25.02 13.38 25.11C12.6 25.62 11.79 26.1 10.92 26.61C10.23 27 9.57001 27.39 8.91001 27.75C8.85001 27.03 8.79001 26.28 8.70001 25.47C8.58001 24.57 8.46001 23.7 8.34001 22.89C8.31001 22.71 8.16001 22.56 7.98001 22.53C7.20001 22.38 6.39001 22.29 5.61001 22.23C4.98001 22.17 4.38001 22.17 3.81001 22.17C3.72001 22.17 3.66001 22.17 3.57001 22.17C3.90001 21.57 4.23001 20.91 4.53001 20.22C4.92001 19.41 5.25001 18.6 5.52001 17.85C5.58001 17.67 5.52001 17.49 5.40001 17.37C4.77001 16.8 4.14001 16.2 3.57001 15.6C3.00001 15 2.52001 14.43 2.07001 13.89C2.73001 13.47 3.39001 13.02 4.08001 12.6C4.77001 12.18 5.46001 11.76 6.15001 11.34C6.33001 11.25 6.39001 11.04 6.33001 10.86C6.09001 10.11 5.88001 9.29998 5.70001 8.45998C5.52001 7.61998 5.37001 6.80998 5.25001 6.02998C5.94001 6.02998 6.69001 6.05998 7.47001 6.11998C8.37001 6.17998 9.21001 6.29998 9.99001 6.38998C10.17 6.41998 10.35 6.32998 10.44 6.17998C10.8 5.54998 11.16 4.91998 11.55 4.25998C12 3.53998 12.42 2.81998 12.87 2.12998C13.5 2.60998 14.16 3.11998 14.82 3.68998C15.48 4.25998 16.08 4.79998 16.62 5.33998C16.77 5.48998 17.04 5.51998 17.19 5.36998C18.54 4.22998 20.1 3.29998 21.75 2.63998C21.96 3.41998 22.11 4.19998 22.17 4.97998C22.2 5.39998 22.23 5.81998 22.23 6.20998C22.23 6.71998 22.2 7.22998 22.14 7.70998C22.11 7.91998 22.26 8.12998 22.5 8.18998C23.31 8.33998 24.15 8.51998 24.99 8.66998C25.8 8.84998 26.58 8.99998 27.36 9.17998C27 10.71 26.31 12.12 25.32 13.35C25.2 13.5 25.2 13.71 25.29 13.86C25.68 14.43 26.1 15.03 26.55 15.66C27.09 16.38 27.66 17.07 28.2 17.67C27.66 18.18 27.12 18.63 26.52 19.11Z" fill="black"/>
<path d="M10.95 18.5698C10.47 18.6898 9.23997 19.4398 8.96997 18.5998C8.66997 17.7298 9.92997 17.4898 10.47 17.5198C11.13 17.5498 11.13 16.4998 10.47 16.4998C9.62997 16.4698 8.78997 16.6798 8.27997 17.3998C7.82997 17.9998 7.79997 18.8098 8.21997 19.4098C8.66997 20.0698 9.47997 20.1298 10.17 19.9198C10.44 19.8598 10.68 19.7098 10.95 19.6498C11.4 19.5598 12.27 19.6498 11.91 20.3398C11.58 20.9698 10.68 20.9398 10.08 20.9098C9.41997 20.8798 9.41997 21.8998 10.08 21.9298C10.95 21.9898 11.85 21.8698 12.51 21.2398C13.05 20.7298 13.2 19.9198 12.84 19.2298C12.45 18.5398 11.67 18.3898 10.95 18.5698Z" fill="black"/>
<path d="M14.5199 15.1801C14.0099 14.8501 12.9899 14.0401 12.3299 14.4301C11.6999 14.8201 11.9999 15.7801 12.2099 16.3201C12.6599 17.4001 13.1999 18.4201 13.7699 19.4401C14.0999 20.0101 14.9999 19.5001 14.6699 18.9301C14.4899 18.6301 14.3099 18.3001 14.1599 17.9701C14.5199 17.6401 14.9099 17.3101 15.2999 17.0101C15.5999 17.2501 15.8999 17.5201 16.1999 17.7901C16.6799 18.2401 17.3999 17.5201 16.9199 17.0701C16.1999 16.3501 15.3899 15.7201 14.5199 15.1801ZM13.1099 15.5701C13.4999 15.6301 14.0699 16.0801 14.4599 16.3801C14.1899 16.5901 13.9499 16.8001 13.6799 17.0401C13.5599 16.8301 13.4699 16.6201 13.3799 16.3801C13.2599 16.1401 13.1699 15.9001 13.0799 15.6301C12.9299 15.4801 12.9599 15.4501 13.1099 15.5701Z" fill="black"/>
<path d="M19.4699 14.9703C19.0499 15.2403 18.6299 15.5103 18.2399 15.8103C17.3699 14.8203 16.5599 13.7703 15.8399 12.6603C15.4799 12.0903 14.5799 12.6303 14.9399 13.1703C15.7799 14.4603 16.7399 15.6903 17.7899 16.8303C17.9999 17.0103 18.3299 17.0103 18.5099 16.8303C18.9899 16.4703 19.4699 16.1403 19.9799 15.8403C20.5499 15.5103 20.0399 14.6103 19.4699 14.9703Z" fill="black"/>
<path d="M22.1999 12.6002C21.7199 12.9302 21.2399 13.2602 20.7899 13.6202L20.7299 13.6502C20.6999 13.6202 20.6699 13.5902 20.6399 13.5602C20.6099 13.4102 20.3399 13.1702 20.2499 13.0802C20.1299 12.9302 20.0099 12.7802 19.8899 12.6602L21.1799 11.5502C21.6899 11.1302 20.9399 10.3802 20.4599 10.8302L19.2299 11.8802C18.9599 11.5802 18.6899 11.3102 18.4199 11.0402C18.8099 10.6502 19.2599 10.3202 19.7399 10.0202C20.3099 9.6602 19.7999 8.7902 19.2299 9.1202C18.5399 9.5402 17.9099 10.0502 17.3699 10.6502C17.3099 10.7102 17.2499 10.8302 17.2199 10.9202C17.1599 11.1002 17.1899 11.3102 17.3399 11.4302C17.8799 11.9702 18.4199 12.5102 18.8999 13.0802C19.3199 13.5602 19.6499 14.2502 20.1299 14.6702C20.9099 15.3302 22.0799 13.9802 22.6799 13.5302C23.2499 13.1102 22.7399 12.2102 22.1999 12.6002Z" fill="black"/>
</g>
<defs>
<clipPath id="clip0_2234_1664">
<rect width="30" height="30" fill="white"/>
</clipPath>
</defs>
</svg>
