<svg width="32" height="28" viewBox="0 0 32 28" fill="none" xmlns="http://www.w3.org/2000/svg">
<path d="M21.9768 18.3471V19.8277H15.1837V18.5596L18.4191 15.0773C18.7482 14.7026 19.0087 14.3758 19.2006 14.0971C19.3925 13.8183 19.5296 13.567 19.6119 13.343C19.6987 13.1145 19.7421 12.8975 19.7421 12.6918C19.7421 12.3856 19.6896 12.1206 19.5845 11.8967C19.4793 11.6728 19.3263 11.4991 19.1252 11.3757C18.9241 11.2523 18.6773 11.1906 18.3849 11.1906C18.065 11.1906 17.7908 11.266 17.5623 11.4168C17.3384 11.5677 17.167 11.7756 17.0482 12.0406C16.9339 12.3057 16.8768 12.6073 16.8768 12.9455H14.9849C14.9849 12.3514 15.122 11.8098 15.3962 11.3209C15.6749 10.8319 16.0725 10.4412 16.5889 10.1487C17.1053 9.85165 17.7154 9.70312 18.4191 9.70312C19.1138 9.70312 19.6987 9.81738 20.174 10.0459C20.6538 10.2698 21.0171 10.592 21.2639 11.0124C21.5107 11.4328 21.6341 11.931 21.6341 12.5068C21.6341 12.8312 21.5815 13.1511 21.4764 13.4664C21.3713 13.7772 21.2228 14.0857 21.0308 14.3918C20.8389 14.698 20.6104 15.0088 20.3454 15.3241C20.0803 15.6349 19.7833 15.9547 19.4542 16.2838L17.6103 18.3471H21.9768ZM30.1751 16.1467V17.6273H22.9845L22.9022 16.4826L27.0974 9.84707H28.5986L26.9671 12.589L24.7941 16.1467H30.1751ZM29.0167 9.84707V19.8277H27.1248V9.84707H29.0167Z" fill="#ED1C24"/>
<mask id="mask0_2237_1952" style="mask-type:luminance" maskUnits="userSpaceOnUse" x="0" y="5" width="21" height="21">
<path d="M10.1193 5.12695L20.2385 15.2462L10.1193 25.3655L0 15.2462L10.1193 5.12695Z" fill="white"/>
</mask>
<g mask="url(#mask0_2237_1952)">
<path d="M12.6854 22.5494C12.5616 22.8208 12.3926 23.0759 12.1775 23.3043C12.1581 23.3268 12.1368 23.3481 12.115 23.3699C11.0133 24.4716 9.2263 24.4716 8.12463 23.3699C3.63756 18.8829 3.63756 11.6088 8.12424 7.12217C9.22591 6.02047 11.0129 6.02047 12.1146 7.12217C12.1368 7.1443 12.1577 7.16525 12.1775 7.18817C12.3926 7.4165 12.5624 7.67241 12.6858 7.94344L10.192 11.9354C10.1901 11.9373 10.1885 11.9373 10.1862 11.9366L8.1949 11.1801L8.18945 11.1778C6.90025 13.7275 6.90025 16.7642 8.18945 19.3147L8.1953 19.312L10.1878 18.5559L12.6854 22.5494Z" fill="#ED1C24"/>
</g>
<path d="M13.6 6.44318C12.7226 5.39029 11.4796 5.12705 10.9678 5.12705C13.0736 3.19674 16.671 2.71416 18.2065 2.71417V0.30127L24.3484 4.0303L18.2065 7.53996V5.12705C15.5742 4.95159 14.0387 5.93135 13.6 6.44318Z" fill="black" stroke="black" stroke-width="0.0438709"/>
<path d="M11.4839 25.7876C12.9831 25.2323 13.7285 24.3958 13.9138 24.0469C17.347 25.8016 21.2817 24.0499 22.8199 22.9548C24.417 22.7735 24.6752 23.9489 24.4534 24.6615C19.746 28.4228 13.8456 26.9794 11.4839 25.7876Z" fill="black" stroke="black" stroke-width="0.0438709"/>
</svg>
