<svg width="29" height="29" viewBox="0 0 29 29" fill="none" xmlns="http://www.w3.org/2000/svg">
<path d="M21.4857 12.8931C21.4853 11.8484 21.2506 10.8171 20.7989 9.87514C20.3472 8.93315 19.6899 8.10447 18.8755 7.45013C18.0611 6.79579 17.1103 6.33244 16.0931 6.09421C15.076 5.85598 14.0183 5.84893 12.998 6.07357C11.9778 6.29822 11.0209 6.74885 10.1978 7.39227C9.37479 8.0357 8.70654 8.85553 8.24229 9.79142C7.77804 10.7273 7.52961 11.7554 7.5153 12.8C7.50099 13.8446 7.72117 14.8791 8.15961 15.8274L11.5468 23.2444H17.4535L20.8407 15.8274C21.2668 14.9079 21.4869 13.9065 21.4857 12.8931Z" fill="#FFC43D"/>
<path d="M14.5002 5.90723C14.1877 5.90951 13.8758 5.93277 13.5664 5.97683C14.6499 6.12241 15.684 6.52039 16.5855 7.13872C17.4871 7.75705 18.2308 8.57845 18.7568 9.53677C19.2828 10.4951 19.5765 11.5636 19.614 12.6561C19.6516 13.7487 19.4321 14.8348 18.9732 15.827L15.586 23.244H17.4536L20.8408 15.827C21.3328 14.7624 21.549 13.5912 21.4695 12.4211C21.3899 11.251 21.0172 10.1198 20.3856 9.13164C19.754 8.14349 18.8838 7.3302 17.8553 6.76671C16.8268 6.20321 15.673 5.90764 14.5002 5.90723Z" fill="#FAAE17"/>
<path d="M14.5 0.631348V2.92467" stroke="black" stroke-width="1.16" stroke-linecap="round" stroke-linejoin="round"/>
<path d="M23.1103 4.27295L21.502 5.90739" stroke="black" stroke-width="1.16" stroke-linecap="round" stroke-linejoin="round"/>
<path d="M26.4563 12.9443H24.1636" stroke="black" stroke-width="1.16" stroke-linecap="round" stroke-linejoin="round"/>
<path d="M5.89014 4.27295L7.49848 5.90739" stroke="black" stroke-width="1.16" stroke-linecap="round" stroke-linejoin="round"/>
<path d="M2.54395 12.9443H4.83669" stroke="black" stroke-width="1.16" stroke-linecap="round" stroke-linejoin="round"/>
<path d="M21.4857 12.8931C21.4853 11.8484 21.2506 10.8171 20.7989 9.87514C20.3472 8.93315 19.6899 8.10447 18.8755 7.45013C18.0611 6.79579 17.1103 6.33244 16.0931 6.09421C15.076 5.85598 14.0183 5.84893 12.998 6.07357C11.9778 6.29822 11.0209 6.74885 10.1978 7.39227C9.37479 8.0357 8.70654 8.85553 8.24229 9.79142C7.77804 10.7273 7.52961 11.7554 7.5153 12.8C7.50099 13.8446 7.72117 14.8791 8.15961 15.8274L11.5468 23.2444H17.4535L20.8407 15.8274C21.2668 14.9079 21.4869 13.9065 21.4857 12.8931Z" stroke="black" stroke-width="1.16" stroke-linecap="round" stroke-linejoin="round"/>
<path d="M11.542 23.2441H17.458V25.4128C17.458 26.1973 17.1463 26.9496 16.5916 27.5044C16.0369 28.0591 15.2845 28.3708 14.5 28.3708C13.7155 28.3708 12.9631 28.0591 12.4084 27.5044C11.8536 26.9496 11.542 26.1973 11.542 25.4128V23.2441Z" fill="#727373"/>
<path d="M15.5889 23.2441V25.4128C15.5882 26.0331 15.3926 26.6374 15.0297 27.1405C14.6667 27.6435 14.1549 28.0197 13.5664 28.2159C13.8674 28.3169 14.1827 28.3686 14.5002 28.369C14.8887 28.369 15.2733 28.2925 15.6322 28.1439C15.9911 27.9952 16.3172 27.7773 16.5918 27.5026C16.8665 27.228 17.0844 26.9019 17.233 26.543C17.3817 26.1841 17.4582 25.7995 17.4582 25.411V23.2441H15.5889Z" fill="#606161"/>
<path d="M11.542 23.2441H17.458V25.4128C17.458 26.1973 17.1463 26.9496 16.5916 27.5044C16.0369 28.0591 15.2845 28.3708 14.5 28.3708C13.7155 28.3708 12.9631 28.0591 12.4084 27.5044C11.8536 26.9496 11.542 26.1973 11.542 25.4128V23.2441Z" stroke="black" stroke-width="1.16" stroke-linecap="round" stroke-linejoin="round"/>
<path d="M10.8105 25.2954H18.1893" stroke="black" stroke-width="1.16" stroke-linecap="round" stroke-linejoin="round"/>
<path d="M10.8105 23.2441H18.1893" stroke="black" stroke-width="1.16" stroke-linecap="round" stroke-linejoin="round"/>
</svg>
