<svg width="39" height="25" viewBox="0 0 39 25" fill="none" xmlns="http://www.w3.org/2000/svg">
<g clip-path="url(#clip0_1_75358)">
<path d="M29.6553 7.65325L30.8032 7.27058C30.9946 7.17492 31.1859 7.27058 31.2815 7.36625C31.4729 7.55758 31.4729 7.74891 31.2815 7.94024L30.8989 8.60987L29.6553 7.65325Z" fill="#CC291F"/>
<path opacity="0.39" d="M29.6553 7.65325L30.8032 7.27058C30.9946 7.17492 31.1859 7.27058 31.2815 7.36625C31.4729 7.55758 31.4729 7.74891 31.2815 7.94024L30.8989 8.60987" fill="black"/>
<path opacity="0.3" d="M24.8724 24.8724L38.2652 18.1759L13.3928 5.73975L0 12.4362L24.8724 24.8724Z" fill="#262626"/>
<path d="M25.3503 20.8546L36.3516 15.5931L12.4358 3.53955L1.43457 8.80102L25.3503 20.8546Z" fill="#2D3134"/>
<path d="M21.142 15.402C20.3766 15.0193 19.707 15.0193 19.2287 15.2106L18.1764 15.7846C17.6024 16.0716 17.3154 16.5499 17.3154 17.4109C17.3154 18.9415 18.559 20.8547 20.0897 21.6201C20.855 22.0027 21.5246 22.0027 22.0986 21.8114C22.0986 21.8114 23.1509 21.2374 23.2465 21.1417C23.7249 20.8547 24.0118 20.3764 24.0118 19.6111C23.9162 18.0805 22.6725 16.2629 21.142 15.402Z" fill="#2D3134"/>
<path opacity="0.39" d="M22.002 21.8113C22.1933 21.7156 23.0543 21.2373 23.1499 21.2373C23.6282 20.9503 23.9152 20.472 23.9152 19.7067C23.9152 19.0371 23.7239 18.3674 23.3412 17.7935L22.289 18.3674C22.6716 19.0371 22.8629 19.7067 22.8629 20.2807C22.8629 21.046 22.5759 21.5243 22.002 21.8113Z" fill="black"/>
<path d="M19.9942 16.7408C18.8463 16.1668 17.8896 16.6451 17.8896 17.7931C17.8896 18.941 18.8463 20.376 19.9942 20.9499C21.1422 21.5239 22.0988 21.0456 22.0988 19.8976C22.1945 18.7497 21.2378 17.3147 19.9942 16.7408ZM21.4292 18.1757C21.6205 18.4627 21.7162 18.7497 21.5248 18.8454C21.4292 18.941 20.7595 18.8454 20.4726 18.7497C20.4726 18.654 20.3769 18.654 20.3769 18.5584C20.4726 18.2714 20.6638 17.7931 20.8552 17.6974C20.9508 17.6017 21.2378 17.7931 21.4292 18.1757ZM19.9942 16.9321C20.2812 17.1234 20.5682 17.3147 20.5682 17.5061C20.5682 17.6974 20.2812 18.1757 20.0899 18.367C20.0899 18.367 19.9942 18.367 19.9942 18.2714H19.8986C19.7072 17.8887 19.4202 17.2191 19.4202 17.0277C19.5159 16.7408 19.7072 16.7408 19.9942 16.9321ZM18.6549 16.7408C18.8463 16.6451 19.1333 16.6451 19.3246 16.9321C19.4202 17.1234 19.7072 17.8887 19.8029 18.1757C19.7072 18.1757 19.7072 18.1757 19.7072 18.2714C19.4202 17.9844 18.7506 17.5061 18.6549 17.3147C18.3679 17.0277 18.4636 16.8364 18.6549 16.7408ZM18.0809 17.8887C18.0809 17.6017 18.1766 17.4104 18.4636 17.5061C18.6549 17.6017 19.2289 18.1757 19.5159 18.4627V18.5584V18.654C19.2289 18.654 18.6549 18.654 18.4636 18.5584C18.1766 18.4627 18.0809 18.1757 18.0809 17.8887ZM18.6549 19.515C18.4636 19.228 18.3679 18.941 18.5593 18.8454C18.6549 18.7497 19.3246 18.8454 19.6116 18.941C19.6116 19.0367 19.7072 19.0367 19.7072 19.1324C19.6116 19.4194 19.4202 19.8976 19.2289 19.9933C19.1333 20.089 18.8463 19.802 18.6549 19.515ZM19.9942 20.7586C19.7072 20.5673 19.4202 20.376 19.4202 20.1846C19.4202 19.9933 19.7072 19.515 19.8986 19.3237C19.8986 19.3237 19.9942 19.3237 19.9942 19.4193H20.0899C20.2812 19.802 20.5682 20.4716 20.5682 20.663C20.5682 20.9499 20.3769 20.9499 19.9942 20.7586ZM21.4292 20.8543C21.2378 20.9499 20.9508 20.9499 20.7595 20.663C20.6638 20.4716 20.3769 19.7063 20.2812 19.4193C20.3769 19.4193 20.3769 19.4194 20.3769 19.3237C20.6638 19.6106 21.3335 20.089 21.4292 20.2803C21.7162 20.5673 21.6205 20.7586 21.4292 20.8543ZM21.6205 20.1846C21.4292 20.089 20.8552 19.515 20.5682 19.228V19.1324V19.0367C20.8552 19.0367 21.4292 19.0367 21.6205 19.1324C21.9075 19.228 22.0031 19.515 22.0031 19.802C22.0031 20.089 21.9075 20.2803 21.6205 20.1846Z" fill="#C4C6CC"/>
<path opacity="0.06" d="M20.1856 20.8546C19.0376 20.2807 18.0809 18.8457 18.0809 17.6978C18.0809 17.1238 18.2723 16.7411 18.6549 16.5498C18.1766 16.7411 17.8896 17.1238 17.8896 17.7934C17.8896 18.9414 18.8463 20.3763 19.9942 20.9503C20.5682 21.2373 21.1422 21.2373 21.5248 21.046C21.1422 21.1416 20.7595 21.1416 20.1856 20.8546Z" fill="black"/>
<path opacity="0.06" d="M22.8639 20.2806C22.8639 21.8112 21.6202 22.4808 20.0897 21.7155C18.559 20.9502 17.3154 19.037 17.3154 17.5063C17.3154 15.9757 18.559 15.3061 20.0897 16.0714C21.6202 16.7411 22.8639 18.6543 22.8639 20.2806Z" fill="black"/>
<path d="M6.79229 8.32284C6.027 7.94022 5.35737 7.94021 4.87904 8.13151L3.73109 8.70551C3.25277 8.89684 2.87012 9.47079 2.87012 10.2361C2.87012 11.7667 4.11375 13.68 5.64433 14.4453C6.40966 14.8279 7.07928 14.8279 7.65328 14.6366C7.65328 14.6366 8.70557 14.0626 8.80123 13.967C9.27952 13.68 9.56652 13.2017 9.56652 12.4364C9.56652 11.0014 8.3229 9.08817 6.79229 8.32284Z" fill="#2D3134"/>
<path opacity="0.39" d="M7.65332 14.6365C7.84465 14.5408 8.70561 14.0625 8.80127 14.0625C9.2796 13.7756 9.5666 13.2972 9.5666 12.5319C9.5666 11.8623 9.37527 11.1926 8.99261 10.6187L7.94032 11.1926C8.32298 11.8623 8.51431 12.5319 8.51431 13.1059C8.51431 13.8712 8.22732 14.4452 7.65332 14.6365Z" fill="black"/>
<path d="M5.64463 9.56645C4.49667 8.99249 3.54004 9.47078 3.54004 10.6187C3.54004 11.7667 4.49667 13.2016 5.64463 13.7756C6.79258 14.3496 7.7492 13.8713 7.7492 12.7233C7.84487 11.5754 6.88825 10.1404 5.64463 9.56645ZM7.07958 11.0014C7.27091 11.2884 7.36657 11.5754 7.17524 11.6711C7.07958 11.7667 6.40992 11.6711 6.12295 11.5754C6.12295 11.4797 6.02729 11.4797 6.02729 11.3841C6.12295 11.0971 6.31425 10.6187 6.50558 10.5231C6.60125 10.4274 6.88825 10.7144 7.07958 11.0014ZM5.64463 9.75778C5.93162 9.94911 6.21862 10.1404 6.21862 10.3318C6.21862 10.5231 5.93162 11.0014 5.74029 11.1927C5.74029 11.1927 5.64463 11.1927 5.64463 11.0971H5.54896C5.35763 10.7144 5.07063 10.0448 5.07063 9.85345C5.1663 9.56645 5.35763 9.56645 5.64463 9.75778ZM4.30534 9.66211C4.49667 9.56645 4.78367 9.56645 4.975 9.85345C5.07063 10.0448 5.35763 10.8101 5.45329 11.0971C5.35763 11.0971 5.35763 11.0971 5.35763 11.1927C5.07063 10.9057 4.40101 10.4274 4.30534 10.2361C4.01834 9.94911 4.11401 9.75778 4.30534 9.66211ZM3.73138 10.7144C3.73138 10.4274 3.82701 10.2361 4.11401 10.3318C4.30534 10.4274 4.87934 11.0014 5.1663 11.2884V11.3841V11.4797C4.87934 11.4797 4.30534 11.4797 4.11401 11.3841C3.82701 11.2884 3.73138 11.0014 3.73138 10.7144ZM4.30534 12.3407C4.11401 12.0537 4.01834 11.7667 4.20967 11.6711C4.30534 11.5754 4.975 11.6711 5.26196 11.7667C5.26196 11.8624 5.35763 11.8624 5.35763 11.958C5.26196 12.245 5.07063 12.7233 4.87934 12.819C4.78367 12.9147 4.49667 12.6277 4.30534 12.3407ZM5.64463 13.5843C5.35763 13.393 5.07063 13.2016 5.07063 13.0103C5.07063 12.819 5.35763 12.3407 5.54896 12.1494C5.54896 12.1494 5.64463 12.1494 5.64463 12.245H5.74029C5.93162 12.6277 6.21862 13.2973 6.21862 13.4886C6.21862 13.7756 6.02729 13.7756 5.64463 13.5843ZM7.07958 13.7756C6.88825 13.8713 6.60125 13.8713 6.40992 13.5843C6.31425 13.393 6.02729 12.6277 5.93162 12.3407C6.02729 12.3407 6.02729 12.3407 6.02729 12.245C6.31425 12.532 6.98391 13.0103 7.07958 13.2016C7.36657 13.4886 7.27091 13.68 7.07958 13.7756ZM7.27091 13.0103C7.07958 12.9147 6.50558 12.3407 6.21862 12.0537V11.958V11.8624C6.50558 11.8624 7.07958 11.8624 7.27091 11.958C7.55787 12.0537 7.65354 12.3407 7.65354 12.6277C7.65354 12.9147 7.55787 13.106 7.27091 13.0103Z" fill="#C4C6CC"/>
<path opacity="0.06" d="M5.83596 13.6799C4.688 13.1059 3.73138 11.6709 3.73138 10.523C3.73138 9.949 3.92268 9.56633 4.30534 9.375C3.82701 9.56633 3.54004 9.949 3.54004 10.6186C3.54004 11.7666 4.49667 13.2015 5.64463 13.7755C6.21862 14.0625 6.79258 14.0625 7.17524 13.8712C6.79258 14.0625 6.40992 13.9669 5.83596 13.6799Z" fill="black"/>
<path opacity="0.06" d="M8.51423 13.1057C8.51423 14.6363 7.27062 15.3059 5.74 14.5406C4.20938 13.7753 2.87012 11.8621 2.87012 10.2358C2.87012 8.60949 4.11375 8.03553 5.64433 8.80082C7.27062 9.66178 8.51423 11.5751 8.51423 13.1057Z" fill="black"/>
<path d="M31.8554 9.56629L26.7852 3.82652L19.1322 0L13.5837 0.478315L9.94853 0.191326L1.33887 4.49615V8.32267L2.39116 8.99233C2.86948 7.94005 4.20876 7.55738 5.64371 8.32267C7.36563 9.18367 8.70491 11.0969 8.99191 12.8189L16.645 16.741C16.8363 15.1148 18.2712 14.5408 19.9932 15.4018C21.7151 16.2627 23.1501 18.2716 23.3414 20.0892L27.1679 21.7155L37.3083 16.741V12.9145L31.8554 9.56629Z" fill="#CC291F"/>
<path d="M17.9844 8.80084L26.7854 4.30469L31.1859 9.37483L22.3849 13.7753L17.9844 8.80084Z" fill="#3399CC"/>
<path d="M30.8996 9.08789L22.0986 13.4884L22.3856 13.7754L31.1866 9.37489L30.8996 9.08789Z" fill="#2D3134"/>
<path opacity="0.15" d="M19.8975 7.84421L26.7852 4.30469L31.1857 9.37483L19.8975 7.84421Z" fill="black"/>
<path d="M14.3493 0.765506L17.2192 0.478516L9.47045 4.30502L6.50488 4.59202L14.3493 0.765506Z" fill="#3399CC"/>
<path opacity="0.39" d="M14.2536 1.91309L9.47045 4.30464L6.50488 4.59164L14.2536 1.91309Z" fill="white"/>
<path d="M37.3089 13.3926V15.1145L35.874 15.7842V15.0189C35.874 14.7319 35.9697 14.4449 36.161 14.1579C36.3523 13.9666 36.5436 13.7752 36.735 13.6796L37.3089 13.3926Z" fill="white"/>
<path d="M27.2637 18.463L28.316 17.9847C28.5073 17.8891 28.7943 17.8891 28.9856 18.0803C29.0813 18.176 29.1769 18.3673 29.1769 18.463V19.1327L27.2637 20.0893V18.463Z" fill="white"/>
<path d="M27.2635 18.4628L26.7852 18.1758V19.8977L27.2635 20.0891V18.4628Z" fill="#FFCC00"/>
<path opacity="0.39" d="M28.0945 18.6439C27.8943 18.8898 27.865 19.1973 28.0289 19.3307C28.1928 19.4641 28.4879 19.3729 28.688 19.1271C28.8882 18.8812 28.9175 18.5737 28.7536 18.4403C28.5897 18.3069 28.2946 18.3981 28.0945 18.6439Z" fill="#2D3134"/>
<path opacity="0.39" d="M27.7429 18.6293C27.5428 18.8752 27.5134 19.1826 27.6773 19.316C27.8412 19.4495 28.1364 19.3583 28.3365 19.1124C28.5366 18.8665 28.5659 18.5591 28.402 18.4257C28.2381 18.2923 27.943 18.3834 27.7429 18.6293Z" fill="#2D3134"/>
<path opacity="0.39" d="M36.4949 14.3026C36.2947 14.5485 36.2654 14.856 36.4293 14.9894C36.5932 15.1228 36.8883 15.0316 37.0884 14.7858C37.2886 14.5399 37.318 14.2324 37.1539 14.099C36.9901 13.9656 36.695 14.0568 36.4949 14.3026Z" fill="#2D3134"/>
<path opacity="0.39" d="M36.0456 14.5712C35.8455 14.817 35.8162 15.1245 35.9801 15.2579C36.144 15.3913 36.4391 15.3002 36.6392 15.0543C36.8393 14.8084 36.8687 14.501 36.7048 14.3676C36.5408 14.2341 36.2458 14.3253 36.0456 14.5712Z" fill="#2D3134"/>
<path d="M30.1338 17.5063L34.9169 15.1147V16.2627L30.1338 18.6543V17.5063Z" fill="#2D3134"/>
<path d="M1.91289 5.26164L1.43457 5.07031V6.21827L1.91289 6.50526V5.26164Z" fill="#FF9900"/>
<path d="M12.7236 9.85326L21.3333 14.1581L16.9328 8.99231L12.7236 6.8877V9.85326Z" fill="#3399CC"/>
<path d="M11.9583 6.60063L9.85364 5.54834L5.54883 6.21796L11.9583 9.47049V6.60063Z" fill="#3399CC"/>
<path opacity="0.15" d="M13.202 9.85326V7.17469L12.7236 6.8877V9.85326L21.3333 14.1581L20.9507 13.6798L13.202 9.85326Z" fill="black"/>
<path opacity="0.15" d="M6.02716 6.21796L9.94931 5.54834H9.85364L5.54883 6.21796L11.9583 9.47049V9.18353L6.02716 6.21796Z" fill="black"/>
<path opacity="0.06" d="M22.2891 14.3494L17.219 8.60965L9.27894 4.78313L4.11313 5.26146L1.43457 4.5918V8.41832L2.48687 9.08798C2.86952 7.94003 4.2088 7.55737 5.64375 8.32266C7.3657 9.18365 8.70498 11.0969 8.99194 12.8188L9.18327 12.9145L16.645 16.8367C16.8363 15.2104 18.2713 14.6364 19.9932 15.4974C21.7151 16.3584 23.1501 18.3673 23.3414 20.1849L27.1679 21.8111V17.9847L22.2891 14.3494Z" fill="black"/>
<path d="M1.24414 7.46191L2.20077 7.94024V9.37519L1.24414 8.89687V7.46191Z" fill="#CC291F"/>
<path opacity="0.39" d="M1.24414 7.46191L2.20077 7.94024V9.37519L1.24414 8.89687V7.46191Z" fill="black"/>
<path d="M2.20077 7.94013V9.37508L2.39209 9.08809V7.65313L1.43546 7.1748L1.24414 7.4618L2.20077 7.94013Z" fill="#CC291F"/>
<path d="M27.0728 22.0027L38.0742 16.5499V15.5933L27.0728 21.0461L26.1162 20.5677V21.5244L27.0728 22.0027Z" fill="#CC291F"/>
<path opacity="0.39" d="M27.0728 22.0027L38.0742 16.5499V15.5933L27.0728 21.0461L26.1162 20.5677V21.5244L27.0728 22.0027Z" fill="black"/>
<path d="M27.0728 20.5676L37.5957 15.3062L38.0742 15.5931L27.0728 21.0459L26.1162 20.5676L26.5945 20.3763L27.0728 20.5676Z" fill="#CC291F"/>
<path opacity="0.39" d="M27.2637 18.4629L29.1769 19.1326L27.2637 20.0892V18.4629Z" fill="white"/>
<path opacity="0.39" d="M37.3089 13.3926V15.1145L35.874 15.7842L37.3089 13.3926Z" fill="white"/>
<path d="M20.8542 13.8709L19.8975 12.5316C19.7062 12.3403 19.5149 12.2446 19.2279 12.2446L18.0799 12.3403C17.8886 12.3403 17.6973 12.5316 17.6973 12.723C17.6973 12.9143 17.8886 13.1056 18.0799 13.1056L19.4192 13.2969L20.8542 13.8709Z" fill="#CC291F"/>
<path opacity="0.39" d="M20.8542 13.8709L19.8975 12.5316C19.7062 12.3403 19.5149 12.2446 19.2279 12.2446L18.0799 12.3403C17.8886 12.3403 17.6973 12.5316 17.6973 12.723C17.6973 12.9143 17.8886 13.1056 18.0799 13.1056L19.4192 13.2969L20.8542 13.8709Z" fill="black"/>
<path d="M24.5859 11.3837C24.5859 11.4794 24.6816 11.4794 24.7772 11.4794L29.0821 10.3314C29.1778 10.3314 29.1778 10.2358 29.1778 10.1401C29.1778 10.0444 29.0821 10.0444 28.9864 10.0444L24.6816 11.1924C24.5859 11.1924 24.5859 11.2881 24.5859 11.3837Z" fill="black"/>
<path d="M22.1943 12.6274C22.1943 12.723 22.29 12.723 22.3856 12.723L26.6905 11.5751C26.7862 11.5751 26.7862 11.4794 26.7862 11.3838C26.7862 11.2881 26.6905 11.2881 26.5948 11.2881L22.29 12.436C22.1943 12.436 22.1943 12.5317 22.1943 12.6274Z" fill="black"/>
<path opacity="0.5" d="M29.9427 9.9488C30.0383 9.3748 29.9427 8.80085 29.56 8.51385C28.8904 8.03552 27.838 8.32252 27.0728 9.27914C26.4031 10.0445 26.2118 11.0011 26.5944 11.5751L27.2641 11.2881C26.9771 10.9054 27.0728 10.1401 27.5511 9.56613C28.125 8.89651 28.8904 8.60951 29.3687 8.99218C29.6557 9.18351 29.6557 9.6618 29.4643 10.1401L29.9427 9.9488Z" fill="black"/>
<path opacity="0.39" d="M31.8562 9.56643L22.2899 14.3496L17.2197 8.60981L26.786 3.82666L31.8562 9.56643Z" fill="black"/>
<path opacity="0.39" d="M37.3083 12.9146L27.2637 17.9847V20.3763L37.3083 15.4018V12.9146Z" fill="black"/>
</g>
<defs>
<clipPath id="clip0_1_75358">
<rect width="38.6079" height="24.8724" fill="white"/>
</clipPath>
</defs>
</svg>
