<svg width="28" height="27" viewBox="0 0 28 27" fill="none" xmlns="http://www.w3.org/2000/svg">
<g clip-path="url(#clip0_1_75296)">
<path opacity="0.3" d="M0 18.0658L8.66913 13.1025L27.1324 22.3672L17.8676 26.9996L0 18.0658Z" fill="black"/>
<path d="M1.52246 15.8825V18.3972L3.17687 17.5369V15.0884L1.52246 15.8825Z" fill="#2D3134"/>
<path opacity="0.39" d="M1.52246 15.8825V18.3972L3.17687 17.5369V15.0884L1.52246 15.8825Z" fill="black"/>
<path d="M15.3527 21.1104C14.8894 20.8457 14.4262 20.8457 14.0953 20.9781L13.1688 21.4413C12.7718 21.5736 12.5732 21.9707 12.5732 22.5001C12.5732 23.4928 13.4335 24.7501 14.4262 25.2795C14.9556 25.5442 15.4188 25.5442 15.7497 25.4119C15.7497 25.4119 16.6762 24.9486 16.7424 24.8825C17.0733 24.6839 17.2056 24.3531 17.2056 23.8898C17.2056 22.831 16.3453 21.5736 15.3527 21.1104Z" fill="#2D3134"/>
<path opacity="0.39" d="M15.75 25.3456C15.8824 25.2794 16.6765 24.8823 16.7426 24.8823C17.0735 24.6838 17.2059 24.3529 17.2059 23.8897C17.2059 23.4926 17.0735 23.0294 16.875 22.6323L15.9485 23.0955C16.1471 23.4926 16.2794 23.9559 16.2794 24.3529C16.2794 24.8161 16.0809 25.2132 15.75 25.3456Z" fill="black"/>
<path d="M15.8165 24.0882C15.8165 24.8823 15.2209 25.147 14.4268 24.7499C13.6327 24.3529 13.0371 23.4264 13.0371 22.6323C13.0371 21.8381 13.6327 21.5735 14.4268 21.9705C15.2209 22.3676 15.8165 23.294 15.8165 24.0882Z" fill="#999999"/>
<path opacity="0.15" d="M14.5592 24.7502C13.7651 24.3531 13.1695 23.4266 13.1695 22.6325C13.1695 22.2354 13.3018 21.9707 13.5665 21.8384C13.2356 21.9045 13.0371 22.2354 13.0371 22.6325C13.0371 23.4266 13.6327 24.3531 14.4268 24.7502C14.8239 24.9487 15.1548 24.9487 15.4195 24.8163C15.1548 24.9487 14.89 24.8825 14.5592 24.7502Z" fill="black"/>
<path d="M15.155 23.625C15.155 23.9558 14.8903 24.0882 14.5595 23.8897C14.2286 23.6911 13.9639 23.3602 13.9639 23.0294C13.9639 22.6985 14.2286 22.5661 14.5595 22.7647C14.8903 22.9632 15.155 23.2941 15.155 23.625Z" fill="#2D3134"/>
<path opacity="0.39" d="M15.155 23.625C15.155 23.9558 14.8903 24.0882 14.5595 23.8897C14.2286 23.6911 13.9639 23.3602 13.9639 23.0294C13.9639 22.6985 14.2286 22.5661 14.5595 22.7647C14.8903 22.9632 15.155 23.2941 15.155 23.625Z" fill="black"/>
<path d="M15.0222 23.6914C15.0222 24.0222 14.7575 24.1546 14.4266 23.9561C14.0957 23.8237 13.8311 23.4267 13.8311 23.0958C13.8311 22.7649 14.0957 22.6325 14.4266 22.8311C14.7575 22.9634 15.0222 23.3605 15.0222 23.6914Z" fill="#2D3134"/>
<path opacity="0.06" d="M16.2791 24.353C16.2791 25.3456 15.4188 25.8088 14.4262 25.2794C13.4335 24.75 12.5732 23.4926 12.5732 22.5C12.5732 21.5073 13.4335 21.0441 14.4262 21.5735C15.4188 22.0368 16.2791 23.2941 16.2791 24.353Z" fill="black"/>
<path d="M4.43371 15.6172C3.97048 15.3525 3.50723 15.3525 3.17637 15.4849L2.24989 15.9481C1.919 16.0805 1.6543 16.4775 1.6543 17.0069C1.6543 17.9996 2.51459 19.257 3.50723 19.7863C4.03665 20.0511 4.49987 20.0511 4.83077 19.9187C4.83077 19.9187 5.75725 19.4555 5.82341 19.3893C6.15431 19.1908 6.28664 18.8599 6.28664 18.3966C6.28664 17.404 5.42636 16.1466 4.43371 15.6172Z" fill="#2D3134"/>
<path opacity="0.39" d="M4.83105 19.9193C4.96342 19.8531 5.75754 19.456 5.8237 19.456C6.15459 19.2575 6.28693 18.9266 6.28693 18.4634C6.28693 18.0663 6.15459 17.6031 5.95607 17.2061L5.02958 17.6693C5.22811 18.0663 5.36048 18.5296 5.36048 18.9266C5.36048 19.3899 5.16195 19.7207 4.83105 19.9193Z" fill="black"/>
<path d="M4.89758 18.6619C4.89758 19.456 4.30199 19.7207 3.50787 19.3237C2.71375 18.9266 2.11816 18.0001 2.11816 17.206C2.11816 16.4119 2.71375 16.1472 3.50787 16.5442C4.30199 16.9413 4.89758 17.8677 4.89758 18.6619Z" fill="#999999"/>
<path opacity="0.15" d="M3.64024 19.2574C2.84611 18.8604 2.25052 17.9339 2.25052 17.1398C2.25052 16.7428 2.38287 16.478 2.64758 16.3457C2.31669 16.4119 2.11816 16.7428 2.11816 17.1398C2.11816 17.9339 2.71375 18.8604 3.50787 19.2574C3.90493 19.456 4.23583 19.456 4.50052 19.3236C4.23583 19.456 3.9711 19.456 3.64024 19.2574Z" fill="black"/>
<path d="M4.23513 18.1982C4.23513 18.5291 3.97043 18.6614 3.63954 18.4629C3.30865 18.3306 3.04395 17.9335 3.04395 17.6026C3.04395 17.2717 3.30865 17.1394 3.63954 17.3379C3.97043 17.4703 4.23513 17.8673 4.23513 18.1982Z" fill="#2D3134"/>
<path opacity="0.39" d="M4.23513 18.1982C4.23513 18.5291 3.97043 18.6614 3.63954 18.4629C3.30865 18.3306 3.04395 17.9335 3.04395 17.6026C3.04395 17.2717 3.30865 17.1394 3.63954 17.3379C3.97043 17.4703 4.23513 17.8673 4.23513 18.1982Z" fill="black"/>
<path d="M4.10329 18.1982C4.10329 18.5291 3.83859 18.6614 3.5077 18.4629C3.17682 18.2644 2.91211 17.9335 2.91211 17.6026C2.91211 17.2717 3.17682 17.1394 3.5077 17.3379C3.83859 17.5364 4.10329 17.9335 4.10329 18.1982Z" fill="#2D3134"/>
<path opacity="0.06" d="M5.36019 18.8603C5.36019 19.8529 4.49987 20.3162 3.50723 19.7867C2.51459 19.2573 1.6543 18 1.6543 17.0073C1.6543 16.0147 2.51459 15.5515 3.50723 16.0809C4.49987 16.6103 5.36019 17.8676 5.36019 18.8603Z" fill="black"/>
<path d="M9.26472 0L0 4.63234V14.7573L11.9118 20.7132L21.1765 15.8824V5.95588L9.26472 0Z" fill="#FF9900"/>
<path d="M0 13.897V15.2205L11.9118 21.1764V19.8529L0 13.897Z" fill="#2D3134"/>
<path d="M21.1768 15.2207V16.5442L11.9121 21.1766V19.853L21.1768 15.2207Z" fill="#2D3134"/>
<path opacity="0.06" d="M0 4.63281V15.2211L11.9118 21.177V10.5887L0 4.63281Z" fill="black"/>
<path opacity="0.39" d="M21.1768 5.95557V16.5438L11.9121 21.1762V10.5879L21.1768 5.95557Z" fill="black"/>
<path d="M25.8085 11.2499L21.838 9.26465L12.5732 13.897V21.3749C12.5732 21.5735 12.8379 21.7058 13.0365 21.5735C13.8306 20.9117 15.2203 21.3749 16.2129 22.5661C16.8085 23.294 17.0733 24.0882 17.0733 24.7499L17.8674 25.147L27.1321 20.5146V15.2205L25.8085 11.2499Z" fill="#E5E5E5"/>
<path d="M18.1324 19.5223L17.0074 16.2134C16.9412 16.0811 17.0074 16.0149 17.1398 15.9487L25.4118 11.8458C25.5442 11.7796 25.6765 11.8458 25.7427 11.9781L26.8015 15.0884C26.8677 15.2208 26.8015 15.2869 26.6692 15.3531L18.4633 19.6546C18.3309 19.7208 18.1324 19.6546 18.1324 19.5223Z" fill="#3399CC"/>
<path opacity="0.15" d="M19.6543 14.6914L25.3455 11.8458C25.4778 11.7796 25.6102 11.8458 25.6763 11.9781L26.669 14.8899L19.6543 14.6914Z" fill="black"/>
<path d="M26.7353 15.0882L26.6691 14.8896C26.6691 15.022 26.6691 15.0882 26.5368 15.1543L18.3309 19.4558C18.1985 19.522 18.0662 19.4558 18 19.3235L18.0662 19.522C18.1324 19.6544 18.2647 19.7205 18.3971 19.6544L26.6029 15.3529C26.7353 15.2867 26.8015 15.2205 26.7353 15.0882Z" fill="#2D3134"/>
<path d="M20.1836 19.1912L24.8159 16.875V20.7132L20.1836 23.0294V19.1912Z" fill="white"/>
<path d="M20.5146 22.4999L24.4852 20.5146V17.4043L20.5146 19.3896V22.4999Z" fill="#2D3134"/>
<path d="M27.1319 20.5144V19.1909L17.8672 23.8233V25.1468L27.1319 20.5144Z" fill="#2D3134"/>
<path d="M16.5439 24.4852L17.8675 25.1469V23.8234L16.5439 23.1616V24.4852Z" fill="#2D3134"/>
<path d="M20.5146 22.4999V23.1617L24.4852 21.1764V20.5146L20.5146 22.4999Z" fill="white"/>
<path d="M16.2132 16.0812L13.6985 14.8238C13.6324 14.7576 13.5 14.8238 13.5 14.9562V16.9415C13.5 17.0738 13.5662 17.2062 13.6985 17.2062L14.5588 17.6694C14.625 17.7356 14.6912 17.7356 14.7573 17.8017L15.6177 18.8606C15.6177 18.8606 15.6177 18.8606 15.6838 18.8606L17.1397 19.5885C17.2059 19.6547 17.3382 19.5223 17.2721 19.4562L16.147 16.1473C16.2794 16.1473 16.2794 16.0812 16.2132 16.0812Z" fill="#3399CC"/>
<path opacity="0.15" d="M17.4046 19.39L16.0811 18.7282C16.0811 18.7282 16.0811 18.7282 16.0149 18.7282L15.1546 17.6694C15.0885 17.6032 15.0223 17.5371 14.9561 17.5371L14.0958 17.0738C13.9635 17.0076 13.8973 16.9415 13.8973 16.8091V14.89L13.7649 14.8238C13.6988 14.7576 13.5664 14.8238 13.5664 14.9562V16.9415C13.5664 17.0738 13.6326 17.2062 13.7649 17.2062L14.6252 17.6694C14.6914 17.7356 14.7576 17.7356 14.8237 17.8017L15.6841 18.8606C15.6841 18.8606 15.6841 18.8606 15.7502 18.8606L17.2061 19.5885C17.3385 19.6547 17.4046 19.5885 17.4046 19.39Z" fill="black"/>
<path d="M17.868 22.5V23.8236L17.5371 23.6912V22.3677L17.868 22.5Z" fill="#FFCC00"/>
<path d="M20.5146 19.853V20.0515L24.4852 18.0662V17.8677L20.5146 19.853Z" fill="#E5E5E5"/>
<path d="M20.5146 20.5151V20.7136L24.4852 18.7283V18.5298L20.5146 20.5151Z" fill="#E5E5E5"/>
<path d="M20.5146 21.1762V21.3747L24.4852 19.3894V19.1909L20.5146 21.1762Z" fill="#E5E5E5"/>
<path d="M20.5146 21.8378V22.0364L24.4852 20.0511V19.8525L20.5146 21.8378Z" fill="#E5E5E5"/>
<path opacity="0.5" d="M13.5664 18.0664V18.3973L14.2282 18.7282V18.3973L13.5664 18.0664Z" fill="#2D3134"/>
<path opacity="0.5" d="M14.2282 18.8602L13.5664 18.5293V18.397L14.2282 18.7279V18.8602Z" fill="white"/>
<path d="M22.8312 15.1546C22.765 15.0884 22.6989 15.0884 22.6327 15.1546L20.118 18.0002C20.0518 18.0664 20.0518 18.1326 20.118 18.1987C20.1841 18.2649 20.2503 18.2649 20.3165 18.1987L20.9783 17.4046V18.0664H21.1768V17.2061L22.8312 15.287C22.8974 15.287 22.8974 15.1546 22.8312 15.1546Z" fill="#2D3134"/>
<path d="M25.2131 13.8309C25.1469 13.7647 25.0807 13.7647 25.0145 13.8309L22.4998 16.6765C22.4337 16.7427 22.4337 16.8088 22.4998 16.875C22.566 16.9412 22.6322 16.9412 22.6983 16.875L23.2939 16.2132V16.9412H23.4925V16.0147L25.2131 14.0294C25.2792 13.9632 25.2792 13.897 25.2131 13.8309Z" fill="#2D3134"/>
<path d="M25.8086 19.853L27.1321 19.1912V17.8677L26.4703 18.1986C26.0733 18.3971 25.8086 18.7942 25.8086 19.2574V19.853Z" fill="white"/>
<path opacity="0.3" d="M26.0564 18.6919C25.8718 18.9186 25.837 19.196 25.9788 19.3113C26.1205 19.4267 26.3851 19.3364 26.5696 19.1096C26.7542 18.8829 26.7889 18.6055 26.6472 18.4901C26.5055 18.3748 26.241 18.4651 26.0564 18.6919Z" fill="#2D3134"/>
<path opacity="0.3" d="M26.3874 18.6919C26.2029 18.9186 26.1681 19.196 26.3098 19.3113C26.4516 19.4267 26.7161 19.3364 26.9007 19.1096C27.0853 18.8829 27.12 18.6055 26.9783 18.4901C26.8365 18.3748 26.572 18.4651 26.3874 18.6919Z" fill="#2D3134"/>
<path opacity="0.3" d="M25.8086 19.853L27.1321 19.1912V17.8677L25.8086 19.853Z" fill="white"/>
<path d="M17.8672 23.8238L19.1907 23.162V22.5665C19.1907 22.2356 18.8598 22.037 18.5289 22.1694L17.8672 22.5003V23.8238Z" fill="white"/>
<path opacity="0.3" d="M18.446 22.6626C18.2614 22.8893 18.2267 23.1667 18.3684 23.2821C18.5102 23.3974 18.7747 23.3071 18.9593 23.0803C19.1439 22.8536 19.1786 22.5762 19.0369 22.4608C18.8951 22.3455 18.6306 22.4358 18.446 22.6626Z" fill="#2D3134"/>
<path opacity="0.3" d="M18.115 22.6626C17.9304 22.8893 17.8956 23.1667 18.0374 23.2821C18.1791 23.3974 18.4436 23.3071 18.6282 23.0803C18.8128 22.8536 18.8475 22.5762 18.7058 22.4608C18.5641 22.3455 18.2996 22.4358 18.115 22.6626Z" fill="#2D3134"/>
<path opacity="0.3" d="M17.8672 23.8235L19.1907 23.1618L17.8672 22.5V23.8235Z" fill="white"/>
<path opacity="0.06" d="M16.5438 15.8823L12.5732 13.897V21.3749C12.5732 21.5735 12.8379 21.7058 13.0365 21.5735C13.8306 20.9117 15.2203 21.3749 16.2129 22.5661C16.4115 22.7646 16.5438 22.9632 16.61 23.2279L16.5438 23.1617V24.4852L17.8674 25.147V23.8234V19.8529L16.5438 15.8823Z" fill="black"/>
<path opacity="0.39" d="M25.8087 11.25L16.5439 15.8823L17.8675 19.8529V25.1471L27.1322 20.5147V15.2206L25.8087 11.25Z" fill="black"/>
</g>
<defs>
<clipPath id="clip0_1_75296">
<rect width="27.3176" height="27" fill="white"/>
</clipPath>
</defs>
</svg>
