<svg width="20" height="25" viewBox="0 0 20 25" fill="none" xmlns="http://www.w3.org/2000/svg">
<g clip-path="url(#clip0_1_75351)">
<path d="M19.9868 12.5225C20.0643 13.1946 19.7972 13.8495 19.2716 14.2717L13.8948 18.5628L10 21.7855L7.70795 23.6811C7.33742 23.9827 6.9066 24.1292 6.46715 24.1292C6.05353 24.1292 5.63995 23.9913 5.28666 23.7156C4.55422 23.1469 4.32159 22.2077 4.70931 21.3632L7.13063 16.176C7.1651 16.107 7.15649 16.0467 7.13923 16.0122C7.13063 15.9692 7.09616 15.9175 7.02723 15.8916L1.11615 13.1343C0.504364 12.8499 0.0907625 12.2812 0.013212 11.6091C-0.0643386 10.937 0.20278 10.2821 0.7284 9.85992L6.10523 5.56877L10 2.34612L12.2921 0.450441C13.0072 -0.135497 13.9809 -0.15273 14.7133 0.415975C15.4458 0.984679 15.6784 1.9239 15.2907 2.76833L12.8694 7.95562C12.8349 8.02455 12.8435 8.08485 12.8607 8.11932C12.8694 8.16241 12.9038 8.21411 12.9728 8.23997L18.8838 10.9973C19.4956 11.2817 19.9092 11.8504 19.9868 12.5225Z" fill="#FBC34E"/>
<g opacity="0.05">
<path d="M19.9868 12.5225C20.0643 13.1946 19.7972 13.8495 19.2716 14.2717L13.8948 18.5628L10 21.7855V2.34612L12.2921 0.450441C13.0072 -0.135497 13.9809 -0.15273 14.7133 0.415975C15.4458 0.984679 15.6784 1.9239 15.2907 2.76833L12.8694 7.95562C12.8349 8.02455 12.8435 8.08485 12.8608 8.11932C12.8694 8.16241 12.9038 8.21411 12.9728 8.23997L18.8838 10.9973C19.4956 11.2817 19.9092 11.8504 19.9868 12.5225Z" fill="black"/>
</g>
</g>
<defs>
<clipPath id="clip0_1_75351">
<rect width="20" height="24.3836" fill="white"/>
</clipPath>
</defs>
</svg>
