<svg width="28" height="28" viewBox="0 0 28 28" fill="none" xmlns="http://www.w3.org/2000/svg">
<g clip-path="url(#clip0_1_75062)">
<path d="M18.0139 0C20.7806 0 22.1639 0 23.6702 0.461108C25.2995 1.04518 26.5905 2.33628 27.1746 3.96554C27.6665 5.47183 27.6665 6.88587 27.6665 9.65251V18.0139C27.6665 20.7806 27.6665 22.1639 27.2053 23.6702C26.6213 25.2995 25.3302 26.5905 23.7009 27.1746C22.1946 27.6665 20.7806 27.6665 18.0139 27.6665H9.65251C6.88587 27.6665 5.50255 27.6665 3.99626 27.2053C2.36702 26.5905 1.07592 25.3302 0.491846 23.6702C-4.58386e-08 22.1946 0 20.8113 0 18.0139V9.65251C0 6.88587 0 5.50255 0.461108 3.99626C1.07592 2.36702 2.36702 1.07592 3.99626 0.491846C5.47183 -4.58386e-08 6.88587 0 9.65251 0H18.0139Z" fill="url(#paint0_linear_1_75062)"/>
<path d="M22.7175 19.8277C22.6867 19.8277 22.6252 19.8584 22.5945 19.8584H5.07241C5.04169 19.8584 4.9802 19.8584 4.94948 19.8277L10.4213 14.3559L11.5894 15.5548C12.8498 16.8459 14.8479 16.8459 16.1083 15.5548L17.2764 14.3559L22.7175 19.8277ZM23.0556 19.2436V8.39222C23.0556 8.33073 23.0556 8.26925 23.0249 8.23852C22.9942 8.30001 17.5838 13.8948 17.5838 13.8948L23.0556 19.3666C23.0556 19.3051 23.0556 19.2744 23.0556 19.2436ZM4.61133 19.2744V8.4537C4.61133 8.39222 4.61133 8.33073 4.64205 8.30001C4.67281 8.36149 10.0831 13.9563 10.0831 13.9563L4.64205 19.3973C4.61133 19.3666 4.61133 19.3051 4.61133 19.2744ZM22.7482 7.86961L15.7701 15.0014C14.6942 16.0774 12.9727 16.0774 11.9276 15.0014L4.94948 7.86961C4.91872 7.83889 22.7482 7.86961 22.7482 7.86961Z" fill="white"/>
</g>
<defs>
<linearGradient id="paint0_linear_1_75062" x1="13.8326" y1="0.00860734" x2="13.8326" y2="27.6658" gradientUnits="userSpaceOnUse">
<stop stop-color="#1E51EE"/>
<stop offset="1" stop-color="#19E6FF"/>
</linearGradient>
<clipPath id="clip0_1_75062">
<rect width="27.6856" height="27.6856" fill="white"/>
</clipPath>
</defs>
</svg>
