<svg width="63" height="78" viewBox="0 0 63 78" fill="none" xmlns="http://www.w3.org/2000/svg">
<path d="M54.6 77.9998H7.8C5.73131 77.9998 3.74735 77.1781 2.28457 75.7153C0.821784 74.2525 0 72.2685 0 70.1998V41.5998C0 39.5311 0.821784 37.5472 2.28457 36.0844C3.74735 34.6216 5.73131 33.7998 7.8 33.7998H54.6C56.6687 33.7998 58.6527 34.6216 60.1154 36.0844C61.5782 37.5472 62.4 39.5311 62.4 41.5998V70.1998C62.4 72.2685 61.5782 74.2525 60.1154 75.7153C58.6527 77.1781 56.6687 77.9998 54.6 77.9998ZM7.8 38.9998C7.11044 38.9998 6.44912 39.2738 5.96152 39.7614C5.47393 40.249 5.2 40.9103 5.2 41.5998V70.1998C5.2 70.8894 5.47393 71.5507 5.96152 72.0383C6.44912 72.5259 7.11044 72.7998 7.8 72.7998H54.6C55.2896 72.7998 55.9509 72.5259 56.4385 72.0383C56.9261 71.5507 57.2 70.8894 57.2 70.1998V41.5998C57.2 40.9103 56.9261 40.249 56.4385 39.7614C55.9509 39.2738 55.2896 38.9998 54.6 38.9998H7.8Z" fill="#101820"/>
<path d="M52.0018 39H10.4018C9.71219 39 9.05088 38.7261 8.56328 38.2385C8.07569 37.7509 7.80176 37.0896 7.80176 36.4V20.8C7.80176 15.2835 9.99318 9.99294 13.8939 6.09218C17.7947 2.19142 23.0853 0 28.6018 0H33.8018C39.3183 0 44.6088 2.19142 48.5096 6.09218C52.4103 9.99294 54.6018 15.2835 54.6018 20.8V36.4C54.6018 37.0896 54.3278 37.7509 53.8402 38.2385C53.3526 38.7261 52.6913 39 52.0018 39ZM13.0018 33.8H49.4018V20.8C49.4018 16.6626 47.7582 12.6947 44.8326 9.76913C41.9071 6.84357 37.9391 5.2 33.8018 5.2H28.6018C24.4644 5.2 20.4965 6.84357 17.5709 9.76913C14.6453 12.6947 13.0018 16.6626 13.0018 20.8V33.8Z" fill="#101820"/>
<path d="M31.1961 57.2015C30.1676 57.2015 29.1623 56.8965 28.3071 56.3251C27.452 55.7538 26.7855 54.9416 26.3919 53.9915C25.9983 53.0413 25.8954 51.9957 26.096 50.987C26.2967 49.9783 26.7919 49.0518 27.5191 48.3245C28.2464 47.5973 29.1729 47.1021 30.1816 46.9014C31.1903 46.7008 32.2359 46.8037 33.1861 47.1973C34.1362 47.5909 34.9484 48.2574 35.5197 49.1125C36.0911 49.9677 36.3961 50.973 36.3961 52.0015C36.3961 53.3806 35.8482 54.7033 34.8731 55.6785C33.8979 56.6536 32.5752 57.2015 31.1961 57.2015Z" fill="#101820"/>
<path d="M33.7967 54.598H28.5967V64.998H33.7967V54.598Z" fill="#101820"/>
</svg>
