<svg width="27" height="28" viewBox="0 0 27 28" fill="none" xmlns="http://www.w3.org/2000/svg">
<path d="M8.39552 14.1198C9.49527 16.3909 11.3317 18.2226 13.6057 19.3165C13.7734 19.396 13.9589 19.4303 14.144 19.4163C14.329 19.4022 14.5072 19.3402 14.661 19.2364L18.0009 17.0054C18.1485 16.9053 18.3189 16.8442 18.4965 16.8279C18.6741 16.8115 18.8528 16.8404 19.0162 16.9119L25.2684 19.5971C25.4821 19.686 25.6606 19.8427 25.7765 20.0431C25.8923 20.2435 25.9391 20.4764 25.9097 20.7059C25.7115 22.2526 24.9565 23.6741 23.7861 24.7044C22.6157 25.7346 21.1099 26.3031 19.5506 26.3035C14.7319 26.3035 10.1106 24.3893 6.70334 20.982C3.29604 17.5747 1.38184 12.9534 1.38184 8.13478C1.38218 6.57543 1.9507 5.06969 2.98099 3.89924C4.01128 2.72879 5.43273 1.97385 6.97939 1.77569C7.20896 1.7462 7.44188 1.793 7.64225 1.90887C7.84259 2.02474 7.99931 2.20326 8.08823 2.41694L10.7735 8.68249C10.8433 8.84326 10.8725 9.01874 10.8586 9.19347C10.8446 9.3682 10.7878 9.53681 10.6933 9.68444L8.46229 13.0777C8.363 13.2312 8.3047 13.4076 8.29299 13.59C8.2813 13.7724 8.31659 13.9548 8.39552 14.1198Z" stroke="#28A745" stroke-width="2.1375" stroke-linecap="round" stroke-linejoin="round"/>
</svg>
