<svg width="29" height="29" viewBox="0 0 29 29" fill="none" xmlns="http://www.w3.org/2000/svg">
<g clip-path="url(#clip0_1_75058)">
<path d="M22.8868 7.46444C23.9089 7.46444 24.7374 6.6359 24.7374 5.61382C24.7374 4.59174 23.9089 3.76318 22.8868 3.76318C21.8647 3.76318 21.0361 4.59174 21.0361 5.61382C21.0361 6.6359 21.8647 7.46444 22.8868 7.46444Z" stroke="black" stroke-width="1.23376" stroke-miterlimit="10" stroke-linecap="round"/>
<path d="M27.8216 2.22091C27.8216 1.369 27.1313 0.678711 26.2794 0.678711C26.1832 0.678711 17.1026 0.679946 17.1026 0.679946C16.2822 0.679946 15.4969 0.636763 15.0417 1.09202L1.02062 15.1125C0.564743 15.5677 0.564743 16.3068 1.02062 16.762L11.7383 27.4796C12.1935 27.9349 12.9326 27.9349 13.3878 27.4796L27.4082 13.4586C27.8635 13.0039 27.8203 12.2372 27.8203 11.3982C27.8203 11.3982 27.8216 2.31714 27.8216 2.22091Z" stroke="black" stroke-width="1.23376" stroke-miterlimit="10" stroke-linecap="round"/>
<path d="M10.6164 15.7581C10.62 16.2886 10.7909 16.7914 11.1284 17.2638L13.8161 14.5762C13.5459 14.1301 13.3331 13.7248 13.1777 13.3596C13.021 12.9932 12.9309 12.6527 12.9031 12.3344C12.8766 12.0167 12.9272 11.7126 13.0561 11.422C13.1844 11.1308 13.3972 10.8366 13.6946 10.5387C13.9987 10.2345 14.3318 10.01 14.6933 9.86443C15.0548 9.71881 15.4218 9.646 15.7938 9.646C16.1658 9.646 16.5322 9.7182 16.8943 9.86443C17.2559 10.0094 17.592 10.2179 17.9036 10.488L18.5729 9.81876L19.1306 10.377L18.4508 11.0568C18.9306 11.6719 19.1639 12.3103 19.1509 12.9728C19.1373 13.6354 18.9005 14.3325 18.4409 15.0622L17.5791 14.2004C18.1127 13.3954 18.1269 12.6249 17.6198 11.8884L15.1245 14.3836L15.5705 15.1536C15.6723 15.3232 15.7716 15.5416 15.8704 15.8086C15.9678 16.0751 16.027 16.3675 16.0474 16.6858C16.0678 17.0029 16.0258 17.333 15.9209 17.6747C15.8161 18.0164 15.6075 18.3422 15.2966 18.6531C14.9653 18.9844 14.6156 19.2231 14.2467 19.368C13.8784 19.5136 13.5028 19.5815 13.1215 19.571C12.739 19.5605 12.359 19.4748 11.9796 19.3125C11.6015 19.1497 11.2363 18.9202 10.8847 18.6235L10.0532 19.455L9.49491 18.8974L10.3264 18.0652C9.71816 17.3212 9.41531 16.5489 9.41898 15.7476C9.4221 14.9462 9.75209 14.1635 10.4079 13.3991L11.2696 14.2609C10.8316 14.7285 10.6133 15.2276 10.6164 15.7581ZM12.3103 18.2435C12.5238 18.3483 12.7403 18.4076 12.9649 18.4205C13.1875 18.4341 13.4108 18.3934 13.6341 18.299C13.8568 18.2046 14.077 18.0492 14.2936 17.8326C14.4885 17.6364 14.6193 17.4384 14.6841 17.2386C14.7482 17.0393 14.7698 16.8351 14.7494 16.6254C14.7291 16.4157 14.6693 16.1979 14.5718 15.9709C14.4743 15.7439 14.3602 15.5132 14.2319 15.2769L11.6866 17.8222C11.889 17.9973 12.0975 18.1386 12.3103 18.2435ZM15.916 10.8237C15.4904 10.7965 15.0838 10.9754 14.6989 11.3609C14.5231 11.5368 14.4015 11.7162 14.3337 11.8989C14.2658 12.0808 14.2424 12.2671 14.2621 12.4559C14.2825 12.6459 14.3331 12.8415 14.4145 13.0444C14.4959 13.2474 14.5971 13.4571 14.7186 13.673L17.0924 11.2999C16.7334 11.0093 16.3422 10.8502 15.916 10.8237Z" fill="black"/>
</g>
<defs>
<clipPath id="clip0_1_75058">
<rect width="28.5" height="28.5" fill="white"/>
</clipPath>
</defs>
</svg>
