<svg width="27" height="27" viewBox="0 0 27 27" fill="none" xmlns="http://www.w3.org/2000/svg">
<g clip-path="url(#clip0_1_75089)">
<path d="M13.3821 0.270508C6.07827 0.270508 0.142578 6.20621 0.142578 13.51C0.142578 20.8137 6.07827 26.7494 13.3821 26.7494C20.6858 26.7494 26.6215 20.8137 26.6215 13.51C26.6215 6.20621 20.6858 0.270508 13.3821 0.270508ZM13.3821 24.5429C7.29189 24.5429 2.34916 19.6001 2.34916 13.51C2.34916 7.41983 7.29189 2.47709 13.3821 2.47709C19.4722 2.47709 24.4149 7.41983 24.4149 13.51C24.4149 19.6001 19.4722 24.5429 13.3821 24.5429Z" fill="black"/>
<path d="M13.3826 10.9727C12.7647 10.9727 12.2793 11.4581 12.2793 12.076V19.5783C12.2793 20.1962 12.7647 20.6816 13.3826 20.6816C14.0004 20.6816 14.4859 20.1962 14.4859 19.5783V12.076C14.4859 11.4802 14.0004 10.9727 13.3826 10.9727Z" fill="black"/>
<path d="M13.4046 6.44909C12.8309 6.40496 12.3013 7.00072 12.2793 7.59649C12.2793 7.61857 12.2793 7.75097 12.2793 7.77302C12.2793 8.36879 12.7427 8.81011 13.3605 8.83219H13.3826C13.9783 8.83219 14.4638 8.3026 14.4859 7.72889C14.4859 7.70684 14.4859 7.48618 14.4859 7.48618C14.4859 6.84628 14.0225 6.44909 13.4046 6.44909Z" fill="black"/>
</g>
<defs>
<clipPath id="clip0_1_75089">
<rect width="26.8726" height="26.8726" fill="white"/>
</clipPath>
</defs>
</svg>
