<svg width="28" height="28" viewBox="0 0 28 28" fill="none" xmlns="http://www.w3.org/2000/svg">
<g clip-path="url(#clip0_1_75065)">
<path d="M20.2235 16.8709C21.3049 15.1694 21.9394 13.1507 21.9394 10.9805C21.9394 4.91708 17.0295 0 10.9733 0C4.90987 0 0 4.91708 0 10.9805C0 17.044 4.90987 21.961 10.9661 21.961C13.1651 21.961 15.2127 21.3121 16.9286 20.2018L17.4261 19.8558L25.2559 27.6856L27.6856 25.2127L19.863 17.3828L20.2235 16.8709ZM17.1161 4.84498C18.7527 6.48159 19.6539 8.65897 19.6539 10.9733C19.6539 13.2877 18.7527 15.465 17.1161 17.1016C15.4794 18.7382 13.3021 19.6395 10.9877 19.6395C8.6734 19.6395 6.49602 18.7382 4.85941 17.1016C3.22278 15.465 2.32156 13.2877 2.32156 10.9733C2.32156 8.65897 3.22278 6.48159 4.85941 4.84498C6.49602 3.20836 8.6734 2.30714 10.9877 2.30714C13.3021 2.30714 15.4794 3.20836 17.1161 4.84498Z" fill="#71777A"/>
</g>
<defs>
<clipPath id="clip0_1_75065">
<rect width="27.6856" height="27.6856" fill="white"/>
</clipPath>
</defs>
</svg>
