<svg width="28" height="28" viewBox="0 0 28 28" fill="none" xmlns="http://www.w3.org/2000/svg">
<g clip-path="url(#clip0_1_75069)">
<path fill-rule="evenodd" clip-rule="evenodd" d="M2.18821 21.1196C0.804362 18.9803 0 16.4303 0 13.6943C0 6.13648 6.13648 0 13.6943 0C21.2521 0 27.3886 6.13648 27.3886 13.6943C27.3886 21.2522 21.2521 27.3886 13.6943 27.3886C11.1327 27.3886 8.73554 26.6838 6.68425 25.4585L0 27.6856L2.18821 21.1196Z" fill="#F3F3F3"/>
<path fill-rule="evenodd" clip-rule="evenodd" d="M4.74988 20.0471C3.4727 18.2539 2.72168 16.0614 2.72168 13.6944C2.72168 7.63867 7.63865 2.72168 13.6944 2.72168C19.7501 2.72168 24.6671 7.63867 24.6671 13.6944C24.6671 19.7502 19.7501 24.6657 13.6944 24.6657C11.4024 24.6657 9.27476 23.9622 7.51326 22.7586L3.38766 24.1338L4.74988 20.0471Z" fill="#00A82D"/>
<path fill-rule="evenodd" clip-rule="evenodd" d="M10.3996 16.5428C8.77939 14.5622 7.69823 12.1375 7.35948 9.50823C7.26867 8.77595 7.5123 8.04079 8.02401 7.50886C8.53576 6.97693 9.26083 6.70452 9.99599 6.76649L10.0666 6.7737C10.0666 6.7737 10.8753 6.98994 11.3179 7.10957C11.4937 7.15714 11.6336 7.28832 11.6926 7.45986C11.8916 8.05088 12.3615 9.43906 12.5835 10.092C12.6556 10.3039 12.5893 10.5389 12.4192 10.6831C12.0833 10.9656 11.5283 11.4326 11.1824 11.7253C10.9964 11.8824 10.9373 12.1433 11.0382 12.3639C11.4404 13.2403 11.9536 14.0591 12.5619 14.8C13.1875 15.5237 13.9068 16.168 14.7025 16.7129C14.9044 16.8498 15.171 16.8355 15.357 16.6783C15.7044 16.3871 16.2594 15.9201 16.5938 15.6375C16.7653 15.4934 17.0075 15.4689 17.205 15.5756C17.8104 15.9042 19.0991 16.6019 19.6469 16.8989C19.8069 16.9854 19.9136 17.1468 19.9294 17.327C19.9712 17.7839 20.0491 18.6171 20.0491 18.6171L20.0433 18.6878C19.9799 19.4229 19.5892 20.0918 18.978 20.5055C18.3668 20.9207 17.6014 21.036 16.8951 20.8227C14.3407 20.037 12.1193 18.5436 10.4386 16.5889L10.3996 16.5428Z" fill="#F3F3F3"/>
</g>
<defs>
<clipPath id="clip0_1_75069">
<rect width="27.6856" height="27.6856" fill="white"/>
</clipPath>
</defs>
</svg>
