<svg width="46" height="15" viewBox="0 0 46 15" fill="none" xmlns="http://www.w3.org/2000/svg">
<g clip-path="url(#clip0_2221_418)">
<mask id="mask0_2221_418" style="mask-type:luminance" maskUnits="userSpaceOnUse" x="0" y="0" width="46" height="15">
<path d="M46 0H0V14.6364H46V0Z" fill="white"/>
</mask>
<g mask="url(#mask0_2221_418)">
<path d="M40.5975 11.1266C40.5975 13.0634 39.0247 14.6363 37.0939 14.6363C35.163 14.6363 33.5903 13.0634 33.5903 11.1266C33.5903 9.1898 35.163 7.61694 37.0939 7.61694C39.0247 7.61694 40.5975 9.19244 40.5975 11.1266Z" fill="#231F20"/>
<path d="M11.1153 11.1266C11.1153 13.0634 9.54252 14.6363 7.6117 14.6363C5.68091 14.6363 4.10815 13.0634 4.10815 11.1266C4.10815 9.1898 5.68091 7.61694 7.6117 7.61694C9.54252 7.61694 11.1153 9.19244 11.1153 11.1266Z" fill="#231F20"/>
<path d="M46 9.17393V10.8371C46 11.9902 45.4987 12.5508 44.4617 12.5508H41.5735L41.5841 11.2038C41.5841 8.77276 39.6082 6.75626 37.1814 6.70845C35.9932 6.68453 34.8607 7.14415 33.9934 7.99431C33.1102 8.86308 32.6037 10.0667 32.6037 11.2968V12.4365C32.6037 12.7208 32.5533 13.0476 32.1422 13.0742H12.4574C12.2612 13.0742 12.102 12.9121 12.102 12.7155V11.2968C12.102 10.0667 11.5955 8.86308 10.7123 7.99431C9.84505 7.14415 8.71254 6.68719 7.52435 6.70845C5.09755 6.75626 3.12166 8.77276 3.12166 11.2038V12.5508H0.859315C0.124654 12.5508 0 12.1044 0 11.1054V9.17393C0 8.77011 0.22809 8.49118 0.578182 8.45926L1.98651 6.71376C2.60713 5.94594 3.48235 5.42255 4.45572 5.24189L13.0436 3.66108C15.9451 2.03512 18.1677 0.898004 20.0375 0.0850178L20.2364 0L20.1886 0.786419L20.1144 0.818298C18.3957 1.55424 16.5737 2.48677 14.6959 3.59201H17.9714C18.1093 3.59201 18.234 3.65577 18.3135 3.7647C18.3957 3.87629 18.4197 4.01179 18.3772 4.14462L18.2393 4.59628C18.2127 4.67598 18.2287 4.761 18.2791 4.83008C18.3295 4.89916 18.4063 4.93635 18.4912 4.93635H25.0873C25.5276 4.93635 25.8856 4.57768 25.8856 4.13665V3.67702C25.8856 3.42197 26.0925 3.21474 26.3471 3.21474H26.6627C26.9332 3.21474 27.1507 3.43525 27.1507 3.70359V4.51658C27.1507 4.76632 27.3549 4.97089 27.6042 4.97089H32.1024C32.3623 4.97089 32.5877 4.79554 32.6514 4.5458C32.914 3.51496 33.3251 2.99422 33.8423 3.05002L34.0067 3.06596C37.3458 3.39806 43.0693 4.00647 43.9101 4.35982C44.825 4.7424 45.0983 5.69355 45.3184 6.45871C45.3555 6.58092 45.39 6.70047 45.4244 6.81472C45.634 7.48155 45.6844 8.19093 45.6977 8.46728C46 8.52568 46 8.80468 46 9.17393Z" fill="#231F20"/>
</g>
</g>
<defs>
<clipPath id="clip0_2221_418">
<rect width="46" height="14.6364" fill="white"/>
</clipPath>
</defs>
</svg>
