<svg width="43" height="15" viewBox="0 0 43 15" fill="none" xmlns="http://www.w3.org/2000/svg">
<g clip-path="url(#clip0_456_1969)">
<mask id="mask0_456_1969" style="mask-type:luminance" maskUnits="userSpaceOnUse" x="0" y="0" width="43" height="15">
<path d="M43 0H0V14.3333H43V0Z" fill="white"/>
</mask>
<g mask="url(#mask0_456_1969)">
<mask id="mask1_456_1969" style="mask-type:luminance" maskUnits="userSpaceOnUse" x="0" y="0" width="43" height="15">
<path d="M43 0H0V14.3333H43V0Z" fill="white"/>
</mask>
<g mask="url(#mask1_456_1969)">
<path d="M38.0073 11.7396C38.0073 13.1685 36.5743 14.3325 34.815 14.3325C33.0558 14.3325 31.6228 13.1685 31.6228 11.7396C31.6228 10.3105 33.0534 9.14648 34.815 9.14648C36.5767 9.14648 38.0073 10.3085 38.0073 11.7396Z" fill="#D1252B"/>
<path d="M9.93215 11.7396C9.93215 13.1685 8.49909 14.3325 6.73987 14.3325C4.98062 14.3325 3.54761 13.1685 3.54761 11.7396C3.54761 10.3105 4.98062 9.14648 6.73987 9.14648C8.49909 9.14648 9.93215 10.3085 9.93215 11.7396Z" fill="#D1252B"/>
<path d="M42.7124 9.93047C42.6061 9.8971 42.4853 9.88727 42.3693 9.88536V0.97165C42.3693 0.435771 41.8328 0 41.1707 0H13.2669C10.5724 0 8.32016 2.42422 7.20127 4.51867C6.72041 4.66785 2.80319 5.8731 1.76891 6.10079C0.802291 6.31279 0.724966 6.3599 0.596886 6.81138C0.570305 6.91146 0.534057 7.03514 0.476059 7.19219L0.463977 9.77738C0.183657 9.82059 0 10.0188 0 10.2975V11.7226C0 12.4018 0.456727 12.7924 1.24694 12.7924H2.64853V11.7972C2.64853 9.99921 4.44886 8.50929 6.66 8.47591C7.74983 8.46219 8.77446 8.79589 9.5647 9.42403C10.3694 10.0659 10.8286 10.9551 10.8286 11.864V12.9141C10.8286 13.0594 10.9759 13.1772 11.1547 13.1772H30.3011C30.678 13.1575 30.724 12.9161 30.724 12.7061V11.864C30.724 10.9551 31.1855 10.0659 31.9902 9.42403C32.7804 8.79589 33.8075 8.46021 34.8925 8.47591C37.1061 8.50929 38.9039 9.99921 38.9039 11.7972L38.8967 12.7924H41.5283C42.507 12.7924 43 12.3665 43 11.5244V10.2975C43 10.1189 42.9009 9.99136 42.7124 9.93047ZM9.43174 4.31257H8.60532C10.0576 1.68223 11.191 0.955951 15.8671 1.00306V5.2744H10.3767C10.2655 5.2744 10.1761 5.20177 10.1761 5.11148V4.91911C10.1761 4.58541 9.84256 4.31257 9.43174 4.31257Z" fill="#D1252B"/>
</g>
</g>
</g>
<defs>
<clipPath id="clip0_456_1969">
<rect width="43" height="15" fill="white"/>
</clipPath>
</defs>
</svg>
