<svg width="46" height="15" viewBox="0 0 46 15" fill="none" xmlns="http://www.w3.org/2000/svg">
<g clip-path="url(#clip0_2221_341)">
<mask id="mask0_2221_341" style="mask-type:luminance" maskUnits="userSpaceOnUse" x="0" y="0" width="46" height="15">
<path d="M46 0H0V14.6364H46V0Z" fill="white"/>
</mask>
<g mask="url(#mask0_2221_341)">
<path d="M40.4347 11.2694C40.4347 13.1271 38.8514 14.6364 36.9052 14.6364C34.9589 14.6364 33.373 13.1271 33.373 11.2694C33.373 9.41163 34.9564 7.90234 36.9052 7.90234C38.8541 7.90234 40.4347 9.41414 40.4347 11.2694Z" fill="#231F20"/>
<path d="M11.2068 11.2694C11.2068 13.1271 9.62345 14.6364 7.67723 14.6364C5.73096 14.6364 4.14502 13.1271 4.14502 11.2694C4.14502 9.41163 5.72833 7.90234 7.67723 7.90234C9.6261 7.90234 11.2068 9.41414 11.2068 11.2694Z" fill="#231F20"/>
<path d="M45.5476 9.15588V6.84685C45.5476 6.77665 45.5502 6.70394 45.5502 6.62622C45.5634 6.1198 45.5766 5.49052 45.1215 5.04927C44.7665 4.70078 44.1879 4.53281 43.3568 4.53281H39.3433C38.6384 4.53281 37.397 3.6077 36.082 2.62742C34.4277 1.39645 32.5525 0 31.1453 0H23.4498C22.09 0 16.6116 1.6271 13.3713 4.08906C12.8742 4.17179 7.01967 5.15206 4.48954 5.6234C1.96203 6.09472 0.602287 7.51626 0.520755 8.71965C0.199885 8.77227 0 9.02799 0 9.39655V11.2493C0 12.207 0.123614 12.6357 0.862667 12.6357H3.14557V11.3446C3.14557 9.00799 5.13917 7.06999 7.59042 7.02483C8.78969 6.99981 9.93119 7.44357 10.807 8.26083C11.6959 9.09573 12.2062 10.2514 12.2062 11.4323V12.7962C12.2062 12.9842 12.3666 13.1371 12.5665 13.1371H31.908C32.321 13.112 32.3736 12.7962 32.3736 12.5254V11.4323C32.3736 10.2514 32.8838 9.09573 33.7754 8.26083C34.6486 7.44357 35.7927 7.00232 36.992 7.02483C39.4406 7.06999 41.4342 9.00799 41.4342 11.3446L41.4263 12.6357H44.4509C45.4924 12.6357 46 12.0992 46 10.9911V9.96067C46 9.51189 45.8343 9.22105 45.5476 9.15588ZM18.1949 5.35764C18.0502 5.35764 17.9345 5.24733 17.9345 5.10944V4.73839C17.9345 4.42501 17.6688 4.17179 17.34 4.17179H16.63C19.5546 1.83518 22.6975 1.33628 26.761 1.32374L26.2034 5.35764H18.1949ZM34.0226 5.25485C33.97 5.32003 33.8938 5.35764 33.807 5.35764H27.8156L28.2312 1.32374H30.2985C31.1848 1.32374 33.5861 3.53499 34.0647 5.02169C34.0884 5.10192 34.0753 5.18716 34.0226 5.25485Z" fill="#231F20"/>
</g>
</g>
<defs>
<clipPath id="clip0_2221_341">
<rect width="46" height="14.6364" fill="white"/>
</clipPath>
</defs>
</svg>
