<svg width="46" height="15" viewBox="0 0 46 15" fill="none" xmlns="http://www.w3.org/2000/svg">
<g clip-path="url(#clip0_2221_349)">
<mask id="mask0_2221_349" style="mask-type:luminance" maskUnits="userSpaceOnUse" x="0" y="0" width="46" height="15">
<path d="M46 0H0V14.6364H46V0Z" fill="white"/>
</mask>
<g mask="url(#mask0_2221_349)">
<path d="M41.0319 11.4885C41.0319 13.2233 39.3675 14.6364 37.3242 14.6364C35.2809 14.6364 33.6165 13.2233 33.6165 11.4885C33.6165 9.75368 35.2809 8.34058 37.3242 8.34058C39.3675 8.34058 41.0319 9.75131 41.0319 11.4885Z" fill="#231F20"/>
<path d="M11.1289 11.4885C11.1289 13.2233 9.46723 14.6364 7.42113 14.6364C5.37498 14.6364 3.71338 13.2233 3.71338 11.4885C3.71338 9.75368 5.37779 8.34058 7.42113 8.34058C9.46444 8.34058 11.1289 9.75131 11.1289 11.4885Z" fill="#231F20"/>
<path d="M45.0626 8.06846V5.4376L45.0485 5.38994C44.8605 5.03011 43.7546 4.2461 42.093 3.09035C41.119 2.41358 40.1114 1.71536 39.8869 1.45324L39.9093 0.595354L39.7943 0.573907C34.6972 -0.343546 22.3222 0.0282011 20.8121 0.388034C18.3281 0.921825 15.8105 2.28252 13.9721 3.27622C12.8522 3.87912 11.8866 4.39862 11.4937 4.41292C9.54019 4.41292 2.96113 5.49718 2.68326 5.54245C1.66441 5.69973 0.631521 6.30739 0.631521 7.16052V8.08749C0.266642 8.14227 0 8.40203 0 8.72138V10.6421C0 11.538 0.131918 11.9384 0.909392 11.9384H2.64958V11.8193C2.64958 9.5721 4.83605 7.5656 7.32843 7.5251H7.42391C10.0426 7.5251 12.1729 9.36239 12.1729 11.6191C12.1729 11.7954 12.3413 11.9384 12.5519 11.9384H32.0841C32.5191 11.9146 32.5752 11.6215 32.5752 11.3665C32.5752 10.3323 33.0412 9.3743 33.8888 8.66897C34.801 7.90879 36.0472 7.49416 37.417 7.5251C39.943 7.5656 42.0761 9.53161 42.0761 11.8193V11.9217L42.1968 11.9384C42.5617 11.9837 43.9202 12.141 44.9025 12.141C45.3825 12.141 45.7726 12.1029 45.913 11.9956C45.9719 11.9503 46.0028 11.8883 46 11.8312V8.87388C46 8.36628 45.5369 8.10896 45.0626 8.06846ZM17.2391 5.04202C17.2391 4.64645 17.2279 4.21036 16.9837 4.00304C16.8911 3.92201 16.7704 3.88151 16.63 3.88151H15.4372C17.5338 2.25631 21.236 1.28642 25.4629 1.26259L24.9465 5.04202H17.2391ZM26.2853 5.04202L26.8495 1.26259H29.1875C30.5179 1.26259 31.7276 1.44847 32.7774 1.81068C34.714 2.47792 35.9378 3.70755 36.008 5.04202H26.2853ZM37.9109 1.73204H38.9298L42.2277 4.25087C41.0096 4.13172 39.5613 3.28814 37.9109 1.73204Z" fill="#231F20"/>
</g>
</g>
<defs>
<clipPath id="clip0_2221_349">
<rect width="46" height="14.6364" fill="white"/>
</clipPath>
</defs>
</svg>
