<svg width="46" height="15" viewBox="0 0 46 15" fill="none" xmlns="http://www.w3.org/2000/svg">
<g clip-path="url(#clip0_456_1933)">
<mask id="mask0_456_1933" style="mask-type:luminance" maskUnits="userSpaceOnUse" x="0" y="0" width="46" height="15">
<path d="M46 0H0V14.6364H46V0Z" fill="white"/>
</mask>
<g mask="url(#mask0_456_1933)">
<mask id="mask1_456_1933" style="mask-type:luminance" maskUnits="userSpaceOnUse" x="0" y="0" width="46" height="15">
<path d="M46 0H0V14.6364H46V0Z" fill="white"/>
</mask>
<g mask="url(#mask1_456_1933)">
<path d="M41.0319 11.4897C41.0319 13.2245 39.3675 14.6376 37.3242 14.6376C35.2809 14.6376 33.6165 13.2245 33.6165 11.4897C33.6165 9.7549 35.2809 8.3418 37.3242 8.3418C39.3675 8.3418 41.0319 9.75253 41.0319 11.4897Z" fill="#D1252B"/>
<path d="M11.1289 11.4897C11.1289 13.2245 9.46723 14.6376 7.42113 14.6376C5.37498 14.6376 3.71338 13.2245 3.71338 11.4897C3.71338 9.7549 5.37779 8.3418 7.42113 8.3418C9.46444 8.3418 11.1289 9.75253 11.1289 11.4897Z" fill="#D1252B"/>
<path d="M45.0626 8.06895V5.43809L45.0485 5.39043C44.8605 5.0306 43.7546 4.24659 42.093 3.09084C41.119 2.41407 40.1114 1.71585 39.8869 1.45373L39.9093 0.595842L39.7943 0.574395C34.6972 -0.343058 22.3222 0.0286892 20.8121 0.388522C18.3281 0.922313 15.8105 2.28301 13.9721 3.27671C12.8522 3.87961 11.8866 4.39911 11.4937 4.41341C9.54019 4.41341 2.96113 5.49767 2.68326 5.54294C1.66441 5.70022 0.631521 6.30788 0.631521 7.16101V8.08798C0.266642 8.14276 0 8.40252 0 8.72187V10.6426C0 11.5385 0.131918 11.9389 0.909392 11.9389H2.64958V11.8198C2.64958 9.57259 4.83605 7.56609 7.32843 7.52559H7.42391C10.0426 7.52559 12.1729 9.36288 12.1729 11.6196C12.1729 11.7959 12.3413 11.9389 12.5519 11.9389H32.0841C32.5191 11.9151 32.5752 11.622 32.5752 11.367C32.5752 10.3328 33.0412 9.37479 33.8888 8.66946C34.801 7.90928 36.0472 7.49465 37.417 7.52559C39.943 7.56609 42.0761 9.5321 42.0761 11.8198V11.9222L42.1968 11.9389C42.5617 11.9842 43.9202 12.1415 44.9025 12.1415C45.3825 12.1415 45.7726 12.1034 45.913 11.9961C45.9719 11.9508 46.0028 11.8888 46 11.8317V8.87437C46 8.36677 45.5369 8.10945 45.0626 8.06895ZM17.2391 5.04251C17.2391 4.64694 17.2279 4.21085 16.9837 4.00353C16.8911 3.9225 16.7704 3.882 16.63 3.882H15.4372C17.5338 2.2568 21.236 1.28691 25.4629 1.26308L24.9465 5.04251H17.2391ZM26.2853 5.04251L26.8495 1.26308H29.1875C30.5179 1.26308 31.7276 1.44896 32.7774 1.81117C34.714 2.47841 35.9378 3.70804 36.008 5.04251H26.2853ZM37.9109 1.73253H38.9298L42.2277 4.25136C41.0096 4.13221 39.5613 3.28863 37.9109 1.73253Z" fill="#D1252B"/>
</g>
</g>
</g>
<defs>
<clipPath id="clip0_456_1933">
<rect width="46" height="15" fill="white"/>
</clipPath>
</defs>
</svg>
