<svg width="46" height="15" viewBox="0 0 46 15" fill="none" xmlns="http://www.w3.org/2000/svg">
<g clip-path="url(#clip0_2221_357)">
<mask id="mask0_2221_357" style="mask-type:luminance" maskUnits="userSpaceOnUse" x="0" y="0" width="46" height="15">
<path d="M46 0H0V14.6364H46V0Z" fill="white"/>
</mask>
<g mask="url(#mask0_2221_357)">
<path d="M42.4296 11.2691C42.4296 13.1248 40.7679 14.6363 38.7216 14.6363C36.6753 14.6363 35.0137 13.1248 35.0137 11.2691C35.0137 9.41344 36.6782 7.90186 38.7216 7.90186C40.7651 7.90186 42.4296 9.41344 42.4296 11.2691Z" fill="#231F20"/>
<path d="M11.7638 11.2691C11.7638 13.1248 10.1021 14.6363 8.05585 14.6363C6.00961 14.6363 4.3479 13.1248 4.3479 11.2691C4.3479 9.41344 6.01241 7.90186 8.05585 7.90186C10.0993 7.90186 11.7638 9.41344 11.7638 11.2691Z" fill="#231F20"/>
<path d="M45.6632 9.28092C45.5509 8.62326 44.9418 5.08781 44.6891 4.35369C44.3607 3.41057 38.1125 0 35.721 0H24.6055C23.1796 0 17.4311 1.62881 14.0319 4.09115C13.5069 4.17272 7.36822 5.15153 4.71284 5.6231C2.06029 6.09466 0.634366 7.51445 0.544545 8.72014C0.21052 8.77366 0 9.02604 0 9.39815V11.2487C0 12.2071 0.131926 12.6379 0.909448 12.6379H3.30656V11.343C3.30656 9.00819 5.39492 7.07348 7.96608 7.03013C9.23199 7.00719 10.4221 7.44566 11.34 8.26383C12.2719 9.09741 12.808 10.2496 12.808 11.4323V12.796C12.808 12.982 12.9765 13.1375 13.1869 13.1375H33.4811C33.9161 13.1121 33.9723 12.796 33.9723 12.5258V11.4323C33.9723 10.2496 34.5084 9.09741 35.4404 8.26383C36.3582 7.44566 37.5568 7.01228 38.8142 7.03013C41.3826 7.07348 43.4738 9.00819 43.4738 11.343L43.4625 12.6379H44.3719C45.4667 12.6379 46 12.0976 46 10.9913V9.96151C46 9.59957 46 9.32936 45.6632 9.28092ZM19.3482 5.00879C19.1994 5.00879 19.0787 4.89663 19.0787 4.76408V4.39193C19.0787 4.0784 18.798 3.8235 18.4528 3.8235H17.4591C20.5215 1.49117 23.8168 0.991565 28.0777 0.981368L27.4939 5.00879H19.3482ZM38.4522 4.90683C38.3988 4.97055 38.3174 5.00879 38.2304 5.00879H29.1893L29.6243 0.981368H34.5477C35.4768 0.981368 37.9946 3.1888 38.4971 4.67487C38.5224 4.75388 38.5083 4.84055 38.4522 4.90683Z" fill="#231F20"/>
</g>
</g>
<defs>
<clipPath id="clip0_2221_357">
<rect width="46" height="14.6364" fill="white"/>
</clipPath>
</defs>
</svg>
