<svg width="46" height="15" viewBox="0 0 46 15" fill="none" xmlns="http://www.w3.org/2000/svg">
<g clip-path="url(#clip0_2221_365)">
<mask id="mask0_2221_365" style="mask-type:luminance" maskUnits="userSpaceOnUse" x="0" y="0" width="46" height="15">
<path d="M46 0H0V14.6364H46V0Z" fill="white"/>
</mask>
<g mask="url(#mask0_2221_365)">
<path d="M40.6929 10.458C40.6929 12.762 39.1428 14.6362 37.2347 14.6362C35.3266 14.6362 33.7791 12.762 33.7791 10.458C33.7791 8.15401 35.3292 6.27661 37.2347 6.27661C39.1402 6.27661 40.6929 8.15094 40.6929 10.458Z" fill="#231F20"/>
<path d="M12.0767 10.458C12.0767 12.762 10.5266 14.6362 8.61849 14.6362C6.71043 14.6362 5.16284 12.762 5.16284 10.458C5.16284 8.15401 6.713 6.27661 8.61849 6.27661C10.524 6.27661 12.0767 8.15094 12.0767 10.458Z" fill="#231F20"/>
<path d="M45.4773 8.63946C45.1399 8.31878 44.9468 7.87669 44.9237 7.35982C44.8876 6.60017 45.2069 5.74707 45.7734 5.07457L45.897 4.92512L45.745 4.82549C45.7039 4.80059 41.6869 2.18217 35.991 0.815359C30.7379 -0.442476 22.9433 -0.869022 15.6097 4.24328C5.82467 2.62428 1.80251 5.937 0.800825 6.99245C0.298701 7.52173 0 8.05101 0 8.40911C0 11.1302 1.41626 12.5095 4.20499 12.5095H4.34662L4.33374 12.3383C4.31314 12.0985 4.28997 11.8837 4.26679 11.6782C4.22302 11.2921 4.18439 10.959 4.18439 10.5512C4.18439 7.64627 6.13625 5.23958 8.53356 5.18666C9.60996 5.15864 10.6682 5.70038 11.5155 6.70602C12.4785 7.85174 13.0553 9.47701 13.0553 11.0586V12.7523C13.0553 12.9859 13.2124 13.1758 13.4055 13.1758H32.3447C32.749 13.1447 32.8005 12.7555 32.8005 12.4161V11.0586C32.8005 9.47701 33.3747 7.85174 34.3403 6.70602C35.1875 5.70038 36.2407 5.15552 37.3222 5.18666C39.7195 5.23958 41.6714 7.64628 41.6714 10.548L41.6585 12.8053L44.6584 12.1484C45.2919 11.9273 45.83 11.1863 45.9665 10.3394C46.0772 9.65759 45.8996 9.03798 45.4773 8.63946ZM33.1868 2.33784C32.7232 3.34038 31.1164 4.20591 29.4478 5.00919L30.4804 1.12671C31.4126 1.37267 32.5173 1.73383 33.1868 2.33784ZM19.6937 5.4762C19.5521 5.4762 19.4388 5.3361 19.4388 5.16798V4.70407C19.4388 4.318 19.1787 4.00043 18.8568 4.00043H18.2877C20.8602 2.25689 24.4729 1.28549 29.041 1.10802L27.4187 5.4762H19.6937Z" fill="#231F20"/>
</g>
</g>
<defs>
<clipPath id="clip0_2221_365">
<rect width="46" height="14.6364" fill="white"/>
</clipPath>
</defs>
</svg>
