<svg width="46" height="15" viewBox="0 0 46 15" fill="none" xmlns="http://www.w3.org/2000/svg">
<g clip-path="url(#clip0_456_1921)">
<mask id="mask0_456_1921" style="mask-type:luminance" maskUnits="userSpaceOnUse" x="0" y="0" width="46" height="15">
<path d="M46 0H0V14.6364H46V0Z" fill="white"/>
</mask>
<g mask="url(#mask0_456_1921)">
<mask id="mask1_456_1921" style="mask-type:luminance" maskUnits="userSpaceOnUse" x="0" y="0" width="46" height="15">
<path d="M46 0H0V14.6364H46V0Z" fill="white"/>
</mask>
<g mask="url(#mask1_456_1921)">
<path d="M40.6929 10.4587C40.6929 12.7627 39.1428 14.6369 37.2347 14.6369C35.3266 14.6369 33.7791 12.7627 33.7791 10.4587C33.7791 8.15474 35.3292 6.27734 37.2347 6.27734C39.1402 6.27734 40.6929 8.15167 40.6929 10.4587Z" fill="#D1252B"/>
<path d="M12.0767 10.4587C12.0767 12.7627 10.5266 14.6369 8.61849 14.6369C6.71043 14.6369 5.16284 12.7627 5.16284 10.4587C5.16284 8.15474 6.713 6.27734 8.61849 6.27734C10.524 6.27734 12.0767 8.15167 12.0767 10.4587Z" fill="#D1252B"/>
<path d="M45.4773 8.64044C45.1399 8.31976 44.9468 7.87767 44.9237 7.3608C44.8876 6.60115 45.2069 5.74805 45.7734 5.07555L45.897 4.9261L45.745 4.82647C45.7039 4.80157 41.6869 2.18315 35.991 0.816335C30.7379 -0.4415 22.9433 -0.868045 15.6097 4.24426C5.82467 2.62526 1.80251 5.93798 0.800825 6.99343C0.298701 7.52271 0 8.05199 0 8.41009C0 11.1312 1.41626 12.5105 4.20499 12.5105H4.34662L4.33374 12.3393C4.31314 12.0995 4.28997 11.8847 4.26679 11.6792C4.22302 11.2931 4.18439 10.96 4.18439 10.5522C4.18439 7.64725 6.13625 5.24056 8.53356 5.18764C9.60996 5.15962 10.6682 5.70136 11.5155 6.707C12.4785 7.85272 13.0553 9.47799 13.0553 11.0596V12.7533C13.0553 12.9869 13.2124 13.1768 13.4055 13.1768H32.3447C32.749 13.1457 32.8005 12.7565 32.8005 12.4171V11.0596C32.8005 9.47799 33.3747 7.85272 34.3403 6.707C35.1875 5.70136 36.2407 5.1565 37.3222 5.18764C39.7195 5.24056 41.6714 7.64726 41.6714 10.549L41.6585 12.8063L44.6584 12.1494C45.2919 11.9283 45.83 11.1873 45.9665 10.3404C46.0772 9.65857 45.8996 9.03896 45.4773 8.64044ZM33.1868 2.33882C32.7232 3.34136 31.1164 4.20689 29.4478 5.01017L30.4804 1.12769C31.4126 1.37365 32.5173 1.73481 33.1868 2.33882ZM19.6937 5.47718C19.5521 5.47718 19.4388 5.33708 19.4388 5.16896V4.70505C19.4388 4.31898 19.1787 4.00141 18.8568 4.00141H18.2877C20.8602 2.25787 24.4729 1.28647 29.041 1.109L27.4187 5.47718H19.6937Z" fill="#D1252B"/>
</g>
</g>
</g>
<defs>
<clipPath id="clip0_456_1921">
<rect width="46" height="15" fill="white"/>
</clipPath>
</defs>
</svg>
