<svg width="43" height="15" viewBox="0 0 43 15" fill="none" xmlns="http://www.w3.org/2000/svg">
<g clip-path="url(#clip0_2221_373)">
<mask id="mask0_2221_373" style="mask-type:luminance" maskUnits="userSpaceOnUse" x="0" y="0" width="43" height="15">
<path d="M43 0H0V14.3333H43V0Z" fill="white"/>
</mask>
<g mask="url(#mask0_2221_373)">
<path d="M37.619 11.5651C37.619 13.0906 36.182 14.3333 34.4126 14.3333C32.6432 14.3333 31.2063 13.0906 31.2063 11.5651C31.2063 10.0396 32.6456 8.79688 34.4126 8.79688C36.1796 8.79688 37.619 10.0396 37.619 11.5651Z" fill="#231F20"/>
<path d="M10.6382 11.5651C10.6382 13.0906 9.20135 14.3333 7.43194 14.3333C5.66249 14.3333 4.22803 13.0906 4.22803 11.5651C4.22803 10.0396 5.66492 8.79688 7.43194 8.79688C9.19889 8.79688 10.6382 10.0396 10.6382 11.5651Z" fill="#231F20"/>
<path d="M42.5048 9.46546C42.4757 9.15115 42.3835 8.09499 42.3835 7.61093C42.3835 5.63275 39.051 1.33484 38.7257 0.917838L38.716 0L18.9806 0.125731C16.3568 0.125731 11.2403 2.68016 9.30827 4.07997C8.99512 4.18684 4.78884 5.63484 3.72572 5.88421C2.28641 6.21949 1.41748 6.779 1.14078 7.55012L0.495146 9.46546C0.191747 9.50109 0 9.71274 0 10.0249V11.5463C0 12.2734 0.456311 12.6883 1.25243 12.6883H3.32524V11.6259C3.32524 9.70851 5.1335 8.11806 7.35436 8.08031C8.43933 8.06352 9.47816 8.42186 10.2694 9.09245C11.0777 9.77765 11.5413 10.7269 11.5413 11.6972V12.8183C11.5413 12.9734 11.6869 13.0991 11.869 13.0991H29.881C30.2573 13.0802 30.3059 12.8203 30.3059 12.5961V11.6972C30.3059 10.7269 30.7694 9.77765 31.5777 9.09245C32.3689 8.42186 33.4029 8.06352 34.4927 8.08031C36.7136 8.11806 38.5219 9.70851 38.5219 11.6259L38.5146 12.6883H41.1578C42.0073 12.6883 43 12.3342 43 11.3347V10.0249C43 9.70223 42.8204 9.50314 42.5048 9.46546ZM20.7621 5.11097H13.2888C13.1772 5.11097 13.0874 5.03343 13.0874 4.93703V4.72958C13.0874 4.37335 12.7524 4.08416 12.3398 4.08416H11.6626C14.5412 2.09552 17.5923 1.16092 21.2185 1.16092C21.267 1.16092 21.3131 1.16092 21.3617 1.16301L20.7621 5.11097ZM22.25 5.11097L22.7864 1.16301H29.1335L29.3495 5.11097H22.25ZM38.4029 5.01457C38.3568 5.07534 38.284 5.11097 38.199 5.11097H30.5898V1.15882C34.3981 0.997463 36.8835 2.15838 38.4127 4.8134C38.449 4.87627 38.4466 4.9517 38.4029 5.01457Z" fill="#231F20"/>
</g>
</g>
<defs>
<clipPath id="clip0_2221_373">
<rect width="43" height="14.3333" fill="white"/>
</clipPath>
</defs>
</svg>
