<svg width="45" height="15" viewBox="0 0 45 15" fill="none" xmlns="http://www.w3.org/2000/svg">
<g clip-path="url(#clip0_456_2022)">
<mask id="mask0_456_2022" style="mask-type:luminance" maskUnits="userSpaceOnUse" x="0" y="0" width="45" height="15">
<path d="M45 0H0V15H45V0Z" fill="white"/>
</mask>
<g mask="url(#mask0_456_2022)">
<mask id="mask1_456_2022" style="mask-type:luminance" maskUnits="userSpaceOnUse" x="0" y="0" width="45" height="15">
<path d="M45 0H0V15H45V0Z" fill="white"/>
</mask>
<g mask="url(#mask1_456_2022)">
<mask id="mask2_456_2022" style="mask-type:luminance" maskUnits="userSpaceOnUse" x="0" y="0" width="45" height="15">
<path d="M44.5 0H0V14.4884H44.5V0Z" fill="white"/>
</mask>
<g mask="url(#mask2_456_2022)">
<path d="M38.7526 11.8672C38.7526 13.3116 37.3649 14.4882 35.6614 14.4882C33.9579 14.4882 32.5703 13.3116 32.5703 11.8672C32.5703 10.4227 33.9579 9.24609 35.6614 9.24609C37.3649 9.24609 38.7526 10.4207 38.7526 11.8672Z" fill="#D1252B"/>
<path d="M10.1605 11.8672C10.1605 13.3116 8.77516 14.4882 7.06926 14.4882C5.36341 14.4882 3.98047 13.3116 3.98047 11.8672C3.98047 10.4227 5.36575 9.24609 7.06926 9.24609C8.77281 9.24609 10.1605 10.4207 10.1605 11.8672Z" fill="#D1252B"/>
<path d="M44.2215 10.0379C44.1139 10.0022 43.9946 9.99422 43.8799 9.99228L42.9743 0.984147C42.9743 0.440484 42.4549 0 41.816 0H13.3919C12.0674 0 7.89989 4.19254 7.53485 4.56159C7.16043 4.68263 3.27134 5.93265 2.25811 6.1648C1.31977 6.37909 1.24723 6.42671 1.12321 6.88505C1.09513 6.98622 1.06236 7.11324 0.999187 7.28186L0.465662 9.87914C0.182521 9.91688 0 10.1192 0 10.4089V11.8494C0 12.536 0.439922 12.9308 1.20745 12.9308H3.10987V11.9248C3.10987 10.1054 4.85084 8.60133 6.9943 8.56759C8.03794 8.55373 9.04178 8.89103 9.80697 9.52797C10.5839 10.1748 11.0308 11.0736 11.0308 11.9903V13.0538C11.0308 13.1987 11.1712 13.3197 11.3467 13.3197H31.2906C31.6534 13.2998 31.7001 13.0538 31.7001 12.8415V11.9903C31.7001 11.0736 32.1447 10.1748 32.9239 9.52797C33.6868 8.89103 34.6813 8.55373 35.7367 8.56759C37.8778 8.60133 39.6211 10.1054 39.6211 11.9228L39.6117 12.9308H43.075C44.0203 12.9308 44.5 12.4982 44.5 11.6491V10.4089C44.5 10.2264 44.404 10.0994 44.2215 10.0379ZM9.99187 4.11317H9.26876C10.736 2.71037 12.9707 0.771837 13.5557 0.771837H19.3355V5.0874H10.9068C10.7991 5.0874 10.7126 5.012 10.7126 4.92271V4.7243C10.7126 4.38898 10.3873 4.11317 9.99187 4.11317ZM20.7536 5.0874V0.771837H39.9089L40.1921 5.0874H20.7536Z" fill="#D1252B"/>
</g>
</g>
</g>
</g>
<defs>
<clipPath id="clip0_456_2022">
<rect width="45" height="15" fill="white"/>
</clipPath>
</defs>
</svg>
