<svg width="46" height="15" viewBox="0 0 46 15" fill="none" xmlns="http://www.w3.org/2000/svg">
<g clip-path="url(#clip0_2221_389)">
<mask id="mask0_2221_389" style="mask-type:luminance" maskUnits="userSpaceOnUse" x="0" y="0" width="46" height="15">
<path d="M46 0H0V14.6364H46V0Z" fill="white"/>
</mask>
<g mask="url(#mask0_2221_389)">
<path d="M41.3402 10.9163C41.3402 12.9661 39.7252 14.6363 37.7373 14.6363C35.7495 14.6363 34.1372 12.9661 34.1372 10.9163C34.1372 8.86658 35.7522 7.19629 37.7373 7.19629C39.7226 7.19629 41.3402 8.86379 41.3402 10.9163Z" fill="#231F20"/>
<path d="M11.8656 10.9163C11.8656 12.9661 10.2479 14.6363 8.26275 14.6363C6.27757 14.6363 4.65991 12.9661 4.65991 10.9163C4.65991 8.86658 6.27757 7.19629 8.26275 7.19629C10.2479 7.19629 11.8656 8.86379 11.8656 10.9163Z" fill="#231F20"/>
<path d="M28.729 1.08862V1.10247C28.7719 1.10801 28.8122 1.11632 28.8578 1.12186L28.729 1.08862Z" fill="#231F20"/>
<path d="M28.729 1.08862V1.10247C28.7719 1.10801 28.8122 1.11632 28.8578 1.12186L28.729 1.08862ZM28.729 1.08862V1.10247C28.7719 1.10801 28.8122 1.11632 28.8578 1.12186L28.729 1.08862ZM28.729 1.08862V1.10247C28.7719 1.10801 28.8122 1.11632 28.8578 1.12186L28.729 1.08862Z" fill="#231F20"/>
<path d="M45.802 10.5226C45.853 10.373 45.9066 10.2013 45.9362 9.99907C45.9416 9.96032 46.0005 9.50324 46.0005 8.85234C46.0005 8.20137 45.9416 7.37317 45.7108 6.56989C45.5552 6.02144 45.2574 5.5367 44.9677 5.07135C44.4017 4.15173 43.9537 3.42601 44.7585 2.56733L44.9811 2.32911H44.6619C42.1241 2.3485 40.2194 2.48423 39.1973 3.08808C36.8043 2.02718 30.7388 0.49818 26.3847 0.0937692C22.8302 -0.238624 21.6311 0.140859 14.7527 3.77779C7.37795 3.7861 0.958276 5.98266 0.132009 8.78306C-0.243567 9.96032 0.290287 10.7608 0.46198 10.9796C0.663181 11.2317 0.550508 11.5364 0.354672 11.9741C0.317115 12.0627 0.276874 12.1513 0.244682 12.2344L0.191028 12.3729L0.330528 12.42C1.56993 12.8189 2.62691 12.8189 3.56048 12.4145L3.64364 12.3785V10.999C3.64364 8.41744 5.67443 6.27627 8.17473 6.22641C9.39798 6.19872 10.565 6.689 11.4556 7.59201C12.3624 8.5116 12.8855 9.78858 12.8855 11.0932V12.6028C12.8855 12.8078 13.0491 12.9767 13.2503 12.9767H32.6435C33.0646 12.9491 33.1183 12.6028 33.1183 12.3037V11.0932C33.1183 9.78858 33.6387 8.5116 34.5482 7.59201C35.4389 6.689 36.6031 6.19595 37.8291 6.22641C40.3267 6.27627 42.3601 8.41744 42.3601 10.999L42.3521 12.4283H42.4889C43.3152 12.4117 44.5653 12.0876 45.794 11.7414L45.9684 11.6915L45.8718 11.5336C45.6143 11.1043 45.6947 10.8605 45.802 10.5226ZM28.7294 1.08818L28.8582 1.12142C28.8126 1.11588 28.7723 1.10757 28.7268 1.10203V1.08818H28.7294ZM18.6532 4.38164C18.5084 4.38164 18.3904 4.25976 18.3904 4.11018V3.69746C18.3904 3.42047 18.216 3.18503 17.9719 3.10469C19.061 2.53408 21.9422 1.09372 23.4928 0.957991C24.861 0.836112 26.6074 0.930294 28.6946 1.23498L28.1044 3.72516L18.6532 4.38164ZM28.3834 3.70577L28.9601 1.27653C29.6415 1.37902 30.3578 1.50644 31.109 1.65325C31.8574 1.87484 32.3859 2.29033 32.9976 2.76953C33.2336 2.95512 33.4724 3.14347 33.7407 3.33183L28.3834 3.70577Z" fill="#231F20"/>
<path d="M28.8578 1.12186C28.8122 1.11632 28.772 1.10801 28.7263 1.10247V1.08862L28.8578 1.12186Z" fill="#231F20"/>
</g>
</g>
<defs>
<clipPath id="clip0_2221_389">
<rect width="46" height="14.6364" fill="white"/>
</clipPath>
</defs>
</svg>
