<svg width="46" height="15" viewBox="0 0 46 15" fill="none" xmlns="http://www.w3.org/2000/svg">
<g clip-path="url(#clip0_456_2007)">
<mask id="mask0_456_2007" style="mask-type:luminance" maskUnits="userSpaceOnUse" x="0" y="0" width="46" height="15">
<path d="M46 0H0V14.6364H46V0Z" fill="white"/>
</mask>
<g mask="url(#mask0_456_2007)">
<mask id="mask1_456_2007" style="mask-type:luminance" maskUnits="userSpaceOnUse" x="0" y="0" width="46" height="15">
<path d="M46 0H0V14.6364H46V0Z" fill="white"/>
</mask>
<g mask="url(#mask1_456_2007)">
<path d="M41.3402 10.9153C41.3402 12.9651 39.7252 14.6353 37.7373 14.6353C35.7495 14.6353 34.1372 12.9651 34.1372 10.9153C34.1372 8.8656 35.7522 7.19531 37.7373 7.19531C39.7226 7.19531 41.3402 8.86281 41.3402 10.9153Z" fill="#D1252B"/>
<path d="M11.8656 10.9153C11.8656 12.9651 10.2479 14.6353 8.26275 14.6353C6.27757 14.6353 4.65991 12.9651 4.65991 10.9153C4.65991 8.8656 6.27757 7.19531 8.26275 7.19531C10.2479 7.19531 11.8656 8.86281 11.8656 10.9153Z" fill="#D1252B"/>
<path d="M28.729 1.08789V1.10174C28.7719 1.10728 28.8122 1.11559 28.8578 1.12113L28.729 1.08789Z" fill="#D1252B"/>
<path d="M28.729 1.08789V1.10174C28.7719 1.10728 28.8122 1.11559 28.8578 1.12113L28.729 1.08789ZM28.729 1.08789V1.10174C28.7719 1.10728 28.8122 1.11559 28.8578 1.12113L28.729 1.08789ZM28.729 1.08789V1.10174C28.7719 1.10728 28.8122 1.11559 28.8578 1.12113L28.729 1.08789Z" fill="#D1252B"/>
<path d="M45.802 10.5224C45.853 10.3728 45.9066 10.2011 45.9362 9.99883C45.9416 9.96008 46.0005 9.503 46.0005 8.8521C46.0005 8.20113 45.9416 7.37293 45.7108 6.56965C45.5552 6.0212 45.2574 5.53646 44.9677 5.07111C44.4017 4.15149 43.9537 3.42577 44.7585 2.56709L44.9811 2.32887H44.6619C42.1241 2.34826 40.2194 2.48399 39.1973 3.08784C36.8043 2.02694 30.7388 0.497936 26.3847 0.093525C22.8302 -0.238868 21.6311 0.140615 14.7527 3.77755C7.37795 3.78586 0.958276 5.98242 0.132009 8.78282C-0.243567 9.96008 0.290287 10.7606 0.46198 10.9794C0.663181 11.2315 0.550508 11.5362 0.354672 11.9739C0.317115 12.0625 0.276874 12.1511 0.244682 12.2342L0.191028 12.3727L0.330528 12.4198C1.56993 12.8187 2.62691 12.8187 3.56048 12.4143L3.64364 12.3783V10.9988C3.64364 8.4172 5.67443 6.27603 8.17473 6.22617C9.39798 6.19848 10.565 6.68876 11.4556 7.59177C12.3624 8.51136 12.8855 9.78834 12.8855 11.093V12.6026C12.8855 12.8076 13.0491 12.9765 13.2503 12.9765H32.6435C33.0646 12.9489 33.1183 12.6026 33.1183 12.3035V11.093C33.1183 9.78834 33.6387 8.51136 34.5482 7.59177C35.4389 6.68876 36.6031 6.19571 37.8291 6.22617C40.3267 6.27603 42.3601 8.4172 42.3601 10.9988L42.3521 12.4281H42.4889C43.3152 12.4115 44.5653 12.0874 45.794 11.7412L45.9684 11.6913L45.8718 11.5334C45.6143 11.1041 45.6947 10.8603 45.802 10.5224ZM28.7294 1.08794L28.8582 1.12118C28.8126 1.11564 28.7723 1.10733 28.7268 1.10179V1.08794H28.7294ZM18.6532 4.3814C18.5084 4.3814 18.3904 4.25952 18.3904 4.10994V3.69722C18.3904 3.42023 18.216 3.18479 17.9719 3.10445C19.061 2.53384 21.9422 1.09348 23.4928 0.957747C24.861 0.835868 26.6074 0.93005 28.6946 1.23474L28.1044 3.72492L18.6532 4.3814ZM28.3834 3.70553L28.9601 1.27629C29.6415 1.37878 30.3578 1.5062 31.109 1.65301C31.8574 1.8746 32.3859 2.29009 32.9976 2.76929C33.2336 2.95488 33.4724 3.14323 33.7407 3.33159L28.3834 3.70553Z" fill="#D1252B"/>
<path d="M28.8578 1.12113C28.8122 1.11559 28.772 1.10728 28.7263 1.10174V1.08789L28.8578 1.12113Z" fill="#D1252B"/>
</g>
</g>
</g>
<defs>
<clipPath id="clip0_456_2007">
<rect width="46" height="15" fill="white"/>
</clipPath>
</defs>
</svg>
