<svg width="46" height="15" viewBox="0 0 46 15" fill="none" xmlns="http://www.w3.org/2000/svg">
<g clip-path="url(#clip0_2221_400)">
<mask id="mask0_2221_400" style="mask-type:luminance" maskUnits="userSpaceOnUse" x="0" y="0" width="46" height="15">
<path d="M46 0H0V14.6364H46V0Z" fill="white"/>
</mask>
<g mask="url(#mask0_2221_400)">
<path d="M40.4092 11.2685C40.4092 13.1245 38.8712 14.6363 36.9772 14.6363C35.0833 14.6363 33.5479 13.1245 33.5479 11.2685C33.5479 9.4125 35.0859 7.90063 36.9772 7.90063C38.8685 7.90063 40.4092 9.4125 40.4092 11.2685Z" fill="#231F20"/>
<path d="M10.888 11.2685C10.888 13.1245 9.34746 14.6363 7.4561 14.6363C5.56477 14.6363 4.02417 13.1245 4.02417 11.2685C4.02417 9.4125 5.56477 7.90063 7.4561 7.90063C9.34746 7.90063 10.888 9.4125 10.888 11.2685Z" fill="#231F20"/>
<path d="M33.2517 1.31812V1.35636C33.3374 1.3844 33.4232 1.41499 33.5115 1.44814V1.31812H33.2517ZM33.2517 1.31812V1.35636C33.3374 1.3844 33.4232 1.41499 33.5115 1.44814V1.31812H33.2517ZM33.2517 1.31812V1.35636C33.3374 1.3844 33.4232 1.41499 33.5115 1.44814V1.31812H33.2517Z" fill="#231F20"/>
<path d="M45.2726 9.30036V6.17476L45.2673 6.13651C45.2595 6.11102 45.2544 6.07023 45.2466 6.01414C45.1712 5.517 44.9478 4.00518 42.2745 4.00518C40.9209 4.00518 39.2426 3.09503 37.4656 2.13133C35.5353 1.08352 33.5374 0 31.7682 0H23.9119C20.719 0 16.6323 1.5883 13.4887 4.04852C12.9795 4.13265 6.82232 5.14988 4.36203 5.62408C1.90692 6.09317 0.584548 7.51319 0.50401 8.71909C0.194849 8.77262 0 9.02506 0 9.39724V11.2482C0 12.2093 0.122106 12.6376 0.841751 12.6376H3.06043V11.3451C3.06043 9.00973 4.99333 7.07215 7.3731 7.0288C8.53697 7.00329 9.64634 7.4444 10.4933 8.26278C11.3584 9.09643 11.8546 10.2513 11.8546 11.4317V12.7957C11.8546 12.9843 12.0105 13.1373 12.2053 13.1373H32.1267C32.5295 13.1118 32.5814 12.7957 32.5814 12.5255V11.4317C32.5814 10.2513 33.0776 9.09643 33.9401 8.26278C34.7897 7.4444 35.8965 7.00329 37.0629 7.0288C39.4401 7.07215 41.3756 9.00973 41.3756 11.3425L41.3678 12.6376H44.4932C45.5064 12.6376 46 12.0971 46 10.9907V9.96067C46 9.55532 45.496 9.36414 45.2726 9.30036ZM25.4265 5.00711H17.9079C17.7702 5.00711 17.6586 4.89749 17.6586 4.76237V4.39014C17.6586 4.07656 17.3987 3.82162 17.0792 3.82162H16.1595C18.9939 1.49142 22.0362 0.991732 25.9669 0.978985L25.4265 5.00711ZM35.2417 5.00711H33.5115V1.44809C33.4231 1.41494 33.3374 1.38435 33.2517 1.3563V5.00711H26.619L27.0217 0.978985H31.5786C31.9085 0.978985 32.545 1.11411 33.2517 1.3563V1.31806H33.5115V1.44809C34.7274 1.89934 36.0549 2.63613 36.3277 3.50549C36.3459 3.74004 35.4781 4.93827 35.2417 5.00711Z" fill="#231F20"/>
<path d="M33.5115 1.31812V1.44814C33.4232 1.41499 33.3374 1.3844 33.2517 1.35636V1.31812H33.5115Z" fill="#231F20"/>
</g>
</g>
<defs>
<clipPath id="clip0_2221_400">
<rect width="46" height="14.6364" fill="white"/>
</clipPath>
</defs>
</svg>
