<svg width="43" height="15" viewBox="0 0 43 15" fill="none" xmlns="http://www.w3.org/2000/svg">
<g clip-path="url(#clip0_456_1981)">
<mask id="mask0_456_1981" style="mask-type:luminance" maskUnits="userSpaceOnUse" x="0" y="0" width="43" height="15">
<path d="M43 0H0V14.3333H43V0Z" fill="white"/>
</mask>
<g mask="url(#mask0_456_1981)">
<mask id="mask1_456_1981" style="mask-type:luminance" maskUnits="userSpaceOnUse" x="0" y="0" width="43" height="15">
<path d="M43 0H0V14.3333H43V0Z" fill="white"/>
</mask>
<g mask="url(#mask1_456_1981)">
<path d="M40.0366 11.3267C40.0366 12.9856 38.4855 14.3345 36.5814 14.3345C34.6773 14.3345 33.1262 12.9856 33.1262 11.3267C33.1262 9.6677 34.6773 8.31641 36.5814 8.31641C38.4855 8.31641 40.0366 9.66545 40.0366 11.3267Z" fill="#D1252B"/>
<path d="M10.9619 11.3267C10.9619 12.9856 9.41081 14.3345 7.50666 14.3345C5.60255 14.3345 4.05151 12.9856 4.05151 11.3267C4.05151 9.6677 5.60255 8.31641 7.50666 8.31641C9.41081 8.31641 10.9619 9.66545 10.9619 11.3267Z" fill="#D1252B"/>
<path d="M42.9947 8.55926C42.7698 7.903 42.3435 7.82547 42.0139 7.81639C41.9721 4.88819 40.3766 0.000275256 38.7445 0.000275256C38.5718 0.000275256 21.6334 0.00939025 19.7763 0.000275256C18.1364 -0.00656098 16.0936 0.107376 14.8486 1.08496C14.4458 1.39714 14.0142 1.84606 13.5591 2.32232C12.7849 3.129 11.9113 4.04278 11.3019 4.06328C9.48143 4.06328 3.35055 5.10011 3.0916 5.14341C2.47172 5.2414 0.588503 5.54219 0.588503 6.44002L0.507421 8.07391C0.198784 8.12401 0 8.35416 0 8.68001V10.5167C0 11.3735 0.122932 11.7563 0.847448 11.7563H3.06022V11.6424C3.06022 9.49352 5.09775 7.57484 7.42037 7.53607H7.5093C9.94965 7.53607 11.9349 9.29299 11.9349 11.451C11.9349 11.6196 12.0918 11.7563 12.288 11.7563H31.6981C32.1035 11.7335 32.1558 11.4532 32.1558 11.2094C32.1558 10.2204 32.59 9.30439 33.3799 8.62991C34.23 7.903 35.3965 7.50877 36.6677 7.53607C39.0218 7.57484 41.0096 9.45482 41.0096 11.6424V11.7654L41.1508 11.7563C41.5928 11.7221 43.0261 11.5786 43 11.0909V8.59114L42.9947 8.55926ZM38.4332 0.945959C38.6085 0.945959 39.2545 1.21029 40.2772 4.56005H34.5596L32.4017 0.945959H38.4332ZM22.5907 4.56005H15.6882C15.6882 4.1795 15.6777 3.76476 15.4502 3.56651C15.3639 3.48904 15.2514 3.4503 15.1206 3.4503H13.9306C14.3359 2.94669 15.5679 1.51109 16.7475 1.16471C18.0605 0.779604 22.2507 0.911777 23.072 0.9414L22.5907 4.56005ZM23.9272 4.56005L24.453 0.945959H30.2255C30.5708 0.945959 31.1697 1.89619 31.7269 4.56005H23.9272Z" fill="#D1252B"/>
</g>
</g>
</g>
<defs>
<clipPath id="clip0_456_1981">
<rect width="43" height="15" fill="white"/>
</clipPath>
</defs>
</svg>
