<svg width="43" height="15" viewBox="0 0 43 15" fill="none" xmlns="http://www.w3.org/2000/svg">
<g clip-path="url(#clip0_2221_410)">
<mask id="mask0_2221_410" style="mask-type:luminance" maskUnits="userSpaceOnUse" x="0" y="0" width="43" height="15">
<path d="M43 0H0V14.3333H43V0Z" fill="white"/>
</mask>
<g mask="url(#mask0_2221_410)">
<path d="M40.0366 11.3255C40.0366 12.9844 38.4855 14.3333 36.5814 14.3333C34.6773 14.3333 33.1262 12.9844 33.1262 11.3255C33.1262 9.66648 34.6773 8.31519 36.5814 8.31519C38.4855 8.31519 40.0366 9.66423 40.0366 11.3255Z" fill="#231F20"/>
<path d="M10.9619 11.3255C10.9619 12.9844 9.41081 14.3333 7.50666 14.3333C5.60255 14.3333 4.05151 12.9844 4.05151 11.3255C4.05151 9.66648 5.60255 8.31519 7.50666 8.31519C9.41081 8.31519 10.9619 9.66423 10.9619 11.3255Z" fill="#231F20"/>
<path d="M42.9947 8.55853C42.7698 7.90227 42.3435 7.82474 42.0139 7.81566C41.9721 4.88746 40.3766 -0.000457165 38.7445 -0.000457165C38.5718 -0.000457165 21.6334 0.00865783 19.7763 -0.000457165C18.1364 -0.0072934 16.0936 0.106644 14.8486 1.08423C14.4458 1.39641 14.0142 1.84533 13.5591 2.32159C12.7849 3.12827 11.9113 4.04205 11.3019 4.06255C9.48143 4.06255 3.35055 5.09938 3.0916 5.14268C2.47172 5.24067 0.588503 5.54146 0.588503 6.43929L0.507421 8.07318C0.198784 8.12328 0 8.35343 0 8.67928V10.516C0 11.3728 0.122932 11.7556 0.847448 11.7556H3.06022V11.6417C3.06022 9.49279 5.09775 7.57411 7.42037 7.53534H7.5093C9.94965 7.53534 11.9349 9.29226 11.9349 11.4503C11.9349 11.6189 12.0918 11.7556 12.288 11.7556H31.6981C32.1035 11.7328 32.1558 11.4525 32.1558 11.2087C32.1558 10.2197 32.59 9.30366 33.3799 8.62918C34.23 7.90227 35.3965 7.50804 36.6677 7.53534C39.0218 7.57411 41.0096 9.45409 41.0096 11.6417V11.7647L41.1508 11.7556C41.5928 11.7214 43.0261 11.5779 43 11.0902V8.59041L42.9947 8.55853ZM38.4332 0.945227C38.6085 0.945227 39.2545 1.20956 40.2772 4.55932H34.5596L32.4017 0.945227H38.4332ZM22.5907 4.55932H15.6882C15.6882 4.17877 15.6777 3.76403 15.4502 3.56578C15.3639 3.48831 15.2514 3.44957 15.1206 3.44957H13.9306C14.3359 2.94596 15.5679 1.51036 16.7475 1.16398C18.0605 0.778872 22.2507 0.911045 23.072 0.940668L22.5907 4.55932ZM23.9272 4.55932L24.453 0.945227H30.2255C30.5708 0.945227 31.1697 1.89546 31.7269 4.55932H23.9272Z" fill="#231F20"/>
</g>
</g>
<defs>
<clipPath id="clip0_2221_410">
<rect width="43" height="14.3333" fill="white"/>
</clipPath>
</defs>
</svg>
