<svg width="28" height="28" viewBox="0 0 28 28" fill="none" xmlns="http://www.w3.org/2000/svg">
<g clip-path="url(#clip0_1_62478)">
<path d="M9.29092 1.9489C13.3191 1.9489 16.6327 5.26244 16.6327 9.29067C16.6327 13.3189 13.3191 16.6324 9.29092 16.6324C5.26269 16.6324 1.94914 13.3839 1.94914 9.29067C1.94914 5.19747 5.19772 1.9489 9.29092 1.9489ZM9.29092 -0.000244141C4.15817 -0.000244141 0 4.15793 0 9.29067C0 14.4234 4.15817 18.5816 9.29092 18.5816C14.4237 18.5816 18.5818 14.4234 18.5818 9.29067C18.5818 4.15793 14.3587 -0.000244141 9.29092 -0.000244141Z" fill="black"/>
<path d="M15.334 15.2666L17.478 17.4107" stroke="black" stroke-width="1.94914" stroke-miterlimit="10"/>
<path d="M25.7291 25.7282L18.0625 18.0615" stroke="black" stroke-width="3.24857" stroke-miterlimit="10" stroke-linecap="round"/>
</g>
<defs>
<clipPath id="clip0_1_62478">
<rect width="27.9377" height="27.9377" fill="white"/>
</clipPath>
</defs>
</svg>
