<svg width="6" height="25" viewBox="0 0 6 25" fill="none" xmlns="http://www.w3.org/2000/svg">
<g clip-path="url(#clip0_1_62482)">
<path d="M5.6975 21.8402C5.6975 22.5957 5.39736 23.3203 4.86312 23.8545C4.32887 24.3888 3.60429 24.6889 2.84874 24.6889C2.09321 24.6889 1.36862 24.3888 0.834376 23.8545C0.300135 23.3203 0 22.5957 0 21.8402C0 21.0846 0.300135 20.3601 0.834376 19.8258C1.36862 19.2915 2.09321 18.9914 2.84874 18.9914C3.60429 18.9914 4.32887 19.2915 4.86312 19.8258C5.39736 20.3601 5.6975 21.0846 5.6975 21.8402ZM5.6975 12.3443C5.6975 13.0999 5.39736 13.8244 4.86312 14.3587C4.32887 14.893 3.60429 15.1931 2.84874 15.1931C2.09321 15.1931 1.36862 14.893 0.834376 14.3587C0.300135 13.8244 0 13.0999 0 12.3443C0 11.5888 0.300135 10.8642 0.834376 10.33C1.36862 9.7957 2.09321 9.49559 2.84874 9.49559C3.60429 9.49559 4.32887 9.7957 4.86312 10.33C5.39736 10.8642 5.6975 11.5888 5.6975 12.3443ZM5.6975 2.84851C5.6975 3.60404 5.39736 4.32863 4.86312 4.86288C4.32887 5.39712 3.60429 5.69725 2.84874 5.69725C2.09321 5.69725 1.36862 5.39712 0.834376 4.86288C0.300135 4.32863 0 3.60404 0 2.84851C0 2.09297 0.300135 1.36838 0.834376 0.834132C1.36862 0.299891 2.09321 -0.000244141 2.84874 -0.000244141C3.60429 -0.000244141 4.32887 0.299891 4.86312 0.834132C5.39736 1.36838 5.6975 2.09297 5.6975 2.84851Z" fill="black"/>
</g>
<defs>
<clipPath id="clip0_1_62482">
<rect width="5.84743" height="24.6892" fill="white"/>
</clipPath>
</defs>
</svg>
