<svg width="22" height="24" viewBox="0 0 22 24" fill="none" xmlns="http://www.w3.org/2000/svg">
<g clip-path="url(#clip0_1_62484)">
<path d="M18.156 6.91772H3.70801V20.563C3.70801 21.45 4.4264 22.1683 5.31334 22.1683H16.5507C17.4376 22.1683 18.156 21.45 18.156 20.563V6.91772Z" stroke="black" stroke-width="1.60533" stroke-miterlimit="10" stroke-linecap="round" stroke-linejoin="round"/>
<path d="M14.141 4.50901H7.71973V2.90367C7.71973 2.01673 8.43812 1.29834 9.32504 1.29834H12.5357C13.4227 1.29834 14.141 2.01673 14.141 2.90367V4.50901Z" stroke="black" stroke-width="1.60533" stroke-miterlimit="10" stroke-linecap="round" stroke-linejoin="round"/>
<path d="M20.5638 6.91803H1.2998V5.31267C1.2998 4.8696 1.6594 4.51001 2.10247 4.51001H19.7611C20.2042 4.51001 20.5638 4.8696 20.5638 5.31267V6.91803Z" stroke="black" stroke-width="1.60533" stroke-miterlimit="10" stroke-linecap="round" stroke-linejoin="round"/>
<path d="M10.9316 10.9321V18.1561" stroke="black" stroke-width="1.60533" stroke-miterlimit="10" stroke-linecap="round" stroke-linejoin="round"/>
<path d="M7.71973 10.9321V18.1561" stroke="black" stroke-width="1.60533" stroke-miterlimit="10" stroke-linecap="round" stroke-linejoin="round"/>
<path d="M14.1436 10.9321V18.1561" stroke="black" stroke-width="1.60533" stroke-miterlimit="10" stroke-linecap="round" stroke-linejoin="round"/>
</g>
<defs>
<clipPath id="clip0_1_62484">
<rect width="21.4406" height="23.3897" fill="white"/>
</clipPath>
</defs>
</svg>
