<svg width="5" height="5" viewBox="0 0 5 5" fill="none" xmlns="http://www.w3.org/2000/svg">
<path d="M3.42327 4.50002H0.684655C0.503073 4.50002 0.328928 4.42789 0.200531 4.29949C0.0721331 4.17109 0 3.99695 0 3.81536V1.07674C0 0.895163 0.0721331 0.721018 0.200531 0.592621C0.328928 0.464223 0.503073 0.39209 0.684655 0.39209H1.59753C1.65806 0.39209 1.7161 0.416134 1.7589 0.458933C1.8017 0.501733 1.82575 0.559781 1.82575 0.620308C1.82575 0.680835 1.8017 0.738884 1.7589 0.781683C1.7161 0.824482 1.65806 0.848526 1.59753 0.848526H0.684655C0.624128 0.848526 0.566079 0.872571 0.52328 0.91537C0.480481 0.958169 0.456437 1.01622 0.456437 1.07674V3.81536C0.456437 3.87589 0.480481 3.93394 0.52328 3.97674C0.566079 4.01954 0.624128 4.04358 0.684655 4.04358H3.42327C3.4838 4.04358 3.54185 4.01954 3.58465 3.97674C3.62745 3.93394 3.65149 3.87589 3.65149 3.81536V2.90249C3.65149 2.84196 3.67554 2.78392 3.71834 2.74112C3.76113 2.69832 3.81918 2.67427 3.87971 2.67427C3.94024 2.67427 3.99829 2.69832 4.04109 2.74112C4.08388 2.78392 4.10793 2.84196 4.10793 2.90249V3.81536C4.10793 3.99695 4.0358 4.17109 3.9074 4.29949C3.779 4.42789 3.60486 4.50002 3.42327 4.50002Z" fill="black"/>
<path fill-rule="evenodd" clip-rule="evenodd" d="M3.04534 0.891777L1.90441 2.03243C1.84364 2.08618 1.80605 2.16138 1.8 2.23017V2.70043L2.2596 2.70072C2.33973 2.69504 2.41432 2.65775 2.47422 2.58924L3.6085 1.45495L3.04534 0.891777ZM3.2575 0.679671L3.82063 1.24282L4.17971 0.883741C4.1927 0.87075 4.2 0.853131 4.2 0.83476C4.2 0.816388 4.1927 0.798769 4.17971 0.785778L3.71416 0.320228C3.70132 0.307281 3.68383 0.299999 3.6656 0.299999C3.64736 0.299999 3.62988 0.307281 3.61703 0.320228L3.2575 0.679671ZM3.6656 0C3.76381 0 3.85795 0.0392129 3.92671 0.108513L4.39184 0.573647C4.46109 0.642898 4.5 0.736823 4.5 0.83476C4.5 0.932696 4.46109 1.02662 4.39184 1.09587L2.69362 2.79356C2.58885 2.91442 2.44033 2.98867 2.27019 3.00034H1.5V2.85034L1.50049 2.21809C1.51327 2.05992 1.5868 1.91284 1.69897 1.81401L3.4043 0.108694C3.47345 0.0391243 3.5675 0 3.6656 0Z" fill="black"/>
</svg>
