<svg width="28" height="28" viewBox="0 0 28 28" fill="none" xmlns="http://www.w3.org/2000/svg">
<g clip-path="url(#clip0_1_62467)">
<path d="M21.9136 7.14689C22.8922 7.14689 23.6855 6.35358 23.6855 5.37497C23.6855 4.39635 22.8922 3.60303 21.9136 3.60303C20.9349 3.60303 20.1416 4.39635 20.1416 5.37497C20.1416 6.35358 20.9349 7.14689 21.9136 7.14689Z" stroke="black" stroke-width="1.18129" stroke-miterlimit="10" stroke-linecap="round"/>
<path d="M26.639 2.12676C26.639 1.31108 25.978 0.650146 25.1624 0.650146C25.0702 0.650146 16.3759 0.651329 16.3759 0.651329C15.5903 0.651329 14.8385 0.609982 14.4026 1.04588L0.977756 14.4701C0.541269 14.906 0.541269 15.6136 0.977756 16.0495L11.2396 26.3113C11.6755 26.7472 12.3831 26.7472 12.819 26.3113L26.2432 12.8865C26.6791 12.4512 26.6378 11.7171 26.6378 10.9138C26.6378 10.9138 26.639 2.2189 26.639 2.12676Z" stroke="black" stroke-width="1.18129" stroke-miterlimit="10" stroke-linecap="round"/>
<path d="M10.1651 15.0875C10.1686 15.5955 10.3322 16.0768 10.6553 16.5292L13.2287 13.9559C12.97 13.5288 12.7663 13.1407 12.6174 12.791C12.4674 12.4402 12.3812 12.1142 12.3545 11.8094C12.3292 11.5053 12.3776 11.2141 12.5011 10.9358C12.6239 10.6571 12.8277 10.3753 13.1124 10.0901C13.4036 9.79885 13.7225 9.58386 14.0686 9.44449C14.4147 9.30507 14.7662 9.23535 15.1223 9.23535C15.4785 9.23535 15.8293 9.30448 16.176 9.44449C16.5222 9.58327 16.8441 9.78293 17.1424 10.0416L17.7832 9.40077L18.3172 9.93529L17.6663 10.5862C18.1258 11.1751 18.3491 11.7864 18.3367 12.4207C18.3237 13.0551 18.0969 13.7225 17.6568 14.4212L16.8317 13.5961C17.3426 12.8253 17.3562 12.0876 16.8706 11.3824L14.4815 13.7715L14.9085 14.5087C15.006 14.6711 15.1011 14.8802 15.1956 15.1359C15.2889 15.3911 15.3456 15.671 15.3651 15.9758C15.3846 16.2794 15.3444 16.5954 15.244 16.9226C15.1436 17.2498 14.944 17.5617 14.6463 17.8594C14.3291 18.1766 13.9942 18.4052 13.641 18.5439C13.2884 18.6834 12.9287 18.7483 12.5637 18.7383C12.1974 18.7283 11.8336 18.6461 11.4703 18.4908C11.1083 18.3349 10.7587 18.1151 10.422 17.8311L9.62581 18.6272L9.09129 18.0933L9.88745 17.2965C9.30505 16.5842 9.01508 15.8447 9.01859 15.0775C9.02157 14.3102 9.33753 13.5607 9.96542 12.8289L10.7906 13.654C10.3712 14.1017 10.1621 14.5796 10.1651 15.0875ZM11.787 17.4672C11.9914 17.5676 12.1987 17.6243 12.4137 17.6367C12.6268 17.6497 12.8407 17.6108 13.0545 17.5204C13.2677 17.43 13.4786 17.2812 13.6859 17.0738C13.8725 16.886 13.9977 16.6964 14.0598 16.5051C14.1212 16.3143 14.1418 16.1188 14.1224 15.9179C14.1029 15.7172 14.0456 15.5086 13.9523 15.2913C13.859 15.0739 13.7497 14.853 13.6268 14.6268L11.1898 17.0638C11.3835 17.2315 11.5832 17.3668 11.787 17.4672ZM15.2393 10.3629C14.8318 10.3369 14.4425 10.5082 14.074 10.8774C13.9056 11.0457 13.7892 11.2176 13.7243 11.3924C13.6593 11.5667 13.6369 11.745 13.6558 11.9258C13.6753 12.1077 13.7237 12.2949 13.8017 12.4893C13.8796 12.6836 13.9765 12.8844 14.0929 13.0911L16.3657 10.8189C16.0219 10.5407 15.6474 10.3883 15.2393 10.3629Z" fill="black"/>
</g>
<defs>
<clipPath id="clip0_1_62467">
<rect width="27.288" height="27.288" fill="white"/>
</clipPath>
</defs>
</svg>
