<svg width="23" height="25" viewBox="0 0 23 25" fill="none" xmlns="http://www.w3.org/2000/svg">
<g clip-path="url(#clip0_1_62475)">
<path d="M20.3771 1.29907H15.8586C15.304 1.29907 14.8545 1.74862 14.8545 2.30317V22.3852C14.8545 22.9398 15.304 23.3894 15.8586 23.3894H20.3771C20.9316 23.3894 21.3811 22.9398 21.3811 22.3852V2.30317C21.3811 1.74862 20.9316 1.29907 20.3771 1.29907Z" stroke="black" stroke-width="2.00821" stroke-linecap="round" stroke-linejoin="round"/>
<path d="M6.82042 1.29907H2.30195C1.7474 1.29907 1.29785 1.74862 1.29785 2.30317V22.3852C1.29785 22.9398 1.7474 23.3894 2.30195 23.3894H6.82042C7.37496 23.3894 7.82456 22.9398 7.82456 22.3852V2.30317C7.82456 1.74862 7.37496 1.29907 6.82042 1.29907Z" stroke="black" stroke-width="2.00821" stroke-linecap="round" stroke-linejoin="round"/>
</g>
<defs>
<clipPath id="clip0_1_62475">
<rect width="22.74" height="24.6892" fill="white"/>
</clipPath>
</defs>
</svg>
