<svg width="74" height="74" viewBox="0 0 74 74" fill="none" xmlns="http://www.w3.org/2000/svg">
<g clip-path="url(#clip0_226_2)">
<path d="M45.9407 36.6106L50.6143 31.937L36.5932 17.9158L22.5723 31.937L27.2459 36.6106L33.2884 30.5678V55.4766H39.8979V30.5678L45.9407 36.6106Z" fill="black"/>
<path fill-rule="evenodd" clip-rule="evenodd" d="M62.2946 11.0771C48.0979 -3.11945 25.0808 -3.11945 10.8842 11.0771C-3.31233 25.2737 -3.31233 48.2908 10.8842 62.4875C25.0808 76.6836 48.0979 76.6836 62.2946 62.4875C76.4912 48.2908 76.4912 25.2737 62.2946 11.0771ZM57.621 15.7508C46.0054 4.1354 27.1733 4.1354 15.5579 15.7508C3.94252 27.3661 3.94252 46.1982 15.5579 57.8139C27.1733 69.429 46.0054 69.429 57.621 57.8139C69.2366 46.1982 69.2366 27.3661 57.621 15.7508Z" fill="black"/>
</g>
<defs>
<clipPath id="clip0_226_2">
<rect width="73.3271" height="73.3271" fill="white"/>
</clipPath>
</defs>
</svg>
