<svg width="79" height="76" viewBox="0 0 79 76" fill="none" xmlns="http://www.w3.org/2000/svg">
<path d="M37.5452 0V6.35086H25.2897V13.5932H18.7688V36.1356H12.9732V29.0039H9.06367V36.1356H0V74.9111H18.7688H22.686H31.91H46.5937H59.7349H79V36.1356H69.6767V29.0039H65.7671V36.1356H59.7349V13.5932H52.7176V6.35086H41.4547V0H37.5452ZM29.1993 9.88913H48.808V13.5932H29.1993V9.88913ZM22.6784 17.1383H55.8177V71.366H46.5937V58.2219H31.91V71.366H22.686V36.1356H22.6782L22.6784 17.1383ZM3.90953 39.6808H18.7688V71.366H3.90953V39.6808ZM59.7349 39.6808H75.0905V71.366H59.7349V39.6808ZM35.8272 61.7671H42.6765V71.366H35.8272V61.7671Z" fill="black"/>
<path d="M29.5366 22.0917C29.5366 25.6868 29.5366 29.2819 29.5366 32.8771C35.8478 32.8771 42.1591 32.8771 48.4703 32.8771C48.4703 29.2819 48.4703 25.6868 48.4703 22.0917C42.1591 22.0917 35.8478 22.0917 29.5366 22.0917ZM33.4524 25.6359C37.1531 25.6359 40.8538 25.6359 44.5545 25.6359C44.5545 26.8705 44.5545 28.105 44.5545 29.3395C40.8538 29.3395 37.1531 29.3395 33.4524 29.3395C33.4524 28.105 33.4524 26.8705 33.4524 25.6359Z" fill="black"/>
<path d="M29.5366 38.6383C29.5366 42.2334 29.5366 45.8285 29.5366 49.4237C35.8478 49.4237 42.1591 49.4237 48.4703 49.4237C48.4703 45.8285 48.4703 42.2334 48.4703 38.6383C42.1591 38.6383 35.8478 38.6383 29.5366 38.6383ZM33.4524 42.1759C37.1531 42.1759 40.8538 42.1759 44.5545 42.1759C44.5545 43.4104 44.5545 44.6449 44.5545 45.8794C40.8538 45.8794 37.1531 45.8794 33.4524 45.8794C33.4524 44.6449 33.4524 43.4104 33.4524 42.1759Z" fill="black"/>
<path d="M7.5083 53.7542C7.5083 54.9334 7.5083 56.1126 7.5083 57.2918C10.0626 57.2918 12.617 57.2918 15.1712 57.2918C15.1712 56.1126 15.1712 54.9334 15.1712 53.7542C12.617 53.7542 10.0626 53.7542 7.5083 53.7542Z" fill="black"/>
<path d="M7.5083 46.0619C7.5083 47.2433 7.5083 48.4247 7.5083 49.6061C10.0626 49.6061 12.617 49.6061 15.1712 49.6061C15.1712 48.4247 15.1712 47.2433 15.1712 46.0619C12.617 46.0619 10.0626 46.0619 7.5083 46.0619Z" fill="black"/>
<path d="M7.5083 61.4412C7.5083 62.6204 7.5083 63.7996 7.5083 64.9788C10.0626 64.9788 12.617 64.9788 15.1712 64.9788C15.1712 63.7996 15.1712 62.6204 15.1712 61.4412C12.617 61.4412 10.0626 61.4412 7.5083 61.4412Z" fill="black"/>
<path d="M63.5776 53.7542C63.5776 54.9334 63.5776 56.1126 63.5776 57.2918C66.1319 57.2918 68.6862 57.2918 71.2405 57.2918C71.2405 56.1126 71.2405 54.9334 71.2405 53.7542C68.6862 53.7542 66.1319 53.7542 63.5776 53.7542Z" fill="black"/>
<path d="M63.5776 46.0619C63.5776 47.2433 63.5776 48.4247 63.5776 49.6061C66.1319 49.6061 68.6862 49.6061 71.2405 49.6061C71.2405 48.4247 71.2405 47.2433 71.2405 46.0619C68.6862 46.0619 66.1319 46.0619 63.5776 46.0619Z" fill="black"/>
<path d="M63.5776 61.4412C63.5776 62.6204 63.5776 63.7996 63.5776 64.9788C66.1319 64.9788 68.6862 64.9788 71.2405 64.9788C71.2405 63.7996 71.2405 62.6204 71.2405 61.4412C68.6862 61.4412 66.1319 61.4412 63.5776 61.4412Z" fill="black"/>
</svg>
