<svg width="79" height="80" viewBox="0 0 79 80" fill="none" xmlns="http://www.w3.org/2000/svg">
<path d="M78.1885 33.1295L76.3432 37.6942C75.7604 39.2481 75.7604 40.8992 76.3432 42.4531L78.1885 47.0178C79.2568 49.7372 78.3827 52.845 75.9547 54.5932L71.8756 57.4097C70.5159 58.3809 69.6418 59.8377 69.2533 61.3917L68.3793 66.2477C67.7965 69.1614 65.3685 71.298 62.4549 71.3951L57.5017 71.5894C55.8506 71.6865 54.2967 72.3663 53.1313 73.5318L49.732 77.1253C47.6925 79.2619 44.4875 79.7475 41.9624 78.2907L37.689 75.7656C36.2322 74.8915 34.5812 74.6972 32.9301 75.0857L28.0741 76.2512C25.2575 76.931 22.2468 75.5713 20.8871 72.9491L18.6533 68.4815C17.8764 67.0247 16.6138 65.8592 15.0598 65.3736L10.398 63.8197C7.58154 62.8485 5.83336 60.1291 6.12472 57.2155L6.61033 52.2623C6.80457 50.6113 6.31896 48.9602 5.25063 47.6976L2.14276 43.8128C0.297465 41.4819 0.297465 38.2769 2.14276 35.946L5.25063 32.0612C6.31896 30.7986 6.80457 29.1475 6.61033 27.4965L6.12472 22.5433C5.83336 19.6297 7.58154 16.9103 10.398 15.9391L15.0598 14.3851C16.6138 13.8995 17.8764 12.7341 18.6533 11.2773L20.8871 6.80971C22.2468 4.18744 25.1604 2.82775 28.0741 3.50759L32.9301 4.67305C34.484 5.06153 36.2322 4.86729 37.689 3.9932L41.9624 1.46806C44.4875 0.0112423 47.6925 0.399725 49.732 2.63351L53.1313 6.22698C54.2967 7.39243 55.8506 8.1694 57.5017 8.1694L62.4549 8.36364C65.3685 8.46076 67.8936 10.5974 68.3793 13.5111L69.2533 18.3671C69.5447 20.0182 70.5159 21.475 71.8756 22.3491L75.9547 25.1656C78.3827 27.3022 79.3539 30.4101 78.1885 33.1295Z" fill="#E1BB3D"/>
<g opacity="0.15">
<path d="M23.7036 72.6587L21.4698 68.1911C20.6929 66.7343 19.4303 65.5688 17.8764 65.0832L13.2145 63.5293C10.398 62.5581 8.64987 59.8387 8.94123 56.9251L9.42683 51.9719C9.62108 50.3208 9.13547 48.6698 8.06714 47.4072L4.95927 43.5224C3.11397 41.1915 3.11397 37.9865 4.95927 35.6556L8.06714 31.7707C9.13547 30.5082 9.62108 28.8571 9.42683 27.206L8.94123 22.2529C8.64987 19.3392 10.398 16.6199 13.2145 15.6487L17.8764 14.0947C19.4303 13.6091 20.6929 12.4437 21.4698 10.9868L23.7036 6.51928C24.4806 4.96535 25.8403 3.89702 27.2971 3.41141C24.6748 3.02293 22.0526 4.38262 20.8871 6.81065L18.6533 11.2782C17.8764 12.735 16.6138 13.9005 15.0598 14.3861L10.398 15.94C7.58154 16.9112 5.83336 19.6306 6.12472 22.5442L6.61033 27.4974C6.80457 29.1485 6.31896 30.7995 5.25063 32.0621L2.14276 35.9469C0.297464 38.2778 0.297464 41.4828 2.14276 43.8137L5.25063 47.6986C6.31896 48.9611 6.80457 50.6122 6.61033 52.2633L6.12472 57.2164C5.83336 60.1301 7.58154 62.8494 10.398 63.8206L15.0598 65.3746C16.6138 65.8602 17.8764 67.0256 18.6533 68.4825L20.8871 72.95C22.2468 75.5723 25.1604 76.932 28.0741 76.2521L28.6568 76.155C26.5201 75.7665 24.6748 74.6011 23.7036 72.6587Z" fill="black"/>
<path d="M40.4087 3.70117L44.682 1.17603C45.0705 0.981784 45.459 0.787542 45.8475 0.690421C44.4878 0.496179 43.031 0.787543 41.8655 1.46739L37.5922 3.99253C37.2037 4.18678 36.8152 4.38102 36.4268 4.47814C37.7865 4.67238 39.1461 4.47814 40.4087 3.70117Z" fill="black"/>
<path d="M60.222 71.2006C59.7364 71.2006 59.2508 71.2977 58.8623 71.3948L62.3587 71.2006C62.8443 71.2006 63.2327 71.1035 63.7184 71.0063L60.222 71.2006Z" fill="black"/>
<path d="M44.6814 77.9031L40.4081 75.378C38.9512 74.5039 37.3002 74.3096 35.6491 74.6981L35.0664 74.7952C35.9405 74.8924 36.7175 75.1837 37.4944 75.5722L41.7678 78.0973C43.4188 79.0686 45.2641 79.1657 47.0123 78.5829C46.2353 78.5829 45.4583 78.3887 44.6814 77.9031Z" fill="black"/>
</g>
<path d="M24.2891 33.9072L36.4292 47.7955L61.2921 27.7886" fill="#E1BB3D"/>
<path d="M66.4297 39.9863C66.4297 53.9651 55.0434 65.2989 40.9955 65.2989C26.9477 65.2989 15.5613 53.9651 15.5613 39.9863C15.5613 26.0074 26.9477 14.6736 40.9955 14.6736C55.0434 14.6736 66.4297 26.0074 66.4297 39.9863Z" fill="#EDCB48" stroke="#C4A238" stroke-width="0.425422"/>
<path d="M39.1366 51.4143C38.2 51.643 37.1655 51.4702 36.317 50.8976L25.6199 43.3726C24.0729 42.2618 23.7005 40.1553 24.7281 38.5577C25.839 37.0107 27.9454 36.6383 29.5431 37.6659L37.5785 43.2889L49.3547 27.9391C50.482 26.459 52.6716 26.1371 54.1681 27.3313C55.6645 28.5254 55.9701 30.6481 54.7759 32.1446L41.0307 50.1723C40.543 50.7875 39.8724 51.2347 39.1366 51.4143Z" fill="white"/>
</svg>
