<svg width="103" height="93" viewBox="0 0 103 93" fill="none" xmlns="http://www.w3.org/2000/svg">
<path d="M72.9937 60.9393V65.8571H50.4308V61.6451L61.1772 50.079C62.2701 48.8344 63.1353 47.7491 63.7728 46.8232C64.4103 45.8973 64.8656 45.0625 65.1388 44.3187C65.4272 43.5598 65.5714 42.8388 65.5714 42.1558C65.5714 41.1388 65.3969 40.2585 65.0478 39.5147C64.6986 38.771 64.1902 38.1942 63.5223 37.7844C62.8545 37.3746 62.0348 37.1696 61.0634 37.1696C60.0009 37.1696 59.0902 37.4201 58.3312 37.921C57.5875 38.4219 57.0183 39.1125 56.6237 39.9929C56.2442 40.8732 56.0545 41.875 56.0545 42.9982H49.7705C49.7705 41.025 50.2259 39.2263 51.1366 37.6022C52.0625 35.9781 53.383 34.6804 55.0982 33.7089C56.8134 32.7223 58.8397 32.229 61.1772 32.229C63.4844 32.229 65.4272 32.6085 67.0058 33.3674C68.5995 34.1112 69.8062 35.1812 70.6259 36.5777C71.4455 37.9741 71.8553 39.6286 71.8553 41.5411C71.8553 42.6187 71.6808 43.6812 71.3317 44.7286C70.9826 45.7607 70.4893 46.7853 69.8518 47.8022C69.2143 48.8192 68.4553 49.8513 67.575 50.8986C66.6946 51.9308 65.708 52.9933 64.6152 54.0861L58.4906 60.9393H72.9937ZM100.224 53.6308V58.5486H76.3406L76.0674 54.7464L90.0013 32.7071H94.9875L89.5687 41.8143L82.3513 53.6308H100.224ZM96.3763 32.7071V65.8571H90.0924V32.7071H96.3763Z" fill="#ED1C24"/>
<mask id="mask0_71_2" style="mask-type:luminance" maskUnits="userSpaceOnUse" x="0" y="17" width="68" height="68">
<path d="M33.6104 17.0286L67.2207 50.639L33.6104 84.2494L0 50.639L33.6104 17.0286Z" fill="white"/>
</mask>
<g mask="url(#mask0_71_2)">
<path d="M42.1333 74.8959C41.7219 75.7974 41.1608 76.6448 40.4463 77.4032C40.3818 77.478 40.3109 77.5489 40.2386 77.6212C36.5795 81.2803 30.644 81.2803 26.9849 77.6212C12.0814 62.7178 12.0814 38.5576 26.9836 23.6555C30.6427 19.9963 36.5782 19.9963 40.2373 23.6555C40.3109 23.729 40.3805 23.7986 40.4463 23.8747C41.1608 24.6331 41.7245 25.4831 42.1346 26.3833L33.8516 39.6423C33.8452 39.6487 33.84 39.6487 33.8323 39.6462L27.2183 37.1337L27.2002 37.1259C22.9182 45.5946 22.9182 55.6807 27.2002 64.152L27.2196 64.143L33.8375 61.6318L42.1333 74.8959Z" fill="#ED1C24"/>
</g>
<path d="M45.1715 21.3999C42.2573 17.9028 38.1287 17.0285 36.4287 17.0285C43.423 10.6171 55.3715 9.01425 60.4715 9.01428V1L80.8715 13.3857L60.4715 25.0428V17.0285C51.7287 16.4457 46.6287 19.6999 45.1715 21.3999Z" fill="black" stroke="black" stroke-width="0.145714"/>
<path d="M38.1428 85.6521C43.1222 83.8077 45.598 81.0292 46.2135 79.8705C57.6166 85.6986 70.6855 79.8806 75.7946 76.2431C81.0991 75.6411 81.9567 79.545 81.2202 81.9119C65.5849 94.4046 45.9872 89.6107 38.1428 85.6521Z" fill="black" stroke="black" stroke-width="0.145714"/>
</svg>
