<svg width="6" height="6" viewBox="0 0 6 6" fill="none" xmlns="http://www.w3.org/2000/svg">
<path d="M5.53107 0.468804C5.38349 0.32024 5.20799 0.202336 5.01466 0.121879C4.82133 0.0414211 4.61399 0 4.40459 0C4.19519 0 3.98785 0.0414211 3.79452 0.121879C3.60119 0.202336 3.42569 0.32024 3.27811 0.468804L2.67119 1.07572C2.62892 1.12237 2.60622 1.18348 2.60777 1.24641C2.60931 1.30934 2.635 1.36926 2.67951 1.41377C2.72402 1.45828 2.78395 1.48397 2.84688 1.48552C2.9098 1.48707 2.97092 1.46436 3.01756 1.4221L3.62448 0.815177C3.83181 0.609089 4.11226 0.493414 4.40459 0.493414C4.69692 0.493414 4.97737 0.609089 5.18469 0.815177C5.28748 0.917433 5.36904 1.03899 5.42469 1.17287C5.48035 1.30674 5.509 1.4503 5.509 1.59528C5.509 1.74027 5.48035 1.88382 5.42469 2.0177C5.36904 2.15157 5.28748 2.27313 5.18469 2.37539L4.31723 3.24285C4.1099 3.44894 3.82945 3.56462 3.53712 3.56462C3.2448 3.56462 2.96434 3.44894 2.75702 3.24285C2.73471 3.21824 2.70764 3.19841 2.67744 3.18457C2.64724 3.17074 2.61454 3.16318 2.58133 3.16236C2.54813 3.16154 2.5151 3.16748 2.48425 3.17982C2.45341 3.19215 2.42539 3.21062 2.4019 3.23411C2.37841 3.2576 2.35994 3.28562 2.34761 3.31646C2.33527 3.34731 2.32933 3.38033 2.33015 3.41354C2.33097 3.44675 2.33853 3.47945 2.35236 3.50965C2.3662 3.53985 2.38603 3.56692 2.41064 3.58923C2.70952 3.88778 3.11468 4.05548 3.53712 4.05548C3.95957 4.05548 4.36473 3.88778 4.6636 3.58923L5.53107 2.72176C5.67963 2.57419 5.79754 2.39868 5.87799 2.20535C5.95845 2.01202 5.99987 1.80469 5.99987 1.59528C5.99987 1.38588 5.95845 1.17854 5.87799 0.985215C5.79754 0.791885 5.67963 0.61638 5.53107 0.468804Z" fill="black"/>
<path d="M3.01771 4.54244L2.41079 5.14936C2.20241 5.34899 1.92413 5.45905 1.63558 5.45596C1.34702 5.45287 1.07116 5.33687 0.867114 5.13282C0.663065 4.92877 0.547065 4.65291 0.543973 4.36436C0.540881 4.07581 0.650945 3.79752 0.850575 3.58915L1.71804 2.72168C1.92537 2.5156 2.20582 2.39992 2.49815 2.39992C2.79047 2.39992 3.07093 2.5156 3.27825 2.72168C3.3249 2.76395 3.38601 2.78666 3.44894 2.78511C3.51187 2.78356 3.57179 2.75787 3.6163 2.71336C3.66081 2.66885 3.6865 2.60893 3.68805 2.546C3.6896 2.48307 3.66689 2.42196 3.62462 2.37531C3.32575 2.07676 2.92059 1.90906 2.49815 1.90906C2.0757 1.90906 1.67054 2.07676 1.37167 2.37531L0.504201 3.24278C0.348251 3.38887 0.22327 3.56483 0.136689 3.7602C0.0501088 3.95557 0.00369637 4.16635 0.000211928 4.38002C-0.00327251 4.59368 0.0362422 4.80586 0.116406 5.00395C0.196571 5.20204 0.315748 5.38198 0.466851 5.53308C0.617955 5.68419 0.797899 5.80336 0.995986 5.88353C1.19407 5.96369 1.40626 6.00321 1.61992 5.99972C1.83358 5.99624 2.04437 5.94983 2.23973 5.86325C2.4351 5.77667 2.61106 5.65168 2.75716 5.49573L3.36408 4.88881C3.40634 4.84217 3.42905 4.78105 3.4275 4.71813C3.42595 4.6552 3.40027 4.59527 3.35576 4.55076C3.31124 4.50625 3.25132 4.48056 3.18839 4.47902C3.12547 4.47747 3.06435 4.50017 3.01771 4.54244Z" fill="black"/>
</svg>
