<svg width="70" height="70" viewBox="0 0 70 70" fill="none" xmlns="http://www.w3.org/2000/svg">
<path d="M53.2511 70.001H10.6502C7.8256 70.001 5.11668 68.879 3.11938 66.8817C1.12207 64.8844 0 62.1754 0 59.3508V16.7499C0 13.9253 1.12207 11.2164 3.11938 9.21911C5.11668 7.2218 7.8256 6.09973 10.6502 6.09973H24.8505C25.792 6.09973 26.695 6.47376 27.3608 7.13952C28.0266 7.80529 28.4006 8.70827 28.4006 9.6498C28.4006 10.5913 28.0266 11.4943 27.3608 12.1601C26.695 12.8259 25.792 13.1999 24.8505 13.1999H10.6502C9.70868 13.1999 8.8057 13.5739 8.13994 14.2397C7.47417 14.9054 7.10014 15.8084 7.10014 16.7499V59.3508C7.10014 60.2924 7.47417 61.1953 8.13994 61.8611C8.8057 62.5269 9.70868 62.9009 10.6502 62.9009H53.2511C54.1926 62.9009 55.0956 62.5269 55.7614 61.8611C56.4271 61.1953 56.8012 60.2924 56.8012 59.3508V45.1505C56.8012 44.209 57.1752 43.306 57.8409 42.6402C58.5067 41.9745 59.4097 41.6005 60.3512 41.6005C61.2928 41.6005 62.1957 41.9745 62.8615 42.6402C63.5273 43.306 63.9013 44.209 63.9013 45.1505V59.3508C63.9013 62.1754 62.7792 64.8844 60.7819 66.8817C58.7846 68.879 56.0757 70.001 53.2511 70.001Z" fill="#D1252B"/>
<path fill-rule="evenodd" clip-rule="evenodd" d="M47.3718 13.8721L29.6239 31.6157C28.6786 32.4518 28.0937 33.6216 27.9997 34.6916V42.0069L35.149 42.0113C36.3955 41.923 37.5558 41.3429 38.4875 40.2771L56.132 22.6327L47.3718 13.8721ZM50.672 10.5727L59.4318 19.3328L65.0175 13.7471C65.2196 13.545 65.3331 13.271 65.3331 12.9852C65.3331 12.6994 65.2196 12.4253 65.0175 12.2233L57.7756 4.98133C57.5758 4.77994 57.3039 4.66667 57.0202 4.66667C56.7365 4.66667 56.4645 4.77994 56.2647 4.98133L50.672 10.5727ZM57.0202 0C58.5479 0 60.0124 0.60998 61.0819 1.68799L68.3174 8.92342C69.3946 10.0007 69.9998 11.4617 69.9998 12.9852C69.9998 14.5086 69.3946 15.9697 68.3174 17.047L41.9005 43.4554C40.2707 45.3355 37.9604 46.4906 35.3137 46.6721H23.333V44.3388L23.3406 34.5037C23.5394 32.0433 24.6832 29.7555 26.4282 28.218L52.9556 1.6908C54.0313 0.608602 55.4942 0 57.0202 0Z" fill="#D1252B"/>
</svg>
