<svg width="120" height="74" viewBox="0 0 120 74" fill="none" xmlns="http://www.w3.org/2000/svg">
<path d="M87.3896 51.6104L84.959 45.7771C84.959 45.7771 68.1248 28.3337 67.8313 28.1507L48.4214 21.6166C47.8343 21.4177 47.2408 21.2472 46.6411 21.102L43.4592 20.3413C41.4359 19.8552 39.5198 18.9997 37.8027 17.8223L35.7698 16.424L18.7969 36.2127L21.019 38.6558C22.0607 39.7985 22.9761 41.0517 23.7526 42.39L26.7515 47.5542C35.9246 58.8895 40.9718 62.3176 53.0805 70.8593C54.2485 71.6832 56.0541 72.0904 57.4303 72.4124C57.7775 72.4882 58.1311 72.5356 58.4846 72.5356C59.8072 72.5356 61.1268 72.0178 62.1148 70.9856C63.169 69.8777 63.5951 68.4161 63.4499 67.0052C64.4759 67.9836 65.7227 68.4445 66.9665 68.4445C68.289 68.4445 69.6085 67.9238 70.5933 66.8916C71.6475 65.7866 72.077 64.3252 71.9318 62.9111C72.9576 63.8928 74.2014 64.3536 75.4482 64.3536C76.7676 64.3536 78.0902 63.8327 79.075 62.8005C80.1294 61.6926 80.5587 60.2311 80.4135 58.8201C81.4363 59.7987 82.6831 60.2596 83.9267 60.2596C85.2494 60.2596 86.5688 59.7387 87.5537 58.7065C89.4666 56.702 89.394 53.5266 87.3896 51.6104Z" fill="#FABB85"/>
<path d="M48.4201 21.6166C47.8329 21.4177 47.2395 21.2472 46.6398 21.102L43.458 20.3413C41.4346 19.8552 39.5185 18.9997 37.8013 17.8223L35.7686 16.424L34.4995 17.9013L39.0608 21.1714L45.6675 22.5793C46.2611 22.7214 46.8544 22.8918 47.4478 23.0812L50.9958 24.2775C51.5041 23.8166 52.0439 23.3873 52.6341 23.0339L48.4201 21.6166Z" fill="#FAD5B4"/>
<path d="M84.9582 45.7763C84.9582 45.7763 68.1241 28.333 67.8305 28.1499L52.6379 23.0363C51.0722 23.9612 49.7685 25.2963 48.8877 26.9189L44.6232 34.7819C43.4111 37.0199 43.935 39.8799 45.9932 41.3729C46.9022 42.0326 47.9345 42.3389 48.951 42.3389C50.7281 42.3389 52.4515 41.3887 53.3607 39.7126L57.7199 31.6759L65.4788 29.018C67.0287 29.16 68.91 30.3816 70.0432 31.4674L86.4323 49.3148L84.9582 45.7763ZM53.3102 56.8055C51.8108 55.0504 49.1718 54.8484 47.42 56.351L40.889 61.957C42.9565 63.6111 45.1883 65.2557 47.7482 67.0865L52.8588 62.7019C54.6107 61.1995 54.8128 58.5605 53.3102 56.8055ZM47.0191 50.4038C45.5165 48.6488 42.8776 48.4467 41.1289 49.9493L34.4589 55.6723C34.3549 55.7606 34.2791 55.8616 34.1876 55.9595C36.2456 58.0334 38.2532 59.8295 40.4124 61.5782L46.5644 56.3004C48.3165 54.7978 48.5216 52.159 47.0191 50.4038ZM50.8353 65.1704L48.43 67.2317C48.3574 67.2948 48.3037 67.3674 48.2375 67.4337C49.7305 68.4975 51.3246 69.6181 53.0797 70.8586C53.8025 71.37 54.7684 71.7204 55.7282 71.9886L56.271 71.5215C58.0229 70.0158 58.2281 67.3769 56.7256 65.6218C55.223 63.8699 52.5842 63.6678 50.8353 65.1704ZM37.9059 46.4898C36.4067 44.7378 33.7677 44.5359 32.0158 46.0383L28.6508 48.9267C28.4963 49.0592 28.3668 49.2107 28.2373 49.3591C30.2103 51.7296 32.0095 53.7277 33.7551 55.5143C33.8656 55.4355 33.9823 55.3661 34.0897 55.2776L37.4546 52.3894C39.2066 50.8868 39.4085 48.2448 37.9059 46.4898Z" fill="#CF8B50"/>
<mask id="mask0_251_260" style="mask-type:luminance" maskUnits="userSpaceOnUse" x="26" y="45" width="31" height="29">
<path d="M26.2139 45.3286H56.0659V73.9999H26.2139V45.3286Z" fill="white"/>
</mask>
<g mask="url(#mask0_251_260)">
<path d="M55.0237 65.0439C53.5243 63.2888 50.8853 63.0899 49.1335 64.5893L46.7282 66.6537C44.9762 68.1563 44.7743 70.7984 46.2767 72.5503C47.1006 73.5162 48.2718 74.0117 49.4491 74.0117C50.4119 74.0117 51.381 73.6803 52.1669 73.0048L54.5724 70.9404C56.3242 69.4379 56.5263 66.7989 55.0237 65.0439ZM52.1607 56.5085C50.6233 54.7093 47.9151 54.504 46.1189 56.0412L39.2787 61.9062C37.4793 63.4466 37.271 66.1518 38.8114 67.9512C39.6606 68.9392 40.86 69.4474 42.069 69.4474C43.0539 69.4474 44.0482 69.1096 44.8562 68.4151L51.6967 62.5502C53.4927 61.0097 53.7011 58.3046 52.1607 56.5085ZM36.7817 52.9036C38.5779 51.3632 38.7894 48.6581 37.2458 46.8619C35.7086 45.0627 33.0002 44.8543 31.204 46.3947L27.7508 49.3557C25.9546 50.8961 25.7464 53.6013 27.2867 55.3973C28.1359 56.3885 29.3354 56.8935 30.5444 56.8935C31.5292 56.8935 32.5236 56.5558 33.3316 55.8646L36.7817 52.9036ZM45.6644 56.5305C47.4604 54.9901 47.6689 52.2849 46.1285 50.4889C44.5879 48.6895 41.8828 48.4813 40.0867 50.0217L33.2464 55.8866C31.4471 57.427 31.2388 60.1323 32.7792 61.9314C33.6283 62.9195 34.8278 63.4277 36.0336 63.4277C37.0216 63.4277 38.016 63.0867 38.824 62.3955L45.6644 56.5305Z" fill="#EBA971"/>
</g>
<path d="M82.4636 15.4685L80.4559 17.2899C79.7299 17.9465 78.786 18.3096 77.8076 18.3096H65.2032C63.4418 18.3096 61.6932 18.6032 60.0233 19.1713L52.8735 21.6239C50.4683 22.4446 48.4638 24.1429 47.2516 26.3746L43.0251 34.1714C41.8286 36.3779 42.419 39.5218 44.4992 40.9265C45.3735 41.5168 46.3521 41.7946 47.3117 41.7946C49.092 41.7946 50.8156 40.8444 51.7246 39.1715L56.0806 31.1316L63.8428 28.4737C65.3926 28.6157 67.2707 29.8374 68.4071 30.9233L87.2395 51.4316C87.6371 51.8105 87.7887 52.003 88.0791 52.4544L97.6783 41.0116C97.9118 40.7339 98.1549 40.4656 98.4043 40.2036L101.188 37.3216L82.4636 15.4685Z" fill="#EBA971"/>
<path d="M70.0474 31.4736C68.9772 30.4446 67.2411 29.3114 65.748 29.0652C66.7486 29.5513 67.7177 30.2616 68.4091 30.9213L87.2413 51.4297C87.6389 51.8084 87.7905 52.001 88.0809 52.4525L88.6711 51.7517L70.0474 31.4736Z" fill="#CF8B50"/>
<path d="M88.0844 52.435C88.0214 52.3592 87.974 52.2802 87.9108 52.2172C87.8634 52.1225 87.8161 52.0624 87.7562 51.9993C87.6456 51.8573 87.5193 51.7342 87.3962 51.6079C87.2385 51.4374 68.4156 30.9228 68.4156 30.9228C67.7149 30.2662 66.7459 29.5465 65.7484 29.0636C65.6537 29.032 65.5779 29.032 65.4832 29.0162L63.5293 29.6854C64.6657 30.2978 66.0545 31.1721 67.4403 32.3906L86.263 52.9052C86.5472 53.202 86.6703 53.3283 86.7776 53.4671C86.8406 53.5302 86.8881 53.5934 86.9355 53.6881C86.9986 53.7512 87.0459 53.827 87.1058 53.9059C87.8571 55.0202 88.2392 56.5575 88.1191 57.9936C89.2365 56.308 89.2113 54.111 88.0844 52.435Z" fill="#FAD5B4"/>
<path d="M31.5763 48.3241L34.4583 52.0299C34.7014 52.3456 35.1148 52.4339 35.3799 52.2288L36.3428 51.4775C37.4381 50.6252 37.599 48.8891 36.6394 47.5476C35.6136 46.1114 33.789 45.6883 32.6337 46.588L31.6111 47.3835C31.3491 47.5886 31.3332 48.0116 31.5763 48.3241Z" fill="#FAD5B4"/>
<path d="M40.0942 52.22L43.0392 56.0079C43.2886 56.33 43.7211 56.4121 44.0051 56.1879L45.0436 55.383C46.2212 54.4644 46.439 52.6495 45.4604 51.2763C44.4125 49.8054 42.4995 49.4107 41.2557 50.3767L40.1541 51.2352C39.8701 51.4562 39.8448 51.8982 40.0942 52.22Z" fill="#FAD5B4"/>
<path d="M46.3221 58.2896L49.264 62.0775C49.5165 62.3995 49.9491 62.4817 50.2331 62.2607L51.2716 61.4525C52.449 60.5339 52.6668 58.719 51.6852 57.3459C50.6403 55.8748 48.7242 55.4803 47.4805 56.4494L46.382 57.3048C46.0979 57.5257 46.0695 57.9677 46.3221 58.2896Z" fill="#FAD5B4"/>
<path d="M49.7418 66.3801L52.5165 69.9502C52.75 70.2532 53.1478 70.3385 53.4035 70.1396L54.3284 69.4199C55.3795 68.5992 55.5342 66.9325 54.6061 65.6382C53.6181 64.2557 51.8631 63.8453 50.7551 64.707L49.7735 65.4709C49.5209 65.6698 49.5051 66.077 49.7418 66.3801Z" fill="#FAD5B4"/>
<path d="M33.2466 55.8883L35.9612 54.1521L37.268 52.416L33.2466 55.8883Z" fill="#CF8B50"/>
<path d="M38.7339 62.4826L42.7838 59.5407L46.2751 55.8884L38.7339 62.4826Z" fill="#CF8B50"/>
<path d="M46.0591 67.3903L47.5205 66.456L49.9449 64.0348L46.0591 67.3903Z" fill="#CF8B50"/>
<path d="M88.4243 7.47791L111.294 32.2414L102.43 40.4422C93.8915 33.8544 85.5675 25.1044 79.5605 15.6787L88.4243 7.47791Z" fill="#F2F2F2"/>
<path d="M97.947 27.0995C97.0316 28.3526 95.3302 30.2656 93.6162 31.8249C96.4191 34.5963 99.3549 37.1848 102.392 39.5586L110.34 32.2036L101.647 22.7908C100.33 24.3596 99.2538 25.316 97.947 27.0995Z" fill="#E6E6E6"/>
<path d="M86.3446 15.9757C86.3446 16.2063 86.1583 16.3956 85.9279 16.3956C85.7006 16.3988 85.5112 16.2125 85.5112 15.9821C85.508 15.7517 85.6944 15.5622 85.9247 15.5622C86.1551 15.5592 86.3446 15.7454 86.3446 15.9757ZM84.015 15.9885C84.0118 15.7579 84.1982 15.5686 84.4285 15.5686C84.659 15.5686 84.8484 15.7548 84.8484 15.9853C84.8484 16.2156 84.6621 16.402 84.4349 16.4052C84.2044 16.4052 84.015 16.2188 84.015 15.9885ZM86.3508 17.3552C86.3508 17.5857 86.1678 17.7751 85.9375 17.7751C85.7069 17.7751 85.5176 17.5887 85.5176 17.3584C85.5144 17.128 85.7006 16.9417 85.9311 16.9385C86.1615 16.9385 86.3508 17.1248 86.3508 17.3552ZM84.0213 17.3679C84.0213 17.1342 84.2044 16.948 84.4349 16.9449C84.6652 16.9449 84.8546 17.131 84.8546 17.3616C84.8546 17.5919 84.6716 17.7813 84.4412 17.7813C84.2107 17.7813 84.0213 17.5983 84.0213 17.3679ZM82.6041 16.6861C82.6103 18.1097 83.7687 19.2618 85.1955 19.2554C86.6192 19.2492 87.7683 18.0844 87.7619 16.6608C87.7556 15.234 86.5939 14.0818 85.1703 14.0882C83.7435 14.0945 82.5945 15.2561 82.6041 16.6861Z" fill="#E6E6E6"/>
<path d="M86.2575 16.0571C86.2575 16.2906 86.0713 16.4768 85.8407 16.4768C85.6104 16.48 85.4242 16.2938 85.4242 16.0635C85.421 15.8329 85.6072 15.6436 85.8377 15.6436C86.0681 15.6436 86.2543 15.8266 86.2575 16.0571ZM83.928 16.0697C83.9248 15.8393 84.111 15.6531 84.3415 15.6499C84.5718 15.6499 84.758 15.8361 84.7612 16.0666C84.7612 16.297 84.575 16.4832 84.3445 16.4864C84.1141 16.4864 83.928 16.3002 83.928 16.0697ZM86.2638 17.4366C86.2638 17.6669 86.0776 17.8563 85.8471 17.8563C85.6167 17.8563 85.4304 17.6701 85.4304 17.4397C85.4274 17.2092 85.6136 17.023 85.8439 17.0199C86.0744 17.0199 86.2638 17.2061 86.2638 17.4366ZM83.9341 17.4491C83.9311 17.2156 84.1173 17.0294 84.3477 17.0294C84.5782 17.0262 84.7676 17.2124 84.7676 17.4428C84.7676 17.6733 84.5814 17.8627 84.3509 17.8627C84.1205 17.8658 83.9341 17.6796 83.9341 17.4491ZM82.5137 16.7642C82.5201 18.1909 83.6817 19.3432 85.1085 19.3368C86.5321 19.3304 87.6811 18.1656 87.6747 16.742C87.6685 15.3154 86.5069 14.1631 85.0832 14.1695C83.6564 14.1758 82.5075 15.3374 82.5137 16.7642Z" fill="white"/>
<path d="M85.1875 18.6199C84.1205 18.6231 83.2493 17.7614 83.2461 16.6944C83.243 16.0631 83.5429 15.5075 84.0069 15.1541C83.4955 15.5044 83.1578 16.0947 83.1642 16.7607C83.1672 17.8308 84.0384 18.6925 85.1054 18.6862C85.541 18.6862 85.9418 18.5316 86.2638 18.2854C85.9577 18.4936 85.5852 18.6168 85.1875 18.6199Z" fill="#E6E6E6"/>
<mask id="mask1_251_260" style="mask-type:luminance" maskUnits="userSpaceOnUse" x="82" y="0" width="38" height="38">
<path d="M82.5381 0H119.53V37.98H82.5381V0Z" fill="white"/>
</mask>
<g mask="url(#mask1_251_260)">
<path d="M94.1623 0.107762L82.6533 11.0169C91.0435 21.6168 96.9873 28.0815 107.432 37.848L118.938 26.9388C119.475 26.4432 114.361 20.0384 107.518 12.63C100.678 5.21829 94.6958 -0.384666 94.1623 0.107762Z" fill="#424242"/>
</g>
<path d="M106.942 12.8798C105.686 15.2662 98.0183 23.4764 95.9287 25.5029C99.2588 29.0541 102.759 32.5359 107.441 36.9267L118.227 26.693C116.08 23.1166 110.149 16.1026 106.942 12.8798Z" fill="#262626"/>
<path d="M8.34277 31.2063L32.9231 8.14429L41.1776 16.9639C34.6562 25.553 25.9724 33.9493 16.5972 40.0228L8.34277 31.2063Z" fill="#F2F2F2"/>
<path d="M27.8855 21.5419C29.1418 22.451 31.0643 24.1398 32.6361 25.8444C35.3825 23.0193 37.9519 20.0614 40.2973 17.0091L32.8983 9.10181L23.5547 17.8676C25.1299 19.1745 26.0926 20.2446 27.8855 21.5419Z" fill="#E6E6E6"/>
<path d="M16.8514 33.2334C17.082 33.2302 17.2713 33.4166 17.2745 33.647C17.2777 33.8775 17.0913 34.0669 16.861 34.0669C16.6305 34.07 16.4411 33.8869 16.4379 33.6565C16.4379 33.426 16.6211 33.2366 16.8514 33.2334ZM16.8799 35.5663C16.6495 35.5693 16.46 35.3831 16.457 35.1527C16.4538 34.9222 16.64 34.7328 16.8703 34.7297C17.0977 34.7297 17.2871 34.9128 17.2902 35.1432C17.2934 35.3737 17.1104 35.5631 16.8799 35.5663ZM18.2277 33.2177C18.4582 33.2145 18.6476 33.4007 18.6508 33.6312C18.6508 33.8616 18.4676 34.051 18.2373 34.0541C18.0067 34.0541 17.8174 33.8711 17.8142 33.6406C17.8142 33.4102 17.9974 33.2209 18.2277 33.2177ZM18.2562 35.5504C18.0258 35.5536 17.8363 35.3674 17.8333 35.1368C17.8301 34.9065 18.0163 34.7171 18.2466 34.7139C18.474 34.7139 18.6633 34.8969 18.6665 35.1275C18.6697 35.3578 18.4835 35.5472 18.2562 35.5504ZM17.5838 36.974C19.0075 36.9583 20.15 35.7871 20.1343 34.3604C20.1154 32.9368 18.9474 31.7909 17.5238 31.8098C16.0971 31.8257 14.9575 32.9967 14.9733 34.4203C14.9891 35.8471 16.157 36.9899 17.5838 36.974Z" fill="#E6E6E6"/>
<path d="M16.9354 33.3217C17.1658 33.3185 17.3552 33.5047 17.3584 33.7352C17.3615 33.9656 17.1753 34.155 16.9448 34.1581C16.7145 34.1581 16.5251 33.9751 16.5251 33.7446C16.5219 33.5142 16.7049 33.3249 16.9354 33.3217ZM16.9639 35.6544C16.7334 35.6575 16.544 35.4713 16.5408 35.2408C16.5376 35.0105 16.724 34.8211 16.9543 34.8179C17.1847 34.8179 17.3711 35.0009 17.3742 35.2315C17.3774 35.4618 17.1942 35.6512 16.9639 35.6544ZM18.3117 33.306C18.5421 33.3028 18.7315 33.4858 18.7346 33.7193C18.7378 33.9499 18.5516 34.1392 18.3211 34.1392C18.0907 34.1424 17.9014 33.9592 17.9014 33.7289C17.8982 33.4985 18.0812 33.309 18.3117 33.306ZM18.3402 35.6386C18.1096 35.6418 17.9203 35.4555 17.9171 35.2251C17.9139 34.9947 18.1003 34.8052 18.3306 34.8022C18.561 34.8022 18.7473 34.9852 18.7505 35.2156C18.7535 35.4461 18.5705 35.6355 18.3402 35.6386ZM17.6677 37.0623C19.0913 37.0464 20.234 35.8753 20.2183 34.4517C20.1994 33.0249 19.0314 31.8792 17.6078 31.8981C16.181 31.9138 15.0414 33.085 15.0573 34.5118C15.073 35.9354 16.241 37.078 17.6677 37.0623Z" fill="white"/>
<path d="M19.499 34.3764C19.5117 35.4434 18.6562 36.3208 17.5892 36.3335C16.9579 36.3399 16.4023 36.0399 16.0425 35.579C16.3961 36.0904 16.9895 36.4218 17.6587 36.4156C18.7256 36.4029 19.5811 35.5253 19.5684 34.4585C19.5621 34.0197 19.4075 33.6219 19.1549 33.3C19.3665 33.6062 19.4926 33.9756 19.499 34.3764Z" fill="#E6E6E6"/>
<mask id="mask2_251_260" style="mask-type:luminance" maskUnits="userSpaceOnUse" x="0" y="0" width="39" height="38">
<path d="M0.378906 0H38.9019V37.172H0.378906V0Z" fill="white"/>
</mask>
<g mask="url(#mask2_251_260)">
<path d="M0.942235 25.5092L11.9177 36.9549C22.4513 28.4827 28.8686 22.4915 38.5498 11.9674L27.5743 0.521599C27.0788 -0.00870106 20.712 5.15233 13.3571 12.0526C6.00225 18.953 0.443488 24.9757 0.942235 25.5092Z" fill="#424242"/>
</g>
<path d="M13.6147 12.6351C16.0075 13.8756 24.262 21.4957 26.2979 23.5726C29.8238 20.2173 33.2772 16.6881 37.63 11.969L27.3332 1.24292C23.779 3.41782 16.8123 9.40271 13.6147 12.6351Z" fill="#262626"/>
</svg>
