<svg width="59" height="74" viewBox="0 0 59 74" fill="none" xmlns="http://www.w3.org/2000/svg">
<path d="M6.54564 25.7393C2.9917 25.7393 0.11084 28.6349 0.11084 32.174V35.3914V54.6959V57.9132C0.11084 61.4524 2.9917 64.3481 6.54564 64.3481H12.9804H45.1545H51.5892C55.1445 64.3481 58.0241 61.4524 58.0241 57.9132V35.3914V32.174C58.0241 28.6349 55.1445 25.7393 51.5892 25.7393H45.1545H6.54564Z" fill="#F1C40F"/>
<path d="M6.54564 35.3912C2.9917 35.3912 0.11084 38.2869 0.11084 41.8261V45.0434V64.3479V67.5653C0.11084 71.1044 2.9917 74 6.54564 74H12.9804H45.1545H51.5892C55.1445 74 58.0241 71.1044 58.0241 67.5653V45.0434V41.8261C58.0241 38.2869 55.1445 35.3912 51.5892 35.3912H45.1545H6.54564Z" fill="#F39C12"/>
<path d="M29.0677 0C16.6293 0 6.5459 9.97393 6.5459 22.5218H16.1981C16.1981 15.4435 21.9602 9.65221 29.0677 9.65221C36.1749 9.65221 41.9373 15.4435 41.9373 22.5218H51.5895C51.5895 9.97393 41.5062 0 29.0677 0Z" fill="#BDC3C7"/>
<path d="M6.5459 41.8262V45.0436H51.5895V41.8262H6.5459ZM6.5459 48.261V51.4784H51.5895V48.261H6.5459ZM6.5459 54.6958V57.9132H51.5895V54.6958H6.5459ZM6.5459 61.1306V64.348H51.5895V61.1306H6.5459Z" fill="#E67E22"/>
<path d="M6.5459 25.7393V28.9567C6.5459 30.5654 8.70672 32.174 11.372 32.174C14.0373 32.174 16.1981 30.5654 16.1981 28.9567V25.7393C16.1981 27.3479 14.0373 28.9567 11.372 28.9567C8.70672 28.9567 6.5459 27.3479 6.5459 25.7393Z" fill="#7F8C8D"/>
<path d="M41.938 25.7389V28.9563C41.938 30.565 44.1001 32.1737 46.7641 32.1737C49.4281 32.1737 51.5902 30.565 51.5902 28.9563V25.7389C51.5902 27.3476 49.4281 28.9563 46.7641 28.9563C44.1001 28.9563 41.938 27.3476 41.938 25.7389Z" fill="#7F8C8D"/>
<path d="M29.0677 4.625C27.9384 4.625 26.8187 4.73375 25.7506 4.92647C24.9559 5.06996 24.1837 5.28971 23.4372 5.53005C22.739 5.75463 22.0766 6.03229 21.4263 6.3344C21.0853 6.4927 20.7478 6.65872 20.4209 6.83698C19.9966 7.06831 19.6124 7.3781 19.2144 7.64132C18.8418 7.88747 18.4564 8.0731 18.1086 8.34528C17.6559 8.69824 17.208 9.05662 16.8014 9.45109C16.6826 9.56759 16.6144 9.73362 16.4999 9.8533C15.958 10.4144 15.434 10.9331 14.9916 11.5627C14.5405 12.2039 14.1216 12.8706 13.785 13.5736C13.7722 13.6006 13.7979 13.6466 13.785 13.6739C13.4276 14.4329 13.0904 15.2695 12.8803 16.087C12.0663 17.9672 9.84825 19.3044 7.24986 19.3044C7.05682 19.3044 6.98218 19.3102 6.84769 19.3044C6.8139 19.3031 6.79364 19.3089 6.74699 19.3044L6.5459 22.5218V25.7392V28.9566H16.1981V25.7392V22.5218C16.1981 21.6335 16.3284 20.7455 16.4999 19.9077C17.6996 14.0433 22.8485 9.65219 29.0677 9.65219C36.1749 9.65219 41.9373 15.4142 41.9373 22.5218V25.7392V28.9566H51.5895V25.7392V22.5218L51.39 19.3044C51.3418 19.3089 51.3225 19.3031 51.2871 19.3044H50.8849C48.2884 19.3044 46.0684 17.9672 45.2545 16.087C45.0453 15.2695 44.7075 14.4329 44.3503 13.6739C44.3375 13.6466 44.3632 13.6006 44.3503 13.5736C44.0126 12.8706 43.5942 12.2039 43.1438 11.5627C42.6998 10.9331 42.1786 10.4144 41.6348 9.8533C41.5191 9.73101 41.4579 9.56983 41.3324 9.45109C40.927 9.05662 40.4798 8.69824 40.0262 8.34528C39.6916 8.08242 39.2798 7.87937 38.9193 7.64132C38.5268 7.38099 38.1343 7.06607 37.7161 6.83698C37.3911 6.66001 37.0469 6.49142 36.709 6.3344C36.0591 6.03229 35.3963 5.75463 34.6982 5.53005C33.9517 5.28971 33.1795 5.06996 32.3849 4.92647C31.3167 4.73375 30.197 4.625 29.0677 4.625Z" fill="#95A5A6"/>
</svg>
