<svg width="79" height="76" viewBox="0 0 79 76" fill="none" xmlns="http://www.w3.org/2000/svg">
<path d="M4.39756 55.1746H3.8477C3.54403 55.1746 3.29785 55.4207 3.29785 55.7244V58.4737C3.29785 58.7774 3.54403 59.0235 3.8477 59.0235H4.39756C4.70123 59.0235 4.94741 58.7774 4.94741 58.4737V55.7244C4.94741 55.4207 4.70123 55.1746 4.39756 55.1746Z" fill="#F19920"/>
<path d="M4.39756 69.4701H3.8477C3.54403 69.4701 3.29785 69.7163 3.29785 70.0199V72.7692C3.29785 73.0729 3.54403 73.3191 3.8477 73.3191H4.39756C4.70123 73.3191 4.94741 73.0729 4.94741 72.7692V70.0199C4.94741 69.7163 4.70123 69.4701 4.39756 69.4701Z" fill="#F19920"/>
<path d="M25.292 39.2285H4.94741C4.03638 39.2285 3.29785 39.967 3.29785 40.8781V44.727C3.29785 45.6381 4.03638 46.3766 4.94741 46.3766H25.292C26.203 46.3766 26.9415 45.6381 26.9415 44.727V40.8781C26.9415 39.967 26.203 39.2285 25.292 39.2285Z" fill="#FFCB5B"/>
<path d="M3.29785 44.1771H26.9415V46.3766H4.39756C3.79021 46.3766 3.29785 45.8842 3.29785 45.2768V44.1771Z" fill="#F19920"/>
<path d="M29.1421 46.3767H8.79751C7.88648 46.3767 7.14795 47.1152 7.14795 48.0263V51.8752C7.14795 52.7863 7.88648 53.5248 8.79751 53.5248H29.1421C30.0531 53.5248 30.7916 52.7863 30.7916 51.8752V48.0263C30.7916 47.1152 30.0531 46.3767 29.1421 46.3767Z" fill="#FFCB5B"/>
<path d="M7.14795 51.3256H30.7916V53.525H8.24764C7.64027 53.525 7.14795 53.0326 7.14795 52.4253V51.3256Z" fill="#F19920"/>
<path d="M21.9941 53.5244H1.64956C0.738533 53.5244 0 54.2629 0 55.174V59.0229C0 59.934 0.738533 60.6725 1.64956 60.6725H21.9941C22.9051 60.6725 23.6437 59.934 23.6437 59.0229V55.174C23.6437 54.2629 22.9051 53.5244 21.9941 53.5244Z" fill="#FFCB5B"/>
<path d="M0 58.4734H23.6437V60.6728H1.09971C0.492357 60.6728 0 60.1805 0 59.5731V58.4734Z" fill="#F19920"/>
<path d="M25.292 60.6733H4.94741C4.03638 60.6733 3.29785 61.4119 3.29785 62.3229V66.1719C3.29785 67.0829 4.03638 67.8214 4.94741 67.8214H25.292C26.203 67.8214 26.9415 67.0829 26.9415 66.1719V62.3229C26.9415 61.4119 26.203 60.6733 25.292 60.6733Z" fill="#FFCB5B"/>
<path d="M3.29785 65.6219H26.9415V67.8213H4.39756C3.79021 67.8213 3.29785 67.3291 3.29785 66.7216V65.6219Z" fill="#F19920"/>
<path d="M21.9941 67.821H1.64956C0.738533 67.821 0 68.5596 0 69.4706V73.3196C0 74.2306 0.738533 74.9691 1.64956 74.9691H21.9941C22.9051 74.9691 23.6437 74.2306 23.6437 73.3196V69.4706C23.6437 68.5596 22.9051 67.821 21.9941 67.821Z" fill="#FFCB5B"/>
<path d="M0 72.7697H23.6437V74.969H1.09971C0.492357 74.969 0 74.4768 0 73.8693V72.7697Z" fill="#F19920"/>
<path d="M18.6964 40.8774H18.1465C17.8429 40.8774 17.5967 41.1236 17.5967 41.4273V44.1766C17.5967 44.4802 17.8429 44.7264 18.1465 44.7264H18.6964C19.0001 44.7264 19.2462 44.4802 19.2462 44.1766V41.4273C19.2462 41.1236 19.0001 40.8774 18.6964 40.8774Z" fill="#F19920"/>
<path d="M13.1944 40.8774H12.6446C12.3409 40.8774 12.0947 41.1236 12.0947 41.4273V44.1766C12.0947 44.4802 12.3409 44.7264 12.6446 44.7264H13.1944C13.4981 44.7264 13.7443 44.4802 13.7443 44.1766V41.4273C13.7443 41.1236 13.4981 40.8774 13.1944 40.8774Z" fill="#F19920"/>
<path d="M8.24766 40.8779H7.6978C7.39413 40.8779 7.14795 41.1241 7.14795 41.4278V44.1771C7.14795 44.4807 7.39413 44.7269 7.6978 44.7269H8.24766C8.55133 44.7269 8.79751 44.4807 8.79751 44.1771V41.4278C8.79751 41.1241 8.55133 40.8779 8.24766 40.8779Z" fill="#F19920"/>
<path d="M17.044 48.0253H16.4942C16.1905 48.0253 15.9443 48.2714 15.9443 48.5751V51.3244C15.9443 51.6281 16.1905 51.8742 16.4942 51.8742H17.044C17.3477 51.8742 17.5939 51.6281 17.5939 51.3244V48.5751C17.5939 48.2714 17.3477 48.0253 17.044 48.0253Z" fill="#F19920"/>
<path d="M11.5484 48.0253H10.9986C10.6949 48.0253 10.4487 48.2714 10.4487 48.5751V51.3244C10.4487 51.6281 10.6949 51.8742 10.9986 51.8742H11.5484C11.8521 51.8742 12.0983 51.6281 12.0983 51.3244V48.5751C12.0983 48.2714 11.8521 48.0253 11.5484 48.0253Z" fill="#F19920"/>
<path d="M15.3951 55.1746H14.8453C14.5416 55.1746 14.2954 55.4207 14.2954 55.7244V58.4737C14.2954 58.7774 14.5416 59.0235 14.8453 59.0235H15.3951C15.6988 59.0235 15.945 58.7774 15.945 58.4737V55.7244C15.945 55.4207 15.6988 55.1746 15.3951 55.1746Z" fill="#F19920"/>
<path d="M9.89658 55.1746H9.34673C9.04305 55.1746 8.79688 55.4207 8.79688 55.7244V58.4737C8.79688 58.7774 9.04305 59.0235 9.34673 59.0235H9.89658C10.2003 59.0235 10.4464 58.7774 10.4464 58.4737V55.7244C10.4464 55.4207 10.2003 55.1746 9.89658 55.1746Z" fill="#F19920"/>
<path d="M4.72959 55.1746H4.17974C3.87606 55.1746 3.62988 55.4207 3.62988 55.7244V58.4737C3.62988 58.7774 3.87606 59.0235 4.17974 59.0235H4.72959C5.03326 59.0235 5.27944 58.7774 5.27944 58.4737V55.7244C5.27944 55.4207 5.03326 55.1746 4.72959 55.1746Z" fill="#F19920"/>
<path d="M8.24766 62.3228H7.6978C7.39413 62.3228 7.14795 62.5689 7.14795 62.8726V65.6219C7.14795 65.9256 7.39413 66.1717 7.6978 66.1717H8.24766C8.55133 66.1717 8.79751 65.9256 8.79751 65.6219V62.8726C8.79751 62.5689 8.55133 62.3228 8.24766 62.3228Z" fill="#F19920"/>
<path d="M13.1944 62.3223H12.6446C12.3409 62.3223 12.0947 62.5684 12.0947 62.8721V65.6214C12.0947 65.9251 12.3409 66.1712 12.6446 66.1712H13.1944C13.4981 66.1712 13.7443 65.9251 13.7443 65.6214V62.8721C13.7443 62.5684 13.4981 62.3223 13.1944 62.3223Z" fill="#F19920"/>
<path d="M9.34775 69.4708H8.7979C8.49422 69.4708 8.24805 69.717 8.24805 70.0207V72.7699C8.24805 73.0736 8.49422 73.3198 8.7979 73.3198H9.34775C9.65143 73.3198 9.89761 73.0736 9.89761 72.7699V70.0207C9.89761 69.717 9.65143 69.4708 9.34775 69.4708Z" fill="#F19920"/>
<path d="M30.5986 5.00398C29.9302 2.18699 31.9992 1.1646 33.3586 1.01355H42.706C42.743 0.995094 42.7892 0.995874 42.8434 1.01355C43.4348 1.20652 44.9747 3.41231 45.7302 4.5876L47.9297 1.01355H54.4955C55.6151 1.01355 56.8638 0.938282 57.6885 1.69561C57.7857 1.78484 57.874 1.88051 57.9541 1.98166C59.7681 4.27137 57.4271 7.404 55.5831 9.66956L48.7544 18.059C71.5732 31.5304 71.2982 56.5488 71.2982 59.0231C71.2982 61.0025 73.4976 63.1471 74.5973 63.9719C80.0716 66.7774 78.0338 75.0573 71.8828 74.9997C46.0673 74.7588 16.788 74.5316 15.4883 74.6938C14.7857 74.7817 14.1182 74.5508 13.5348 74.1836C11.9881 73.2102 11.258 71.3285 11.2803 69.5013C11.3029 67.64 11.8836 65.5038 13.8388 64.2468C16.918 62.2672 18.0544 59.9395 18.2376 59.0231C16.4781 37.4688 32.5338 22.7328 40.7816 18.059L32.8752 8.75737C31.9169 7.62994 30.9401 6.44365 30.5986 5.00398Z" fill="#B06328"/>
<path d="M42.981 1.01356H42.706M42.706 1.01356H33.3586C31.9992 1.1646 29.9302 2.18699 30.5986 5.00398C30.9401 6.44365 31.9169 7.62994 32.8752 8.75737L40.7816 18.059C32.5338 22.7328 16.4781 37.4688 18.2376 59.0231C18.0544 59.9395 16.918 62.2672 13.8388 64.2468C11.8836 65.5038 11.3029 67.64 11.2803 69.5013C11.258 71.3285 11.9881 73.2102 13.5348 74.1836C14.1182 74.5508 14.7857 74.7817 15.4883 74.6938C16.788 74.5316 46.0673 74.7588 71.8828 74.9997C78.0338 75.0573 80.0716 66.7774 74.5973 63.9719C73.4976 63.1471 71.2982 61.0025 71.2982 59.0231C71.2982 56.5487 71.5732 31.5304 48.7544 18.059L55.5831 9.66956C57.4271 7.404 59.7681 4.27137 57.9541 1.98166C57.874 1.88051 57.7857 1.78484 57.6885 1.69561C56.8638 0.938283 55.6151 1.01356 54.4955 1.01356H47.9297L45.7302 4.5876C44.9055 3.30461 43.1459 0.793616 42.706 1.01356Z" stroke="#B06328" stroke-width="0.549853"/>
<path d="M30.5991 5.00398C29.9308 2.18699 31.9997 1.1646 33.3592 1.01355H42.7066C42.7435 0.995094 42.7898 0.995874 42.844 1.01355C43.4353 1.20652 44.9753 3.41231 45.7308 4.5876L47.9303 1.01355H49.1877C50.3073 1.01356 51.55 0.935484 52.3942 1.67098C52.432 1.70392 52.4684 1.73776 52.5036 1.77245C54.5822 3.8249 52.1193 7.12908 50.2752 9.39464L43.4466 17.7841C66.2657 31.2555 65.9908 56.2738 65.9908 58.7482C65.9908 60.7276 68.1902 62.8722 69.2899 63.697C73.61 65.0586 72.5939 71.4833 68.0645 71.4548C44.5507 71.3044 20.0396 71.2381 18.788 71.3948C15.7144 71.7793 10.5446 69.6567 11.8249 66.8356C12.3069 65.7737 12.9882 64.7942 13.8394 64.2468C16.9186 62.2672 18.0549 59.9395 18.2382 59.0231C16.4787 37.4688 32.5344 22.7328 40.7822 18.059L32.8758 8.75737C31.9175 7.62994 30.9407 6.44365 30.5991 5.00398Z" fill="#C97629"/>
<path d="M42.9816 1.01356H42.7066M42.7066 1.01356H33.3592C31.9997 1.1646 29.9308 2.18699 30.5991 5.00398C30.9407 6.44365 31.9175 7.62994 32.8758 8.75737L40.7822 18.059C32.5344 22.7328 16.4787 37.4688 18.2382 59.0231C18.0549 59.9395 16.9186 62.2672 13.8394 64.2468C12.9882 64.7942 12.3069 65.7737 11.8249 66.8356C10.5446 69.6567 15.7144 71.7793 18.788 71.3948C20.0396 71.2381 44.5507 71.3044 68.0645 71.4548C72.5939 71.4833 73.61 65.0586 69.2899 63.697C68.1902 62.8722 65.9908 60.7276 65.9908 58.7482C65.9908 56.2738 66.2657 31.2555 43.4466 17.7841L50.2752 9.39464C52.1193 7.12908 54.5822 3.82491 52.5036 1.77245C52.4684 1.73776 52.432 1.70392 52.3942 1.67098C51.55 0.935485 50.3073 1.01356 49.1877 1.01356H47.9303L45.7308 4.5876C44.9061 3.30461 43.1465 0.793616 42.7066 1.01356Z" stroke="#C97629" stroke-width="0.549853"/>
<path d="M52.5232 15.0343H36.0276C34.5092 15.0343 33.2783 16.2652 33.2783 17.7836V17.7836C33.2783 19.3019 34.5092 20.5328 36.0276 20.5328H52.5232C54.0416 20.5328 55.2725 19.3019 55.2725 17.7836C55.2725 16.2652 54.0416 15.0343 52.5232 15.0343Z" fill="#FFCB5B"/>
<path d="M46.7484 20.5334H42.8994V32.0804H46.7484V20.5334Z" fill="#FFCB5B"/>
<path d="M44.824 59.5735C52.4158 59.5735 58.5703 53.296 58.5703 45.5523C58.5703 37.8085 52.4158 31.531 44.824 31.531C37.2321 31.531 31.0776 37.8085 31.0776 45.5523C31.0776 53.296 37.2321 59.5735 44.824 59.5735Z" fill="#FFCB5B"/>
<mask id="mask0_251_259" style="mask-type:luminance" maskUnits="userSpaceOnUse" x="31" y="31" width="14" height="15">
<path d="M44.824 31.531C43.0188 31.531 41.2312 31.8937 39.5635 32.5983C37.8957 33.3029 36.3803 34.3358 35.1038 35.6377C33.8273 36.9398 32.8148 38.4855 32.124 40.1866C31.4332 41.8877 31.0776 43.711 31.0776 45.5523H32.2296C32.2296 43.8653 32.5553 42.1948 33.1883 40.6362C33.8212 39.0777 34.7489 37.6615 35.9184 36.4686C37.0879 35.2757 38.4762 34.3294 40.0043 33.6839C41.5323 33.0383 43.17 32.706 44.824 32.706V31.531Z" fill="white"/>
</mask>
<g mask="url(#mask0_251_259)">
<path d="M44.824 31.531C43.0188 31.531 41.2312 31.8937 39.5635 32.5983C37.8957 33.3029 36.3803 34.3358 35.1038 35.6377C33.8273 36.9398 32.8148 38.4855 32.124 40.1866C31.4332 41.8877 31.0776 43.711 31.0776 45.5523H32.2296C32.2296 43.8653 32.5553 42.1948 33.1883 40.6362C33.8212 39.0777 34.7489 37.6615 35.9184 36.4686C37.0879 35.2757 38.4762 34.3294 40.0043 33.6839C41.5323 33.0383 43.17 32.706 44.824 32.706V31.531Z" stroke="#FEE179" stroke-width="1.8695"/>
</g>
<mask id="mask1_251_259" style="mask-type:luminance" maskUnits="userSpaceOnUse" x="44" y="45" width="15" height="15">
<path d="M58.5676 45.5518C58.5676 47.3931 58.2121 49.2163 57.5212 50.9174C56.8304 52.6185 55.8178 54.1642 54.5414 55.4663C53.2649 56.7682 51.7496 57.8011 50.0818 58.5057C48.414 59.2103 46.6265 59.573 44.8213 59.573V58.398C46.4752 58.398 48.1129 58.0657 49.641 57.4201C51.1689 56.7746 52.5574 55.8283 53.7269 54.6354C54.8964 53.4425 55.824 52.0263 56.457 50.4678C57.0899 48.9092 57.4157 47.2387 57.4157 45.5518H58.5676Z" fill="white"/>
</mask>
<g mask="url(#mask1_251_259)">
<path d="M58.5676 45.5518C58.5676 47.3931 58.2121 49.2163 57.5212 50.9174C56.8304 52.6185 55.8178 54.1642 54.5414 55.4663C53.2649 56.7682 51.7496 57.8011 50.0818 58.5057C48.414 59.2103 46.6265 59.573 44.8213 59.573V58.398C46.4752 58.398 48.1129 58.0657 49.641 57.4201C51.1689 56.7746 52.5574 55.8283 53.7269 54.6354C54.8964 53.4425 55.824 52.0263 56.457 50.4678C57.0899 48.9092 57.4157 47.2387 57.4157 45.5518H58.5676Z" stroke="#F09820" stroke-width="1.8695"/>
</g>
<mask id="mask2_251_259" style="mask-type:luminance" maskUnits="userSpaceOnUse" x="31" y="45" width="14" height="15">
<path d="M44.824 59.5731C43.0188 59.5731 41.2312 59.2104 39.5634 58.5058C37.8957 57.8011 36.3803 56.7683 35.1038 55.4663C33.8273 54.1643 32.8148 52.6186 32.124 50.9175C31.4332 49.2163 31.0776 47.3931 31.0776 45.5518H32.2296C32.2296 47.2388 32.5553 48.9093 33.1883 50.4678C33.8212 52.0264 34.7489 53.4426 35.9184 54.6355C37.0879 55.8284 38.4762 56.7746 40.0043 57.4202C41.5323 58.0658 43.17 58.3981 44.824 58.3981V59.5731Z" fill="white"/>
</mask>
<g mask="url(#mask2_251_259)">
<path d="M44.824 59.5731C43.0188 59.5731 41.2312 59.2104 39.5634 58.5058C37.8957 57.8011 36.3803 56.7683 35.1038 55.4663C33.8273 54.1643 32.8148 52.6186 32.124 50.9175C31.4332 49.2163 31.0776 47.3931 31.0776 45.5518H32.2296C32.2296 47.2388 32.5553 48.9093 33.1883 50.4678C33.8212 52.0264 34.7489 53.4426 35.9184 54.6355C37.0879 55.8284 38.4762 56.7746 40.0043 57.4202C41.5323 58.0658 43.17 58.3981 44.824 58.3981V59.5731Z" stroke="#F5B445" stroke-width="1.8695"/>
</g>
<path d="M50.7596 48.5665C50.4012 50.1678 48.7175 51.1859 46.325 51.4114V52.4939C46.325 53.0632 45.7497 53.5249 45.0376 53.5249C44.3255 53.5249 43.7471 53.0642 43.7471 52.4939V51.3676C43.7292 51.3655 43.7134 51.3666 43.6955 51.3644C42.6406 51.2431 41.5329 50.9391 40.5562 50.6708L40.1119 50.5494C39.4385 50.3675 39.076 49.7812 39.3039 49.2431C39.5319 48.7051 40.2658 48.4141 40.9377 48.5962L41.3932 48.7205C42.2628 48.9592 43.2472 49.2299 44.0681 49.324C45.9648 49.5479 47.9776 49.2968 48.2209 48.2257C48.4298 47.3059 47.7713 46.9405 44.6952 46.27L44.0895 46.1373C42.3208 45.741 38.6418 44.9195 39.3152 41.9586C39.6717 40.3832 41.3481 39.3645 43.7471 39.1399V38.0603C43.7471 37.491 44.3243 37.0293 45.0368 37.0293C45.7494 37.0293 46.325 37.491 46.325 38.0603V39.1863C46.3427 39.1883 46.3588 39.1877 46.3765 39.1898C47.0577 39.2714 47.8354 39.4305 48.8223 39.6908C49.4994 39.869 49.8671 40.4515 49.6443 40.9928C49.4215 41.5331 48.6902 41.8259 48.0167 41.6494C47.1821 41.4299 46.5216 41.2924 45.9963 41.2299C44.1096 41.005 42.0944 41.2563 41.8504 42.3292C41.6727 43.1121 42.0417 43.5373 44.7863 44.1495L45.3739 44.2789C47.7871 44.8067 51.4363 45.6025 50.7596 48.5665Z" fill="#E78825"/>
<path d="M46.737 20.5331H45.0874V32.08H46.737V20.5331Z" fill="#F09820"/>
<path d="M45.6389 20.5331H42.8896V21.6328H45.6389V20.5331Z" fill="#F09820"/>
<mask id="mask3_251_259" style="mask-type:luminance" maskUnits="userSpaceOnUse" x="44" y="31" width="15" height="15">
<path d="M58.5676 45.5519C58.5676 43.7106 58.2121 41.8874 57.5212 40.1862C56.8304 38.4851 55.8178 36.9394 54.5414 35.6374C53.2649 34.3354 51.7496 33.3026 50.0818 32.5979C48.414 31.8933 46.6265 31.5306 44.8213 31.5306V32.7054C46.4752 32.7054 48.113 33.0377 49.641 33.6833C51.1691 34.3289 52.5575 35.2751 53.727 36.4681C54.8965 37.661 55.8242 39.0772 56.4572 40.6357C57.0901 42.1944 57.4159 43.8649 57.4159 45.5519H58.5676Z" fill="white"/>
</mask>
<g mask="url(#mask3_251_259)">
<path d="M58.5676 45.5519C58.5676 43.7106 58.2121 41.8874 57.5212 40.1862C56.8304 38.4851 55.8178 36.9394 54.5414 35.6374C53.2649 34.3354 51.7496 33.3026 50.0818 32.5979C48.414 31.8933 46.6265 31.5306 44.8213 31.5306V32.7054C46.4752 32.7054 48.113 33.0377 49.641 33.6833C51.1691 34.3289 52.5575 35.2751 53.727 36.4681C54.8965 37.661 55.8242 39.0772 56.4572 40.6357C57.0901 42.1944 57.4159 43.8649 57.4159 45.5519H58.5676Z" stroke="#F6B545" stroke-width="1.8695"/>
</g>
<path d="M44.8124 15.0352H36.0147C35.5592 15.0352 35.1899 15.4044 35.1899 15.8599C35.1899 16.3154 35.5592 16.6847 36.0147 16.6847H44.8124C45.2679 16.6847 45.6371 16.3154 45.6371 15.8599C45.6371 15.4044 45.2679 15.0352 44.8124 15.0352Z" fill="#FEE179"/>
</svg>
