<svg width="68" height="74" viewBox="0 0 68 74" fill="none" xmlns="http://www.w3.org/2000/svg">
<g clip-path="url(#clip0_248_114)">
<path d="M6.39665 9.83289C2.89425 9.83289 0.0551758 12.6865 0.0551758 16.1743V60.5646C0.0551758 64.0524 2.89425 66.9061 6.39665 66.9061H25.421H31.7625H50.7869C54.2905 66.9061 57.1284 64.0524 57.1284 60.5646V16.1743C57.1284 12.6865 54.2905 9.83289 50.7869 9.83289H31.7625H25.421H6.39665Z" fill="#BDC3C7"/>
<path d="M6.39665 6.65991C2.89425 6.65991 0.0551758 9.49899 0.0551758 13.0014V57.3916C0.0551758 60.8953 2.89425 63.7331 6.39665 63.7331H25.421H31.7625H50.7869C54.2905 63.7331 57.1284 60.8953 57.1284 57.3916V13.0014C57.1284 9.49899 54.2905 6.65991 50.7869 6.65991H31.7625H25.421H6.39665Z" fill="#ECF0F1"/>
<path d="M6.39665 6.65991C2.89425 6.65991 0.0551758 9.49899 0.0551758 13.0014V22.5135V25.6843H57.1284V22.5135V13.0014C57.1284 9.49899 54.2905 6.65991 50.7869 6.65991H31.7625H25.421H6.39665Z" fill="#E74C3C"/>
<path d="M14.3281 14.589C14.3281 15.2136 14.2051 15.832 13.9661 16.4091C13.7271 16.9861 13.3767 17.5104 12.9351 17.952C12.4935 18.3937 11.9691 18.744 11.3921 18.9831C10.8151 19.2221 10.1966 19.3451 9.57205 19.3451C8.94744 19.3451 8.32897 19.2221 7.75194 18.9831C7.1749 18.744 6.65059 18.3937 6.20895 17.952C5.76731 17.5104 5.41697 16.9861 5.17795 16.4091C4.93894 15.832 4.81592 15.2136 4.81592 14.589C4.81592 13.9644 4.93894 13.3459 5.17795 12.7689C5.41697 12.1919 5.76731 11.6675 6.20895 11.2259C6.65059 10.7843 7.1749 10.4339 7.75194 10.195C8.32897 9.95588 8.94744 9.83289 9.57205 9.83289C10.1966 9.83289 10.8151 9.95588 11.3921 10.195C11.9691 10.4339 12.4935 10.7843 12.9351 11.2259C13.3767 11.6675 13.7271 12.1919 13.9661 12.7689C14.2051 13.3459 14.3281 13.9644 14.3281 14.589Z" fill="#C0392B"/>
<path d="M9.56818 0.319336C7.81699 0.319336 6.39746 1.73887 6.39746 3.49007V13.0022C6.39746 14.7535 7.81699 16.173 9.56818 16.173C11.3194 16.173 12.7389 14.7535 12.7389 13.0022V3.49007C12.7389 1.73887 11.3194 0.319336 9.56818 0.319336Z" fill="#BDC3C7"/>
<path d="M52.3706 14.589C52.3706 15.2136 52.2476 15.832 52.0086 16.4091C51.7695 16.9861 51.4192 17.5104 50.9775 17.952C50.5359 18.3937 50.0116 18.744 49.4346 18.9831C48.8575 19.2221 48.2391 19.3451 47.6145 19.3451C46.9899 19.3451 46.3715 19.2221 45.7944 18.9831C45.2174 18.744 44.693 18.3937 44.2514 17.952C43.8098 17.5104 43.4595 16.9861 43.2205 16.4091C42.9814 15.832 42.8584 15.2136 42.8584 14.589C42.8584 13.9644 42.9814 13.3459 43.2205 12.7689C43.4595 12.1919 43.8098 11.6675 44.2514 11.2259C44.693 10.7843 45.2174 10.4339 45.7944 10.195C46.3715 9.95588 46.9899 9.83289 47.6145 9.83289C48.2391 9.83289 48.8575 9.95588 49.4346 10.195C50.0116 10.4339 50.5359 10.7843 50.9775 11.2259C51.4192 11.6675 51.7695 12.1919 52.0086 12.7689C52.2476 13.3459 52.3706 13.9644 52.3706 14.589Z" fill="#C0392B"/>
<path d="M47.619 0.319336C45.8688 0.319336 44.4482 1.58763 44.4482 3.49007V13.0022C44.4482 14.5876 45.8688 16.173 47.619 16.173C49.3693 16.173 50.7898 14.5876 50.7898 13.0022V3.49007C50.7898 1.58763 49.3693 0.319336 47.619 0.319336Z" fill="#BDC3C7"/>
<path d="M6.39746 32.027V38.3684H12.7389V32.027H6.39746ZM15.9097 32.027V38.3684H22.2511V32.027H15.9097ZM25.4218 32.027V38.3684H31.7633V32.027H25.4218ZM34.934 32.027V38.3684H41.2756V32.027H34.934ZM44.4463 32.027V38.3684H50.7877V32.027H44.4463Z" fill="#BDC3C7"/>
<path d="M6.39746 41.5376V47.879H12.7389V41.5376H6.39746ZM15.9097 41.5376V47.879H22.2511V41.5376H15.9097ZM25.4218 41.5376V47.879H31.7633V41.5376H25.4218ZM34.934 41.5376V47.879H41.2756V41.5376H34.934ZM44.4463 41.5376V47.879H50.7877V41.5376H44.4463Z" fill="#BDC3C7"/>
<path d="M6.39746 51.0511V57.3927H12.7389V51.0511H6.39746ZM15.9097 51.0511V57.3927H22.2511V51.0511H15.9097ZM25.4218 51.0511V57.3927H31.7633V51.0511H25.4218ZM34.934 51.0511V57.3927H41.2756V51.0511H34.934ZM44.4463 51.0511V57.3927H50.7877V51.0511H44.4463Z" fill="#BDC3C7"/>
<path d="M64.8946 55.9643C64.8946 60.1265 63.2413 64.1182 60.2982 67.0613C57.3551 70.0043 53.3634 71.6577 49.2012 71.6577C45.0391 71.6577 41.0474 70.0043 38.1044 67.0613C35.1613 64.1182 33.5078 60.1265 33.5078 55.9643C33.5078 51.8022 35.1613 47.8105 38.1044 44.8674C41.0474 41.9243 45.0391 40.2709 49.2012 40.2709C53.3634 40.2709 57.3551 41.9243 60.2982 44.8674C63.2413 47.8105 64.8946 51.8022 64.8946 55.9643Z" fill="#34495E"/>
<path d="M49.2022 41.5376C48.327 41.5376 47.6167 42.2479 47.6167 43.123V44.7083V54.2206V55.806C47.6167 56.6811 48.327 57.3913 49.2022 57.3913H50.7875H57.129H58.7143C59.5894 57.3913 60.2997 56.6811 60.2997 55.806C60.2997 54.9308 59.5894 54.2206 58.7143 54.2206H57.129H50.7875V44.7083V43.123C50.7875 42.2479 50.0773 41.5376 49.2022 41.5376Z" fill="#BDC3C7"/>
<path d="M49.1983 38.3676C39.5656 38.3676 31.7593 45.9773 31.7593 55.8065C31.7593 65.3188 39.5656 73.2456 49.1983 73.2456C58.831 73.2456 66.6373 65.3188 66.6373 55.8065C66.6373 45.9773 58.831 38.3676 49.1983 38.3676ZM49.1983 41.5383C57.0776 41.5383 63.4666 47.8797 63.4666 55.8065C63.4666 63.4163 57.0776 70.0749 49.1983 70.0749C41.3191 70.0749 34.93 63.4163 34.93 55.8065C34.93 47.8797 41.3191 41.5383 49.1983 41.5383Z" fill="#7F8C8D"/>
<path d="M50.7875 55.8095C50.7875 56.6846 50.0773 57.3948 49.2022 57.3948C48.327 57.3948 47.6167 56.6846 47.6167 55.8095C47.6167 54.9344 48.327 54.2241 49.2022 54.2241C50.0773 54.2241 50.7875 54.9344 50.7875 55.8095Z" fill="#95A5A6"/>
</g>
<defs>
<clipPath id="clip0_248_114">
<rect width="67.0683" height="73.6807" fill="white" transform="translate(0 0.319336)"/>
</clipPath>
</defs>
</svg>
