<svg width="18" height="7" viewBox="0 0 18 7" fill="none" xmlns="http://www.w3.org/2000/svg">
<path d="M8.9 0.299805C3.9827 0.299805 0 1.72056 0 3.47844C0 5.23579 3.98297 6.65695 8.9 6.65695C13.8176 6.65695 17.8 5.23573 17.8 3.47844C17.8 1.72049 13.8177 0.299805 8.9 0.299805Z" fill="#00095B"/>
<path d="M8.9448 6.37831C4.20962 6.37831 0.371094 5.06577 0.371094 3.44655C0.371094 1.82712 4.20969 0.514648 8.9448 0.514648C13.6795 0.514648 17.5178 1.82705 17.5178 3.44655C17.5178 5.06571 13.6794 6.37831 8.9448 6.37831ZM8.9448 0.768664C4.37599 0.768664 0.672492 1.96738 0.672492 3.44655C0.672492 4.92578 4.37586 6.12463 8.9448 6.12463C13.5135 6.12463 17.2164 4.92571 17.2164 3.44655C17.2164 1.96738 13.5133 0.768664 8.9448 0.768664Z" fill="white"/>
<path d="M6.70846 1.24465C6.58678 1.24503 6.46448 1.24973 6.34137 1.25973C5.52362 1.32736 4.74526 1.77973 4.74385 2.46654C4.74298 2.81482 4.99498 3.09702 5.38545 3.0846C5.84427 3.06932 6.22094 2.70815 6.41813 2.25279C6.49294 2.08002 6.35438 2.00825 6.28845 2.10772C6.17362 2.28149 6.01366 2.42129 5.82544 2.51239C5.60955 2.61626 5.37879 2.58823 5.30883 2.416C5.21047 2.173 5.41492 1.80938 5.88149 1.63828C6.55539 1.39314 7.2605 1.5553 7.93898 1.68054C7.94867 1.68054 7.98481 1.70023 7.95286 1.71659C7.83136 1.78168 7.71173 1.83461 7.52538 1.99216C7.39177 2.10458 7.21685 2.25425 7.08156 2.41727C6.94728 2.57796 6.85209 2.72128 6.72615 2.88017C6.70859 2.90313 6.68698 2.90207 6.68725 2.90207C6.38027 2.95301 6.07974 2.98713 5.80458 3.17513C5.74767 3.21371 5.72296 3.2822 5.75748 3.33461C5.78849 3.38107 5.85943 3.38601 5.90867 3.35082C6.07962 3.22518 6.25562 3.16604 6.45745 3.16057C6.46626 3.1611 6.4705 3.16251 6.47299 3.16785C6.47454 3.17085 6.47359 3.17718 6.46996 3.18185C6.16762 3.59395 6.09191 3.68708 5.86445 3.94257C5.74813 4.07388 5.6337 4.18471 5.50588 4.30007C4.98946 4.77145 4.43401 4.7633 4.23474 4.46776C4.11566 4.29039 4.13136 4.10419 4.2094 3.94971C4.30547 3.76051 4.49961 3.62185 4.66107 3.54087C4.72102 3.51083 4.73826 3.43553 4.67825 3.3669C4.6401 3.32217 4.54758 3.31422 4.47869 3.32664C4.26718 3.36503 4.01724 3.52213 3.86956 3.71119C3.70312 3.92335 3.61998 4.18091 3.6479 4.46997C3.69802 4.99156 4.13512 5.29284 4.63135 5.28937C5.02621 5.28634 5.39814 5.16879 5.84568 4.72243C6.26286 4.30612 6.64293 3.68427 6.99882 3.10761C7.00999 3.08919 7.01791 3.07931 7.072 3.0727C7.29522 3.04526 7.62483 3.01403 7.83608 3.00201C7.88304 2.99948 7.89258 2.99999 7.91142 3.02302C7.96645 3.09125 8.04912 3.14916 8.11532 3.18441C8.14761 3.20163 8.16296 3.21022 8.18832 3.21062C8.21961 3.21129 8.24396 3.19475 8.2597 3.17726C8.2821 3.1531 8.28829 3.12149 8.27618 3.10113C8.26353 3.07976 8.11621 2.99955 8.11184 2.9671C8.10861 2.94687 8.13113 2.94199 8.13113 2.94199C8.23945 2.90861 8.35213 2.83991 8.42042 2.7114C8.48749 2.5849 8.49832 2.41606 8.37561 2.3222C8.2679 2.23975 8.10516 2.25276 7.97532 2.36725C7.8483 2.4784 7.80627 2.64012 7.82342 2.78185C7.82652 2.80642 7.82523 2.81468 7.79113 2.81748C7.59589 2.83284 7.40778 2.83817 7.19855 2.84905C7.18455 2.85005 7.18012 2.84097 7.18826 2.83142C7.42917 2.42019 7.78889 2.12735 8.18676 1.83895C8.21313 1.81952 8.20508 1.78258 8.204 1.75174C8.92238 1.90508 9.61662 2.19049 10.3619 2.18441C10.6701 2.18194 10.9652 2.13588 11.2472 1.98388C11.4952 1.85096 11.5959 1.728 11.6033 1.60022C11.6091 1.5119 11.5466 1.45607 11.4575 1.4751C10.7045 1.64507 9.98615 1.64319 9.23696 1.55413C8.38127 1.45209 7.56018 1.24201 6.70846 1.24465ZM8.21158 2.43645C8.22918 2.43738 8.24565 2.44318 8.25897 2.45439C8.29866 2.48771 8.27987 2.57082 8.23978 2.62837C8.19598 2.69185 8.1217 2.74666 8.05396 2.76001C8.04037 2.76248 8.0286 2.75674 8.02301 2.72717C8.01198 2.64886 8.0379 2.54399 8.12307 2.47009C8.14973 2.44693 8.18225 2.43491 8.21158 2.43645ZM14.2566 2.45146C14.1197 2.45146 13.9401 2.4517 13.7974 2.4517C13.7635 2.4517 13.7459 2.45578 13.7298 2.48682C13.6772 2.58596 13.0355 3.53081 12.916 3.71433C12.896 3.74223 12.8714 3.73834 12.8685 3.7065C12.8564 3.59755 12.7607 3.47232 12.6098 3.41237C12.4947 3.3665 12.3823 3.35823 12.2654 3.37345C12.0543 3.40129 11.8663 3.51078 11.701 3.63409C11.4519 3.82027 11.2369 4.06131 10.9594 4.23956C10.8079 4.33656 10.6005 4.42117 10.4617 4.295C10.3361 4.18057 10.3502 3.92635 10.5424 3.72982C10.5627 3.70919 10.587 3.7264 10.5832 3.74489C10.565 3.83381 10.5873 3.92222 10.656 3.98424C10.7398 4.05801 10.8599 4.06642 10.9625 4.01715C11.0837 3.9582 11.1549 3.84422 11.1758 3.71484C11.2079 3.51424 11.0507 3.33727 10.8541 3.32312C10.6943 3.31211 10.5411 3.36671 10.3919 3.48781C10.317 3.54876 10.2744 3.59389 10.2098 3.68428C10.194 3.70658 10.1697 3.70884 10.1706 3.67593C10.178 3.41911 10.0698 3.2746 9.85367 3.26986C9.68601 3.26598 9.50675 3.35529 9.36709 3.46477C9.21397 3.5856 9.08009 3.74569 8.93659 3.89617C8.91876 3.91473 8.90315 3.91386 8.89817 3.87788C8.8938 3.70772 8.85025 3.54288 8.77006 3.42586C8.74173 3.38513 8.68205 3.36496 8.63186 3.39246C8.60872 3.40495 8.52807 3.44135 8.46947 3.48774C8.44034 3.51131 8.42909 3.54541 8.44187 3.58913C8.51924 3.84328 8.50222 4.13235 8.39727 4.37655C8.30086 4.60006 8.1135 4.80182 7.89337 4.87004C7.74833 4.91524 7.59748 4.89313 7.50417 4.76676C7.37601 4.59238 7.42783 4.28918 7.61876 4.0373C7.78742 3.81566 8.03117 3.67479 8.27451 3.58406C8.30317 3.57325 8.309 3.55525 8.30093 3.53135C8.28768 3.49196 8.26664 3.43852 8.25796 3.41402C8.23569 3.35574 8.17318 3.3462 8.09696 3.35441C7.92023 3.37464 7.76085 3.43412 7.60336 3.51696C7.19095 3.73393 6.98427 4.15384 6.89358 4.37855C6.84999 4.48637 6.81267 4.5538 6.76443 4.61348C6.69944 4.69379 6.61783 4.76683 6.46861 4.89561C6.45515 4.90742 6.44507 4.93204 6.45637 4.95487C6.47164 4.98592 6.5492 5.09353 6.57113 5.10315C6.59542 5.1149 6.62359 5.0985 6.63489 5.09049C6.7393 5.02099 6.86424 4.91076 6.92539 4.83599C6.94679 4.81043 6.96888 4.82119 6.98025 4.86004C7.0373 5.06005 7.1867 5.22332 7.3933 5.29161C7.7714 5.41691 8.16362 5.23556 8.45964 4.91986C8.64774 4.71925 8.71563 4.59019 8.78775 4.50247C8.90993 4.35366 9.15105 4.02082 9.43811 3.80713C9.5434 3.72835 9.66807 3.66826 9.73077 3.70812C9.78103 3.74016 9.79725 3.81458 9.71652 3.95878C9.42386 4.48397 8.993 5.10102 8.91402 5.25076C8.89963 5.27673 8.9122 5.29709 8.93985 5.29709C9.09304 5.29643 9.24496 5.29675 9.38402 5.29675C9.40709 5.29568 9.41754 5.28534 9.42911 5.26925C9.65375 4.92378 9.86519 4.59481 10.0918 4.2548C10.1046 4.23478 10.1162 4.2503 10.1167 4.25905C10.1214 4.33789 10.1411 4.44585 10.1887 4.51675C10.2744 4.64773 10.3958 4.704 10.5305 4.70486C10.6376 4.70607 10.6917 4.69006 10.8073 4.64767C10.8881 4.61786 10.9645 4.57754 11.0347 4.52775C11.0685 4.50472 11.0744 4.54334 11.0735 4.54928C11.0216 4.82359 11.0858 5.14854 11.3632 5.28333C11.6953 5.44421 12.0601 5.21812 12.27 5.01404C12.2905 4.99434 12.3126 4.99641 12.3147 5.03874C12.3192 5.11671 12.355 5.20919 12.4206 5.27394C12.5965 5.44738 12.9514 5.37867 13.3077 5.1077C13.5364 4.93433 13.7757 4.68927 13.9919 4.42978C13.9999 4.41976 14.0058 4.40353 13.9904 4.38724C13.9574 4.3534 13.9098 4.31466 13.8772 4.28482C13.8623 4.2724 13.8404 4.27596 13.8278 4.28537C13.6063 4.49239 13.4069 4.72852 13.1185 4.92379C13.0213 4.99042 12.8665 5.04423 12.7968 4.9517C12.7697 4.91578 12.7728 4.86603 12.7995 4.80081C12.8837 4.59479 14.2143 2.60419 14.2834 2.48696L14.2835 2.48682C14.2953 2.46639 14.2828 2.45146 14.2566 2.45146ZM12.3921 3.69594C12.4269 3.69564 12.4595 3.70223 12.4892 3.71626C12.6531 3.7931 12.6008 3.97956 12.5275 4.12596C12.525 4.13054 12.5235 4.13557 12.523 4.14076C12.5225 4.14594 12.523 4.15117 12.5246 4.15614C12.5273 4.17136 12.5474 4.18612 12.5673 4.19313C12.5742 4.19566 12.5781 4.2006 12.5703 4.21662C12.5136 4.33578 12.4617 4.40448 12.3907 4.50795C12.3256 4.60362 12.2521 4.67819 12.163 4.75003C12.0288 4.85918 11.8425 4.97793 11.6884 4.89809C11.6199 4.86311 11.5904 4.76903 11.5917 4.69286C11.5953 4.47857 11.692 4.25867 11.8711 4.04251C12.0485 3.82793 12.2411 3.69726 12.3921 3.69594Z" fill="white"/>
</svg>
