<svg width="6" height="6" viewBox="0 0 6 6" fill="none" xmlns="http://www.w3.org/2000/svg">
<path d="M5.14927 2.10962L5.03177 2.40029C4.99466 2.49924 4.99466 2.60437 5.03177 2.70332L5.14927 2.99399C5.2173 3.16715 5.16164 3.36506 5.00703 3.47637L4.74729 3.65572C4.6607 3.71757 4.60504 3.81033 4.58031 3.90928L4.52465 4.2185C4.48754 4.40404 4.33293 4.54009 4.1474 4.54628L3.83199 4.55865C3.72686 4.56483 3.62791 4.60812 3.55369 4.68233L3.33724 4.91116C3.20737 5.04721 3.00328 5.07814 2.84249 4.98537L2.57037 4.82458C2.47761 4.76892 2.37247 4.75655 2.26734 4.78129L1.95812 4.8555C1.77877 4.89879 1.58705 4.81221 1.50047 4.64523L1.35823 4.36075C1.30875 4.26798 1.22836 4.19377 1.1294 4.16284L0.832553 4.06389C0.653205 4.00205 0.541885 3.82889 0.560439 3.64335L0.591361 3.32795C0.60373 3.22281 0.572807 3.11768 0.504779 3.03728L0.306878 2.7899C0.189374 2.64148 0.189374 2.43739 0.306878 2.28897L0.504779 2.04159C0.572807 1.96119 0.60373 1.85606 0.591361 1.75092L0.560439 1.43552C0.541885 1.24999 0.653205 1.07682 0.832553 1.01498L1.1294 0.916028C1.22836 0.885106 1.30875 0.810893 1.35823 0.718127L1.50047 0.433644C1.58705 0.266665 1.77258 0.180083 1.95812 0.223374L2.26734 0.297587C2.36629 0.322325 2.47761 0.309956 2.57037 0.254296L2.84249 0.0935016C3.00328 0.000735406 3.20737 0.025473 3.33724 0.167714L3.55369 0.396538C3.62791 0.470751 3.72686 0.520226 3.83199 0.520226L4.1474 0.532595C4.33293 0.538779 4.49372 0.674836 4.52465 0.860368L4.58031 1.16959C4.59886 1.27472 4.6607 1.36749 4.74729 1.42315L5.00703 1.6025C5.16164 1.73856 5.22348 1.93646 5.14927 2.10962Z" fill="black"/>
<g opacity="0.15">
<path d="M1.67982 4.62671L1.53758 4.34223C1.4881 4.24946 1.4077 4.17525 1.30875 4.14433L1.0119 4.04538C0.832553 3.98353 0.721233 3.81037 0.739787 3.62484L0.770709 3.30943C0.783078 3.2043 0.752155 3.09916 0.684127 3.01877L0.486226 2.77139C0.368722 2.62296 0.368722 2.41888 0.486226 2.27045L0.684127 2.02308C0.752155 1.94268 0.783078 1.83754 0.770709 1.73241L0.739787 1.417C0.721233 1.23147 0.832553 1.05831 1.0119 0.996463L1.30875 0.897513C1.4077 0.866591 1.4881 0.792378 1.53758 0.699612L1.67982 0.415129C1.72929 0.316178 1.81587 0.24815 1.90864 0.217228C1.74166 0.19249 1.57468 0.279072 1.50047 0.433682L1.35823 0.718165C1.30875 0.810931 1.22836 0.885144 1.1294 0.916066L0.832553 1.01502C0.653205 1.07686 0.541885 1.25002 0.560439 1.43556L0.591361 1.75096C0.60373 1.8561 0.572808 1.96123 0.504779 2.04163L0.306878 2.28901C0.189374 2.43743 0.189374 2.64152 0.306878 2.78994L0.504779 3.03732C0.572808 3.11772 0.60373 3.22285 0.591361 3.32799L0.560439 3.64339C0.541885 3.82892 0.653205 4.00209 0.832553 4.06393L1.1294 4.16288C1.22836 4.1938 1.30875 4.26802 1.35823 4.36078L1.50047 4.64527C1.58705 4.81225 1.77258 4.89883 1.95812 4.85554L1.99522 4.84935C1.85917 4.82461 1.74166 4.7504 1.67982 4.62671Z" fill="white"/>
<path d="M2.74331 0.235731L3.01542 0.0749364C3.04016 0.0625676 3.0649 0.0501988 3.08963 0.0440143C3.00305 0.0316455 2.91029 0.0501988 2.83607 0.0934897L2.56396 0.254284C2.53922 0.266653 2.51448 0.279022 2.48975 0.285206C2.57633 0.297575 2.66291 0.285206 2.74331 0.235731Z" fill="white"/>
<path d="M4.00504 4.53391C3.97412 4.53391 3.94319 4.5401 3.91846 4.54628L4.1411 4.53391C4.17202 4.53391 4.19676 4.52773 4.22768 4.52155L4.00504 4.53391Z" fill="white"/>
<path d="M3.01558 4.96065L2.74346 4.79986C2.6507 4.7442 2.54556 4.73183 2.44043 4.75656L2.40332 4.76275C2.45898 4.76893 2.50846 4.78749 2.55793 4.81222L2.83004 4.97302C2.93518 5.03486 3.05268 5.04105 3.164 5.00394C3.11453 5.00394 3.06505 4.99157 3.01558 4.96065Z" fill="white"/>
</g>
<path d="M1.50171 2.37336L1.7463 3.22771L1.57026 3.2781L1.32567 2.42375L1.50171 2.37336ZM1.94653 2.6409L1.98584 2.7782L1.59739 2.88941L1.55808 2.75211L1.94653 2.6409ZM1.88311 2.26416L1.92259 2.40206L1.49307 2.52502L1.45359 2.38713L1.88311 2.26416ZM1.98521 2.23493L2.30383 2.14372C2.36916 2.12501 2.42809 2.11872 2.48064 2.12484C2.53357 2.13085 2.57824 2.14938 2.61464 2.18044C2.65104 2.2115 2.67725 2.25499 2.69327 2.31093C2.70637 2.3567 2.7098 2.39826 2.70356 2.4356C2.6976 2.47243 2.68367 2.50584 2.66178 2.53581C2.64016 2.56527 2.61243 2.59184 2.57857 2.6155L2.53122 2.66079L2.25426 2.74008L2.21378 2.60311L2.41974 2.54415C2.45065 2.5353 2.4747 2.52249 2.49191 2.50571C2.50911 2.48894 2.52 2.46931 2.52457 2.44684C2.52953 2.42426 2.52832 2.40006 2.52093 2.37424C2.51309 2.34686 2.50123 2.32465 2.48534 2.30761C2.46946 2.29057 2.44964 2.27974 2.42589 2.27511C2.40213 2.27048 2.3746 2.27265 2.34331 2.28161L2.20072 2.32243L2.40584 3.03889L2.2298 3.08928L1.98521 2.23493ZM2.70744 2.95254L2.4036 2.62749L2.58928 2.57307L2.89344 2.8904L2.8958 2.89862L2.70744 2.95254ZM3.53363 2.56745L3.57294 2.70476L3.11818 2.83495L3.07888 2.69764L3.53363 2.56745ZM2.9311 1.96414L3.17569 2.81849L2.99966 2.86888L2.75506 2.01453L2.9311 1.96414ZM3.3687 2.21534L3.407 2.34912L3.01151 2.46234L2.97321 2.32856L3.3687 2.21534ZM3.32776 1.85058L3.36724 1.98847L2.91307 2.11849L2.87359 1.9806L3.32776 1.85058ZM4.2096 2.37393L4.24891 2.51124L3.79415 2.64143L3.75484 2.50412L4.2096 2.37393ZM3.60707 1.77061L3.85166 2.62496L3.67562 2.67536L3.43103 1.82101L3.60707 1.77061ZM4.04467 2.02181L4.08297 2.1556L3.68748 2.26882L3.64918 2.13504L4.04467 2.02181ZM4.00373 1.65705L4.04321 1.79495L3.58904 1.92497L3.54956 1.78708L4.00373 1.65705Z" fill="white"/>
</svg>
