<svg width="76" height="74" viewBox="0 0 76 74" fill="none" xmlns="http://www.w3.org/2000/svg">
<g clip-path="url(#clip0_226_5)">
<path d="M74.2643 35.5386L39.7111 0.984953C38.6718 -0.0543104 36.992 -0.0543104 35.9526 0.984953L1.39908 35.5386C0.359812 36.5778 0.359812 38.2577 1.39908 39.2969C2.43835 40.3362 4.11818 40.3362 5.15744 39.2969L37.8319 6.62251L59.1328 27.9234C59.1302 27.9899 59.0956 28.0484 59.0956 28.1149V67.9844H16.5681V41.4047C16.5681 39.9349 15.3773 38.7467 13.9102 38.7467C12.443 38.7467 11.2521 39.9349 11.2521 41.4047V70.6423C11.2521 72.1123 12.443 73.3005 13.9102 73.3005H61.7536C63.2234 73.3005 64.4116 72.1123 64.4116 70.6423V33.2022L70.5063 39.2969C71.0246 39.8153 71.705 40.0757 72.3856 40.0757C73.0662 40.0757 73.746 39.8153 74.2643 39.2969C75.3037 38.2577 75.3037 36.5778 74.2643 35.5386Z" fill="black"/>
</g>
<defs>
<clipPath id="clip0_226_5">
<rect width="75.4629" height="73.3271" fill="white" transform="translate(0.0258789)"/>
</clipPath>
</defs>
</svg>
