<svg width="61" height="70" viewBox="0 0 61 70" fill="none" xmlns="http://www.w3.org/2000/svg">
<g clip-path="url(#clip0_241_39)">
<path d="M29.8905 34.5056C33.3027 34.5056 36.6385 33.4937 39.4757 31.598C42.3129 29.7023 44.5242 27.0078 45.83 23.8552C47.1358 20.7026 47.4775 17.2337 46.8118 13.887C46.1461 10.5403 44.5029 7.46608 42.09 5.05324C39.6772 2.64039 36.6031 0.997221 33.2563 0.331516C29.9096 -0.334188 26.4407 0.00747547 23.2881 1.3133C20.1356 2.61913 17.441 4.83046 15.5453 7.66767C13.6496 10.5048 12.6377 13.8405 12.6377 17.2528C12.6377 21.8285 14.4554 26.2169 17.6909 29.4524C20.9264 32.6879 25.3147 34.5056 29.8905 34.5056ZM29.8905 4.92938C32.3279 4.92938 34.7105 5.65214 36.737 7.00625C38.7636 8.36034 40.3431 10.285 41.2759 12.5368C42.2086 14.7887 42.4526 17.2664 41.9771 19.657C41.5016 22.0475 40.3279 24.2433 38.6045 25.9668C36.881 27.6903 34.6852 28.864 32.2947 29.3394C29.9041 29.8149 27.4263 29.5709 25.1745 28.6382C22.9227 27.7054 20.998 26.1259 19.6439 24.0993C18.2898 22.0728 17.5671 19.6902 17.5671 17.2528C17.5671 13.9844 18.8654 10.8499 21.1765 8.53885C23.4876 6.22774 26.6221 4.92938 29.8905 4.92938Z" fill="black"/>
<path d="M32.3549 39.4349H27.4255C20.2351 39.4349 13.3391 42.2913 8.25475 47.3757C3.17036 52.4602 0.313965 59.3561 0.313965 66.5465C0.313965 67.2001 0.573637 67.8271 1.03586 68.2893C1.49807 68.7515 2.12498 69.0112 2.77866 69.0112H57.0018C57.6554 69.0112 58.2823 68.7515 58.7445 68.2893C59.2067 67.8271 59.4664 67.2001 59.4664 66.5465C59.4664 59.3561 56.6101 52.4602 51.5256 47.3757C46.4412 42.2913 39.5454 39.4349 32.3549 39.4349ZM5.39122 64.0818C5.99727 58.6611 8.57932 53.6537 12.644 50.0164C16.7087 46.3791 21.971 44.3669 27.4255 44.3643H32.3549C37.8094 44.3669 43.0717 46.3791 47.1364 50.0164C51.2011 53.6537 53.7831 58.6611 54.3892 64.0818H5.39122Z" fill="black"/>
</g>
<defs>
<clipPath id="clip0_241_39">
<rect width="59.8652" height="69.0112" fill="white" transform="translate(0.313965)"/>
</clipPath>
</defs>
</svg>
