<svg width="113" height="74" viewBox="0 0 113 74" fill="none" xmlns="http://www.w3.org/2000/svg">
<g clip-path="url(#clip0_231_27)">
<path d="M87.521 23.3633L90.8975 22.2379C91.4602 21.9565 92.0231 22.2379 92.3045 22.5192C92.8672 23.082 92.8672 23.6447 92.3045 24.2076L91.1789 26.1771L87.521 23.3633Z" fill="#CC291F"/>
<path opacity="0.39" d="M87.521 23.3633L90.8975 22.2379C91.4602 21.9565 92.0231 22.2379 92.3045 22.5192C92.8672 23.082 92.8672 23.6447 92.3045 24.2076L91.1789 26.1771" fill="black"/>
<path opacity="0.3" d="M73.4607 74.012L112.853 54.3158L39.6957 17.7371L0.303223 37.4333L73.4607 74.012Z" fill="#262626"/>
<path d="M74.8608 62.1957L107.219 46.7203L36.8751 11.267L4.51709 26.7426L74.8608 62.1957Z" fill="#2D3134"/>
<path d="M62.4815 46.1528C60.2305 45.0274 58.2609 45.0274 56.854 45.5901L53.7589 47.2784C52.0707 48.1225 51.2266 49.5293 51.2266 52.0617C51.2266 56.5637 54.8844 62.1913 59.3864 64.4422C61.6374 65.5678 63.607 65.5678 65.2953 65.005C65.2953 65.005 68.3904 63.3167 68.6718 63.0354C70.0787 62.1913 70.9228 60.7843 70.9228 58.5334C70.6414 54.0314 66.9835 48.6852 62.4815 46.1528Z" fill="#2D3134"/>
<path opacity="0.39" d="M65.0176 65.0122C65.5803 64.7308 68.1127 63.324 68.3941 63.324C69.8009 62.4799 70.645 61.0729 70.645 58.822C70.645 56.8523 70.0823 54.8828 68.9568 53.1945L65.8617 54.8828C66.9871 56.8523 67.5499 58.822 67.5499 60.5102C67.5499 62.7612 66.7058 64.1681 65.0176 65.0122Z" fill="black"/>
<path d="M59.1058 50.093C55.7293 48.4047 52.9155 49.8116 52.9155 53.1881C52.9155 56.5646 55.7293 60.7852 59.1058 62.4735C62.4823 64.1617 65.296 62.7549 65.296 59.3784C65.5773 56.0018 62.7637 51.7812 59.1058 50.093ZM63.3264 54.3136C63.8892 55.1577 64.1705 56.0018 63.6078 56.2832C63.3264 56.5646 61.3567 56.2832 60.5126 56.0018C60.5126 55.7205 60.2313 55.7205 60.2313 55.4391C60.5126 54.595 61.0754 53.1881 61.6381 52.9067C61.9195 52.6253 62.7637 53.1881 63.3264 54.3136ZM59.1058 50.6558C59.9499 51.2185 60.794 51.7812 60.794 52.344C60.794 52.9067 59.9499 54.3136 59.3872 54.8764C59.3872 54.8764 59.1058 54.8764 59.1058 54.595H58.8244C58.2616 53.4694 57.4175 51.4999 57.4175 50.9371C57.6989 50.093 58.2616 50.093 59.1058 50.6558ZM55.1666 50.093C55.7293 49.8116 56.5734 49.8116 57.1361 50.6558C57.4175 51.2185 58.2616 53.4694 58.5431 54.3136C58.2616 54.3136 58.2616 54.3136 58.2616 54.595C57.4175 53.7509 55.4479 52.344 55.1666 51.7812C54.3224 50.9371 54.6037 50.3744 55.1666 50.093ZM53.4783 53.4694C53.4783 52.6253 53.7596 52.0626 54.6037 52.344C55.1666 52.6253 56.8548 54.3137 57.6989 55.1577V55.4391V55.7205C56.8548 55.7205 55.1666 55.7205 54.6037 55.4391C53.7596 55.1577 53.4783 54.3136 53.4783 53.4694ZM55.1666 58.2529C54.6037 57.4088 54.3224 56.5646 54.8852 56.2832C55.1666 56.0018 57.1361 56.2832 57.9802 56.5646C57.9802 56.8459 58.2616 56.8459 58.2616 57.1273C57.9802 57.9715 57.4175 59.3784 56.8548 59.6597C56.5734 59.9411 55.7293 59.097 55.1666 58.2529ZM59.1058 61.9108C58.2616 61.348 57.4175 60.7852 57.4175 60.2225C57.4175 59.6597 58.2616 58.2529 58.8244 57.6902C58.8244 57.6902 59.1058 57.6902 59.1058 57.9715H59.3872C59.9499 59.097 60.794 61.0667 60.794 61.6294C60.794 62.4735 60.2313 62.4735 59.1058 61.9108ZM63.3264 62.1921C62.7637 62.4735 61.9195 62.4735 61.3567 61.6294C61.0754 61.0667 60.2313 58.8156 59.9499 57.9715C60.2313 57.9715 60.2313 57.9715 60.2313 57.6902C61.0754 58.5343 63.0451 59.9411 63.3264 60.5038C64.1705 61.348 63.8892 61.9108 63.3264 62.1921ZM63.8892 60.2225C63.3264 59.9411 61.6381 58.2529 60.794 57.4088V57.1273V56.8459C61.6381 56.8459 63.3264 56.8459 63.8892 57.1273C64.7332 57.4088 65.0146 58.2529 65.0146 59.097C65.0146 59.9411 64.7332 60.5038 63.8892 60.2225Z" fill="#C4C6CC"/>
<path opacity="0.06" d="M59.6685 62.1956C56.292 60.5074 53.4783 56.2867 53.4783 52.9101C53.4783 51.2219 54.041 50.0965 55.1666 49.5338C53.7596 50.0965 52.9155 51.222 52.9155 53.1916C52.9155 56.568 55.7293 60.7887 59.1058 62.4769C60.794 63.321 62.4823 63.321 63.6078 62.7583C62.4823 63.0397 61.3567 63.0397 59.6685 62.1956Z" fill="black"/>
<path opacity="0.06" d="M67.5463 60.5084C67.5463 65.0104 63.8884 66.98 59.3864 64.729C54.8844 62.4781 51.2266 56.8505 51.2266 52.3485C51.2266 47.8466 54.8844 45.8769 59.3864 48.1279C63.8884 50.0975 67.5463 55.725 67.5463 60.5084Z" fill="black"/>
<path d="M20.2814 25.3381C18.0305 24.2126 16.0608 24.2126 14.654 24.7754L11.2775 26.4636C9.87062 27.0263 8.74512 28.7147 8.74512 30.9656C8.74512 35.4676 12.403 41.0951 16.905 43.346C19.156 44.4715 21.1257 44.4715 22.8138 43.9088C22.8138 43.9088 25.909 42.2206 26.1904 41.9392C27.5972 41.0951 28.4414 39.6882 28.4414 37.4372C28.4414 33.2165 24.7835 27.5891 20.2814 25.3381Z" fill="#2D3134"/>
<path opacity="0.39" d="M22.8066 43.8994C23.3694 43.618 25.9017 42.2112 26.1831 42.2112C27.59 41.367 28.4341 39.9601 28.4341 37.7091C28.4341 35.7395 27.8713 33.7699 26.7459 32.0817L23.6507 33.7699C24.7762 35.7395 25.3389 37.7091 25.3389 39.3974C25.3389 41.6483 24.4948 43.3367 22.8066 43.8994Z" fill="black"/>
<path d="M16.8943 28.9946C13.5178 27.3063 10.7041 28.7132 10.7041 32.0897C10.7041 35.4662 13.5178 39.6868 16.8943 41.375C20.2708 43.0633 23.0846 41.6564 23.0846 38.2799C23.366 34.9035 20.5522 30.6828 16.8943 28.9946ZM21.1149 33.2152C21.6777 34.0593 21.9592 34.9035 21.3963 35.1849C21.1149 35.4662 19.1454 35.1849 18.3013 34.9035C18.3013 34.622 18.0198 34.622 18.0198 34.3406C18.3013 33.4965 18.864 32.0897 19.4267 31.8083C19.7081 31.527 20.5522 32.3711 21.1149 33.2152ZM16.8943 29.5573C17.7384 30.12 18.5827 30.6828 18.5827 31.2456C18.5827 31.8083 17.7384 33.2152 17.1757 33.7779C17.1757 33.7779 16.8943 33.7779 16.8943 33.4965H16.613C16.0502 32.3711 15.2061 30.4014 15.2061 29.8387C15.4875 28.9946 16.0502 28.9946 16.8943 29.5573ZM12.9551 29.2759C13.5178 28.9946 14.3619 28.9946 14.9248 29.8387C15.2061 30.4014 16.0502 32.6524 16.3316 33.4965C16.0502 33.4965 16.0502 33.4965 16.0502 33.7779C15.2061 32.9338 13.2365 31.527 12.9551 30.9641C12.111 30.12 12.3924 29.5573 12.9551 29.2759ZM11.2669 32.3711C11.2669 31.527 11.5482 30.9641 12.3924 31.2456C12.9551 31.527 14.6434 33.2152 15.4875 34.0593V34.3406V34.622C14.6434 34.622 12.9551 34.622 12.3924 34.3406C11.5482 34.0593 11.2669 33.2152 11.2669 32.3711ZM12.9551 37.1544C12.3924 36.3103 12.111 35.4662 12.6737 35.1849C12.9551 34.9035 14.9248 35.1849 15.7689 35.4662C15.7689 35.7476 16.0502 35.7476 16.0502 36.0289C15.7689 36.873 15.2061 38.2799 14.6434 38.5614C14.3619 38.8427 13.5178 37.9985 12.9551 37.1544ZM16.8943 40.8123C16.0502 40.2496 15.2061 39.6868 15.2061 39.1241C15.2061 38.5614 16.0502 37.1544 16.613 36.5917C16.613 36.5917 16.8943 36.5917 16.8943 36.873H17.1757C17.7384 37.9985 18.5827 39.9682 18.5827 40.5309C18.5827 41.375 18.0198 41.375 16.8943 40.8123ZM21.1149 41.375C20.5522 41.6564 19.7081 41.6564 19.1454 40.8123C18.864 40.2496 18.0198 37.9985 17.7384 37.1544C18.0198 37.1544 18.0198 37.1544 18.0198 36.873C18.864 37.7171 20.8336 39.1241 21.1149 39.6868C21.9592 40.5309 21.6777 41.0937 21.1149 41.375ZM21.6777 39.1241C21.1149 38.8427 19.4267 37.1544 18.5827 36.3103V36.0289V35.7476C19.4267 35.7476 21.1149 35.7476 21.6777 36.0289C22.5219 36.3103 22.8033 37.1544 22.8033 37.9985C22.8033 38.8427 22.5219 39.4055 21.6777 39.1241Z" fill="#C4C6CC"/>
<path opacity="0.06" d="M17.4571 41.0969C14.0806 39.4087 11.2669 35.188 11.2669 31.8116C11.2669 30.1233 11.8296 28.9979 12.9551 28.4352C11.5482 28.9979 10.7041 30.1233 10.7041 32.093C10.7041 35.4695 13.5178 39.6901 16.8943 41.3783C18.5827 42.2224 20.2708 42.2224 21.3963 41.6597C20.2708 42.2224 19.1454 41.941 17.4571 41.0969Z" fill="black"/>
<path opacity="0.06" d="M25.3463 39.401C25.3463 43.9031 21.6884 45.8726 17.1864 43.6217C12.6843 41.3707 8.74512 35.7431 8.74512 30.9598C8.74512 26.1763 12.403 24.488 16.905 26.739C21.6884 29.2716 25.3463 34.899 25.3463 39.401Z" fill="black"/>
<path d="M93.993 28.9901L79.0801 12.1076L56.5702 0.8526L40.2504 2.25948L29.5581 1.41535L4.23438 14.0773V25.3323L7.3295 27.3018C8.73638 24.2067 12.6757 23.0812 16.8963 25.3323C21.961 27.8646 25.9002 33.4921 26.7443 38.5568L49.2544 50.0932C49.8171 45.3098 54.0377 43.6216 59.1025 46.1539C64.1673 48.6863 68.3879 54.5953 68.9506 59.9413L80.2056 64.7247L110.031 50.0932V38.8382L93.993 28.9901Z" fill="#CC291F"/>
<path d="M53.1978 26.7477L79.0842 13.523L92.0275 28.4359L66.1411 41.3792L53.1978 26.7477Z" fill="#3399CC"/>
<path d="M91.1882 27.584L65.3018 40.5273L66.1459 41.3714L92.0323 28.4282L91.1882 27.584Z" fill="#2D3134"/>
<path opacity="0.15" d="M58.8306 23.9339L79.0896 13.523L92.0328 28.4359L58.8306 23.9339Z" fill="black"/>
<path d="M42.5023 3.10138L50.9435 2.25726L28.1523 13.5122L19.4297 14.3564L42.5023 3.10138Z" fill="#3399CC"/>
<path opacity="0.39" d="M42.2209 6.48547L28.1523 13.5199L19.4297 14.364L42.2209 6.48547Z" fill="white"/>
<path d="M110.031 40.2403V45.3051L105.81 47.2747V45.0237C105.81 44.1795 106.091 43.3354 106.654 42.4913C107.217 41.9286 107.78 41.3659 108.342 41.0845L110.031 40.2403Z" fill="white"/>
<path d="M80.498 55.155L83.5932 53.7482C84.1559 53.4668 85 53.4668 85.5627 54.0295C85.8441 54.3109 86.1255 54.8736 86.1255 55.155V57.1247L80.498 59.9385V55.155Z" fill="white"/>
<path d="M80.5001 55.1593L79.0933 54.3152V59.38L80.5001 59.9427V55.1593Z" fill="#FFCC00"/>
<path opacity="0.39" d="M82.9316 55.6907C82.3429 56.4138 82.2565 57.3182 82.7386 57.7107C83.2208 58.1032 84.0889 57.8351 84.6775 57.112C85.2659 56.3889 85.3523 55.4845 84.8702 55.092C84.388 54.6994 83.5202 54.9676 82.9316 55.6907Z" fill="#2D3134"/>
<path opacity="0.39" d="M81.8959 55.6483C81.3073 56.3714 81.2209 57.2758 81.7028 57.6683C82.1852 58.0605 83.0529 57.7924 83.6415 57.0692C84.2303 56.3461 84.3165 55.4417 83.8346 55.0495C83.3522 54.657 82.4842 54.9251 81.8959 55.6483Z" fill="#2D3134"/>
<path opacity="0.39" d="M107.648 42.921C107.059 43.6444 106.973 44.5487 107.455 44.9409C107.937 45.3334 108.805 45.0653 109.394 44.3422C109.982 43.6191 110.069 42.7147 109.587 42.3222C109.104 41.9297 108.237 42.1979 107.648 42.921Z" fill="#2D3134"/>
<path opacity="0.39" d="M106.329 43.7156C105.74 44.4387 105.654 45.3431 106.136 45.7354C106.618 46.1279 107.486 45.8597 108.075 45.1366C108.663 44.4134 108.75 43.5092 108.268 43.1166C107.786 42.7244 106.918 42.9922 106.329 43.7156Z" fill="#2D3134"/>
<path d="M88.9395 52.34L103.008 45.3056V48.6821L88.9395 55.7165V52.34Z" fill="#2D3134"/>
<path d="M5.92395 16.3276L4.51709 15.7649V19.1414L5.92395 19.9855V16.3276Z" fill="#FF9900"/>
<path d="M37.7324 29.8368L63.0562 42.4986L50.1131 27.3042L37.7324 21.114V29.8368Z" fill="#3399CC"/>
<path d="M35.4726 20.2646L29.2824 17.1694L16.6206 19.1391L35.4726 28.7058V20.2646Z" fill="#3399CC"/>
<path opacity="0.15" d="M39.1392 29.8368V21.9581L37.7324 21.114V29.8368L63.0562 42.4986L61.9306 41.0917L39.1392 29.8368Z" fill="black"/>
<path opacity="0.15" d="M18.0276 19.1391L29.5638 17.1694H29.2824L16.6206 19.1391L35.4726 28.7058V27.8617L18.0276 19.1391Z" fill="black"/>
<path opacity="0.06" d="M65.8568 43.0602L50.9439 26.1779L27.5898 14.923L12.3956 16.3298L4.51709 14.3601V25.6151L7.61221 27.5848C8.73771 24.2083 12.677 23.0828 16.8976 25.3337C21.9623 27.8661 25.9016 33.4935 26.7457 38.5583L27.3085 38.8396L49.2557 50.376C49.8184 45.5927 54.0391 43.9043 59.1039 46.4368C64.1686 48.9692 68.3892 54.878 68.9519 60.2242L80.2069 65.0075V53.7525L65.8568 43.0602Z" fill="black"/>
<path d="M3.96436 22.8024L6.7781 24.2092V28.4298L3.96436 27.023V22.8024Z" fill="#CC291F"/>
<path opacity="0.39" d="M3.96436 22.8024L6.7781 24.2092V28.4298L3.96436 27.023V22.8024Z" fill="black"/>
<path d="M6.7781 24.2163V28.4369L7.34085 27.5928V23.3722L4.5271 21.9652L3.96436 22.8094L6.7781 24.2163Z" fill="#CC291F"/>
<path d="M79.9339 65.5622L112.292 49.5239V46.7101L79.9339 62.7485L77.1201 61.3416V64.1554L79.9339 65.5622Z" fill="#CC291F"/>
<path opacity="0.39" d="M79.9339 65.5622L112.292 49.5239V46.7101L79.9339 62.7485L77.1201 61.3416V64.1554L79.9339 65.5622Z" fill="black"/>
<path d="M79.9339 61.3488L110.885 45.873L112.292 46.7173L79.9339 62.7556L77.1201 61.3488L78.5271 60.7859L79.9339 61.3488Z" fill="#CC291F"/>
<path opacity="0.39" d="M80.498 55.1524L86.1255 57.1221L80.498 59.9359V55.1524Z" fill="white"/>
<path opacity="0.39" d="M110.031 40.2403V45.3051L105.81 47.2747L110.031 40.2403Z" fill="white"/>
<path d="M61.6463 41.6468L58.8325 37.7076C58.2698 37.1448 57.707 36.8633 56.8628 36.8633L53.4864 37.1448C52.9236 37.1448 52.3608 37.7076 52.3608 38.2703C52.3608 38.833 52.9236 39.3958 53.4864 39.3958L57.4257 39.9585L61.6463 41.6468Z" fill="#CC291F"/>
<path opacity="0.39" d="M61.6463 41.6468L58.8325 37.7076C58.2698 37.1448 57.707 36.8633 56.8628 36.8633L53.4864 37.1448C52.9236 37.1448 52.3608 37.7076 52.3608 38.2703C52.3608 38.833 52.9236 39.3958 53.4864 39.3958L57.4257 39.9585L61.6463 41.6468Z" fill="black"/>
<path d="M72.6094 34.3325C72.6094 34.6139 72.8907 34.6139 73.1722 34.6139L85.834 31.2374C86.1154 31.2374 86.1154 30.956 86.1154 30.6747C86.1154 30.3933 85.8338 30.3933 85.5523 30.3933L72.8905 33.7698C72.6091 33.7698 72.6094 34.0512 72.6094 34.3325Z" fill="black"/>
<path d="M65.585 37.9933C65.585 38.2747 65.8663 38.2747 66.1478 38.2747L78.8096 34.8982C79.091 34.8982 79.091 34.6168 79.091 34.3354C79.091 34.0541 78.8094 34.0541 78.528 34.0541L65.8661 37.4306C65.5847 37.4306 65.585 37.712 65.585 37.9933Z" fill="black"/>
<path opacity="0.5" d="M88.3792 30.1176C88.6607 28.4294 88.3792 26.7412 87.2538 25.8971C85.2842 24.4902 82.1891 25.3343 79.938 28.1481C77.9685 30.399 77.4056 33.2128 78.5312 34.9011L80.5007 34.0569C79.6566 32.9314 79.938 30.6804 81.345 28.9922C83.0332 27.0226 85.2842 26.1785 86.691 27.304C87.5351 27.8667 87.5351 29.2735 86.9724 30.6804L88.3792 30.1176Z" fill="black"/>
<path opacity="0.39" d="M94.0069 28.9866L65.8694 43.0553L50.9565 26.1729L79.0941 12.1041L94.0069 28.9866Z" fill="black"/>
<path opacity="0.39" d="M110.042 38.8356L80.498 53.7484V60.7828L110.042 46.1513V38.8356Z" fill="black"/>
</g>
<defs>
<clipPath id="clip0_231_27">
<rect width="112.639" height="73.1575" fill="white" transform="translate(0.303223 0.8526)"/>
</clipPath>
</defs>
</svg>
