<svg width="113" height="74" viewBox="0 0 113 74" fill="none" xmlns="http://www.w3.org/2000/svg">
<g clip-path="url(#clip0_242_2)">
<mask id="mask0_242_2" style="mask-type:luminance" maskUnits="userSpaceOnUse" x="0" y="0" width="113" height="75">
<path d="M112.942 0.852539H0.303223V74.01H112.942V0.852539Z" fill="white"/>
</mask>
<g mask="url(#mask0_242_2)">
<path d="M87.521 23.3633L90.8975 22.2379C91.4602 21.9565 92.0231 22.2379 92.3045 22.5192C92.8672 23.082 92.8672 23.6447 92.3045 24.2076L91.1789 26.1771L87.521 23.3633Z" fill="#CC291F"/>
<path opacity="0.39" d="M87.521 23.3633L90.8975 22.2379C91.4602 21.9565 92.0231 22.2379 92.3045 22.5192C92.8672 23.082 92.8672 23.6447 92.3045 24.2076L91.1789 26.1771" fill="black"/>
<path opacity="0.3" d="M73.4607 74.012L112.853 54.3158L39.6957 17.7371L0.303223 37.4333L73.4607 74.012Z" fill="#262626"/>
<path d="M74.8608 62.1955L107.219 46.7201L36.8751 11.2668L4.51709 26.7424L74.8608 62.1955Z" fill="#2D3134"/>
<path d="M62.4815 46.1528C60.2305 45.0274 58.2609 45.0274 56.854 45.5901L53.7589 47.2784C52.0707 48.1225 51.2266 49.5293 51.2266 52.0617C51.2266 56.5637 54.8844 62.1913 59.3864 64.4422C61.6374 65.5678 63.607 65.5678 65.2953 65.005C65.2953 65.005 68.3904 63.3167 68.6718 63.0354C70.0787 62.1913 70.9228 60.7843 70.9228 58.5334C70.6414 54.0314 66.9835 48.6852 62.4815 46.1528Z" fill="#2D3134"/>
<path opacity="0.39" d="M65.0176 65.012C65.5803 64.7306 68.1127 63.3238 68.3941 63.3238C69.8009 62.4797 70.645 61.0727 70.645 58.8218C70.645 56.8521 70.0823 54.8826 68.9568 53.1943L65.8617 54.8826C66.9871 56.8521 67.5499 58.8218 67.5499 60.51C67.5499 62.761 66.7058 64.1679 65.0176 65.012Z" fill="black"/>
<path d="M59.1058 50.0928C55.7293 48.4045 52.9155 49.8114 52.9155 53.1879C52.9155 56.5644 55.7293 60.785 59.1058 62.4733C62.4823 64.1615 65.296 62.7547 65.296 59.3782C65.5773 56.0016 62.7637 51.781 59.1058 50.0928ZM63.3264 54.3134C63.8892 55.1575 64.1705 56.0016 63.6078 56.283C63.3264 56.5644 61.3567 56.283 60.5126 56.0016C60.5126 55.7203 60.2313 55.7203 60.2313 55.4389C60.5126 54.5948 61.0754 53.1879 61.6381 52.9065C61.9195 52.6251 62.7637 53.1879 63.3264 54.3134ZM59.1058 50.6556C59.9499 51.2183 60.794 51.781 60.794 52.3438C60.794 52.9065 59.9499 54.3134 59.3872 54.8762C59.3872 54.8762 59.1058 54.8762 59.1058 54.5948H58.8244C58.2616 53.4692 57.4175 51.4997 57.4175 50.9369C57.6989 50.0928 58.2616 50.0928 59.1058 50.6556ZM55.1666 50.0928C55.7293 49.8114 56.5734 49.8114 57.1361 50.6556C57.4175 51.2183 58.2616 53.4692 58.5431 54.3134C58.2616 54.3134 58.2616 54.3134 58.2616 54.5948C57.4175 53.7507 55.4479 52.3438 55.1666 51.781C54.3224 50.9369 54.6037 50.3742 55.1666 50.0928ZM53.4783 53.4692C53.4783 52.6251 53.7596 52.0624 54.6037 52.3438C55.1666 52.6251 56.8548 54.3135 57.6989 55.1575V55.4389V55.7203C56.8548 55.7203 55.1666 55.7203 54.6037 55.4389C53.7596 55.1575 53.4783 54.3134 53.4783 53.4692ZM55.1666 58.2527C54.6037 57.4086 54.3224 56.5644 54.8852 56.283C55.1666 56.0016 57.1361 56.283 57.9802 56.5644C57.9802 56.8457 58.2616 56.8457 58.2616 57.1271C57.9802 57.9713 57.4175 59.3782 56.8548 59.6595C56.5734 59.9409 55.7293 59.0968 55.1666 58.2527ZM59.1058 61.9106C58.2616 61.3478 57.4175 60.785 57.4175 60.2223C57.4175 59.6595 58.2616 58.2527 58.8244 57.69C58.8244 57.69 59.1058 57.69 59.1058 57.9713H59.3872C59.9499 59.0968 60.794 61.0665 60.794 61.6292C60.794 62.4733 60.2313 62.4733 59.1058 61.9106ZM63.3264 62.1919C62.7637 62.4733 61.9195 62.4733 61.3567 61.6292C61.0754 61.0665 60.2313 58.8154 59.9499 57.9713C60.2313 57.9713 60.2313 57.9713 60.2313 57.69C61.0754 58.5341 63.0451 59.9409 63.3264 60.5036C64.1705 61.3478 63.8892 61.9106 63.3264 62.1919ZM63.8892 60.2223C63.3264 59.9409 61.6381 58.2527 60.794 57.4086V57.1271V56.8457C61.6381 56.8457 63.3264 56.8457 63.8892 57.1271C64.7332 57.4086 65.0146 58.2527 65.0146 59.0968C65.0146 59.9409 64.7332 60.5036 63.8892 60.2223Z" fill="#C4C6CC"/>
<path opacity="0.06" d="M59.6685 62.1955C56.292 60.5073 53.4783 56.2866 53.4783 52.91C53.4783 51.2218 54.041 50.0964 55.1666 49.5337C53.7596 50.0964 52.9155 51.2219 52.9155 53.1915C52.9155 56.5679 55.7293 60.7886 59.1058 62.4768C60.794 63.3209 62.4823 63.3209 63.6078 62.7582C62.4823 63.0396 61.3567 63.0396 59.6685 62.1955Z" fill="black"/>
<path opacity="0.06" d="M67.5463 60.5084C67.5463 65.0104 63.8884 66.98 59.3864 64.729C54.8844 62.4781 51.2266 56.8505 51.2266 52.3485C51.2266 47.8466 54.8844 45.8769 59.3864 48.1279C63.8884 50.0975 67.5463 55.725 67.5463 60.5084Z" fill="black"/>
<path d="M20.2814 25.3381C18.0305 24.2126 16.0608 24.2126 14.654 24.7754L11.2775 26.4636C9.87062 27.0263 8.74512 28.7147 8.74512 30.9656C8.74512 35.4676 12.403 41.0951 16.905 43.346C19.156 44.4715 21.1257 44.4715 22.8138 43.9088C22.8138 43.9088 25.909 42.2206 26.1904 41.9392C27.5972 41.0951 28.4414 39.6882 28.4414 37.4372C28.4414 33.2165 24.7835 27.5891 20.2814 25.3381Z" fill="#2D3134"/>
<path opacity="0.39" d="M22.8066 43.8992C23.3694 43.6178 25.9017 42.211 26.1831 42.211C27.59 41.3668 28.4341 39.9599 28.4341 37.7089C28.4341 35.7393 27.8713 33.7697 26.7459 32.0815L23.6507 33.7697C24.7762 35.7393 25.3389 37.7089 25.3389 39.3972C25.3389 41.6481 24.4948 43.3365 22.8066 43.8992Z" fill="black"/>
<path d="M16.8943 28.9944C13.5178 27.3061 10.7041 28.713 10.7041 32.0895C10.7041 35.466 13.5178 39.6866 16.8943 41.3748C20.2708 43.0631 23.0846 41.6562 23.0846 38.2797C23.366 34.9033 20.5522 30.6826 16.8943 28.9944ZM21.1149 33.215C21.6777 34.0591 21.9592 34.9033 21.3963 35.1847C21.1149 35.466 19.1454 35.1847 18.3013 34.9033C18.3013 34.6218 18.0198 34.6218 18.0198 34.3404C18.3013 33.4963 18.864 32.0895 19.4267 31.8081C19.7081 31.5268 20.5522 32.3709 21.1149 33.215ZM16.8943 29.5571C17.7384 30.1198 18.5827 30.6826 18.5827 31.2454C18.5827 31.8081 17.7384 33.215 17.1757 33.7777C17.1757 33.7777 16.8943 33.7777 16.8943 33.4963H16.613C16.0502 32.3709 15.2061 30.4012 15.2061 29.8385C15.4875 28.9944 16.0502 28.9944 16.8943 29.5571ZM12.9551 29.2757C13.5178 28.9944 14.3619 28.9944 14.9248 29.8385C15.2061 30.4012 16.0502 32.6522 16.3316 33.4963C16.0502 33.4963 16.0502 33.4963 16.0502 33.7777C15.2061 32.9336 13.2365 31.5268 12.9551 30.9639C12.111 30.1198 12.3924 29.5571 12.9551 29.2757ZM11.2669 32.3709C11.2669 31.5268 11.5482 30.9639 12.3924 31.2454C12.9551 31.5268 14.6434 33.215 15.4875 34.0591V34.3404V34.6218C14.6434 34.6218 12.9551 34.6218 12.3924 34.3404C11.5482 34.0591 11.2669 33.215 11.2669 32.3709ZM12.9551 37.1542C12.3924 36.3101 12.111 35.466 12.6737 35.1847C12.9551 34.9033 14.9248 35.1847 15.7689 35.466C15.7689 35.7474 16.0502 35.7474 16.0502 36.0287C15.7689 36.8728 15.2061 38.2797 14.6434 38.5612C14.3619 38.8425 13.5178 37.9983 12.9551 37.1542ZM16.8943 40.8121C16.0502 40.2494 15.2061 39.6866 15.2061 39.1239C15.2061 38.5612 16.0502 37.1542 16.613 36.5915C16.613 36.5915 16.8943 36.5915 16.8943 36.8728H17.1757C17.7384 37.9983 18.5827 39.968 18.5827 40.5307C18.5827 41.3748 18.0198 41.3748 16.8943 40.8121ZM21.1149 41.3748C20.5522 41.6562 19.7081 41.6562 19.1454 40.8121C18.864 40.2494 18.0198 37.9983 17.7384 37.1542C18.0198 37.1542 18.0198 37.1542 18.0198 36.8728C18.864 37.7169 20.8336 39.1239 21.1149 39.6866C21.9592 40.5307 21.6777 41.0935 21.1149 41.3748ZM21.6777 39.1239C21.1149 38.8425 19.4267 37.1542 18.5827 36.3101V36.0287V35.7474C19.4267 35.7474 21.1149 35.7474 21.6777 36.0287C22.5219 36.3101 22.8033 37.1542 22.8033 37.9983C22.8033 38.8425 22.5219 39.4053 21.6777 39.1239Z" fill="#C4C6CC"/>
<path opacity="0.06" d="M17.4571 41.0968C14.0806 39.4086 11.2669 35.1879 11.2669 31.8115C11.2669 30.1232 11.8296 28.9978 12.9551 28.4351C11.5482 28.9978 10.7041 30.1232 10.7041 32.0929C10.7041 35.4694 13.5178 39.69 16.8943 41.3782C18.5827 42.2223 20.2708 42.2223 21.3963 41.6596C20.2708 42.2223 19.1454 41.9409 17.4571 41.0968Z" fill="black"/>
<path opacity="0.06" d="M25.3463 39.401C25.3463 43.9031 21.6884 45.8726 17.1864 43.6217C12.6843 41.3707 8.74512 35.7431 8.74512 30.9598C8.74512 26.1763 12.403 24.488 16.905 26.739C21.6884 29.2716 25.3463 34.899 25.3463 39.401Z" fill="black"/>
<path d="M93.993 28.99L79.0801 12.1075L56.5702 0.852539L40.2504 2.25942L29.5581 1.41529L4.23438 14.0772V25.3322L7.3295 27.3017C8.73638 24.2066 12.6757 23.0811 16.8963 25.3322C21.961 27.8645 25.9002 33.492 26.7443 38.5567L49.2544 50.0931C49.8171 45.3097 54.0377 43.6215 59.1025 46.1538C64.1673 48.6862 68.3879 54.5952 68.9506 59.9412L80.2056 64.7246L110.031 50.0931V38.8381L93.993 28.99Z" fill="#CC291F"/>
<path d="M53.1978 26.7476L79.0842 13.5229L92.0275 28.4358L66.1411 41.3792L53.1978 26.7476Z" fill="#3399CC"/>
<path d="M91.1882 27.584L65.3018 40.5273L66.1459 41.3714L92.0323 28.4282L91.1882 27.584Z" fill="#2D3134"/>
<path opacity="0.15" d="M58.8306 23.9339L79.0896 13.5229L92.0328 28.4358L58.8306 23.9339Z" fill="black"/>
<path d="M42.5023 3.1012L50.9435 2.25708L28.1523 13.512L19.4297 14.3562L42.5023 3.1012Z" fill="#3399CC"/>
<path opacity="0.39" d="M42.2209 6.48535L28.1523 13.5198L19.4297 14.3639L42.2209 6.48535Z" fill="white"/>
<path d="M110.031 40.2402V45.305L105.81 47.2746V45.0236C105.81 44.1794 106.091 43.3353 106.654 42.4912C107.217 41.9285 107.78 41.3658 108.342 41.0844L110.031 40.2402Z" fill="white"/>
<path d="M80.498 55.1549L83.5932 53.7481C84.1559 53.4667 85 53.4667 85.5627 54.0294C85.8441 54.3108 86.1255 54.8735 86.1255 55.1549V57.1246L80.498 59.9384V55.1549Z" fill="white"/>
<path d="M80.5001 55.1593L79.0933 54.3152V59.38L80.5001 59.9427V55.1593Z" fill="#FFCC00"/>
<path opacity="0.39" d="M82.9316 55.6906C82.3429 56.4137 82.2565 57.3181 82.7386 57.7106C83.2208 58.1031 84.0889 57.835 84.6775 57.1119C85.2659 56.3888 85.3523 55.4844 84.8702 55.0919C84.388 54.6993 83.5202 54.9675 82.9316 55.6906Z" fill="#2D3134"/>
<path opacity="0.39" d="M81.8959 55.6482C81.3073 56.3713 81.2209 57.2757 81.7028 57.6682C82.1852 58.0604 83.0529 57.7923 83.6415 57.0691C84.2303 56.346 84.3165 55.4416 83.8346 55.0494C83.3522 54.6569 82.4842 54.925 81.8959 55.6482Z" fill="#2D3134"/>
<path opacity="0.39" d="M107.648 42.9208C107.059 43.6442 106.973 44.5485 107.455 44.9407C107.937 45.3332 108.805 45.0651 109.394 44.342C109.982 43.6189 110.069 42.7145 109.587 42.322C109.104 41.9295 108.237 42.1977 107.648 42.9208Z" fill="#2D3134"/>
<path opacity="0.39" d="M106.329 43.7156C105.74 44.4387 105.654 45.3431 106.136 45.7354C106.618 46.1279 107.486 45.8597 108.075 45.1366C108.663 44.4134 108.75 43.5092 108.268 43.1166C107.786 42.7244 106.918 42.9922 106.329 43.7156Z" fill="#2D3134"/>
<path d="M88.9395 52.3398L103.008 45.3054V48.6819L88.9395 55.7163V52.3398Z" fill="#2D3134"/>
<path d="M5.92395 16.3276L4.51709 15.7649V19.1414L5.92395 19.9855V16.3276Z" fill="#FF9900"/>
<path d="M37.7324 29.8368L63.0562 42.4986L50.1131 27.3042L37.7324 21.114V29.8368Z" fill="#3399CC"/>
<path d="M35.4726 20.2646L29.2824 17.1694L16.6206 19.1391L35.4726 28.7058V20.2646Z" fill="#3399CC"/>
<path opacity="0.15" d="M39.1392 29.8368V21.9581L37.7324 21.114V29.8368L63.0562 42.4986L61.9306 41.0917L39.1392 29.8368Z" fill="black"/>
<path opacity="0.15" d="M18.0276 19.1391L29.5638 17.1694H29.2824L16.6206 19.1391L35.4726 28.7058V27.8617L18.0276 19.1391Z" fill="black"/>
<path opacity="0.06" d="M65.8568 43.0602L50.9439 26.1779L27.5898 14.923L12.3956 16.3298L4.51709 14.3601V25.6151L7.61221 27.5848C8.73771 24.2083 12.677 23.0828 16.8976 25.3337C21.9623 27.8661 25.9016 33.4935 26.7457 38.5583L27.3085 38.8396L49.2557 50.376C49.8184 45.5927 54.0391 43.9043 59.1039 46.4368C64.1686 48.9692 68.3892 54.878 68.9519 60.2242L80.2069 65.0075V53.7525L65.8568 43.0602Z" fill="black"/>
<path d="M3.96436 22.8022L6.7781 24.209V28.4296L3.96436 27.0228V22.8022Z" fill="#CC291F"/>
<path opacity="0.39" d="M3.96436 22.8022L6.7781 24.209V28.4296L3.96436 27.0228V22.8022Z" fill="black"/>
<path d="M6.7781 24.2162V28.4368L7.34085 27.5927V23.3721L4.5271 21.9651L3.96436 22.8093L6.7781 24.2162Z" fill="#CC291F"/>
<path d="M79.9339 65.5621L112.292 49.5238V46.71L79.9339 62.7484L77.1201 61.3415V64.1553L79.9339 65.5621Z" fill="#CC291F"/>
<path opacity="0.39" d="M79.9339 65.5621L112.292 49.5238V46.71L79.9339 62.7484L77.1201 61.3415V64.1553L79.9339 65.5621Z" fill="black"/>
<path d="M79.9339 61.3488L110.885 45.873L112.292 46.7173L79.9339 62.7556L77.1201 61.3488L78.5271 60.7859L79.9339 61.3488Z" fill="#CC291F"/>
<path opacity="0.39" d="M80.498 55.1523L86.1255 57.122L80.498 59.9358V55.1523Z" fill="white"/>
<path opacity="0.39" d="M110.031 40.2402V45.305L105.81 47.2746L110.031 40.2402Z" fill="white"/>
<path d="M61.6463 41.6468L58.8325 37.7076C58.2698 37.1448 57.707 36.8633 56.8628 36.8633L53.4864 37.1448C52.9236 37.1448 52.3608 37.7076 52.3608 38.2703C52.3608 38.833 52.9236 39.3958 53.4864 39.3958L57.4257 39.9585L61.6463 41.6468Z" fill="#CC291F"/>
<path opacity="0.39" d="M61.6463 41.6468L58.8325 37.7076C58.2698 37.1448 57.707 36.8633 56.8628 36.8633L53.4864 37.1448C52.9236 37.1448 52.3608 37.7076 52.3608 38.2703C52.3608 38.833 52.9236 39.3958 53.4864 39.3958L57.4257 39.9585L61.6463 41.6468Z" fill="black"/>
<path d="M72.6094 34.3325C72.6094 34.6139 72.8907 34.6139 73.1722 34.6139L85.834 31.2374C86.1154 31.2374 86.1154 30.956 86.1154 30.6747C86.1154 30.3933 85.8338 30.3933 85.5523 30.3933L72.8905 33.7698C72.6091 33.7698 72.6094 34.0512 72.6094 34.3325Z" fill="black"/>
<path d="M65.585 37.9932C65.585 38.2746 65.8663 38.2746 66.1478 38.2746L78.8096 34.8981C79.091 34.8981 79.091 34.6167 79.091 34.3353C79.091 34.054 78.8094 34.054 78.528 34.054L65.8661 37.4305C65.5847 37.4305 65.585 37.7119 65.585 37.9932Z" fill="black"/>
<path opacity="0.5" d="M88.3792 30.1176C88.6607 28.4294 88.3792 26.7412 87.2538 25.8971C85.2842 24.4902 82.1891 25.3343 79.938 28.1481C77.9685 30.399 77.4056 33.2128 78.5312 34.9011L80.5007 34.0569C79.6566 32.9314 79.938 30.6804 81.345 28.9922C83.0332 27.0226 85.2842 26.1785 86.691 27.304C87.5351 27.8667 87.5351 29.2735 86.9724 30.6804L88.3792 30.1176Z" fill="black"/>
<path opacity="0.39" d="M94.0069 28.9865L65.8694 43.0552L50.9565 26.1728L79.0941 12.104L94.0069 28.9865Z" fill="black"/>
<path opacity="0.39" d="M110.042 38.8354L80.498 53.7482V60.7826L110.042 46.1511V38.8354Z" fill="black"/>
</g>
</g>
<defs>
<clipPath id="clip0_242_2">
<rect width="113" height="74" fill="white"/>
</clipPath>
</defs>
</svg>
