<svg width="114" height="74" viewBox="0 0 114 74" fill="none" xmlns="http://www.w3.org/2000/svg">
<g clip-path="url(#clip0_248_30)">
<mask id="mask0_248_30" style="mask-type:luminance" maskUnits="userSpaceOnUse" x="0" y="0" width="114" height="74">
<path d="M113.5 0H0.5V74H113.5V0Z" fill="white"/>
</mask>
<g mask="url(#mask0_248_30)">
<mask id="mask1_248_30" style="mask-type:luminance" maskUnits="userSpaceOnUse" x="0" y="0" width="114" height="75">
<path d="M113.442 0.852539H0.803223V74.01H113.442V0.852539Z" fill="white"/>
</mask>
<g mask="url(#mask1_248_30)">
<path d="M88.021 23.3633L91.3975 22.2379C91.9602 21.9565 92.5231 22.2379 92.8045 22.5192C93.3672 23.082 93.3672 23.6447 92.8045 24.2076L91.6789 26.1771L88.021 23.3633Z" fill="#CC291F"/>
<path opacity="0.39" d="M88.021 23.3633L91.3975 22.2379C91.9602 21.9565 92.5231 22.2379 92.8045 22.5192C93.3672 23.082 93.3672 23.6447 92.8045 24.2076L91.6789 26.1771" fill="black"/>
<path opacity="0.3" d="M73.9607 74.012L113.353 54.3158L40.1957 17.7371L0.803223 37.4333L73.9607 74.012Z" fill="#262626"/>
<path d="M75.3608 62.1955L107.719 46.7201L37.3751 11.2668L5.01709 26.7424L75.3608 62.1955Z" fill="#2D3134"/>
<path d="M62.9815 46.1528C60.7305 45.0274 58.7609 45.0274 57.354 45.5901L54.2589 47.2784C52.5707 48.1225 51.7266 49.5293 51.7266 52.0617C51.7266 56.5637 55.3844 62.1913 59.8864 64.4422C62.1374 65.5678 64.107 65.5678 65.7953 65.005C65.7953 65.005 68.8904 63.3167 69.1718 63.0354C70.5787 62.1913 71.4228 60.7843 71.4228 58.5334C71.1414 54.0314 67.4835 48.6852 62.9815 46.1528Z" fill="#2D3134"/>
<path opacity="0.39" d="M65.5176 65.012C66.0803 64.7306 68.6127 63.3238 68.8941 63.3238C70.3009 62.4797 71.145 61.0727 71.145 58.8218C71.145 56.8521 70.5823 54.8826 69.4568 53.1943L66.3617 54.8826C67.4871 56.8521 68.0499 58.8218 68.0499 60.51C68.0499 62.761 67.2058 64.1679 65.5176 65.012Z" fill="black"/>
<path d="M59.6058 50.0928C56.2293 48.4045 53.4155 49.8114 53.4155 53.1879C53.4155 56.5644 56.2293 60.785 59.6058 62.4733C62.9823 64.1615 65.796 62.7547 65.796 59.3782C66.0773 56.0016 63.2637 51.781 59.6058 50.0928ZM63.8264 54.3134C64.3892 55.1575 64.6705 56.0016 64.1078 56.283C63.8264 56.5644 61.8567 56.283 61.0126 56.0016C61.0126 55.7203 60.7313 55.7203 60.7313 55.4389C61.0126 54.5948 61.5754 53.1879 62.1381 52.9065C62.4195 52.6251 63.2637 53.1879 63.8264 54.3134ZM59.6058 50.6556C60.4499 51.2183 61.294 51.781 61.294 52.3438C61.294 52.9065 60.4499 54.3134 59.8872 54.8762C59.8872 54.8762 59.6058 54.8762 59.6058 54.5948H59.3244C58.7616 53.4692 57.9175 51.4997 57.9175 50.9369C58.1989 50.0928 58.7616 50.0928 59.6058 50.6556ZM55.6666 50.0928C56.2293 49.8114 57.0734 49.8114 57.6361 50.6556C57.9175 51.2183 58.7616 53.4692 59.0431 54.3134C58.7616 54.3134 58.7616 54.3134 58.7616 54.5948C57.9175 53.7507 55.9479 52.3438 55.6666 51.781C54.8224 50.9369 55.1037 50.3742 55.6666 50.0928ZM53.9783 53.4692C53.9783 52.6251 54.2596 52.0624 55.1037 52.3438C55.6666 52.6251 57.3548 54.3135 58.1989 55.1575V55.4389V55.7203C57.3548 55.7203 55.6666 55.7203 55.1037 55.4389C54.2596 55.1575 53.9783 54.3134 53.9783 53.4692ZM55.6666 58.2527C55.1037 57.4086 54.8224 56.5644 55.3852 56.283C55.6666 56.0016 57.6361 56.283 58.4802 56.5644C58.4802 56.8457 58.7616 56.8457 58.7616 57.1271C58.4802 57.9713 57.9175 59.3782 57.3548 59.6595C57.0734 59.9409 56.2293 59.0968 55.6666 58.2527ZM59.6058 61.9106C58.7616 61.3478 57.9175 60.785 57.9175 60.2223C57.9175 59.6595 58.7616 58.2527 59.3244 57.69C59.3244 57.69 59.6058 57.69 59.6058 57.9713H59.8872C60.4499 59.0968 61.294 61.0665 61.294 61.6292C61.294 62.4733 60.7313 62.4733 59.6058 61.9106ZM63.8264 62.1919C63.2637 62.4733 62.4195 62.4733 61.8567 61.6292C61.5754 61.0665 60.7313 58.8154 60.4499 57.9713C60.7313 57.9713 60.7313 57.9713 60.7313 57.69C61.5754 58.5341 63.5451 59.9409 63.8264 60.5036C64.6705 61.3478 64.3892 61.9106 63.8264 62.1919ZM64.3892 60.2223C63.8264 59.9409 62.1381 58.2527 61.294 57.4086V57.1271V56.8457C62.1381 56.8457 63.8264 56.8457 64.3892 57.1271C65.2332 57.4086 65.5146 58.2527 65.5146 59.0968C65.5146 59.9409 65.2332 60.5036 64.3892 60.2223Z" fill="#C4C6CC"/>
<path opacity="0.06" d="M60.1685 62.1955C56.792 60.5073 53.9783 56.2866 53.9783 52.91C53.9783 51.2218 54.541 50.0964 55.6666 49.5337C54.2596 50.0964 53.4155 51.2219 53.4155 53.1915C53.4155 56.5679 56.2293 60.7886 59.6058 62.4768C61.294 63.3209 62.9823 63.3209 64.1078 62.7582C62.9823 63.0396 61.8567 63.0396 60.1685 62.1955Z" fill="black"/>
<path opacity="0.06" d="M68.0463 60.5084C68.0463 65.0104 64.3884 66.98 59.8864 64.729C55.3844 62.4781 51.7266 56.8505 51.7266 52.3485C51.7266 47.8466 55.3844 45.8769 59.8864 48.1279C64.3884 50.0975 68.0463 55.725 68.0463 60.5084Z" fill="black"/>
<path d="M20.7814 25.3381C18.5305 24.2126 16.5608 24.2126 15.154 24.7754L11.7775 26.4636C10.3706 27.0263 9.24512 28.7147 9.24512 30.9656C9.24512 35.4676 12.903 41.0951 17.405 43.346C19.656 44.4715 21.6257 44.4715 23.3138 43.9088C23.3138 43.9088 26.409 42.2206 26.6904 41.9392C28.0972 41.0951 28.9414 39.6882 28.9414 37.4372C28.9414 33.2165 25.2835 27.5891 20.7814 25.3381Z" fill="#2D3134"/>
<path opacity="0.39" d="M23.3066 43.8992C23.8694 43.6178 26.4017 42.211 26.6831 42.211C28.09 41.3668 28.9341 39.9599 28.9341 37.7089C28.9341 35.7393 28.3713 33.7697 27.2459 32.0815L24.1507 33.7697C25.2762 35.7393 25.8389 37.7089 25.8389 39.3972C25.8389 41.6481 24.9948 43.3365 23.3066 43.8992Z" fill="black"/>
<path d="M17.3943 28.9944C14.0178 27.3061 11.2041 28.713 11.2041 32.0895C11.2041 35.466 14.0178 39.6866 17.3943 41.3748C20.7708 43.0631 23.5846 41.6562 23.5846 38.2797C23.866 34.9033 21.0522 30.6826 17.3943 28.9944ZM21.6149 33.215C22.1777 34.0591 22.4592 34.9033 21.8963 35.1847C21.6149 35.466 19.6454 35.1847 18.8013 34.9033C18.8013 34.6218 18.5198 34.6218 18.5198 34.3404C18.8013 33.4963 19.364 32.0895 19.9267 31.8081C20.2081 31.5268 21.0522 32.3709 21.6149 33.215ZM17.3943 29.5571C18.2384 30.1198 19.0827 30.6826 19.0827 31.2454C19.0827 31.8081 18.2384 33.215 17.6757 33.7777C17.6757 33.7777 17.3943 33.7777 17.3943 33.4963H17.113C16.5502 32.3709 15.7061 30.4012 15.7061 29.8385C15.9875 28.9944 16.5502 28.9944 17.3943 29.5571ZM13.4551 29.2757C14.0178 28.9944 14.8619 28.9944 15.4248 29.8385C15.7061 30.4012 16.5502 32.6522 16.8316 33.4963C16.5502 33.4963 16.5502 33.4963 16.5502 33.7777C15.7061 32.9336 13.7365 31.5268 13.4551 30.9639C12.611 30.1198 12.8924 29.5571 13.4551 29.2757ZM11.7669 32.3709C11.7669 31.5268 12.0482 30.9639 12.8924 31.2454C13.4551 31.5268 15.1434 33.215 15.9875 34.0591V34.3404V34.6218C15.1434 34.6218 13.4551 34.6218 12.8924 34.3404C12.0482 34.0591 11.7669 33.215 11.7669 32.3709ZM13.4551 37.1542C12.8924 36.3101 12.611 35.466 13.1737 35.1847C13.4551 34.9033 15.4248 35.1847 16.2689 35.466C16.2689 35.7474 16.5502 35.7474 16.5502 36.0287C16.2689 36.8728 15.7061 38.2797 15.1434 38.5612C14.8619 38.8425 14.0178 37.9983 13.4551 37.1542ZM17.3943 40.8121C16.5502 40.2494 15.7061 39.6866 15.7061 39.1239C15.7061 38.5612 16.5502 37.1542 17.113 36.5915C17.113 36.5915 17.3943 36.5915 17.3943 36.8728H17.6757C18.2384 37.9983 19.0827 39.968 19.0827 40.5307C19.0827 41.3748 18.5198 41.3748 17.3943 40.8121ZM21.6149 41.3748C21.0522 41.6562 20.2081 41.6562 19.6454 40.8121C19.364 40.2494 18.5198 37.9983 18.2384 37.1542C18.5198 37.1542 18.5198 37.1542 18.5198 36.8728C19.364 37.7169 21.3336 39.1239 21.6149 39.6866C22.4592 40.5307 22.1777 41.0935 21.6149 41.3748ZM22.1777 39.1239C21.6149 38.8425 19.9267 37.1542 19.0827 36.3101V36.0287V35.7474C19.9267 35.7474 21.6149 35.7474 22.1777 36.0287C23.0219 36.3101 23.3033 37.1542 23.3033 37.9983C23.3033 38.8425 23.0219 39.4053 22.1777 39.1239Z" fill="#C4C6CC"/>
<path opacity="0.06" d="M17.9571 41.0968C14.5806 39.4086 11.7669 35.1879 11.7669 31.8115C11.7669 30.1232 12.3296 28.9978 13.4551 28.4351C12.0482 28.9978 11.2041 30.1232 11.2041 32.0929C11.2041 35.4694 14.0178 39.69 17.3943 41.3782C19.0827 42.2223 20.7708 42.2223 21.8963 41.6596C20.7708 42.2223 19.6454 41.9409 17.9571 41.0968Z" fill="black"/>
<path opacity="0.06" d="M25.8463 39.401C25.8463 43.9031 22.1884 45.8726 17.6864 43.6217C13.1843 41.3707 9.24512 35.7431 9.24512 30.9598C9.24512 26.1763 12.903 24.488 17.405 26.739C22.1884 29.2716 25.8463 34.899 25.8463 39.401Z" fill="black"/>
<path d="M94.493 28.99L79.5801 12.1075L57.0702 0.852539L40.7504 2.25942L30.0581 1.41529L4.73438 14.0772V25.3322L7.8295 27.3017C9.23638 24.2066 13.1757 23.0811 17.3963 25.3322C22.461 27.8645 26.4002 33.492 27.2443 38.5567L49.7544 50.0931C50.3171 45.3097 54.5377 43.6215 59.6025 46.1538C64.6673 48.6862 68.8879 54.5952 69.4506 59.9412L80.7056 64.7246L110.531 50.0931V38.8381L94.493 28.99Z" fill="#CC291F"/>
<path d="M53.6978 26.7477L79.5842 13.5229L92.5275 28.4359L66.6411 41.3792L53.6978 26.7477Z" fill="#3399CC"/>
<path d="M91.6882 27.584L65.8018 40.5273L66.6459 41.3714L92.5323 28.4282L91.6882 27.584Z" fill="#2D3134"/>
<path opacity="0.15" d="M59.3306 23.934L79.5896 13.5229L92.5328 28.4359L59.3306 23.934Z" fill="black"/>
<path d="M43.0023 3.1012L51.4435 2.25708L28.6523 13.512L19.9297 14.3562L43.0023 3.1012Z" fill="#3399CC"/>
<path opacity="0.39" d="M42.7209 6.48535L28.6523 13.5198L19.9297 14.3639L42.7209 6.48535Z" fill="white"/>
<path d="M110.531 40.2402V45.305L106.31 47.2746V45.0236C106.31 44.1794 106.591 43.3353 107.154 42.4912C107.717 41.9285 108.28 41.3658 108.842 41.0844L110.531 40.2402Z" fill="white"/>
<path d="M80.998 55.1549L84.0932 53.7481C84.6559 53.4667 85.5 53.4667 86.0627 54.0294C86.3441 54.3108 86.6255 54.8735 86.6255 55.1549V57.1246L80.998 59.9384V55.1549Z" fill="white"/>
<path d="M81.0001 55.1593L79.5933 54.3152V59.38L81.0001 59.9427V55.1593Z" fill="#FFCC00"/>
<path opacity="0.39" d="M83.4316 55.6906C82.8429 56.4137 82.7565 57.3181 83.2386 57.7106C83.7208 58.1031 84.5889 57.835 85.1775 57.1119C85.7659 56.3888 85.8523 55.4844 85.3702 55.0919C84.888 54.6993 84.0202 54.9675 83.4316 55.6906Z" fill="#2D3134"/>
<path opacity="0.39" d="M82.3959 55.6482C81.8073 56.3713 81.7209 57.2757 82.2028 57.6682C82.6852 58.0604 83.5529 57.7923 84.1415 57.0691C84.7303 56.346 84.8165 55.4416 84.3346 55.0494C83.8522 54.6569 82.9842 54.925 82.3959 55.6482Z" fill="#2D3134"/>
<path opacity="0.39" d="M108.148 42.9208C107.559 43.6442 107.473 44.5485 107.955 44.9407C108.437 45.3332 109.305 45.0651 109.894 44.342C110.482 43.6189 110.569 42.7145 110.087 42.322C109.604 41.9295 108.737 42.1977 108.148 42.9208Z" fill="#2D3134"/>
<path opacity="0.39" d="M106.829 43.7156C106.24 44.4387 106.154 45.3431 106.636 45.7354C107.118 46.1279 107.986 45.8597 108.575 45.1366C109.163 44.4134 109.25 43.5092 108.768 43.1166C108.286 42.7244 107.418 42.9922 106.829 43.7156Z" fill="#2D3134"/>
<path d="M89.4395 52.3398L103.508 45.3054V48.6819L89.4395 55.7163V52.3398Z" fill="#2D3134"/>
<path d="M6.42395 16.3276L5.01709 15.7649V19.1414L6.42395 19.9855V16.3276Z" fill="#FF9900"/>
<path d="M38.2324 29.8368L63.5562 42.4986L50.6131 27.3042L38.2324 21.114V29.8368Z" fill="#3399CC"/>
<path d="M35.9726 20.2646L29.7824 17.1694L17.1206 19.1391L35.9726 28.7058V20.2646Z" fill="#3399CC"/>
<path opacity="0.15" d="M39.6392 29.8368V21.9581L38.2324 21.114V29.8368L63.5562 42.4986L62.4306 41.0917L39.6392 29.8368Z" fill="black"/>
<path opacity="0.15" d="M18.5276 19.1391L30.0638 17.1694H29.7824L17.1206 19.1391L35.9726 28.7058V27.8617L18.5276 19.1391Z" fill="black"/>
<path opacity="0.06" d="M66.3568 43.0602L51.4439 26.1779L28.0898 14.923L12.8956 16.3298L5.01709 14.3601V25.6151L8.11221 27.5848C9.23771 24.2083 13.177 23.0828 17.3976 25.3337C22.4623 27.8661 26.4016 33.4935 27.2457 38.5583L27.8085 38.8396L49.7557 50.376C50.3184 45.5927 54.5391 43.9043 59.6039 46.4368C64.6686 48.9692 68.8892 54.878 69.4519 60.2242L80.7069 65.0075V53.7525L66.3568 43.0602Z" fill="black"/>
<path d="M4.46436 22.8022L7.2781 24.209V28.4296L4.46436 27.0228V22.8022Z" fill="#CC291F"/>
<path opacity="0.39" d="M4.46436 22.8022L7.2781 24.209V28.4296L4.46436 27.0228V22.8022Z" fill="black"/>
<path d="M7.2781 24.2162V28.4368L7.84085 27.5927V23.3721L5.0271 21.9651L4.46436 22.8093L7.2781 24.2162Z" fill="#CC291F"/>
<path d="M80.4339 65.5621L112.792 49.5238V46.71L80.4339 62.7484L77.6201 61.3415V64.1553L80.4339 65.5621Z" fill="#CC291F"/>
<path opacity="0.39" d="M80.4339 65.5621L112.792 49.5238V46.71L80.4339 62.7484L77.6201 61.3415V64.1553L80.4339 65.5621Z" fill="black"/>
<path d="M80.4339 61.3488L111.385 45.873L112.792 46.7173L80.4339 62.7556L77.6201 61.3488L79.0271 60.7859L80.4339 61.3488Z" fill="#CC291F"/>
<path opacity="0.39" d="M80.998 55.1523L86.6255 57.122L80.998 59.9358V55.1523Z" fill="white"/>
<path opacity="0.39" d="M110.531 40.2402V45.305L106.31 47.2746L110.531 40.2402Z" fill="white"/>
<path d="M62.1463 41.6468L59.3325 37.7076C58.7698 37.1448 58.207 36.8633 57.3628 36.8633L53.9864 37.1448C53.4236 37.1448 52.8608 37.7076 52.8608 38.2703C52.8608 38.833 53.4236 39.3958 53.9864 39.3958L57.9257 39.9585L62.1463 41.6468Z" fill="#CC291F"/>
<path opacity="0.39" d="M62.1463 41.6468L59.3325 37.7076C58.7698 37.1448 58.207 36.8633 57.3628 36.8633L53.9864 37.1448C53.4236 37.1448 52.8608 37.7076 52.8608 38.2703C52.8608 38.833 53.4236 39.3958 53.9864 39.3958L57.9257 39.9585L62.1463 41.6468Z" fill="black"/>
<path d="M73.1094 34.3325C73.1094 34.6139 73.3907 34.6139 73.6722 34.6139L86.334 31.2374C86.6154 31.2374 86.6154 30.956 86.6154 30.6747C86.6154 30.3933 86.3338 30.3933 86.0523 30.3933L73.3905 33.7698C73.1091 33.7698 73.1094 34.0512 73.1094 34.3325Z" fill="black"/>
<path d="M66.085 37.9932C66.085 38.2746 66.3663 38.2746 66.6478 38.2746L79.3096 34.8981C79.591 34.8981 79.591 34.6167 79.591 34.3353C79.591 34.054 79.3094 34.054 79.028 34.054L66.3661 37.4305C66.0847 37.4305 66.085 37.7119 66.085 37.9932Z" fill="black"/>
<path opacity="0.5" d="M88.8792 30.1176C89.1607 28.4294 88.8792 26.7412 87.7538 25.8971C85.7842 24.4902 82.6891 25.3343 80.438 28.1481C78.4685 30.399 77.9056 33.2128 79.0312 34.9011L81.0007 34.0569C80.1566 32.9314 80.438 30.6804 81.845 28.9922C83.5332 27.0226 85.7842 26.1785 87.191 27.304C88.0351 27.8667 88.0351 29.2735 87.4724 30.6804L88.8792 30.1176Z" fill="black"/>
<path opacity="0.39" d="M94.5069 28.9865L66.3694 43.0552L51.4565 26.1728L79.5941 12.104L94.5069 28.9865Z" fill="black"/>
<path opacity="0.39" d="M110.542 38.8354L80.998 53.7482V60.7826L110.542 46.1511V38.8354Z" fill="black"/>
</g>
</g>
</g>
<defs>
<clipPath id="clip0_248_30">
<rect width="113" height="74" fill="white" transform="translate(0.5)"/>
</clipPath>
</defs>
</svg>
