<svg width="83" height="87" viewBox="0 0 83 87" fill="none" xmlns="http://www.w3.org/2000/svg">
<path d="M5.78975 55.4655C21.9263 33.5501 44.1362 31.0292 53.771 30.6571C53.8133 30.6555 53.8552 30.6572 53.8973 30.6618C60.8564 31.4141 60.9288 33.1585 59.2949 34.9693C59.2113 35.0619 59.1091 35.1318 58.994 35.18C45.6411 40.7809 29.2793 62.3255 21.4191 74.4062C20.9497 75.1276 19.8867 74.8329 19.9217 73.9728C20.1625 68.0529 21.7274 59.1236 23.2233 54.1966C23.3945 53.6325 22.9976 53.0504 22.4088 53.0767C17.8904 53.2792 11.0984 55.5019 6.65977 56.7418C5.88687 56.9577 5.31385 56.1117 5.78975 55.4655Z" fill="#F6BF34"/>
<path fill-rule="evenodd" clip-rule="evenodd" d="M4.36272 54.4249C20.9749 31.8635 43.8631 29.2799 53.6957 28.9001C53.8316 28.895 53.9598 28.9008 54.0794 28.9137C55.8777 29.1081 57.3108 29.3741 58.4211 29.7183C59.494 30.051 60.463 30.5154 61.119 31.2412C61.8824 32.0858 62.0752 33.1201 61.816 34.0956C61.5939 34.9316 61.0684 35.6321 60.5966 36.1551L59.2876 34.974C60.9215 33.1632 60.849 31.4188 53.8899 30.6665C53.8479 30.6619 53.8061 30.6602 53.7637 30.6619C44.1289 31.034 21.919 33.5547 5.78235 55.4702C5.30654 56.1165 5.87959 56.9624 6.65249 56.7465L7.12677 58.4445C4.69008 59.1252 2.92341 56.3796 4.36272 54.4249ZM19.9394 73.4411C20.2482 67.5297 21.7646 58.9817 23.216 54.2012C23.3873 53.6372 22.9903 53.0551 22.4015 53.0815C18.6941 53.2476 13.4559 54.7738 9.24325 56.0012C8.32162 56.2698 7.44916 56.524 6.65249 56.7465L7.12677 58.4445C7.96149 58.2113 8.85104 57.9521 9.7804 57.6812C11.4063 57.2073 13.154 56.6979 14.9425 56.2308C17.1811 55.646 19.3384 55.1686 21.1665 54.9532C19.7485 60.1649 18.3803 68.3124 18.1528 73.9059C18.1008 75.1874 18.9249 76.1796 19.9916 76.483C21.0331 76.7793 22.2207 76.4003 22.8894 75.3724C26.7841 69.3868 32.7873 61.0541 39.4581 53.5382C46.1797 45.9649 53.3852 39.446 59.6685 36.8106C60.0028 36.6704 60.3252 36.456 60.5966 36.1551L59.2876 34.974C59.204 35.0667 59.1018 35.1366 58.9867 35.1848C45.7826 40.7231 29.6365 61.8518 21.6779 74.0033C21.6774 74.0039 21.6769 74.0047 21.6765 74.0054C21.6672 74.0196 21.6579 74.0338 21.6486 74.048C21.5688 74.1699 21.4899 74.2908 21.4118 74.4109C20.9424 75.1324 19.8794 74.8375 19.9144 73.9775C19.9214 73.805 19.9295 73.6299 19.9387 73.4525C19.939 73.4487 19.9392 73.4449 19.9394 73.4411Z" fill="#D97D11"/>
<path fill-rule="evenodd" clip-rule="evenodd" d="M53.9293 32.8697C53.9923 33.5973 53.4533 34.2381 52.7258 34.3008C37.3994 35.6252 25.0417 45.032 18.3075 50.4935C17.7404 50.9535 16.9077 50.8667 16.4477 50.2995C15.9877 49.7324 16.0746 48.8996 16.6417 48.4396C23.3889 42.9675 36.2985 33.0661 52.4982 31.6662C53.2257 31.6033 53.8665 32.1422 53.9293 32.8697Z" fill="#ECAF11"/>
<path fill-rule="evenodd" clip-rule="evenodd" d="M55.8766 31.87C56.2507 32.4971 56.0455 33.3089 55.4183 33.6829C42.1006 41.6256 31.3789 53.842 26.5569 61.6261C26.1722 62.2469 25.3573 62.4385 24.7365 62.0539C24.1157 61.6694 23.9242 60.8543 24.3087 60.2335C29.323 52.1389 40.3349 39.5996 54.0637 31.4116C54.6909 31.0377 55.5026 31.2428 55.8766 31.87Z" fill="#ECAF11"/>
<path fill-rule="evenodd" clip-rule="evenodd" d="M36.9468 33.3582C40.522 36.6156 43.2193 40.779 44.7739 45.4195C49.5558 40.8295 54.442 37.0838 58.9807 35.18C59.0958 35.1317 59.198 35.0619 59.2816 34.9693C60.9155 33.1585 60.8431 31.414 53.8839 30.6617C53.8418 30.6572 53.8001 30.6555 53.7577 30.6571C49.8259 30.809 43.7997 31.3186 36.9468 33.3582Z" fill="#DA8D19"/>
<path d="M43.9596 25.6792L51.828 23.2103C52.3039 23.0609 52.6942 22.7171 52.9024 22.2639L55.5349 16.5315L57.2518 12.793C57.8111 11.5753 59.4707 11.4019 60.2695 12.4778L66.4823 20.8454C66.7795 21.2458 67.2326 21.5015 67.729 21.5493L75.9378 22.3387C77.3322 22.4728 78.0208 24.1011 77.1458 25.1949L71.1958 32.6332C70.8311 33.0891 70.7157 33.6959 70.8876 34.2537L73.2109 41.7926C73.6436 43.1967 72.2696 44.483 70.897 43.9586L62.4987 40.7506C61.9741 40.5502 61.3854 40.6117 60.9136 40.9161L53.3596 45.7906C52.1249 46.5872 50.5147 45.6127 50.6479 44.1494L51.3631 36.2932C51.416 35.7118 51.1778 35.142 50.7267 34.7713L43.3679 28.7233C42.2857 27.8339 42.623 26.0985 43.9596 25.6792Z" fill="#FFE24B"/>
<path fill-rule="evenodd" clip-rule="evenodd" d="M43.4235 24.002L51.292 21.5332L55.6414 12.0622C56.7599 9.62678 60.079 9.28009 61.6767 11.4318L67.8894 19.7994L76.0983 20.5889C78.8868 20.8571 80.2643 24.1135 78.5143 26.3013L72.5641 33.7396L74.8874 41.2784C75.7529 44.0867 73.0048 46.6594 70.2596 45.6107L61.8612 42.4026L54.3072 47.277C51.8379 48.8704 48.6175 46.9212 48.8839 43.9946L49.5991 36.1385L42.2402 30.0903C40.0759 28.3115 40.7504 24.8407 43.4235 24.002ZM51.8197 23.2153L43.9513 25.6841C42.6148 26.1036 42.2775 27.8389 43.3596 28.7283L50.7185 34.7764C51.1695 35.1471 51.4078 35.7169 51.3548 36.2983L50.6397 44.1545C50.5064 45.6178 52.1166 46.5924 53.3513 45.7956L60.9054 40.9212C61.3772 40.6167 61.9657 40.5553 62.4904 40.7556L70.8887 43.9638C72.2613 44.4881 73.6353 43.2018 73.2026 41.7976L70.8793 34.2588C70.7074 33.7009 70.8228 33.0941 71.1875 32.6383L77.1375 25.2C78.0126 24.1062 77.3239 22.4779 75.9295 22.3438L67.7207 21.5543C67.2243 21.5066 66.7712 21.2508 66.4739 20.8504L60.2611 12.4828C59.4624 11.407 57.8028 11.5803 57.2436 12.798L52.8941 22.2689C52.686 22.7221 52.2956 23.066 51.8197 23.2153Z" fill="#D97D11"/>
<path d="M52.2776 27.1218L56.6645 25.7454C56.9024 25.6707 57.0976 25.4987 57.2016 25.2721L58.6322 22.1572L59.6047 20.0392C59.8844 19.4304 60.7142 19.3437 61.1136 19.8817L64.5464 24.505C64.6951 24.7052 64.9215 24.833 65.1698 24.8569L69.7463 25.2971C70.4435 25.3641 70.7877 26.1782 70.3502 26.7252L67.0445 30.8577C66.8622 31.0857 66.8045 31.3891 66.8904 31.668L68.1935 35.8962C68.4098 36.5983 67.7229 37.2414 67.0365 36.9793L62.3505 35.1893C62.0883 35.089 61.794 35.1199 61.5581 35.272L57.3432 37.9919C56.7258 38.3902 55.9207 37.9029 55.9873 37.1712L56.3884 32.765C56.4149 32.4743 56.2958 32.1894 56.0703 32.0041L51.9818 28.6439C51.4407 28.1992 51.6094 27.3315 52.2776 27.1218Z" fill="#FFED8D"/>
<path fill-rule="evenodd" clip-rule="evenodd" d="M55.7693 24.1723L51.7562 25.4315C49.7514 26.0604 49.2455 28.6636 50.8688 29.9977L54.5967 33.0616L54.238 37.0032C54.0382 39.1982 56.4534 40.6601 58.3053 39.4651L62.1451 36.9874L66.4138 38.618C68.4727 39.4046 70.5338 37.4752 69.8847 35.3689L68.7191 31.5864L71.7333 27.8182C73.0459 26.1775 72.0129 23.7351 69.9215 23.5339L65.7347 23.1314L62.5354 18.8224C61.3373 17.2087 58.8478 17.4687 58.0091 19.2953L55.7693 24.1723ZM56.6708 25.7372L52.284 27.1136C51.6158 27.3233 51.4471 28.1909 51.9882 28.6357L56.0766 31.9959C56.3021 32.1812 56.4213 32.4661 56.3948 32.7569L55.9937 37.1631C55.927 37.8947 56.7322 38.382 57.3495 37.9837L61.5644 35.2639C61.8003 35.1117 62.0946 35.0809 62.3569 35.1811L67.0429 36.9711C67.7293 37.2333 68.4163 36.5902 68.1999 35.8881L66.8968 31.6598C66.8108 31.3809 66.8685 31.0775 67.0508 30.8495L70.3566 26.7169C70.7942 26.1701 70.4498 25.3559 69.7526 25.2888L65.1761 24.8488C64.9279 24.8248 64.7014 24.697 64.5527 24.4967L61.1199 19.8734C60.7205 19.3355 59.8908 19.4221 59.6112 20.0311L57.2079 25.264C57.1039 25.4906 56.9087 25.6625 56.6708 25.7372Z" fill="#F9BF2A"/>
<path fill-rule="evenodd" clip-rule="evenodd" d="M26.5355 39.7205C26.7622 40.1513 26.5967 40.6844 26.1658 40.911C19.668 44.3297 13.1178 50.9261 10.659 53.8023C10.3426 54.1724 9.7862 54.2159 9.41618 53.8996C9.04607 53.5832 9.00255 53.0267 9.31894 52.6567C11.8357 49.7128 18.5577 42.9217 25.3449 39.3508C25.7758 39.1241 26.3088 39.2897 26.5355 39.7205Z" fill="#FFE194"/>
<path fill-rule="evenodd" clip-rule="evenodd" d="M34.8968 53.0177C35.2413 53.3616 35.2417 53.9196 34.8978 54.2642C29.9138 59.2556 24.7062 67.785 22.8693 71.1243C22.6347 71.5508 22.0987 71.7064 21.6721 71.4717C21.2456 71.2371 21.09 70.7011 21.3246 70.2745C23.1781 66.9048 28.4828 58.1934 33.6502 53.0184C33.9942 52.674 34.5523 52.6735 34.8968 53.0177Z" fill="#FFE194"/>
</svg>
