<svg width="84" height="74" viewBox="0 0 84 74" fill="none" xmlns="http://www.w3.org/2000/svg">
<path d="M2.16165 50.5292C20.0983 26.169 44.7858 23.3669 55.4954 22.9533C55.5425 22.9515 55.589 22.9534 55.6358 22.9585C63.3713 23.7947 63.4517 25.7337 61.6356 27.7465C61.5426 27.8495 61.429 27.9272 61.3011 27.9807C46.4586 34.2065 28.2716 58.1545 19.5345 71.5828C19.0128 72.3847 17.8312 72.0571 17.8701 71.1011C18.1377 64.5208 19.8772 54.5954 21.54 49.1187C21.7303 48.4917 21.2891 47.8447 20.6346 47.8739C15.6122 48.099 8.0625 50.5697 3.12872 51.9479C2.2696 52.1879 1.63266 51.2475 2.16165 50.5292Z" fill="#F6BF34"/>
<path fill-rule="evenodd" clip-rule="evenodd" d="M0.575778 49.3726C19.0411 24.2943 44.4826 21.4225 55.4121 21.0003C55.5632 20.9947 55.7057 21.0011 55.8386 21.0155C57.8375 21.2315 59.4305 21.5272 60.6647 21.9098C61.8572 22.2796 62.9343 22.7958 63.6635 23.6026C64.5121 24.5414 64.7264 25.6911 64.4383 26.7754C64.1914 27.7047 63.6073 28.4833 63.0828 29.0647L61.6278 27.7518C63.444 25.739 63.3634 23.8 55.628 22.9638C55.5813 22.9587 55.5348 22.9568 55.4877 22.9587C44.7781 23.3723 20.0906 26.1742 2.15378 50.5345C1.62489 51.2529 2.26186 52.1931 3.12098 51.9531L3.64817 53.8406C0.939657 54.5972 -1.02409 51.5453 0.575778 49.3726ZM17.8901 70.5101C18.2334 63.9393 19.9189 54.4377 21.5322 49.1239C21.7226 48.497 21.2814 47.85 20.6269 47.8793C16.5059 48.0639 10.6833 49.7604 6.00076 51.1247C4.97631 51.4233 4.00653 51.7058 3.12098 51.9531L3.64817 53.8406C4.57601 53.5814 5.56479 53.2932 6.59783 52.9921C8.40511 52.4654 10.3478 51.8991 12.3358 51.3799C14.8241 50.7299 17.2221 50.1992 19.2541 49.9598C17.6779 55.7529 16.1571 64.8093 15.9042 71.0268C15.8464 72.4512 16.7624 73.5541 17.9481 73.8914C19.1058 74.2207 20.4259 73.7994 21.1692 72.6569C25.4984 66.0035 32.1713 56.7413 39.5862 48.3869C47.0577 39.9688 55.067 32.7227 62.0512 29.7933C62.4228 29.6375 62.7812 29.3991 63.0828 29.0647L61.6278 27.7518C61.5349 27.8549 61.4213 27.9326 61.2933 27.9861C46.6163 34.1423 28.669 57.628 19.8226 71.135C19.822 71.1357 19.8214 71.1366 19.821 71.1374C19.8107 71.1532 19.8003 71.1689 19.79 71.1847C19.7013 71.3202 19.6136 71.4546 19.5268 71.5881C19.005 72.3901 17.8234 72.0623 17.8623 71.1064C17.8701 70.9146 17.8791 70.72 17.8893 70.5228C17.8897 70.5186 17.8899 70.5143 17.8901 70.5101Z" fill="#D97D11"/>
<path fill-rule="evenodd" clip-rule="evenodd" d="M55.6713 25.4126C55.7414 26.2214 55.1422 26.9337 54.3336 27.0034C37.2974 28.4755 23.5612 38.9317 16.0757 45.0025C15.4454 45.5138 14.5198 45.4173 14.0085 44.7868C13.4972 44.1565 13.5937 43.2308 14.2241 42.7194C21.724 36.6369 36.0737 25.631 54.0806 24.0749C54.8892 24.005 55.6015 24.604 55.6713 25.4126Z" fill="#ECAF11"/>
<path fill-rule="evenodd" clip-rule="evenodd" d="M57.8363 24.3016C58.2521 24.9987 58.024 25.901 57.3269 26.3167C42.5235 35.1455 30.6057 48.7247 25.2458 57.3771C24.8182 58.0672 23.9124 58.2802 23.2224 57.8527C22.5323 57.4253 22.3194 56.5192 22.7468 55.8292C28.3205 46.8316 40.5608 32.8935 55.8212 23.7921C56.5183 23.3764 57.4206 23.6044 57.8363 24.3016Z" fill="#ECAF11"/>
<path fill-rule="evenodd" clip-rule="evenodd" d="M36.7944 25.9557C40.7685 29.5765 43.7667 34.2043 45.4947 39.3625C50.81 34.2605 56.2413 30.0969 61.2863 27.9807C61.4143 27.9271 61.5279 27.8495 61.6208 27.7465C63.437 25.7337 63.3565 23.7946 55.621 22.9584C55.5742 22.9534 55.5278 22.9515 55.4807 22.9533C51.1103 23.1221 44.4118 23.6886 36.7944 25.9557Z" fill="#DA8D19"/>
<path d="M44.5897 17.4201L53.3358 14.6758C53.8648 14.5097 54.2987 14.1276 54.5301 13.6238L57.4563 7.25194L59.3647 3.09639C59.9864 1.74285 61.8311 1.5501 62.719 2.74603L69.6249 12.0471C69.9553 12.4921 70.4589 12.7764 71.0107 12.8295L80.1352 13.707C81.6852 13.856 82.4506 15.666 81.478 16.8818L74.8642 25.1499C74.4588 25.6566 74.3306 26.3311 74.5217 26.9511L77.1041 35.331C77.5851 36.8918 76.0578 38.3216 74.5321 37.7387L65.1969 34.1728C64.6138 33.95 63.9594 34.0184 63.435 34.3568L55.0383 39.775C53.6659 40.6605 51.876 39.5773 52.0241 37.9508L52.8191 29.2182C52.8779 28.5719 52.6131 27.9385 52.1117 27.5265L43.932 20.8038C42.7291 19.8152 43.104 17.8862 44.5897 17.4201Z" fill="#FFE24B"/>
<path fill-rule="evenodd" clip-rule="evenodd" d="M43.9937 15.5558L52.7399 12.8116L57.5745 2.28405C58.8178 -0.423053 62.5072 -0.808418 64.2831 1.58333L71.1889 10.8844L80.3135 11.7619C83.4131 12.0601 84.9443 15.6797 82.999 18.1116L76.3851 26.3797L78.9675 34.7595C79.9296 37.881 76.8749 40.7407 73.8235 39.5751L64.4882 36.0091L56.0915 41.4272C53.3467 43.1984 49.7671 41.0317 50.0632 37.7787L50.8582 29.0462L42.6784 22.3233C40.2726 20.346 41.0224 16.4881 43.9937 15.5558ZM53.3265 14.6813L44.5804 17.4255C43.0948 17.8918 42.7198 19.8207 43.9227 20.8093L52.1025 27.5321C52.6038 27.9442 52.8687 28.5776 52.8098 29.2238L52.0149 37.9564C51.8667 39.5829 53.6565 40.6663 55.029 39.7806L63.4258 34.3624C63.9502 34.024 64.6044 33.9557 65.1876 34.1783L74.5228 37.7444C76.0485 38.3272 77.5758 36.8974 77.0948 35.3366L74.5123 26.9568C74.3212 26.3367 74.4495 25.6622 74.8549 25.1555L81.4686 16.8874C82.4414 15.6716 81.6758 13.8617 80.1259 13.7126L71.0014 12.835C70.4496 12.782 69.9459 12.4977 69.6155 12.0526L62.7096 2.75157C61.8218 1.55576 59.9771 1.74839 59.3555 3.10193L54.5208 13.6294C54.2895 14.1331 53.8555 14.5154 53.3265 14.6813Z" fill="#D97D11"/>
<path d="M53.8358 19.0237L58.7121 17.4938C58.9765 17.4108 59.1935 17.2196 59.3091 16.9677L60.8993 13.5053L61.9803 11.151C62.2912 10.4743 63.2135 10.378 63.6575 10.976L67.4732 16.115C67.6385 16.3376 67.8902 16.4796 68.1662 16.5062L73.2532 16.9955C74.0282 17.07 74.4108 17.9749 73.9245 18.5829L70.25 23.1764C70.0474 23.4298 69.9832 23.7671 70.0787 24.0771L71.5272 28.777C71.7676 29.5574 71.0041 30.2722 70.2411 29.9809L65.0324 27.9912C64.7409 27.8797 64.4138 27.9141 64.1516 28.0831L59.4665 31.1065C58.7802 31.5492 57.8853 31.0075 57.9593 30.1942L58.4052 25.2965C58.4346 24.9733 58.3022 24.6567 58.0516 24.4507L53.507 20.7156C52.9055 20.2213 53.0931 19.2568 53.8358 19.0237Z" fill="#FFED8D"/>
<path fill-rule="evenodd" clip-rule="evenodd" d="M57.7168 15.7452L53.256 17.1449C51.0275 17.8439 50.4652 20.7375 52.2696 22.2205L56.4133 25.6262L56.0146 30.0075C55.7925 32.4473 58.4772 34.0723 60.5357 32.744L64.8038 29.9899L69.5487 31.8024C71.8373 32.6768 74.1283 30.5321 73.4068 28.1909L72.1112 23.9864L75.4616 19.7978C76.9207 17.9741 75.7724 15.2592 73.4477 15.0356L68.7939 14.5882L65.2377 9.79851C63.9059 8.00479 61.1387 8.2938 60.2064 10.3242L57.7168 15.7452ZM58.7188 17.4847L53.8427 19.0146C53.0999 19.2477 52.9124 20.2121 53.5139 20.7065L58.0583 24.4416C58.309 24.6475 58.4415 24.9642 58.412 25.2875L57.9662 30.1852C57.892 30.9984 58.7871 31.5401 59.4732 31.0973L64.1583 28.0741C64.4205 27.905 64.7477 27.8707 65.0392 27.9821L70.248 29.9718C71.011 30.2632 71.7746 29.5484 71.5341 28.768L70.0856 24.068C69.99 23.758 70.0541 23.4207 70.2568 23.1673L73.9313 18.5737C74.4178 17.9659 74.0349 17.0609 73.26 16.9863L68.1729 16.4972C67.897 16.4705 67.6453 16.3284 67.48 16.1058L63.6642 10.9668C63.2203 10.3688 62.298 10.4651 61.9872 11.142L59.3158 16.9587C59.2002 17.2106 58.9833 17.4017 58.7188 17.4847Z" fill="#F9BF2A"/>
<path fill-rule="evenodd" clip-rule="evenodd" d="M25.2219 33.028C25.4739 33.5068 25.2899 34.0994 24.8109 34.3513C17.5883 38.1514 10.3074 45.4836 7.57428 48.6807C7.22258 49.0921 6.60411 49.1404 6.19281 48.7888C5.78141 48.4371 5.73304 47.8186 6.08472 47.4073C8.88224 44.135 16.3541 36.5863 23.8985 32.617C24.3774 32.365 24.9699 32.5491 25.2219 33.028Z" fill="#FFE194"/>
<path fill-rule="evenodd" clip-rule="evenodd" d="M34.5158 47.8084C34.8988 48.1906 34.8992 48.8109 34.5169 49.1939C28.9769 54.7421 23.1884 64.223 21.1466 67.9349C20.8858 68.4089 20.29 68.5819 19.8158 68.321C19.3418 68.0602 19.1688 67.4644 19.4296 66.9903C21.4898 63.2446 27.3863 53.5614 33.1302 47.8091C33.5125 47.4263 34.1329 47.4258 34.5158 47.8084Z" fill="#FFE194"/>
</svg>
