<svg width="7" height="10" viewBox="0 0 7 10" fill="none" xmlns="http://www.w3.org/2000/svg">
<path d="M6.47986 5.00027C6.47986 7.7364 5.03525 9.93521 3.27309 9.93521C1.51021 9.93521 0.0654297 7.7364 0.0654297 5.00027C0.0654297 2.26327 1.51021 0.0644531 3.27309 0.0644531C5.03525 0.0644531 6.47986 2.26327 6.47986 5.00027Z" fill="white"/>
<path fill-rule="evenodd" clip-rule="evenodd" d="M2.81934 5.43848H3.76669V5.6704H2.81934V5.43848Z" fill="#E21A22"/>
<path fill-rule="evenodd" clip-rule="evenodd" d="M2.93481 5.76172H3.65178V6.02019H2.93481V5.76172Z" fill="#E21A22"/>
<path fill-rule="evenodd" clip-rule="evenodd" d="M1.88525 4.35889H4.70143V4.47485H1.88525V4.35889Z" fill="#E21A22"/>
<path fill-rule="evenodd" clip-rule="evenodd" d="M1.73535 4.5791H4.85094V4.69506H1.73535V4.5791Z" fill="#E21A22"/>
<path fill-rule="evenodd" clip-rule="evenodd" d="M1.73145 4.1416H4.84748V4.25756H1.73145V4.1416Z" fill="#E21A22"/>
<path fill-rule="evenodd" clip-rule="evenodd" d="M3.78507 4.9466C3.62852 5.08823 3.6294 5.34316 3.6294 5.34316H3.29316H2.95781C2.95781 5.34316 2.9587 5.08823 2.80214 4.9466C2.69326 4.84746 2.56001 4.82621 2.56001 4.82621C2.47275 4.80939 2.47266 4.79877 2.47266 4.79346H4.11331C4.11331 4.79346 4.11331 4.80851 4.02613 4.82621C4.02613 4.82621 3.8936 4.84746 3.78507 4.9466Z" fill="#E21A22"/>
<path fill-rule="evenodd" clip-rule="evenodd" d="M1.89868 4.79346C1.93159 4.79346 2.19054 4.79346 2.23679 4.79346C2.23679 4.99262 2.10719 5.08203 1.89868 5.03777C1.89868 4.9103 1.89868 4.85808 1.89868 4.79346Z" fill="#E21A22"/>
<path fill-rule="evenodd" clip-rule="evenodd" d="M3.09676 1.57918C3.23197 1.31362 3.25777 0.915285 3.29157 0.908203C3.32537 0.915285 3.35117 1.31362 3.48638 1.57829C3.61358 1.8288 3.88667 2.04036 3.87066 2.06515C3.85198 2.09613 3.70076 2.01823 3.62426 1.98371C3.50239 1.92617 3.40365 1.8828 3.40365 1.8828C3.40365 1.8828 3.35473 2.51748 3.5104 3.10171C3.6376 3.5806 3.94182 4.01699 3.9694 4.05506H3.58156C3.56911 4.0347 3.55665 4.01522 3.54598 3.99486C3.44012 3.80986 3.36451 3.64964 3.29157 3.37346C3.21774 3.64964 3.14391 3.80986 3.03806 3.99486C3.02649 4.01522 3.01493 4.0347 3.00247 4.05506H2.61401C2.64168 4.01699 2.94643 3.5806 3.07364 3.10171C3.22842 2.51837 3.18038 1.8828 3.18038 1.8828C3.18038 1.8828 3.08075 1.92706 2.95889 1.98371C2.88328 2.01912 2.73206 2.09613 2.71249 2.06515C2.69736 2.04036 2.97045 1.8288 3.09676 1.57918Z" fill="#E21A22"/>
<path fill-rule="evenodd" clip-rule="evenodd" d="M1.88515 4.05521C1.88364 4.0083 1.85927 3.36565 1.70778 2.86109C1.54188 2.30784 1.2084 1.97856 1.23081 1.9458C1.25127 1.91482 1.5272 1.97059 1.73411 2.11222C1.95489 2.26359 2.17149 2.51321 2.15557 2.5318C2.14579 2.54331 2.07124 2.48134 1.93692 2.43177C1.79398 2.37866 1.73144 2.3884 1.73144 2.3884C1.73144 2.3884 1.9685 2.77877 2.08601 3.20189C2.18448 3.55685 2.23572 4.01538 2.23839 4.05521H1.88515Z" fill="#E21A22"/>
<path fill-rule="evenodd" clip-rule="evenodd" d="M4.70227 4.05521C4.70405 4.0083 4.72806 3.36565 4.88017 2.86109C5.04563 2.30784 5.3792 1.97856 5.35696 1.9458C5.3365 1.91482 5.06075 1.97059 4.85349 2.11222C4.63288 2.26359 4.41584 2.51321 4.43185 2.5318C4.44163 2.54331 4.51635 2.48134 4.65067 2.43177C4.79389 2.37866 4.85615 2.3884 4.85615 2.3884C4.85615 2.3884 4.61865 2.77877 4.50123 3.20189C4.40338 3.55685 4.35179 4.01538 4.34912 4.05521H4.70227Z" fill="#E21A22"/>
<path fill-rule="evenodd" clip-rule="evenodd" d="M4.6891 4.79346C4.65618 4.79346 4.39733 4.79346 4.35107 4.79346C4.35107 4.99262 4.48095 5.08203 4.6891 5.03777C4.6891 4.9103 4.6891 4.85808 4.6891 4.79346Z" fill="#E21A22"/>
<path d="M3.27286 0C5.09373 0 6.54545 2.25635 6.54545 5.00044C6.54545 7.74453 5.09373 10 3.27286 10C1.451 10 0 7.74453 0 5.00044C0 2.25635 1.451 0 3.27286 0ZM3.27286 0.0805536C1.52368 0.0805536 0.0804123 2.2652 0.0804123 5.00044C0.0804123 7.7348 1.52368 9.92033 3.27286 9.92033C5.02168 9.92033 6.4645 7.7348 6.4645 5.00044C6.4645 2.2652 5.02168 0.0805536 3.27286 0.0805536Z" fill="#09264A"/>
<path d="M0.388916 6.021H6.15567C6.15567 6.021 6.04181 7.55061 5.16206 8.66949C4.53761 9.46439 3.76816 9.71844 3.27892 9.71844C2.73541 9.71844 2.02477 9.48209 1.39462 8.66506C0.524659 7.53821 0.388916 6.021 0.388916 6.021Z" fill="#0C2E59"/>
<path d="M1.39489 6.5143L1.18353 7.05161H1.14875L0.94416 6.51519L0.921833 6.92946C0.920587 6.93654 0.919253 6.9569 0.919253 6.97283C0.919253 7.00912 0.967644 7.0109 0.993708 7.0109H1.00065V7.05161H0.762695V7.01178C0.781998 7.01089 0.835639 7.01089 0.851918 6.99142C0.863659 6.97637 0.866147 6.94982 0.870952 6.89139L0.890522 6.50103C0.893279 6.46827 0.890256 6.45588 0.881538 6.44969C0.86784 6.43906 0.824163 6.43818 0.80913 6.43729V6.39746H1.0115L1.19492 6.87281L1.38235 6.39746H1.58196V6.43729H1.57511C1.53268 6.43729 1.51453 6.43818 1.50581 6.44791C1.49701 6.45765 1.49585 6.47801 1.49932 6.52935L1.52058 6.90733C1.52191 6.92946 1.52271 6.9746 1.53579 6.99319C1.55153 7.01621 1.59316 7.01178 1.61531 7.0109V7.05161H1.32417V7.01178C1.34525 7.01001 1.37674 7.00913 1.39604 7.00028C1.41036 6.99408 1.4189 6.98345 1.4189 6.96221C1.4189 6.95247 1.41757 6.92415 1.41624 6.91441L1.39489 6.5143Z" fill="white"/>
<path d="M2.72228 6.39466H2.75608L2.77031 6.55576H2.73295C2.7125 6.49557 2.67362 6.42121 2.59632 6.42121C2.54562 6.42121 2.49438 6.4637 2.49438 6.50885C2.49438 6.53717 2.50194 6.55665 2.52631 6.58055C2.56296 6.61772 2.61998 6.6549 2.66241 6.68589C2.73028 6.73546 2.78277 6.79122 2.78277 6.88417C2.78277 6.98508 2.69319 7.0736 2.58031 7.0736C2.53921 7.0736 2.50203 7.05944 2.46316 7.04793L2.45551 7.04527H2.44821C2.43674 7.04527 2.43816 7.0497 2.43674 7.05855H2.40329L2.38452 6.88594H2.42384C2.44323 6.94613 2.49331 7.02845 2.56955 7.02845C2.60628 7.02845 2.69159 7.00278 2.69159 6.92223C2.69159 6.88505 2.67905 6.8585 2.65494 6.83194C2.6303 6.80627 2.59401 6.7806 2.54651 6.74873C2.42651 6.66641 2.40329 6.60622 2.40329 6.54691C2.40329 6.44865 2.50141 6.37695 2.58298 6.37695C2.61447 6.37695 2.64489 6.38315 2.67086 6.392L2.69168 6.40174L2.7036 6.40616L2.70805 6.40794C2.71427 6.40794 2.71872 6.39908 2.72228 6.39466Z" fill="white"/>
<path d="M1.96827 6.48486L1.88288 6.7274H2.04718L1.96827 6.48486ZM1.94106 6.42466L1.92549 6.37598H2.03597L2.22055 6.92922C2.24243 6.99296 2.24021 7.00623 2.31715 7.01154V7.05137H2.02422V7.01154C2.04442 7.01066 2.07164 7.01066 2.09067 7.00446C2.10526 6.99915 2.11371 6.99119 2.11371 6.97348C2.11371 6.95401 2.10482 6.92303 2.09548 6.8947L2.05678 6.77431H1.873C1.85361 6.82919 1.82337 6.90266 1.82017 6.96197C1.81812 6.99826 1.8424 7.00358 1.87078 7.00712L1.90636 7.01066L1.91232 7.05137H1.66895V7.01243C1.71983 7.00092 1.73682 6.9903 1.75567 6.94427C1.76155 6.93011 1.7675 6.9124 1.77489 6.89205L1.94106 6.42466Z" fill="white"/>
<path d="M3.24604 6.44526H3.10816V6.69488H3.23002C3.25582 6.69488 3.26827 6.69488 3.27717 6.68692C3.2914 6.67364 3.29318 6.63115 3.29407 6.61522H3.33321V6.82766H3.29407C3.2914 6.75419 3.29496 6.74268 3.22113 6.74268H3.10816V6.94716C3.10816 6.9808 3.10905 6.99231 3.11438 6.99762C3.1215 7.00558 3.15175 7.00381 3.16064 7.00381H3.26205C3.34477 7.00381 3.35545 6.96044 3.37324 6.88166H3.41149L3.39637 7.05161H2.90356V7.0109C2.98006 7.01444 2.99786 7.00647 2.99786 6.933V6.51608C2.99786 6.43906 2.97473 6.43641 2.90356 6.43818V6.39746H3.37324L3.37858 6.55148H3.34211C3.32876 6.47182 3.32609 6.44526 3.24604 6.44526Z" fill="white"/>
<path d="M4.81619 6.55399H4.78149L4.79395 6.37695H4.8233C4.82775 6.3858 4.83042 6.39112 4.84021 6.39466C4.84376 6.39643 4.84821 6.39731 4.85533 6.39731H4.87934H5.2485C5.27074 6.39731 5.2823 6.39643 5.28853 6.39377C5.29564 6.39112 5.29743 6.38404 5.30009 6.37695H5.32945L5.34457 6.55399H5.30721C5.30276 6.53186 5.29298 6.47787 5.27341 6.45751C5.26095 6.446 5.24672 6.44511 5.22093 6.44511H5.11685V6.92488C5.11685 6.96914 5.12041 6.98685 5.13286 6.99659C5.15065 7.00986 5.20847 7.01075 5.22626 7.01163V7.05147H4.89802V7.01163C4.91492 7.01075 4.97541 7.00986 4.99232 6.99747C5.00388 6.98862 5.00744 6.97268 5.00744 6.93108V6.44511H4.91492C4.87756 6.44511 4.85177 6.44246 4.83843 6.47964C4.82953 6.50354 4.8233 6.5292 4.81619 6.55399Z" fill="white"/>
<path d="M5.44409 6.39746H5.75187V6.43729C5.64601 6.4426 5.65313 6.45942 5.65313 6.56033V6.91795C5.65936 7.00293 5.6727 7.00558 5.75543 7.01178V7.05161H5.44854V7.01178C5.46989 7.01001 5.4939 7.01001 5.51436 7.00381C5.52326 7.00116 5.52504 6.9985 5.52949 6.99142C5.54194 6.96663 5.54283 6.91707 5.54283 6.85599V6.53112C5.54283 6.44791 5.52504 6.44349 5.44409 6.43729V6.39746Z" fill="white"/>
<path d="M3.75143 6.72297H3.82082C3.8475 6.72208 3.87241 6.72209 3.89643 6.70704C3.92222 6.6911 3.94535 6.6557 3.94535 6.57692C3.94535 6.45653 3.87508 6.43617 3.81904 6.43617C3.79769 6.43528 3.76833 6.43706 3.75143 6.43706V6.72297ZM4.43104 6.48486L4.34564 6.7274H4.5102L4.43104 6.48486ZM4.49864 6.37598L4.68366 6.92922C4.70501 6.99296 4.70323 7.00623 4.77973 7.01154V7.05137H4.48708V7.01154C4.51376 7.01066 4.57692 7.01509 4.57692 6.97348C4.57692 6.95401 4.56714 6.92303 4.55824 6.8947L4.51999 6.77431H4.33586C4.31451 6.83362 4.28871 6.89824 4.28337 6.96286C4.27893 7.0142 4.3403 7.01066 4.375 7.01154V7.05137H4.13927C4.04676 7.05492 3.97293 7.02925 3.91511 6.93011C3.90087 6.90532 3.8475 6.7991 3.8306 6.76989H3.75232L3.75321 6.90975C3.75321 6.99738 3.76122 7.01066 3.8137 7.01066H3.86085V7.05137H3.5415V7.01066C3.62067 7.0142 3.64024 7.00535 3.64024 6.92922V6.49725C3.64024 6.45564 3.64202 6.43883 3.60021 6.43528C3.58064 6.4344 3.56107 6.4344 3.5415 6.4344V6.39457C3.62423 6.3928 3.70874 6.39368 3.79057 6.39368C3.84128 6.39368 3.88931 6.39102 3.93912 6.40607C3.99783 6.42466 4.05209 6.46892 4.05209 6.56718C4.05209 6.68579 3.98449 6.72386 3.93734 6.74422C3.95958 6.76635 3.97204 6.78493 4.01651 6.88939C4.06188 6.99295 4.08056 7.008 4.13393 7.01597C4.19531 7.01331 4.20776 6.97702 4.23801 6.89205L4.40435 6.42466L4.38834 6.37598H4.49864Z" fill="white"/>
</svg>
