<svg width="77" height="77" viewBox="0 0 77 77" fill="none" xmlns="http://www.w3.org/2000/svg">
<g clip-path="url(#clip0_234_2)">
<path d="M38.5 69.7812C35.9473 69.7812 33.4991 68.7672 31.6941 66.9622C29.8891 65.1571 28.875 62.709 28.875 60.1562C28.875 59.5181 29.1285 58.906 29.5798 58.4548C30.031 58.0035 30.6431 57.75 31.2812 57.75H45.7188C46.3569 57.75 46.969 58.0035 47.4202 58.4548C47.8715 58.906 48.125 59.5181 48.125 60.1562C48.125 62.709 47.1109 65.1571 45.3059 66.9622C43.5009 68.7672 41.0527 69.7812 38.5 69.7812ZM34.3372 62.5625C34.7602 63.2918 35.3674 63.8971 36.098 64.3179C36.8286 64.7387 37.6569 64.9602 38.5 64.9602C39.3431 64.9602 40.1714 64.7387 40.902 64.3179C41.6326 63.8971 42.2398 63.2918 42.6628 62.5625H34.3372Z" fill="black"/>
<path d="M43.3125 16.8438H33.6875C33.0493 16.8438 32.4373 16.5902 31.986 16.139C31.5348 15.6877 31.2812 15.0757 31.2812 14.4375C31.2812 12.523 32.0418 10.6869 33.3956 9.33307C34.7494 7.97929 36.5855 7.21875 38.5 7.21875C40.4145 7.21875 42.2506 7.97929 43.6044 9.33307C44.9582 10.6869 45.7188 12.523 45.7188 14.4375C45.7188 15.0757 45.4652 15.6877 45.014 16.139C44.5627 16.5902 43.9507 16.8438 43.3125 16.8438Z" fill="black"/>
<path d="M64.9688 62.5625H12.0313C11.3931 62.5625 10.781 62.309 10.3298 61.8577C9.87852 61.4065 9.62501 60.7944 9.62501 60.1562C9.62289 57.4388 10.2783 54.7611 11.5353 52.3518C12.7924 49.9425 14.6136 47.8732 16.8438 46.3203V33.6875C16.8436 27.9688 19.1054 22.4822 23.1356 18.425C27.1658 14.3678 32.6371 12.0694 38.3556 12.0312H38.6203C44.3639 12.0313 49.8723 14.3129 53.9336 18.3742C57.9949 22.4356 60.2766 27.9439 60.2766 33.6875V46.3203C62.4845 47.8864 64.2824 49.9616 65.518 52.3701C66.7537 54.7785 67.3907 57.4494 67.375 60.1562C67.375 60.7944 67.1215 61.4065 66.6702 61.8577C66.219 62.309 65.6069 62.5625 64.9688 62.5625ZM14.6781 57.75H62.3219C61.9811 56.0818 61.2901 54.5049 60.2945 53.1237C59.299 51.7424 58.0217 50.5881 56.5469 49.7372C56.1797 49.5252 55.875 49.2199 55.6637 48.8523C55.4525 48.4847 55.3421 48.0678 55.3438 47.6437V33.6875C55.3438 29.2203 53.5691 24.936 50.4103 21.7772C47.2515 18.6184 42.9672 16.8438 38.5 16.8438C34.0328 16.8438 29.7485 18.6184 26.5897 21.7772C23.4309 24.936 21.6563 29.2203 21.6563 33.6875V47.6437C21.6579 48.0678 21.5476 48.4847 21.3363 48.8523C21.125 49.2199 20.8203 49.5252 20.4531 49.7372C18.9784 50.5881 17.701 51.7424 16.7055 53.1237C15.7099 54.5049 15.0189 56.0818 14.6781 57.75Z" fill="black"/>
</g>
<defs>
<clipPath id="clip0_234_2">
<rect width="77" height="77" fill="white"/>
</clipPath>
</defs>
</svg>
