<svg width="186" height="74" viewBox="0 0 186 74" fill="none" xmlns="http://www.w3.org/2000/svg">
<path d="M127.759 30.0587C127.759 30.7676 127.39 31.4767 126.653 32.1855L111.19 47.0712L114.851 68.691C114.879 68.691 114.893 69.0457 114.893 69.4C114.893 70.1088 114.737 70.463 114.425 70.8173C114.142 71.1717 113.717 71.5264 113.146 71.5264C112.607 71.5264 112.04 71.5264 111.445 71.1721L92.3165 60.8937L73.1896 71.1721C72.5648 71.5264 71.9967 71.5264 71.4855 71.5264C70.8891 71.5264 70.4347 71.1717 70.1225 70.8173C69.8382 70.463 69.6963 70.1088 69.6963 69.4C69.6963 69.4 69.7248 69.0453 69.7814 68.691L73.4451 47.0712L57.9391 32.1855C57.2292 31.4767 56.874 30.7676 56.874 30.0587C56.874 28.9954 57.6693 28.2866 59.2598 28.2866L80.6442 25.0971L90.229 5.60378C90.7677 4.54051 91.4658 3.83167 92.3165 3.83167C93.167 3.83167 93.8654 4.54051 94.4041 5.60378L103.988 25.0971L125.374 28.2866C126.965 28.2866 127.759 28.9954 127.759 30.0587Z" fill="#E67E22"/>
<path d="M127.759 26.5145C127.759 27.2233 127.39 27.9324 126.653 28.6413L111.19 43.527L114.851 65.1468C114.879 65.1468 114.893 65.5013 114.893 65.8559C114.893 66.5647 114.737 66.9186 114.425 67.2732C114.142 67.6275 113.717 67.9822 113.146 67.9822C112.607 67.9822 112.04 67.9823 111.445 67.6279L92.3165 57.3495L73.1896 67.6279C72.5648 67.9823 71.9967 67.9822 71.4855 67.9822C70.8891 67.9822 70.4347 67.6275 70.1225 67.2732C69.8382 66.9186 69.6963 66.5647 69.6963 65.8559C69.6963 65.8559 69.7248 65.5012 69.7814 65.1468L73.4451 43.527L57.9391 28.6413C57.2292 27.9324 56.874 27.2233 56.874 26.5145C56.874 25.4512 57.6693 24.7423 59.2598 24.7423L80.6442 21.5529L90.229 2.0596C90.7677 0.996323 91.4658 0.287476 92.3165 0.287476C93.167 0.287476 93.8654 0.996323 94.4041 2.0596L103.988 21.5529L125.374 24.7423C126.965 24.7423 127.759 25.4512 127.759 26.5145Z" fill="#F1C40F"/>
<path d="M184.465 44.5233C184.465 45.0195 184.206 45.5159 183.691 46.0121L172.867 56.4321L175.429 71.5659C175.449 71.5659 175.459 71.8142 175.459 72.0624C175.459 72.5585 175.35 72.8064 175.132 73.0543C174.932 73.3026 174.635 73.5508 174.236 73.5508C173.859 73.5508 173.461 73.5508 173.045 73.3028L159.655 66.1079L146.267 73.3028C145.829 73.5508 145.431 73.5508 145.074 73.5508C144.656 73.5508 144.338 73.3026 144.12 73.0543C143.92 72.8064 143.821 72.5585 143.821 72.0624C143.821 72.0624 143.841 71.814 143.88 71.5659L146.445 56.4321L135.591 46.0121C135.094 45.5159 134.846 45.0195 134.846 44.5233C134.846 43.7791 135.403 43.2829 136.515 43.2829L151.484 41.0501L158.193 27.405C158.571 26.6606 159.06 26.1644 159.655 26.1644C160.25 26.1644 160.739 26.6606 161.116 27.405L167.825 41.0501L182.794 43.2829C183.909 43.2829 184.465 43.7791 184.465 44.5233Z" fill="#E67E22"/>
<path d="M184.465 42.0379C184.465 42.534 184.206 43.0305 183.691 43.5266L172.867 53.9466L175.429 69.0805C175.449 69.0805 175.459 69.3287 175.459 69.5769C175.459 70.0729 175.35 70.3209 175.132 70.5689C174.932 70.8171 174.635 71.0653 174.236 71.0653C173.859 71.0653 173.461 71.0653 173.045 70.8172L159.655 63.6223L146.267 70.8172C145.829 71.0653 145.431 71.0653 145.074 71.0653C144.656 71.0653 144.338 70.8171 144.12 70.5689C143.92 70.3209 143.821 70.0729 143.821 69.5769C143.821 69.5769 143.841 69.3286 143.88 69.0805L146.445 53.9466L135.591 43.5266C135.094 43.0305 134.846 42.534 134.846 42.0379C134.846 41.2935 135.403 40.7973 136.515 40.7973L151.484 38.5646L158.193 24.9195C158.571 24.1751 159.06 23.679 159.655 23.679C160.25 23.679 160.739 24.1751 161.116 24.9195L167.825 38.5646L182.794 40.7973C183.909 40.7973 184.465 41.2935 184.465 42.0379Z" fill="#F1C40F"/>
<path d="M49.7873 44.5233C49.7873 45.0195 49.5293 45.5159 49.0133 46.0121L38.1887 56.4321L40.7517 71.5659C40.7715 71.5659 40.7815 71.8142 40.7815 72.0624C40.7815 72.5585 40.6723 72.8064 40.4539 73.0543C40.2554 73.3026 39.9577 73.5508 39.5582 73.5508C39.1812 73.5508 38.7841 73.5508 38.3675 73.3028L24.9776 66.1079L11.5888 73.3028C11.1515 73.5508 10.7537 73.5508 10.396 73.5508C9.97845 73.5508 9.66039 73.3026 9.44182 73.0543C9.24283 72.8064 9.1436 72.5585 9.1436 72.0624C9.1436 72.0624 9.16345 71.814 9.20315 71.5659L11.7677 56.4321L0.913499 46.0121C0.41656 45.5159 0.167969 45.0195 0.167969 44.5233C0.167969 43.7791 0.724697 43.2829 1.8379 43.2829L16.807 41.0501L23.5164 27.405C23.8935 26.6606 24.3821 26.1644 24.9776 26.1644C25.573 26.1644 26.0619 26.6606 26.4389 27.405L33.1475 41.0501L48.1175 43.2829C49.2314 43.2829 49.7873 43.7791 49.7873 44.5233Z" fill="#E67E22"/>
<path d="M49.7873 42.0379C49.7873 42.534 49.5293 43.0305 49.0133 43.5266L38.1887 53.9466L40.7517 69.0805C40.7715 69.0805 40.7815 69.3287 40.7815 69.5769C40.7815 70.0729 40.6723 70.3209 40.4539 70.5689C40.2554 70.8171 39.9577 71.0653 39.5582 71.0653C39.1812 71.0653 38.7841 71.0653 38.3675 70.8172L24.9776 63.6223L11.5888 70.8172C11.1515 71.0653 10.7537 71.0653 10.396 71.0653C9.97845 71.0653 9.66039 70.8171 9.44182 70.5689C9.24283 70.3209 9.1436 70.0729 9.1436 69.5769C9.1436 69.5769 9.16345 69.3286 9.20315 69.0805L11.7677 53.9466L0.913499 43.5266C0.41656 43.0305 0.167969 42.534 0.167969 42.0379C0.167969 41.2935 0.724697 40.7973 1.8379 40.7973L16.807 38.5646L23.5164 24.9195C23.8935 24.1751 24.3821 23.679 24.9776 23.679C25.573 23.679 26.0619 24.1751 26.4389 24.9195L33.1475 38.5646L48.1175 40.7973C49.2314 40.7973 49.7873 41.2935 49.7873 42.0379Z" fill="#F1C40F"/>
</svg>
