<svg width="11" height="10" viewBox="0 0 11 10" fill="none" xmlns="http://www.w3.org/2000/svg">
<path d="M3.63166 6.61072L1.90625 8.27705" stroke="black" stroke-width="0.914267" stroke-linecap="round" stroke-linejoin="round"/>
<path d="M6.4915 0.849423L3.80417 3.44474C3.80417 3.44474 2.60932 2.86569 1.3282 3.86549C1.2905 3.89495 1.25966 3.93175 1.23768 3.9735C1.2157 4.01525 1.20308 4.061 1.20063 4.10777C1.19819 4.15455 1.20598 4.2013 1.22351 4.24497C1.24103 4.28864 1.26788 4.32825 1.30232 4.36122L5.95231 8.852C5.98712 8.8862 6.02916 8.91275 6.07556 8.92982C6.12197 8.9469 6.17164 8.9541 6.22119 8.95093C6.27074 8.94777 6.319 8.93432 6.36268 8.91149C6.40635 8.88866 6.44441 8.857 6.47425 8.81867C6.83658 8.35626 7.40597 7.39812 6.90992 6.44414L9.59725 3.84883C9.62985 3.81782 9.65575 3.78085 9.67342 3.74009C9.69109 3.69932 9.7002 3.65557 9.7002 3.61137C9.7002 3.56718 9.69109 3.52342 9.67342 3.48266C9.65575 3.44189 9.62985 3.40493 9.59725 3.37392L6.98325 0.849423C6.95114 0.817934 6.91286 0.792928 6.87065 0.775859C6.82844 0.75879 6.78314 0.75 6.73737 0.75C6.69161 0.75 6.64631 0.75879 6.6041 0.775859C6.56189 0.792928 6.52361 0.817934 6.4915 0.849423Z" stroke="black" stroke-width="0.914267" stroke-linecap="round" stroke-linejoin="round"/>
</svg>
