<svg width="6" height="6" viewBox="0 0 6 6" fill="none" xmlns="http://www.w3.org/2000/svg">
<path d="M4.53857 1.06641L1.97327 3.63171L2.1706 3.82904L3.4347 5.09315C3.53436 4.75867 3.56969 4.39932 3.51246 4.06583L5.09111 2.48718C5.33107 2.49034 5.59055 2.43411 5.82734 2.35518L4.73591 1.26374L4.53857 1.06641Z" fill="#C0392B"/>
<path d="M1.97314 3.63159L1.57848 4.02625L0.789157 4.81558L0.394494 5.21024L0.197163 5.80224L0.591826 5.40757L1.77581 4.22359L2.17048 3.82892L1.97314 3.63159Z" fill="#BDC3C7"/>
<path d="M2.17041 3.82956L1.77575 4.22422L0.986422 5.01355L0.59176 5.40821L0.197097 5.80287L0.789091 5.60554L1.18375 5.21088L1.97308 4.42155L2.36774 4.02689L2.17041 3.82956Z" fill="#7F8C8D"/>
<path d="M3.64434 0.172665C3.56553 0.409581 3.50918 0.668943 3.51238 0.908938L1.93373 2.48759C1.6003 2.43042 1.24083 2.46563 0.906373 2.56531L2.17052 3.82945L4.73582 1.26414L3.64434 0.172665Z" fill="#E74C3C"/>
</svg>
