<svg width="78" height="79" viewBox="0 0 78 79" fill="none" xmlns="http://www.w3.org/2000/svg">
<path d="M77.5079 32.5569L75.6608 37.1262C75.0775 38.6817 75.0775 40.3344 75.6608 41.8899L77.5079 46.4592C78.5774 49.1814 77.7024 52.2924 75.2719 54.0423L71.1887 56.8617C69.8276 57.8339 68.9527 59.2922 68.5638 60.8477L67.6888 65.7086C67.1055 68.6252 64.675 70.764 61.7585 70.8612L56.8003 71.0557C55.1475 71.1529 53.592 71.8334 52.4254 73L49.0227 76.5972C46.9811 78.736 43.7729 79.2221 41.2452 77.7638L36.9676 75.2361C35.5093 74.3611 33.8566 74.1667 32.2038 74.5556L27.3429 75.7222C24.5235 76.4027 21.5097 75.0417 20.1487 72.4167L17.9126 67.9446C17.1349 66.4864 15.871 65.3197 14.3155 64.8336L9.649 63.2781C6.82964 62.3059 5.0797 59.5838 5.37136 56.6672L5.85745 51.7091C6.05189 50.0563 5.56579 48.4036 4.49638 47.1398L1.38537 43.251C-0.461791 40.9177 -0.461791 37.7095 1.38537 35.3762L4.49638 31.4875C5.56579 30.2236 6.05189 28.5709 5.85745 26.9182L5.37136 21.96C5.0797 19.0434 6.82964 16.3213 9.649 15.3491L14.3155 13.7936C15.871 13.3075 17.1349 12.1409 17.9126 10.6826L20.1487 6.21051C21.5097 3.5856 24.4263 2.22453 27.3429 2.90506L32.2038 4.07169C33.7593 4.46057 35.5093 4.26613 36.9676 3.39116L41.2452 0.86346C43.7729 -0.594827 46.9811 -0.205952 49.0227 2.03009L52.4254 5.6272C53.592 6.79383 55.1475 7.57158 56.8003 7.57158L61.7585 7.76602C64.675 7.86323 67.2027 10.0021 67.6888 12.9186L68.5638 17.7796C68.8554 19.4323 69.8276 20.8906 71.1887 21.7656L75.2719 24.5849C77.7024 26.7237 78.6746 29.8348 77.5079 32.5569Z" fill="#628B48"/>
<g opacity="0.15">
<path d="M22.968 72.1252L20.732 67.6531C19.9542 66.1948 18.6904 65.0282 17.1349 64.5421L12.4684 62.9866C9.649 62.0144 7.89905 59.2923 8.19071 56.3757L8.67681 51.4175C8.87125 49.7648 8.38515 48.1121 7.31574 46.8482L4.20473 42.9595C2.35756 40.6262 2.35756 37.418 4.20473 35.0847L7.31574 31.1959C8.38515 29.9321 8.87125 28.2794 8.67681 26.6266L8.19071 21.6685C7.89905 18.7519 9.649 16.0298 12.4684 15.0576L17.1349 13.5021C18.6904 13.016 19.9542 11.8493 20.732 10.3911L22.968 5.91898C23.7458 4.36347 25.1068 3.29406 26.5651 2.80797C23.9402 2.41909 21.3153 3.78016 20.1487 6.21063L17.9126 10.6827C17.1349 12.141 15.871 13.3076 14.3155 13.7937L9.649 15.3492C6.82964 16.3214 5.0797 19.0436 5.37136 21.9601L5.85745 26.9183C6.05189 28.571 5.56579 30.2238 4.49638 31.4876L1.38537 35.3764C-0.461791 37.7096 -0.461791 40.9179 1.38537 43.2511L4.49638 47.1399C5.56579 48.4037 6.05189 50.0565 5.85745 51.7092L5.37136 56.6674C5.0797 59.5839 6.82964 62.3061 9.649 63.2783L14.3155 64.8338C15.871 65.3199 17.1349 66.4865 17.9126 67.9448L20.1487 72.4169C21.5097 75.0418 24.4263 76.4028 27.3429 75.7223L27.9262 75.6251C25.7874 75.2362 23.9402 74.0696 22.968 72.1252Z" fill="black"/>
<path d="M39.6911 3.09832L43.9687 0.57062C44.3576 0.376181 44.7465 0.181743 45.1353 0.084524C43.7743 -0.109914 42.316 0.181744 41.1493 0.862278L36.8717 3.38997C36.4828 3.58441 36.094 3.77885 35.7051 3.87607C37.0661 4.07051 38.4272 3.87607 39.6911 3.09832Z" fill="black"/>
<path d="M59.5222 70.6666C59.0361 70.6666 58.55 70.7638 58.1611 70.861L61.661 70.6666C62.1471 70.6666 62.536 70.5694 63.0221 70.4722L59.5222 70.6666Z" fill="black"/>
<path d="M43.9655 77.3748L39.6879 74.8471C38.2296 73.9721 36.5769 73.7777 34.9241 74.1666L34.3408 74.2638C35.2158 74.361 35.9935 74.6527 36.7713 75.0415L41.0489 77.5692C42.7017 78.5414 44.5488 78.6386 46.2988 78.0553C45.521 78.0553 44.7433 77.8609 43.9655 77.3748Z" fill="black"/>
</g>
<path d="M23.5518 33.3353L35.7041 47.2376L60.5922 27.2104" fill="#628B48"/>
<path d="M65.7333 39.4208C65.7333 53.4137 54.3354 64.759 40.2734 64.759C26.2113 64.759 14.8135 53.4137 14.8135 39.4208C14.8135 25.4278 26.2113 14.0826 40.2734 14.0826C54.3354 14.0826 65.7333 25.4278 65.7333 39.4208Z" fill="#73A353" stroke="#5D8345" stroke-width="0.425852"/>
<path d="M38.4162 50.8604C37.4787 51.0893 36.4432 50.9163 35.5937 50.3432L24.8859 42.8106C23.3373 41.6986 22.9645 39.59 23.9932 37.9908C25.1052 36.4422 27.2138 36.0694 28.813 37.0981L36.8565 42.7267L48.6447 27.3615C49.773 25.8798 51.9649 25.5577 53.4629 26.753C54.9609 27.9483 55.2667 30.0732 54.0714 31.5712L40.3123 49.6171C39.824 50.233 39.1528 50.6806 38.4162 50.8604Z" fill="white"/>
</svg>
