<svg width="88" height="74" viewBox="0 0 88 74" fill="none" xmlns="http://www.w3.org/2000/svg">
<g clip-path="url(#clip0_248_129)">
<path d="M24.6044 71.2272C22.1735 71.8223 19.7256 70.3602 19.1306 67.9294L13.3848 44.81L24.6214 42.0221L27.9704 66.2294C28.3104 68.5074 26.8484 70.6663 24.6044 71.2272Z" fill="#43527A"/>
<path d="M76.0798 47.7717C81.8914 47.7717 86.6025 43.0606 86.6025 37.249C86.6025 31.4376 81.8914 26.7263 76.0798 26.7263C70.2683 26.7263 65.5571 31.4376 65.5571 37.249C65.5571 43.0606 70.2683 47.7717 76.0798 47.7717Z" fill="#F9C04A"/>
<path d="M14.5396 44.9H3.94888C2.38492 44.9 1.12695 43.642 1.12695 42.078V32.4394C1.12695 30.8754 2.38492 29.6174 3.94888 29.6174H14.5565V44.9H14.5396Z" fill="#F9C04A"/>
<path d="M75.0386 68.8663L27.814 49.4018V25.0925L75.0386 5.61107C76.2285 5.11808 77.5375 6.00206 77.5375 7.29402V67.2003C77.5375 68.4922 76.2285 69.3592 75.0386 68.8663Z" fill="#DEF6FC"/>
<path d="M32.1148 29.3926L77.5375 10.6762V7.29327C77.5375 6.0013 76.2285 5.13433 75.0386 5.61032L27.814 25.0917V49.401L32.1318 51.186V29.3926H32.1148Z" fill="white"/>
<path d="M27.8177 49.4029H10.9542C8.47225 49.4029 6.46631 47.397 6.46631 44.9151V29.5815C6.46631 27.0996 8.47225 25.0936 10.9542 25.0936H27.8007V49.4029H27.8177Z" fill="#FF5741"/>
<path d="M10.7672 44.9151V29.5815C10.7672 27.0996 12.7732 25.0936 15.255 25.0936H10.9542C8.47225 25.0936 6.46631 27.0996 6.46631 29.5815V44.9151C6.46631 47.397 8.47225 49.4029 10.9542 49.4029H15.255C12.7901 49.4029 10.7672 47.397 10.7672 44.9151Z" fill="#FF908A"/>
<path d="M26.1552 52.9359H23.3333C22.1943 52.9359 21.3613 54.0068 21.6334 55.1118L23.1123 61.0616C23.2993 61.8436 24.0133 62.3876 24.8122 62.3876H27.4642L26.1552 52.9359Z" fill="#DEF6FC"/>
<path d="M76.0811 72.7593C73.9563 72.7593 72.2393 71.0423 72.2393 68.9174V5.57723C72.2393 3.4523 73.9563 1.73535 76.0811 1.73535C78.2061 1.73535 79.923 3.4523 79.923 5.57723V68.9004C79.9401 71.0424 78.2061 72.7593 76.0811 72.7593Z" fill="#FF5741"/>
<path d="M10.1074 31.328C10.1074 31.7529 10.4474 32.1099 10.8895 32.1099H23.4351C23.8601 32.1099 24.2171 31.77 24.2171 31.328C24.2171 30.903 23.877 30.546 23.4351 30.546H10.8725C10.4474 30.546 10.1074 30.903 10.1074 31.328Z" fill="#133260"/>
<path d="M23.4179 36.4644H10.8723C10.4473 36.4644 10.0903 36.8043 10.0903 37.2463C10.0903 37.6883 10.4302 38.0282 10.8723 38.0282H23.4179C23.8429 38.0282 24.1999 37.6883 24.1999 37.2463C24.1999 36.8043 23.8429 36.4644 23.4179 36.4644Z" fill="#133260"/>
<path d="M23.4179 42.3969H10.8723C10.4473 42.3969 10.0903 42.7369 10.0903 43.1789C10.0903 43.6208 10.4302 43.9608 10.8723 43.9608H23.4179C23.8429 43.9608 24.1999 43.6208 24.1999 43.1789C24.1999 42.7369 23.8429 42.3969 23.4179 42.3969Z" fill="#133260"/>
<path d="M80.7034 26.9264V5.57503C80.7034 3.02511 78.6294 0.951172 76.0794 0.951172C73.5295 0.951172 71.4556 3.02511 71.4556 5.57503V6.25501L27.6649 24.3085H10.9544C8.30245 24.3085 6.10951 26.2635 5.73552 28.8133H3.95057C1.96163 28.8304 0.34668 30.4454 0.34668 32.4172V42.056C0.34668 44.0449 1.96163 45.6599 3.95057 45.6599H5.75252C6.12651 48.2098 8.31944 50.1648 10.9714 50.1648H13.9463L18.4002 68.0992C18.9952 70.5131 21.1711 72.1111 23.534 72.1111C23.959 72.1111 24.3839 72.0601 24.809 71.9581C27.4439 71.3121 29.1438 68.7792 28.7699 66.0932L28.2429 62.2684V62.2513L26.9339 52.8336V52.8166L26.5599 50.1817H27.6649L71.4726 68.2352V68.9152C71.4726 71.4651 73.5466 73.539 76.0965 73.539C78.6464 73.539 80.7203 71.4651 80.7203 68.9152V47.5638C84.8002 45.7449 87.4011 41.75 87.4011 37.2451C87.4011 32.7402 84.7832 28.7453 80.7034 26.9264ZM5.70152 44.113H3.95057C2.8116 44.113 1.89364 43.195 1.89364 42.056V32.4172C1.89364 31.2783 2.8116 30.3603 3.95057 30.3603H5.70152V44.113ZM27.2229 66.3142C27.4949 68.2182 26.2879 70.0032 24.418 70.4622C22.4121 70.9551 20.3721 69.7312 19.8791 67.7252L15.5272 50.1817H24.996L25.268 52.1707H23.33C22.548 52.1707 21.817 52.5276 21.3411 53.1397C20.8651 53.7516 20.6951 54.5506 20.8821 55.2986L22.3611 61.2484C22.633 62.3703 23.653 63.1693 24.809 63.1693H26.7809L27.2229 66.3142ZM26.5769 61.6054H24.809C24.367 61.6054 23.9759 61.2994 23.857 60.8574L22.378 54.9076C22.3101 54.6186 22.378 54.3126 22.548 54.0746C22.735 53.8367 23.007 53.7006 23.313 53.7006H25.455L26.5769 61.6054ZM27.0359 48.6178H14.5412H14.5243H10.9544C8.89743 48.6178 7.23148 46.9518 7.23148 44.8949V29.5613C7.23148 27.5044 8.89743 25.8384 10.9544 25.8384H27.0359V48.6178ZM71.4556 66.5522L28.5829 48.8727V25.6004L71.4556 7.92097V66.5522ZM79.1564 27.4194C79.1564 27.4364 79.1564 27.4534 79.1564 27.4534V47.0199C79.1564 47.0368 79.1564 47.0538 79.1564 47.0538V68.8982C79.1564 70.5982 77.7795 71.9751 76.0794 71.9751C74.3795 71.9751 73.0025 70.5982 73.0025 68.8982V67.7252C73.0025 67.7082 73.0025 67.7082 73.0025 67.6912V6.782C73.0025 6.765 73.0025 6.765 73.0025 6.748V5.57503C73.0025 3.87509 74.3795 2.49812 76.0794 2.49812C77.7795 2.49812 79.1564 3.87509 79.1564 5.57503V27.4194ZM80.7034 45.8299V28.6604C83.8483 30.3433 85.8372 33.6072 85.8372 37.2451C85.8372 40.883 83.8483 44.1469 80.7034 45.8299Z" fill="#133260"/>
</g>
<defs>
<clipPath id="clip0_248_129">
<rect width="87.8133" height="74" fill="white"/>
</clipPath>
</defs>
</svg>
