<svg width="74" height="74" viewBox="0 0 74 74" fill="none" xmlns="http://www.w3.org/2000/svg">
<g clip-path="url(#clip0_253_17)">
<path d="M36.852 0.746094C16.7394 0.746094 0.394043 17.0914 0.394043 37.204C0.394043 57.3167 16.7394 73.662 36.852 73.662C56.9646 73.662 73.3099 57.3167 73.3099 37.204C73.3099 17.0914 56.9646 0.746094 36.852 0.746094ZM36.852 67.5857C20.0813 67.5857 6.47037 53.9747 6.47037 37.204C6.47037 20.4334 20.0813 6.82242 36.852 6.82242C53.6226 6.82242 67.2336 20.4334 67.2336 37.204C67.2336 53.9747 53.6226 67.5857 36.852 67.5857Z" fill="black"/>
<path d="M36.8531 30.2172C35.1517 30.2172 33.8149 31.554 33.8149 33.2554V53.9149C33.8149 55.6163 35.1517 56.953 36.8531 56.953C38.5544 56.953 39.8913 55.6163 39.8913 53.9149V33.2554C39.8913 31.6148 38.5544 30.2172 36.8531 30.2172Z" fill="black"/>
<path d="M36.9139 17.759C35.334 17.6375 33.8757 19.2781 33.8149 20.9187C33.8149 20.9795 33.8149 21.3441 33.8149 21.4048C33.8149 23.0454 35.0909 24.2607 36.7923 24.3215H36.8531C38.4936 24.3215 39.8305 22.8631 39.8913 21.2833C39.8913 21.2225 39.8913 20.6149 39.8913 20.6149C39.8913 18.8528 38.6152 17.759 36.9139 17.759Z" fill="black"/>
</g>
<defs>
<clipPath id="clip0_253_17">
<rect width="74" height="74" fill="white"/>
</clipPath>
</defs>
</svg>
