<svg width="75" height="74" viewBox="0 0 75 74" fill="none" xmlns="http://www.w3.org/2000/svg">
<g clip-path="url(#clip0_226_7)">
<path d="M23.3188 51.4556L9.30225 65.4722" stroke="black" stroke-width="4.20497" stroke-linecap="round" stroke-linejoin="round"/>
<path d="M46.5548 2.99451L24.724 24.8254C24.724 24.8254 15.0175 19.9546 4.61018 28.3645C4.30394 28.6123 4.05337 28.922 3.87481 29.2731C3.69625 29.6243 3.59371 30.0091 3.57387 30.4025C3.55403 30.796 3.61735 31.1892 3.75968 31.5566C3.90201 31.9239 4.12017 32.2571 4.39993 32.5345L42.1746 70.3092C42.4574 70.5969 42.7989 70.8202 43.1759 70.9638C43.5529 71.1074 43.9564 71.168 44.3589 71.1414C44.7614 71.1148 45.1535 71.0016 45.5083 70.8096C45.8631 70.6176 46.1722 70.3513 46.4147 70.0289C49.3581 66.1392 53.9836 58.0797 49.9539 50.0552L71.7846 28.2244C72.0496 27.9635 72.2599 27.6526 72.4035 27.3097C72.547 26.9668 72.621 26.5988 72.621 26.227C72.621 25.8552 72.547 25.4872 72.4035 25.1443C72.2599 24.8014 72.0496 24.4905 71.7846 24.2297L50.5495 2.99451C50.2887 2.72964 49.9778 2.5193 49.6349 2.37572C49.292 2.23214 48.9239 2.1582 48.5522 2.1582C48.1804 2.1582 47.8124 2.23214 47.4695 2.37572C47.1266 2.5193 46.8157 2.72964 46.5548 2.99451Z" stroke="black" stroke-width="4.20497" stroke-linecap="round" stroke-linejoin="round"/>
</g>
<defs>
<clipPath id="clip0_226_7">
<rect width="74.0461" height="73.3271" fill="white" transform="translate(0.905762)"/>
</clipPath>
</defs>
</svg>
