<svg width="67" height="72" viewBox="0 0 67 72" fill="none" xmlns="http://www.w3.org/2000/svg">
<g clip-path="url(#clip0_241_22)">
<path d="M65.3147 27.4562L62.8532 11.4601C62.745 10.7567 62.3888 10.1153 61.8487 9.65184C61.3088 9.18831 60.6207 8.93338 59.9091 8.93313C43.618 8.93313 35.2683 0.935069 35.1968 0.866532C34.6384 0.311524 33.8832 0 33.096 0C32.3087 0 31.5535 0.311524 30.9951 0.866532C30.9117 0.935069 22.562 8.93313 6.27089 8.93313C5.55927 8.93338 4.87122 9.18831 4.33122 9.65184C3.79122 10.1153 3.43492 10.7567 3.32675 11.4601L0.865353 27.4562C-0.238651 34.7225 0.916959 42.1527 4.17571 48.7406C7.43447 55.3285 12.639 60.7558 19.0845 64.2878L31.6596 71.1415C32.0975 71.3804 32.5882 71.5056 33.087 71.5056C33.5858 71.5056 34.0765 71.3804 34.5144 71.1415L47.0896 64.2878C53.5362 60.7567 58.7419 55.3297 62.0017 48.7418C65.2616 42.1538 66.4181 34.7232 65.3147 27.4562ZM44.2408 59.0431L33.09 65.137L21.9392 59.0551C16.5656 56.1135 12.2258 51.5915 9.50753 46.1016C6.78923 40.6116 5.8237 34.419 6.74172 28.362L8.82765 14.8303C17.5281 14.6355 25.9738 11.8566 33.09 6.84719C40.2034 11.856 48.6458 14.6359 57.3434 14.8333L59.4293 28.362C60.3482 34.418 59.3839 40.61 56.6673 46.0998C53.9506 51.5896 49.6127 56.1121 44.2408 59.0551V59.0431Z" fill="#232323"/>
<path d="M42.9032 24.7057L27.1306 40.4784L23.2776 36.6254C23.0027 36.3408 22.6739 36.1137 22.3104 35.9576C21.9468 35.8014 21.5557 35.7192 21.1601 35.7158C20.7644 35.7123 20.3721 35.7877 20.0058 35.9375C19.6396 36.0874 19.3069 36.3086 19.0271 36.5884C18.7473 36.8683 18.5261 37.2009 18.3762 37.5672C18.2264 37.9334 18.151 38.3257 18.1544 38.7214C18.1579 39.1171 18.24 39.5082 18.3963 39.8717C18.5524 40.2353 18.7794 40.564 19.064 40.839L25.0239 46.7987C25.5827 47.3574 26.3405 47.6712 27.1306 47.6712C27.9208 47.6712 28.6786 47.3574 29.2374 46.7987L47.1168 28.9193C47.6596 28.3573 47.96 27.6046 47.9532 26.8233C47.9464 26.042 47.633 25.2946 47.0805 24.7421C46.528 24.1896 45.7806 23.8762 44.9993 23.8694C44.218 23.8626 43.4652 24.163 42.9032 24.7057Z" fill="#232323"/>
</g>
<defs>
<clipPath id="clip0_241_22">
<rect width="65.6854" height="71.5056" fill="white" transform="translate(0.458496)"/>
</clipPath>
</defs>
</svg>
