<svg width="103" height="102" viewBox="0 0 103 102" fill="none" xmlns="http://www.w3.org/2000/svg">
<path d="M31.1771 71.5752L11.6797 91.0726" stroke="black" stroke-width="5.84923" stroke-linecap="round" stroke-linejoin="round"/>
<path d="M63.4986 4.16333L33.1314 34.5306C33.1314 34.5306 19.6294 27.7552 5.15254 39.4537C4.72655 39.7984 4.378 40.2291 4.12962 40.7175C3.88124 41.206 3.7386 41.7413 3.711 42.2886C3.68341 42.8359 3.77148 43.3829 3.96947 43.8939C4.16746 44.4049 4.47092 44.8684 4.86008 45.2542L57.4057 97.7998C57.799 98.2 58.2741 98.5106 58.7985 98.7104C59.3229 98.9102 59.8842 98.9945 60.4441 98.9575C61.004 98.9204 61.5494 98.763 62.0429 98.4959C62.5364 98.2288 62.9664 97.8584 63.3037 97.4099C67.3981 91.9993 73.8323 80.7883 68.2268 69.626L98.594 39.2587C98.9625 38.8959 99.2551 38.4634 99.4548 37.9864C99.6545 37.5094 99.7574 36.9975 99.7574 36.4803C99.7574 35.9632 99.6545 35.4513 99.4548 34.9743C99.2551 34.4973 98.9625 34.0648 98.594 33.702L69.0554 4.16333C68.6926 3.79488 68.2601 3.50229 67.7831 3.30257C67.3061 3.10285 66.7941 3 66.277 3C65.7599 3 65.248 3.10285 64.771 3.30257C64.294 3.50229 63.8615 3.79488 63.4986 4.16333Z" stroke="black" stroke-width="5.84923" stroke-linecap="round" stroke-linejoin="round"/>
</svg>
