<svg width="66" height="70" viewBox="0 0 66 70" fill="none" xmlns="http://www.w3.org/2000/svg">
<g clip-path="url(#clip0_241_25)">
<path d="M19.3651 17.1702C15.8686 22.4995 13.8346 28.8982 13.8346 35.8184C13.8346 40.7043 14.8348 45.3207 16.6754 49.4937C20.7518 58.8395 30.7874 65.8293 40.6632 68.1766C40.5456 68.2201 40.4699 68.2201 40.3523 68.2549C38.083 68.733 35.7379 69.0112 33.3594 69.0112C14.9525 69.0112 0 53.545 0 34.5056C0 15.4662 14.9525 0 33.3678 0C35.7548 0 38.0913 0.278201 40.3607 0.756359C42.3611 1.19105 44.2438 1.8257 46.0845 2.62552C44.3951 2.74724 42.7393 2.98197 41.1675 3.30363C32.9055 5.09456 23.9457 10.1804 19.3651 17.1789V17.1702Z" fill="#231F20"/>
<path d="M65.3 34.5049C65.3 46.6328 55.8108 56.4915 44.0438 56.4915C41.7408 56.4915 39.5051 56.0916 37.4375 55.3787C46.8175 53.3531 53.7684 44.8071 53.7684 34.5049C53.7684 24.2028 46.8091 15.6655 37.4375 13.6312C39.5136 12.9183 41.7408 12.5184 44.0438 12.5184C55.8024 12.5184 65.3 22.3771 65.3 34.5049Z" fill="#D1252B"/>
</g>
<defs>
<clipPath id="clip0_241_25">
<rect width="65.6854" height="69.0112" fill="white"/>
</clipPath>
</defs>
</svg>
