<svg width="83" height="74" viewBox="0 0 83 74" fill="none" xmlns="http://www.w3.org/2000/svg">
<path d="M58.6027 48.4893V52.4024H40.6494V49.0509L49.2003 39.8478C50.0699 38.8574 50.7584 37.9939 51.2656 37.2571C51.7729 36.5204 52.1352 35.8561 52.3526 35.2643C52.582 34.6604 52.6968 34.0867 52.6968 33.5433C52.6968 32.734 52.5579 32.0336 52.2802 31.4418C52.0023 30.85 51.5978 30.391 51.0663 30.065C50.5349 29.7389 49.8827 29.5758 49.1098 29.5758C48.2643 29.5758 47.5397 29.7751 46.9358 30.1737C46.344 30.5722 45.8911 31.1217 45.5771 31.8223C45.2751 32.5227 45.1242 33.3198 45.1242 34.2136H40.124C40.124 32.6435 40.4864 31.2123 41.211 29.92C41.9478 28.6277 42.9985 27.5951 44.3633 26.8221C45.7281 26.037 47.3404 25.6445 49.2003 25.6445C51.0362 25.6445 52.582 25.9465 53.8381 26.5504C55.1062 27.1422 56.0664 27.9936 56.7186 29.1048C57.3708 30.2159 57.6969 31.5324 57.6969 33.0542C57.6969 33.9116 57.558 34.757 57.2802 35.5904C57.0025 36.4117 56.6099 37.227 56.1027 38.0361C55.5954 38.8453 54.9915 39.6666 54.291 40.4999C53.5905 41.3212 52.8055 42.1667 51.9359 43.0362L47.0626 48.4893H58.6027ZM80.2697 42.6739V46.587H61.2658L61.0484 43.5616L72.1356 26.025H76.1031L71.7914 33.2715L66.0485 42.6739H80.2697ZM77.2082 26.025V52.4024H72.2081V26.025H77.2082Z" fill="#ED1C24"/>
<mask id="mask0_71_2" style="mask-type:luminance" maskUnits="userSpaceOnUse" x="0" y="13" width="55" height="55">
<path d="M27.2653 13.5496L54.009 40.2933L27.2653 67.0371L0.521484 40.2933L27.2653 13.5496Z" fill="white"/>
</mask>
<g mask="url(#mask0_71_2)">
<path d="M34.0468 59.5946C33.7195 60.3119 33.273 60.9862 32.7045 61.5896C32.6532 61.6491 32.5968 61.7056 32.5392 61.7631C29.6277 64.6746 24.9048 64.6746 21.9933 61.7631C10.1346 49.9045 10.1346 30.6802 21.9922 18.8226C24.9038 15.911 29.6267 15.911 32.5382 18.8226C32.5968 18.8811 32.6521 18.9365 32.7045 18.997C33.273 19.6005 33.7216 20.2769 34.0479 20.9931L27.4571 31.5433C27.452 31.5484 27.4479 31.5484 27.4417 31.5464L22.179 29.5472L22.1646 29.541C18.7574 36.2796 18.7574 44.305 22.1646 51.0457L22.18 51.0385L27.4459 49.0403L34.0468 59.5946Z" fill="#ED1C24"/>
</g>
<path d="M36.4644 17.0278C34.1456 14.2452 30.8605 13.5495 29.5078 13.5495C35.0732 8.44797 44.5806 7.17258 48.6386 7.17261V0.795654L64.8709 10.6509L48.6386 19.9265V13.5495C41.682 13.0858 37.6239 15.6751 36.4644 17.0278Z" fill="black" stroke="black" stroke-width="0.115944"/>
<path d="M30.8716 68.1533C34.8337 66.6857 36.8037 64.4749 37.2934 63.5529C46.3669 68.1903 56.7658 63.561 60.8311 60.6666C65.0519 60.1876 65.7343 63.2939 65.1482 65.1773C52.7072 75.1177 37.1134 71.3032 30.8716 68.1533Z" fill="black" stroke="black" stroke-width="0.115944"/>
</svg>
