<svg width="24" height="25" viewBox="0 0 24 25" fill="none" xmlns="http://www.w3.org/2000/svg">
<g clip-path="url(#clip0_2221_1172)">
<mask id="mask0_2221_1172" style="mask-type:luminance" maskUnits="userSpaceOnUse" x="0" y="0" width="24" height="25">
<path d="M0 0.1875H23.9522V24.1379H0V0.1875Z" fill="white"/>
</mask>
<g mask="url(#mask0_2221_1172)">
<path d="M23.9521 12.1636C23.9521 12.5551 23.9337 12.9467 23.8951 13.3364C23.8565 13.7279 23.7995 14.114 23.7223 14.5C23.6451 14.8842 23.5513 15.2647 23.4374 15.6397C23.3234 16.0147 23.1911 16.3842 23.0403 16.7463C22.8914 17.1085 22.7223 17.4632 22.5385 17.8088C22.3528 18.1544 22.1524 18.4908 21.9337 18.8162C21.7168 19.1434 21.4833 19.4577 21.2333 19.761C20.9852 20.0644 20.7223 20.3548 20.4447 20.6305C20.1671 20.9081 19.8767 21.171 19.5734 21.4209C19.2701 21.6691 18.9558 21.9026 18.6304 22.1213C18.3032 22.3382 17.9686 22.5404 17.6212 22.7243C17.2756 22.9099 16.9227 23.0772 16.5587 23.2279C16.1965 23.3768 15.8289 23.5092 15.4539 23.6232C15.0771 23.7371 14.6984 23.8327 14.3124 23.9081C13.9282 23.9853 13.5403 24.0423 13.1506 24.0809C12.7609 24.1195 12.3694 24.1397 11.976 24.1397C11.5844 24.1397 11.1929 24.1195 10.8032 24.0809C10.4135 24.0423 10.0256 23.9853 9.63957 23.9081C9.25539 23.8327 8.87489 23.7371 8.49989 23.6232C8.12489 23.5092 7.75539 23.3768 7.39324 23.2279C7.03112 23.0772 6.67818 22.9099 6.33075 22.7243C5.98518 22.5404 5.64876 22.3382 5.32342 22.1213C4.99804 21.9026 4.68184 21.6691 4.37856 21.4209C4.07708 21.171 3.78664 20.9081 3.50906 20.6305C3.23149 20.3548 2.96862 20.0644 2.71862 19.761C2.47046 19.4577 2.237 19.1434 2.02009 18.8162C1.80134 18.4908 1.59914 18.1544 1.41531 17.8088C1.22965 17.4632 1.06237 17.1085 0.913474 16.7463C0.762739 16.3842 0.630386 16.0147 0.516415 15.6397C0.402443 15.2647 0.306856 14.8842 0.231489 14.5C0.154282 14.114 0.0972971 13.7279 0.0586942 13.3364C0.0200914 12.9467 0.00170898 12.5551 0.00170898 12.1636C0.00170898 11.7702 0.0200914 11.3805 0.0586942 10.989C0.0972971 10.5993 0.154282 10.2114 0.231489 9.82722C0.306856 9.44301 0.402443 9.0625 0.516415 8.6875C0.630386 8.31067 0.762739 7.94301 0.913474 7.58089C1.06237 7.21874 1.22965 6.86396 1.41531 6.5184C1.59914 6.1728 1.80134 5.83641 2.02009 5.5092C2.237 5.18382 2.47046 4.86949 2.71862 4.56617C2.96862 4.26286 3.23149 3.97242 3.50906 3.69487C3.78664 3.41728 4.07708 3.15441 4.37856 2.90625C4.68184 2.65625 4.99804 2.42463 5.32342 2.20588C5.64876 1.98713 5.98518 1.78677 6.33075 1.6011C6.67818 1.41728 7.03112 1.25 7.39324 1.09926C7.75539 0.94853 8.12489 0.818016 8.49989 0.704044C8.87489 0.590072 9.25539 0.494485 9.63957 0.41728C10.0256 0.341911 10.4135 0.283088 10.8032 0.244485C11.1929 0.20772 11.5844 0.1875 11.976 0.1875C12.3694 0.1875 12.7609 0.20772 13.1506 0.244485C13.5403 0.283088 13.9282 0.341911 14.3124 0.41728C14.6984 0.494485 15.0771 0.590072 15.4539 0.704044C15.8289 0.818016 16.1965 0.94853 16.5587 1.09926C16.9227 1.25 17.2756 1.41728 17.6212 1.6011C17.9686 1.78677 18.3032 1.98713 18.6304 2.20588C18.9558 2.42463 19.2701 2.65625 19.5734 2.90625C19.8767 3.15441 20.1671 3.41728 20.4447 3.69487C20.7223 3.97242 20.9852 4.26286 21.2333 4.56617C21.4833 4.86949 21.7168 5.18382 21.9337 5.5092C22.1524 5.83641 22.3528 6.1728 22.5385 6.5184C22.7223 6.86396 22.8914 7.21874 23.0403 7.58089C23.1911 7.94301 23.3234 8.31067 23.4374 8.6875C23.5513 9.0625 23.6451 9.44301 23.7223 9.82722C23.7995 10.2114 23.8565 10.5993 23.8951 10.989C23.9337 11.3805 23.9521 11.7702 23.9521 12.1636Z" fill="#FF0000"/>
</g>
<path fill-rule="evenodd" clip-rule="evenodd" d="M4.19678 14.4742V9.85107H9.66553V4.38416H14.2887V9.85107H19.7575V14.4742H14.2887V19.943H9.66553V14.4742H4.19678Z" fill="white"/>
</g>
<defs>
<clipPath id="clip0_2221_1172">
<rect width="24" height="24.3529" fill="white"/>
</clipPath>
</defs>
</svg>
