<svg width="62" height="74" viewBox="0 0 62 74" fill="none" xmlns="http://www.w3.org/2000/svg">
<g clip-path="url(#clip0_241_28)">
<mask id="mask0_241_28" style="mask-type:luminance" maskUnits="userSpaceOnUse" x="0" y="0" width="61" height="74">
<path d="M60.8107 0H0.772949V74H60.8107V0Z" fill="white"/>
</mask>
<g mask="url(#mask0_241_28)">
<path d="M23.8167 73.9768C23.3547 73.8912 22.8887 73.8287 22.4205 73.7895C18.936 73.6615 15.4485 73.5985 11.9669 73.4155C9.96809 73.3104 7.96867 73.0905 5.98855 72.7944C3.87635 72.4792 1.79992 69.9511 1.68571 67.6548C1.57401 65.4156 1.48322 63.1739 1.45418 60.9327C1.31549 50.2336 1.19056 39.5345 1.07942 28.8355C1.01156 22.5785 0.988112 16.321 0.887305 10.0646C0.857705 8.24084 0.733459 6.41043 1.48574 4.70983C1.9103 3.70611 2.48608 2.77325 3.19305 1.94385C3.93639 1.10863 5.03939 0.810418 6.18511 0.779419C8.85805 0.707376 11.5361 0.69554 14.2023 0.516264C23.1817 -0.0855071 32.1577 0.398181 41.1371 0.456543C42.0343 0.438184 42.9259 0.603249 43.757 0.941675C44.5884 1.2801 45.3418 1.78473 45.9707 2.42462C48.8736 5.18915 51.993 7.72437 55.0062 10.3739C56.1532 11.3825 57.2121 12.4933 58.3847 13.4696C59.5168 14.4117 59.9206 15.6102 59.9521 17.0048C60.0406 21.063 60.1163 25.1215 60.2163 29.1798C60.3767 35.6737 60.6158 42.1644 60.7009 48.6607C60.763 53.3858 60.6312 58.1139 60.5835 62.8408C60.5673 64.4648 60.5171 66.0883 60.5277 67.7119C60.5558 71.4665 57.5814 73.5283 54.4445 73.5819C48.7157 73.6794 42.9857 73.7214 37.2564 73.7989C36.7879 73.8309 36.3218 73.8904 35.8602 73.9772L23.8167 73.9768ZM40.3848 4.01828C39.4828 3.95042 38.7713 3.86064 38.0584 3.84919C31.9929 3.75241 25.9273 3.66409 19.8614 3.58441C17.1885 3.54811 14.5155 3.52112 11.8426 3.50341C10.4603 3.49391 9.07418 3.45191 7.69613 3.5315C5.84836 3.63957 5.18631 4.18198 4.93887 6.00514C4.73427 7.6586 4.63826 9.32381 4.6515 10.9899C4.6448 12.8496 4.82972 14.7093 4.84228 16.5696C4.88361 22.5878 4.9022 28.6063 4.8981 34.6252C4.90556 44.8465 4.9081 55.0677 4.90567 65.2889C4.89422 65.8135 4.94502 66.3381 5.057 66.8512C5.56496 68.9308 6.73999 69.8668 8.63128 69.9106C11.3051 69.9715 13.9777 70.1808 16.6506 70.1714C26.2522 70.1387 35.8535 70.0362 45.455 69.9698C48.2244 69.9506 50.9949 70.0128 53.763 69.9494C55.8575 69.9009 56.8348 68.8878 56.8118 66.8333C56.7637 62.3464 56.6646 57.8604 56.577 53.3735C56.5505 52.0367 56.4995 50.7008 56.4502 49.3644C56.2932 45.1651 56.0494 40.967 55.9924 36.7664C55.917 31.2267 55.9889 25.6849 55.9907 20.1441C55.9809 19.834 55.9554 19.5247 55.9145 19.2172C52.7784 19.2172 49.7734 19.239 46.7693 19.2038C45.8635 19.2038 44.9598 19.1044 44.0749 18.9074C42.2113 18.466 41.6369 17.7594 41.4454 15.8357C41.2801 14.1736 41.1689 12.5061 41.0195 10.8421C40.8195 8.61839 40.6063 6.39439 40.3848 4.01828ZM44.4059 6.40273L44.1327 6.49846C44.5964 9.54697 45.0611 12.5954 45.5214 15.6167C47.0726 15.7787 52.8457 15.3503 53.8518 14.9885C50.6784 12.1035 47.5419 9.25296 44.4059 6.40273Z" fill="black"/>
<path d="M30.1342 38.4975C25.2625 38.4975 20.3908 38.4952 15.5192 38.4916C14.8508 38.4989 14.1829 38.4536 13.5216 38.356C12.4473 38.1811 11.9698 37.6876 12.034 36.9463C12.0927 36.2696 12.5817 35.929 13.6467 35.8852C14.6009 35.8463 15.5573 35.8687 16.5118 35.8324C23.0006 35.5858 29.4877 35.2677 35.9784 35.1013C39.987 34.9985 44.001 35.1099 48.0139 35.1518C49.3103 35.1656 50.0344 35.965 49.5566 36.8935C49.2724 37.3755 48.8099 37.7265 48.2697 37.8709C46.9745 38.1833 45.6514 38.3645 44.3205 38.4123C39.5927 38.4743 34.8637 38.4366 30.1347 38.4366L30.1342 38.4975Z" fill="black"/>
<path d="M12.2158 46.0193C11.9539 44.3562 12.2918 43.9163 13.81 43.8239C15.9532 43.6929 18.0998 43.5474 20.2454 43.5406C28.8375 43.5125 37.4296 43.5154 46.0221 43.55C46.9747 43.5793 47.9256 43.6571 48.8701 43.7839C49.1862 43.7933 49.4866 43.9235 49.7095 44.1481C49.932 44.3723 50.0605 44.6736 50.0678 44.9897C50.1261 45.6015 49.738 46.1104 48.9969 46.3235C48.5378 46.4507 48.063 46.5119 47.5865 46.5051C41.3823 46.4537 35.1783 46.3775 28.974 46.324C24.5341 46.2852 20.0941 46.284 15.6542 46.2354C14.5209 46.2227 13.3892 46.0959 12.2158 46.0193Z" fill="black"/>
<path d="M12.7606 53.0493C12.4199 51.8895 12.4844 51.5479 13.2434 51.2901C13.8743 51.0782 14.5362 50.974 15.2017 50.9807C21.1217 51.0446 27.0437 51.0994 32.9617 51.2467C37.6396 51.3629 42.3144 51.6028 46.9904 51.7921C47.3725 51.7942 47.7537 51.8291 48.1303 51.8951C48.4766 51.9435 48.7935 52.1163 49.0224 52.3805C49.2513 52.6447 49.3769 52.9834 49.3756 53.3331C49.3739 53.6829 49.2463 54.0198 49.0152 54.2828C48.7842 54.5453 48.4659 54.715 48.1192 54.7609C47.6478 54.8397 47.1692 54.8648 46.6922 54.8345C43.8778 54.7252 41.062 54.6282 38.25 54.4699C33.3884 54.1968 28.5303 53.859 23.6687 53.5931C21.0949 53.4535 18.5156 53.4186 15.9401 53.308C14.8965 53.2625 13.8555 53.1404 12.7606 53.0493Z" fill="black"/>
<path d="M43.8075 62.0787C42.8581 62.037 41.9087 62.0127 40.9593 61.9447C40.5362 61.8979 40.1174 61.8217 39.7052 61.7162C39.4647 61.6835 39.2464 61.5583 39.0972 61.3665C38.9482 61.175 38.8802 60.9329 38.9079 60.6917C38.9015 60.425 38.9981 60.1662 39.178 59.9692C39.3581 59.7719 39.6072 59.6519 39.8733 59.634C40.6272 59.5391 41.3857 59.4774 42.1441 59.4306C43.5683 59.343 44.9902 59.263 46.4147 59.2073C46.8423 59.1962 47.2702 59.229 47.691 59.306C48.473 59.44 48.8641 59.8365 48.9121 60.4751C48.9407 60.7883 48.8547 61.101 48.6696 61.3559C48.4845 61.6103 48.214 61.7894 47.9067 61.8587C47.1665 62.0225 46.4138 62.1238 45.6565 62.1621C45.0422 62.2089 44.4231 62.171 43.8058 62.171L43.8075 62.0787Z" fill="black"/>
<path d="M14.7675 28.3112C15.8638 28.3112 16.9601 28.3064 18.0562 28.3143C18.3888 28.3168 18.778 28.2536 19.0388 28.4011C19.394 28.5927 19.6766 28.8954 19.8431 29.2632C19.8878 29.376 19.9082 29.4969 19.903 29.6181C19.8977 29.7393 19.8669 29.8583 19.8125 29.9669C19.7582 30.0755 19.6816 30.1712 19.5877 30.2481C19.4938 30.3249 19.3847 30.3813 19.2676 30.4131C18.8237 30.5726 18.3554 30.6532 17.8838 30.6516C15.7407 30.5842 13.5983 30.476 11.4568 30.3636C11.1259 30.3285 10.7991 30.2606 10.4813 30.1615C10.0145 30.0423 9.63026 29.7348 9.79364 29.2598C9.9764 28.9038 10.2706 28.6172 10.6313 28.4439C10.8506 28.3179 11.1898 28.3938 11.476 28.3931C12.5732 28.3894 13.6701 28.3931 14.7673 28.3931L14.7675 28.3112Z" fill="black"/>
</g>
</g>
<defs>
<clipPath id="clip0_241_28">
<rect width="60.6966" height="74" fill="white" transform="translate(0.772949)"/>
</clipPath>
</defs>
</svg>
