<svg width="106" height="74" viewBox="0 0 106 74" fill="none" xmlns="http://www.w3.org/2000/svg">
<g clip-path="url(#clip0_242_84)">
<mask id="mask0_242_84" style="mask-type:luminance" maskUnits="userSpaceOnUse" x="0" y="0" width="106" height="74">
<path d="M105.589 0.938965H0.460449V73.8285H105.589V0.938965Z" fill="white"/>
</mask>
<g mask="url(#mask0_242_84)">
<path d="M102.413 12.3216C101.215 7.84125 97.6873 4.31328 93.207 3.11603C85.0857 0.939696 52.5243 0.939697 52.5243 0.939697C52.5243 0.939697 19.9627 0.939696 11.8413 3.11603C7.362 4.31328 3.83322 7.84125 2.63575 12.3216C0.460449 20.4419 0.460449 37.3849 0.460449 37.3849C0.460449 37.3849 0.460449 54.3278 2.63575 62.4472C3.83322 66.9276 7.362 70.4564 11.8413 71.6537C19.9627 73.8292 52.5243 73.8292 52.5243 73.8292C52.5243 73.8292 85.0857 73.8292 93.207 71.6537C97.6873 70.4564 101.215 66.9276 102.413 62.4472C104.589 54.3278 104.589 37.3849 104.589 37.3849C104.589 37.3849 104.589 20.4419 102.413 12.3216Z" fill="#ED1F24"/>
<path d="M42.1104 53.0052L69.163 37.3857L42.1104 21.7661V53.0052Z" fill="white"/>
</g>
</g>
<defs>
<clipPath id="clip0_242_84">
<rect width="105.425" height="74" fill="white" transform="translate(0.164551)"/>
</clipPath>
</defs>
</svg>
