<svg width="104" height="73" viewBox="0 0 104 73" fill="none" xmlns="http://www.w3.org/2000/svg">
<g clip-path="url(#clip0_231_14)">
<path d="M100.866 12.1551C99.6845 7.73529 96.2045 4.255 91.7847 3.07392C83.7732 0.927001 51.6518 0.927002 51.6518 0.927002C51.6518 0.927002 19.5302 0.927001 11.5186 3.07392C7.09979 4.255 3.6187 7.73529 2.43741 12.1551C0.291504 20.1657 0.291504 36.8797 0.291504 36.8797C0.291504 36.8797 0.291504 53.5936 2.43741 61.6033C3.6187 66.0232 7.09979 69.5043 11.5186 70.6854C19.5302 72.8315 51.6518 72.8315 51.6518 72.8315C51.6518 72.8315 83.7732 72.8315 91.7847 70.6854C96.2045 69.5043 99.6845 66.0232 100.866 61.6033C103.013 53.5936 103.013 36.8797 103.013 36.8797C103.013 36.8797 103.013 20.1657 100.866 12.1551Z" fill="#ED1F24"/>
<path d="M41.3789 52.2889L68.066 36.8805L41.3789 21.472V52.2889Z" fill="white"/>
</g>
<defs>
<clipPath id="clip0_231_14">
<rect width="103.708" height="71.9045" fill="white" transform="translate(0.291504 0.926331)"/>
</clipPath>
</defs>
</svg>
