<svg width="85" height="74" viewBox="0 0 85 74" fill="none" xmlns="http://www.w3.org/2000/svg">
<g clip-path="url(#clip0_248_88)">
<path d="M2.66165 50.5292C20.5983 26.169 45.2858 23.3669 55.9954 22.9533C56.0425 22.9515 56.089 22.9534 56.1358 22.9585C63.8713 23.7947 63.9517 25.7337 62.1356 27.7465C62.0426 27.8495 61.929 27.9272 61.8011 27.9807C46.9586 34.2065 28.7716 58.1545 20.0345 71.5828C19.5128 72.3847 18.3312 72.0571 18.3701 71.1011C18.6377 64.5208 20.3772 54.5954 22.04 49.1187C22.2303 48.4917 21.7891 47.8447 21.1346 47.8739C16.1122 48.099 8.5625 50.5697 3.62872 51.9479C2.7696 52.1879 2.13266 51.2475 2.66165 50.5292Z" fill="#F6BF34"/>
<path fill-rule="evenodd" clip-rule="evenodd" d="M1.07578 49.3726C19.5411 24.2943 44.9826 21.4225 55.9121 21.0003C56.0632 20.9947 56.2057 21.0011 56.3386 21.0155C58.3375 21.2315 59.9305 21.5272 61.1647 21.9098C62.3572 22.2796 63.4343 22.7958 64.1635 23.6026C65.0121 24.5414 65.2264 25.6911 64.9383 26.7754C64.6914 27.7047 64.1073 28.4833 63.5828 29.0647L62.1278 27.7518C63.944 25.739 63.8634 23.8 56.128 22.9638C56.0813 22.9587 56.0348 22.9568 55.9877 22.9587C45.2781 23.3723 20.5906 26.1742 2.65378 50.5345C2.12489 51.2529 2.76186 52.1931 3.62098 51.9531L4.14817 53.8406C1.43966 54.5972 -0.524092 51.5453 1.07578 49.3726ZM18.3901 70.5101C18.7334 63.9393 20.4189 54.4377 22.0322 49.1239C22.2226 48.497 21.7814 47.85 21.1269 47.8793C17.0059 48.0639 11.1833 49.7604 6.50076 51.1247C5.47631 51.4233 4.50653 51.7058 3.62098 51.9531L4.14817 53.8406C5.07601 53.5814 6.06479 53.2932 7.09783 52.9921C8.90511 52.4654 10.8478 51.8991 12.8358 51.3799C15.3241 50.7299 17.7221 50.1992 19.7541 49.9598C18.1779 55.7529 16.6571 64.8093 16.4042 71.0268C16.3464 72.4512 17.2624 73.5541 18.4481 73.8914C19.6058 74.2207 20.9259 73.7994 21.6692 72.6569C25.9984 66.0035 32.6713 56.7413 40.0862 48.3869C47.5577 39.9688 55.567 32.7227 62.5512 29.7933C62.9228 29.6375 63.2812 29.3991 63.5828 29.0647L62.1278 27.7518C62.0349 27.8549 61.9213 27.9326 61.7933 27.9861C47.1163 34.1423 29.169 57.628 20.3226 71.135C20.322 71.1357 20.3214 71.1366 20.321 71.1374C20.3107 71.1532 20.3003 71.1689 20.29 71.1847C20.2013 71.3202 20.1136 71.4546 20.0268 71.5881C19.505 72.3901 18.3234 72.0623 18.3623 71.1064C18.3701 70.9146 18.3791 70.72 18.3893 70.5228C18.3897 70.5186 18.3899 70.5143 18.3901 70.5101Z" fill="#D97D11"/>
<path fill-rule="evenodd" clip-rule="evenodd" d="M56.1713 25.4126C56.2414 26.2214 55.6422 26.9337 54.8336 27.0034C37.7974 28.4755 24.0612 38.9317 16.5757 45.0025C15.9454 45.5138 15.0198 45.4173 14.5085 44.7868C13.9972 44.1565 14.0937 43.2308 14.7241 42.7194C22.224 36.6369 36.5737 25.631 54.5806 24.0749C55.3892 24.005 56.1015 24.604 56.1713 25.4126Z" fill="#ECAF11"/>
<path fill-rule="evenodd" clip-rule="evenodd" d="M58.3363 24.3016C58.7521 24.9987 58.524 25.901 57.8269 26.3167C43.0235 35.1455 31.1057 48.7247 25.7458 57.3771C25.3182 58.0672 24.4124 58.2802 23.7224 57.8527C23.0323 57.4253 22.8194 56.5192 23.2468 55.8292C28.8205 46.8316 41.0608 32.8935 56.3212 23.7921C57.0183 23.3764 57.9206 23.6044 58.3363 24.3016Z" fill="#ECAF11"/>
<path fill-rule="evenodd" clip-rule="evenodd" d="M37.2944 25.9557C41.2685 29.5765 44.2667 34.2043 45.9947 39.3625C51.31 34.2605 56.7413 30.0969 61.7863 27.9807C61.9143 27.9271 62.0279 27.8495 62.1208 27.7465C63.937 25.7337 63.8565 23.7946 56.121 22.9584C56.0742 22.9534 56.0278 22.9515 55.9807 22.9533C51.6103 23.1221 44.9118 23.6886 37.2944 25.9557Z" fill="#DA8D19"/>
<path d="M45.0897 17.4201L53.8358 14.6758C54.3648 14.5097 54.7987 14.1276 55.0301 13.6238L57.9563 7.25194L59.8647 3.09639C60.4864 1.74285 62.3311 1.5501 63.219 2.74603L70.1249 12.0471C70.4553 12.4921 70.9589 12.7764 71.5107 12.8295L80.6352 13.707C82.1852 13.856 82.9506 15.666 81.978 16.8818L75.3642 25.1499C74.9588 25.6566 74.8306 26.3311 75.0217 26.9511L77.6041 35.331C78.0851 36.8918 76.5578 38.3216 75.0321 37.7387L65.6969 34.1728C65.1138 33.95 64.4594 34.0184 63.935 34.3568L55.5383 39.775C54.1659 40.6605 52.376 39.5773 52.5241 37.9508L53.3191 29.2182C53.3779 28.5719 53.1131 27.9385 52.6117 27.5265L44.432 20.8038C43.2291 19.8152 43.604 17.8862 45.0897 17.4201Z" fill="#FFE24B"/>
<path fill-rule="evenodd" clip-rule="evenodd" d="M44.4937 15.5558L53.2399 12.8116L58.0745 2.28405C59.3178 -0.423054 63.0072 -0.808419 64.7831 1.58333L71.6889 10.8844L80.8135 11.7619C83.9131 12.0601 85.4443 15.6797 83.499 18.1116L76.8851 26.3797L79.4675 34.7595C80.4296 37.881 77.3749 40.7407 74.3235 39.5751L64.9882 36.0091L56.5915 41.4272C53.8467 43.1984 50.2671 41.0317 50.5632 37.7787L51.3582 29.0462L43.1784 22.3233C40.7726 20.346 41.5224 16.4881 44.4937 15.5558ZM53.8265 14.6813L45.0804 17.4255C43.5948 17.8918 43.2198 19.8207 44.4227 20.8093L52.6025 27.5321C53.1038 27.9442 53.3687 28.5776 53.3098 29.2238L52.5149 37.9564C52.3667 39.5829 54.1565 40.6663 55.529 39.7806L63.9258 34.3624C64.4502 34.024 65.1044 33.9557 65.6876 34.1783L75.0228 37.7444C76.5485 38.3272 78.0758 36.8974 77.5948 35.3366L75.0123 26.9568C74.8212 26.3367 74.9495 25.6622 75.3549 25.1555L81.9686 16.8874C82.9414 15.6716 82.1758 13.8617 80.6259 13.7126L71.5014 12.835C70.9496 12.782 70.4459 12.4977 70.1155 12.0526L63.2096 2.75157C62.3218 1.55576 60.4771 1.74839 59.8555 3.10193L55.0208 13.6294C54.7895 14.1331 54.3555 14.5154 53.8265 14.6813Z" fill="#D97D11"/>
<path d="M54.3358 19.0237L59.2121 17.4938C59.4765 17.4108 59.6935 17.2196 59.8091 16.9677L61.3993 13.5053L62.4803 11.151C62.7912 10.4743 63.7135 10.378 64.1575 10.976L67.9732 16.115C68.1385 16.3376 68.3902 16.4796 68.6662 16.5062L73.7532 16.9955C74.5282 17.07 74.9108 17.9749 74.4245 18.5829L70.75 23.1764C70.5474 23.4298 70.4832 23.7671 70.5787 24.0771L72.0272 28.777C72.2676 29.5574 71.5041 30.2722 70.7411 29.9809L65.5324 27.9912C65.2409 27.8797 64.9138 27.9141 64.6516 28.0831L59.9665 31.1065C59.2802 31.5492 58.3853 31.0075 58.4593 30.1942L58.9052 25.2965C58.9346 24.9733 58.8022 24.6567 58.5516 24.4507L54.007 20.7156C53.4055 20.2213 53.5931 19.2568 54.3358 19.0237Z" fill="#FFED8D"/>
<path fill-rule="evenodd" clip-rule="evenodd" d="M58.2168 15.7452L53.756 17.1449C51.5275 17.8439 50.9652 20.7375 52.7696 22.2205L56.9133 25.6262L56.5146 30.0075C56.2925 32.4473 58.9772 34.0723 61.0357 32.744L65.3038 29.9899L70.0487 31.8024C72.3373 32.6768 74.6283 30.5321 73.9068 28.1909L72.6112 23.9864L75.9616 19.7978C77.4207 17.9741 76.2724 15.2592 73.9477 15.0356L69.2939 14.5882L65.7377 9.7985C64.4059 8.00478 61.6387 8.29379 60.7064 10.3242L58.2168 15.7452ZM59.2188 17.4847L54.3427 19.0146C53.5999 19.2477 53.4124 20.2121 54.0139 20.7065L58.5583 24.4416C58.809 24.6475 58.9415 24.9642 58.912 25.2875L58.4662 30.1852C58.392 30.9984 59.2871 31.5401 59.9732 31.0973L64.6583 28.0741C64.9205 27.905 65.2477 27.8707 65.5392 27.9821L70.748 29.9718C71.511 30.2632 72.2746 29.5484 72.0341 28.768L70.5856 24.068C70.49 23.758 70.5541 23.4207 70.7568 23.1673L74.4313 18.5737C74.9178 17.9659 74.5349 17.0609 73.76 16.9863L68.6729 16.4972C68.397 16.4705 68.1453 16.3284 67.98 16.1058L64.1642 10.9668C63.7203 10.3688 62.798 10.4651 62.4872 11.142L59.8158 16.9587C59.7002 17.2106 59.4833 17.4017 59.2188 17.4847Z" fill="#F9BF2A"/>
<path fill-rule="evenodd" clip-rule="evenodd" d="M25.7219 33.028C25.9739 33.5068 25.7899 34.0994 25.3109 34.3513C18.0883 38.1514 10.8074 45.4836 8.07428 48.6807C7.72258 49.0921 7.10411 49.1404 6.69281 48.7888C6.28141 48.4371 6.23304 47.8186 6.58472 47.4073C9.38224 44.135 16.8541 36.5863 24.3985 32.617C24.8774 32.365 25.4699 32.5491 25.7219 33.028Z" fill="#FFE194"/>
<path fill-rule="evenodd" clip-rule="evenodd" d="M35.0158 47.8084C35.3988 48.1906 35.3992 48.8109 35.0169 49.1939C29.4769 54.7421 23.6884 64.223 21.6466 67.9349C21.3858 68.4089 20.79 68.5819 20.3158 68.321C19.8418 68.0602 19.6688 67.4644 19.9296 66.9903C21.9898 63.2446 27.8863 53.5614 33.6302 47.8091C34.0125 47.4263 34.6329 47.4258 35.0158 47.8084Z" fill="#FFE194"/>
</g>
<defs>
<clipPath id="clip0_248_88">
<rect width="84" height="74" fill="white" transform="translate(0.5)"/>
</clipPath>
</defs>
</svg>
