<svg width="28" height="28" viewBox="0 0 28 28" fill="none" xmlns="http://www.w3.org/2000/svg">
<g clip-path="url(#clip0_2427_734)">
<path d="M13.8734 0C6.21095 0 0 6.21095 0 13.8734C0 21.535 6.21095 27.7468 13.8734 27.7468C21.5359 27.7468 27.7468 21.535 27.7468 13.8734C27.7468 6.21095 21.5359 0 13.8734 0Z" fill="#333333"/>
<path d="M5.65063 18.9146L10.15 13.2577L5.65063 10.5073V18.9146Z" fill="white"/>
<path d="M16.9073 13.6519L13.8629 15.5265L10.8134 13.6623L6.16406 19.5082H21.5609L16.9073 13.6519Z" fill="white"/>
<path d="M13.862 14.6221L22.0941 9.55219V8.23682H5.65063V9.60335L13.862 14.6221Z" fill="white"/>
<path d="M17.5684 13.2448L22.0937 18.939V10.458L17.5684 13.2448Z" fill="white"/>
</g>
<defs>
<clipPath id="clip0_2427_734">
<rect width="27.7468" height="27.7468" fill="white"/>
</clipPath>
</defs>
</svg>
