<svg width="28" height="28" viewBox="0 0 28 28" fill="none" xmlns="http://www.w3.org/2000/svg">
<g clip-path="url(#clip0_2427_729)">
<path d="M13.8746 0C6.21217 0 0.0012207 6.21095 0.0012207 13.8734C0.0012207 21.535 6.21217 27.7468 13.8746 27.7468C21.5371 27.7468 27.748 21.535 27.748 13.8734C27.748 6.21095 21.5371 0 13.8746 0Z" fill="#333333"/>
<path d="M11.8713 21.5937H15.0613V13.8731H17.1891L17.471 11.2129H15.0613L15.0648 9.88104C15.0648 9.18737 15.1307 8.81539 16.1261 8.81539H17.4562V6.1543H15.3275C12.7705 6.1543 11.8713 7.44539 11.8713 9.61571V11.2129H10.2776V13.874H11.8713V21.5937Z" fill="white"/>
</g>
<defs>
<clipPath id="clip0_2427_729">
<rect width="27.7468" height="27.7468" fill="white"/>
</clipPath>
</defs>
</svg>
