<svg width="28" height="28" viewBox="0 0 28 28" fill="none" xmlns="http://www.w3.org/2000/svg">
<g clip-path="url(#clip0_2427_752)">
<path d="M13.8734 27.7468C21.5355 27.7468 27.7468 21.5355 27.7468 13.8734C27.7468 6.21134 21.5355 0 13.8734 0C6.21134 0 0 6.21134 0 13.8734C0 21.5355 6.21134 27.7468 13.8734 27.7468Z" fill="url(#paint0_linear_2427_752)"/>
<path d="M10.0902 6.55957L14.2858 10.7504L12.0105 11.2119L10.6142 9.81559L10.5631 9.76205H10.4404H10.1103H9.90973H9.22682H9.20988H9.20522L8.26519 8.82205L8.1665 8.72333" fill="url(#paint1_linear_2427_752)"/>
<path d="M15.4884 27.6562L15.458 27.6258L7.68726 19.8545L7.77697 9.85463H10.3782L10.5642 9.7627L12.092 11.2931V9.84558H14.8401L14.8904 9.7627L15.4883 10.3621C15.4883 10.3621 17.3555 9.57914 18.9 10.2701L19.5232 10.5563L19.6019 10.5281L27.1082 18.0343C27.1082 18.0343 26.3945 20.1489 25.6158 21.2636C25.6158 21.2636 24.5386 22.9208 23.6247 23.7472C23.6247 23.7472 22.3938 24.916 21.5554 25.4303C21.5554 25.4303 20.0021 26.3653 19.3104 26.638C19.3104 26.638 17.6556 27.3316 15.7646 27.6208C15.7646 27.6208 15.5453 27.6494 15.5168 27.6528" fill="url(#paint2_linear_2427_752)"/>
<path d="M7.6895 19.8538H10.5699L10.5664 9.76196H7.68604L7.6895 19.8538Z" fill="white"/>
<path d="M20.5029 12.4618C20.4324 12.0602 20.318 11.6648 20.1428 11.2958C20.0416 11.0827 19.9141 10.8813 19.7629 10.6998C19.5865 10.4881 19.3519 10.2932 19.1136 10.1545C18.9094 10.0356 18.6766 9.92774 18.4488 9.86312C18.3137 9.82862 18.175 9.80491 18.0342 9.78906C17.6116 9.74151 17.1711 9.76454 16.7477 9.79716C16.6261 9.81134 16.5054 9.82849 16.3857 9.84903C16.2661 9.86957 16.1476 9.89352 16.0306 9.92043C15.8241 9.98408 15.6445 10.0844 15.491 10.2161C15.3375 10.3478 15.2101 10.5108 15.1078 10.6995C15.049 10.8078 14.9982 10.9221 14.9651 11.041C14.9634 11.0472 14.9335 11.1878 14.9396 11.1878H14.8948L14.8913 9.76197H12.012L12.0155 19.856H14.8758C14.8758 19.856 14.8758 14.4429 14.8758 13.7026C14.8758 13.3585 15.0968 13.0719 15.3803 12.8999C15.6552 12.7332 15.9951 12.7183 16.3077 12.698C16.4503 12.6888 16.5989 12.6934 16.741 12.7081C16.9877 12.7336 17.2363 12.8115 17.4207 12.984C17.7286 13.272 17.7764 13.7113 17.7764 14.1091C17.7764 14.4305 17.7764 14.752 17.7764 15.0735C17.7764 15.5591 17.7764 16.0446 17.7764 16.5302C17.7764 17.0498 17.7764 17.5693 17.7764 18.0888C17.7764 18.5105 17.7764 18.9322 17.7764 19.3539C17.7764 19.5213 17.7764 19.6887 17.7764 19.8561H20.6096C20.6096 19.6889 20.6096 19.5216 20.6096 19.3544C20.6096 18.9256 20.6096 18.4968 20.6096 18.0679C20.6096 17.54 20.6096 17.0119 20.6096 16.4839C20.6096 15.6188 20.6096 14.7538 20.6096 13.8888C20.6096 13.4131 20.5853 12.9313 20.5029 12.4618Z" fill="white"/>
<path d="M9.12933 9.08531C9.92846 9.08531 10.5763 8.43749 10.5763 7.63836C10.5763 6.83923 9.92846 6.19141 9.12933 6.19141C8.3302 6.19141 7.68237 6.83923 7.68237 7.63836C7.68237 8.43749 8.3302 9.08531 9.12933 9.08531Z" fill="white"/>
</g>
<defs>
<linearGradient id="paint0_linear_2427_752" x1="18.6195" y1="26.9138" x2="9.12731" y2="0.833051" gradientUnits="userSpaceOnUse">
<stop/>
<stop offset="0.1921" stop-color="#090909"/>
<stop offset="0.5054" stop-color="#212121"/>
<stop offset="0.8987" stop-color="#494948"/>
<stop offset="1" stop-color="#545453"/>
</linearGradient>
<linearGradient id="paint1_linear_2427_752" x1="9.06953" y1="7.58027" x2="13.2627" y2="11.7735" gradientUnits="userSpaceOnUse">
<stop/>
<stop offset="0.4833" stop-color="#090909" stop-opacity="0.5167"/>
<stop offset="1" stop-color="#181818" stop-opacity="0"/>
</linearGradient>
<linearGradient id="paint2_linear_2427_752" x1="8.04231" y1="9.5893" x2="22.9169" y2="24.4639" gradientUnits="userSpaceOnUse">
<stop/>
<stop offset="0.4833" stop-color="#090909" stop-opacity="0.5167"/>
<stop offset="1" stop-color="#181818" stop-opacity="0"/>
</linearGradient>
<clipPath id="clip0_2427_752">
<rect width="27.7468" height="27.7468" fill="white"/>
</clipPath>
</defs>
</svg>
