<svg width="43" height="26" viewBox="0 0 43 26" fill="none" xmlns="http://www.w3.org/2000/svg">
<g clip-path="url(#clip0_2427_702)">
<path d="M41.7263 12.933C41.7263 19.7842 36.1925 25.3838 29.2755 25.3838C22.4243 25.3838 16.8247 19.7842 16.8247 12.933C16.8247 6.08173 22.3584 0.482178 29.2096 0.482178C36.1925 0.482178 41.7263 6.08173 41.7263 12.933Z" fill="#FFB600"/>
<path d="M29.2755 0.482178C36.1266 0.482178 41.7263 6.08173 41.7263 12.933C41.7263 19.7842 36.1925 25.3838 29.2755 25.3838C22.4243 25.3838 16.8247 19.7842 16.8247 12.933" fill="#F7981D"/>
<path d="M29.2751 0.48291C36.1263 0.48291 41.726 6.08247 41.726 12.9337C41.726 19.785 36.1922 25.3845 29.2751 25.3845" fill="#FF8500"/>
<path d="M12.5424 0.482178C5.75708 0.548055 0.223389 6.08173 0.223389 12.933C0.223389 19.7842 5.75708 25.3838 12.6742 25.3838C15.9022 25.3838 18.8008 24.1321 21.0406 22.1558C21.5017 21.7605 21.897 21.2994 22.2923 20.8382H19.7231C19.3937 20.443 19.0643 19.9818 18.8008 19.5866H23.2146C23.4781 19.1913 23.7416 18.7302 23.9392 18.269H18.0761C17.8785 17.8738 17.6809 17.4126 17.5491 16.9515H24.4003C24.7956 15.6998 25.0591 14.3823 25.0591 12.9989C25.0591 12.0766 24.9274 11.2202 24.7956 10.3638H17.1538C17.2197 9.90264 17.3515 9.50736 17.4832 9.04621H24.3345C24.2027 8.58508 24.0051 8.12393 23.8074 7.72869H18.0103C18.2079 7.26753 18.4714 6.87229 18.7349 6.41113H23.1487C22.8852 5.94998 22.5558 5.48886 22.1605 5.09358H19.7231C20.1183 4.63243 20.5136 4.23718 20.9747 3.8419C18.8008 1.79972 15.8363 0.613932 12.6083 0.613932C12.6083 0.482178 12.6083 0.482178 12.5424 0.482178Z" fill="#FF5050"/>
<path d="M0.223389 12.9331C0.223389 19.7843 5.75708 25.3839 12.6742 25.3839C15.9022 25.3839 18.8008 24.1322 21.0406 22.1559C21.5017 21.7606 21.897 21.2995 22.2923 20.8383H19.7231C19.3937 20.4431 19.0643 19.9819 18.8008 19.5867H23.2146C23.4781 19.1914 23.7416 18.7303 23.9392 18.2691H18.0761C17.8785 17.8738 17.6809 17.4127 17.5491 16.9516H24.4003C24.7956 15.6999 25.0591 14.3824 25.0591 12.9989C25.0591 12.0767 24.9274 11.2202 24.7956 10.3638H17.1538C17.2197 9.90272 17.3515 9.50744 17.4832 9.04632H24.3345C24.2027 8.58516 24.0051 8.12401 23.8074 7.72877H18.0103C18.2079 7.26761 18.4714 6.87237 18.7349 6.41121H23.1487C22.8852 5.95006 22.5558 5.48894 22.1605 5.09366H19.7231C20.1183 4.63254 20.5136 4.23726 20.9747 3.84198C18.8008 1.7998 15.8363 0.614014 12.6083 0.614014H12.5424" fill="#E52836"/>
<path d="M12.6733 25.3839C15.9013 25.3839 18.7999 24.1322 21.0397 22.1559C21.5008 21.7606 21.8961 21.2995 22.2914 20.8383H19.7221C19.3928 20.4431 19.0634 19.9819 18.7999 19.5867H23.2136C23.4771 19.1914 23.7407 18.7303 23.9383 18.2691H18.0752C17.8776 17.8738 17.6799 17.4127 17.5482 16.9516H24.3994C24.7947 15.6999 25.0582 14.3824 25.0582 12.9989C25.0582 12.0767 24.9264 11.2202 24.7947 10.3638H17.1529C17.2188 9.90272 17.3506 9.50744 17.4823 9.04632H24.3335C24.2018 8.58516 24.0042 8.12401 23.8065 7.72877H18.0093C18.207 7.26761 18.4705 6.87237 18.734 6.41121H23.1478C22.8842 5.95006 22.5549 5.48894 22.1596 5.09366H19.7221C20.1174 4.63254 20.5127 4.23726 20.9738 3.84198C18.7999 1.7998 15.8354 0.614014 12.6074 0.614014H12.5415" fill="#CB2026"/>
<path d="M17.0879 16.0953L17.2856 14.9754C17.2197 14.9754 17.0879 15.0412 16.9562 15.0412C16.495 15.0412 16.4292 14.7777 16.495 14.646L16.8903 12.3403H17.615L17.8126 11.0886H17.1538L17.2856 10.2981H15.968C15.968 10.2981 15.1775 14.646 15.1775 15.173C15.1775 15.9636 15.6386 16.2929 16.2315 16.2929C16.6268 16.2929 16.9562 16.1612 17.0879 16.0953Z" fill="white"/>
<path d="M17.5513 13.9872C17.5513 15.8318 18.8029 16.2929 19.857 16.2929C20.8451 16.2929 21.2404 16.0953 21.2404 16.0953L21.5039 14.8436C21.5039 14.8436 20.7792 15.173 20.1205 15.173C18.6712 15.173 18.9347 14.119 18.9347 14.119H21.6356C21.6356 14.119 21.8333 13.2626 21.8333 12.9332C21.8333 12.0768 21.3721 11.0227 19.9228 11.0227C18.5394 10.891 17.5513 12.3403 17.5513 13.9872ZM19.857 12.0768C20.5816 12.0768 20.4499 12.9332 20.4499 12.999H19.0006C19.0006 12.9332 19.1323 12.0768 19.857 12.0768Z" fill="white"/>
<path d="M28.2202 16.0947L28.4837 14.6454C28.4837 14.6454 27.8249 14.9748 27.3638 14.9748C26.4415 14.9748 26.0462 14.2501 26.0462 13.4596C26.0462 11.8785 26.8367 11.0221 27.759 11.0221C28.4178 11.0221 28.9448 11.4174 28.9448 11.4174L29.1424 10.034C29.1424 10.034 28.3519 9.70459 27.6273 9.70459C26.1121 9.70459 24.5969 11.0221 24.5969 13.5255C24.5969 15.1724 25.3874 16.2923 26.9685 16.2923C27.4955 16.2923 28.2202 16.0947 28.2202 16.0947Z" fill="white"/>
<path d="M9.84048 10.8911C8.91821 10.8911 8.25943 11.1546 8.25943 11.1546L8.06181 12.2745C8.06181 12.2745 8.65471 12.011 9.51111 12.011C9.97226 12.011 10.3675 12.0769 10.3675 12.4722C10.3675 12.7357 10.3016 12.8015 10.3016 12.8015C10.3016 12.8015 9.90636 12.8015 9.70873 12.8015C8.58884 12.8015 7.33716 13.2627 7.33716 14.7779C7.33716 15.9636 8.12768 16.2272 8.58884 16.2272C9.51111 16.2272 9.90636 15.6343 9.97226 15.6343L9.90636 16.1613H11.0922L11.6192 12.538C11.6192 10.957 10.3016 10.8911 9.84048 10.8911ZM10.104 13.8556C10.104 14.0532 9.97226 15.1072 9.18174 15.1072C8.78646 15.1072 8.65471 14.7779 8.65471 14.5802C8.65471 14.2508 8.85233 13.7897 9.84048 13.7897C10.0381 13.8556 10.104 13.8556 10.104 13.8556Z" fill="white"/>
<path d="M12.8714 16.2274C13.2008 16.2274 14.8477 16.2932 14.8477 14.5146C14.8477 12.8676 13.2667 13.197 13.2667 12.5382C13.2667 12.2089 13.5302 12.0771 13.9913 12.0771C14.1889 12.0771 14.9136 12.143 14.9136 12.143L15.1112 10.9572C15.1112 10.9572 14.6501 10.8254 13.8595 10.8254C12.8714 10.8254 11.8832 11.2207 11.8832 12.5382C11.8832 14.0534 13.5302 13.9217 13.5302 14.5146C13.5302 14.9098 13.069 14.9757 12.7396 14.9757C12.1467 14.9757 11.5538 14.7781 11.5538 14.7781L11.3562 15.9639C11.4221 16.0956 11.7515 16.2274 12.8714 16.2274Z" fill="white"/>
<path d="M39.1565 9.83691L38.893 11.6156C38.893 11.6156 38.366 10.9568 37.6414 10.9568C36.4557 10.9568 35.4014 12.4061 35.4014 14.1189C35.4014 15.173 35.9287 16.2929 37.0485 16.2929C37.839 16.2929 38.3002 15.7659 38.3002 15.7659L38.2343 16.227H39.5518L40.5399 9.90279L39.1565 9.83691ZM38.5637 13.3284C38.5637 14.0531 38.2343 14.9753 37.5097 14.9753C37.0485 14.9753 36.785 14.5801 36.785 13.9213C36.785 12.8673 37.2462 12.2085 37.839 12.2085C38.3002 12.2085 38.5637 12.5379 38.5637 13.3284Z" fill="white"/>
<path d="M2.66158 16.1611L3.4521 11.418L3.58385 16.1611H4.50616L6.21895 11.418L5.4943 16.1611H6.87773L7.93175 9.83691H5.7578L4.44028 13.7237L4.37438 9.83691H2.46395L1.40991 16.1611H2.66158Z" fill="white"/>
<path d="M23.0814 16.1606C23.4767 13.9867 23.5425 12.208 24.4648 12.5374C24.5966 11.681 24.7942 11.3516 24.926 11.0222C24.926 11.0222 24.8601 11.0222 24.6624 11.0222C24.0695 11.0222 23.6084 11.8127 23.6084 11.8127L23.7402 11.0881H22.4885L21.6321 16.2265H23.0814V16.1606Z" fill="white"/>
<path d="M31.2524 10.8911C30.3301 10.8911 29.6713 11.1546 29.6713 11.1546L29.4737 12.2745C29.4737 12.2745 30.0666 12.011 30.923 12.011C31.3842 12.011 31.7794 12.0769 31.7794 12.4722C31.7794 12.7357 31.7136 12.8015 31.7136 12.8015C31.7136 12.8015 31.3183 12.8015 31.1206 12.8015C30.0007 12.8015 28.749 13.2627 28.749 14.7779C28.749 15.9636 29.5395 16.2272 30.0007 16.2272C30.923 16.2272 31.3183 15.6343 31.3842 15.6343L31.3183 16.1613H32.5041L33.0311 12.538C33.0969 10.957 31.7136 10.8911 31.2524 10.8911ZM31.5818 13.8556C31.5818 14.0532 31.4501 15.1072 30.6595 15.1072C30.2642 15.1072 30.1325 14.7779 30.1325 14.5802C30.1325 14.2508 30.3301 13.7897 31.3183 13.7897C31.5159 13.8556 31.5159 13.8556 31.5818 13.8556Z" fill="white"/>
<path d="M34.1487 16.1619C34.5439 13.9879 34.6098 12.2092 35.5324 12.5386C35.6641 11.6822 35.8618 11.3528 35.9935 11.0234C35.9935 11.0234 35.9276 11.0234 35.73 11.0234C35.1371 11.0234 34.6757 11.814 34.6757 11.814L34.8074 11.0893H33.5558L32.6995 16.2277H34.1487V16.1619Z" fill="white"/>
<path d="M15.0452 15.173C15.0452 15.9635 15.5063 16.2929 16.0992 16.2929C16.5603 16.2929 16.9556 16.1612 17.0874 16.0953L17.285 14.9754C17.2191 14.9754 17.0874 15.0412 16.9556 15.0412C16.4945 15.0412 16.4286 14.7777 16.4945 14.646L16.8897 12.3403H17.6144L17.812 11.0886H17.1532L17.285 10.2981" fill="#DCE5E5"/>
<path d="M18.2104 13.9872C18.2104 15.8318 18.8033 16.2929 19.8574 16.2929C20.8455 16.2929 21.2408 16.0953 21.2408 16.0953L21.5043 14.8436C21.5043 14.8436 20.7796 15.173 20.1209 15.173C18.6716 15.173 18.9351 14.119 18.9351 14.119H21.636C21.636 14.119 21.8337 13.2626 21.8337 12.9332C21.8337 12.0768 21.3725 11.0227 19.9232 11.0227C18.5398 10.891 18.2104 12.3403 18.2104 13.9872ZM19.8574 12.0768C20.582 12.0768 20.7138 12.9332 20.7138 12.999H19.001C19.001 12.9332 19.1327 12.0768 19.8574 12.0768Z" fill="#DCE5E5"/>
<path d="M28.2223 16.0947L28.4858 14.6454C28.4858 14.6454 27.827 14.9748 27.3659 14.9748C26.4436 14.9748 26.0483 14.2501 26.0483 13.4596C26.0483 11.8785 26.8389 11.0221 27.7612 11.0221C28.4199 11.0221 28.9469 11.4174 28.9469 11.4174L29.1446 10.034C29.1446 10.034 28.354 9.70459 27.6294 9.70459C26.1142 9.70459 25.2578 11.0221 25.2578 13.5255C25.2578 15.1724 25.3896 16.2923 26.9706 16.2923C27.4976 16.2923 28.2223 16.0947 28.2223 16.0947Z" fill="#DCE5E5"/>
<path d="M8.06181 12.3403C8.06181 12.3403 8.65471 12.0767 9.51111 12.0767C9.97226 12.0767 10.3675 12.1426 10.3675 12.5379C10.3675 12.8014 10.3016 12.8673 10.3016 12.8673C10.3016 12.8673 9.90636 12.8673 9.70873 12.8673C8.58884 12.8673 7.33716 13.3284 7.33716 14.8436C7.33716 16.0294 8.12768 16.2929 8.58884 16.2929C9.51111 16.2929 9.90636 15.7 9.97226 15.7L9.90636 16.227H11.0922L11.6192 12.6038C11.6192 11.0886 10.3016 11.0227 9.77461 11.0227M10.7628 13.8554C10.7628 14.0531 9.97226 15.1071 9.18174 15.1071C8.78646 15.1071 8.65471 14.7777 8.65471 14.5801C8.65471 14.2507 8.85233 13.7895 9.84048 13.7895C10.0381 13.8554 10.7628 13.8554 10.7628 13.8554Z" fill="#DCE5E5"/>
<path d="M11.4224 16.0951C11.4224 16.0951 11.8176 16.2269 12.9375 16.2269C13.2669 16.2269 14.9139 16.2927 14.9139 14.5141C14.9139 12.8672 13.3328 13.1965 13.3328 12.5378C13.3328 12.2084 13.5963 12.0766 14.0575 12.0766C14.2551 12.0766 14.9797 12.1425 14.9797 12.1425L15.1774 10.9567C15.1774 10.9567 14.7162 10.825 13.9257 10.825C12.9375 10.825 12.6082 11.2202 12.6082 12.5378C12.6082 14.0529 13.5963 13.9212 13.5963 14.5141C13.5963 14.9093 13.1352 14.9752 12.8058 14.9752" fill="#DCE5E5"/>
<path d="M38.8935 11.6151C38.8935 11.6151 38.3665 10.9564 37.6419 10.9564C36.4562 10.9564 36.0609 12.4057 36.0609 14.1185C36.0609 15.1725 35.9292 16.2924 37.049 16.2924C37.8395 16.2924 38.3007 15.7654 38.3007 15.7654L38.2348 16.2265H39.5523L40.5404 9.90234M38.8277 13.3279C38.8277 14.0526 38.2348 14.9749 37.5102 14.9749C37.049 14.9749 36.7856 14.5796 36.7856 13.9208C36.7856 12.8668 37.2467 12.208 37.8395 12.208C38.3007 12.208 38.8277 12.5374 38.8277 13.3279Z" fill="#DCE5E5"/>
<path d="M2.66158 16.1611L3.4521 11.418L3.58385 16.1611H4.50616L6.21895 11.418L5.4943 16.1611H6.87773L7.93175 9.83691H6.28483L4.44028 13.7237L4.37438 9.83691H3.64972L1.40991 16.1611H2.66158Z" fill="#DCE5E5"/>
<path d="M21.6995 16.1611H23.0829C23.4781 13.9872 23.544 12.2085 24.4663 12.5379C24.5981 11.6815 24.7957 11.3521 24.9274 11.0227C24.9274 11.0227 24.8616 11.0227 24.6639 11.0227C24.071 11.0227 23.6099 11.8133 23.6099 11.8133L23.7417 11.0886" fill="#DCE5E5"/>
<path d="M29.4737 12.3403C29.4737 12.3403 30.0666 12.0767 30.923 12.0767C31.3842 12.0767 31.7794 12.1426 31.7794 12.5379C31.7794 12.8014 31.7136 12.8673 31.7136 12.8673C31.7136 12.8673 31.3183 12.8673 31.1206 12.8673C30.0007 12.8673 28.749 13.3284 28.749 14.8436C28.749 16.0294 29.5395 16.2929 30.0007 16.2929C30.923 16.2929 31.3183 15.7 31.3842 15.7L31.3183 16.227H32.5041L33.0311 12.6038C33.0311 11.0886 31.7136 11.0227 31.1865 11.0227M32.1747 13.8554C32.1747 14.0531 31.3842 15.1071 30.5936 15.1071C30.1983 15.1071 30.0666 14.7777 30.0666 14.5801C30.0666 14.2507 30.2642 13.7895 31.2524 13.7895C31.5159 13.8554 32.1747 13.8554 32.1747 13.8554Z" fill="#DCE5E5"/>
<path d="M32.7661 16.1611H34.1495C34.5447 13.9872 34.6106 12.2085 35.5328 12.5379C35.6646 11.6815 35.8622 11.3521 35.9943 11.0227C35.9943 11.0227 35.9284 11.0227 35.7305 11.0227C35.1376 11.0227 34.6765 11.8132 34.6765 11.8132L34.8082 11.0886" fill="#DCE5E5"/>
</g>
<defs>
<clipPath id="clip0_2427_702">
<rect width="42.0342" height="25.095" fill="white" transform="translate(0 0.313477)"/>
</clipPath>
</defs>
</svg>
