<svg width="57" height="25" viewBox="0 0 57 25" fill="none" xmlns="http://www.w3.org/2000/svg">
<g clip-path="url(#clip0_2427_688)">
<path d="M55.8895 0.374023H0.153809V24.5262H55.8895V0.374023Z" fill="black"/>
<path d="M18.1376 15.8689C18.1376 16.064 17.9983 16.2962 17.8311 16.3891L11.9231 19.8076C11.7559 19.9005 11.4772 19.9005 11.31 19.8076L5.40203 16.3891C5.2348 16.2962 5.09546 16.0547 5.09546 15.8689V9.03201C5.09546 8.83693 5.2348 8.6047 5.40203 8.51182L11.31 5.09334C11.4772 5.00046 11.7559 5.00046 11.9231 5.09334L17.8311 8.51182C17.9983 8.6047 18.1376 8.84624 18.1376 9.03201V15.8689ZM50.9381 9.52434H45.6524V10.7877H47.5474V16.194H49.0431V10.7877H50.9381V9.52434ZM26.9067 9.52434H21.6118V10.7877H23.5068V16.194H25.0024V10.7877H26.8974L26.9067 9.52434ZM42.2154 9.31997C40.5525 9.31997 39.6237 10.3882 39.6237 11.921V16.2034H41.1099V11.8931C41.1099 11.2243 41.5002 10.7041 42.2339 10.7041C42.9679 10.7041 43.3487 11.3172 43.3487 11.8931V16.2034H44.8256V11.921C44.8444 10.379 43.8876 9.31997 42.2154 9.31997ZM36.6327 9.52434V16.194H38.1095V9.52434H36.6327ZM31.6071 12.1718L31.6535 12.4691L33.0469 16.2034H33.6507L35.5457 9.53363H34.0874L33.1862 13.0357L33.1307 13.4165L33.0563 13.0357L31.8486 9.53363H31.3656L30.1579 13.0357L30.0836 13.4165L30.0372 13.0357L29.1361 9.53363H27.6684L29.5634 16.2034H30.1672L31.5606 12.4691L31.6071 12.1718Z" fill="white"/>
<path d="M14.7005 12.4692L13.1585 14.7358L12.3689 13.5282L13.2793 12.1627C13.4465 11.9212 13.8088 11.2523 13.3908 10.342C13.0564 9.59884 12.3225 9.24585 11.6722 9.24585C11.022 9.24585 10.3253 9.58027 9.95373 10.342C9.52642 11.2245 9.89799 11.9026 10.0559 12.1348C10.0559 12.1348 10.5668 12.8779 10.9849 13.5003L11.6722 14.4943L12.7034 16.0735C12.7126 16.0828 12.8706 16.3336 13.1585 16.3336C13.4279 16.3336 13.6044 16.0828 13.623 16.0642L16.0382 12.4878H14.7005V12.4692ZM11.663 12.525C11.663 12.525 11.2635 11.9119 10.9941 11.4846C10.7155 11.0294 11.022 10.342 11.663 10.342C12.2946 10.342 12.6105 11.0294 12.3318 11.4846C12.0717 11.9119 11.663 12.525 11.663 12.525Z" fill="url(#paint0_radial_2427_688)"/>
<path d="M10.1859 14.6615L8.67178 12.5343C8.67178 12.5343 8.27233 11.9212 8.00293 11.4939C7.72425 11.0387 8.03079 10.3513 8.67178 10.3513C8.75538 10.3513 8.8204 10.3606 8.89472 10.3791L9.42419 9.40376C9.18268 9.30159 8.91329 9.24585 8.67178 9.24585C8.03079 9.24585 7.3248 9.58027 6.95324 10.342C6.52593 11.2245 6.8975 11.9026 7.05544 12.1348L9.70287 16.0642C9.73073 16.0921 9.89792 16.3428 10.1766 16.3428C10.4553 16.3428 10.6225 16.1013 10.6411 16.0735L11.4399 14.8566L10.7525 13.8533L10.1859 14.6615Z" fill="url(#paint1_radial_2427_688)"/>
</g>
<defs>
<radialGradient id="paint0_radial_2427_688" cx="0" cy="0" r="1" gradientUnits="userSpaceOnUse" gradientTransform="translate(11.1633 9.86796) scale(7.11861 8.03549)">
<stop stop-color="#FFCC00"/>
<stop offset="0.09157" stop-color="#FFC800"/>
<stop offset="0.1739" stop-color="#FFBD00"/>
<stop offset="0.2528" stop-color="#FFAB00"/>
<stop offset="0.3295" stop-color="#FF9100"/>
<stop offset="0.4046" stop-color="#FF7000"/>
<stop offset="0.4786" stop-color="#FF4700"/>
<stop offset="0.5503" stop-color="#FF1800"/>
<stop offset="0.5822" stop-color="#FF0000"/>
<stop offset="1" stop-color="#FF0000"/>
</radialGradient>
<radialGradient id="paint1_radial_2427_688" cx="0" cy="0" r="1" gradientUnits="userSpaceOnUse" gradientTransform="translate(6.8725 10.2784) scale(6.52693 9.88249)">
<stop stop-color="#00B4E6"/>
<stop offset="0.201" stop-color="#00B0E3"/>
<stop offset="0.3898" stop-color="#01A5DB"/>
<stop offset="0.5737" stop-color="#0292CD"/>
<stop offset="0.7546" stop-color="#0377BA"/>
<stop offset="0.9316" stop-color="#0455A1"/>
<stop offset="1" stop-color="#054696"/>
</radialGradient>
<clipPath id="clip0_2427_688">
<rect width="56.1501" height="24.4677" fill="white" transform="translate(0 0.313477)"/>
</clipPath>
</defs>
</svg>
