<svg width="41" height="26" viewBox="0 0 41 26" fill="none" xmlns="http://www.w3.org/2000/svg">
<g clip-path="url(#clip0_2427_693)">
<path d="M40.1872 2.30957H0.211426V22.2975H40.1872V2.30957Z" fill="#F6F6F6"/>
<path fill-rule="evenodd" clip-rule="evenodd" d="M37.1893 0.0605471C35.1905 0.0605474 14.0283 0.0605465 2.21022 0.0605471C1.21083 0.0605471 0.211426 1.05995 0.211426 2.05934V5.05754H40.1872C40.1872 5.05754 40.1872 9.69774 40.1872 3.05874C40.1872 1.05995 39.1878 0.0605471 37.1893 0.0605471Z" fill="#265697"/>
<path fill-rule="evenodd" clip-rule="evenodd" d="M0.211426 20.0491C0.211426 20.0491 0.211426 20.0491 0.211426 22.0479C0.211426 24.0466 1.21083 25.0461 3.20963 25.0461C14.3587 25.0461 35.1905 25.0461 37.1893 25.0461C39.1878 25.0461 40.1872 24.0466 40.1872 22.0479V20.0491H0.211426Z" fill="#D97B16"/>
<path fill-rule="evenodd" clip-rule="evenodd" d="M28.0984 7.50119C27.5381 7.28641 26.6603 7.05591 25.5639 7.05591C22.7696 7.05591 20.8013 8.49382 20.7845 10.5545C20.7688 12.0778 22.1897 12.9276 23.2624 13.4348C24.3632 13.9543 24.7332 14.2858 24.7279 14.7498C24.7209 15.4604 23.8489 15.7851 23.0361 15.7851C21.9042 15.7851 21.3029 15.6244 20.3741 15.2285L20.0097 15.0601L19.6128 17.4333C20.2733 17.7292 21.4947 17.9856 22.7629 17.9989C25.7355 17.9989 27.6653 16.5775 27.6873 14.3769C27.6979 13.1709 26.9444 12.2532 25.313 11.4965C24.3245 11.0061 23.7192 10.6789 23.7256 10.1823C23.7256 9.74161 24.238 9.27042 25.3451 9.27042C26.2698 9.25574 26.9397 9.4618 27.4617 9.67658L27.715 9.79892L28.0984 7.50119Z" fill="#265697"/>
<path fill-rule="evenodd" clip-rule="evenodd" d="M35.3516 7.25049H33.1664C32.4895 7.25049 31.9829 7.43927 31.6855 8.12963L27.4856 17.8451H30.4552C30.4552 17.8451 30.9407 16.5388 31.0505 16.252C31.375 16.252 34.26 16.2566 34.6722 16.2566C34.7568 16.6277 35.0163 17.8451 35.0163 17.8451H37.6403L35.3516 7.25049ZM31.8643 14.0836C32.0983 13.4728 32.9911 11.12 32.9911 11.12C32.9745 11.1482 33.2232 10.5063 33.366 10.1082L33.557 11.0222C33.557 11.0222 34.0987 13.5528 34.2117 14.0835L31.8643 14.0836Z" fill="#265697"/>
<path fill-rule="evenodd" clip-rule="evenodd" d="M15.0151 17.8424L16.7832 7.24097H19.6112L17.8419 17.8424H15.0151Z" fill="#265697"/>
<path fill-rule="evenodd" clip-rule="evenodd" d="M12.644 7.24805L9.87533 14.4774L9.58034 13.0083C9.06492 11.3147 7.45909 9.47978 5.66382 8.56114L8.19537 17.8326L11.1874 17.8291L15.6395 7.24805H12.644Z" fill="#265697"/>
<path fill-rule="evenodd" clip-rule="evenodd" d="M7.30657 7.2417H2.74654L2.71045 7.46228C6.2581 8.3398 8.60558 10.4605 9.57999 13.0085L8.58845 8.13671C8.41727 7.46542 7.92077 7.2651 7.30657 7.2417Z" fill="#D97B16"/>
</g>
<defs>
<clipPath id="clip0_2427_693">
<rect width="40.4657" height="25.095" fill="white"/>
</clipPath>
</defs>
</svg>
