<svg width="28" height="28" viewBox="0 0 28 28" fill="none" xmlns="http://www.w3.org/2000/svg">
<g clip-path="url(#clip0_2427_743)">
<path d="M13.8778 0C6.21578 0 0.00439453 6.21139 0.00439453 13.8734C0.00439453 21.5354 6.21578 27.7468 13.8778 27.7468C21.5398 27.7468 27.7512 21.5354 27.7512 13.8734C27.7512 6.21139 21.5398 0 13.8778 0Z" fill="#333333"/>
<path d="M13.2204 13.7252C12.8042 13.3398 12.3416 12.7996 12.1409 12.321C12.1101 12.2594 12.0485 12.1046 12.1409 11.9815C12.3256 11.7344 12.3564 11.7192 12.5571 11.4881C12.6963 11.3182 12.8033 11.1643 12.7578 11.0255L12.0637 9.22025C12.0022 9.09713 11.8175 9.08109 11.6011 9.06634C11.4164 9.06634 11.2157 9.06635 11.077 9.09713C10.7683 9.20551 10.1366 10.0384 10.059 10.6401C9.88906 11.9507 11.077 13.6944 12.2636 14.7748C13.4511 15.87 15.2862 16.904 16.5812 16.6109C17.183 16.4717 17.9534 15.7776 18.015 15.4542C18.0458 15.315 18.031 15.1156 17.9989 14.93C17.9842 14.7146 17.9374 14.5598 17.8134 14.4982L16.2413 13.7725C16.1022 13.6949 15.9634 13.7564 15.8251 13.9272C15.6552 14.1588 15.578 14.2511 15.3782 14.4982C15.2698 14.6374 15.1935 14.7297 15.0703 14.7445C14.9312 14.7753 14.7465 14.6976 14.7157 14.6976C14.2223 14.5273 13.6527 14.1102 13.2204 13.7252ZM8.03999 19.2637L8.93483 16.9959C7.94765 15.8539 7.34719 14.3577 7.34719 12.722C7.34719 9.1123 10.2766 6.19628 13.885 6.19628C17.4926 6.19628 20.4073 9.11273 20.4073 12.722C20.4073 16.3325 17.493 19.2629 13.885 19.2629C12.4353 19.2629 11.1095 18.8003 10.0304 17.9978L8.03999 19.2637ZM6.94486 17.0414L5.71143 21.9786L10.1214 19.973C11.2473 20.5587 12.5263 20.8986 13.8837 20.8986C18.3861 20.8986 22.0404 17.2426 22.0404 12.7224C22.0404 8.21833 18.3861 4.56226 13.8837 4.56226C9.36577 4.56226 5.71143 8.21833 5.71143 12.7224C5.71143 14.3109 6.17402 15.7923 6.94486 17.0414Z" fill="white"/>
</g>
<defs>
<clipPath id="clip0_2427_743">
<rect width="27.7468" height="27.7468" fill="white"/>
</clipPath>
</defs>
</svg>
