<svg width="24" height="24" viewBox="0 0 24 24" fill="none" xmlns="http://www.w3.org/2000/svg">
<path d="M10.2265 17.1877C10.0839 17.1877 9.94528 17.1369 9.83597 17.0433L6.28941 14.0033C6.03788 13.7876 6.00872 13.4089 6.22434 13.1573C6.43997 12.9058 6.81881 12.8767 7.07043 13.0923L10.1391 15.7227L16.8462 7.0995C17.0496 6.83804 17.4263 6.79059 17.6882 6.99432C17.9496 7.19775 17.9967 7.57472 17.7933 7.83629L10.6999 16.9562C10.5991 17.0858 10.4498 17.1684 10.2864 17.1848C10.2667 17.1867 10.2466 17.1877 10.2265 17.1877ZM24 12C24 5.38313 18.617 0 12 0C5.38313 0 0 5.38313 0 12C0 18.617 5.38313 24 12 24C18.617 24 24 18.617 24 12ZM22.8 12C22.8 17.9552 17.9552 22.8 12 22.8C6.04482 22.8 1.2 17.9552 1.2 12C1.2 6.04482 6.04482 1.2 12 1.2C17.9552 1.2 22.8 6.04482 22.8 12Z" fill="#D1252B"/>
</svg>
