<svg width="30" height="30" viewBox="0 0 30 30" fill="none" xmlns="http://www.w3.org/2000/svg">
<g clip-path="url(#clip0_2233_1555)">
<path d="M24.5999 7.80057V11.3466L17.3278 16.0926L14.3999 18.0006L11.4719 16.0926L3.59987 10.9566V1.8006C3.59652 1.6421 3.62526 1.48455 3.68438 1.33745C3.7435 1.19034 3.83177 1.05671 3.94388 0.944609C4.05598 0.832499 4.18961 0.744233 4.33671 0.685115C4.48382 0.625997 4.64136 0.59725 4.79987 0.600605H23.3999C23.5584 0.59725 23.7159 0.625997 23.863 0.685115C24.0102 0.744233 24.1438 0.832499 24.2559 0.944609C24.368 1.05671 24.4563 1.19034 24.5154 1.33745C24.5745 1.48455 24.6032 1.6421 24.5999 1.8006V7.80057Z" fill="#F1F2F2"/>
<path d="M3.59985 7.80078V10.9568L0.599854 9.00078C0.599854 9.00078 1.19985 7.80078 3.59985 7.80078Z" fill="#FED049"/>
<path d="M27.9601 9.15678L24.6001 11.3468V7.80078H25.8001C26.2512 7.80096 26.6931 7.92828 27.0751 8.1681C27.4572 8.40792 27.7639 8.75058 27.9601 9.15678Z" fill="#FED049"/>
<path d="M24.5999 11.3467L27.9599 9.15674C28.1188 9.48176 28.2009 9.839 28.1999 10.2007V25.8007C28.1996 26.1405 28.1259 26.4762 27.9839 26.7847L24.5999 23.4007L17.3999 16.2007L17.3279 16.0927L24.5999 11.3467Z" fill="#F6B445"/>
<path d="M24.6002 23.4008L27.9842 26.7848C27.7956 27.2065 27.4891 27.5645 27.1016 27.8158C26.714 28.067 26.262 28.2007 25.8002 28.2008H3.00016C2.53829 28.2007 2.08632 28.067 1.69878 27.8158C1.31125 27.5645 1.00471 27.2065 0.816162 26.7848L4.20016 23.4008L11.4002 16.2008L11.4722 16.0928L14.4002 18.0008L17.3282 16.0928L17.4002 16.2008L24.6002 23.4008Z" fill="#FED049"/>
<path d="M3.59985 10.9567L11.4719 16.0927L11.3999 16.2007L4.19985 23.4007L0.815854 26.7847C0.673828 26.4761 0.600148 26.1405 0.599854 25.8007V9.00073L3.59985 10.9567Z" fill="#F6B445"/>
<path d="M10.2001 7.20062C11.1943 7.20062 12.0001 6.3947 12.0001 5.40059C12.0001 4.40648 11.1943 3.60059 10.2001 3.60059C9.20601 3.60059 8.40015 4.40648 8.40015 5.40059C8.40015 6.3947 9.20601 7.20062 10.2001 7.20062Z" fill="#A4B0C0"/>
<path d="M25.8 7.20072H25.2V1.80075C25.207 1.56248 25.1652 1.3253 25.0772 1.10376C24.9892 0.882222 24.8569 0.681 24.6883 0.512446C24.5197 0.343891 24.3185 0.211558 24.097 0.123565C23.8754 0.0355733 23.6383 -0.00622074 23.4 0.000747838H4.8C4.56173 -0.00622074 4.32455 0.0355733 4.10301 0.123565C3.88147 0.211558 3.68026 0.343891 3.5117 0.512446C3.34315 0.681 3.21081 0.882222 3.12282 1.10376C3.03482 1.3253 2.99303 1.56248 3 1.80075V7.80072C3 7.9599 3.06322 8.11248 3.17573 8.22504C3.28826 8.33754 3.44087 8.40072 3.6 8.40072C3.75913 8.40072 3.91174 8.33754 4.02427 8.22504C4.13678 8.11248 4.2 7.9599 4.2 7.80072V1.80075C4.19207 1.71999 4.20215 1.63848 4.2295 1.56208C4.25685 1.48568 4.30079 1.4163 4.35817 1.35892C4.41555 1.30154 4.48493 1.25759 4.56133 1.23025C4.63773 1.2029 4.71924 1.19282 4.8 1.20075H23.4C23.4808 1.19282 23.5622 1.2029 23.6387 1.23025C23.7151 1.25759 23.7844 1.30154 23.8418 1.35892C23.8992 1.4163 23.9432 1.48568 23.9705 1.56208C23.9978 1.63848 24.0079 1.71999 24 1.80075V7.80072C24 7.9599 24.0632 8.11248 24.1757 8.22504C24.2882 8.33754 24.4409 8.40072 24.6 8.40072H25.8C26.0495 8.40048 26.2964 8.45232 26.5247 8.55294C26.753 8.65362 26.9578 8.8008 27.126 8.98512L14.4 17.2843L0.9276 8.49852C0.837096 8.43954 0.732342 8.40612 0.624402 8.40174C0.516464 8.3973 0.40934 8.42214 0.31434 8.47356C0.21934 8.52504 0.139988 8.60112 0.0846612 8.69394C0.0293345 8.7867 8.48004e-05 8.89272 0 9.00072V25.8007C0.000952716 26.5961 0.317329 27.3586 0.879732 27.921C1.44214 28.4834 2.20464 28.7998 3 28.8007H25.8C26.5954 28.7998 27.3578 28.4834 27.9203 27.921C28.4827 27.3586 28.799 26.5961 28.8 25.8007V10.2007C28.799 9.40542 28.4827 8.64288 27.9203 8.0805C27.3578 7.51806 26.5954 7.20168 25.8 7.20072ZM27.6 25.8007C27.6 26.2781 27.4103 26.736 27.0728 27.0736C26.7352 27.4111 26.2774 27.6007 25.8 27.6007H3C2.52261 27.6007 2.06477 27.4111 1.72721 27.0736C1.38964 26.736 1.2 26.2781 1.2 25.8007V10.1083L10.5474 16.2043L3.7758 22.9765C3.71849 23.0319 3.67279 23.0981 3.64134 23.1713C3.60989 23.2445 3.59334 23.3233 3.59265 23.4029C3.59196 23.4826 3.60714 23.5616 3.63731 23.6353C3.66748 23.7091 3.71203 23.776 3.76836 23.8324C3.8247 23.8887 3.89169 23.9333 3.96543 23.9635C4.03916 23.9936 4.11817 24.0088 4.19784 24.0081C4.27751 24.0074 4.35624 23.9909 4.42944 23.9594C4.50265 23.9279 4.56885 23.8823 4.6242 23.8249L11.5746 16.8745L14.0724 18.5029C14.1698 18.5665 14.2837 18.6003 14.4 18.6003C14.5163 18.6003 14.6302 18.5665 14.7276 18.5029L17.2254 16.8745L24.1758 23.8249C24.289 23.9342 24.4405 23.9947 24.5978 23.9933C24.7552 23.992 24.9056 23.9289 25.0169 23.8177C25.1281 23.7064 25.1912 23.5559 25.1926 23.3986C25.194 23.2413 25.1335 23.0897 25.0242 22.9765L18.2526 16.2043L27.6 10.1101C27.6 10.1401 27.6 10.1701 27.6 10.2007V25.8007Z" fill="#474C54"/>
<path d="M12.6001 5.40073C12.6001 4.92606 12.4593 4.46204 12.1956 4.06736C11.9319 3.67269 11.557 3.36508 11.1185 3.18342C10.6799 3.00177 10.1974 2.95425 9.73181 3.04685C9.26627 3.13945 8.83865 3.36803 8.50301 3.70368C8.16737 4.03933 7.93877 4.46696 7.84619 4.93252C7.75355 5.39807 7.80107 5.88063 7.98275 6.31918C8.16437 6.75772 8.47199 7.13254 8.86667 7.39624C9.26135 7.66 9.72539 7.80076 10.2001 7.80076C10.8366 7.80076 11.447 7.54786 11.8971 7.0978C12.3472 6.64768 12.6001 6.03724 12.6001 5.40073ZM9.00005 5.40073C9.00005 5.1634 9.07043 4.93139 9.20231 4.73405C9.33413 4.53671 9.52157 4.3829 9.74081 4.29208C9.96011 4.20125 10.2014 4.17749 10.4342 4.22379C10.6669 4.27009 10.8808 4.38438 11.0486 4.55221C11.2164 4.72003 11.3307 4.93385 11.377 5.16662C11.4233 5.3994 11.3995 5.64068 11.3087 5.85995C11.2179 6.07924 11.0641 6.26662 10.8667 6.3985C10.6694 6.53038 10.4374 6.60076 10.2001 6.60076C9.88181 6.60076 9.57659 6.47428 9.35153 6.24928C9.12647 6.02422 9.00005 5.719 9.00005 5.40073Z" fill="#474C54"/>
<path d="M14.9999 4.20073H20.3999C20.559 4.20073 20.7117 4.13752 20.8242 4.025C20.9367 3.91247 20.9999 3.75986 20.9999 3.60073C20.9999 3.4416 20.9367 3.28899 20.8242 3.17647C20.7117 3.06395 20.559 3.00073 20.3999 3.00073H14.9999C14.8408 3.00073 14.6881 3.06395 14.5756 3.17647C14.4631 3.28899 14.3999 3.4416 14.3999 3.60073C14.3999 3.75986 14.4631 3.91247 14.5756 4.025C14.6881 4.13752 14.8408 4.20073 14.9999 4.20073Z" fill="#474C54"/>
<path d="M14.9999 7.80083H20.3999C20.559 7.80083 20.7117 7.73759 20.8242 7.62509C20.9367 7.51253 20.9999 7.35995 20.9999 7.20083C20.9999 7.04165 20.9367 6.88907 20.8242 6.77651C20.7117 6.66401 20.559 6.60083 20.3999 6.60083H14.9999C14.8408 6.60083 14.6881 6.66401 14.5756 6.77651C14.4631 6.88907 14.3999 7.04165 14.3999 7.20083C14.3999 7.35995 14.4631 7.51253 14.5756 7.62509C14.6881 7.73759 14.8408 7.80083 14.9999 7.80083Z" fill="#474C54"/>
<path d="M14.9999 11.4009H17.9999C18.159 11.4009 18.3117 11.3377 18.4242 11.2252C18.5367 11.1126 18.5999 10.96 18.5999 10.8009C18.5999 10.6417 18.5367 10.4892 18.4242 10.3766C18.3117 10.2641 18.159 10.2009 17.9999 10.2009H14.9999C14.8408 10.2009 14.6881 10.2641 14.5756 10.3766C14.4631 10.4892 14.3999 10.6417 14.3999 10.8009C14.3999 10.96 14.4631 11.1126 14.5756 11.2252C14.6881 11.3377 14.8408 11.4009 14.9999 11.4009Z" fill="#474C54"/>
<path d="M24.3001 29.4C27.4481 29.4 30.0001 26.848 30.0001 23.7C30.0001 20.552 27.4481 18 24.3001 18C21.1521 18 18.6001 20.552 18.6001 23.7C18.6001 26.848 21.1521 29.4 24.3001 29.4Z" fill="white"/>
<path d="M28.8 23.7C28.8 21.2144 26.7856 19.2 24.3 19.2C21.8145 19.2 19.8 21.2144 19.8 23.7C19.8 26.1855 21.8145 28.2 24.3 28.2C26.7856 28.2 28.8 26.1855 28.8 23.7ZM27.7401 21.9474L23.5038 26.1837L23.2014 26.4861L20.86 24.1447L21.8936 23.1111L23.2032 24.4207L26.7083 20.9156L27.7401 21.9474Z" fill="#41AD49"/>
</g>
<defs>
<clipPath id="clip0_2233_1555">
<rect width="30" height="29.4" fill="white"/>
</clipPath>
</defs>
</svg>
