<svg width="24" height="27" viewBox="0 0 24 27" fill="none" xmlns="http://www.w3.org/2000/svg">
<g clip-path="url(#clip0_2221_500)">
<path d="M21.1003 19.1332C21.0677 19.0143 21.0019 18.917 20.9036 18.8422C20.8052 18.7674 20.6947 18.7295 20.5717 18.7295H18.21C18.128 18.7295 18.0492 18.7469 17.9754 18.7828C17.9016 18.8176 17.8381 18.8668 17.7858 18.9293C17.7336 18.9928 17.6977 19.0645 17.6782 19.1434C17.6588 19.2234 17.6567 19.3033 17.6731 19.3832L17.8073 20.0522C17.8196 20.1138 17.8422 20.1722 17.875 20.2255C17.9078 20.2798 17.9477 20.3268 17.9969 20.3667C18.0461 20.4067 18.1004 20.4376 18.1598 20.459C18.2192 20.4804 18.2807 20.4907 18.3442 20.4907H20.7531C20.795 20.4907 20.8361 20.4856 20.877 20.4765C20.9179 20.4673 20.9579 20.4529 20.9949 20.4344C21.0328 20.4159 21.0677 20.3935 21.1003 20.3667C21.1332 20.3402 21.1619 20.3105 21.1875 20.2766C21.213 20.2428 21.2347 20.208 21.252 20.169C21.2695 20.1311 21.2817 20.0911 21.2899 20.0502C21.2982 20.0093 21.3012 19.9672 21.3002 19.9251C21.2982 19.8832 21.2919 19.8423 21.2817 19.8022L21.1003 19.1332ZM18.4334 19.835L18.3432 19.3852H20.4877L20.6097 19.835H18.4334Z" fill="black"/>
<path d="M20.3227 18.5513C20.3648 18.5513 20.4057 18.5462 20.4467 18.537C20.4878 18.5267 20.5277 18.5134 20.5657 18.4949C20.6025 18.4755 20.6383 18.4529 20.6701 18.4263C20.7028 18.3997 20.7315 18.3699 20.7571 18.3372C20.7829 18.3034 20.8043 18.2675 20.8218 18.2296C20.8391 18.1917 20.8515 18.1517 20.8596 18.1107C20.8678 18.0687 20.871 18.0277 20.8698 17.9857C20.8688 17.9437 20.8627 17.9027 20.8515 17.8618L20.6701 17.1937C20.6373 17.0749 20.5718 16.9775 20.4744 16.9027C20.376 16.8279 20.2653 16.79 20.1414 16.79H17.8914C17.8094 16.79 17.7316 16.8074 17.6568 16.8423C17.583 16.8771 17.5195 16.9263 17.4682 16.9898C17.416 17.0534 17.3801 17.1251 17.3597 17.204C17.3402 17.2839 17.3381 17.3628 17.3545 17.4437L17.4887 18.1118C17.501 18.1742 17.5236 18.2316 17.5564 18.2859C17.5892 18.3402 17.6301 18.3874 17.6783 18.4273C17.7275 18.4673 17.7818 18.498 17.8412 18.5185C17.9006 18.54 17.9621 18.5513 18.0256 18.5513H20.3227ZM20.0574 17.4458L20.1803 17.8956H18.1158L18.0246 17.4458H20.0574Z" fill="black"/>
<path d="M19.8924 16.6658C19.9343 16.6658 19.9764 16.6607 20.0173 16.6515C20.0584 16.6412 20.0974 16.6279 20.1352 16.6084C20.1731 16.59 20.208 16.5675 20.2408 16.5408C20.2725 16.5142 20.3022 16.4845 20.3278 16.4517C20.3535 16.4179 20.374 16.382 20.3913 16.3441C20.4088 16.3052 20.4222 16.2662 20.4303 16.2252C20.4375 16.1832 20.4417 16.1423 20.4395 16.1003C20.4385 16.0582 20.4324 16.0173 20.421 15.9763L20.2396 15.3082C20.207 15.1894 20.1424 15.0921 20.0441 15.0173C19.9457 14.9424 19.835 14.9045 19.711 14.9045H17.5727C17.4907 14.9045 17.4129 14.922 17.3381 14.9568C17.2643 14.9916 17.2018 15.0408 17.1496 15.1044C17.0973 15.1679 17.0614 15.2386 17.042 15.3185C17.0215 15.3974 17.0194 15.4773 17.0358 15.5582L17.1701 16.2263C17.1823 16.2888 17.2049 16.3462 17.2377 16.4004C17.2705 16.4547 17.3115 16.5009 17.3606 16.5408C17.4088 16.5818 17.4631 16.6115 17.5225 16.633C17.5819 16.6546 17.6434 16.6648 17.7069 16.6658H19.8924ZM19.627 15.5603L19.749 16.0101H17.7971L17.7069 15.5603H19.627Z" fill="black"/>
<path d="M19.4644 14.7252C19.5064 14.7252 19.5484 14.721 19.5884 14.7108C19.6293 14.7016 19.6693 14.6883 19.7062 14.6698C19.7442 14.6514 19.779 14.6288 19.8116 14.6022C19.8435 14.5756 19.8732 14.5458 19.8988 14.513C19.9244 14.4793 19.946 14.4444 19.9633 14.4055C19.9808 14.3676 19.993 14.3286 20.0013 14.2876C20.0095 14.2467 20.0135 14.2046 20.0125 14.1637C20.0105 14.1217 20.0054 14.0807 19.994 14.0397L19.8179 13.3717C19.7861 13.2518 19.7215 13.1534 19.6222 13.0776C19.5238 13.0018 19.4132 12.9639 19.2881 12.9639H17.2584C17.1765 12.9639 17.0986 12.9813 17.0248 13.0161C16.95 13.051 16.8875 13.1002 16.8353 13.1637C16.783 13.2262 16.7472 13.2979 16.7277 13.3768C16.7072 13.4557 16.7052 13.5356 16.7205 13.6155L16.8527 14.2846C16.865 14.3461 16.8875 14.4045 16.9193 14.4588C16.9521 14.513 16.9931 14.5602 17.0423 14.6012C17.0914 14.6411 17.1457 14.6719 17.2052 14.6934C17.2646 14.7149 17.3261 14.7252 17.3896 14.7252H19.4644ZM19.2041 13.6196L19.323 14.0694H17.4797L17.3916 13.6196H19.2041Z" fill="black"/>
<mask id="mask0_2221_500" style="mask-type:luminance" maskUnits="userSpaceOnUse" x="0" y="0" width="24" height="27">
<path d="M0 0H23.9508V26.6998H0V0Z" fill="white"/>
</mask>
<g mask="url(#mask0_2221_500)">
<path d="M20.4415 10.9569C20.4089 10.8329 20.3668 10.713 20.3146 10.5962C20.2613 10.4794 20.1998 10.3677 20.1291 10.2612C20.0585 10.1546 19.9796 10.0542 19.8915 9.96098C19.8044 9.86775 19.7101 9.78169 19.6076 9.70381C19.5062 9.62594 19.3986 9.55627 19.2859 9.49581C19.1732 9.43638 19.0554 9.38516 18.9345 9.34418C18.8125 9.3032 18.6885 9.27246 18.5625 9.25196C18.4355 9.23148 18.3084 9.22123 18.1804 9.22225H14.1722L14.0154 5.6495H14.5164C14.6076 5.6495 14.6978 5.64131 14.7869 5.62389C14.8761 5.60648 14.9621 5.57984 15.0461 5.54602C15.1302 5.51118 15.2101 5.46918 15.2859 5.41898C15.3617 5.36878 15.4324 5.31242 15.497 5.24787C15.5615 5.18435 15.6189 5.11467 15.6691 5.03988C15.7203 4.96509 15.7633 4.88516 15.7982 4.80218C15.833 4.71816 15.8597 4.6321 15.8781 4.54294C15.8965 4.45483 15.9058 4.36467 15.9058 4.27451V4.17307H16.5256C16.5892 4.17307 16.6517 4.16077 16.7111 4.1372C16.7695 4.11261 16.8228 4.07779 16.8679 4.0327C16.9129 3.98762 16.9488 3.93537 16.9734 3.87594C16.998 3.81651 17.0103 3.75503 17.0103 3.69151V1.97533C17.0103 1.91078 16.998 1.8493 16.9734 1.7909C16.9488 1.73147 16.9129 1.67922 16.8679 1.63414C16.8228 1.58906 16.7695 1.55422 16.7111 1.52963C16.6517 1.50504 16.5892 1.49274 16.5256 1.49274H15.9058V1.39234C15.9058 1.30217 15.8965 1.21201 15.8781 1.12287C15.8597 1.03475 15.833 0.948687 15.7982 0.86467C15.7633 0.781679 15.7203 0.701761 15.6691 0.626965C15.6189 0.551145 15.5605 0.482499 15.497 0.417949C15.4324 0.354424 15.3617 0.297048 15.2859 0.247867C15.2101 0.197662 15.1302 0.155654 15.0461 0.120818C14.9621 0.0859818 14.8761 0.0603667 14.7869 0.0429488C14.6978 0.0255305 14.6076 0.017334 14.5164 0.017334H9.03179C8.94162 0.017334 8.85146 0.0255305 8.76233 0.0429488C8.67319 0.0603667 8.58608 0.0859818 8.50208 0.120818C8.41806 0.155654 8.33814 0.197662 8.26232 0.247867C8.1865 0.298071 8.11682 0.354424 8.05228 0.417949C7.98774 0.482499 7.93035 0.551145 7.87913 0.626965C7.82892 0.701761 7.78588 0.781679 7.75004 0.86467C7.7152 0.948687 7.68856 1.03475 7.67011 1.12389C7.6527 1.21201 7.64347 1.30217 7.64245 1.39234V4.27451C7.64347 4.36467 7.6527 4.45483 7.67011 4.54294C7.68856 4.6321 7.7152 4.71816 7.75004 4.80218C7.78588 4.88516 7.82892 4.96509 7.87913 5.03988C7.93035 5.11467 7.98774 5.18435 8.05228 5.24787C8.11682 5.31242 8.1865 5.36878 8.26232 5.41898C8.33814 5.46918 8.41806 5.51118 8.50208 5.54602C8.58608 5.57984 8.67319 5.60648 8.76233 5.62389C8.85146 5.64131 8.94162 5.6495 9.03179 5.6495H9.92522L9.80945 9.22225H5.77053C5.64244 9.22123 5.5154 9.23148 5.38834 9.25196C5.26232 9.27246 5.13835 9.3032 5.01642 9.34418C4.89551 9.38516 4.7777 9.43536 4.66499 9.49581C4.55227 9.55627 4.44471 9.62594 4.34326 9.70381C4.2408 9.78169 4.14654 9.86671 4.05945 9.96098C3.97134 10.0542 3.89245 10.1546 3.82175 10.2612C3.75105 10.3677 3.68957 10.4794 3.6363 10.5962C3.58405 10.713 3.54203 10.8329 3.50926 10.9569L0.179331 23.794C0.0891667 24.1372 0.0799456 24.4835 0.151667 24.8309C0.223387 25.1793 0.36888 25.4928 0.588142 25.7724C0.809454 26.0594 1.08302 26.2817 1.40781 26.4404C1.73363 26.5994 2.07789 26.6771 2.44061 26.6761H21.5103C21.8731 26.6771 22.2173 26.5994 22.5431 26.4404C22.8679 26.2817 23.1413 26.0584 23.3626 25.7724C23.582 25.4928 23.7276 25.1793 23.7992 24.8309C23.871 24.4835 23.8617 24.1372 23.7716 23.794L20.4415 10.9569ZM15.9058 2.14849H16.3535V3.51836H15.9058V2.14849ZM10.1035 0.673073H13.4447V2.34212H10.1035V0.673073ZM9.03179 4.99377C8.93548 4.99377 8.84326 4.97636 8.7531 4.9405C8.66397 4.90361 8.58506 4.85238 8.51642 4.78475C8.44777 4.71714 8.3945 4.63926 8.35761 4.55114C8.3197 4.46201 8.30023 4.36979 8.2992 4.27451V1.39234C8.30023 1.29602 8.3197 1.20381 8.35761 1.1157C8.3945 1.02758 8.44777 0.948687 8.51642 0.882089C8.58506 0.814466 8.66397 0.762211 8.7531 0.726351C8.84326 0.69049 8.93548 0.672048 9.03179 0.673073H9.44676V2.34212C9.44676 2.42923 9.46417 2.51323 9.49696 2.59316C9.53076 2.67307 9.57789 2.74479 9.63937 2.80627C9.70084 2.86774 9.77257 2.91488 9.8525 2.94767C9.93343 2.98147 10.0164 2.99787 10.1035 2.99787H13.4447C13.5318 2.99787 13.6158 2.98147 13.6957 2.94767C13.7767 2.91488 13.8474 2.86774 13.9088 2.80627C13.9703 2.74479 14.0185 2.67307 14.0513 2.59316C14.0851 2.51323 14.1015 2.42923 14.1015 2.34212V0.673073H14.5164C14.6127 0.672048 14.706 0.69049 14.7951 0.726351C14.8843 0.762211 14.9631 0.814466 15.0318 0.882089C15.1004 0.948687 15.1537 1.02758 15.1916 1.1157C15.2285 1.20381 15.248 1.29602 15.249 1.39234V4.27451C15.248 4.36979 15.2285 4.46201 15.1916 4.55114C15.1537 4.63926 15.1004 4.71714 15.0318 4.78475C14.9631 4.85238 14.8843 4.90361 14.7951 4.9405C14.706 4.97636 14.6127 4.99377 14.5164 4.99377H9.03179ZM13.6927 13.3022H12.5041C12.4345 13.3022 12.3658 13.3093 12.2982 13.3216C12.2306 13.335 12.164 13.3554 12.1004 13.3811C12.0359 13.4077 11.9754 13.4395 11.9181 13.4784C11.8597 13.5163 11.8064 13.5593 11.7572 13.6085C11.708 13.6567 11.665 13.71 11.6261 13.7673C11.5871 13.8247 11.5543 13.8852 11.5277 13.9487C11.5011 14.0122 11.4806 14.0778 11.4672 14.1454C11.4529 14.213 11.4457 14.2817 11.4457 14.3513V16.1854H10.2408L10.583 5.6495H13.3576L13.6927 13.3022ZM10.1281 16.8401H11.4457V19.1843C11.4457 19.253 11.4529 19.3216 11.4672 19.3893C11.4806 19.4569 11.5011 19.5225 11.5277 19.586C11.5543 19.6495 11.5871 19.71 11.6261 19.7673C11.665 19.8247 11.708 19.878 11.7572 19.9262C11.8064 19.9754 11.8597 20.0183 11.9181 20.0572C11.9754 20.0952 12.0359 20.1271 12.1004 20.1536C12.164 20.1792 12.2306 20.1997 12.2982 20.213C12.3658 20.2264 12.4345 20.2325 12.5041 20.2325H16.0882C16.1363 20.2325 16.1824 20.2408 16.2275 20.2571C16.2736 20.2734 16.3136 20.297 16.3504 20.3289C16.3873 20.3596 16.417 20.3964 16.4406 20.4385C16.4631 20.4804 16.4785 20.5256 16.4857 20.5726L16.9898 24.2202C17.0072 24.3371 16.9754 24.4394 16.8976 24.5275C16.8166 24.6198 16.7152 24.6658 16.5922 24.6658H12.4806C12.4283 24.6658 12.3771 24.6556 12.3279 24.6361C12.2797 24.6166 12.2367 24.5881 12.1988 24.5511C12.1609 24.5143 12.1322 24.4722 12.1117 24.424C12.0902 24.3749 12.08 24.3247 12.08 24.2724V23.1546C12.0789 23.085 12.0717 23.0173 12.0584 22.9496C12.0441 22.8821 12.0246 22.8155 11.997 22.7519C11.9703 22.6884 11.9375 22.628 11.8996 22.5705C11.8607 22.5133 11.8166 22.461 11.7674 22.4118C11.7183 22.3636 11.665 22.3195 11.6076 22.2818C11.5492 22.2438 11.4888 22.2109 11.4252 22.1854C11.3607 22.1588 11.2951 22.1393 11.2265 22.126C11.1588 22.1126 11.0902 22.1055 11.0205 22.1065H8.67319C8.41602 16.8565 9.21211 14.7407 9.65473 13.9876L9.58096 16.2766C9.57789 16.3503 9.59019 16.4221 9.61682 16.4907C9.64346 16.5593 9.68241 16.6208 9.73466 16.6741C9.78589 16.7274 9.84634 16.7684 9.91397 16.797C9.98261 16.8257 10.0533 16.8401 10.1281 16.8401ZM8.01539 22.1065H7.71211C7.58916 22.1065 7.48773 22.0604 7.4068 21.9682C7.32892 21.88 7.29717 21.7776 7.31458 21.6607L8.73569 11.3759C8.74285 11.3288 8.75821 11.2837 8.78178 11.2417C8.80535 11.1997 8.83507 11.1639 8.87094 11.1321C8.90782 11.1014 8.9488 11.0768 8.99389 11.0604C9.03896 11.044 9.08609 11.0358 9.13425 11.0358H9.75002L9.68343 13.1157C9.47646 13.1854 9.31151 13.3114 9.19061 13.4927C8.63117 14.3278 7.74695 16.5511 8.01539 22.1065ZM22.8433 25.3719C22.6845 25.5768 22.4878 25.7376 22.2531 25.8513C22.0185 25.9652 21.7716 26.0214 21.5103 26.0204H2.44061C2.17932 26.0214 1.9324 25.9652 1.69777 25.8513C1.46417 25.7366 1.26642 25.5768 1.10761 25.3709C0.950847 25.171 0.847364 24.9477 0.796134 24.6987C0.74388 24.4508 0.751053 24.2037 0.814576 23.9578L4.14551 11.1208C4.19265 10.9415 4.26744 10.7755 4.37094 10.6218C4.47339 10.4671 4.59838 10.3339 4.7449 10.2222C4.89244 10.1095 5.0533 10.0235 5.22955 9.96405C5.40475 9.90566 5.58506 9.87594 5.77053 9.87696H9.78793L9.77155 10.38H9.13425C9.00618 10.38 8.88323 10.4026 8.76437 10.4466C8.64449 10.4917 8.53692 10.5552 8.44061 10.6382C8.34429 10.7212 8.26539 10.8186 8.20391 10.9302C8.14348 11.0419 8.10351 11.1608 8.08507 11.2868L6.66396 21.5706C6.64348 21.7201 6.65473 21.8677 6.69778 22.0122C6.7408 22.1566 6.81252 22.2857 6.91191 22.3996C7.01233 22.5143 7.13322 22.6034 7.27257 22.6669C7.41191 22.7305 7.55945 22.7621 7.71211 22.7612H11.0205C11.0738 22.7612 11.124 22.7704 11.1732 22.7909C11.2224 22.8103 11.2654 22.8381 11.3033 22.8749C11.3402 22.9119 11.3699 22.9549 11.3904 23.0029C11.4109 23.0511 11.4211 23.1025 11.4222 23.1546V24.2724C11.4222 24.341 11.4293 24.4097 11.4437 24.4774C11.457 24.545 11.4775 24.6105 11.5041 24.6741C11.5308 24.7386 11.5636 24.7992 11.6025 24.8564C11.6414 24.9139 11.6845 24.966 11.7336 25.0152C11.7828 25.0634 11.8361 25.1075 11.8945 25.1454C11.9519 25.1834 12.0123 25.2161 12.0769 25.2418C12.1414 25.2684 12.207 25.2879 12.2746 25.3012C12.3433 25.3144 12.4119 25.3217 12.4806 25.3207H16.5922C16.7459 25.3217 16.8924 25.2898 17.0318 25.2263C17.1722 25.1627 17.292 25.0736 17.3925 24.9589C17.4929 24.8452 17.5636 24.7162 17.6076 24.5716C17.6506 24.4272 17.6619 24.2797 17.6414 24.13L17.1373 20.4835C17.1189 20.3574 17.0789 20.2386 17.0185 20.1271C16.957 20.0153 16.8781 19.918 16.7818 19.8349C16.6855 19.7519 16.5779 19.6884 16.458 19.6434C16.3392 19.5993 16.2152 19.5768 16.0882 19.5768H12.5041C12.4519 19.5778 12.4006 19.5676 12.3515 19.5481C12.3033 19.5286 12.2603 19.4999 12.2224 19.463C12.1845 19.4261 12.1558 19.3841 12.1353 19.336C12.1137 19.2868 12.1035 19.2366 12.1025 19.1843V14.3503C12.1035 14.2981 12.1137 14.2479 12.1342 14.1997C12.1558 14.1505 12.1845 14.1085 12.2224 14.0716C12.2603 14.0347 12.3033 14.0061 12.3515 13.9866C12.4006 13.9671 12.4519 13.9579 12.5041 13.9579H15.0215C15.1752 13.9579 15.3217 13.9262 15.4611 13.8637C15.6004 13.8001 15.7213 13.711 15.8217 13.5952C15.9211 13.4815 15.9929 13.3524 16.0359 13.2079C16.0799 13.0634 16.0912 12.9169 16.0707 12.7673L15.8658 11.2868C15.8474 11.1608 15.8074 11.0419 15.747 10.9302C15.6855 10.8196 15.6066 10.7223 15.5103 10.6382C15.414 10.5552 15.3064 10.4917 15.1875 10.4466C15.0677 10.4026 14.9447 10.38 14.8166 10.38H14.2224L14.2008 9.87696H18.1804C18.3658 9.87696 18.5461 9.90566 18.7213 9.96507C18.8976 10.0235 19.0584 10.1095 19.206 10.2222C19.3535 10.3339 19.4775 10.4681 19.581 10.6218C19.6834 10.7755 19.7583 10.9415 19.8053 11.1208L23.1362 23.9578C23.1998 24.2037 23.207 24.4508 23.1557 24.6987C23.1036 24.9477 23.0001 25.171 22.8433 25.3709V25.3719ZM14.251 11.0358H14.8166C14.8648 11.0358 14.9119 11.044 14.957 11.0604C15.0021 11.0768 15.0431 11.1003 15.0789 11.1321C15.1158 11.1628 15.1455 11.1997 15.1691 11.2417C15.1927 11.2837 15.208 11.3288 15.2152 11.3759L15.4191 12.8565C15.4365 12.9733 15.4047 13.0757 15.3269 13.1649C15.2459 13.2561 15.1445 13.3022 15.0215 13.3022H14.3504L14.251 11.0358Z" fill="black"/>
</g>
</g>
<defs>
<clipPath id="clip0_2221_500">
<rect width="24" height="26.7541" fill="white"/>
</clipPath>
</defs>
</svg>
