<svg width="38" height="29" viewBox="0 0 38 29" fill="none" xmlns="http://www.w3.org/2000/svg">
<path d="M18.902 18.644C18.14 18.644 17.5161 18.0233 17.5161 17.2629C17.5161 16.5644 16.9558 16.0008 16.2573 16.0008C15.5604 16.0008 14.9984 16.5644 14.9984 17.2629C14.9984 18.9694 16.1081 20.4108 17.6416 20.9379V21.6506C17.6416 22.346 18.2051 22.9127 18.902 22.9127C19.5973 22.9127 20.1609 22.346 20.1609 21.6506V20.9379C21.6944 20.4108 22.804 18.9694 22.804 17.2629C22.804 15.1071 21.053 13.3561 18.902 13.3561C18.14 13.3561 17.5161 12.7354 17.5161 11.9734C17.5161 11.2098 18.14 10.5891 18.902 10.5891C19.6624 10.5891 20.2863 11.2098 20.2863 11.9734C20.2863 12.6687 20.8498 13.2339 21.5467 13.2339C22.242 13.2339 22.804 12.6687 22.804 11.9734C22.804 10.2637 21.6944 8.82547 20.1609 8.29683V7.58087C20.1609 6.88556 19.5973 6.32042 18.902 6.32042C18.2051 6.32042 17.6416 6.88556 17.6416 7.58087V8.29683C16.1081 8.82547 14.9984 10.2637 14.9984 11.9734C14.9984 14.126 16.7478 15.8754 18.902 15.8754C19.6624 15.8754 20.2863 16.4961 20.2863 17.2629C20.2863 18.0233 19.6624 18.644 18.902 18.644ZM7.91036 25.9463H5.65458C3.92422 25.9082 2.52408 24.4922 2.52408 22.7508V20.5664C5.24182 21.0823 7.39126 23.2317 7.91036 25.9463ZM35.2784 20.5664V22.7508C35.2784 24.4922 33.8798 25.9082 32.1509 25.9463L29.8874 25.9447C30.4065 23.2302 32.5607 21.0791 35.2784 20.5664ZM29.8874 3.27725H32.0764C33.8386 3.27725 35.2737 4.71231 35.2767 6.47442L35.2752 8.65718C32.5589 8.13967 30.4065 5.99182 29.8874 3.27725ZM32.675 0.759521H5.60058C4.90527 0.759521 4.34013 1.32466 4.34013 2.01839C4.34013 2.71211 4.90527 3.27725 5.60058 3.27725H27.3442C27.9109 7.38085 31.17 10.6399 35.2784 11.2003V18.0249C31.1668 18.5868 27.9061 21.8475 27.3442 25.9543H10.4535C9.89152 21.8475 6.63403 18.59 2.52408 18.0249V6.35853C2.52408 5.66163 1.95894 5.09808 1.26363 5.09808C0.566727 5.09808 0.003175 5.66163 0.003175 6.35853V19.4329C0.003175 19.4536 0 19.4726 0 19.4964V23.3445C0 26.1686 2.29707 28.4672 5.12434 28.4672H5.65458C5.67838 28.4672 5.70218 28.4736 5.72601 28.4736H32.0764C32.1003 28.4736 32.1256 28.4672 32.1509 28.4672H32.675C35.5023 28.4672 37.7976 26.1686 37.7976 23.3445V5.87912C37.7976 3.05818 35.5023 0.759521 32.675 0.759521Z" fill="black"/>
</svg>
