<svg width="34" height="34" viewBox="0 0 34 34" fill="none" xmlns="http://www.w3.org/2000/svg">
<path d="M11.1774 10.9597C11.1774 10.9597 10.2265 15.7356 10.6674 17.0531C10.6674 17.0531 11.2518 9.82812 16.8671 4.25C16.8671 4.25 16.6865 8.91969 19.603 11.2891C22.5196 13.6584 23.1783 17.3453 23.1783 17.3453C23.1783 17.3453 23.5077 14.8272 22.5196 10.795C22.5196 10.795 28.7193 17.2338 25.8771 24.4216C25.8771 24.4216 22.4505 32.3372 12.6383 28.8734C2.82615 25.4097 9.42428 12.2028 11.1774 10.9597Z" fill="#F6AF62"/>
<path d="M21.6485 17.0639C21.7388 19.0879 20.825 19.6192 20.0866 19.7254C19.6138 19.7945 19.1356 19.6723 18.7213 19.4439C14.6572 17.2392 16.745 11.8523 16.745 11.8523C14.0835 14.397 15.47 19.6829 15.47 19.6829C15.47 19.6829 16.2935 22.6792 14.6094 22.9395C13.7647 23.0723 13.3716 22.7323 13.191 22.3657C13.0263 22.0257 13.0263 21.6273 13.1697 21.2767C14.3119 18.4398 13.3344 16.8354 13.3344 16.8354C12.7872 18.461 12.2081 19.5342 11.7885 20.177C11.1935 21.0907 10.8163 22.132 10.7631 23.221C10.5719 27.2798 13.9719 28.9001 13.9719 28.9001C19.5553 31.7476 22.0628 26.5414 22.0628 26.5414C24.9475 20.9951 21.6485 17.0639 21.6485 17.0639Z" fill="#FBD872"/>
</svg>
