<svg width="30" height="26" viewBox="0 0 30 26" fill="none" xmlns="http://www.w3.org/2000/svg">
<g clip-path="url(#clip0_2221_515)">
<path d="M8.76522 0.237403C8.42189 0.234944 8.11713 0.456699 8.01386 0.784114L0.194966 24.2408C-0.134893 25.2304 1.34947 25.7252 1.67934 24.7356L9.49823 1.2789C9.67657 0.772106 9.30246 0.240574 8.76522 0.237403ZM11.1139 0.237403C10.7425 0.233433 10.4196 0.491288 10.3412 0.854362L4.86798 24.3111C4.56216 25.3671 6.19669 25.7478 6.38898 24.6654L11.8622 1.20866C11.9843 0.719353 11.6182 0.244112 11.1139 0.237403ZM14.999 0.237403C14.5671 0.244141 14.2225 0.59968 14.2293 1.03151V2.59529C14.2143 3.65265 15.808 3.65265 15.7931 2.59529V1.03151C15.8 0.590107 15.4403 0.230496 14.999 0.237403ZM18.884 0.237403C18.3797 0.244112 18.0135 0.719353 18.1357 1.20866L23.6089 24.6654C23.8012 25.7478 25.4357 25.3671 25.1299 24.3111L19.6567 0.854362C19.5783 0.491288 19.2554 0.233431 18.884 0.237403ZM21.2327 0.237403C20.6954 0.240574 20.3213 0.772106 20.4996 1.2789L28.3186 24.7356C28.6484 25.7252 30.1329 25.2304 29.8029 24.2408L21.984 0.784114C21.8807 0.456699 21.576 0.234948 21.2327 0.237403ZM14.999 8.05629C14.5671 8.06303 14.2225 8.41858 14.2293 8.8504V13.5417C14.2143 14.5991 15.808 14.5991 15.7931 13.5417V8.8504C15.8 8.40901 15.4403 8.0494 14.999 8.05629ZM14.999 19.0028C14.5671 19.0095 14.2225 19.365 14.2293 19.7969V24.4882C14.2143 25.5456 15.808 25.5456 15.7931 24.4882V19.7969C15.7999 19.3554 15.4403 18.9958 14.999 19.0028Z" fill="#222222"/>
</g>
<defs>
<clipPath id="clip0_2221_515">
<rect width="30" height="25.5446" fill="white"/>
</clipPath>
</defs>
</svg>
