<svg width="20" height="29" viewBox="0 0 20 29" fill="none" xmlns="http://www.w3.org/2000/svg">
<path d="M18.1945 24.7417H18.0936C18.4452 23.7435 17.8473 22.6671 16.8306 22.4306C17.2765 21.2727 16.4182 20.0293 15.1889 20.0293H14.9816C14.9425 18.8629 14.4011 17.7745 13.5005 17.0443V14.7276C13.5005 14.4021 13.2368 14.1385 12.9135 14.1385H12.0389V11.1925H12.3264C12.6509 11.1925 12.9135 10.9288 12.9135 10.6033V6.80229C13.609 6.05685 14.0029 5.06402 14.0029 4.03971C14.0029 1.81207 12.1984 0 9.97945 0C7.76047 0 5.95601 1.81207 5.95601 4.03971C5.95601 5.06402 6.34988 6.05685 7.0454 6.80229V10.6033C7.0454 10.9288 7.30799 11.1925 7.63243 11.1925H7.91997V14.1385H7.0454C6.72205 14.1385 6.45838 14.4021 6.45838 14.7276V17.0443C5.55778 17.7745 5.01632 18.8629 4.97726 20.0293H4.77003C3.53847 20.0293 2.68343 21.275 3.1283 22.4306C2.11595 22.666 1.51264 23.7412 1.86529 24.7417H1.76438C0.794325 24.7417 0.00439453 25.534 0.00439453 26.5083C0.00439453 27.4827 0.794325 28.2758 1.76438 28.2758H18.1945C19.1645 28.2758 19.9545 27.4827 19.9545 26.5083C19.9545 25.534 19.1645 24.7417 18.1945 24.7417ZM7.12897 4.03971C7.12897 2.46202 8.40826 1.17839 9.97945 1.17839C11.5506 1.17839 12.8299 2.46202 12.8299 4.03971C12.8299 4.83942 12.5087 5.5816 11.9261 6.12848C11.8067 6.24023 11.7394 6.3954 11.7394 6.55925V10.0141C10.4482 10.0141 9.50093 10.0141 8.21945 10.0141V6.55925C8.21945 6.3954 8.15218 6.24023 8.03282 6.12848C7.45013 5.5816 7.12897 4.83942 7.12897 4.03971ZM10.8659 11.1925V13.9572H9.09295V11.1925H10.8659ZM7.37636 17.8266C7.53695 17.717 7.63243 17.5347 7.63243 17.3405V15.3158H12.3264V17.3405C12.3264 17.5347 12.4219 17.717 12.5825 17.8266C13.316 18.3301 13.7674 19.145 13.8087 20.0293H6.15024C6.19147 19.145 6.64393 18.3301 7.37636 17.8266ZM4.77003 21.2067C7.91563 21.2067 11.9109 21.2067 15.1889 21.2067C15.5122 21.2067 15.7748 21.4715 15.7748 21.7958C15.7748 22.1213 15.5122 22.385 15.1889 22.385H4.77003C4.44668 22.385 4.18409 22.1213 4.18409 21.7958C4.18409 21.4715 4.44668 21.2067 4.77003 21.2067ZM2.93843 24.1525C2.93843 23.8271 3.20101 23.5633 3.52545 23.5633C4.08318 23.5633 15.3223 23.5633 16.4334 23.5633C16.7579 23.5633 17.0204 23.8271 17.0204 24.1525C17.0204 24.4771 16.7579 24.7417 16.4334 24.7417H3.52545C3.20101 24.7417 2.93843 24.4771 2.93843 24.1525ZM18.1945 27.0975H1.76438C1.44103 27.0975 1.17735 26.8337 1.17735 26.5083C1.17735 26.1837 1.44103 25.9202 1.76438 25.9202C4.57361 25.9202 16.5398 25.9202 18.1945 25.9202C18.5178 25.9202 18.7815 26.1837 18.7815 26.5083C18.7815 26.8337 18.5178 27.0975 18.1945 27.0975Z" fill="black"/>
</svg>
